<svg xmlns="http://www.w3.org/2000/svg" width="538" height="355.655" viewBox="0 0 538 355.655">
  <g id="Grupo_898332" data-name="Grupo 898332" transform="translate(-776 -2912)">
    <rect id="BG" width="538" height="355.655" transform="translate(776 2912)" fill="#e8e8e8" opacity="0.949"/>
    <g id="Grupo_887869" data-name="Grupo 887869" transform="translate(941.655 2900.834)">
      <g id="Grupo_884292" data-name="Grupo 884292" transform="translate(24.184 59.315)">
        <path id="Trazado_618715" data-name="Trazado 618715" d="M278.982,123.6c47.824-3.811,97.966,16.042,90.6,44.821s39.4-10.222,58.071.154c13.289,7.387,7.977,29.875,14.406,38.937,14.741,20.776,29.817-5.386,48.578,10.311s-19.65,162.209-39.249,163.027l-223.548-1.866-16.042-1.98s-44.375-33.327-12.632-64.072c21.463-20.788,6.02-35.883,3.685-45.4-2.68-10.927-8.934-30.01,18.315-44.015s20.213-44.477,19.543-50.787-9.547-45.319,38.277-49.13Z" transform="translate(-160.487 -107.138)" fill="#12263f" opacity="0.1"/>
        <g id="Grupo_884236" data-name="Grupo 884236" transform="translate(40.198 120.366)">
          <g id="Grupo_884229" data-name="Grupo 884229" transform="translate(10.755 9.265)">
            <path id="Trazado_618716" data-name="Trazado 618716" d="M480.139,1145.567c-8.728-13.011-10.841-29.025-11.077-40.167a107.333,107.333,0,0,1,1.6-21.318l-.6-.2a108.03,108.03,0,0,0-1.617,21.465c.236,11.252,2.373,27.431,11.209,40.6Z" transform="translate(-468.418 -1083.887)" fill="#3c8f7c"/>
          </g>
          <g id="Grupo_884230" data-name="Grupo 884230" transform="translate(9.799)">
            <path id="Trazado_618717" data-name="Trazado 618717" d="M468.307,1040.022a9.2,9.2,0,0,1-2.837,6.549,10.782,10.782,0,0,1-2.31-7.176,9.2,9.2,0,0,1,2.837-6.549A10.781,10.781,0,0,1,468.307,1040.022Z" transform="translate(-463.152 -1032.846)" fill="#3c8f7c"/>
          </g>
          <g id="Grupo_884231" data-name="Grupo 884231" transform="translate(3.713 9.45)">
            <path id="Trazado_618718" data-name="Trazado 618718" d="M435.513,1089.15a10.766,10.766,0,0,1,1.65,7.353,9.31,9.31,0,0,1-5.777-4.241,10.771,10.771,0,0,1-1.65-7.353A9.313,9.313,0,0,1,435.513,1089.15Z" transform="translate(-429.624 -1084.908)" fill="#3c8f7c"/>
          </g>
          <g id="Grupo_884232" data-name="Grupo 884232" transform="translate(0 19.902)">
            <path id="Trazado_618719" data-name="Trazado 618719" d="M415.877,1143.82a10.267,10.267,0,0,1,4.431,5.938,7.956,7.956,0,0,1-6.706-.979,10.268,10.268,0,0,1-4.431-5.938A7.956,7.956,0,0,1,415.877,1143.82Z" transform="translate(-409.17 -1142.484)" fill="#3c8f7c"/>
          </g>
          <g id="Grupo_884233" data-name="Grupo 884233" transform="translate(1.089 28.85)">
            <ellipse id="Elipse_5973" data-name="Elipse 5973" cx="2.698" cy="5.211" rx="2.698" ry="5.211" transform="matrix(0.568, -0.823, 0.823, 0.568, 0, 4.441)" fill="#3c8f7c"/>
          </g>
          <g id="Grupo_884234" data-name="Grupo 884234" transform="translate(11.176 18.033)">
            <path id="Trazado_618720" data-name="Trazado 618720" d="M474.289,1133.189a6.825,6.825,0,0,1,5.942-.57,7.7,7.7,0,0,1-3.549,5.12,6.824,6.824,0,0,1-5.942.57A7.7,7.7,0,0,1,474.289,1133.189Z" transform="translate(-470.74 -1132.188)" fill="#3c8f7c"/>
          </g>
          <g id="Grupo_884235" data-name="Grupo 884235" transform="translate(11.217 25.188)">
            <path id="Trazado_618721" data-name="Trazado 618721" d="M474.514,1172.608a6.823,6.823,0,0,1,5.942-.57,7.7,7.7,0,0,1-3.549,5.12,6.823,6.823,0,0,1-5.941.57A7.7,7.7,0,0,1,474.514,1172.608Z" transform="translate(-470.965 -1171.607)" fill="#3c8f7c"/>
          </g>
        </g>
        <path id="Trazado_618728" data-name="Trazado 618728" d="M369.932,1282.408s14.223-31.4,9.469-38.41c-6.571-9.683-14.742,20.031-15.14,17.419-3.764-24.664-2.976-55.772-20.577-60.486-10.005-2.68.661,23.233-.581,29.909s-17.887-17.16-28.138-29.771-16.528-5.653-10.586,9.646c5.746,14.794,26.561,32.129,21.9,33.613s-30.787-19.125-34.725-11.53c-4.828,9.313,35.42,25.75,31.382,27.6s-23.212-6.864-23.212.555,26.494,9.271,25.805,12.479c-1.116,5.194-17.759-8.1-19.058-.9-1.33,7.37,22.593,7.93,21.757,13.695-.48,3.313-6.505-.155-7.6,4.4-2.485,10.386,35.211,24.939,35.211,24.939Z" transform="translate(-268.378 -1044.819)" fill="#3c8f7c"/>
        <path id="Trazado_618729" data-name="Trazado 618729" d="M665.98,1716.119c5.723,2.681,4.179,9.339,4.179,9.339s15.517-12.116,21.318-5.044,2.753,20.934-4.051,23.188-65.981.674-65.981.674S660.832,1713.707,665.98,1716.119Z" transform="translate(-542.715 -1471.614)" fill="#96d9c9"/>
        <g id="Grupo_884256" data-name="Grupo 884256" transform="translate(52.184 177.438)">
          <g id="Grupo_884255" data-name="Grupo 884255">
            <g id="Grupo_884246" data-name="Grupo 884246" transform="translate(12.322 10.716)">
              <path id="Trazado_618730" data-name="Trazado 618730" d="M543.264,1479.724l.548-.468c-12.432-15.146-17.741-34.13-20.006-47.389a131.1,131.1,0,0,1-1.955-25.439l-.754-.136a131.915,131.915,0,0,0,1.963,25.6C525.342,1445.264,530.7,1464.417,543.264,1479.724Z" transform="translate(-521.052 -1406.292)" fill="#50bfa5"/>
            </g>
            <g id="Grupo_884247" data-name="Grupo 884247" transform="translate(8.633)">
              <path id="Trazado_618731" data-name="Trazado 618731" d="M506.882,1355.7a10.04,10.04,0,0,1-2.112,7.907,14.675,14.675,0,0,1-3.954-8.447,10.04,10.04,0,0,1,2.112-7.907A14.676,14.676,0,0,1,506.882,1355.7Z" transform="translate(-500.73 -1347.255)" fill="#50bfa5"/>
            </g>
            <g id="Grupo_884248" data-name="Grupo 884248" transform="translate(2.494 11.245)">
              <path id="Trazado_618732" data-name="Trazado 618732" d="M474.347,1414.017a14.357,14.357,0,0,1,3.222,8.684,12.618,12.618,0,0,1-7.442-4.815,14.358,14.358,0,0,1-3.222-8.684A12.62,12.62,0,0,1,474.347,1414.017Z" transform="translate(-466.905 -1409.201)" fill="#50bfa5"/>
            </g>
            <g id="Grupo_884249" data-name="Grupo 884249" transform="translate(0 23.74)">
              <path id="Trazado_618733" data-name="Trazado 618733" d="M461.1,1479.454a14.374,14.374,0,0,1,6.188,6.888,9.365,9.365,0,0,1-7.934-.9,14.376,14.376,0,0,1-6.188-6.888A9.366,9.366,0,0,1,461.1,1479.454Z" transform="translate(-453.168 -1478.039)" fill="#50bfa5"/>
            </g>
            <g id="Grupo_884250" data-name="Grupo 884250" transform="translate(9.659 39.686)">
              <path id="Trazado_618734" data-name="Trazado 618734" d="M509.7,1566.326a5.992,5.992,0,0,1,2.778,2.708,3.829,3.829,0,0,1-3.32-.117,5.992,5.992,0,0,1-2.778-2.708A3.831,3.831,0,0,1,509.7,1566.326Z" transform="translate(-506.378 -1565.885)" fill="#50bfa5"/>
            </g>
            <g id="Grupo_884251" data-name="Grupo 884251" transform="translate(11.19 45.268)">
              <path id="Trazado_618735" data-name="Trazado 618735" d="M518.132,1597.078a6,6,0,0,1,2.778,2.709,3.832,3.832,0,0,1-3.321-.117,5.992,5.992,0,0,1-2.778-2.709A3.831,3.831,0,0,1,518.132,1597.078Z" transform="translate(-514.812 -1596.637)" fill="#50bfa5"/>
            </g>
            <g id="Grupo_884252" data-name="Grupo 884252" transform="translate(13.626 20.872)">
              <path id="Trazado_618736" data-name="Trazado 618736" d="M531.424,1463.58a7.449,7.449,0,0,1,6.772-.917,7.974,7.974,0,0,1-3.191,6.235,7.447,7.447,0,0,1-6.772.917A7.975,7.975,0,0,1,531.424,1463.58Z" transform="translate(-528.233 -1462.241)" fill="#50bfa5"/>
            </g>
            <g id="Grupo_884253" data-name="Grupo 884253" transform="translate(14.951 29.386)">
              <path id="Trazado_618737" data-name="Trazado 618737" d="M538.725,1510.48a7.447,7.447,0,0,1,6.772-.917,7.974,7.974,0,0,1-3.191,6.234,7.446,7.446,0,0,1-6.772.917A7.972,7.972,0,0,1,538.725,1510.48Z" transform="translate(-535.534 -1509.141)" fill="#50bfa5"/>
            </g>
            <g id="Grupo_884254" data-name="Grupo 884254" transform="translate(16.937 42.146)">
              <path id="Trazado_618738" data-name="Trazado 618738" d="M548.549,1580.31a4.848,4.848,0,0,1,4.408-.6,5.192,5.192,0,0,1-2.077,4.058,4.849,4.849,0,0,1-4.408.6A5.191,5.191,0,0,1,548.549,1580.31Z" transform="translate(-546.472 -1579.439)" fill="#50bfa5"/>
            </g>
          </g>
        </g>
        <path id="Trazado_618739" data-name="Trazado 618739" d="M402.605,1733.85s-18.175-23.336-25.773-26.911c-8.1-3.809-1.076,9.392-1.076,9.392s-17.311-17.005-21.376-12.759.275,8.219.275,8.219-14.5-2.693-16.609,2.736c-3.248,8.344,20.593,12.494,20.593,12.494s-11.421-2.506-9.136,2.659C352.951,1737.473,402.605,1733.85,402.605,1733.85Z" transform="translate(-306.511 -1460.898)" fill="#50bfa5"/>
        <path id="Trazado_618740" data-name="Trazado 618740" d="M339.418,1712.872c2.113-5.43,16.609-2.737,16.609-2.737s-4.341-3.973-.275-8.219,17.616,5.78,17.616,5.78-2.1-9.215,8.079-1.966c7.27,5.178,21.3,24.493,21.3,24.493Z" transform="translate(-311.882 -1459.242)" fill="#96d9c9"/>
        <g id="Grupo_884258" data-name="Grupo 884258" transform="translate(78.73 221.513)">
          <g id="Grupo_884257" data-name="Grupo 884257">
            <path id="Trazado_618741" data-name="Trazado 618741" d="M621.445,1641.153s28.961,2.048,34.6-3.138.045-14.581.045-14.581,9.938-7.856,9.783-12.985-6.63-2.527-6.63-2.527,10.974-14.13,8.371-16.817c-4.848-5.005-17.536,9.682-17.536,9.682s3.765-6.987-.207-8.1c-5.991-1.673-10.4,15.558-10.4,15.558s1.117-6.806-3.012-5.9C629.056,1603.968,621.445,1641.153,621.445,1641.153Z" transform="translate(-621.445 -1590.065)" fill="#50bfa5"/>
          </g>
        </g>
        <path id="Trazado_618742" data-name="Trazado 618742" d="M743.011,1661.62h-2.424l9.033-46.938,2.015.383Z" transform="translate(-640.23 -1388.701)" fill="#0e2e35"/>
        <path id="Trazado_618743" data-name="Trazado 618743" d="M2131.651,1383.262l2.338-5.669a7.97,7.97,0,0,1,10.368-4.448h0c9.857,4.318,14.144,16.337,9.573,26.845l-3.342,7.682a9.673,9.673,0,0,0,1.02,9.679,8.545,8.545,0,0,1,.843,8.526l-1.762,4.05a16.07,16.07,0,0,1-10.021,8.971,9.75,9.75,0,0,0-6.051,5.486l-2.5,5.735c-2.758,6.34-9.816,9.368-15.763,6.762l-3.394-1.486c-5.948-2.605-8.534-9.857-5.776-16.2h0c4.46-7.581,4.1-13.239,2.524-17.076a23.026,23.026,0,0,1,.217-17.913l.353-.811a22.745,22.745,0,0,1,13.879-12.6C2126.855,1389.933,2129.663,1387.831,2131.651,1383.262Z" transform="translate(-1890.194 -1190.505)" fill="#50bfa5"/>
        <path id="Trazado_618744" data-name="Trazado 618744" d="M2012.856,1598.685c4.784-6.224,31.368-39.279,48.473-44.835,18.882-6.133,1.086,18.227,1.086,18.227s33.5-36.751,45.787-33.438c11.268,3.037,0,25.817,0,25.817s12.69-12.614,28.08-12.614c14.978,0-10.4,45.865-11.771,48.259Z" transform="translate(-1813.889 -1326.288)" fill="#96d9c9"/>
        <g id="Grupo_884261" data-name="Grupo 884261" transform="translate(269.162 183.382)">
          <g id="Grupo_884259" data-name="Grupo 884259" transform="translate(0 5.786)">
            <path id="Trazado_618745" data-name="Trazado 618745" d="M2430.284,1424.364c-13.686,21.446-23.656,46.332-29.367,71.642l-1.355-.015a231.3,231.3,0,0,1,29.669-71.284c3.176-4.979,6.6-10.885,12.55-12.828.114-.037.158.138.048.179C2436.4,1414.111,2433.255,1419.709,2430.284,1424.364Z" transform="translate(-2399.563 -1411.874)" fill="#3c8f7c"/>
          </g>
          <g id="Grupo_884260" data-name="Grupo 884260" transform="translate(4.466 32.777)">
            <path id="Trazado_618746" data-name="Trazado 618746" d="M2424.169,1617.755a278.184,278.184,0,0,1,56.162-57.145c.221-.167.519.218.3.39a275.343,275.343,0,0,0-55.059,56.766Z" transform="translate(-2424.169 -1560.568)" fill="#3c8f7c"/>
          </g>
          <path id="Trazado_618747" data-name="Trazado 618747" d="M2571.031,1387.785a9.772,9.772,0,0,1,2.1,3.657,7.555,7.555,0,0,1,.067,3.731,8.122,8.122,0,0,0,2.08-3.61c.672-2.151.2-5.135-.635-6.124-1.444-2.234-3.967-2.461-4.457-1.377C2569.664,1385.138,2570.323,1386.6,2571.031,1387.785Z" transform="translate(-2539.06 -1382.809)" fill="#3c8f7c"/>
          <path id="Trazado_618748" data-name="Trazado 618748" d="M2560.723,1492.089a9.729,9.729,0,0,0-3.6-2.176,7.485,7.485,0,0,0-3.717-.141,8.1,8.1,0,0,1,3.638-2.015c2.156-.632,5.12-.1,6.089.757,2.2,1.493,2.374,4.028,1.284,4.5C2563.333,1493.514,2561.887,1492.823,2560.723,1492.089Z" transform="translate(-2525.477 -1467.971)" fill="#3c8f7c"/>
          <path id="Trazado_618749" data-name="Trazado 618749" d="M2533.5,1538.31a9.738,9.738,0,0,0-3.6-2.176,7.481,7.481,0,0,0-3.717-.141,8.1,8.1,0,0,1,3.639-2.015c2.156-.632,5.12-.1,6.089.757,2.2,1.493,2.374,4.028,1.285,4.5C2536.115,1539.735,2534.669,1539.044,2533.5,1538.31Z" transform="translate(-2503.199 -1505.801)" fill="#3c8f7c"/>
          <path id="Trazado_618750" data-name="Trazado 618750" d="M2630.593,1645.52a9.739,9.739,0,0,0-3.6-2.176,7.481,7.481,0,0,0-3.717-.141,8.1,8.1,0,0,1,3.639-2.015c2.156-.632,5.12-.1,6.089.757,2.2,1.493,2.374,4.028,1.284,4.5C2633.2,1646.945,2631.757,1646.254,2630.593,1645.52Z" transform="translate(-2582.663 -1593.551)" fill="#3c8f7c"/>
          <path id="Trazado_618751" data-name="Trazado 618751" d="M2680.194,1601.672a9.721,9.721,0,0,0-3.6-2.176,7.484,7.484,0,0,0-3.717-.141,8.1,8.1,0,0,1,3.639-2.015c2.157-.632,5.12-.1,6.089.757,2.2,1.492,2.374,4.028,1.284,4.5C2682.8,1603.1,2681.358,1602.407,2680.194,1601.672Z" transform="translate(-2623.261 -1557.662)" fill="#3c8f7c"/>
          <path id="Trazado_618752" data-name="Trazado 618752" d="M2530.853,1439.9a9.742,9.742,0,0,1,2.646,3.28,7.576,7.576,0,0,1,.653,3.674,8.152,8.152,0,0,0,1.486-3.895c.325-2.231-.608-5.1-1.589-5.946-1.777-1.978-4.3-1.8-4.617-.655C2529.087,1437.5,2529.969,1438.844,2530.853,1439.9Z" transform="translate(-2505.795 -1425.431)" fill="#3c8f7c"/>
          <path id="Trazado_618753" data-name="Trazado 618753" d="M2487.143,1488.538c.612.326,2.748.915,3.823,2.519a6.526,6.526,0,0,1,1.289,3.819,10.8,10.8,0,0,0,1.452-4.988c.152-2.63-1.4-5.432-2.777-5.952-2.54-1.441-5.79-.156-6.057,1.26C2484.566,1486.624,2485.87,1487.742,2487.143,1488.538Z" transform="translate(-2469.35 -1464.554)" fill="#3c8f7c"/>
          <path id="Trazado_618754" data-name="Trazado 618754" d="M2442.834,1566.914c.657.218,2.862.439,4.189,1.839a6.518,6.518,0,0,1,1.911,3.547,10.815,10.815,0,0,0,.6-5.161c-.292-2.618-2.3-5.118-3.735-5.4-2.745-.992-5.733.823-5.76,2.264C2439.972,1565.462,2441.445,1566.344,2442.834,1566.914Z" transform="translate(-2432.688 -1528.518)" fill="#3c8f7c"/>
          <path id="Trazado_618755" data-name="Trazado 618755" d="M2572.35,1627.929c.479.3,2.183.9,2.966,2.268a5.326,5.326,0,0,1,.833,3.18,8.808,8.808,0,0,0,1.463-3.974c.273-2.131-.834-4.5-1.921-5-1.985-1.317-4.7-.457-5,.679C2570.363,1626.225,2571.359,1627.208,2572.35,1627.929Z" transform="translate(-2539.576 -1579.494)" fill="#3c8f7c"/>
          <path id="Trazado_618756" data-name="Trazado 618756" d="M2625.943,1413.33a5.779,5.779,0,0,0-2.037-1.445,4.442,4.442,0,0,0-2.192-.246,4.8,4.8,0,0,1,2.24-1.033,4.7,4.7,0,0,1,3.569.716c1.235.979,1.228,2.488.564,2.718C2627.425,1414.287,2626.6,1413.816,2625.943,1413.33Z" transform="translate(-2581.388 -1404.98)" fill="#3c8f7c"/>
          <path id="Trazado_618757" data-name="Trazado 618757" d="M2624.269,1382.226a5.808,5.808,0,0,1-.1,2.5,4.472,4.472,0,0,1-1.144,1.893,4.807,4.807,0,0,0,2.183-1.15,4.736,4.736,0,0,0,1.614-3.273c-.019-1.58-1.213-2.495-1.8-2.107S2624.287,1381.408,2624.269,1382.226Z" transform="translate(-2582.458 -1380.001)" fill="#3c8f7c"/>
          <path id="Trazado_618758" data-name="Trazado 618758" d="M2729.854,1565.122a5.772,5.772,0,0,0-2.036-1.446,4.439,4.439,0,0,0-2.192-.246,4.8,4.8,0,0,1,2.24-1.032,4.7,4.7,0,0,1,3.569.715c1.235.98,1.229,2.488.563,2.718C2731.336,1566.079,2730.511,1565.607,2729.854,1565.122Z" transform="translate(-2666.437 -1529.219)" fill="#3c8f7c"/>
          <path id="Trazado_618759" data-name="Trazado 618759" d="M2726.7,1533.358a5.806,5.806,0,0,1,.1,2.5,4.463,4.463,0,0,1-.985,1.98,4.8,4.8,0,0,0,2.081-1.326,4.733,4.733,0,0,0,1.342-3.395c-.148-1.573-1.413-2.387-1.967-1.952S2726.648,1532.541,2726.7,1533.358Z" transform="translate(-2666.59 -1503.631)" fill="#3c8f7c"/>
        </g>
        <path id="Trazado_618760" data-name="Trazado 618760" d="M2643.679,1723.2a9.066,9.066,0,0,1,.32,3.9,6.988,6.988,0,0,1-1.411,3.154,7.5,7.5,0,0,0,3.163-2.2c1.409-1.537,2.188-4.224,1.876-5.384-.332-2.445-2.357-3.634-3.194-2.919C2643.573,1720.435,2643.55,1721.924,2643.679,1723.2Z" transform="translate(-2329.308 -1474.519)" fill="#3c8f7c"/>
        <path id="Trazado_618761" data-name="Trazado 618761" d="M2575.858,1747.562a9.076,9.076,0,0,1,.32,3.9,6.992,6.992,0,0,1-1.411,3.154,7.506,7.506,0,0,0,3.163-2.2c1.409-1.537,2.188-4.224,1.876-5.384-.333-2.445-2.358-3.633-3.195-2.919C2575.752,1744.8,2575.729,1746.29,2575.858,1747.562Z" transform="translate(-2273.799 -1494.463)" fill="#3c8f7c"/>
        <path id="Trazado_618762" data-name="Trazado 618762" d="M2506.948,1778.383a9.074,9.074,0,0,1,.32,3.9,6.988,6.988,0,0,1-1.411,3.154,7.5,7.5,0,0,0,3.163-2.2c1.409-1.537,2.188-4.224,1.876-5.384-.332-2.444-2.358-3.633-3.195-2.919C2506.842,1775.623,2506.819,1777.111,2506.948,1778.383Z" transform="translate(-2217.396 -1519.689)" fill="#3c8f7c"/>
        <path id="Trazado_618763" data-name="Trazado 618763" d="M2647.549,1781.152a8.362,8.362,0,0,0-1.931-3.05,6.42,6.42,0,0,0-2.794-1.534,6.918,6.918,0,0,1,3.557-.148c1.894.344,3.962,1.888,4.376,2.917,1.115,1.987.283,4-.73,3.94C2649.006,1783.245,2648.161,1782.161,2647.549,1781.152Z" transform="translate(-2329.502 -1520.934)" fill="#3c8f7c"/>
        <path id="Trazado_618764" data-name="Trazado 618764" d="M2577,1806.207a8.376,8.376,0,0,0-1.931-3.05,6.419,6.419,0,0,0-2.795-1.534,6.922,6.922,0,0,1,3.556-.148c1.894.344,3.962,1.888,4.377,2.917,1.115,1.987.284,4-.73,3.94C2578.461,1808.3,2577.617,1807.216,2577,1806.207Z" transform="translate(-2271.763 -1541.441)" fill="#3c8f7c"/>
        <path id="Trazado_618765" data-name="Trazado 618765" d="M2706.484,1764.783a5.359,5.359,0,0,0-1.615-1.66,4.112,4.112,0,0,0-1.956-.593,4.441,4.441,0,0,1,2.214-.564,4.357,4.357,0,0,1,3.132,1.251c.961,1.1.7,2.472.06,2.57C2707.675,1765.9,2707,1765.336,2706.484,1764.783Z" transform="translate(-2379.934 -1509.248)" fill="#3c8f7c"/>
        <path id="Trazado_618766" data-name="Trazado 618766" d="M2706.012,1735.833a5.376,5.376,0,0,1-.51,2.261,4.14,4.14,0,0,1-1.358,1.532,4.437,4.437,0,0,0,2.18-.681,4.374,4.374,0,0,0,2.017-2.711c.247-1.443-.688-2.477-1.289-2.223S2706.165,1735.091,2706.012,1735.833Z" transform="translate(-2380.94 -1486.338)" fill="#3c8f7c"/>
        <path id="Trazado_618770" data-name="Trazado 618770" d="M2121.119,635.308c-5.942-8.787-11.675-4.178-10.21-.828a2.282,2.282,0,0,0,3.578,1,.936.936,0,0,0-.529-1.621c-.67.009-.606-.729.124-.805.983-.1,1.856.858,2.492,1.482,1.484,1.457,3.427,3.326,3.07,5.623-.534,3.428-4.923,5.917-9.316,2.517-6.338-4.9-2.508-16.52,5.666-16.2a11.223,11.223,0,0,1,9.89,7.4c.3.812,1.414.3,1.345-.448-.525-5.65-6.394-9.491-11.789-9.234-5.533.263-9.6,4.8-10.371,10.13-.81,5.588,2.442,11.4,8.2,12.5C2119.58,648.014,2125.274,641.452,2121.119,635.308Z" transform="translate(-1825.067 -526.595)" fill="#3cb4c5"/>
        <path id="Trazado_618771" data-name="Trazado 618771" d="M2395.467,1295.233c-1.016-1.278-3.5-2.617-4.879-1.128a1.515,1.515,0,0,0,.136,2.351c.833.578,1.841.338,2.3,1.4a2.028,2.028,0,0,1-1.04,2.346c-2.3,1.5-5.74-.2-7.441-1.914a5.14,5.14,0,0,1,2.249-8.684,11.547,11.547,0,0,1,3.92-.062c.727.044,1.375-.936.765-1.512-2.349-2.219-6.292-1.442-8.629.42a8.226,8.226,0,0,0-2.585,8.478c.944,3.338,4.118,5.805,7.359,6.731C2394.357,1305.588,2398.758,1299.374,2395.467,1295.233Z" transform="translate(-2083.104 -1124.737)" fill="#3c8f7c"/>
        <g id="Grupo_896682" data-name="Grupo 896682" transform="translate(120.718 77.89)">
          <g id="Grupo_896681" data-name="Grupo 896681" transform="translate(0 0)">
            <path id="Trazado_618804" data-name="Trazado 618804" d="M951.788,266.615h0l-.024-.008c-.227-.082-.458-.155-.692-.222-.08-.023-.159-.047-.239-.068s-.17-.042-.255-.063-.173-.042-.26-.06-.165-.034-.248-.05-.186-.035-.28-.05l-.24-.037c-.1-.015-.2-.027-.305-.039-.074-.009-.148-.018-.223-.025-.117-.011-.234-.019-.352-.027-.062,0-.123-.009-.186-.012-.181-.009-.362-.014-.545-.014H864.063q-.293,0-.582.015a11.342,11.342,0,0,0-1.14.116q-.281.043-.557.1a11.342,11.342,0,0,0-8.972,9.958,11.514,11.514,0,0,0-.058,1.16v172a11.35,11.35,0,0,0,7.461,10.674h0l.058.02c.216.077.435.146.657.21.08.023.159.047.24.069s.17.042.255.063.173.042.26.06.165.034.248.05.186.034.28.05.159.026.24.037c.1.014.2.027.305.039.074.009.148.018.223.025.117.011.234.019.352.027.062,0,.123.01.186.012.181.009.363.014.545.014h83.875a11.338,11.338,0,0,0,11.31-11.349v-172A11.35,11.35,0,0,0,951.788,266.615Z" transform="translate(-852.753 -265.94)" fill="#f47458"/>
            <rect id="Rectángulo_296001" data-name="Rectángulo 296001" width="95.53" height="163.764" transform="translate(5.483 15.467)" fill="#f3fcff"/>
            <rect id="Rectángulo_296002" data-name="Rectángulo 296002" width="40.878" height="2.052" rx="0.868" transform="translate(32.886 8.269)" fill="#fff"/>
            <ellipse id="Elipse_5977" data-name="Elipse 5977" cx="4.692" cy="4.708" rx="4.692" ry="4.708" transform="translate(48.501 182.414)" fill="#daeef7" opacity="0.3"/>
            <rect id="Rectángulo_296003" data-name="Rectángulo 296003" width="95.53" height="6.871" transform="translate(5.483 172.361)" fill="#3cb4c5" opacity="0.2"/>
          </g>
          <rect id="Rectángulo_296004" data-name="Rectángulo 296004" width="95.53" height="8.691" transform="translate(5.483 15.467)" fill="#3cb4c5" opacity="0.2"/>
        </g>
        <g id="Grupo_884280" data-name="Grupo 884280" transform="translate(11.379 -13.461)">
          <path id="Trazado_618805" data-name="Trazado 618805" d="M439.95,426.513H336.333a6.492,6.492,0,0,0-6.481,6.5v42.906a6.492,6.492,0,0,0,6.481,6.5h81.578c3.3,4.623,9.288,12.9,9.816,12.9.495,0-.458-7.819-1.129-12.9H439.95a6.492,6.492,0,0,0,6.481-6.5V433.016A6.492,6.492,0,0,0,439.95,426.513Z" transform="translate(-325.574 -415.383)" fill="#daeef7" opacity="0.3" style="mix-blend-mode: multiply;isolation: isolate"/>
          <path id="Trazado_618806" data-name="Trazado 618806" d="M411.7,353.029H308.086a6.492,6.492,0,0,0-6.481,6.5v42.906a6.492,6.492,0,0,0,6.481,6.5h81.578c3.3,4.623,9.288,12.9,9.816,12.9.495,0-.458-7.819-1.129-12.9H411.7a6.492,6.492,0,0,0,6.481-6.5V359.532A6.492,6.492,0,0,0,411.7,353.029Z" transform="translate(-301.605 -353.029)" fill="#179587"/>
          <rect id="Rectángulo_296005" data-name="Rectángulo 296005" width="51.088" height="2.833" rx="0.959" transform="translate(10.716 13.912)" fill="#fff"/>
          <path id="Rectángulo_296006" data-name="Rectángulo 296006" d="M.959,0H21.048a.959.959,0,0,1,.959.959v.914a.96.96,0,0,1-.96.96H.959A.959.959,0,0,1,0,1.873V.959A.959.959,0,0,1,.959,0Z" transform="translate(10.716 21.386)" fill="#fff"/>
          <path id="Rectángulo_296007" data-name="Rectángulo 296007" d="M.959,0H67.534a.96.96,0,0,1,.96.96v.913a.96.96,0,0,1-.96.96H.959A.959.959,0,0,1,0,1.873V.959A.959.959,0,0,1,.959,0Z" transform="translate(35.204 21.386)" fill="#fff"/>
          <rect id="Rectángulo_296008" data-name="Rectángulo 296008" width="36.88" height="2.833" rx="0.959" transform="translate(67.025 13.912)" fill="#fff"/>
          <path id="Rectángulo_296009" data-name="Rectángulo 296009" d="M.959,0H92.23a.959.959,0,0,1,.959.959v.913a.96.96,0,0,1-.96.96H.959A.959.959,0,0,1,0,1.873V.959A.959.959,0,0,1,.959,0Z" transform="translate(10.716 36.038)" fill="#fff"/>
          <path id="Rectángulo_296010" data-name="Rectángulo 296010" d="M.959,0H47.182a.959.959,0,0,1,.959.959v.914a.96.96,0,0,1-.96.96H.96A.96.96,0,0,1,0,1.873V.959A.959.959,0,0,1,.959,0Z" transform="translate(10.716 28.861)" fill="#fff"/>
          <path id="Rectángulo_296011" data-name="Rectángulo 296011" d="M.959,0H41.293a.959.959,0,0,1,.959.959v.914a.96.96,0,0,1-.96.96H.959A.959.959,0,0,1,0,1.873V.959A.959.959,0,0,1,.959,0Z" transform="translate(61.653 28.861)" fill="#fff"/>
        </g>
        <path id="Trazado_618807" data-name="Trazado 618807" d="M1495.893,208.532h110.946a6.951,6.951,0,0,1,6.939,6.963v45.941a6.95,6.95,0,0,1-6.939,6.962h-87.348c-3.535,4.95-9.945,13.814-10.51,13.814-.53,0,.49-8.372,1.209-13.814h-14.3a6.951,6.951,0,0,1-6.939-6.962V215.495A6.951,6.951,0,0,1,1495.893,208.532Z" transform="translate(-1336.506 -189.498)" fill="#daeef7" opacity="0.3" style="mix-blend-mode: multiply;isolation: isolate"/>
        <g id="Grupo_896683" data-name="Grupo 896683" transform="translate(148.365 -10.33)">
          <path id="Trazado_618808" data-name="Trazado 618808" d="M1521.128,142.882h110.946a6.951,6.951,0,0,1,6.939,6.963v45.941a6.951,6.951,0,0,1-6.939,6.963h-87.348c-3.535,4.95-9.944,13.814-10.51,13.814-.53,0,.49-8.372,1.209-13.814h-14.3a6.951,6.951,0,0,1-6.939-6.963V149.845A6.951,6.951,0,0,1,1521.128,142.882Z" transform="translate(-1514.189 -142.882)" fill="#179587"/>
          <path id="Rectángulo_296013" data-name="Rectángulo 296013" d="M.858,0h32.2a.857.857,0,0,1,.857.857V2.176a.857.857,0,0,1-.857.857H.857A.857.857,0,0,1,0,2.176V.858A.858.858,0,0,1,.858,0Z" transform="translate(110.585 17.929) rotate(180)" fill="#fff"/>
          <path id="Rectángulo_296014" data-name="Rectángulo 296014" d="M.857,0h21.2a.857.857,0,0,1,.857.857V2.176a.857.857,0,0,1-.857.857H.856A.856.856,0,0,1,0,2.177V.857A.857.857,0,0,1,.857,0Z" transform="translate(110.585 27.835) rotate(180)" fill="#fff"/>
          <path id="Rectángulo_296015" data-name="Rectángulo 296015" d="M.857,0h26.48a.857.857,0,0,1,.857.857v1.32a.856.856,0,0,1-.856.856H.857A.857.857,0,0,1,0,2.176V.857A.857.857,0,0,1,.857,0Z" transform="translate(84.906 27.835) rotate(180)" fill="#fff"/>
          <path id="Rectángulo_296016" data-name="Rectángulo 296016" d="M.857,0h37.69A.858.858,0,0,1,39.4.858V2.176a.857.857,0,0,1-.857.857H.857A.857.857,0,0,1,0,2.176V.857A.857.857,0,0,1,.857,0Z" transform="translate(53.14 27.835) rotate(180)" fill="#fff"/>
          <path id="Rectángulo_296017" data-name="Rectángulo 296017" d="M.857,0H56.032a.858.858,0,0,1,.858.858V2.176a.857.857,0,0,1-.857.857H.858A.858.858,0,0,1,0,2.176V.857A.857.857,0,0,1,.857,0Z" transform="translate(70.46 17.929) rotate(180)" fill="#fff"/>
          <path id="Rectángulo_296018" data-name="Rectángulo 296018" d="M.857,0h95.3a.857.857,0,0,1,.857.857V2.176a.857.857,0,0,1-.857.857H.858A.858.858,0,0,1,0,2.176V.857A.857.857,0,0,1,.857,0Z" transform="translate(110.585 47.237) rotate(180)" fill="#fff"/>
          <path id="Rectángulo_296019" data-name="Rectángulo 296019" d="M.858,0h48.4a.857.857,0,0,1,.857.857V2.176a.857.857,0,0,1-.857.857H.857A.857.857,0,0,1,0,2.176V.858A.858.858,0,0,1,.858,0Z" transform="translate(110.585 37.651) rotate(180)" fill="#fff"/>
          <path id="Rectángulo_296020" data-name="Rectángulo 296020" d="M.857,0h42.7a.857.857,0,0,1,.857.857V2.176a.857.857,0,0,1-.857.857H.858A.858.858,0,0,1,0,2.176V.857A.857.857,0,0,1,.857,0Z" transform="translate(57.982 37.651) rotate(180)" fill="#fff"/>
        </g>
        <g id="Grupo_884281" data-name="Grupo 884281" transform="translate(139.539 84.819)">
          <path id="Trazado_618809" data-name="Trazado 618809" d="M972.866,905.444s-11.139,1.607-9.437,12.357c1.587,10.023,11.139,7.987,13.592,7.485S972.866,905.444,972.866,905.444Z" transform="translate(-963.252 -880.804)" fill="#f7cc7f"/>
          <path id="Trazado_618810" data-name="Trazado 618810" d="M981.3,1061.793c1.142-.234.32-4.552-.885-9.1-4.1.8-8.669,1.7-12.546,2.466C969.854,1064.212,978.924,1062.281,981.3,1061.793Z" transform="translate(-967.536 -1017.311)" fill="#e8ba70"/>
          <path id="Trazado_618811" data-name="Trazado 618811" d="M1182.874,1155.481s2.446,8.735,1.8,15.522c-.6,6.329.3,7.384,2.653,7.183s8.06-1.607,8.16-3.868-.951-13.864-4.906-20.093S1182.874,1155.481,1182.874,1155.481Z" transform="translate(-1166.852 -1109.141)" fill="#96d9c9"/>
          <path id="Trazado_618812" data-name="Trazado 618812" d="M1186.676,1152.975a26.562,26.562,0,0,0-3.8,3.643s2.446,8.735,1.8,15.522c-.6,6.329.3,7.384,2.653,7.183a19.816,19.816,0,0,0,3.5-.69C1191.768,1163.077,1187.755,1154.735,1186.676,1152.975Z" transform="translate(-1166.852 -1110.277)" fill="#50bfa5"/>
          <path id="Trazado_618813" data-name="Trazado 618813" d="M1202.574,615.208s-18.473,13.45-24.443,17.519l-3.492,5.2,2.478,15.145,5.97,2.939,29.174,5.764-.676-3.278-5.294-14.693-2.7-16.727-.788-10.285Z" transform="translate(-1159.218 -611.741)" fill="#96d9c9"/>
          <path id="Trazado_618814" data-name="Trazado 618814" d="M1224.342,951.453l-.709-4.386-29.523,7.19,1.058,6.464,5.97,2.938,29.174,5.764-.676-3.278Z" transform="translate(-1177.269 -919.391)" fill="#50bfa5"/>
          <path id="Trazado_618815" data-name="Trazado 618815" d="M1093.661,840.24s-2.44,12.847,4.956,23.283a1.293,1.293,0,0,1-.488,1.57l-5.507,1.407s-2.553.9-4.706-2.763-5.957-11.905-3.7-21a4.117,4.117,0,0,1,3.554-2.913l4-.753S1093.549,838.8,1093.661,840.24Z" transform="translate(-1074.749 -819.254)" fill="#3c8f7c"/>
          <path id="Trazado_618816" data-name="Trazado 618816" d="M1533.91,571.147s4.806-3.541,7.584-3.466,5.557,3.767,7.359,6.781,6.533,14.844,6.984,22.831.375,19.365-3.53,20.721-8.711-.3-8.711-.3-6.308-5.425-9.987-22.3S1533.91,571.147,1533.91,571.147Z" transform="translate(-1490.554 -567.68)" fill="#256653"/>
          <path id="Trazado_618817" data-name="Trazado 618817" d="M1599.422,626.141s4.492-5.839,2.2-21.605c-3.6-24.823-12.691-28.577-12.691-28.577s-6.725,5.125-.3,29.113C1593.928,624.839,1599.422,626.141,1599.422,626.141Z" transform="translate(-1540.435 -575.355)" fill="#3c8f7c"/>
          <path id="Trazado_618818" data-name="Trazado 618818" d="M1594.48,835.693a91.326,91.326,0,0,0,2.15,10.094c.513,1.915,1.028,3.655,1.54,5.239,2.793-.971,7.312-3.4,5.382-9.572C1601.764,835.738,1597.11,835.389,1594.48,835.693Z" transform="translate(-1548.431 -816.07)" fill="#f7cc7f"/>
          <path id="Trazado_618819" data-name="Trazado 618819" d="M1616.389,923.2c.513,1.915,1.028,3.655,1.539,5.239,2.755-.957,7.187-3.336,5.458-9.319l-7.593,1.756Q1616.07,922.01,1616.389,923.2Z" transform="translate(-1568.189 -893.485)" fill="#e8ba70"/>
          <path id="Trazado_618820" data-name="Trazado 618820" d="M1110.082,1046.765a28.473,28.473,0,0,1-4.434-10.052l-9.759,1.848a33.531,33.531,0,0,0,3.492,8.417c2.153,3.667,4.706,2.763,4.706,2.763l5.507-1.406A1.293,1.293,0,0,0,1110.082,1046.765Z" transform="translate(-1086.213 -1002.497)" fill="#3c8f7c" opacity="0.3" style="mix-blend-mode: multiply;isolation: isolate"/>
        </g>
        <path id="Trazado_618845" data-name="Trazado 618845" d="M1082.888,1661.41l2.015-.384-8.708-46.345-2.015.383Z" transform="translate(-913.269 -1388.701)" fill="#0e2e35"/>
        <path id="Trazado_618846" data-name="Trazado 618846" d="M987.495,1661.62h-2.424l9.034-46.938,2.015.383Z" transform="translate(-840.334 -1388.701)" fill="#0e2e35"/>
        <path id="Trazado_618847" data-name="Trazado 618847" d="M836.35,1662.571l1.968.023-8.66-46.752-2.016.383Z" transform="translate(-711.483 -1389.651)" fill="#0e2e35"/>
        <path id="Trazado_618848" data-name="Trazado 618848" d="M766.733,1265.524c-7.98.858-18.307,1.762-28.675,19.416-11.331,19.295-5.366,48.115,3.577,56.124s38.153,17.9,62.707,3.094c0,0,14.826-8.972,7.217-23.862-11.709-22.914-10.055-27.692-15.29-36.672S783.672,1263.7,766.733,1265.524Z" transform="translate(-633.073 -1102.758)" fill="#fae0b2"/>
        <path id="Trazado_618849" data-name="Trazado 618849" d="M738.058,1292c7.076-12.049,14.133-16.3,20.439-18.05a52.964,52.964,0,0,0-7.386,10c-11.331,19.294-5.366,48.115,3.577,56.124,7.931,7.1,31.8,15.681,54.227,7.207a22.823,22.823,0,0,1-4.572,3.932c-24.554,14.8-53.764,4.915-62.707-3.094S726.727,1311.3,738.058,1292Z" transform="translate(-633.073 -1109.822)" fill="#f7cc7f"/>
        <path id="Trazado_618850" data-name="Trazado 618850" d="M1046.258,1427.988l2.051,6.174-6.251-2.467Z" transform="translate(-886.978 -1235.896)" fill="#f79c8d"/>
        <path id="Trazado_618851" data-name="Trazado 618851" d="M1011.707,1326.767c.417.017,1.559.4,3.228,3.555,2.133,4.03,5.249,16.2,5.249,16.2l-9.3,3.464-1.195-2.541-1.969-19.563S1011.592,1326.762,1011.707,1326.767Z" transform="translate(-858.871 -1153.049)" fill="#dd513a"/>
        <path id="Trazado_618852" data-name="Trazado 618852" d="M887.547,1317.1a56.829,56.829,0,0,1,12.3,1.756s2.244,19.29-2.021,33.948c-.955,3.281.79,13.6.79,13.6l-27.567-.364s3.266-24.95,2.035-28.98-1.26-18.076-1.26-18.076.189-.029,6.193-1.067A62.431,62.431,0,0,1,887.547,1317.1Z" transform="translate(-747.009 -1145.136)" fill="#f47458"/>
        <path id="Trazado_618853" data-name="Trazado 618853" d="M908.92,1785.968s.61,7.039,1.731,8.988-.059,5.263-.118,5.718-2.361,1.1-6.02.715-3.6-1.234-3.3-2.6,2.243-3.119,2.36-4.418-1.121-5.978-1.121-5.978Z" transform="translate(-771.594 -1528.895)" fill="#f7a491"/>
        <path id="Trazado_618854" data-name="Trazado 618854" d="M893.383,1554.772s19.029-1.057,23.279,1.517-.768,7.858-.768,7.858-15.492,6.736-41.428,8.233c-6.141.354-6.671-16.014-5.523-17.369S893.383,1554.772,893.383,1554.772Z" transform="translate(-744.889 -1339.312)" fill="#256653"/>
        <path id="Trazado_618855" data-name="Trazado 618855" d="M903.046,1844.371c-3.768-.4-3.3-2.253-3-3.658.19-.879,1.271-1.917,1.916-2.9a6.275,6.275,0,0,0,2.521,1.226c1.7.5,4.028-.491,5.513-1.114a18.206,18.206,0,0,1,.5,4.861C910.439,1843.255,906.814,1844.772,903.046,1844.371Z" transform="translate(-770.583 -1571.33)" fill="#184655"/>
        <path id="Trazado_618856" data-name="Trazado 618856" d="M863.894,1569.238c.76,5.753,4.525,34.393,4.525,34.393l-8.734,1.083s-10.741-37.381-10.19-43.1,4.571-6.2,4.571-6.2S861.883,1554.009,863.894,1569.238Z" transform="translate(-729.352 -1340.165)" fill="#3c8f7c"/>
        <path id="Trazado_618857" data-name="Trazado 618857" d="M854.285,1339.167c2.577-.967,3.838,22.256,4.186,31.815a112.3,112.3,0,0,0,14.5-.145c.932-.07,3.08-.857,4.007-.978a9.246,9.246,0,0,1,2.277-.108,42.954,42.954,0,0,1,5.336,2.4c.5.529,1.869,1.864,1.639,2.441s-2.624-1.608-2.624-1.608l-1.17-.656c1.456,1.423,4.235,3.3,3.834,3.979-.39.665-2.9-1.236-4.682-2.532,1.532,1.384,3.435,3.86,3,4.246-.394.347-2.559-2.52-4.873-3.345-.857-.306-1.712.541-2.386.644a4.844,4.844,0,0,1-1.747.1l-2.505-.71c-.853.077-.875.582-1.737.765-1,.213-2.642.437-3.916.748-7.336,1.793-9.783,2.625-12.029,2.624C848.588,1378.84,848.194,1341.452,854.285,1339.167Z" transform="translate(-729.771 -1163.174)" fill="#f7a491"/>
        <path id="Trazado_618858" data-name="Trazado 618858" d="M845.88,1351.185c-.483-9.791-.412-21.859,5.077-23.918,2.166-.813,5.984,4.072,5.3,24.117A41.245,41.245,0,0,1,845.88,1351.185Z" transform="translate(-726.257 -1153.389)" fill="#dd513a"/>
        <path id="Trazado_618859" data-name="Trazado 618859" d="M975.441,1436.234h-.56l-8.411,20.669.579-.088Z" transform="translate(-825.111 -1242.645)" fill="#f79c8d"/>
        <path id="Trazado_618860" data-name="Trazado 618860" d="M1054.089,1819.137s-.762,2.444.6,4.06,7.035,3.2,7.78,4.076a2.455,2.455,0,0,1,.688,1.62l-15.915-.438.173-4.806.733-3.455Z" transform="translate(-891.222 -1556.042)" fill="#f7a491"/>
        <path id="Trazado_618861" data-name="Trazado 618861" d="M1051.665,1844.287s-4.089,1.654-6.065.675-1.916-1.251-2.488-.886-.776,4.872-.776,4.872l17.9.526c1.245-.029,1.875-.946.863-1.731a14.612,14.612,0,0,0-1.951-1.16C1057.745,1845.779,1051.665,1844.287,1051.665,1844.287Z" transform="translate(-887.205 -1576.328)" fill="#184655"/>
        <path id="Trazado_618862" data-name="Trazado 618862" d="M1054.87,1561.048c1.23-2.589,4.028-5.959,8.95-3.929,4.7,1.937,5.955,6.695,4.474,11.567s-11.233,33.515-11.573,37.454l-7.786.051s1.415-22.68,1.762-28.162A53.092,53.092,0,0,1,1054.87,1561.048Z" transform="translate(-892.606 -1341.078)" fill="#3c8f7c"/>
        <path id="Trazado_618863" data-name="Trazado 618863" d="M922.717,1436.234H896.69a1.7,1.7,0,0,0-1.57,1.057l-8.014,19.613H872.757a.728.728,0,0,0-.727.728h0a.728.728,0,0,0,.727.728H913.6a2.85,2.85,0,0,0,2.6-1.689l8.069-18.037A1.7,1.7,0,0,0,922.717,1436.234Z" transform="translate(-747.813 -1242.645)"/>
        <path id="Trazado_618864" data-name="Trazado 618864" d="M1061.35,1490.587a1.433,1.433,0,1,1-1.074-1.875A1.532,1.532,0,0,1,1061.35,1490.587Z" transform="translate(-900.459 -1285.577)" fill="#fff"/>
        <g id="Grupo_884291" data-name="Grupo 884291" transform="translate(132.236 146.408)">
          <path id="Trazado_618865" data-name="Trazado 618865" d="M930.7,1178.31a19.973,19.973,0,0,1-2.3-.922,11.542,11.542,0,0,0-2.625-.989c-1.453-.224-3.948-.075-5.326,1.42-1.717,1.862-4.767.336-4.153,10.09.7,11.041,6.834,9.829,6.983,9.642s5.475-7.063,5.475-7.063,1.862,4.073,1.862,3.924S940.12,1181.484,930.7,1178.31Z" transform="translate(-916.211 -1176.316)" fill="#0e2e35"/>
          <path id="Trazado_618866" data-name="Trazado 618866" d="M941.917,1269.78l.53,3.945s1.187,5.683-.34,6.779-6.495-6.941-6.495-6.941l.525-10Z" transform="translate(-932.09 -1247.729)" fill="#f7a491"/>
          <path id="Trazado_618867" data-name="Trazado 618867" d="M937.569,1266.806a11.319,11.319,0,0,0,6.4,6.319l-.45-3.345-5.78-6.214Z" transform="translate(-933.692 -1247.729)" fill="#f47458"/>
          <path id="Trazado_618868" data-name="Trazado 618868" d="M938.542,1203.339a5.261,5.261,0,0,1,6.058,5.32,40.037,40.037,0,0,1-.443,5.06c-.7,4.554-3.811,8.564-5.865,8.206s-7.224-4.286-6.313-10.766C932.541,1207.156,935.147,1203.887,938.542,1203.339Z" transform="translate(-929.03 -1198.378)" fill="#f7a491"/>
          <path id="Trazado_618869" data-name="Trazado 618869" d="M926.836,1241.554a1.531,1.531,0,1,1-1.164-2.071A1.694,1.694,0,0,1,926.836,1241.554Z" transform="translate(-922.461 -1228.002)" fill="#f7a491"/>
          <path id="Trazado_618870" data-name="Trazado 618870" d="M930.365,1203.045s2.484.617,3.406-.98,4.218-5.045,8.408-3.616-3.687-3.475-4.022-3.475-4.358-.028-4.358-.028-3.1,2.551-3.212,2.831-1.005,3.335-1.005,3.335Z" transform="translate(-927.154 -1191.563)" fill="#0e2e35"/>
        </g>
        <path id="Trazado_618871" data-name="Trazado 618871" d="M958.859,1276.287l4.52.864a2.012,2.012,0,0,1-2.43,1.38C958.512,1278.138,958.859,1276.287,958.859,1276.287Z" transform="translate(-818.867 -1111.732)" fill="#fff"/>
        <path id="Trazado_618872" data-name="Trazado 618872" d="M701.567,998.917l4.52.864a2.012,2.012,0,0,1-2.43,1.38C701.22,1000.768,701.567,998.917,701.567,998.917Z" transform="translate(-608.279 -884.71)" fill="#fff"/>
        <path id="Trazado_618873" data-name="Trazado 618873" d="M2487.269,1763.026a71.1,71.1,0,0,0-11.672,2.089,140.562,140.562,0,0,0-20.32,7.431c-3.251,1.417-6.523,2.815-9.712,4.369a35.057,35.057,0,0,0-4.365,2.386,48.543,48.543,0,0,0-5.092,4.166l1.518.045a50.446,50.446,0,0,1,10.134-6.609c12.528-6.035,25.544-12.225,39.517-13.762A.057.057,0,0,0,2487.269,1763.026Z" transform="translate(-2160.312 -1510.117)" fill="#3c8f7c"/>
        <g id="Grupo_884245" data-name="Grupo 884245" transform="translate(24.629 191.056)">
          <g id="Grupo_884237" data-name="Grupo 884237" transform="translate(9.537 10.181)">
            <path id="Trazado_618722" data-name="Trazado 618722" d="M251.345,1506.092c-18.3-6.661-31.092-22.55-38.606-34.706a130.4,130.4,0,0,1-12.062-25.085l-.808.322a131.315,131.315,0,0,0,12.141,25.263c7.586,12.277,20.516,28.327,39.038,35.071Z" transform="translate(-199.869 -1446.301)" fill="#96d9c9"/>
          </g>
          <g id="Grupo_884238" data-name="Grupo 884238" transform="translate(3.295)">
            <path id="Trazado_618723" data-name="Trazado 618723" d="M173.247,1396.118a13.225,13.225,0,0,1,1.064,9.8,11.434,11.434,0,0,1-7.27-5.905,13.223,13.223,0,0,1-1.064-9.8A11.436,11.436,0,0,1,173.247,1396.118Z" transform="translate(-165.482 -1390.213)" fill="#96d9c9"/>
          </g>
          <g id="Grupo_884239" data-name="Grupo 884239" transform="translate(0 17.106)">
            <path id="Trazado_618724" data-name="Trazado 618724" d="M156.6,1485.251a11.665,11.665,0,0,1,6.641,6.69,11.147,11.147,0,0,1-9.268.442,11.664,11.664,0,0,1-6.641-6.69A11.149,11.149,0,0,1,156.6,1485.251Z" transform="translate(-147.332 -1484.451)" fill="#96d9c9"/>
          </g>
          <g id="Grupo_884240" data-name="Grupo 884240" transform="translate(2.2 27.674)">
            <ellipse id="Elipse_5974" data-name="Elipse 5974" cx="8.599" cy="3.776" rx="8.599" ry="3.776" transform="matrix(0.99, -0.141, 0.141, 0.99, 0, 2.427)" fill="#96d9c9"/>
          </g>
          <g id="Grupo_884241" data-name="Grupo 884241" transform="translate(8.65 38.168)">
            <ellipse id="Elipse_5975" data-name="Elipse 5975" cx="8.599" cy="3.776" rx="8.599" ry="3.776" transform="translate(0 2.427) rotate(-8.113)" fill="#96d9c9"/>
          </g>
          <g id="Grupo_884242" data-name="Grupo 884242" transform="translate(16.828 14.664)">
            <path id="Trazado_618725" data-name="Trazado 618725" d="M240.056,1479.341a12.909,12.909,0,0,1,3.6-8.346,11.212,11.212,0,0,1,2.673,8.234,12.909,12.909,0,0,1-3.6,8.346A11.212,11.212,0,0,1,240.056,1479.341Z" transform="translate(-240.035 -1470.995)" fill="#96d9c9"/>
          </g>
          <g id="Grupo_884243" data-name="Grupo 884243" transform="translate(23.573 25.462)">
            <path id="Trazado_618726" data-name="Trazado 618726" d="M277.2,1538.893a12.955,12.955,0,0,1,3.479-8.409,11.157,11.157,0,0,1,2.8,8.178,12.954,12.954,0,0,1-3.479,8.409A11.158,11.158,0,0,1,277.2,1538.893Z" transform="translate(-277.193 -1530.484)" fill="#96d9c9"/>
          </g>
          <g id="Grupo_884244" data-name="Grupo 884244" transform="translate(25.797 49.657)">
            <path id="Trazado_618727" data-name="Trazado 618727" d="M292.014,1664.323a4.521,4.521,0,0,1,3.933-.185,5.21,5.21,0,0,1-2.567,3.249,4.519,4.519,0,0,1-3.933.185A5.21,5.21,0,0,1,292.014,1664.323Z" transform="translate(-289.447 -1663.773)" fill="#96d9c9"/>
          </g>
        </g>
        <g id="Grupo_884279" data-name="Grupo 884279" transform="translate(184.907 165.285)">
          <g id="Grupo_896684" data-name="Grupo 896684" transform="translate(0 0)">
            <rect id="Rectángulo_295979" data-name="Rectángulo 295979" width="76.418" height="107.269" rx="4" fill="#f7cc7f"/>
            <rect id="Rectángulo_295980" data-name="Rectángulo 295980" width="63.377" height="16.364" transform="translate(6.881 8.823)" fill="#3cb4c5"/>
            <path id="Trazado_618790" data-name="Trazado 618790" d="M1571.324,927.73h61.7v-2.356h-63.377v16.364h1.681Z" transform="translate(-1562.761 -916.551)" fill="#3cb4c5" opacity="0.5" style="mix-blend-mode: multiply;isolation: isolate"/>
            <rect id="Rectángulo_295981" data-name="Rectángulo 295981" width="18.185" height="5.895" rx="1" transform="translate(6.881 29.855)" fill="#f47458"/>
            <rect id="Rectángulo_295982" data-name="Rectángulo 295982" width="18.185" height="5.895" rx="1" transform="translate(29.477 29.855)" fill="#f47458"/>
            <rect id="Rectángulo_295983" data-name="Rectángulo 295983" width="18.185" height="5.895" rx="1" transform="translate(52.073 29.855)" fill="#f47458"/>
            <rect id="Rectángulo_295984" data-name="Rectángulo 295984" width="14.073" height="13.216" rx="2" transform="translate(6.881 40.418)" fill="#f47458"/>
            <rect id="Rectángulo_295985" data-name="Rectángulo 295985" width="14.073" height="13.216" rx="2" transform="translate(23.315 40.418)" fill="#fae0b2"/>
            <rect id="Rectángulo_295986" data-name="Rectángulo 295986" width="14.073" height="13.216" rx="2" transform="translate(39.75 40.418)" fill="#fae0b2"/>
            <rect id="Rectángulo_295987" data-name="Rectángulo 295987" width="14.073" height="13.216" rx="2" transform="translate(6.881 56.711)" fill="#f47458"/>
            <rect id="Rectángulo_295988" data-name="Rectángulo 295988" width="14.073" height="13.216" rx="2" transform="translate(23.315 56.711)" fill="#fae0b2"/>
            <rect id="Rectángulo_295989" data-name="Rectángulo 295989" width="14.073" height="13.216" rx="2" transform="translate(39.75 56.711)" fill="#fae0b2"/>
            <path id="Trazado_618791" data-name="Trazado 618791" d="M2054.561,1228.943h-8.34a2.872,2.872,0,0,0-2.866,2.877v23.756a2.872,2.872,0,0,0,2.866,2.877h8.34a2.872,2.872,0,0,0,2.867-2.877V1231.82A2.872,2.872,0,0,0,2054.561,1228.943Z" transform="translate(-1987.17 -1188.525)" fill="#fae0b2"/>
            <rect id="Rectángulo_295990" data-name="Rectángulo 295990" width="14.073" height="13.216" rx="2" transform="translate(6.881 73.004)" fill="#f47458"/>
            <rect id="Rectángulo_295991" data-name="Rectángulo 295991" width="14.073" height="13.216" rx="2" transform="translate(23.315 73.004)" fill="#fae0b2"/>
            <rect id="Rectángulo_295992" data-name="Rectángulo 295992" width="14.073" height="13.216" rx="2" transform="translate(39.75 73.004)" fill="#fae0b2"/>
            <rect id="Rectángulo_295993" data-name="Rectángulo 295993" width="14.073" height="13.216" rx="2" transform="translate(56.184 73.004)" fill="#fae0b2"/>
            <rect id="Rectángulo_295994" data-name="Rectángulo 295994" width="14.073" height="13.216" rx="2" transform="translate(6.881 89.297)" fill="#f47458"/>
            <rect id="Rectángulo_295995" data-name="Rectángulo 295995" width="14.073" height="13.216" rx="2" transform="translate(23.315 89.297)" fill="#fae0b2"/>
            <rect id="Rectángulo_295996" data-name="Rectángulo 295996" width="14.073" height="13.216" rx="2" transform="translate(39.75 89.297)" fill="#fae0b2"/>
            <rect id="Rectángulo_295997" data-name="Rectángulo 295997" width="14.073" height="13.216" rx="2" transform="translate(56.184 89.297)" fill="#e87b50"/>
            <g id="Grupo_884263" data-name="Grupo 884263" transform="translate(11.62 76.14)">
              <path id="Trazado_618792" data-name="Trazado 618792" d="M1619.881,1572.16v.668l-3.249,6.819h-1.045l3.237-6.624V1573h-3.651v-.841Z" transform="translate(-1615.174 -1572.16)" fill="#fff"/>
            </g>
            <g id="Grupo_884264" data-name="Grupo 884264" transform="translate(27.888 76.013)">
              <path id="Trazado_618793" data-name="Trazado 618793" d="M1771.482,1576.657a2.139,2.139,0,0,1,1.481-2l-.012-.034a1.855,1.855,0,0,1-1.182-1.682,2.093,2.093,0,0,1,2.307-1.993,1.929,1.929,0,0,1,2.17,1.843,1.9,1.9,0,0,1-1.228,1.751v.035a2.074,2.074,0,0,1,1.5,1.935,2.3,2.3,0,0,1-2.537,2.177C1772.423,1578.684,1771.482,1577.751,1771.482,1576.657Zm4.018-.046c0-.91-.631-1.348-1.642-1.636a1.626,1.626,0,0,0-1.343,1.544,1.382,1.382,0,0,0,1.493,1.429A1.352,1.352,0,0,0,1775.5,1576.611Zm-2.778-3.744c0,.749.563,1.152,1.423,1.382a1.474,1.474,0,0,0,1.137-1.359,1.162,1.162,0,0,0-1.263-1.221A1.188,1.188,0,0,0,1772.722,1572.867Z" transform="translate(-1771.482 -1570.943)" fill="#fff"/>
            </g>
            <g id="Grupo_884265" data-name="Grupo 884265" transform="translate(27.877 92.106)">
              <path id="Trazado_618794" data-name="Trazado 618794" d="M1776.436,1729.354c0,2.546-.941,3.951-2.595,3.951-1.458,0-2.445-1.371-2.468-3.847,0-2.511,1.079-3.893,2.594-3.893C1775.54,1725.564,1776.436,1726.969,1776.436,1729.354Zm-4.053.115c0,1.947.6,3.052,1.516,3.052,1.033,0,1.527-1.209,1.527-3.122,0-1.843-.471-3.053-1.515-3.053C1773.026,1726.347,1772.383,1727.43,1772.383,1729.469Z" transform="translate(-1771.373 -1725.564)" fill="#fff"/>
            </g>
            <g id="Grupo_884266" data-name="Grupo 884266" transform="translate(44.605 76.013)">
              <path id="Trazado_618795" data-name="Trazado 618795" d="M1932.728,1577.843a4.187,4.187,0,0,0,.815-.035,2.811,2.811,0,0,0,1.562-.726,3.291,3.291,0,0,0,.987-1.993h-.035a2.24,2.24,0,0,1-3.961-1.486,2.563,2.563,0,0,1,2.549-2.661c1.527,0,2.468,1.244,2.468,3.156a4.741,4.741,0,0,1-1.286,3.514,3.726,3.726,0,0,1-2.17,1,4.693,4.693,0,0,1-.93.057Zm.367-4.308a1.439,1.439,0,0,0,1.435,1.589,1.668,1.668,0,0,0,1.469-.783.67.67,0,0,0,.092-.369c0-1.279-.471-2.258-1.527-2.258C1933.7,1571.715,1933.095,1572.475,1933.095,1573.535Z" transform="translate(-1932.096 -1570.943)" fill="#fff"/>
            </g>
            <g id="Grupo_884267" data-name="Grupo 884267" transform="translate(11.138 59.528)">
              <path id="Trazado_618796" data-name="Trazado 618796" d="M1614.008,1420.039V1418h-3.467v-.668l3.329-4.781h1.091v4.654h1.045V1418h-1.045v2.039Zm0-2.834v-2.5q0-.588.034-1.175h-.034c-.23.438-.413.76-.62,1.106l-1.825,2.546v.023Z" transform="translate(-1610.541 -1412.551)" fill="#fff"/>
            </g>
            <g id="Grupo_884268" data-name="Grupo 884268" transform="translate(27.946 59.528)">
              <path id="Trazado_618797" data-name="Trazado 618797" d="M1776.523,1413.4h-2.847l-.287,1.924a3.984,3.984,0,0,1,.608-.046,3.147,3.147,0,0,1,1.607.4,2.136,2.136,0,0,1,1.068,1.924,2.592,2.592,0,0,1-2.778,2.557,3.644,3.644,0,0,1-1.86-.461l.253-.772a3.331,3.331,0,0,0,1.6.415,1.649,1.649,0,0,0,1.768-1.625c-.011-.967-.654-1.659-2.147-1.659a7.7,7.7,0,0,0-1.033.081l.482-3.594h3.57Z" transform="translate(-1772.034 -1412.551)" fill="#fff"/>
            </g>
            <g id="Grupo_884269" data-name="Grupo 884269" transform="translate(44.525 59.412)">
              <path id="Trazado_618798" data-name="Trazado 618798" d="M1935.709,1412.273a3.643,3.643,0,0,0-.758.046,3.039,3.039,0,0,0-2.595,2.661h.035a2.274,2.274,0,0,1,4.053,1.555,2.5,2.5,0,0,1-2.48,2.638c-1.6,0-2.641-1.244-2.641-3.191a4.716,4.716,0,0,1,1.263-3.375,4.056,4.056,0,0,1,2.388-1.106,4.843,4.843,0,0,1,.735-.058Zm-.287,4.32a1.519,1.519,0,0,0-1.538-1.716,1.663,1.663,0,0,0-1.446.921.864.864,0,0,0-.115.449c.023,1.233.585,2.143,1.642,2.143C1934.836,1418.39,1935.422,1417.665,1935.422,1416.593Z" transform="translate(-1931.323 -1411.444)" fill="#fff"/>
            </g>
            <g id="Grupo_884270" data-name="Grupo 884270" transform="translate(12.159 43.608)">
              <path id="Trazado_618799" data-name="Trazado 618799" d="M1621.873,1260.538h-.023l-1.3.7-.2-.772,1.63-.875h.861v7.488h-.976Z" transform="translate(-1620.358 -1259.593)" fill="#fff"/>
            </g>
            <g id="Grupo_884271" data-name="Grupo 884271" transform="translate(27.98 43.481)">
              <path id="Trazado_618800" data-name="Trazado 618800" d="M1772.365,1265.989v-.622l.792-.772c1.906-1.82,2.767-2.788,2.778-3.917a1.334,1.334,0,0,0-1.481-1.463,2.537,2.537,0,0,0-1.584.633l-.321-.714a3.269,3.269,0,0,1,2.112-.76,2.1,2.1,0,0,1,2.285,2.177c0,1.382-1,2.5-2.572,4.02l-.6.553v.023h3.352v.841Z" transform="translate(-1772.365 -1258.375)" fill="#fff"/>
            </g>
            <g id="Grupo_884272" data-name="Grupo 884272" transform="translate(44.616 43.481)">
              <path id="Trazado_618801" data-name="Trazado 618801" d="M1932.482,1264.826a3.367,3.367,0,0,0,1.653.472c1.3,0,1.7-.829,1.688-1.452-.012-1.048-.953-1.5-1.929-1.5h-.562v-.76h.562c.735,0,1.665-.38,1.665-1.267,0-.6-.379-1.129-1.309-1.129a2.735,2.735,0,0,0-1.492.5l-.264-.737a3.538,3.538,0,0,1,1.952-.576c1.469,0,2.135.876,2.135,1.786a1.859,1.859,0,0,1-1.378,1.762v.023a1.949,1.949,0,0,1,1.665,1.924c0,1.2-.93,2.246-2.721,2.246a3.786,3.786,0,0,1-1.94-.507Z" transform="translate(-1932.206 -1258.375)" fill="#fff"/>
            </g>
            <g id="Grupo_884273" data-name="Grupo 884273" transform="translate(13.018 97.83)">
              <ellipse id="Elipse_5976" data-name="Elipse 5976" cx="0.9" cy="0.903" rx="0.9" ry="0.903" fill="#fff"/>
            </g>
            <g id="Grupo_884275" data-name="Grupo 884275" transform="translate(43.634 93.039)">
              <path id="Trazado_618803" data-name="Trazado 618803" d="M1929.072,1740.205l-2.508-2.516,2.508-2.517-.645-.647-2.508,2.516-2.508-2.516-.645.647,2.508,2.517-2.508,2.516.645.647,2.508-2.517,2.508,2.517Z" transform="translate(-1922.767 -1734.525)" fill="#fff"/>
            </g>
            <g id="Grupo_884276" data-name="Grupo 884276" transform="translate(58.962 79.353)">
              <rect id="Rectángulo_295998" data-name="Rectángulo 295998" width="7.933" height="1.219" fill="#fff"/>
            </g>
            <g id="Grupo_884277" data-name="Grupo 884277" transform="translate(59.255 93.441)">
              <rect id="Rectángulo_295999" data-name="Rectángulo 295999" width="7.933" height="1.219" fill="#fff"/>
            </g>
            <g id="Grupo_884278" data-name="Grupo 884278" transform="translate(59.255 96.509)">
              <rect id="Rectángulo_296000" data-name="Rectángulo 296000" width="7.933" height="1.219" fill="#fff"/>
            </g>
            <g id="Grupo_896685" data-name="Grupo 896685" transform="translate(58.962 49.082)">
              <path id="Trazado_618802" data-name="Trazado 618802" d="M2068.673,1333.651h-4.02v-4.034h-1.034v4.034h-4.02v1.037h4.02v4.034h1.034v-4.034h4.02Z" transform="translate(-2059.599 -1329.617)" fill="#fff"/>
            </g>
          </g>
        </g>
        <g id="Grupo_884290" data-name="Grupo 884290" transform="translate(210.777 92.714)">
          <path id="Trazado_618826" data-name="Trazado 618826" d="M1913.516,1112.746l-.5.451a.617.617,0,0,1-.867-.021l-8.9-9.816a.609.609,0,0,1,.067-.861l.5-.45a.615.615,0,0,1,.867.022l8.9,9.815A.609.609,0,0,1,1913.516,1112.746Z" transform="translate(-1903.101 -1061.697)" fill="#13375b"/>
          <path id="Trazado_618827" data-name="Trazado 618827" d="M1952.76,1117.139c-1.189-.971-10.387,3.079-10.27,4.489s-6.418,15.076-6.418,15.076l-11.292-9.035,0,0c-.1-.327-1.17-3.84-1.222-4.469-.055-.659-1.963-1.813-2.849-1.643s.758,1.286.866,1.49c.294.557-.842.767-.842.767s-3.263-1.8-3.332-2.854-.743-3.271-1.448-2.808c-.364.239-.36,1.811-.246,2.556-.21-.846-.507-1.8-.8-1.9-.528-.173-.79.5-.695.832s.948,3.924,1.207,4.329,5.522,4.655,6.282,5.579c0,0,14.606,16.754,15.646,17.193.912.385,4.166-5.389,7.24-9.222S1956.476,1120.171,1952.76,1117.139Z" transform="translate(-1912.178 -1074.065)" fill="#f7a491"/>
          <path id="Trazado_618828" data-name="Trazado 618828" d="M2283.651,1771.692s2.007,1.965,2.052,2.686.177,8.447-.641,9.169-3.226,1.233-2.452,2.044c.584.613,5.084.482,8.065.317.871-.048,1.963-7.016,2.308-8.041.5-1.487,1.718-4.838,1.262-5.875a8.7,8.7,0,0,0-2.778-2.512,13.7,13.7,0,0,1-3.078-3.289Z" transform="translate(-2213.597 -1605.421)" fill="#f48c7f"/>
          <path id="Trazado_618829" data-name="Trazado 618829" d="M2140.423,1821.212s1.8,5.091,1.8,5.1c.133.807.659,2.8.659,3.533,0,2.755-12.381-2.338-9.607-3.559a2.945,2.945,0,0,0,1.122-1.931,6.467,6.467,0,0,0-1.043-3.256Z" transform="translate(-2091.161 -1650.365)" fill="#f7a491"/>
          <g id="Grupo_884287" data-name="Grupo 884287" transform="translate(26.504 76.038)">
            <path id="Trazado_618830" data-name="Trazado 618830" d="M2052.445,1299.4s-.9,9.128-.9,9.263c0,14.765-2.917,43.606-2.362,46.381,1.353,6.771,15.918,41.309,15.918,41.309l7.872-.944-10.258-41.353,3.775-16.645,5.341-32.9Z" transform="translate(-2049.11 -1299.405)" fill="#355389"/>
            <path id="Trazado_618831" data-name="Trazado 618831" d="M2104.16,1313.351l1.494,8.651,4.041,35.6,15.391,34.8s-2.165,5.064-5.359,5.774l-24.5-35.725-15.216-45.714.534-10.156Z" transform="translate(-2074.406 -1305.277)" fill="#13375b"/>
          </g>
          <path id="Trazado_618832" data-name="Trazado 618832" d="M2050.186,1071.955l10.916,1.118s.5-8.979.5-13.263c0-5.2-.441-11.889-1.067-11.745a9.508,9.508,0,0,0-5.526,3.317C2050.139,1058.1,2050.186,1071.955,2050.186,1071.955Z" transform="translate(-2023.487 -1017.649)" fill="#1dae9e"/>
          <path id="Trazado_618833" data-name="Trazado 618833" d="M2059.777,1057.337c-.229,1.584-4.425,44.656-4.425,44.656,19.875,9.632,30.842,1.716,30.842,1.716s-.65-30.246.129-34.363c.516-2.724,1.158-20.823-.6-21.33a43.9,43.9,0,0,0-7.667-1.635c-2.408-.251-11.762-.4-13.436.168A21.41,21.41,0,0,0,2059.777,1057.337Z" transform="translate(-2027.715 -1016.091)" fill="#179587"/>
          <path id="Trazado_618834" data-name="Trazado 618834" d="M2287.732,1784.038s-4.626,13.069-6.436,13.7c-.481.167-2.788.592-3.224,1.616a4.452,4.452,0,0,0,0,1.338h9.642s1.219-5.758,1.7-8.288c0,0,2.552-6.182,2.269-6.744S2287.732,1784.038,2287.732,1784.038Z" transform="translate(-2209.959 -1620.028)" fill="#184655"/>
          <path id="Trazado_618835" data-name="Trazado 618835" d="M2100.325,1854.03l-1.418-4.494s-2.977,1.264-4.466,1.053a44.985,44.985,0,0,1-4.4-1.053c-5.943,1.963-10.812,2.915-9.926,4.494h20.206Z" transform="translate(-2047.901 -1673.637)" fill="#184655"/>
          <g id="Grupo_884288" data-name="Grupo 884288" transform="translate(23.837 61.447)">
            <path id="Trazado_618836" data-name="Trazado 618836" d="M2035.75,1230.256a2.544,2.544,0,0,1-.3-.223c.354-4.22.289-8.309-1.03-9.691.032-.066.32-.682.622-1.32,1.53,1.187,2.256,4.341,1.971,9.461a8.66,8.66,0,0,1-.2,1.06C2036.368,1230.031,2035.966,1230.347,2035.75,1230.256Z" transform="translate(-2034.42 -1219.022)" fill="#f7a491"/>
          </g>
          <path id="Trazado_618837" data-name="Trazado 618837" d="M2243.262,1147.852a1.158,1.158,0,0,0,0-.277c-.293-2.983-2.761-28.03-3.177-29.1-.375-.961-11.446-16.848-11.446-16.848l-5.44,7.438,10.646,14.249c.239.906,4.08,17.814,4.08,17.814s.787,3.082,1.14,4.928c-.161.445-.319.865-.459,1.21a11.154,11.154,0,0,1-1.146,1.85,12.666,12.666,0,0,0-1.36,2.412c-.112.435-.316,1.339-.431,1.885s-.273,1.181-.3,1.477a2.846,2.846,0,0,1-.343.794.476.476,0,0,0,.561.688c.386-.129.687-.631.873-.944.523-.883.8-2.5.933-2.412s.59,2.823.662,3.132a33.784,33.784,0,0,0,.934,4.069c.31.581.722.484.831.12.094-.313-.343-4.761-.343-4.761s-.055-.568.193-.39.653,4.214.825,4.805.565.9.9.429c.406-.578-.292-4.86-.292-4.86s-.077-.538.151-.488.516,3.49.695,3.788a.452.452,0,0,0,.844-.092c.252-.584-.4-4.4-.4-4.4s.033-.3.175-.2.6,3.016.892,3.286a.313.313,0,0,0,.455.007c.542-.372-.289-3.145-.281-4.524s-.629-2.929-.439-4.57C2243.207,1148.264,2243.24,1148.011,2243.262,1147.852Z" transform="translate(-2165.099 -1061.494)" fill="#f8a492"/>
          <path id="Trazado_618838" data-name="Trazado 618838" d="M2215.518,1074.766l-9.456,6.37s-5.33-7.958-8.191-10.791c-3.583-3.549,1.306-14.421,3.615-13.806C2206.651,1057.915,2215.518,1074.766,2215.518,1074.766Z" transform="translate(-2143.323 -1024.566)" fill="#169d8e"/>
          <path id="Trazado_618839" data-name="Trazado 618839" d="M2139.112,993.584l1.415,9.354s-5.166,11.137-8.249,10.172c-2.587-.81-1-10.665-1-10.665s1.411-5.293.987-7.941S2139.112,993.584,2139.112,993.584Z" transform="translate(-2089.466 -972.605)" fill="#f7a491"/>
          <path id="Trazado_618840" data-name="Trazado 618840" d="M2138.089,994.5c-.423-2.648,6.843-.919,6.843-.919l.117.776a4.306,4.306,0,0,1-.788,1.3,9.551,9.551,0,0,1-6.353,2.885A14.476,14.476,0,0,0,2138.089,994.5Z" transform="translate(-2095.286 -972.605)" fill="#f47458"/>
          <g id="Grupo_884289" data-name="Grupo 884289" transform="translate(38.431)">
            <path id="Trazado_618841" data-name="Trazado 618841" d="M2127.227,910.005c.205-.075,1.647,10.654-1.088,13.605s-8.061,3.918-9.971,1.593c-2.113-2.572-2.007-14.1,2.244-17.139S2127.227,910.005,2127.227,910.005Z" transform="translate(-2114.82 -902.26)" fill="#f7a491"/>
            <path id="Trazado_618842" data-name="Trazado 618842" d="M2126.873,880.577a11.794,11.794,0,0,1,6.2,3.545c1.492.177,3.519,1,5.614,4.483a8.718,8.718,0,0,1-2.323,11.34c-3,2.325-2.956,5.011-2.956,5.011l-.474-1.389a7.79,7.79,0,0,1-.375-3.272,6.421,6.421,0,0,1,.484-1.967c.721-1.553-1.548-2.585-2.185-3.876-.489-.995-.513-3.27-1.285-4.915l-.922-1.255s-2.127-1.66-4.207-1.192S2122.658,879.714,2126.873,880.577Z" transform="translate(-2121.664 -880.51)" fill="#184655"/>
            <path id="Trazado_618843" data-name="Trazado 618843" d="M2166.215,957.249c-.021,1.309.571,2.38,1.324,2.393s1.381-1.038,1.4-2.347-.57-2.38-1.324-2.393S2166.237,955.94,2166.215,957.249Z" transform="translate(-2156.886 -941.399)" fill="#f7a491"/>
          </g>
          <path id="Trazado_618844" data-name="Trazado 618844" d="M2123.177,983.527l-4.121-.214a1.808,1.808,0,0,0,1.823,1.722C2123.086,985.214,2123.177,983.527,2123.177,983.527Z" transform="translate(-2079.856 -964.652)" fill="#fff"/>
        </g>
        <g id="Grupo_884262" data-name="Grupo 884262" transform="translate(50.136 70.354)">
          <path id="Trazado_618772" data-name="Trazado 618772" d="M563.542,933.689a26.359,26.359,0,0,0-2.373-12.619c-1.652-3.463-5.738-5.428-9.465-5.433-11.834-.015-13.338,15.741-20.871,21.818-2.3,1.857-4.874,3.37-7.052,5.372-8.042,7.395-4.42,21.083,2.965,27.567,5.125,4.5,13.179,7.055,19.495,3.538a19.957,19.957,0,0,0,7.583-8.231c2.531-4.746,4.162-10.221,5.962-15.278A57.4,57.4,0,0,0,563.542,933.689Z" transform="translate(-509.183 -886.901)" fill="#0e2e35"/>
          <path id="Trazado_618773" data-name="Trazado 618773" d="M492.9,805.9s-8.691-15.632-10.806-18.955-7.623-16.527-7.82-17.047,3.794-6.769,2.9-6.983-1.876,3.294-2.826,2.875-3.726-8.865-4.268-8.446c-1.013.784,1.5,5.239.956,5.52s-2.176-4.9-3.237-4.75,2.017,4.75,1.721,5.156-3.492-3.926-4.07-3c-.314.5,2.938,3.782,2.313,4.089s-3.517-1.81-3.824-1.2,2.675,1.447,3.567,3.093,2.41,2.357,3.041,5.406,1.573,14.078,4.8,19.581,10.334,17.682,10.334,17.682Z" transform="translate(-463.918 -757.333)" fill="#f79c8d"/>
          <path id="Trazado_618774" data-name="Trazado 618774" d="M771.817,1213.05,758.3,1202.706s-1.359-9.649-3.179-18.213c-2.28.646-4.338,2.441-6.621,3.067l3.436,19.176,17.711,9.168,5,6.452,1.138-6.623Z" transform="translate(-696.845 -1106.954)" fill="#f48c7f"/>
          <path id="Trazado_618775" data-name="Trazado 618775" d="M738.724,1081.841c-3.7-11.251-7.83-10.771-7.83-10.771l3.2,23.653c2.283-.626,5.255-2.02,7.535-2.666A103.367,103.367,0,0,0,738.724,1081.841Z" transform="translate(-682.432 -1014.117)" fill="#f7cc7f"/>
          <path id="Trazado_618776" data-name="Trazado 618776" d="M538.431,1781.9s-.834,5.816-2.268,7.693a14.825,14.825,0,0,0-1.938,2.565c-.9,1.772-.4,4.41.261,5.863.34.746-.024.744.751.984a4.751,4.751,0,0,0,5.712-2.7,13.756,13.756,0,0,0,1.12-4.956c.245-5.28,1.878-7.965,1.878-7.965Z" transform="translate(-521.064 -1595.923)" fill="#f7a491"/>
          <path id="Trazado_618777" data-name="Trazado 618777" d="M693.548,1796.559s.515,6.558.1,8.689c-.224,1.141-1.47,3.49-.9,4.564a2.879,2.879,0,0,0,1.225,1.343l14.812.24c.807.013.274-.509-.377-.99a29.779,29.779,0,0,0-5.326-2.963c-.222-.108-1.03-.624-1.321-.8a10.263,10.263,0,0,1-2.119-1.882c-1.064-1.191-1.157-6.966-1.157-6.966Z" transform="translate(-651.088 -1607.917)" fill="#f7a491"/>
          <path id="Trazado_618778" data-name="Trazado 618778" d="M697.814,1308.927s1.866,10.647.641,17.628-7.1,71.684-7.1,71.684l-6.532.37s-1.369-27.028-1.124-30.786a58.552,58.552,0,0,1,2.183-10.049l-.65-21.822,8.243-28.668Z" transform="translate(-643.777 -1207.456)" fill="#13375b"/>
          <path id="Trazado_618779" data-name="Trazado 618779" d="M573.392,1293.105s-5.143,7.786-6.368,14.229.9,26.246-1.457,34.69c-1.275,4.571-6.109,11.63-6.844,17.536s-3.617,21.378-3.617,21.378l6.529,1.3,15.174-38.64,11.9-34.925,3.049-17.987Z" transform="translate(-538.553 -1193.874)" fill="#355389"/>
          <path id="Trazado_618780" data-name="Trazado 618780" d="M633.591,1059.854s-6.81-.437-9.5,2.517,5.977,26.316,6.466,30.074-2.5,13.753-2.5,13.753,16,3.238,20.57.195c0,0,.49-27.028,0-29.713s-4.572-13.6-5.552-14.677S633.591,1059.854,633.591,1059.854Z" transform="translate(-594.589 -1004.922)" fill="#fae0b2"/>
          <path id="Trazado_618781" data-name="Trazado 618781" d="M680.009,1008.852s-.035.2-.1.545c-.3,1.646-1.473,7.109-2.263,8.611-.954,1.815,3.268,7.6,7.332,6.9,1.21-.21-1.023-5.318-.915-5.859.205-1.036.484-2.448.769-3.9l.476-2.425c.435-2.213.789-4.023.789-4.023Z" transform="translate(-638.739 -963.071)" fill="#f7a491"/>
          <path id="Trazado_618782" data-name="Trazado 618782" d="M689.895,1009.4c.063-.343.1-.545.1-.545l6.09-.153s-.355,1.81-.789,4.023l-.474,2.411a5.694,5.694,0,0,1-2.908-1.467,7.732,7.732,0,0,1-2.2-3.294C689.785,1009.986,689.848,1009.652,689.895,1009.4Z" transform="translate(-648.724 -963.071)" fill="#f47458"/>
          <path id="Trazado_618783" data-name="Trazado 618783" d="M683.749,932.77a5.472,5.472,0,0,0-4.67,2.007c-1.8,2.34-3.739,9.578.731,13.513s8.886-.519,9.541-5.242S690.261,932.6,683.749,932.77Z" transform="translate(-638.38 -900.911)" fill="#f7a491"/>
          <path id="Trazado_618784" data-name="Trazado 618784" d="M740.956,977.448c-.533,1.043-1.429,1.62-2,1.29s-.6-1.444-.068-2.487,1.429-1.621,2-1.29S741.49,976.4,740.956,977.448Z" transform="translate(-688.663 -935.38)" fill="#f7a491"/>
          <path id="Trazado_618785" data-name="Trazado 618785" d="M671.964,928.252s-3.835,6.883-6.579,7.2-3.1,3.975-3.1,3.975.981-8.427,3.7-10.053A10.041,10.041,0,0,1,671.964,928.252Z" transform="translate(-626.275 -897.167)" fill="#0e2e35"/>
          <path id="Trazado_618786" data-name="Trazado 618786" d="M539.124,1841.314a7.281,7.281,0,0,1-7.158-3.008c-.9,1.776-1.346,4.425-.68,5.883.586,1.285,2.3,1.248,3.646,1.3a3.518,3.518,0,0,0,3.236-1.991A11.972,11.972,0,0,0,539.124,1841.314Z" transform="translate(-518.795 -1642.087)" fill="#b75742"/>
          <path id="Trazado_618787" data-name="Trazado 618787" d="M701.61,1850.579a13.338,13.338,0,0,1-8.433-.333c-.418,1.191-.971,2.685-.678,3.546.359,1.055.872,1.293,1.324,1.3,3.578.094,13.107.223,15.835.259a.449.449,0,0,0,.346-.737C709.328,1853.806,701.9,1850.759,701.61,1850.579Z" transform="translate(-650.94 -1651.859)" fill="#b75742"/>
          <path id="Trazado_618788" data-name="Trazado 618788" d="M670.4,969.022c.223,1.222-.226,2.343-1,2.5s-1.587-.7-1.81-1.922.226-2.343,1-2.5S670.181,967.8,670.4,969.022Z" transform="translate(-630.574 -929.007)" fill="#f7a491"/>
          <path id="Trazado_618789" data-name="Trazado 618789" d="M579.559,997.005s9.614,10.4,11.043,14.586-1.393,10.184-5.291,10.445-12.573-18.453-12.573-18.453Z" transform="translate(-552.985 -953.5)" fill="#f7cc7f"/>
        </g>
        <path id="Trazado_618768" data-name="Trazado 618768" d="M2435.12,956.183a29.773,29.773,0,0,1,1.178-5.132c.107-.329.233-.963.63-1.071.956-.26,1.75,1.486,4.648,3.086,1.258.694,3.8,2.24,4.925.609a10.648,10.648,0,0,0,1.012-3.026c.214-.73.458-1.451.686-2.177,4.611,2.919,4.236,3.128,5.524,2.97a.67.67,0,0,0,.531-.779c-.346-1.229-.3-.895-6.079-4.633a1.036,1.036,0,0,0-1.547.5c-.29.988-1.36,5.537-1.581,6.074-.042-.051-.3-.077-.347-.094a17.066,17.066,0,0,1-5.293-3.339c-1.371-1.11-3.49-1.753-4.574.1a20.713,20.713,0,0,0-1.5,5.05c-2.773-1.893-5.534-3.806-8.317-5.68a1.14,1.14,0,0,0-1.706.556c-.459,2.04-.986,4.058-1.529,6.075a19.3,19.3,0,0,1-4.281-4.082c-.894-1.16-2.815,0-.362,2.775a18.674,18.674,0,0,0,4.692,4.033,1.147,1.147,0,0,0,1.71-.558c.6-1.98,1.1-3.99,1.569-6.006,2.785,1.851,5.591,3.674,8.375,5.526A1.057,1.057,0,0,0,2435.12,956.183Z" transform="translate(-2210.931 -831.654)" fill="#f47458"/>
        <path id="Trazado_618767" data-name="Trazado 618767" d="M2312.183,738.093a1.19,1.19,0,0,0,1.2-1.446c-.3-1.13-.585-2.264-.875-3.4-.639-2.5-.742-2.58-.566-2.792.419-.5,1.429.083,1.78.334a14.064,14.064,0,0,0,2.315,1.708c1.734.766,3.455-.222,3.174-2.206-.258-1.817-.621-3.633-1-5.438,1.814.971,3.6,1.994,5.429,2.938a.813.813,0,0,0,1.215-.854c-.194-1.6-.768-6.325-.958-7.884-.049-.4-.5-2.255-.091-2.462.365-.186,1.582.576,1.873.711,1.607.745,2.185.985,7.47,3.287a.952.952,0,0,0,1.214-1.115c-2.237-6.492-1.424-6.78-2.565-7.936a.45.45,0,0,0-.75.164c-.362.769-.394.978.29,3.96q.265,1.157.587,2.3c-6.365-2.918-7.9-3.806-9.243-2.582-.932.849-.714,1.221.4,10.166-1.85-1.116-3.757-2.115-5.657-3.155a.926.926,0,0,0-1.385.974c.958,6.5,1.246,6.632,1.177,7.228,0,.016.322.2-.184,0-.86-.342-2.1-2.11-3.851-2.417a2.792,2.792,0,0,0-3.462,2.244c-.084,1,.167,1.437,1,5.109a23.991,23.991,0,0,0-5.682.153,3.735,3.735,0,0,0-2.08.86.994.994,0,0,0,.361,1.667C2305.32,738.682,2306.629,737.411,2312.183,738.093Z" transform="translate(-2102.636 -626.579)" fill="#f7cc7f"/>
        <g id="Grupo_884286" data-name="Grupo 884286" transform="translate(249.091 26.51)">
          <g id="Grupo_884282" data-name="Grupo 884282" transform="translate(42.625)">
            <path id="Trazado_618821" data-name="Trazado 618821" d="M2580.437,415.509l-.111,12.039,7.63-7.182L2612,404.034l-19.628,4.28s-9.81,3.717-10.3,4.282A24.857,24.857,0,0,0,2580.437,415.509Z" transform="translate(-2570.767 -404.034)" fill="#dd513a"/>
            <path id="Trazado_618822" data-name="Trazado 618822" d="M2527.664,409.444l41.238-5.411-31.568,11.476Z" transform="translate(-2527.664 -404.034)" fill="#f47458"/>
            <path id="Trazado_618823" data-name="Trazado 618823" d="M2608.5,425.784l-11.886-7.378,28.721-14.372Z" transform="translate(-2584.101 -404.034)" fill="#f47458"/>
          </g>
          <g id="Grupo_884285" data-name="Grupo 884285" transform="translate(0 17.007)">
            <g id="Grupo_884283" data-name="Grupo 884283" transform="translate(0 4.35)">
              <path id="Trazado_618824" data-name="Trazado 618824" d="M2292.844,561.507a26.661,26.661,0,0,1,.187-2.9c.106-.888.259-1.787.454-2.673l.956.212c-.189.855-.336,1.722-.438,2.578a25.677,25.677,0,0,0-.179,2.789c0,.271,0,.542,0,.813l-.979.022C2292.844,562.065,2292.842,561.781,2292.844,561.507Zm2.688-11.665a37.308,37.308,0,0,1,3.156-5.585l.809.554a36.5,36.5,0,0,0-3.073,5.437Zm30.584-5.76c-.062-.029-.122-.059-.182-.089l.44-.878.149.074a.569.569,0,0,0,.1.019,4.5,4.5,0,0,0,2.658-.672,4.159,4.159,0,0,0,1.353-1.984l.926.321a5.2,5.2,0,0,1-1.678,2.439,5.435,5.435,0,0,1-3.375.871A1.284,1.284,0,0,1,2326.116,544.081Zm-23.447-4.836a51.087,51.087,0,0,1,4.609-4.43l.632.75a50.094,50.094,0,0,0-4.519,4.344Zm18.63-2.293a11.955,11.955,0,0,1,0-2.908,14.136,14.136,0,0,1,.294-1.63l.952.231a13.3,13.3,0,0,0-.275,1.516,11.021,11.021,0,0,0,0,2.668,9.124,9.124,0,0,0,.415,1.8l-.926.318A10.02,10.02,0,0,1,2321.3,536.952Zm4.058-5.545-.131-.044.3-.934.142.048a9.852,9.852,0,0,1,5.087,3.88l-.825.529A8.862,8.862,0,0,0,2325.357,531.408Zm-12.484.2a22.345,22.345,0,0,1,3.962-1.447c.8-.138,1.532-.237,2.245-.3l.09.978c-.687.064-1.4.16-2.169.293a20.2,20.2,0,0,0-3.729,1.376Zm11.367-5.11a21.934,21.934,0,0,1,4.306-4.809l.625.757a20.971,20.971,0,0,0-4.114,4.594Z" transform="translate(-2292.844 -521.692)" fill="#6db1b5"/>
            </g>
            <g id="Grupo_884284" data-name="Grupo 884284" transform="translate(41.223)">
              <path id="Trazado_618825" data-name="Trazado 618825" d="M2520.313,499.646a18.88,18.88,0,0,1,3-.96l-.217-.958a19.877,19.877,0,0,0-3.154,1.01Z" transform="translate(-2519.94 -497.727)" fill="#6db1b5"/>
            </g>
          </g>
        </g>
      </g>
    </g>
  </g>
</svg>
