<svg xmlns="http://www.w3.org/2000/svg" xmlns:xlink="http://www.w3.org/1999/xlink" width="173" height="169" viewBox="0 0 173 169">
  <defs>
    <clipPath id="clip-path">
      <ellipse id="Elipse_6265" data-name="Elipse 6265" cx="86.5" cy="83.5" rx="86.5" ry="83.5" transform="translate(717 985.13)" fill="#fff" stroke="#707070" stroke-width="1"/>
    </clipPath>
  </defs>
  <g id="Grupo_898333" data-name="Grupo 898333" transform="translate(-717 -985)">
    <circle id="Elipse_6260" data-name="Elipse 6260" cx="84.5" cy="84.5" r="84.5" transform="translate(718 985)" fill="#fff"/>
    <g id="Enmascarar_grupo_242" data-name="Enmascarar grupo 242" transform="translate(0 1.87)" clip-path="url(#clip-path)">
      <g id="Grupo_898285" data-name="Grupo 898285" transform="translate(725.583 993.061)">
        <g id="OBJECTS" transform="translate(0 0)">
          <g id="Grupo_891674" data-name="Grupo 891674" transform="translate(0 5.282)">
            <path id="Trazado_664707" data-name="Trazado 664707" d="M25.885.141c14.3.078,25.948,12.117,26.026,26.89S40.463,53.717,26.167,53.639.218,41.522.141,26.749,11.589.063,25.885.141Z" transform="translate(0 51.086) rotate(-80.978)" fill="#179587"/>
            <ellipse id="Elipse_6074" data-name="Elipse 6074" cx="29.227" cy="25.863" rx="29.227" ry="25.863" transform="translate(1.32 3.736)" fill="none"/>
            <path id="Trazado_648081" data-name="Trazado 648081" d="M78.42,175.077l6.7,12.468.184-13.583Z" transform="translate(-58.173 -123.373)" fill="#179587"/>
            <g id="Grupo_891673" data-name="Grupo 891673" transform="translate(17.774 10.763)">
              <g id="Grupo_891671" data-name="Grupo 891671" transform="translate(1.363 0)">
                <path id="Trazado_648082" data-name="Trazado 648082" d="M84.973,79.206l-.451-2.561a11.406,11.406,0,0,1-.085-4.138,9.717,9.717,0,0,1,1.112-3.042,22.279,22.279,0,0,1,1.61-2.4,29.286,29.286,0,0,0,1.981-2.787,4.552,4.552,0,0,0,.5-3.29,2.949,2.949,0,0,0-.865-1.7,4.133,4.133,0,0,0-1.525-.918,3.315,3.315,0,0,0-1.6-.16,4.28,4.28,0,0,0-2.311,1.051,5.354,5.354,0,0,0-1.308,1.93,14.235,14.235,0,0,0-.7,2.3l-1.363.224-4.849-1.889a14.894,14.894,0,0,1,.66-2.4,12.06,12.06,0,0,1,1.65-3.056,11.463,11.463,0,0,1,3.052-2.838A12.32,12.32,0,0,1,85.3,51.8a13.533,13.533,0,0,1,5.294.1,8.28,8.28,0,0,1,4.137,2.3,9.118,9.118,0,0,1,2.256,4.925,10.563,10.563,0,0,1,.006,4.425,9.791,9.791,0,0,1-1.362,3.083q-.9,1.317-1.806,2.609a17.6,17.6,0,0,0-1.307,2.079,7.837,7.837,0,0,0-.822,2.5,9.789,9.789,0,0,0,.1,3.215l.179,1.015Zm5.3,9.623a4.606,4.606,0,0,1-3.118-.458,3.144,3.144,0,0,1-1.588-2.3,3.2,3.2,0,0,1,.733-2.706,4.328,4.328,0,0,1,2.748-1.5,4.228,4.228,0,0,1,3.055.543,3.342,3.342,0,0,1,1.568,2.328,3.131,3.131,0,0,1-.663,2.67A4.319,4.319,0,0,1,90.269,88.829Z" transform="translate(-75.122 -51.592)" fill="#afafaf"/>
              </g>
              <g id="Grupo_891672" data-name="Grupo 891672" transform="translate(0 0.224)">
                <path id="Trazado_648083" data-name="Trazado 648083" d="M80.928,79.893l-.45-2.561a11.4,11.4,0,0,1-.085-4.138,9.712,9.712,0,0,1,1.112-3.042,22.2,22.2,0,0,1,1.611-2.4,29.17,29.17,0,0,0,1.98-2.787,4.549,4.549,0,0,0,.5-3.29,2.951,2.951,0,0,0-.865-1.7,4.141,4.141,0,0,0-1.526-.918,3.318,3.318,0,0,0-1.6-.16A4.284,4.284,0,0,0,79.3,59.947a5.352,5.352,0,0,0-1.307,1.93,14.251,14.251,0,0,0-.7,2.3l-6.212-1.665a14.892,14.892,0,0,1,.66-2.4,12.048,12.048,0,0,1,1.65-3.056,11.469,11.469,0,0,1,3.052-2.838,12.327,12.327,0,0,1,4.816-1.736,13.538,13.538,0,0,1,5.293.1,8.284,8.284,0,0,1,4.137,2.3,9.116,9.116,0,0,1,2.256,4.925,10.552,10.552,0,0,1,.006,4.425,9.8,9.8,0,0,1-1.362,3.083q-.9,1.317-1.806,2.608a17.6,17.6,0,0,0-1.307,2.08,7.834,7.834,0,0,0-.822,2.5,9.8,9.8,0,0,0,.1,3.215l.179,1.015Zm5.3,9.623a4.6,4.6,0,0,1-3.117-.458,3.143,3.143,0,0,1-1.589-2.3,3.2,3.2,0,0,1,.734-2.706A4.325,4.325,0,0,1,85,82.556a4.227,4.227,0,0,1,3.055.543,3.342,3.342,0,0,1,1.568,2.329,3.13,3.13,0,0,1-.663,2.67A4.317,4.317,0,0,1,86.224,89.516Z" transform="translate(-71.077 -52.279)" fill="#fff"/>
              </g>
            </g>
          </g>
          <g id="Grupo_891678" data-name="Grupo 891678" transform="translate(96.122 0)">
            <path id="Trazado_664708" data-name="Trazado 664708" d="M22.015.335a23.029,23.029,0,0,1,22.35,22.721,21.411,21.411,0,0,1-21.68,22.051A23.029,23.029,0,0,1,.335,22.386,21.411,21.411,0,0,1,22.015.335Z" transform="translate(0 37.599) rotate(-59.506)" fill="#179587"/>
            <path id="Trazado_664709" data-name="Trazado 664709" d="M21.9.238C34,.369,43.916,11.474,44.06,25.04S34.515,49.5,22.42,49.367.4,38.131.26,24.564,9.805.107,21.9.238Z" transform="translate(0.138 42.621) rotate(-70.807)" fill="none"/>
            <path id="Trazado_648084" data-name="Trazado 648084" d="M415.734,148.366l-5.1,10.777-.748-11.436Z" transform="translate(-374.095 -100.38)" fill="#179587"/>
            <g id="Grupo_891677" data-name="Grupo 891677" transform="translate(23.075 14.313)">
              <g id="Grupo_891675" data-name="Grupo 891675" transform="translate(1.15 0.187)">
                <path id="Trazado_648085" data-name="Trazado 648085" d="M378.416,68.765l.376-2.161a9.711,9.711,0,0,1,1.12-3.32,8.431,8.431,0,0,1,1.759-2.126,19.368,19.368,0,0,1,1.972-1.483,25.413,25.413,0,0,0,2.378-1.689,3.915,3.915,0,0,0,1.345-2.486,2.443,2.443,0,0,0-.2-1.584,3.382,3.382,0,0,0-.952-1.14,2.753,2.753,0,0,0-1.227-.556,3.676,3.676,0,0,0-2.143.218,4.665,4.665,0,0,0-1.6,1.188,12.354,12.354,0,0,0-1.22,1.647l-1.15-.187-3.321-2.8a12.9,12.9,0,0,1,1.213-1.732,10.5,10.5,0,0,1,2.192-1.992,9.974,9.974,0,0,1,3.246-1.443,10.527,10.527,0,0,1,4.335-.092,11.282,11.282,0,0,1,4.188,1.5,6.762,6.762,0,0,1,2.634,2.944,7.561,7.561,0,0,1,.384,4.528,9.016,9.016,0,0,1-1.265,3.527,8.522,8.522,0,0,1-1.97,2.091q-1.1.807-2.187,1.594a15.257,15.257,0,0,0-1.638,1.306,6.8,6.8,0,0,0-1.371,1.769,8.344,8.344,0,0,0-.842,2.589l-.149.856Zm1.457,9.085a3.81,3.81,0,0,1-2.352-1.2,2.589,2.589,0,0,1-.605-2.258,2.768,2.768,0,0,1,1.361-1.96,3.726,3.726,0,0,1,2.619-.455,3.5,3.5,0,0,1,2.278,1.251,2.754,2.754,0,0,1,.58,2.275,2.7,2.7,0,0,1-1.294,1.949A3.713,3.713,0,0,1,379.873,77.85Z" transform="translate(-375.556 -46.843)" fill="#afafaf"/>
              </g>
              <g id="Grupo_891676" data-name="Grupo 891676">
                <path id="Trazado_648086" data-name="Trazado 648086" d="M375,68.191l.376-2.161a9.712,9.712,0,0,1,1.12-3.319,8.43,8.43,0,0,1,1.759-2.126,19.321,19.321,0,0,1,1.973-1.483,25.462,25.462,0,0,0,2.377-1.689,3.915,3.915,0,0,0,1.345-2.486,2.443,2.443,0,0,0-.2-1.584,3.38,3.38,0,0,0-.952-1.14,2.753,2.753,0,0,0-1.227-.556,3.676,3.676,0,0,0-2.143.218,4.665,4.665,0,0,0-1.6,1.188,12.371,12.371,0,0,0-1.22,1.647l-4.471-2.991a12.878,12.878,0,0,1,1.213-1.732,10.506,10.506,0,0,1,2.192-1.992,9.974,9.974,0,0,1,3.246-1.443,10.527,10.527,0,0,1,4.335-.092,11.286,11.286,0,0,1,4.188,1.5,6.763,6.763,0,0,1,2.634,2.944,7.561,7.561,0,0,1,.384,4.528,9.011,9.011,0,0,1-1.265,3.527,8.519,8.519,0,0,1-1.97,2.091q-1.1.808-2.188,1.595a15.3,15.3,0,0,0-1.638,1.306,6.8,6.8,0,0,0-1.371,1.769,8.344,8.344,0,0,0-.842,2.589l-.149.856Zm1.457,9.085a3.811,3.811,0,0,1-2.352-1.2,2.589,2.589,0,0,1-.605-2.258,2.768,2.768,0,0,1,1.361-1.96,3.726,3.726,0,0,1,2.619-.455,3.494,3.494,0,0,1,2.278,1.251,2.754,2.754,0,0,1,.58,2.275,2.7,2.7,0,0,1-1.294,1.949A3.713,3.713,0,0,1,376.46,77.276Z" transform="translate(-372.143 -46.269)" fill="#fff"/>
              </g>
            </g>
          </g>
          <g id="Grupo_891682" data-name="Grupo 891682" transform="translate(58.86 34.707)">
            <path id="Trazado_664710" data-name="Trazado 664710" d="M16.018.169A16.66,16.66,0,0,1,32.2,16.8,15.844,15.844,0,0,1,16.356,33.1,16.66,16.66,0,0,1,.169,16.465,15.844,15.844,0,0,1,16.018.169Z" transform="translate(1.29 30.347) rotate(-71.469)" fill="#222b5a"/>
            <path id="Trazado_664711" data-name="Trazado 664711" d="M16.01.158C24.852.245,32.1,8.35,32.193,18.259s-7,17.872-15.838,17.785S.267,27.853.172,17.943,7.168.071,16.01.158Z" transform="translate(0 30.5) rotate(-72.829)" fill="none"/>
            <path id="Trazado_648087" data-name="Trazado 648087" d="M248.283,215.439l-4.69,5.63.574-6.859Z" transform="translate(-226.562 -179.948)" fill="#0a2a6b"/>
            <g id="Grupo_891681" data-name="Grupo 891681" transform="translate(15.588 9.529)">
              <g id="Grupo_891679" data-name="Grupo 891679" transform="translate(0.799)">
                <path id="Trazado_648088" data-name="Trazado 648088" d="M245.6,153.821l-.006-1.5a6.611,6.611,0,0,1,.357-2.369,5.7,5.7,0,0,1,.932-1.634,13.036,13.036,0,0,1,1.155-1.224,17.229,17.229,0,0,0,1.4-1.409,2.649,2.649,0,0,0,.609-1.831,1.687,1.687,0,0,0-.327-1.048,2.36,2.36,0,0,0-.781-.663,1.91,1.91,0,0,0-.9-.238,2.5,2.5,0,0,0-1.422.388,3.143,3.143,0,0,0-.935.982,8.278,8.278,0,0,0-.626,1.25l-.8,0L241.683,143a8.689,8.689,0,0,1,.611-1.307,7.076,7.076,0,0,1,1.241-1.593,6.74,6.74,0,0,1,2.02-1.341,7.189,7.189,0,0,1,2.918-.55,7.8,7.8,0,0,1,3.011.541,4.719,4.719,0,0,1,2.135,1.693,5.218,5.218,0,0,1,.805,3.017,6.128,6.128,0,0,1-.43,2.525,5.746,5.746,0,0,1-1.079,1.635q-.643.669-1.286,1.324a10.325,10.325,0,0,0-.949,1.067,4.585,4.585,0,0,0-.714,1.35,5.673,5.673,0,0,0-.256,1.844l0,.6Zm2.08,5.975a2.643,2.643,0,0,1-1.734-.546,1.793,1.793,0,0,1-.681-1.458,1.872,1.872,0,0,1,.684-1.477,2.533,2.533,0,0,1,1.715-.6,2.427,2.427,0,0,1,1.69.589,1.908,1.908,0,0,1,.667,1.472,1.829,1.829,0,0,1-.64,1.463A2.526,2.526,0,0,1,247.682,159.8Z" transform="translate(-241.683 -138.214)" fill="#afafaf"/>
              </g>
              <g id="Grupo_891680" data-name="Grupo 891680" transform="translate(0 0.003)">
                <path id="Trazado_648089" data-name="Trazado 648089" d="M243.23,153.831l-.006-1.5a6.612,6.612,0,0,1,.357-2.369,5.7,5.7,0,0,1,.933-1.634,13.048,13.048,0,0,1,1.154-1.224,17.126,17.126,0,0,0,1.4-1.409,2.652,2.652,0,0,0,.609-1.831,1.687,1.687,0,0,0-.327-1.048,2.352,2.352,0,0,0-.781-.663,1.9,1.9,0,0,0-.9-.238,2.505,2.505,0,0,0-1.422.388,3.149,3.149,0,0,0-.935.982,8.327,8.327,0,0,0-.626,1.25l-3.382-1.518a8.691,8.691,0,0,1,.611-1.307,7.075,7.075,0,0,1,1.241-1.593,6.746,6.746,0,0,1,2.02-1.341,7.189,7.189,0,0,1,2.918-.55,7.8,7.8,0,0,1,3.011.541,4.718,4.718,0,0,1,2.135,1.693,5.217,5.217,0,0,1,.805,3.017,6.12,6.12,0,0,1-.43,2.525,5.743,5.743,0,0,1-1.079,1.635q-.643.669-1.286,1.324a10.3,10.3,0,0,0-.949,1.067,4.584,4.584,0,0,0-.714,1.35,5.673,5.673,0,0,0-.256,1.844l0,.6Zm2.08,5.975a2.645,2.645,0,0,1-1.734-.546,1.793,1.793,0,0,1-.681-1.458,1.871,1.871,0,0,1,.684-1.477,2.532,2.532,0,0,1,1.715-.6,2.425,2.425,0,0,1,1.69.589,1.908,1.908,0,0,1,.667,1.472,1.83,1.83,0,0,1-.64,1.463A2.53,2.53,0,0,1,245.309,159.806Z" transform="translate(-239.31 -138.224)" fill="#fff"/>
              </g>
            </g>
          </g>
          <g id="Grupo_891690" data-name="Grupo 891690" transform="translate(2.693 5.113)" opacity="0.4" style="mix-blend-mode: multiply;isolation: isolate">
            <g id="Grupo_891683" data-name="Grupo 891683" transform="translate(138.416 50.847)">
              <path id="Trazado_648090" data-name="Trazado 648090" d="M442.685,188.885l-.281-1.347a6.035,6.035,0,0,1-.114-2.187,5.129,5.129,0,0,1,.537-1.626,11.7,11.7,0,0,1,.812-1.3,15.517,15.517,0,0,0,1-1.5,2.409,2.409,0,0,0,.211-1.748,1.566,1.566,0,0,0-.486-.884,2.2,2.2,0,0,0-.822-.462,1.758,1.758,0,0,0-.848-.06,2.261,2.261,0,0,0-1.2.592,2.821,2.821,0,0,0-.659,1.041,7.48,7.48,0,0,0-.333,1.229l-3.313-.784a7.878,7.878,0,0,1,.309-1.277,6.359,6.359,0,0,1,.821-1.642,6.047,6.047,0,0,1,1.567-1.548,6.5,6.5,0,0,1,2.518-.993,7.155,7.155,0,0,1,2.8-.03,4.391,4.391,0,0,1,2.226,1.154,4.834,4.834,0,0,1,1.276,2.569,5.593,5.593,0,0,1,.077,2.34,5.171,5.171,0,0,1-.669,1.651q-.454.71-.911,1.408a9.3,9.3,0,0,0-.656,1.12,4.143,4.143,0,0,0-.393,1.333,5.178,5.178,0,0,0,.108,1.7l.111.534Zm2.961,5.006a2.438,2.438,0,0,1-1.656-.193,1.668,1.668,0,0,1-.878-1.191,1.69,1.69,0,0,1,.343-1.442,2.283,2.283,0,0,1,1.428-.834,2.239,2.239,0,0,1,1.624.239,1.774,1.774,0,0,1,.868,1.207,1.653,1.653,0,0,1-.306,1.422A2.279,2.279,0,0,1,445.647,193.891Z" transform="translate(-437.185 -174.236)" fill="#55a3f3"/>
            </g>
            <g id="Grupo_891684" data-name="Grupo 891684" transform="translate(0 71.688)">
              <path id="Trazado_648091" data-name="Trazado 648091" d="M33.165,251.662l-.54-1.138a5.541,5.541,0,0,1-.573-1.917,4.638,4.638,0,0,1,.126-1.55,10.489,10.489,0,0,1,.44-1.313,13.771,13.771,0,0,0,.563-1.536,2.191,2.191,0,0,0-.19-1.592,1.456,1.456,0,0,0-.622-.686,2.034,2.034,0,0,0-.829-.244,1.6,1.6,0,0,0-.765.118,2.017,2.017,0,0,0-.941.767,2.527,2.527,0,0,0-.36,1.056,6.794,6.794,0,0,0-.03,1.157l-3.107-.028a7.138,7.138,0,0,1,0-1.195,5.712,5.712,0,0,1,.375-1.621,5.378,5.378,0,0,1,1.055-1.689,5.813,5.813,0,0,1,2.019-1.388,6.49,6.49,0,0,1,2.478-.59,4.064,4.064,0,0,1,2.223.575,4.5,4.5,0,0,1,1.685,2.022,5.124,5.124,0,0,1,.573,2.059,4.655,4.655,0,0,1-.237,1.6q-.25.722-.5,1.432a8.287,8.287,0,0,0-.341,1.125,3.741,3.741,0,0,0-.061,1.261,4.759,4.759,0,0,0,.462,1.485l.214.451Zm3.706,3.843a2.222,2.222,0,0,1-1.51.162,1.553,1.553,0,0,1-1.036-.88,1.533,1.533,0,0,1-.007-1.348A2.242,2.242,0,0,1,36.9,252.3a1.652,1.652,0,0,1,1.03.9,1.5,1.5,0,0,1,.035,1.323A2.031,2.031,0,0,1,36.871,255.5Z" transform="translate(-26.312 -238.272)" fill="#55a3f3"/>
            </g>
            <g id="Grupo_891685" data-name="Grupo 891685" transform="translate(76.305)">
              <path id="Trazado_648092" data-name="Trazado 648092" d="M254.616,30.583l.193-1.238a5.55,5.55,0,0,1,.607-1.907,4.812,4.812,0,0,1,.983-1.231,11.037,11.037,0,0,1,1.112-.865,14.476,14.476,0,0,0,1.341-.988,2.234,2.234,0,0,0,.743-1.433,1.4,1.4,0,0,0-.131-.9,1.932,1.932,0,0,0-.555-.642,1.572,1.572,0,0,0-.706-.306,2.1,2.1,0,0,0-1.222.144,2.667,2.667,0,0,0-.9.694,7.026,7.026,0,0,0-.68.952l-2.585-1.667a7.365,7.365,0,0,1,.676-1,5.986,5.986,0,0,1,1.232-1.159,5.686,5.686,0,0,1,1.84-.855,6.016,6.016,0,0,1,2.475-.094,6.462,6.462,0,0,1,2.408.817,3.873,3.873,0,0,1,1.535,1.657,4.325,4.325,0,0,1,.265,2.583,5.139,5.139,0,0,1-.687,2.027,4.854,4.854,0,0,1-1.1,1.213q-.618.472-1.234.932a8.757,8.757,0,0,0-.923.762,3.884,3.884,0,0,0-.765,1.024,4.757,4.757,0,0,0-.455,1.487l-.076.491Zm.924,5.176a2.18,2.18,0,0,1-1.356-.663,1.48,1.48,0,0,1-.369-1.284,1.579,1.579,0,0,1,.758-1.132,2.127,2.127,0,0,1,1.491-.285,2,2,0,0,1,1.314.693,1.574,1.574,0,0,1,.354,1.294,1.542,1.542,0,0,1-.72,1.126A2.121,2.121,0,0,1,255.54,35.759Z" transform="translate(-252.816 -18.001)" fill="#55a3f3"/>
            </g>
            <g id="Grupo_891686" data-name="Grupo 891686" transform="translate(62.817 15.944)">
              <path id="Trazado_648093" data-name="Trazado 648093" d="M216.754,77.81l-.195-1a4.47,4.47,0,0,1-.063-1.618,3.792,3.792,0,0,1,.413-1.2,8.657,8.657,0,0,1,.612-.951,11.437,11.437,0,0,0,.754-1.1,1.78,1.78,0,0,0,.172-1.29A1.156,1.156,0,0,0,218.1,70a1.62,1.62,0,0,0-.6-.349,1.3,1.3,0,0,0-.626-.052,1.671,1.671,0,0,0-.9.427,2.088,2.088,0,0,0-.5.764,5.6,5.6,0,0,0-.258.905l-2.441-.609a5.849,5.849,0,0,1,.241-.941,4.716,4.716,0,0,1,.623-1.206,4.484,4.484,0,0,1,1.173-1.131,4.813,4.813,0,0,1,1.871-.711,5.287,5.287,0,0,1,2.07,0,3.242,3.242,0,0,1,1.634.873,3.571,3.571,0,0,1,.918,1.911,4.133,4.133,0,0,1,.034,1.73,3.832,3.832,0,0,1-.51,1.215q-.343.521-.688,1.032a6.892,6.892,0,0,0-.5.822,3.067,3.067,0,0,0-.3.982,3.825,3.825,0,0,0,.063,1.257l.077.4Zm2.14,3.727a1.8,1.8,0,0,1-1.223-.158,1.233,1.233,0,0,1-.638-.889,1.251,1.251,0,0,1,.268-1.063,1.69,1.69,0,0,1,1.064-.6,1.654,1.654,0,0,1,1.2.192,1.31,1.31,0,0,1,.63.9,1.224,1.224,0,0,1-.24,1.049A1.686,1.686,0,0,1,218.894,81.538Z" transform="translate(-212.776 -66.993)" fill="#55a3f3"/>
            </g>
            <g id="Grupo_891687" data-name="Grupo 891687" transform="translate(88.225 19.346)">
              <path id="Trazado_648094" data-name="Trazado 648094" d="M288.9,84.783l.188-.728a3.348,3.348,0,0,1,.474-1.1,2.913,2.913,0,0,1,.659-.68,6.687,6.687,0,0,1,.714-.455,8.775,8.775,0,0,0,.858-.516,1.348,1.348,0,0,0,.528-.814.835.835,0,0,0-.025-.546,1.147,1.147,0,0,0-.293-.414.934.934,0,0,0-.4-.221,1.258,1.258,0,0,0-.737.019,1.606,1.606,0,0,0-.578.364,4.251,4.251,0,0,0-.462.531l-1.444-1.136a4.465,4.465,0,0,1,.462-.56,3.624,3.624,0,0,1,.8-.624,3.433,3.433,0,0,1,1.148-.409,3.6,3.6,0,0,1,1.482.08,3.842,3.842,0,0,1,1.388.62,2.3,2.3,0,0,1,.818,1.073,2.588,2.588,0,0,1,.006,1.556,3.107,3.107,0,0,1-.53,1.171,2.939,2.939,0,0,1-.73.663q-.4.247-.791.488a5.268,5.268,0,0,0-.6.4,2.343,2.343,0,0,0-.517.569,2.87,2.87,0,0,0-.359.862l-.074.288Zm.246,3.138a1.3,1.3,0,0,1-.77-.47.884.884,0,0,1-.144-.787.955.955,0,0,1,.519-.634,1.278,1.278,0,0,1,.906-.088,1.188,1.188,0,0,1,.743.486.991.991,0,0,1-.36,1.424A1.272,1.272,0,0,1,289.147,87.921Z" transform="translate(-288.199 -77.446)" fill="#55a3f3"/>
            </g>
            <g id="Grupo_891688" data-name="Grupo 891688" transform="translate(134.934 74.268)">
              <path id="Trazado_648095" data-name="Trazado 648095" d="M428.007,254.749l.141-.842a3.789,3.789,0,0,1,.427-1.295,3.291,3.291,0,0,1,.679-.832,7.519,7.519,0,0,1,.764-.582,9.865,9.865,0,0,0,.921-.664,1.522,1.522,0,0,0,.517-.971.949.949,0,0,0-.083-.616,1.319,1.319,0,0,0-.374-.442,1.074,1.074,0,0,0-.479-.213,1.43,1.43,0,0,0-.834.09,1.814,1.814,0,0,0-.618.466,4.81,4.81,0,0,0-.471.644l-1.748-1.153a5.029,5.029,0,0,1,.468-.677,4.1,4.1,0,0,1,.848-.781,3.888,3.888,0,0,1,1.26-.57,4.1,4.1,0,0,1,1.688-.047,4.4,4.4,0,0,1,1.634.573,2.636,2.636,0,0,1,1.033,1.139,2.946,2.946,0,0,1,.161,1.762,3.511,3.511,0,0,1-.483,1.376,3.317,3.317,0,0,1-.761.819q-.424.317-.847.626a5.921,5.921,0,0,0-.634.513,2.643,2.643,0,0,0-.529.692,3.245,3.245,0,0,0-.321,1.01l-.056.334Zm.591,3.533a1.482,1.482,0,0,1-.919-.461,1.007,1.007,0,0,1-.242-.877,1.075,1.075,0,0,1,.525-.766,1.45,1.45,0,0,1,1.018-.184,1.36,1.36,0,0,1,.89.481,1.072,1.072,0,0,1,.232.884,1.052,1.052,0,0,1-.5.762A1.444,1.444,0,0,1,428.6,258.281Z" transform="translate(-426.85 -246.2)" fill="#55a3f3"/>
            </g>
            <g id="Grupo_891689" data-name="Grupo 891689" transform="translate(8.464 57.354)">
              <path id="Trazado_648096" data-name="Trazado 648096" d="M53.774,203.015l-.023-.842a3.7,3.7,0,0,1,.169-1.332,3.192,3.192,0,0,1,.5-.927,7.3,7.3,0,0,1,.631-.7,9.6,9.6,0,0,0,.768-.807,1.484,1.484,0,0,0,.317-1.034.945.945,0,0,0-.2-.583,1.325,1.325,0,0,0-.446-.363,1.069,1.069,0,0,0-.505-.122,1.4,1.4,0,0,0-.792.235,1.761,1.761,0,0,0-.511.562,4.631,4.631,0,0,0-.335.708L51.436,197a4.9,4.9,0,0,1,.325-.74,3.951,3.951,0,0,1,.675-.908,3.764,3.764,0,0,1,1.114-.776,4.026,4.026,0,0,1,1.628-.344,4.38,4.38,0,0,1,1.695.267,2.652,2.652,0,0,1,1.219.923,2.929,2.929,0,0,1,.491,1.681,3.429,3.429,0,0,1-.208,1.421,3.206,3.206,0,0,1-.583.929q-.352.383-.7.758a5.783,5.783,0,0,0-.518.61,2.574,2.574,0,0,0-.382.765,3.177,3.177,0,0,0-.12,1.037l.009.334Zm1.243,3.324a1.485,1.485,0,0,1-.979-.285,1.007,1.007,0,0,1-.4-.809,1.047,1.047,0,0,1,.364-.836,1.418,1.418,0,0,1,.953-.358,1.362,1.362,0,0,1,.955.31,1.071,1.071,0,0,1,.393.817,1.023,1.023,0,0,1-.34.828A1.413,1.413,0,0,1,55.017,206.338Z" transform="translate(-51.436 -194.23)" fill="#55a3f3"/>
            </g>
          </g>
          <g id="Grupo_891703" data-name="Grupo 891703" transform="translate(73.724 56.39)">
            <g id="Grupo_891691" data-name="Grupo 891691" transform="translate(10.015 60.179)">
              <path id="Trazado_648097" data-name="Trazado 648097" d="M266.889,444.714h12.3l-.433-24.411a40.785,40.785,0,0,0-5.115-2.263Z" transform="translate(-266.889 -399.301)" fill="#ff8775"/>
              <path id="Trazado_648098" data-name="Trazado 648098" d="M286.931,379.2a40.773,40.773,0,0,1,5.115,2.263l-.372-21Z" transform="translate(-280.179 -360.463)" fill="#b21a29"/>
            </g>
            <g id="Grupo_891692" data-name="Grupo 891692" transform="translate(19.684 30.964)">
              <path id="Trazado_648099" data-name="Trazado 648099" d="M360.639,287.11a8.047,8.047,0,0,1-1.608-1.245c-.864-1.357-.635-15.168-.635-15.168l-14.462,9.233-.138,6.66s-1.509.631-3.631,1.733l5.751,13.053Z" transform="translate(-325.149 -270.697)" fill="#ff8775"/>
              <path id="Trazado_648100" data-name="Trazado 648100" d="M349.674,338.06c-.812-5.935-13.922-13.776-18.595-16.931L316.357,335.4l-5.751-13.053c-4.423,2.3-11.514,6.637-13.191,11.588-2.482,7.326-1.714,45.413-1.714,45.413h49.285s.552-11.445.552-16.374S350.639,345.12,349.674,338.06Z" transform="translate(-295.589 -304.716)" fill="#ee4e5d"/>
            </g>
            <g id="Grupo_891698" data-name="Grupo 891698" transform="translate(26.794)">
              <path id="Trazado_648102" data-name="Trazado 648102" d="M342.149,222.29a7.569,7.569,0,0,1-.061-2.258,34.531,34.531,0,0,1,1.8-8.486,5.228,5.228,0,0,1-3.763-1.693,4.979,4.979,0,0,1-1.018-3.943,4.287,4.287,0,0,1-3.118,1.889,2.323,2.323,0,0,1-.921-.061,2.018,2.018,0,0,1-1.274-1.954,5.942,5.942,0,0,1,.666-2.4c-2.026,2.31-5.449,2.915-8.584,2.943a17.2,17.2,0,0,1-5.231-.625,9.519,9.519,0,0,1-2.605-1.251c-.179.532-.345,1.082-.485,1.667-2.154,9,.256,22.287,1.563,28.245a4.292,4.292,0,0,0,4.12,3.318,20.9,20.9,0,0,0,7.105-.827,26.516,26.516,0,0,0,13.945-11.343A6.15,6.15,0,0,1,342.149,222.29Z" transform="translate(-316.696 -194.325)" fill="#ff8775"/>
              <path id="Trazado_648103" data-name="Trazado 648103" d="M342.006,176.108c-7.326-1.415-17.849-.737-21.317,9.571a9.519,9.519,0,0,0,2.605,1.251,17.2,17.2,0,0,0,5.231.625c3.134-.028,6.558-.633,8.584-2.943a5.943,5.943,0,0,0-.666,2.4,2.019,2.019,0,0,0,1.274,1.954,2.324,2.324,0,0,0,.921.061,4.288,4.288,0,0,0,3.118-1.889,4.98,4.98,0,0,0,1.018,3.943,5.228,5.228,0,0,0,3.763,1.693,34.532,34.532,0,0,0-1.8,8.486,7.569,7.569,0,0,0,.061,2.258,6.151,6.151,0,0,0,2.14,3.219,44.9,44.9,0,0,0,3.927-7.932C355.641,186.453,349.709,177.6,342.006,176.108Z" transform="translate(-319.344 -175.555)" fill="#12263f"/>
            </g>
            <g id="Grupo_891699" data-name="Grupo 891699" transform="translate(52.374 21.994)">
              <path id="Trazado_648104" data-name="Trazado 648104" d="M400.125,247.6a8.761,8.761,0,0,1-3.427,4.7,3.953,3.953,0,0,1-1.618.709,2.229,2.229,0,0,1-2.406-2.041,7.2,7.2,0,0,1,.791-3.852c.725-1.635,1.909-3.378,3.531-3.859C399.609,242.49,400.771,245.323,400.125,247.6Z" transform="translate(-392.626 -243.135)" fill="#ff8775"/>
              <path id="Trazado_648105" data-name="Trazado 648105" d="M396.287,254.032a4.05,4.05,0,0,0,1.55-1.043.866.866,0,0,0,.212-.318.6.6,0,0,0-.2-.567l-.79-.917a.409.409,0,0,1-.117-.213.625.625,0,0,1,.074-.3,7.649,7.649,0,0,1,2.28-3.409,2.068,2.068,0,0,1,.977-.407,1.294,1.294,0,0,1,1.169.609,3.865,3.865,0,0,1,.484,1.323,6.7,6.7,0,0,1-2.126,4.334C397.81,254.827,396.287,254.032,396.287,254.032Z" transform="translate(-395.054 -245.643)" fill="#ff8775" style="mix-blend-mode: multiply;isolation: isolate"/>
              <path id="Trazado_648106" data-name="Trazado 648106" d="M401.928,248.789a3.865,3.865,0,0,0-.484-1.323,1.294,1.294,0,0,0-1.169-.609,2.068,2.068,0,0,0-.977.407,7.649,7.649,0,0,0-2.28,3.409.625.625,0,0,0-.074.3.409.409,0,0,0,.117.213l.79.917a.6.6,0,0,1,.2.567.866.866,0,0,1-.212.318,4.05,4.05,0,0,1-1.55,1.043" transform="translate(-395.054 -245.643)" fill="none"/>
            </g>
            <path id="Trazado_648107" data-name="Trazado 648107" d="M351.073,290.965A18.985,18.985,0,0,0,363.031,283s-2.249,5.067-5.435,7.4a24.153,24.153,0,0,1-6.582,3.344Z" transform="translate(-312.659 -248.032)" fill="#252b37" opacity="0.2"/>
            <g id="Grupo_891701" data-name="Grupo 891701" transform="translate(0 46.29)">
              <path id="Trazado_648115" data-name="Trazado 648115" d="M287.532,347.125l-4.22,5.426L256.88,332.2s-7.156-2.35-9.163-4.095S241.3,317.382,239.49,317.8s-3.01,6.236-1.906,10.113,2.81,7.076,4.616,8.045,14.548,3.489,14.548,3.489,13.545,16.575,17.057,20.161,15.652,13.473,15.652,13.473l11.94-12.213a74.3,74.3,0,0,0-7.324-8.627A33.841,33.841,0,0,0,287.532,347.125Z" transform="translate(-237.16 -317.787)" fill="#ff8775"/>
              <path id="Trazado_648116" data-name="Trazado 648116" d="M380.368,375.552s7.48-11.379,10.18-14.462a28.535,28.535,0,0,1,6.464-5.217" transform="translate(-332.124 -343.478)" fill="none"/>
              <line id="Línea_419" data-name="Línea 419" x1="8.578" y2="9.811" transform="translate(61.384 36.189)" fill="none"/>
              <path id="Trazado_648117" data-name="Trazado 648117" d="M371.084,422.174c1.551,1.394,3.348,2.506,4.993,3.8a11.994,11.994,0,0,1,3.945,4.725" transform="translate(-325.967 -388.201)" fill="none"/>
              <g id="Grupo_898293" data-name="Grupo 898293" transform="translate(0.046 0.307)" opacity="0.22">
                <path id="Trazado_648118" data-name="Trazado 648118" d="M237.3,335.936a.541.541,0,0,1,.642-.091,1.259,1.259,0,0,1,.476.489,11.42,11.42,0,0,1,.961,2.206,33.275,33.275,0,0,0,1.961,4.341,4.543,4.543,0,0,0,3.574,2.721,20.919,20.919,0,0,0,3.159.563,10.463,10.463,0,0,0-2.324-1.463,3.883,3.883,0,0,1-1.628-3.91c2.148.241,3.851,1.9,5.866,2.654.831.313,1.725.448,2.553.77a7.562,7.562,0,0,1,4.179,4.662" transform="translate(-237.296 -330.233)" fill="none"/>
                <path id="Trazado_648119" data-name="Trazado 648119" d="M239.75,323.717a2.593,2.593,0,0,1,1.187,1.607l1.743,4.539a11.573,11.573,0,0,0,1.047,2.235c.454.692,1.295,1.959,2.083,2.262" transform="translate(-238.924 -322.095)" fill="none"/>
                <path id="Trazado_648120" data-name="Trazado 648120" d="M244.791,318.732c1.221,1.384,1.681,3.226,2.415,4.9a21.035,21.035,0,0,0,2.89,4.621,11.116,11.116,0,0,0,2.14,2.159" transform="translate(-242.266 -318.732)" fill="none"/>
              </g>
            </g>
            <path id="Trazado_648121" data-name="Trazado 648121" d="M296.081,392.729s-.513,12.172-.493,19.812.246,11.094.246,11.094" transform="translate(-275.904 -322.049)" fill="none"/>
            <path id="Trazado_648122" data-name="Trazado 648122" d="M358.454,322.37l-1.879-1.241L341.852,335.4,336.1,322.342l-2.065,1.122,6.931,16.517Z" transform="translate(-301.4 -273.752)" fill="#b21a29"/>
            <g id="Grupo_891702" data-name="Grupo 891702" transform="translate(29.223 0.12)" opacity="0.4">
              <path id="Trazado_648123" data-name="Trazado 648123" d="M323.9,187.773a28.544,28.544,0,0,0,12.211-2.072,12.328,12.328,0,0,0,4.4-2.768,3.349,3.349,0,0,0-.281,1.324,1.474,1.474,0,0,0,.6,1.176,2.218,2.218,0,0,0,1.882.03,9.914,9.914,0,0,0,5.146-3.861" transform="translate(-323.905 -179.752)" fill="none"/>
              <path id="Trazado_648124" data-name="Trazado 648124" d="M395.244,183.416a15.3,15.3,0,0,0-1.612,4.44,6.837,6.837,0,0,0,.727,4.58,7.381,7.381,0,0,0,4.461,3.109,5.189,5.189,0,0,0,1.885.216" transform="translate(-370.071 -180.977)" fill="none"/>
              <path id="Trazado_648125" data-name="Trazado 648125" d="M404.138,190.081a5.038,5.038,0,0,0-.079,4.172,4.458,4.458,0,0,0,3.355,2.537" transform="translate(-376.781 -185.473)" fill="none"/>
              <path id="Trazado_648126" data-name="Trazado 648126" d="M347.726,175.923a10.842,10.842,0,0,1-11.285,2.656" transform="translate(-332.218 -175.923)" fill="none"/>
            </g>
          </g>
          <g id="Grupo_891709" data-name="Grupo 891709" transform="translate(17.453 62.293)">
            <g id="Grupo_891704" data-name="Grupo 891704" transform="translate(44.932 59.737)">
              <path id="Trazado_648127" data-name="Trazado 648127" d="M216.712,402.033l-7.227-24.788L203.5,400.109l.956,3.332A22.337,22.337,0,0,0,216.712,402.033Z" transform="translate(-203.501 -377.245)" fill="#0a2a6b"/>
              <path id="Trazado_648128" data-name="Trazado 648128" d="M223.014,468.574l-4.421-15.163a22.337,22.337,0,0,1-12.255,1.408l3.946,13.755Z" transform="translate(-205.382 -428.623)" fill="#ff8775"/>
            </g>
            <path id="Trazado_648129" data-name="Trazado 648129" d="M103.152,340.47l-12.72-4.378S72.143,345.779,70.4,353.959s5.51,35.477,5.51,35.477h49.326s-7.392-15.645-7.392-19.458,5.376-17.843,2.957-20.891-17.726-11.228-17.726-11.228Z" transform="translate(-70.124 -289.749)" fill="#0a2a6b"/>
            <path id="Trazado_648130" data-name="Trazado 648130" d="M131.029,256.1a14.033,14.033,0,0,1-12.72-4.378,30.9,30.9,0,0,0,.689-7.375,10.541,10.541,0,0,0-.539-3.42,12.93,12.93,0,0,0-1.1-2.108l-3.428-5.689a12.632,12.632,0,0,1-1.552-3.232c-.6-2.291.146-4.708,1.124-6.874,1.894-4.2,4.822-8.121,8.972-10.33s9.648-2.383,13.441.36c1.488,1.076,3.476,2.1,3.88,3.855a97.265,97.265,0,0,1,2.32,12.554,32.437,32.437,0,0,1-1.019,12.645,9.383,9.383,0,0,1-2.979,4.881,9.262,9.262,0,0,1-3.671,1.52A7.364,7.364,0,0,1,131,248.6C130.9,250.978,130.921,253.718,131.029,256.1Z" transform="translate(-98.002 -205.378)" fill="#ff8775"/>
            <path id="Trazado_648131" data-name="Trazado 648131" d="M96.97,204.893a8.747,8.747,0,0,0-3.088,2.678c-3.122,4.182-3.115,10.09-.712,14.695a24.674,24.674,0,0,0,12.1,10.814,30.26,30.26,0,0,0-.906-7.588,6.533,6.533,0,0,0,3.335-1.963c-1.281-4.733-2.6-9.387-3.884-14.12a15.084,15.084,0,0,0,8.778-.889,25.663,25.663,0,0,0,7.4-4.685,5.213,5.213,0,0,0,2.631,2.734,9.077,9.077,0,0,0,3.831.867c.15.746.283,1.487.433,2.233,2.312-1.4,4.363-3.893,4.054-6.51a6.781,6.781,0,0,0-.59-1.976,11.379,11.379,0,0,0-5.3-5.447,17.607,17.607,0,0,0-4.446-1.4,35.066,35.066,0,0,0-15.471.469,14.387,14.387,0,0,0-4.519,1.866A8.766,8.766,0,0,0,96.97,204.893Z" transform="translate(-84.263 -193.695)" fill="#0a2a6b"/>
            <g id="Grupo_891705" data-name="Grupo 891705" transform="translate(14.689 26.114)">
              <path id="Trazado_648132" data-name="Trazado 648132" d="M113.9,278.4a8.763,8.763,0,0,0,3.427,4.7,3.957,3.957,0,0,0,1.618.709,2.229,2.229,0,0,0,2.406-2.041,7.2,7.2,0,0,0-.791-3.851c-.726-1.635-1.909-3.378-3.531-3.859C114.419,273.288,113.256,276.121,113.9,278.4Z" transform="translate(-113.727 -273.933)" fill="#ff8775"/>
              <path id="Trazado_648133" data-name="Trazado 648133" d="M121.742,284.83a4.05,4.05,0,0,1-1.55-1.043.863.863,0,0,1-.212-.318.6.6,0,0,1,.2-.567l.79-.917a.407.407,0,0,0,.117-.213.624.624,0,0,0-.074-.3,7.648,7.648,0,0,0-2.28-3.409,2.068,2.068,0,0,0-.977-.406,1.294,1.294,0,0,0-1.169.608,3.86,3.86,0,0,0-.484,1.323,6.7,6.7,0,0,0,2.126,4.334C120.219,285.624,121.742,284.83,121.742,284.83Z" transform="translate(-115.301 -276.441)" fill="#ff8775" style="mix-blend-mode: multiply;isolation: isolate"/>
              <path id="Trazado_648134" data-name="Trazado 648134" d="M116.1,279.587a3.86,3.86,0,0,1,.484-1.323,1.294,1.294,0,0,1,1.169-.608,2.068,2.068,0,0,1,.977.406,7.648,7.648,0,0,1,2.28,3.409.624.624,0,0,1,.074.3.407.407,0,0,1-.117.213l-.79.917a.6.6,0,0,0-.2.567.863.863,0,0,0,.212.318,4.05,4.05,0,0,0,1.55,1.043" transform="translate(-115.301 -276.441)" fill="none"/>
            </g>
            <g id="Grupo_891707" data-name="Grupo 891707" transform="translate(14.163 36.864)">
              <path id="Trazado_648142" data-name="Trazado 648142" d="M117.489,346.121l5.419,5.435s4.42-31.469,4.331-33.987-1.857-8.556-.443-8.781S131,314.545,131,314.545s17.941-3.1,19.355-2.832-.707,1.745-2.71,2.428a34.267,34.267,0,0,1-3.758,1.041,4.434,4.434,0,0,1,.807,1.53,5.778,5.778,0,0,1,0,1.546,5.65,5.65,0,0,1,.011,1.67,4.377,4.377,0,0,1-.531,1.01s.155,1.157-.115,1.541a2.749,2.749,0,0,1-1.1.887c-1.919,1.991-4.284.244-4.284.244l-1.478-.035-4.458-.106s-.607,21.586-.911,28.09a151.085,151.085,0,0,1-2.328,16.87l-17.337-9.877a51.782,51.782,0,0,1,2.558-8.019C116.24,347.108,117.489,346.121,117.489,346.121Z" transform="translate(-112.164 -308.191)" fill="#ff8775" stroke="rgba(57,57,57,0.5)" stroke-width="0.4"/>
              <path id="Trazado_648143" data-name="Trazado 648143" d="M154.758,321.111s.137-2.626.212-3.941c.193-3.384-.614-6.754-.576-10.143a2.32,2.32,0,0,1,2.074.524,3.663,3.663,0,0,1,.817,1.263,3.949,3.949,0,0,1,.412,1.633,7.832,7.832,0,0,0-.053,1.06,2.155,2.155,0,0,0,.241.722,4.052,4.052,0,0,0,1.083,1.319l8.07-1.567" transform="translate(-140.166 -306.965)" fill="none"/>
              <line id="Línea_420" data-name="Línea 420" x1="5.448" y2="1.164" transform="translate(26.278 6.99)" fill="none"/>
              <path id="Trazado_648144" data-name="Trazado 648144" d="M191.173,338.147c2.007-.092,3.909-.163,5.916-.255" transform="translate(-164.556 -327.827)" fill="none"/>
              <path id="Trazado_648145" data-name="Trazado 648145" d="M191.93,345.665a39.237,39.237,0,0,1,5.141.116" transform="translate(-165.058 -333.037)" fill="none"/>
              <line id="Línea_421" data-name="Línea 421" x1="4.102" y2="0.052" transform="translate(25.839 15.277)" fill="none"/>
              <path id="Trazado_648146" data-name="Trazado 648146" d="M142.853,437.425a60.371,60.371,0,0,0-.517,6.618" transform="translate(-132.172 -394.966)" fill="none"/>
            </g>
            <path id="Trazado_648147" data-name="Trazado 648147" d="M101.839,395.193l-6.428-7.681c-2.12-2.533-4.336-5.142-7.357-6.591" transform="translate(-82.013 -319.989)" fill="none"/>
            <path id="Trazado_648148" data-name="Trazado 648148" d="M95.959,460.96a27.173,27.173,0,0,0-.942,7.054,44.411,44.411,0,0,1-7.385-6.9" transform="translate(-81.734 -373.978)" fill="none"/>
            <path id="Trazado_648149" data-name="Trazado 648149" d="M213.448,406.874l-1.684-6.121,1.7-19.038" transform="translate(-164.048 -320.524)" fill="none"/>
            <g id="Grupo_891708" data-name="Grupo 891708" transform="translate(7.199 0.369)" opacity="0.47">
              <path id="Trazado_648150" data-name="Trazado 648150" d="M108.289,210.58a18.383,18.383,0,0,0,4.663.68,31.531,31.531,0,0,0,10.537-1.07,16.775,16.775,0,0,0,8.638-5.712,8.416,8.416,0,0,0,3.313,5.648,9.034,9.034,0,0,0,6.442,1.915" transform="translate(-102.63 -201.337)" fill="none"/>
              <path id="Trazado_648151" data-name="Trazado 648151" d="M194.3,205.16a7.027,7.027,0,0,1-4.555-2.375,10.718,10.718,0,0,1-2.3-4.568" transform="translate(-155.119 -197.115)" fill="none"/>
              <path id="Trazado_648152" data-name="Trazado 648152" d="M134.086,194.83a11.452,11.452,0,0,1-5.458,3.526c-4.3,1.546-9.276,2.053-13.382.071" transform="translate(-107.244 -194.83)" fill="none"/>
              <path id="Trazado_648153" data-name="Trazado 648153" d="M103.7,242.789a10.743,10.743,0,0,1-1.712,7.233,11.388,11.388,0,0,1-6.1,4.513" transform="translate(-94.412 -227.181)" fill="none"/>
              <path id="Trazado_648154" data-name="Trazado 648154" d="M96.453,237.476a10.255,10.255,0,0,1-4.961,6.224" transform="translate(-91.492 -223.597)" fill="none"/>
            </g>
          </g>
        </g>
      </g>
    </g>
  </g>
</svg>
