<svg xmlns="http://www.w3.org/2000/svg" xmlns:xlink="http://www.w3.org/1999/xlink" width="169" height="170" viewBox="0 0 169 170">
  <defs>
    <clipPath id="clip-path">
      <circle id="Elipse_6267" data-name="Elipse 6267" cx="84.5" cy="84.5" r="84.5" transform="translate(722.619 1560.787)" fill="#fff" stroke="#707070" stroke-width="1"/>
    </clipPath>
  </defs>
  <g id="Grupo_898336" data-name="Grupo 898336" transform="translate(-718 -1560)">
    <circle id="Elipse_6260" data-name="Elipse 6260" cx="84.5" cy="84.5" r="84.5" transform="translate(718 1561)" fill="#fff"/>
    <g id="Enmascarar_grupo_244" data-name="Enmascarar grupo 244" transform="translate(-4.619 -0.787)" clip-path="url(#clip-path)">
      <g id="Grupo_898288" data-name="Grupo 898288" transform="translate(709.515 1587.777)">
        <g id="objects" transform="translate(0 0)">
          <g id="Grupo_888622" data-name="Grupo 888622">
            <g id="Grupo_888525" data-name="Grupo 888525" transform="translate(85.74)">
              <g id="Grupo_888487" data-name="Grupo 888487" transform="translate(64.699 44.477)">
                <path id="Trazado_622187" data-name="Trazado 622187" d="M593.78,225.51c.891,1.311,2.248,2.158.976,3.357-1.419,1.339-5.328,5.4-5.328,5.4l3.512,7.708s5.506-5.558,8.39-8.652,4.441-6.279,2.553-9.583S593.78,225.51,593.78,225.51Z" transform="translate(-589.288 -222.436)" fill="#f2ac30"/>
                <g id="Grupo_888486" data-name="Grupo 888486" transform="translate(0 0)">
                  <path id="Trazado_622188" data-name="Trazado 622188" d="M593.3,225.109c.38.537.833,1.019,1.2,1.562.506.741.129,1.3-.437,1.844-.686.659-1.352,1.338-2.019,2.016q-1.548,1.572-3.078,3.163a.146.146,0,0,0-.022.171l3.512,7.708a.143.143,0,0,0,.223.029q2.118-2.139,4.217-4.3,1.646-1.691,3.273-3.4a21.591,21.591,0,0,0,3.322-4.177,6.892,6.892,0,0,0,.888-4.615,3.75,3.75,0,0,0-1.773-2.847c-1.8-.823-4.234.209-5.895.919a25.671,25.671,0,0,0-3.364,1.729c-.156.1-.013.341.143.245a25.418,25.418,0,0,1,4.243-2.084,10.419,10.419,0,0,1,3.384-.783,2.579,2.579,0,0,1,2.677,1.854c1.636,3.877-1.742,7.373-4.191,9.945-2.016,2.118-4.064,4.206-6.115,6.289q-.5.512-1.009,1.023l.222.029-3.5-7.683c-.042-.091-.09.205-.005.117l.165-.171.779-.806q1.225-1.264,2.461-2.518.6-.609,1.209-1.211a6.04,6.04,0,0,0,1.013-1.043c.713-1.208-.644-2.249-1.282-3.15C593.443,224.819,593.2,224.96,593.3,225.109Z" transform="translate(-588.933 -221.964)" fill="#f2ac30"/>
                </g>
              </g>
              <g id="Grupo_888489" data-name="Grupo 888489" transform="translate(42.358 57.921)">
                <path id="Trazado_622189" data-name="Trazado 622189" d="M513.947,282.368c-.169,2.3-2.223,24.068-3.383,36.316h12.788l3.494-29.946,2.871,29.946h14.6c-1.046-10.328-2.735-26.829-3.161-29.867-.63-4.483-1.495-12.4-5.27-18.851-2.6-.393-23.439,4.458-23.439,4.458C512.924,275.839,514.183,279.143,513.947,282.368Z" transform="translate(-510.421 -269.797)" fill="#222b5a"/>
                <g id="Grupo_888488" data-name="Grupo 888488">
                  <path id="Trazado_622190" data-name="Trazado 622190" d="M511.3,305.166q-.619,6.574-1.244,13.148h.282q.864-9.119,1.723-18.238c.566-6.022,1.217-12.045,1.662-18.078a20.7,20.7,0,0,0-1.452-7.84q4.315-1,8.647-1.928a130.194,130.194,0,0,1,13.057-2.435c.367-.04,1.347-.267,1.55.082a31.108,31.108,0,0,1,2.483,5.626,57.975,57.975,0,0,1,2.293,10.388c.52,3.616.907,7.247,1.294,10.88q1.146,10.768,2.223,21.543h.283q-1.037-10.269-2.116-20.534c-.369-3.483-.724-6.968-1.2-10.439a74.716,74.716,0,0,0-1.892-9.917,37.355,37.355,0,0,0-1.924-5.34,28.274,28.274,0,0,0-1.322-2.56c-.076-.13-.389-.092-.514-.093a26.619,26.619,0,0,0-4.557.585c-2.334.4-4.656.874-6.975,1.355q-5.582,1.16-11.137,2.449l-.415.1a.142.142,0,0,0-.1.174A20.82,20.82,0,0,1,513.444,282C512.874,289.729,512.031,297.448,511.3,305.166Z" transform="translate(-510.06 -269.427)" fill="#32015c"/>
                  <path id="Trazado_622191" data-name="Trazado 622191" d="M558.991,335.95a.142.142,0,0,0-.283,0l-2.192,18.781q-.651,5.582-1.3,11.164h.283l1.336-11.445q1-8.584,2-17.168l1.68,17.52q.532,5.547,1.064,11.094h.283q-.552-5.758-1.1-11.516Z" transform="translate(-542.424 -317.009)" fill="#32015c"/>
                </g>
              </g>
              <path id="Trazado_622192" data-name="Trazado 622192" d="M369.147,129.039c-.314-.944-1.625-4.667-1.625-4.667s-3.828-2.411-5.506-3.355-2.412-4.195.314-4.982c.734-1.363,1.856-1.483,2.485-1.116.419-3.094,1.984-3.466,3.715-2.889s2.784,2.063,3.832,4.422,1.294,3.62,2.185,5.98,1.573,4.143,1.573,4.143A5.352,5.352,0,0,1,369.147,129.039Z" transform="translate(-360.518 -98.529)" fill="#ffd4d4"/>
              <path id="Trazado_622193" data-name="Trazado 622193" d="M374.2,134.271A4.195,4.195,0,1,1,370,130.077,4.195,4.195,0,0,1,374.2,134.271Z" transform="translate(-364.309 -111.627)" fill="#d4336e"/>
              <path id="Trazado_622194" data-name="Trazado 622194" d="M363.241,125.241c.59.668,1.573.314,1.416-1.14.983-.079,1.18-1.455,2.084-2.675.393,1.573,1.1,1.77,1.613,1.534s.944-.55.983-2.005.473-1.848,1.1-1.652,1.18,1.652,1.966,3.461.865,3.225-.276,3.5a3.933,3.933,0,0,0-2.831,1.927c-.669,1.219.118,2.4,2.2,1.494a5.2,5.2,0,0,0,2.713-2.36,20.992,20.992,0,0,0-1.258-6.645,3.517,3.517,0,0,0-3.973-2.36l-3.264,2.439-2.6,2.792" transform="translate(-362.385 -103.16)" fill="#ffd4d4"/>
              <g id="Grupo_888491" data-name="Grupo 888491" transform="translate(47.656 15.135)">
                <path id="Trazado_622195" data-name="Trazado 622195" d="M530.1,123.236c1.521.131,3.12-1.573,2.753-3.618s-3.592,1.075-3.592,1.075Z" transform="translate(-529.124 -118.767)" fill="#292a24"/>
                <g id="Grupo_888490" data-name="Grupo 888490">
                  <path id="Trazado_622196" data-name="Trazado 622196" d="M529.745,122.984a2.867,2.867,0,0,0,2.609-1.7c.327-.629.7-2.315-.109-2.777-1.082-.617-2.731,1.006-3.44,1.688a.14.14,0,0,0-.036.138q.42,1.272.839,2.543c.057.173.331.1.273-.075l-.716-2.17-.112-.338c.01.029-.1.15.05.011.241-.224.494-.436.751-.641.474-.376,1.936-1.555,2.419-.7a2.829,2.829,0,0,1-.35,2.506,2.467,2.467,0,0,1-2.18,1.224C529.562,122.693,529.563,122.976,529.745,122.984Z" transform="translate(-528.763 -118.374)" fill="#292a24"/>
                </g>
              </g>
              <path id="Trazado_622197" data-name="Trazado 622197" d="M476.585,90.642a8.808,8.808,0,0,0,1.1,6.908c1.783,3.2,2.412,7.223,8.285,6.41a20.368,20.368,0,0,1,.735,2.674l7.707-1.678-2.465-7.5c3.277-.969,3.224-3.029,2.647-4.392s-5.688-6.775-7.524-7.247S478.473,85.713,476.585,90.642Z" transform="translate(-443.521 -79.795)" fill="#ffd4d4"/>
              <g id="Grupo_888494" data-name="Grupo 888494" transform="translate(42.387 18.098)" opacity="0.18">
                <path id="Trazado_622202" data-name="Trazado 622202" d="M510.3,134.991a.142.142,0,0,1-.051-.274,6.861,6.861,0,0,0,2.44-1.67l.119-.135a6.236,6.236,0,0,0,.88-1.169,11.417,11.417,0,0,0,.621-1.4,4.148,4.148,0,0,0,.333-1.367.142.142,0,0,1,.283,0,4.38,4.38,0,0,1-.35,1.466,11.646,11.646,0,0,1-.636,1.432,6.46,6.46,0,0,1-.918,1.225l-.123.14a7.145,7.145,0,0,1-2.546,1.742A.143.143,0,0,1,510.3,134.991Z" transform="translate(-510.162 -128.835)"/>
              </g>
              <g id="Grupo_888500" data-name="Grupo 888500" transform="translate(27.617)">
                <path id="Trazado_622207" data-name="Trazado 622207" d="M475.055,73.065c-.367,1.888.1,5.636,1.94,7.6s1.573-1.547,1.364-2.124c1.048-1.206,3.035-1.431,3.8.509a5.4,5.4,0,0,1-.172,2.243,2.978,2.978,0,0,0,1.541-3.591,11.953,11.953,0,0,1-.551-4.929c.131-1.677-1.547-5.479-6.188-4.273-1.314-2.284-2.665-2.716-5.041-2.36-2.157.323-4.572-1.139-6.381-.536-1.2.4-1.9,1.691-.087,3.5-2.806-.787-5.322-.682-6.423,2.1s.314,6.371,4.693,6.449a9.221,9.221,0,0,1,.38-1.763c.341,2.045,2.058,2.077,3.657.845a15.565,15.565,0,0,0,2.858-3.067c-.63,1.7-.079,1.914,1.153,1.783S474.242,73.406,475.055,73.065Z" transform="translate(-458.36 -65.313)" fill="#292a24"/>
                <g id="Grupo_888499" data-name="Grupo 888499">
                  <path id="Trazado_622208" data-name="Trazado 622208" d="M474.577,72.657a10.6,10.6,0,0,0,.678,5.616c.21.535,1.7,3.558,2.664,2.625a1.946,1.946,0,0,0,.387-1.366,5.992,5.992,0,0,0-.048-.864c-.037-.312-.14-.407.081-.621a2.025,2.025,0,0,1,2.9-.059c.744.776.521,1.964.264,2.9a.143.143,0,0,0,.208.16,3.17,3.17,0,0,0,1.772-3A8.669,8.669,0,0,0,483,76.3a12.8,12.8,0,0,1-.27-3.021,6.214,6.214,0,0,0-.372-2.812,4.627,4.627,0,0,0-2.064-2.213,4.259,4.259,0,0,0-1.549-.458,6.486,6.486,0,0,0-1.077-.016c-.219.014-1.111.274-1.218.092a4.378,4.378,0,0,0-2.891-2.279,6.267,6.267,0,0,0-1.959.012,8.685,8.685,0,0,1-3.043-.239c-1.331-.3-2.959-.8-4.193.048-1.347.925-.376,2.549.466,3.425l.138-.237a6.816,6.816,0,0,0-4.574-.067,4.36,4.36,0,0,0-2.333,3.445,4.831,4.831,0,0,0,.98,3.676,5.4,5.4,0,0,0,4.16,1.771.144.144,0,0,0,.142-.142,9.056,9.056,0,0,1,.374-1.726h-.273c.338,1.721,1.726,2.123,3.2,1.366a10.919,10.919,0,0,0,3.573-3.554l-.259-.109a2.037,2.037,0,0,0-.134,1.655c.238.4.882.35,1.267.322,1.6-.114,2.363-1.786,3.689-2.42.165-.079.021-.323-.143-.245-.983.47-1.67,1.467-2.588,2.052a2.358,2.358,0,0,1-1.685.313c-.713-.136-.278-1.188-.133-1.6.057-.16-.173-.234-.259-.109a14.876,14.876,0,0,1-2.473,2.745,3.922,3.922,0,0,1-2.2,1.079c-.956.073-1.42-.751-1.581-1.568-.029-.147-.232-.124-.273,0a9.436,9.436,0,0,0-.385,1.8l.142-.142a5.265,5.265,0,0,1-3.863-1.574,4.412,4.412,0,0,1-1.027-3.3,4.2,4.2,0,0,1,2.081-3.425c1.359-.715,3.1-.355,4.5.027a.142.142,0,0,0,.138-.237c-.951-.99-1.693-2.635.025-3.263,1.407-.514,3.142.249,4.542.487,1.309.222,2.584-.195,3.887,0a4.215,4.215,0,0,1,2.834,2.341.144.144,0,0,0,.16.065,4.929,4.929,0,0,1,4.453.746,4.51,4.51,0,0,1,1.544,2.869c.083.679-.037,1.389-.023,2.073a12.557,12.557,0,0,0,.319,2.6,4.726,4.726,0,0,1,.354,2.26,2.749,2.749,0,0,1-1.559,1.982l.208.16c.332-1.215.455-2.49-.57-3.4-1-.893-2.486-.364-3.291.51a.142.142,0,0,0-.036.138,4.3,4.3,0,0,1,.1,1.837c-.2,1.445-1.365.051-1.77-.539a9.711,9.711,0,0,1-1.364-6.777C474.882,72.554,474.609,72.477,474.577,72.657Z" transform="translate(-458.019 -64.942)"/>
                </g>
              </g>
              <g id="Grupo_888501" data-name="Grupo 888501" transform="translate(33.01 7.218)">
                <path id="Trazado_622209" data-name="Trazado 622209" d="M477.294,94.353a.142.142,0,0,1-.14-.123l-.025-.181a3.969,3.969,0,0,1-.053-1.062,3.8,3.8,0,0,1,.871-1.829,3.492,3.492,0,0,1,.71-.707.142.142,0,1,1,.162.232,3.227,3.227,0,0,0-.652.654,3.516,3.516,0,0,0-.81,1.69,3.746,3.746,0,0,0,.054.981l.026.183a.142.142,0,0,1-.122.159Z" transform="translate(-477.056 -90.426)"/>
              </g>
              <g id="Grupo_888502" data-name="Grupo 888502" transform="translate(47.08 12.147)">
                <path id="Trazado_622210" data-name="Trazado 622210" d="M527.5,110.726l-.022,0a.137.137,0,0,1-.117-.158,2.783,2.783,0,0,0,.051-.448,1.894,1.894,0,0,0-.049-.388c-.048-.216-.1-.46-.18-.7a4.9,4.9,0,0,0-.433-1,.142.142,0,1,1,.245-.143,5.166,5.166,0,0,1,.458,1.052,7.236,7.236,0,0,1,.187.719,2.169,2.169,0,0,1,.056.45,2.955,2.955,0,0,1-.053.485A.147.147,0,0,1,527.5,110.726Z" transform="translate(-526.73 -107.827)"/>
              </g>
              <g id="Grupo_888504" data-name="Grupo 888504" transform="translate(8.223 24.023)">
                <path id="Trazado_622211" data-name="Trazado 622211" d="M390.057,156.388c1.652.472,5.27-.393,7.079-2.91,1.259,2.831,5.506,12.348,5.82,12.82s4.168-2.36,8.573-5.9,7.078-4.562,9.753-4.247,3.933-.079,3.7-1.573-.551-2.753-.551-2.753,3.067,1.258,7.865-1.573c1.022,2.989.944,3.54,1.337,4.011s3.933-1.022,7.315-.55,10.356,7.923,13.658,11.011c4.038,3.775,8.717,7.865,6.45,12.428-1.583,3.184-7.288.943-7.288.943s-.472-1.416-2.989-3.933-6.764-6.843-6.764-6.843,4.981,15,5.925,17.278c-5.034,4.247-19.791,6.4-23.79,4.581-1.309-3.927-5.731-17.532-7.7-21.229-5.978,4.169-10.146,8.18-13.685,9.438s-6.686,2.516-9.832-6.057C393.132,166.423,390.057,156.388,390.057,156.388Z" transform="translate(-389.913 -150.112)" fill="#f2ac30"/>
                <g id="Grupo_888503" data-name="Grupo 888503">
                  <path id="Trazado_622212" data-name="Trazado 622212" d="M389.656,156.167c2.584.677,5.723-.938,7.239-2.975h-.244c1.846,4.151,3.636,8.34,5.617,12.429.178.367.279.6.733.455a11.736,11.736,0,0,0,2.9-1.8c3.258-2.335,6.2-5.22,9.739-7.139a9.961,9.961,0,0,1,3.663-1.219c1.277-.137,2.539.21,3.818.083.771-.077,1.535-.4,1.654-1.245a5.792,5.792,0,0,0-.239-1.8c-.1-.509-.207-1.018-.332-1.522l-.174.174a5.647,5.647,0,0,0,2.171.28,12.311,12.311,0,0,0,5.8-1.868l-.208-.085c.4,1.179.673,2.407,1.1,3.576.227.631.586.672,1.218.585a37.227,37.227,0,0,1,5.238-.689,6.541,6.541,0,0,1,3.594,1.118,43.658,43.658,0,0,1,6.991,5.865c2.218,2.125,4.452,4.239,6.651,6.383,2.542,2.478,5.737,5.947,4.082,9.757-1.074,2.47-4.368,1.944-6.444,1.333q-.365-.107-.723-.239c-.134-.05.063.126.035.052s-.068-.162-.105-.242a12.1,12.1,0,0,0-2.02-2.791c-2.09-2.339-4.422-4.493-6.623-6.729l-1.032-1.05a.143.143,0,0,0-.237.138q1.679,5.054,3.393,10.1c.687,2.019,1.373,4.04,2.1,6.045.1.283.207.565.315.845.043.112.094.2.059.233a9.736,9.736,0,0,1-.8.584,18.174,18.174,0,0,1-3.432,1.73,40.873,40.873,0,0,1-8.518,2.242,34.346,34.346,0,0,1-8.07.492,12.67,12.67,0,0,1-1.486-.2c-.178-.035-1.119-.168-1.183-.362q-.447-1.343-.891-2.688c-.879-2.65-1.768-5.3-2.685-7.934-.722-2.077-1.461-4.149-2.247-6.2a39.757,39.757,0,0,0-1.862-4.358.141.141,0,0,0-.194-.051c-3.264,2.284-6.319,4.848-9.576,7.139a18.164,18.164,0,0,1-6.484,3.039c-2.306.512-4.006-.637-5.258-2.523-1.764-2.657-2.635-5.941-3.63-8.945q-1.68-5.074-3.239-10.187c-.053-.174-.327-.1-.273.075,1.355,4.422,2.745,8.838,4.259,13.208.929,2.682,1.893,5.8,4.1,7.723a4.852,4.852,0,0,0,4.728.766,20.056,20.056,0,0,0,6.254-3.139c3.141-2.229,6.1-4.7,9.255-6.912l-.194-.051a51.5,51.5,0,0,1,2.584,6.294c1.025,2.79,1.99,5.6,2.94,8.419.719,2.132,1.422,4.269,2.132,6.4.17.511,1.6.608,2.046.672a20.5,20.5,0,0,0,3.305.153,44.451,44.451,0,0,0,10.323-1.527c2.9-.763,6.034-1.786,8.379-3.736a.136.136,0,0,0,.037-.138c-1.27-3.093-2.246-6.329-3.317-9.495q-1.314-3.888-2.608-7.783l-.237.138q2.4,2.449,4.819,4.887c1.2,1.212,2.454,2.386,3.536,3.708a7.691,7.691,0,0,1,1.361,2.115c.1.284,1.035.409,1.268.472a10.207,10.207,0,0,0,3.191.388,3.73,3.73,0,0,0,2.757-1.243,5.185,5.185,0,0,0,.878-3.875,9.172,9.172,0,0,0-2.07-4.207,36.716,36.716,0,0,0-4.075-4.226c-2.136-2-4.194-4.074-6.329-6.072a31.839,31.839,0,0,0-6.649-5.214c-2.669-1.4-5.621-.261-8.4.05-.593.066-.67-.364-.809-.85-.3-1.053-.605-2.1-.957-3.138a.143.143,0,0,0-.208-.085A12.292,12.292,0,0,1,426.2,151.6a5.256,5.256,0,0,1-2.1-.27c-.106-.042-.2.079-.174.174.125.5.231,1.013.332,1.522.139.7.523,1.722-.076,2.306a2.859,2.859,0,0,1-1.947.418c-.756-.007-1.5-.15-2.257-.153-2.927-.012-5.579,1.8-7.82,3.487-2.886,2.173-5.6,4.766-8.786,6.507-.112.061-.612.363-.693.218-.12-.214-.221-.441-.326-.663-.427-.9-.837-1.806-1.249-2.712q-2.129-4.683-4.211-9.388c-.048-.108-.189-.075-.244,0-1.438,1.932-4.468,3.487-6.919,2.845A.142.142,0,0,0,389.656,156.167Z" transform="translate(-389.55 -149.753)" fill="#f2ac30"/>
                </g>
              </g>
              <g id="Grupo_888505" data-name="Grupo 888505" transform="translate(0.714 16.126)" opacity="0.22">
                <path id="Trazado_622213" data-name="Trazado 622213" d="M370.131,132.732a1.29,1.29,0,0,1-.993-.379,1.406,1.406,0,0,1-.025-1.645,4.078,4.078,0,0,1,2.922-2,.878.878,0,0,0,.622-.47c.272-.545.114-1.553-.444-2.836-.7-1.617-1.309-3.013-1.889-3.193a.613.613,0,0,0-.553.013c-.215.153-.334.6-.353,1.319-.041,1.532-.527,1.882-1.065,2.13a.934.934,0,0,1-.817,0,2.057,2.057,0,0,1-.911-1.34,10.607,10.607,0,0,0-.575,1.019c-.363.706-.68,1.322-1.3,1.449a1.344,1.344,0,0,1-.606,1.419.922.922,0,0,1-1.068-.306.142.142,0,1,1,.212-.188.649.649,0,0,0,.742.235c.26-.115.509-.508.427-1.266a.142.142,0,0,1,.129-.156c.559-.045.847-.606,1.213-1.316a9.09,9.09,0,0,1,.769-1.3.14.14,0,0,1,.141-.054.142.142,0,0,1,.11.1c.245.98.592,1.327.84,1.446a.662.662,0,0,0,.576-.007c.488-.225.864-.506.9-1.881.023-.838.173-1.328.472-1.541a.9.9,0,0,1,.8-.053c.671.209,1.2,1.351,2.065,3.351.418.963.834,2.278.437,3.075a1.159,1.159,0,0,1-.81.619,3.826,3.826,0,0,0-2.74,1.858,1.139,1.139,0,0,0-.014,1.318c.352.387,1.114.379,2.036-.021a5.12,5.12,0,0,0,2.639-2.286.142.142,0,0,1,.26.113A5.3,5.3,0,0,1,371.5,132.4,3.52,3.52,0,0,1,370.131,132.732Z" transform="translate(-363.039 -121.872)"/>
              </g>
              <g id="Grupo_898294" data-name="Grupo 898294" transform="translate(9.484 27.852)" opacity="0.17">
                <g id="Grupo_888506" data-name="Grupo 888506" transform="translate(0 3.958)">
                  <path id="Trazado_622214" data-name="Trazado 622214" d="M395.438,180.009a3.53,3.53,0,0,1-1.35-.251.142.142,0,0,1,.107-.262,4.1,4.1,0,0,0,2.624.034,6.635,6.635,0,0,0,2.93-1.423c.053-.054.117-.113.182-.173a2.563,2.563,0,0,0,.536-.617.142.142,0,1,1,.247.138,2.812,2.812,0,0,1-.592.687c-.063.058-.123.114-.18.17a6.9,6.9,0,0,1-3.055,1.492A5.758,5.758,0,0,1,395.438,180.009Z" transform="translate(-394 -177.244)"/>
                </g>
                <g id="Grupo_888515" data-name="Grupo 888515" transform="translate(34.004)">
                  <path id="Trazado_622223" data-name="Trazado 622223" d="M516.222,166.033a2.906,2.906,0,0,1-.536-.046,5.946,5.946,0,0,1-.711-.166,4.739,4.739,0,0,0-.8-.173.142.142,0,0,1,.028-.282,5.03,5.03,0,0,1,.845.182,5.766,5.766,0,0,0,.682.16,3.176,3.176,0,0,0,.858.025,3.374,3.374,0,0,1,.4-.005,2.716,2.716,0,0,0,.509-.02,7.939,7.939,0,0,0,1.8-.619,11.788,11.788,0,0,0,1.5-.776c.286-.182.575-.366.858-.572.148-.124.311-.287.455-.431a.142.142,0,1,1,.2.2c-.148.148-.316.316-.482.455-.3.216-.59.4-.874.583a12.066,12.066,0,0,1-1.545.8,8.166,8.166,0,0,1-1.87.64,2.969,2.969,0,0,1-.563.024,3.156,3.156,0,0,0-.365,0C516.474,166.027,516.344,166.033,516.222,166.033Z" transform="translate(-514.049 -163.268)"/>
                </g>
                <g id="Grupo_888517" data-name="Grupo 888517" transform="translate(48.773 10.24)">
                  <path id="Trazado_622225" data-name="Trazado 622225" d="M569.255,201.864a.158.158,0,0,1-.073-.018,3.189,3.189,0,0,1-.73-.578c-.084-.081-.169-.163-.257-.241a5.706,5.706,0,0,0-.837-.59l-1.095-.7a.171.171,0,0,1-.052-.232.161.161,0,0,1,.225-.054l1.09.7a5.98,5.98,0,0,1,.88.622c.093.083.182.167.269.252a2.9,2.9,0,0,0,.652.522.171.171,0,0,1,.073.226A.163.163,0,0,1,569.255,201.864Z" transform="translate(-566.187 -199.422)"/>
                </g>
              </g>
              <g id="Grupo_888518" data-name="Grupo 888518" transform="translate(66.428 53.636)">
                <path id="Trazado_622226" data-name="Trazado 622226" d="M597.008,259.5a.142.142,0,0,1-.133-.092l-1.829-4.916a.142.142,0,1,1,.266-.1l1.829,4.916a.142.142,0,0,1-.083.182A.139.139,0,0,1,597.008,259.5Z" transform="translate(-595.037 -254.297)"/>
              </g>
              <g id="Grupo_888519" data-name="Grupo 888519" transform="translate(46.425 61.776)">
                <path id="Trazado_622227" data-name="Trazado 622227" d="M528.484,287.75a37.746,37.746,0,0,1-3.941-.2.142.142,0,0,1-.126-.156.139.139,0,0,1,.156-.126c7.644.8,16.233-.847,21.883-4.209a.142.142,0,0,1,.145.244C541.858,286.122,535.067,287.75,528.484,287.75Z" transform="translate(-524.416 -283.037)"/>
              </g>
              <g id="Grupo_888520" data-name="Grupo 888520" transform="translate(62.732 64.765)">
                <path id="Trazado_622228" data-name="Trazado 622228" d="M587.775,299.948a3.5,3.5,0,0,1-1.367-.288c-2.095-.886-3.757-3.674-4.416-5.889a.142.142,0,0,1,.272-.081c.66,2.222,2.334,4.9,4.254,5.708a3.128,3.128,0,0,0,2.78-.13.142.142,0,1,1,.131.251A3.547,3.547,0,0,1,587.775,299.948Z" transform="translate(-581.986 -293.589)"/>
              </g>
              <g id="Grupo_888521" data-name="Grupo 888521" transform="translate(67.372 62.642)">
                <path id="Trazado_622229" data-name="Trazado 622229" d="M602.05,298.174a.142.142,0,0,1-.141-.128,39.2,39.2,0,0,0-3.525-11.748.142.142,0,0,1,.253-.127,39.494,39.494,0,0,1,3.554,11.848.142.142,0,0,1-.128.154Z" transform="translate(-598.369 -286.093)"/>
              </g>
              <g id="Grupo_888522" data-name="Grupo 888522" transform="translate(1.153 17.347)" opacity="0.32">
                <path id="Trazado_622230" data-name="Trazado 622230" d="M365.728,129.9a.929.929,0,0,1-.709-.341,2.2,2.2,0,0,1-.426-1.153,4.113,4.113,0,0,1,.689-2.157.142.142,0,1,1,.243.146,3.847,3.847,0,0,0-.648,2,1.913,1.913,0,0,0,.367.987.622.622,0,0,0,.653.206.142.142,0,0,1,.083.271A.862.862,0,0,1,365.728,129.9Z" transform="translate(-364.59 -126.182)"/>
              </g>
              <g id="Grupo_888523" data-name="Grupo 888523" transform="translate(4.174 16.099)" opacity="0.32">
                <path id="Trazado_622231" data-name="Trazado 622231" d="M375.444,124.12a.142.142,0,0,1-.141-.126,14.251,14.251,0,0,1-.045-1.634c0-.152,0-.3,0-.442a.142.142,0,1,1,.283,0c0,.143,0,.293,0,.445a13.994,13.994,0,0,0,.044,1.6.142.142,0,0,1-.125.156Z" transform="translate(-375.254 -121.776)"/>
              </g>
              <g id="Grupo_888524" data-name="Grupo 888524" transform="translate(53.314 63.611)">
                <path id="Trazado_622232" data-name="Trazado 622232" d="M553.811,301.049a6.086,6.086,0,0,1-1.557-.233.141.141,0,0,1-.095-.094L548.745,289.7a.142.142,0,0,1,.271-.084l3.391,10.949a4.654,4.654,0,0,0,2.089.12c-.695-2.41-2.322-8.681-2.338-8.745a.142.142,0,1,1,.274-.071c.017.066,1.7,6.571,2.375,8.87a.142.142,0,0,1-.087.172A2.658,2.658,0,0,1,553.811,301.049Z" transform="translate(-548.738 -289.515)"/>
              </g>
            </g>
            <g id="Grupo_888556" data-name="Grupo 888556" transform="translate(13.746 21.996)">
              <path id="Trazado_622233" data-name="Trazado 622233" d="M183.332,188.9a8.687,8.687,0,0,1-2.172.8,49.072,49.072,0,0,1-.869-5.2c3.166-1.161,4.719-2.255,5.558-4.667s-1.475-2.831-1.606-5.263c-.1-1.944.3-8.213-6.941-7.269s-13.057,11.169-10.12,14.263,5.611,3.513,5.558,4.3-2.831,5.086-2.989,5.3,1.992,4.457,4.195,5.348S188.366,196.978,183.332,188.9Z" transform="translate(-149.394 -160.234)" fill="#ffd4d4"/>
              <g id="Grupo_888527" data-name="Grupo 888527" transform="translate(1.235 56.529)">
                <path id="Trazado_622234" data-name="Trazado 622234" d="M111.344,370.745c-.315-4.562-.315-19.427,8.416-25.877a6.17,6.17,0,0,0,1.285-2.2c3.906,1.022,13.922,3.7,18.352,3.461A24.1,24.1,0,0,1,137.4,349.9l1.389,20.764-11.4.236-2.28-3.618.314,3.461Z" transform="translate(-111.098 -342.525)" fill="#222b5a"/>
                <g id="Grupo_888526" data-name="Grupo 888526">
                  <path id="Trazado_622235" data-name="Trazado 622235" d="M111.1,370.387a44.594,44.594,0,0,1,1.176-13.784,25.35,25.35,0,0,1,3.494-8.11,16.536,16.536,0,0,1,3.008-3.335,5.7,5.7,0,0,0,1.308-1.294,7.8,7.8,0,0,0,.693-1.47l.017-.047-.174.1c2.982.781,5.967,1.548,8.979,2.2a37.169,37.169,0,0,0,9.411,1.264l-.137-.179a19.766,19.766,0,0,1-1.934,3.672c-.113.179-.045.418-.032.621q.149,2.226.3,4.45.435,6.513.872,13.027l.188,2.807.142-.142-8.737.181-1.986.041-.539.011c-.242,0,0,.106-.069,0l-2.232-3.541c-.07-.111-.277-.077-.264.071l.314,3.461.142-.142H110.956a.142.142,0,0,0,0,.283h14.079a.142.142,0,0,0,.142-.142l-.314-3.461L124.6,367l2.231,3.541c.129.2.316.144.538.14l1.944-.04,9.094-.188a.143.143,0,0,0,.142-.142q-.677-10.119-1.354-20.237-.014-.213-.029-.427c-.011-.166-.04,0,.093-.216a19.685,19.685,0,0,0,1.888-3.621.142.142,0,0,0-.137-.179,37.036,37.036,0,0,1-9.335-1.254c-3.014-.649-6-1.422-8.98-2.2a.144.144,0,0,0-.174.1,8.779,8.779,0,0,1-.595,1.3,6.321,6.321,0,0,1-1.618,1.612,16.832,16.832,0,0,0-2.784,3.164,25.054,25.054,0,0,0-3.436,7.842,44.227,44.227,0,0,0-1.293,13.881c.006.1.013.209.02.314C110.827,370.568,111.11,370.569,111.1,370.387Z" transform="translate(-110.711 -342.166)" fill="#222b5a"/>
                </g>
              </g>
              <g id="Grupo_888531" data-name="Grupo 888531" transform="translate(30.706 22.622)">
                <path id="Trazado_622238" data-name="Trazado 622238" d="M216.178,229.577c2.337-.566,3.34-1.347,4.886-1.5.525-1.678-1.232-4.562-2.464-5.086a9.99,9.99,0,0,1-3.356,1.495C215.612,226.957,216.178,229.577,216.178,229.577Z" transform="translate(-215.106 -222.837)" fill="#12263f"/>
                <g id="Grupo_888530" data-name="Grupo 888530">
                  <path id="Trazado_622239" data-name="Trazado 622239" d="M215.865,229.336c1.63-.409,3.175-1.3,4.849-1.5a.146.146,0,0,0,.137-.1c.407-1.508-.488-3.181-1.412-4.317-.142-.174-.955-1.127-1.26-.929a9.626,9.626,0,0,1-3.322,1.48.144.144,0,0,0-.1.174q.385,2.561.933,5.1c.038.179.311.1.273-.075q-.545-2.532-.933-5.1l-.1.174a7.011,7.011,0,0,0,1.422-.452c.289-.125.572-.258.853-.4.147-.074.956-.664,1.075-.608a5.176,5.176,0,0,1,2.1,2.831,3.983,3.983,0,0,1,.272,1.641c-.029.5-.851.459-1.262.589-1.215.384-2.364.91-3.606,1.222A.142.142,0,0,0,215.865,229.336Z" transform="translate(-214.755 -222.46)" fill="#12263f"/>
                </g>
              </g>
              <g id="Grupo_888534" data-name="Grupo 888534">
                <path id="Trazado_622241" data-name="Trazado 622241" d="M128.471,161.557c.7,2.191,2.114,2.772,1.75-.5,6.174-3.7,6.39-8.78,5.525-10.55,3.815.511,6.371,2.242,5.781,6.567,4.051-1.061,3.776-7.9.275-9.162-.078-4.955-5.482-6.208-10.815-3.186-2.39,1.355-3.24,3.007-6.5,4.281-3.821,1.5-5.146,6.373-5.146,10.48,0,6.249-.037,9.306-4.952,13.12s-9.529,8.658-6.685,14.669a5.948,5.948,0,0,0,5.505,3.421c-1.062,4.916,1.966,7.825,4.877,7.629,0,0,.826-10.225,1.888-14.708s3.146-6.332,6.646-8.1,4.4-2.394,4.051-5.781a37.826,37.826,0,0,0-.747-4.6c-3.107,1.3-4.649-.5-4.995-1.809C124.382,161.243,127.253,159.631,128.471,161.557Z" transform="translate(-106.698 -142.955)" fill="#12263f"/>
                <g id="Grupo_888533" data-name="Grupo 888533">
                  <path id="Trazado_622242" data-name="Trazado 622242" d="M127.986,161.236c.163.49,1.087,2.7,1.857,1.629a1.632,1.632,0,0,0,.206-.736,4.785,4.785,0,0,0,.019-.726c-.012-.552.036-.673.507-.978a14.3,14.3,0,0,0,2.829-2.4c1.762-1.947,3.349-5.324,2.115-7.943l-.16.208A8.017,8.017,0,0,1,139.738,152a5.256,5.256,0,0,1,1.3,4.713.142.142,0,0,0,.179.137c2.209-.623,3.158-2.85,3.063-5a5.836,5.836,0,0,0-1-3.04,4.124,4.124,0,0,0-.957-.967,3.355,3.355,0,0,0-.676-.371c-.13-.056-.111-.7-.136-.869-.4-2.684-2.83-4-5.351-4.011-3.287-.018-6.034,1.79-8.474,3.784a14.579,14.579,0,0,1-2.071,1.427c-.817.46-1.72.729-2.525,1.208a7.653,7.653,0,0,0-2.76,3.14c-1.494,2.889-1.44,6.091-1.487,9.248-.042,2.8-.312,5.565-2,7.9a18.413,18.413,0,0,1-3.606,3.408,29.2,29.2,0,0,0-4.029,3.823,12.1,12.1,0,0,0-2.639,4.85,8.479,8.479,0,0,0,.669,5.609,6.049,6.049,0,0,0,5.628,3.492l-.137-.179a7.288,7.288,0,0,0,.963,5.841,4.755,4.755,0,0,0,4.05,1.968.145.145,0,0,0,.142-.142,124.622,124.622,0,0,1,1.653-13.6c.59-3.052,1.765-5.771,4.341-7.635a39.851,39.851,0,0,1,4.06-2.291,5.017,5.017,0,0,0,2.282-2.091c.568-1.221.287-2.755.127-4.028a32.82,32.82,0,0,0-.63-3.587.142.142,0,0,0-.174-.1c-1.777.707-3.9.583-4.719-1.4-.8-1.949,1.884-3.854,3.18-1.969.1.149.348.008.244-.143a2.156,2.156,0,0,0-3.857,1.555,3.219,3.219,0,0,0,1.4,2.181,4.1,4.1,0,0,0,3.825.052l-.174-.1a34.469,34.469,0,0,1,.652,3.766c.165,1.313.4,2.848-.34,4.034-.706,1.13-2.218,1.743-3.352,2.321a17.527,17.527,0,0,0-3.6,2.3c-2.175,1.886-3.072,4.614-3.592,7.358-.53,2.8-.844,5.637-1.143,8.466-.173,1.636-.331,3.274-.464,4.914l.142-.142a4.515,4.515,0,0,1-3.73-1.731,6.829,6.829,0,0,1-1.01-5.719.143.143,0,0,0-.137-.179,5.8,5.8,0,0,1-5.19-2.974c-2.018-3.522-.8-7.382,1.6-10.328a27.254,27.254,0,0,1,3.99-3.846,22.772,22.772,0,0,0,3.606-3.319,11.758,11.758,0,0,0,2.22-7.024c.153-3.14-.1-6.208.977-9.229a8.678,8.678,0,0,1,2.47-3.719,7.966,7.966,0,0,1,2.162-1.187,12.26,12.26,0,0,0,2.277-1.288c1.162-.819,2.174-1.824,3.381-2.584a11.912,11.912,0,0,1,5.07-1.783,6.157,6.157,0,0,1,4.064.88,4.535,4.535,0,0,1,1.823,3.756.146.146,0,0,0,.1.137c3.582,1.369,3.476,7.83-.275,8.889l.179.137A5.681,5.681,0,0,0,140.139,152a7.7,7.7,0,0,0-4.7-1.992.143.143,0,0,0-.16.208,6.01,6.01,0,0,1-.112,4.375,12.008,12.008,0,0,1-5.362,5.982.14.14,0,0,0-.07.122c.035.349.287,2.116-.336,2.158-.58.039-1.013-1.325-1.136-1.695C128.2,160.988,127.928,161.062,127.986,161.236Z" transform="translate(-106.349 -142.597)" fill="#32015c"/>
                </g>
              </g>
              <path id="Trazado_622258" data-name="Trazado 622258" d="M194.825,412.751c.322-.515-.23-1.314-.511-1.612a4.508,4.508,0,0,0-3.316-1.73,20.484,20.484,0,0,1-2.517.105c-.951-.215-1.337-6.869-1.337-6.869-3.775.511-7.813,1.1-7.813,1.1s2.126,8.545,2.7,9.124a2.39,2.39,0,0,0,2.386.786,25.632,25.632,0,0,1,3.2-.577,6.189,6.189,0,0,1,2.674.315c.38.128.431.45,1.154.184.291-.108,1.01.3,1.311.209a3,3,0,0,0,.577-.393C193.41,413.275,194.275,413.628,194.825,412.751Z" transform="translate(-158.659 -328.985)" fill="#ffd4d4"/>
              <g id="Grupo_888547" data-name="Grupo 888547" transform="translate(11.042 27.538)">
                <path id="Trazado_622259" data-name="Trazado 622259" d="M146.139,267.45l-.314,1.888a12.218,12.218,0,0,0,5.663,1.94c.734,3.566,3.828,16.15,3.828,16.15,2.674.629,6.685-.053,7.944-.892-.052-3.933-1.546-13.109-1.966-13.9a6.8,6.8,0,0,0,2.884.158c1.153-3.514,2.569-7.341,3.093-8.81a3.675,3.675,0,0,1,2.307-2.622c1.259-.525,5.453-2.359,4.614-9.124,2.674.367,6.607,1,6.607,1l-.1-11.221s-6.765-3.356-12.532-.525c1.783,1.678,1.206,4.615-2.045,6.188s-7.656.21-10.225-2.936a11.194,11.194,0,0,0-8.023,8.757C146.821,258.9,146.139,267.45,146.139,267.45Z" transform="translate(-145.685 -240.206)" fill="#ee4e5d"/>
                <g id="Grupo_888546" data-name="Grupo 888546">
                  <path id="Trazado_622260" data-name="Trazado 622260" d="M145.65,267.025l-.314,1.888a.15.15,0,0,0,.065.16,7.983,7.983,0,0,0,1.522.843,13.388,13.388,0,0,0,1.692.617c.236.07,2.391.435,2.4.474.405,1.958.878,3.9,1.339,5.849q1.213,5.117,2.472,10.222a.14.14,0,0,0,.1.1,13.612,13.612,0,0,0,7.084-.457,4.521,4.521,0,0,0,.969-.449c.184-.116.054-.708.045-.892-.046-1-.143-2-.25-2.993-.233-2.17-.545-4.333-.907-6.485-.141-.838-.292-1.675-.469-2.507a5.175,5.175,0,0,0-.335-1.213l-.16.208a6.949,6.949,0,0,0,2.959.158c.125-.029.156-.272.178-.339q.239-.726.487-1.45.442-1.3.9-2.6c.48-1.358.972-2.711,1.461-4.066a4.351,4.351,0,0,1,2.418-3,7.824,7.824,0,0,0,3.149-2.288,9.253,9.253,0,0,0,1.523-6.953l-.179.137c2.206.3,4.408.644,6.607,1a.144.144,0,0,0,.179-.137q-.052-5.611-.1-11.221a.14.14,0,0,0-.07-.122c-3.822-1.883-8.777-2.382-12.675-.525a.143.143,0,0,0-.029.223,3.036,3.036,0,0,1,.586,3.613,5.847,5.847,0,0,1-3.79,2.781c-3.266.874-6.794-.862-8.865-3.344a.139.139,0,0,0-.138-.037,11.941,11.941,0,0,0-5.275,3.2,12.928,12.928,0,0,0-3.112,7.133c-.7,4.137-1.136,8.332-1.47,12.513-.014.182.269.181.283,0,.152-1.9.344-3.8.554-5.7.191-1.728.406-3.453.659-5.172a25.633,25.633,0,0,1,1.038-4.934,11.062,11.062,0,0,1,6.254-6.37c.253-.1.512-.2.772-.282.4-.132.527.2.791.475a10.191,10.191,0,0,0,1.954,1.57,9.474,9.474,0,0,0,4.353,1.425,6.779,6.779,0,0,0,5.785-2.411,3.425,3.425,0,0,0-.179-4.66l-.029.222a14.093,14.093,0,0,1,10.126-.33,15.867,15.867,0,0,1,2.213.83c.016.008-.021-.178-.019.085s.005.551.008.826q.048,5.106.1,10.212l.179-.137c-2.2-.352-4.4-.692-6.607-1-.08-.011-.191.035-.179.137a8.974,8.974,0,0,1-1.6,6.944,8.843,8.843,0,0,1-3.288,2.211,3.818,3.818,0,0,0-1.882,2.156c-.464,1.109-.829,2.273-1.235,3.4q-.866,2.411-1.688,4.839c-.032.095-.247.871-.252.872a3.281,3.281,0,0,1-.418.053,8.062,8.062,0,0,1-2.359-.218.143.143,0,0,0-.16.208,8.379,8.379,0,0,1,.493,2.075c.25,1.3.458,2.612.653,3.923.226,1.521.423,3.047.58,4.578q.1.954.163,1.911c.019.279.033.558.044.837.015.381.023.435-.325.6a12.03,12.03,0,0,1-4.849.893c-.418.009-.836-.009-1.253-.039-.134-.01-1.233-.133-1.225-.1l-.089-.364q-.687-2.8-1.363-5.6c-.818-3.387-1.669-6.772-2.376-10.185a.145.145,0,0,0-.137-.1,13.232,13.232,0,0,1-5.205-1.666c-.114-.068-.225-.141-.334-.217s.035,0,.016.11l.043-.258.269-1.618C145.952,266.921,145.68,266.845,145.65,267.025Z" transform="translate(-145.332 -239.818)" fill="#495edb"/>
                </g>
              </g>
              <g id="Grupo_898298" data-name="Grupo 898298" opacity="0.26">
                <g id="Grupo_888528" data-name="Grupo 888528" transform="translate(10.306 58.679)">
                  <path id="Trazado_622236" data-name="Trazado 622236" d="M150.373,353.184l-.024,0c-3.221-.555-6.194-1.805-7.575-3.186a.142.142,0,0,1,.2-.2c1.342,1.342,4.256,2.561,7.423,3.107a.142.142,0,0,1-.024.281Z" transform="translate(-142.733 -349.755)"/>
                </g>
                <g id="Grupo_888551" data-name="Grupo 888551" transform="translate(14.894 77.79)">
                  <path id="Trazado_622264" data-name="Trazado 622264" d="M159.256,421.1a.142.142,0,0,1-.141-.134l-.183-3.592a.142.142,0,1,1,.283-.014l.183,3.592a.141.141,0,0,1-.134.148Z" transform="translate(-158.931 -417.227)"/>
                </g>
                <g id="Grupo_888552" data-name="Grupo 888552" transform="translate(14.972 78.552)">
                  <path id="Trazado_622265" data-name="Trazado 622265" d="M159.348,420.721a.142.142,0,0,1-.03-.28l2.387-.525a.142.142,0,1,1,.061.276l-2.387.525A.139.139,0,0,1,159.348,420.721Z" transform="translate(-159.206 -419.912)"/>
                </g>
              </g>
              <g id="Grupo_898299" data-name="Grupo 898299" opacity="0.37">
                <g id="Grupo_888553" data-name="Grupo 888553" transform="translate(28.553 82.17)">
                  <path id="Trazado_622266" data-name="Trazado 622266" d="M211.465,435.174a.142.142,0,0,1-.042-.277c.034-.01.042-.025.047-.039a1,1,0,0,0-.2-.586,3.372,3.372,0,0,0-2.106-1.249,3.741,3.741,0,0,0-1.069-.025,4.018,4.018,0,0,0-.5.1c-.089.021-.178.041-.266.059a.142.142,0,0,1-.055-.278c.086-.017.171-.037.257-.057a4.288,4.288,0,0,1,.543-.1,4.025,4.025,0,0,1,1.145.029,3.665,3.665,0,0,1,2.287,1.366c.039.059.346.535.236.844a.34.34,0,0,1-.23.215A.145.145,0,0,1,211.465,435.174Z" transform="translate(-207.155 -432.689)"/>
                </g>
                <g id="Grupo_888554" data-name="Grupo 888554" transform="translate(29.837 81.184)">
                  <path id="Trazado_622267" data-name="Trazado 622267" d="M216.235,432.7a.142.142,0,0,1-.063-.269c.21-.105.3-.206.316-.361a1,1,0,0,0-.018-.589,2.736,2.736,0,0,0-.855-1.126,3.926,3.926,0,0,0-1.266-.707,2.4,2.4,0,0,0-1.315-.123c-.2.014-.4.047-.591.078s-.4.066-.6.08a.14.14,0,0,1-.151-.132.142.142,0,0,1,.132-.151c.189-.013.385-.045.574-.077a6.041,6.041,0,0,1,.605-.08,2.648,2.648,0,0,1,1.451.14,4.164,4.164,0,0,1,1.356.763,2.945,2.945,0,0,1,.932,1.246,1.251,1.251,0,0,1,.027.727.733.733,0,0,1-.468.564A.139.139,0,0,1,216.235,432.7Z" transform="translate(-211.689 -429.206)"/>
                </g>
              </g>
              <path id="Trazado_622268" data-name="Trazado 622268" d="M294.733,169.987l-.708-2.832s1.834-4.771,2.831-4.929a1.96,1.96,0,0,0,1.783-2.569c-.367-1.783-1.259-1.363-1.259-1.363-.891-1.521-1.678-1.415-2.2-1.153-1.416-1.888-4.457-2.15-6.135.944s-1.1,9.019.053,15.94C290.879,172.818,294.733,169.987,294.733,169.987Z" transform="translate(-236.544 -152.014)" fill="#ffd4d4"/>
              <g id="Grupo_898297" data-name="Grupo 898297" opacity="0.31">
                <g id="Grupo_888548" data-name="Grupo 888548" transform="translate(14.396 48.401)">
                  <path id="Trazado_622261" data-name="Trazado 622261" d="M159.621,323.821a.141.141,0,0,1-.139-.114c-.87-4.3-1.817-8.434-2.3-10.055a.142.142,0,0,1,.271-.081c.488,1.628,1.438,5.774,2.31,10.08a.142.142,0,0,1-.111.167A.135.135,0,0,1,159.621,323.821Z" transform="translate(-157.173 -313.47)"/>
                </g>
                <g id="Grupo_888549" data-name="Grupo 888549" transform="translate(24.515 46.094)">
                  <path id="Trazado_622262" data-name="Trazado 622262" d="M195.191,319.608a.142.142,0,0,1-.139-.115,6.951,6.951,0,0,0-.511-1.368,19.717,19.717,0,0,1-.955-2.5,35.011,35.011,0,0,1-.506-6.418c-.042-1.5-.081-2.907-.181-3.726a.141.141,0,0,1,.123-.158.14.14,0,0,1,.158.124c.1.832.141,2.25.183,3.752a35.044,35.044,0,0,0,.494,6.345,19.452,19.452,0,0,0,.942,2.464,7.1,7.1,0,0,1,.53,1.43.142.142,0,0,1-.113.165Z" transform="translate(-192.899 -305.324)"/>
                </g>
                <g id="Grupo_888550" data-name="Grupo 888550" transform="translate(39.145 37.075)">
                  <path id="Trazado_622263" data-name="Trazado 622263" d="M245,276.34a.142.142,0,0,1-.141-.127c0-.015-.159-1.53-.314-2.563a.142.142,0,0,1,.28-.042c.156,1.04.314,2.561.316,2.576a.142.142,0,0,1-.126.156Z" transform="translate(-244.547 -273.487)"/>
                </g>
                <g id="Grupo_888555" data-name="Grupo 888555" transform="translate(20.814 31.12)">
                  <path id="Trazado_622269" data-name="Trazado 622269" d="M187.616,258.669a11.477,11.477,0,0,1-7.738-2.986.142.142,0,1,1,.189-.211,11.212,11.212,0,0,0,8.265,2.889,7.06,7.06,0,0,0,4.645-1.777,6.954,6.954,0,0,0,1.441-3.987.148.148,0,0,1,.146-.137.142.142,0,0,1,.136.146,7.106,7.106,0,0,1-1.507,4.159,7.335,7.335,0,0,1-4.843,1.877C188.131,258.659,187.885,258.669,187.616,258.669Z" transform="translate(-179.832 -252.462)"/>
                </g>
              </g>
            </g>
            <g id="Grupo_888560" data-name="Grupo 888560" transform="translate(65.151 25.696)">
              <path id="Trazado_622270" data-name="Trazado 622270" d="M295.131,175.881a1.046,1.046,0,0,1-.338-1.95l4.518-3.765a1.045,1.045,0,0,1,1.857.684l1,5.795c.186,1.073-.5,1.643-1.521,1.268Z" transform="translate(-292.433 -165.789)" fill="#7db3db"/>
              <path id="Trazado_622271" data-name="Trazado 622271" d="M313.664,168.673c.053.938.6,1.147.99.913-.156,1.042.782,1.251,1.043,1.016s-.078-3.284-1.9-3.049A1.884,1.884,0,0,0,313.664,168.673Z" transform="translate(-306.323 -164.174)" fill="#ffd4d4"/>
              <path id="Trazado_622272" data-name="Trazado 622272" d="M293.358,155.791c-2.386-.664-4.614,1.212-5.318,4.771a22,22,0,0,0-.021,5.952,8.987,8.987,0,0,1,1.166.189l.145-2.778c.665.2,3.6.587,4.028-1.016s-1.486-2.112-3.206-1.486c.2-.86.625-2.307,1.72-2.7s1.76,2.424,3.011,1.72S295.743,156.457,293.358,155.791Z" transform="translate(-287.829 -155.659)" fill="#ffd4d4"/>
              <g id="Grupo_898300" data-name="Grupo 898300">
                <g id="Grupo_888557" data-name="Grupo 888557" transform="translate(1.36 1.183)" opacity="0.27">
                  <path id="Trazado_622273" data-name="Trazado 622273" d="M294.355,167.247a6.505,6.505,0,0,1-1.622-.195.142.142,0,0,1,.08-.272,5.264,5.264,0,0,0,3.232-.158,1.222,1.222,0,0,0,.619-.759,1.065,1.065,0,0,0-.264-1.142,2.889,2.889,0,0,0-2.757-.175.142.142,0,0,1-.187-.165c.359-1.577.951-2.493,1.811-2.8.609-.218,1.07.358,1.518.914.55.684.949,1.11,1.472.817a1.268,1.268,0,0,0,.561-.857,3.2,3.2,0,0,0-.5-2.4.142.142,0,1,1,.235-.159,3.5,3.5,0,0,1,.538,2.625,1.539,1.539,0,0,1-.7,1.038c-.769.433-1.334-.267-1.831-.886-.4-.5-.784-.973-1.2-.825-.718.257-1.233,1.027-1.571,2.35a3.043,3.043,0,0,1,2.8.314,1.332,1.332,0,0,1,.347,1.423,1.5,1.5,0,0,1-.754.933A3.862,3.862,0,0,1,294.355,167.247Z" transform="translate(-292.631 -159.834)"/>
                </g>
                <g id="Grupo_888558" data-name="Grupo 888558" transform="translate(7.187 2.289)" opacity="0.27">
                  <path id="Trazado_622274" data-name="Trazado 622274" d="M313.926,167.091a.718.718,0,0,1-.124-.01c-.209-.037-.563-.2-.6-.914a.142.142,0,0,1,.283-.015c.014.27.09.6.368.65.407.07,1.123-.463,1.471-1.285a1.978,1.978,0,0,0-.13-1.573.142.142,0,1,1,.255-.122,2.263,2.263,0,0,1-1.522,3.27Z" transform="translate(-313.2 -163.741)"/>
                </g>
                <g id="Grupo_888559" data-name="Grupo 888559" transform="translate(8.211 5.23)" opacity="0.27">
                  <path id="Trazado_622275" data-name="Trazado 622275" d="M317.647,175.533a.8.8,0,0,1-.526-.184,1.12,1.12,0,0,1-.271-1.108.142.142,0,1,1,.278.053.86.86,0,0,0,.176.84.632.632,0,0,0,.637.061.141.141,0,1,1,.1.266A1.134,1.134,0,0,1,317.647,175.533Z" transform="translate(-316.816 -174.125)"/>
                </g>
              </g>
            </g>
            <g id="Grupo_888571" data-name="Grupo 888571" transform="translate(59.116 31.866)">
              <path id="Trazado_622276" data-name="Trazado 622276" d="M320.087,190.509l-21.06-12.159a8.461,8.461,0,0,0-7.628,0l-21.06,12.159a8.463,8.463,0,0,0-3.814,6.607v24.318a8.463,8.463,0,0,0,3.814,6.607L291.4,240.2a8.459,8.459,0,0,0,7.628,0l21.06-12.158a8.463,8.463,0,0,0,3.814-6.607V197.116A8.463,8.463,0,0,0,320.087,190.509Z" transform="translate(-266.525 -177.442)" fill="#def2ff"/>
              <g id="Grupo_888567" data-name="Grupo 888567" transform="translate(14.571 12.616)">
                <g id="Grupo_888562" data-name="Grupo 888562">
                  <path id="Trazado_622277" data-name="Trazado 622277" d="M347.089,236.854a14.367,14.367,0,1,0-20.523,12.984c1.57.954,1.574,2.192,1.506,4.4-.057,1.862-.183,3.361.674,4.149a6.844,6.844,0,0,0,7.95,0c.858-.788.732-2.288.674-4.149-.068-2.211-.064-3.45,1.505-4.4A14.369,14.369,0,0,0,347.089,236.854Z" transform="translate(-318.245 -222.344)" fill="#f2ac30"/>
                  <g id="Grupo_888561" data-name="Grupo 888561">
                    <path id="Trazado_622278" data-name="Trazado 622278" d="M346.954,236.493a14.506,14.506,0,1,0-22.315,12.231,19.274,19.274,0,0,1,2.115,1.266,2.933,2.933,0,0,1,.9,2.092c.141,1.665-.284,3.389.127,5.028.333,1.323,1.766,1.9,2.963,2.166,2.022.447,5.617.233,6.368-2.166.743-2.374-1.13-6.21,1.742-7.6a14.636,14.636,0,0,0,8.1-13.019.142.142,0,0,0-.283,0,14.243,14.243,0,0,1-7.961,12.774,3.2,3.2,0,0,0-1.755,2.815c-.145,1.713.474,3.77-.28,5.378-.8,1.711-3.647,1.8-5.21,1.646a5.182,5.182,0,0,1-2.677-.968,2.914,2.914,0,0,1-.89-2.387c-.048-1.572.318-3.265-.17-4.8-.432-1.357-1.854-1.788-2.946-2.477a14.226,14.226,0,1,1,21.888-11.986A.142.142,0,0,0,346.954,236.493Z" transform="translate(-317.968 -221.983)" fill="#f2ac30"/>
                  </g>
                </g>
                <g id="Grupo_888564" data-name="Grupo 888564" transform="translate(9.581 29.749)">
                  <path id="Trazado_622279" data-name="Trazado 622279" d="M361.877,327.505a21.718,21.718,0,0,1-9.343,0,15.517,15.517,0,0,1,.022,2.008c-.057,1.862-.183,3.361.674,4.149a6.844,6.844,0,0,0,7.95,0c.858-.788.732-2.288.674-4.149A15.567,15.567,0,0,1,361.877,327.505Z" transform="translate(-352.31 -327.365)" fill="#32015c"/>
                  <g id="Grupo_888563" data-name="Grupo 888563">
                    <path id="Trazado_622280" data-name="Trazado 622280" d="M361.323,327.013a21.9,21.9,0,0,1-9.268,0,.143.143,0,0,0-.179.137c.164,1.832-.469,4.009.34,5.731.715,1.523,3.024,1.821,4.474,1.841,1.548.022,3.637-.369,4.474-1.841a4.679,4.679,0,0,0,.358-2.287c0-1.148-.121-2.3-.019-3.444.016-.182-.267-.18-.283,0-.152,1.7.282,3.493-.137,5.163-.443,1.764-2.9,2.1-4.392,2.126-1.568.022-3.853-.4-4.392-2.126a7.49,7.49,0,0,1-.14-2.414,23.015,23.015,0,0,0,0-2.749l-.179.137a22.27,22.27,0,0,0,9.418,0C361.576,327.247,361.5,326.974,361.323,327.013Z" transform="translate(-351.794 -327.009)" fill="#32015c"/>
                  </g>
                </g>
                <g id="Grupo_888565" data-name="Grupo 888565" transform="translate(5.253 10.46)">
                  <path id="Trazado_622281" data-name="Trazado 622281" d="M344.057,279.3h-.01a.283.283,0,0,1-.273-.293,25.546,25.546,0,0,0-1.283-8.773,6.146,6.146,0,0,1-.915.041c-2.761-.081-4.342-1.533-4.856-2.752a1.812,1.812,0,0,1,.16-1.963c.271-.3.933-.723,2.319-.272,1.68.547,2.861,2.234,3.664,4.311a5.256,5.256,0,0,0,2.567-1.39,8.771,8.771,0,0,1-2.546-5.69c-.085-2.354,1.2-3.393,2.429-3.58a2.687,2.687,0,0,1,3.037,1.891c.457,1.686-.186,4.927-1.872,7.063q-.117.149-.239.288a5.76,5.76,0,0,0,.892.614,4.919,4.919,0,0,0,1.035.431c1.033-3.11,2.537-4.457,3.386-5a2.34,2.34,0,0,1,2.387-.168,1.884,1.884,0,0,1,1,1.652c.01.692-.331,2.058-2.719,3.435a5.39,5.39,0,0,1-3.655.749,27.614,27.614,0,0,0-.926,8.645.284.284,0,0,1-.276.291.289.289,0,0,1-.291-.276,28.506,28.506,0,0,1,.924-8.791,5.5,5.5,0,0,1-1.14-.476,6.275,6.275,0,0,1-1.007-.7,5.794,5.794,0,0,1-2.791,1.545,27.1,27.1,0,0,1,1.282,8.89A.283.283,0,0,1,344.057,279.3Zm-5.964-13.643a1.039,1.039,0,0,0-.8.287,1.276,1.276,0,0,0-.055,1.359c.449,1.064,1.858,2.333,4.351,2.406a5.52,5.52,0,0,0,.691-.022c-.766-1.912-1.841-3.4-3.261-3.86A3.052,3.052,0,0,0,338.093,265.66Zm10.647,3.693a4.911,4.911,0,0,0,3.2-.692c1.561-.9,2.449-1.971,2.435-2.936a1.307,1.307,0,0,0-.7-1.162,1.784,1.784,0,0,0-1.813.148C351.228,265.11,349.769,266.319,348.74,269.353Zm-3.014-9.875a2.177,2.177,0,0,0-.329.025c-.989.15-2.02,1.017-1.948,3a8.165,8.165,0,0,0,2.369,5.3c.076-.087.147-.173.214-.258a8.729,8.729,0,0,0,1.77-6.564A2.094,2.094,0,0,0,345.726,259.478Z" transform="translate(-336.513 -258.909)" fill="#32015c"/>
                </g>
                <g id="Grupo_888566" data-name="Grupo 888566" transform="translate(10.465 31.483)">
                  <path id="Trazado_622282" data-name="Trazado 622282" d="M358.779,333.9a13.288,13.288,0,0,1-3.762-.493.142.142,0,0,1,.08-.272,18,18,0,0,0,7.307.208.144.144,0,0,1,.158.123.142.142,0,0,1-.123.158A29.443,29.443,0,0,1,358.779,333.9Z" transform="translate(-354.915 -333.129)"/>
                </g>
              </g>
              <path id="Trazado_622283" data-name="Trazado 622283" d="M285.4,300.765a1.042,1.042,0,0,1-1.83-.736l-.822-5.8c-.152-1.075.546-1.622,1.553-1.216l5.436,2.189a1.043,1.043,0,0,1,.277,1.954Z" transform="translate(-278.141 -260.178)" fill="#d4336e"/>
              <g id="Grupo_888568" data-name="Grupo 888568" transform="translate(22.441 53.811)">
                <path id="Trazado_622284" data-name="Trazado 622284" d="M349.727,371.945a1.144,1.144,0,0,1-.484-.1,1.187,1.187,0,0,1-.614-1.229,2.161,2.161,0,0,1,1.3-1.848,3.9,3.9,0,0,1,.429-.194,3.571,3.571,0,0,0-2.037-.863,2.24,2.24,0,0,0-2.3,1.245.142.142,0,0,1-.254-.127,2.518,2.518,0,0,1,2.575-1.4,3.852,3.852,0,0,1,2.316,1.042,5.613,5.613,0,0,1,4.426.543.142.142,0,0,1-.155.237,5.3,5.3,0,0,0-4.053-.549,2.645,2.645,0,0,1,.525.915,1.727,1.727,0,0,1-.527,1.863A1.781,1.781,0,0,1,349.727,371.945Zm.853-3.154a3.837,3.837,0,0,0-.522.225,1.9,1.9,0,0,0-1.146,1.6.943.943,0,0,0,.45.966,1.3,1.3,0,0,0,1.322-.321,1.444,1.444,0,0,0,.445-1.565A2.432,2.432,0,0,0,350.579,368.792Z" transform="translate(-345.75 -367.417)" fill="#495edb"/>
              </g>
              <path id="Trazado_622285" data-name="Trazado 622285" d="M422.5,322.794a3.408,3.408,0,1,1-3.408-3.408A3.408,3.408,0,0,1,422.5,322.794Z" transform="translate(-373.43 -279.18)" fill="#7db3db"/>
              <path id="Trazado_622286" data-name="Trazado 622286" d="M426.7,230.971a1.651,1.651,0,0,1-2.314.315l-2.567-1.951a1.652,1.652,0,0,1-.315-2.315h0a1.652,1.652,0,0,1,2.315-.315l2.567,1.952a1.652,1.652,0,0,1,.315,2.315Z" transform="translate(-377.364 -212.509)" fill="#ffc4c4"/>
              <path id="Trazado_622287" data-name="Trazado 622287" d="M312.2,337.51a1.651,1.651,0,0,1,2.079,1.065l.989,3.069a1.651,1.651,0,0,1-1.066,2.078h0a1.651,1.651,0,0,1-2.079-1.065l-.989-3.069a1.652,1.652,0,0,1,1.066-2.078Z" transform="translate(-298.44 -292.112)" fill="#ffc4c4"/>
              <g id="Grupo_888569" data-name="Grupo 888569" transform="translate(6.857 16.98)">
                <path id="Trazado_622288" data-name="Trazado 622288" d="M293.116,242.156a2.383,2.383,0,1,1,2.383-2.383A2.386,2.386,0,0,1,293.116,242.156Zm0-4.483a2.1,2.1,0,1,0,2.1,2.1A2.1,2.1,0,0,0,293.116,237.672Z" transform="translate(-290.733 -237.389)" fill="#495edb"/>
              </g>
              <g id="Grupo_888570" data-name="Grupo 888570" transform="translate(20.238 4.911)">
                <path id="Trazado_622289" data-name="Trazado 622289" d="M339.635,200.662a5.705,5.705,0,0,1-1.557-.246.142.142,0,1,1,.078-.272,3.589,3.589,0,0,0,3.51-.474,7.931,7.931,0,0,0,.877-.778,2.868,2.868,0,0,1-1.21-1.112,2.557,2.557,0,0,1-.206-2.134,1.377,1.377,0,0,1,.968-.851,1.723,1.723,0,0,1,1.818.953c.527,1.051-.154,2.2-.878,3.027a2.518,2.518,0,0,0,1.058.066,2.9,2.9,0,0,0,2.382-2.136.142.142,0,0,1,.274.073,3.187,3.187,0,0,1-2.615,2.343,2.8,2.8,0,0,1-1.31-.114,8.773,8.773,0,0,1-.985.889A3.492,3.492,0,0,1,339.635,200.662Zm2.685-5.6a1.459,1.459,0,0,0-.174.01,1.086,1.086,0,0,0-.757.681,2.25,2.25,0,0,0,.185,1.879,2.57,2.57,0,0,0,1.174,1.04c.757-.845,1.353-1.917.905-2.812A1.419,1.419,0,0,0,342.32,195.062Z" transform="translate(-337.975 -194.78)" fill="#f2ac30"/>
              </g>
            </g>
            <g id="Grupo_888607" data-name="Grupo 888607" transform="translate(103.383 32.106)">
              <path id="Trazado_622290" data-name="Trazado 622290" d="M453.2,279.729a23.467,23.467,0,0,0-1.115-4.267c-.314-.815-.086-1.324-1.306-2.032s-2.714-1.967-2.989-2.084-.708-1.809-2.32-.314-3.381,1.612-3.814.2c-.826-.157-1.3-.825-1.062-1.3a11.89,11.89,0,0,1,2.124-1.77c-.944.511-2.6.629-2.831-.078s.551-1.259,1.888-1.652,6.686-2.792,8.14-1.888,3.776,2.871,5.427,3.972,2.242,2.871,3.028,4.955,1.416,4.287,1.416,4.287A5.244,5.244,0,0,1,453.2,279.729Z" transform="translate(-435.016 -239.966)" fill="#ffd4d4"/>
              <path id="Trazado_622293" data-name="Trazado 622293" d="M454.9,258.377a1.216,1.216,0,0,1,.339,1.679l-3.264,4.914a1.213,1.213,0,0,1-1.678.339l-4.914-3.263a1.215,1.215,0,0,1-.339-1.679l3.263-4.913a1.214,1.214,0,0,1,1.679-.339Z" transform="translate(-438.6 -233.209)" fill="#495edb"/>
              <path id="Trazado_622294" data-name="Trazado 622294" d="M556.435,217.144c-7.287.387-6.031,6.4-5.449,8.36.533,1.8-1.942,3.3-.679,5.516s3.492,3.422,6.952,3.58c0,0-.171,3.855-.329,5.112l7.237-.472c-.3-2.229-.957-6.852-.066-8.573.362-.7,2.55,2.239,4.876-1.337S563.722,216.758,556.435,217.144Z" transform="translate(-513.93 -206.129)" fill="#ffd4d4"/>
              <g id="Grupo_888574" data-name="Grupo 888574" transform="translate(43.181 26.36)" opacity="0.28">
                <path id="Trazado_622295" data-name="Trazado 622295" d="M575.392,273.569a.142.142,0,0,1-.008-.283,9.117,9.117,0,0,0,4.963-1.905.142.142,0,0,1,.177.221,9.406,9.406,0,0,1-5.123,1.967Z" transform="translate(-575.25 -271.35)"/>
              </g>
              <path id="Trazado_622304" data-name="Trazado 622304" d="M542.726,195.039a15.947,15.947,0,0,1,6.659-5.27c0,3.3,1.756,8.442,5.82,8.573-.131,1.364-.288,2.36.052,2.491s1.468-.6,1.652-2.228a2.408,2.408,0,0,1,3.828.944c.524,1.652-1.075,4.221-4.011,3.041-.472-.079-1.049.786-.944,2.674a6.442,6.442,0,0,0,6.45-3.041,7.632,7.632,0,0,0-.316-7.891c-1.494-2.412-1.783-3.382-1.494-4.615,4.352.891,7.055-2.152,6.466-6.006s-4.294-6.231-8.462-5.169-5.347,5.984-1.133,8.852c-.59.668-2.4.016-4.684-1.045s-9.073-2.613-12.427,2.635c-3.434,5.374,1.652,8.887,2.95,8.534A7.223,7.223,0,0,1,542.726,195.039Z" transform="translate(-506.095 -178.287)" fill="#d4336e"/>
              <g id="Grupo_888582" data-name="Grupo 888582" transform="translate(17.504 31.151)">
                <g id="Grupo_888580" data-name="Grupo 888580" transform="translate(0.152 0.139)">
                  <path id="Trazado_622305" data-name="Trazado 622305" d="M537.746,315.823c-2.674-6.187-3.566-9.858-6.135-16.254s-7.288-6.4-10.12-6.712-3.745-1.6-3.9-3.7c-5.82,2.15-6.952-.6-7.056-.388-.5,3.094-1.468,3.094-4.825,2.622s-7.655,4.981-11.115,9.439c0,0-2.1-5.9-2.622-6.791-2.753,2.4-5.007,2.142-6.7,1.592,0,0,.735,2.6,1.164,4.412-3.379,1.14.678,10.182,2.466,13.659,3.277,6.371,8.988,4.476,13.341-2.131,1.055,1.091,2.238,2.2,2.291,2.727a29.039,29.039,0,0,1-.241,4.831c-.262,1.573-1.573,6.083-1.573,6.24s1.677,4.247,1.677,4.247,16.464.315,16.413,2.674c2.517-.367,10.906.157,15.888-2.255S540.42,322.01,537.746,315.823Zm-12.794,7.026.682-7.446,1.888,7.236Z" transform="translate(-485.133 -288.755)" fill="#179587"/>
                </g>
                <g id="Grupo_888581" data-name="Grupo 888581">
                  <path id="Trazado_622306" data-name="Trazado 622306" d="M537.484,315.4c-1.478-3.432-2.709-6.95-3.958-10.469-.654-1.843-1.336-3.676-2.06-5.494a12.676,12.676,0,0,0-2.5-4.118A9.735,9.735,0,0,0,523,292.568a18.487,18.487,0,0,1-3.4-.526,3.383,3.383,0,0,1-2.254-3.238.143.143,0,0,0-.179-.137c-1.958.708-4.836,1.522-6.6-.086-.12-.11-.371-.476-.542-.237a3.216,3.216,0,0,0-.183.887,4.571,4.571,0,0,1-.3.868,1.658,1.658,0,0,1-1.11.942c-1.2.328-2.465-.2-3.666-.171a6.171,6.171,0,0,0-3.329,1.442c-2.913,2.141-5.139,5.236-7.335,8.064l.237.062q-.559-1.57-1.141-3.132a25.326,25.326,0,0,0-1.5-3.693.144.144,0,0,0-.222-.029,6.591,6.591,0,0,1-6.56,1.555.143.143,0,0,0-.174.174c.413,1.464.81,2.933,1.164,4.412l.1-.174c-1.873.688-1.459,3.264-1.144,4.779a34.736,34.736,0,0,0,2.838,7.7c1.1,2.322,2.52,4.882,5.3,5.325,2.853.455,5.457-1.743,7.2-3.723a21.772,21.772,0,0,0,1.767-2.343l-.222.029c.457.471.922.935,1.372,1.414.339.36.856.82.887,1.347a24.257,24.257,0,0,1-.06,2.862,28.783,28.783,0,0,1-1.156,5.766c-.189.7-.388,1.4-.566,2.1a1.454,1.454,0,0,0,.2.9c.463,1.2.955,2.4,1.445,3.594a.147.147,0,0,0,.137.1c2.581.05,5.166.191,7.738.409a47.067,47.067,0,0,1,5.692.757c.612.128,2.824.454,2.84,1.366a.144.144,0,0,0,.179.137c2.329-.323,4.735-.2,7.08-.363a25.765,25.765,0,0,0,8.515-1.755c6.069-2.656,3.385-10,1.425-14.555-.072-.168-.316-.023-.245.142,1.174,2.731,2.35,5.691,2.327,8.71a6.127,6.127,0,0,1-1,3.42,6.925,6.925,0,0,1-3.465,2.369,29.33,29.33,0,0,1-8.523,1.449c-2.05.121-4.149.027-6.186.31l.179.137c-.019-1.061-1.988-1.4-2.725-1.568a44.162,44.162,0,0,0-6.369-.862c-1.982-.165-3.97-.271-5.957-.342-.468-.016-.936-.031-1.405-.042-.2,0,.08.2-.014-.027q-.249-.609-.5-1.22-.412-1.015-.814-2.035c-.118-.3-.341-.7-.277-.958.36-1.465.8-2.911,1.161-4.375a22.991,22.991,0,0,0,.635-5.089,4.083,4.083,0,0,0-.09-1.741,11.759,11.759,0,0,0-2.255-2.56.143.143,0,0,0-.223.029c-1.688,2.534-4.056,5.334-7.219,5.911-3.048.556-5.005-2.016-6.2-4.428a42.377,42.377,0,0,1-2.853-7.1c-.423-1.472-1.425-4.944.629-5.7a.145.145,0,0,0,.1-.174c-.354-1.479-.752-2.948-1.164-4.412l-.174.174a6.878,6.878,0,0,0,6.836-1.628l-.222-.029a25.94,25.94,0,0,1,1.52,3.767q.554,1.491,1.088,2.99c.031.088.166.154.237.063,2.227-2.868,4.479-5.962,7.431-8.133a5.262,5.262,0,0,1,3.945-1.214,6.43,6.43,0,0,0,3.116-.009,2.533,2.533,0,0,0,1.315-1.913c.07-.271.221-.586,0-.771.045.038.084.083.126.124a3.744,3.744,0,0,0,.472.4c1.85,1.346,4.605.575,6.53-.121l-.179-.137a4.044,4.044,0,0,0,1.191,2.809,5.77,5.77,0,0,0,3.371,1.088c2.37.236,4.65.668,6.532,2.242a10.922,10.922,0,0,1,2.933,4.312c.778,1.894,1.477,3.823,2.163,5.752,1.26,3.542,2.5,7.082,3.986,10.536C537.311,315.709,537.555,315.565,537.484,315.4Z" transform="translate(-484.598 -288.264)" fill="#179587"/>
                  <path id="Trazado_622307" data-name="Trazado 622307" d="M625.49,389.928l.681-7.446-.278.038,1.888,7.236.137-.179-2.569.21c-.181.015-.182.3,0,.283l2.569-.21a.144.144,0,0,0,.137-.179q-.944-3.618-1.888-7.236a.142.142,0,0,0-.278.038q-.341,3.723-.681,7.446C625.19,390.11,625.474,390.108,625.49,389.928Z" transform="translate(-585.378 -355.695)" fill="#179587"/>
                </g>
              </g>
              <path id="Trazado_622308" data-name="Trazado 622308" d="M514.082,414.409c1.154-1.1,3.932-3.041,4.614-2.045a2.4,2.4,0,0,1,1.783-.577,1.592,1.592,0,0,1,2.674.052c.944,1.1,3.775,3.461,4.247,3.933s4.143.367,12.375-1.416c1.677.682,1.768,5.429,1.768,5.429-3.056.193-25.567.086-25.567.086Z" transform="translate(-488.227 -345.144)" fill="#ffd4d4"/>
              <g id="Grupo_888585" data-name="Grupo 888585" transform="translate(26.238 70.408)">
                <path id="Trazado_622311" data-name="Trazado 622311" d="M515.574,427.532a.142.142,0,0,1-.02-.282,1.625,1.625,0,0,0,.785-.353.142.142,0,1,1,.2.2,1.891,1.891,0,0,1-.945.433Z" transform="translate(-515.433 -426.856)"/>
              </g>
              <g id="Grupo_888590" data-name="Grupo 888590" transform="translate(51.281 64.942)" opacity="0.24">
                <path id="Trazado_622316" data-name="Trazado 622316" d="M603.995,411.812a.139.139,0,0,1-.1-.041.173.173,0,0,1-.041-.17.184.184,0,0,1,.156-.092.1.1,0,0,0,.039,0,.167.167,0,0,1,.029-.011c.063-.016.125-.038.19-.061a2.3,2.3,0,0,1,.327-.1,4.364,4.364,0,0,0,.626-.15l.15-.043c.133-.023.25-.033.363-.043l.143-.013-.024-.054a1.831,1.831,0,0,1-.229-1.076,2.137,2.137,0,0,1,1.008-1.314,6.153,6.153,0,0,1,2.378-.694c.157-.024.313-.047.467-.073a18.859,18.859,0,0,1,1.989-.177c.324-.017.648-.034.973-.06.773-.039,1.569-.08,2.37-.08h1.73a.142.142,0,0,1,0,.283h-1.73c-.794,0-1.586.04-2.352.079-.323.026-.65.043-.976.06a18.576,18.576,0,0,0-1.959.174c-.154.026-.312.05-.47.073a5.956,5.956,0,0,0-2.269.654,1.865,1.865,0,0,0-.879,1.12,1.6,1.6,0,0,0,.209.916c.034.077.067.153.1.229a.141.141,0,0,1-.1.191,3.182,3.182,0,0,1-.348.043c-.106.009-.215.018-.325.037l-.133.039a4.481,4.481,0,0,1-.658.158,2.034,2.034,0,0,0-.28.086c-.07.025-.137.048-.2.066a.32.32,0,0,1-.09.024A.142.142,0,0,1,603.995,411.812Z" transform="translate(-603.846 -407.557)"/>
              </g>
              <g id="Grupo_898295" data-name="Grupo 898295" transform="translate(18.561 33.255)">
                <g id="Grupo_888586" data-name="Grupo 888586" transform="translate(15.007 10.057)" opacity="0.26">
                  <path id="Trazado_622312" data-name="Trazado 622312" d="M543.052,342.785a.143.143,0,0,1-.1-.038,5.584,5.584,0,0,1-1.264-2.023c-.831-2.6-.165-5.308.679-7.845.046-.138-.179-.39-.329-.557-.058-.065-.113-.127-.156-.182-.149-.253-.288-.49-.426-.728a.142.142,0,0,1,.245-.142q.206.357.415.712c.029.036.079.092.133.152.215.242.483.542.386.836-.829,2.492-1.485,5.145-.678,7.669a5.352,5.352,0,0,0,1.188,1.9.142.142,0,0,1-.1.245Z" transform="translate(-541.31 -331.199)"/>
                </g>
                <g id="Grupo_888587" data-name="Grupo 888587" transform="translate(0 7.649)" opacity="0.26">
                  <path id="Trazado_622313" data-name="Trazado 622313" d="M489.781,324.668a2.67,2.67,0,0,1-1.388-.286.142.142,0,0,1,.156-.237c.85.561,3.844.208,6.239-1.426a.142.142,0,1,1,.16.234A9.735,9.735,0,0,1,489.781,324.668Z" transform="translate(-488.33 -322.694)"/>
                </g>
                <g id="Grupo_888588" data-name="Grupo 888588" transform="translate(8.349 9.519)" opacity="0.26">
                  <path id="Trazado_622314" data-name="Trazado 622314" d="M519.178,333.521a.142.142,0,0,1-.139-.115,17.929,17.929,0,0,0-1.223-3.917.142.142,0,0,1,.263-.1,18.177,18.177,0,0,1,1.238,3.969.142.142,0,0,1-.113.166Z" transform="translate(-517.806 -329.295)"/>
                </g>
                <g id="Grupo_888589" data-name="Grupo 888589" transform="translate(36.7 15.326)" opacity="0.26">
                  <path id="Trazado_622315" data-name="Trazado 622315" d="M622.716,366.4a.142.142,0,0,1-.136-.1c-.221-.768-.457-1.648-.707-2.581-.5-1.864-1.066-3.977-1.666-5.739-.864-2.54-1.557-5.128-2.308-8a.141.141,0,0,1,.1-.173.14.14,0,0,1,.172.1c.75,2.871,1.441,5.453,2.3,7.984.6,1.771,1.17,3.889,1.671,5.757.25.931.485,1.81.706,2.575a.142.142,0,0,1-.1.175A.136.136,0,0,1,622.716,366.4Z" transform="translate(-617.895 -349.799)"/>
                </g>
                <g id="Grupo_888591" data-name="Grupo 888591" transform="translate(34.695 35.108)" opacity="0.26">
                  <path id="Trazado_622317" data-name="Trazado 622317" d="M613.4,425.5a.141.141,0,0,1-.141-.142,8.349,8.349,0,0,0-.5-2.939l-.069-.194a5.366,5.366,0,0,0-.623-1.348,3.271,3.271,0,0,0-1.17-.979.142.142,0,0,1,.136-.248,3.535,3.535,0,0,1,1.27,1.071,5.569,5.569,0,0,1,.654,1.411l.068.191a8.588,8.588,0,0,1,.519,2.947.086.086,0,0,1,0,.01v.079A.142.142,0,0,1,613.4,425.5Z" transform="translate(-610.817 -419.636)"/>
                </g>
                <g id="Grupo_888593" data-name="Grupo 888593" transform="translate(23.144)" opacity="0.26">
                  <path id="Trazado_622319" data-name="Trazado 622319" d="M575.7,299.673a1.367,1.367,0,0,1-1.121-.665,4.645,4.645,0,0,1-.778-2.3c-.024-.162-.049-.327-.078-.492-.217.369-.438.736-.68,1.1l-.067.1c-.34.515-.972,1.474-1.686,1.563a.9.9,0,0,1-.741-.261,2.072,2.072,0,0,1-.486-1.841l.007-.121a.14.14,0,0,1,.15-.133.142.142,0,0,1,.133.15l-.008.121a1.833,1.833,0,0,0,.4,1.615.624.624,0,0,0,.515.188c.584-.073,1.192-.995,1.484-1.437l.068-.1c.308-.462.583-.933.85-1.389a.157.157,0,0,1,.15-.078.139.139,0,0,1,.122.1c.064.29.109.588.152.876a4.374,4.374,0,0,0,.726,2.174,1.041,1.041,0,0,0,1.291.467,9.424,9.424,0,0,0,1.669-.776,5.487,5.487,0,0,0,1.342-1.15.142.142,0,1,1,.217.182,5.772,5.772,0,0,1-1.41,1.209,9.665,9.665,0,0,1-1.718.8A1.333,1.333,0,0,1,575.7,299.673Z" transform="translate(-570.037 -295.69)"/>
                </g>
              </g>
              <path id="Trazado_622324" data-name="Trazado 622324" d="M479.058,276.6a12.866,12.866,0,0,0-3.172-1.94c-1.045-.512-2.439.446-.944,2.045a10.921,10.921,0,0,0,4.3,2.386" transform="translate(-459.704 -247.259)" fill="#ffd4d4"/>
              <g id="Grupo_898296" data-name="Grupo 898296" transform="translate(5.317 27.115)" opacity="0.15">
                <g id="Grupo_888572" data-name="Grupo 888572" transform="translate(0.219 2.6)">
                  <path id="Trazado_622291" data-name="Trazado 622291" d="M443.32,284.776a1.1,1.1,0,0,1-.948-.515.142.142,0,0,1,.234-.16c.514.747,1.395.3,2.328-.263l.188-.113c.071-.037.136-.07.2-.1a2.528,2.528,0,0,0,.633-.391.142.142,0,0,1,.194.207,2.781,2.781,0,0,1-.7.439c-.064.032-.128.063-.19.1l-.179.108A3.822,3.822,0,0,1,443.32,284.776Z" transform="translate(-442.347 -283.194)"/>
                </g>
                <g id="Grupo_888573" data-name="Grupo 888573" transform="translate(0 0.4)">
                  <path id="Trazado_622292" data-name="Trazado 622292" d="M442.162,276.633a1.872,1.872,0,0,1-.482-.061.142.142,0,0,1,.072-.274,2.5,2.5,0,0,0,1.108-.034c.091-.017.182-.033.275-.048a5.928,5.928,0,0,0,.938-.305c.071-.036.145-.07.219-.1s.141-.064.218-.1c.053-.027.105-.059.159-.092a1.494,1.494,0,0,1,.364-.18.142.142,0,0,1,.078.272,1.26,1.26,0,0,0-.293.149c-.061.037-.12.074-.18.1-.08.04-.154.074-.228.107s-.141.064-.218.1a6.134,6.134,0,0,1-1,.326c-.1.016-.19.033-.279.048A4.189,4.189,0,0,1,442.162,276.633Z" transform="translate(-441.574 -275.428)"/>
                </g>
                <g id="Grupo_888583" data-name="Grupo 888583" transform="translate(24.399 39.322)">
                  <path id="Trazado_622309" data-name="Trazado 622309" d="M533.342,418.583a.142.142,0,0,1-.1-.043l-.038-.039a.139.139,0,0,1-.034-.058,2.506,2.506,0,0,1-.271-.616c-.074-.147-.142-.293-.21-.439s-.138-.3-.218-.456c-.173-.267-.334-.569-.49-.862-.122-.23-.249-.467-.383-.691-.2.237-.421.466-.632.688a12.478,12.478,0,0,0-.89,1.005l-.051.068c-.35.472-1,1.349-1.824.873a.866.866,0,0,1-.447-.539,1.857,1.857,0,0,1,.278-1.307c.2-.322.423-.634.637-.936s.43-.606.624-.916c.105-.158.2-.322.294-.485a4.525,4.525,0,0,1,.669-.955.142.142,0,1,1,.2.2,4.239,4.239,0,0,0-.625.9c-.1.169-.2.337-.3.5-.2.314-.418.626-.631.927s-.431.607-.626.918a1.624,1.624,0,0,0-.248,1.083.588.588,0,0,0,.313.369c.562.325,1.01-.191,1.459-.795l.052-.07a12.665,12.665,0,0,1,.911-1.029c.264-.278.514-.54.744-.823a.14.14,0,0,1,.118-.052.142.142,0,0,1,.111.065c.18.28.341.583.5.875s.312.585.486.855c.088.174.159.325.229.476s.134.288.211.442c0,.006.009.021.01.027a1.947,1.947,0,0,0,.288.616.142.142,0,0,1-.11.23Z" transform="translate(-527.712 -412.834)"/>
                </g>
                <g id="Grupo_888584" data-name="Grupo 888584" transform="translate(21.719 39.95)">
                  <path id="Trazado_622310" data-name="Trazado 622310" d="M519.338,419.113a1.138,1.138,0,0,1-.909-.406c-.519-.724.233-1.477.48-1.724a13.609,13.609,0,0,1,2.823-1.911.142.142,0,1,1,.138.247,13.394,13.394,0,0,0-2.764,1.866c-.563.563-.709.993-.454,1.349a1.053,1.053,0,0,0,1.276.152,5.991,5.991,0,0,0,1.184-.8l.186.214a6.217,6.217,0,0,1-1.249.844A1.629,1.629,0,0,1,519.338,419.113Z" transform="translate(-518.25 -415.054)"/>
                </g>
                <g id="Grupo_888598" data-name="Grupo 888598" transform="translate(9.124)">
                  <path id="Trazado_622325" data-name="Trazado 622325" d="M478.88,278.868a.133.133,0,0,1-.038-.005,10.919,10.919,0,0,1-4.366-2.425c-.991-1.06-.681-1.737-.5-1.979a1.3,1.3,0,0,1,1.613-.29,12.923,12.923,0,0,1,3.215,1.972.141.141,0,1,1-.209.191,13.1,13.1,0,0,0-3.13-1.909,1.033,1.033,0,0,0-1.26.2c-.285.385-.1.989.482,1.617a10.833,10.833,0,0,0,4.235,2.346.142.142,0,0,1-.038.278Z" transform="translate(-473.783 -274.015)"/>
                </g>
              </g>
              <g id="Grupo_888600" data-name="Grupo 888600" transform="translate(0 56.552)">
                <path id="Trazado_622326" data-name="Trazado 622326" d="M462.535,393.829H451.353l-4.5-13.141a3.305,3.305,0,0,0-2.916-2.084H424.844a1.479,1.479,0,0,0-1.488,2.084l4.635,13.538c.507,1.314.567,2.4,1.884,2.4h32.661a1.4,1.4,0,0,0,0-2.792Z" transform="translate(-423.118 -378.416)" fill="#afafaf"/>
                <g id="Grupo_888599" data-name="Grupo 888599">
                  <path id="Trazado_622327" data-name="Trazado 622327" d="M462.219,393.21h-11.07c-.219,0,.056.193,0,.019l-.511-1.492-2.073-6.055-1.74-5.082a3.542,3.542,0,0,0-3.334-2.615H426.735a7.956,7.956,0,0,0-3.152.221c-1.444.673-.512,2.535-.151,3.589l2.062,6.021,1.824,5.327c.417,1.218.661,3.142,2.261,3.142h32.633c2,0,1.971-2.943.007-3.076-.183-.012-.181.271,0,.283a1.256,1.256,0,1,1-.135,2.509H429.61c-1.257,0-1.472-1.336-1.8-2.3l-.385-1.123-3.913-11.43-.335-.978c-.423-1.235.507-1.9,1.612-1.9h16.991c1.619,0,3.14-.159,4.276,1.324a4.985,4.985,0,0,1,.615,1.44l.8,2.35q1.713,5,3.426,10.007a.145.145,0,0,0,.137.1h11.181A.142.142,0,0,0,462.219,393.21Z" transform="translate(-422.802 -377.939)" fill="#afafaf"/>
                </g>
              </g>
              <g id="Grupo_888602" data-name="Grupo 888602" transform="translate(11.437 63.535)">
                <path id="Trazado_622329" data-name="Trazado 622329" d="M465.664,406.954a2.86,2.86,0,0,1-2.377-2.142,1.969,1.969,0,0,1,.2-1.735,1.221,1.221,0,0,1,1-.485,2.858,2.858,0,0,1,2.376,2.142,1.969,1.969,0,0,1-.2,1.735A1.22,1.22,0,0,1,465.664,406.954Zm-1.178-4.079a.933.933,0,0,0-.777.372,1.7,1.7,0,0,0-.15,1.486,2.565,2.565,0,0,0,2.1,1.938.932.932,0,0,0,.776-.372,1.694,1.694,0,0,0,.15-1.486A2.564,2.564,0,0,0,464.486,402.874Z" transform="translate(-463.179 -402.591)" fill="#636363"/>
              </g>
              <g id="Grupo_888604" data-name="Grupo 888604" transform="translate(51.796 6.673)">
                <path id="Trazado_622332" data-name="Trazado 622332" d="M606.761,205.892a.141.141,0,0,1-.125-.074,7.617,7.617,0,0,1-.649-1.48,4.731,4.731,0,0,1-.324-1.6.9.9,0,0,1,.427-.83.692.692,0,0,1,.754.114c1.23.943.591,2.908.26,3.709a.142.142,0,0,1-.185.077.115.115,0,0,1-.025-.013.142.142,0,0,1-.134.095Zm-.4-3.762a.313.313,0,0,0-.143.034.633.633,0,0,0-.272.577,4.5,4.5,0,0,0,.31,1.51,7.122,7.122,0,0,0,.591,1.362c.308-.749.892-2.544-.173-3.361A.555.555,0,0,0,606.362,202.13Z" transform="translate(-605.664 -201.847)"/>
              </g>
              <g id="Grupo_888605" data-name="Grupo 888605" transform="translate(52.717 9.71)">
                <path id="Trazado_622333" data-name="Trazado 622333" d="M612.215,214.784a4.04,4.04,0,0,1-1.46-.395l-.195-.079c-.5-.213-1.036-.429-1.558-.637a.142.142,0,0,1,.053-.273h0a.141.141,0,0,1,.081-.094l.287-.128a7.842,7.842,0,0,1,1.509-.553,1.98,1.98,0,0,1,2.173.743.92.92,0,0,1-.789,1.413C612.286,214.783,612.251,214.784,612.215,214.784Zm-2.847-1.27c.44.176.885.357,1.3.535l.194.079a3.457,3.457,0,0,0,1.442.37.639.639,0,0,0,.557-1,1.709,1.709,0,0,0-1.866-.6,7.643,7.643,0,0,0-1.451.535Z" transform="translate(-608.914 -212.568)"/>
              </g>
              <g id="Grupo_888606" data-name="Grupo 888606" transform="translate(51.088 9.019)">
                <path id="Trazado_622334" data-name="Trazado 622334" d="M606.634,213.209a.142.142,0,0,1-.085-.028c-.128-.1-.249-.206-.367-.312a4.161,4.161,0,0,0-.477-.391,6.79,6.79,0,0,1-.622-.436c-.119-.09-.241-.182-.372-.274a18.3,18.3,0,0,1-1.506-1.4.142.142,0,1,1,.2-.2,17.933,17.933,0,0,0,1.476,1.37c.127.089.251.183.374.275a6.69,6.69,0,0,0,.6.422,4.4,4.4,0,0,1,.516.421c.077.07.152.138.227.2a.145.145,0,0,1,.176.137v.071a.142.142,0,0,1-.078.127A.144.144,0,0,1,606.634,213.209Z" transform="translate(-603.164 -210.129)"/>
              </g>
            </g>
            <g id="Grupo_888621" data-name="Grupo 888621" transform="translate(2.729 2.348)">
              <g id="Grupo_888608" data-name="Grupo 888608" transform="translate(48.933 86.531)">
                <path id="Trazado_622335" data-name="Trazado 622335" d="M251.394,396.762h-7.475a.142.142,0,0,1-.139-.112L240.257,380.3a1.422,1.422,0,0,1,.2-1.209,1.274,1.274,0,0,1,1.443-.278l19.56,6.292a1.18,1.18,0,0,1,.466,2.167l-10.435,9.45A.142.142,0,0,1,251.394,396.762Zm-7.361-.283h7.306l10.395-9.414a.9.9,0,0,0-.363-1.687l-19.559-6.292a1.012,1.012,0,0,0-1.136.187,1.151,1.151,0,0,0-.142.971Z" transform="translate(-240.209 -378.719)" fill="#ffd4d4"/>
              </g>
              <g id="Grupo_888609" data-name="Grupo 888609" transform="translate(48.143)">
                <path id="Trazado_622336" data-name="Trazado 622336" d="M245.848,83.443h-.037a2.942,2.942,0,0,1-2.4-1.755,5.6,5.6,0,0,1,.11-5.04,6.8,6.8,0,0,0-2.965.367,3.959,3.959,0,0,0-2.761,4.687.142.142,0,1,1-.278.054,4.226,4.226,0,0,1,2.941-5.006,7.092,7.092,0,0,1,3.2-.368,6.626,6.626,0,0,1,.877-1.245,5.647,5.647,0,0,1,6.675-1.378.142.142,0,0,1-.107.262,5.378,5.378,0,0,0-6.358,1.3,6.382,6.382,0,0,0-.787,1.1,4.771,4.771,0,0,1,3.511,2.187,3.665,3.665,0,0,1,.257,3.711A2.187,2.187,0,0,1,245.848,83.443Zm-2.032-6.76a5.332,5.332,0,0,0-.159,4.869,2.64,2.64,0,0,0,2.159,1.608,1.922,1.922,0,0,0,1.664-.983,3.394,3.394,0,0,0-.259-3.427A4.525,4.525,0,0,0,243.816,76.683Z" transform="translate(-237.42 -73.231)" fill="#f2ac30"/>
              </g>
              <g id="Grupo_888610" data-name="Grupo 888610" transform="translate(0 43.272)">
                <path id="Trazado_622337" data-name="Trazado 622337" d="M69.3,234.1a4.017,4.017,0,0,1-1.768-.441.142.142,0,0,1,.124-.255,3.185,3.185,0,0,0,3.847-.535,4.721,4.721,0,0,0,.916-1.268,3.244,3.244,0,0,1-2.339-1.764,3.182,3.182,0,0,1,0-3.173,1.409,1.409,0,0,1,1.286-.662,2.106,2.106,0,0,1,1.574,1.423,5.125,5.125,0,0,1-.107,3.957,3.934,3.934,0,0,0,1.583-.141,3.181,3.181,0,0,0,2.225-3.779.142.142,0,0,1,.28-.043,3.45,3.45,0,0,1-2.422,4.093,4.225,4.225,0,0,1-1.788.139,5.01,5.01,0,0,1-1.007,1.421A3.4,3.4,0,0,1,69.3,234.1Zm1.947-7.82a1.16,1.16,0,0,0-.938.547,2.9,2.9,0,0,0,.028,2.889,2.98,2.98,0,0,0,2.207,1.622,4.844,4.844,0,0,0,.135-3.8c-.346-.763-.822-1.21-1.341-1.258C71.308,226.284,71.278,226.283,71.248,226.283Z" transform="translate(-67.454 -226)" fill="#ffd4d4"/>
              </g>
              <g id="Grupo_888611" data-name="Grupo 888611" transform="translate(171.073 60.489)">
                <path id="Trazado_622338" data-name="Trazado 622338" d="M673.718,301.477a.139.139,0,0,1-.065-.016,3.947,3.947,0,0,1-1.99-5.045,6.614,6.614,0,0,1,1.565-2.559,6.153,6.153,0,0,1-.408-1.354,5.273,5.273,0,0,1,2.827-5.7.141.141,0,1,1,.141.246,5,5,0,0,0-2.688,5.407,5.925,5.925,0,0,0,.347,1.193,4.451,4.451,0,0,1,3.619-1.314,3.425,3.425,0,0,1,2.88,1.949,2.044,2.044,0,0,1-.277,2.058,2.753,2.753,0,0,1-2.677.758,5.224,5.224,0,0,1-3.638-2.967,6.326,6.326,0,0,0-1.421,2.373,3.681,3.681,0,0,0,1.85,4.707.142.142,0,0,1-.065.268Zm-.153-7.56a4.957,4.957,0,0,0,3.473,2.9,2.449,2.449,0,0,0,2.411-.657,1.765,1.765,0,0,0,.233-1.777,3.155,3.155,0,0,0-2.657-1.772A4.2,4.2,0,0,0,673.565,293.917Z" transform="translate(-671.409 -286.781)" fill="#f2ac30"/>
              </g>
              <g id="Grupo_888612" data-name="Grupo 888612" transform="translate(152.134 12.273)">
                <path id="Trazado_622339" data-name="Trazado 622339" d="M608.977,126.754a1.59,1.59,0,0,1-1.318-.695l-2.839-4.18a1.593,1.593,0,0,1,.421-2.207l4.18-2.84a1.575,1.575,0,0,1,.889-.272,1.591,1.591,0,0,1,1.319.7l2.839,4.179a1.592,1.592,0,0,1-.422,2.208l-4.179,2.838A1.58,1.58,0,0,1,608.977,126.754Zm1.333-9.911a1.3,1.3,0,0,0-.729.223l-4.18,2.84a1.31,1.31,0,0,0-.346,1.814l2.839,4.18a1.31,1.31,0,0,0,1.814.346l4.179-2.838a1.308,1.308,0,0,0,.347-1.814l-2.839-4.179A1.307,1.307,0,0,0,610.311,116.843Z" transform="translate(-604.547 -116.56)" fill="#ffd4d4"/>
              </g>
              <g id="Grupo_888613" data-name="Grupo 888613" transform="translate(139.481 5.556)">
                <path id="Trazado_622340" data-name="Trazado 622340" d="M561.78,96.648a1.9,1.9,0,1,1,1.9-1.9A1.9,1.9,0,0,1,561.78,96.648Zm0-3.519a1.618,1.618,0,1,0,1.618,1.619A1.62,1.62,0,0,0,561.78,93.128Z" transform="translate(-559.879 -92.845)" fill="#7db3db"/>
              </g>
              <g id="Grupo_888614" data-name="Grupo 888614" transform="translate(10.902 22.697)">
                <ellipse id="Elipse_6030" data-name="Elipse 6030" cx="1.36" cy="1.36" rx="1.36" ry="1.36" transform="translate(0 2.727)" fill="#7db3db"/>
                <path id="Trazado_622341" data-name="Trazado 622341" d="M119.585,154.722a1.359,1.359,0,1,1-1.359-1.36A1.36,1.36,0,0,1,119.585,154.722Z" transform="translate(-113.772 -153.362)" fill="#7db3db"/>
                <path id="Trazado_622342" data-name="Trazado 622342" d="M121.435,168.793a1.36,1.36,0,1,1-1.36-1.36A1.359,1.359,0,0,1,121.435,168.793Z" transform="translate(-115.097 -163.447)" fill="#7db3db"/>
              </g>
              <g id="Grupo_888615" data-name="Grupo 888615" transform="translate(96.136 97.074)">
                <path id="Trazado_622343" data-name="Trazado 622343" d="M408.356,418.946a1.507,1.507,0,0,1-1.363-.87,1.5,1.5,0,0,1,1.36-2.133,1.507,1.507,0,0,1,1.363.87,1.5,1.5,0,0,1-1.361,2.133Zm0-2.72a1.219,1.219,0,0,0-1.1,1.731,1.218,1.218,0,0,0,1.617.592,1.219,1.219,0,0,0,.593-1.618A1.224,1.224,0,0,0,408.354,416.226Z" transform="translate(-406.853 -415.943)" fill="#7db3db"/>
              </g>
              <g id="Grupo_888616" data-name="Grupo 888616" transform="translate(92.361 95.415)">
                <path id="Trazado_622344" data-name="Trazado 622344" d="M395.03,413.087a1.5,1.5,0,0,1-.633-2.863,1.486,1.486,0,0,1,.63-.139,1.5,1.5,0,0,1,.633,2.863A1.482,1.482,0,0,1,395.03,413.087Zm0-2.72a1.206,1.206,0,0,0-.511.113,1.218,1.218,0,0,0,.514,2.323,1.2,1.2,0,0,0,.511-.113,1.218,1.218,0,0,0-.514-2.323Z" transform="translate(-393.528 -410.084)" fill="#7db3db"/>
              </g>
              <g id="Grupo_888617" data-name="Grupo 888617" transform="translate(95.757 93.262)">
                <path id="Trazado_622345" data-name="Trazado 622345" d="M407.014,405.488a1.5,1.5,0,1,1,1.41-.985,1.5,1.5,0,0,1-1.41.985Zm0-2.72a1.206,1.206,0,0,0-.512.114,1.218,1.218,0,0,0,.512,2.323,1.218,1.218,0,0,0,1.105-1.731A1.223,1.223,0,0,0,407.014,402.768Z" transform="translate(-405.514 -402.485)" fill="#7db3db"/>
              </g>
              <g id="Grupo_888618" data-name="Grupo 888618" transform="translate(168.141 48.267)">
                <path id="Trazado_622346" data-name="Trazado 622346" d="M662.564,246.635a1.506,1.506,0,0,1-1.363-.87,1.5,1.5,0,0,1,1.36-2.133,1.5,1.5,0,0,1,.633,2.863A1.485,1.485,0,0,1,662.564,246.635Zm0-2.72a1.218,1.218,0,0,0-1.1,1.73,1.223,1.223,0,0,0,1.106.706,1.2,1.2,0,0,0,.511-.113,1.218,1.218,0,0,0-.514-2.323Z" transform="translate(-661.061 -243.632)" fill="#495edb"/>
              </g>
              <g id="Grupo_888619" data-name="Grupo 888619" transform="translate(164.366 46.607)">
                <path id="Trazado_622347" data-name="Trazado 622347" d="M649.235,240.776a1.5,1.5,0,0,1-.632-2.863,1.486,1.486,0,0,1,.63-.139,1.5,1.5,0,0,1,0,3Zm0-2.72a1.218,1.218,0,0,0-1.1,1.73,1.218,1.218,0,1,0,1.1-1.73Z" transform="translate(-647.732 -237.773)" fill="#495edb"/>
              </g>
              <g id="Grupo_888620" data-name="Grupo 888620" transform="translate(167.762 44.455)">
                <path id="Trazado_622348" data-name="Trazado 622348" d="M661.222,233.177a1.5,1.5,0,1,1,1.41-.985,1.5,1.5,0,0,1-1.41.985Zm0-2.719a1.218,1.218,0,1,0,1.105.706A1.212,1.212,0,0,0,661.221,230.457Z" transform="translate(-659.721 -230.174)" fill="#495edb"/>
              </g>
            </g>
            <path id="Trazado_622349" data-name="Trazado 622349" d="M239.319,441.639H58.1a.283.283,0,1,1,0-.566H239.319a.283.283,0,1,1,0,.566Z" transform="translate(-57.82 -334.532)" fill="#32015c"/>
          </g>
        </g>
        <g id="Rectngulo_297410" data-name="Rectngulo 297410" transform="translate(23.104 106.01)" fill="#fff" stroke="#707070" stroke-width="1">
          <rect width="150" height="4" stroke="none"/>
          <rect x="0.5" y="0.5" width="149" height="3" fill="none"/>
        </g>
      </g>
    </g>
  </g>
</svg>
