<svg xmlns="http://www.w3.org/2000/svg" xmlns:xlink="http://www.w3.org/1999/xlink" width="170" height="169" viewBox="0 0 170 169">
  <defs>
    <clipPath id="clip-path">
      <circle id="Elipse_6268" data-name="Elipse 6268" cx="84.5" cy="84.5" r="84.5" transform="translate(391 1561)" fill="#fff" stroke="#707070" stroke-width="1"/>
    </clipPath>
  </defs>
  <g id="Grupo_898335" data-name="Grupo 898335" transform="translate(-369 -1561)">
    <circle id="Elipse_6260" data-name="Elipse 6260" cx="84.5" cy="84.5" r="84.5" transform="translate(369 1561)" fill="#fff"/>
    <g id="Enmascarar_grupo_245" data-name="Enmascarar grupo 245" transform="translate(-21)" clip-path="url(#clip-path)">
      <g id="Grupo_898287" data-name="Grupo 898287" transform="translate(369.188 1553)">
        <g id="Grupo_887983" data-name="Grupo 887983" transform="translate(0 -8)">
          <g id="Grupo_887982" data-name="Grupo 887982">
            <g id="Grupo_887944" data-name="Grupo 887944" transform="translate(56.289 32.227)">
              <rect id="Rectángulo_296433" data-name="Rectángulo 296433" width="96.428" height="59.458" transform="translate(0.07 0.943)" fill="#fff6ee"/>
              <g id="Grupo_887943" data-name="Grupo 887943" transform="translate(0 0)">
                <path id="Trazado_621663" data-name="Trazado 621663" d="M910.3,611.5H812.568V550.744H910.3Zm-96.428-1.3H909V552.047H813.871Z" transform="translate(-812.568 -550.744)" fill="#b27d59"/>
              </g>
            </g>
            <g id="Grupo_887969" data-name="Grupo 887969" transform="translate(59.841 46.593)">
              <path id="Trazado_621679" data-name="Trazado 621679" d="M1001.454,782.391c-.012.051-.024.1-.036.154l-20.381-.006-17.307,0h-2.383l-40.365-.012s-.018-.045-.051-.13a27.086,27.086,0,0,1-1.587-7.941,20.7,20.7,0,0,1,.08-2.88q.037-.375.091-.752.1-.7.259-1.393l0-.007q.152-.659.365-1.312.067-.2.141-.408.081-.224.17-.445c.033-.082.067-.165.1-.246a13.149,13.149,0,0,1,1.026-1.955,12.805,12.805,0,0,1,1.7-2.127c6.949-7.014,15.406-4.471,21.162-2.788a17.382,17.382,0,0,0,4.844,1.007c1.409-.071,2.405-.994,3.515-2.265a42.48,42.48,0,0,1,3.045-3.364l0,0q.314-.295.656-.586c2.3-1.954,5.616-3.721,11.144-4.162A27.839,27.839,0,0,1,979.369,752a10.723,10.723,0,0,1,6.492,5.88,10.608,10.608,0,0,1,.5,1.536,17.54,17.54,0,0,1-.332,8.386,6.87,6.87,0,0,0-.214,2.523,3.622,3.622,0,0,0,.674,1.728,3.723,3.723,0,0,0,.607.639c2.394,2,7.527,1.746,11.026,2.994C1000.7,776.6,1002.388,778.338,1001.454,782.391Z" transform="translate(-915.206 -750.635)" fill="#ebf3fa"/>
              <path id="Trazado_621680" data-name="Trazado 621680" d="M963.75,892.748l-43.07,10.722a17.074,17.074,0,0,1,.35-2.146l0-.006q.152-.659.365-1.312Z" transform="translate(-916.462 -882.535)" fill="#f8fbff"/>
              <ellipse id="Elipse_6029" data-name="Elipse 6029" cx="1.126" cy="1.126" rx="1.126" ry="1.126" transform="translate(62.426 4.663)" fill="#f8fbff"/>
              <path id="Trazado_621681" data-name="Trazado 621681" d="M1160.159,885.427l-53.031,6.186a15,15,0,0,1-.651-5.466l53.553-13.358a17.54,17.54,0,0,1-.332,8.386C1159.215,883.128,1159.452,884.473,1160.159,885.427Z" transform="translate(-1088.876 -864.011)" fill="#f8fbff"/>
              <path id="Trazado_621682" data-name="Trazado 621682" d="M961.347,1024.84l-40.365-.013s-2.694-6.661-1.208-13.1l0-.006a20.157,20.157,0,0,1,10.906,2.63c6.812,3.874,18,1.039,21.234,3.212s3.98,4.423,6.388,4.81a3.942,3.942,0,0,1,3.044,2.463Z" transform="translate(-915.207 -992.941)" fill="#c1e0e4"/>
              <path id="Trazado_621683" data-name="Trazado 621683" d="M1153.681,1168.036s-5.664-1.9-8.94-.976-13.923-.732-15.457.062v1.664h24.4Z" transform="translate(-1110.075 -1136.899)" fill="#a8d29f"/>
              <path id="Trazado_621684" data-name="Trazado 621684" d="M935.282,1089H921.16a27.08,27.08,0,0,1-1.587-7.942v0s4.495-.637,6.594,1.911,4.862,1.981,6.835,1.881A2.6,2.6,0,0,1,935.282,1089Z" transform="translate(-915.435 -1057.246)" fill="#a8d29f"/>
              <path id="Trazado_621685" data-name="Trazado 621685" d="M1504.677,1036.434q-.056.341-.14.707h-43.174c.615-4.79,7.647-2.652,9.832-4.837s8.534,0,10.173-3.346,7.531-3.886,7.531-3.886a3.62,3.62,0,0,0,.674,1.728,3.727,3.727,0,0,0,.607.639c2.394,2,7.527,1.746,11.026,2.994a5.331,5.331,0,0,1,3.013,2.231h0A5.562,5.562,0,0,1,1504.677,1036.434Z" transform="translate(-1418.288 -1005.351)" fill="#ffc6c5"/>
              <path id="Trazado_621686" data-name="Trazado 621686" d="M962.891,933.829s-5.12,10.146-1.229,18.591h-3.943a41.644,41.644,0,0,1,3.891-18.181Z" transform="translate(-950.827 -920.664)" fill="#365da4"/>
              <path id="Trazado_621687" data-name="Trazado 621687" d="M1000.462,969.878a6.18,6.18,0,0,0,4.893-2.534l.25.1a7.276,7.276,0,0,1-5.5,3.169Z" transform="translate(-990.183 -951.771)" fill="#365da4"/>
              <g id="Grupo_887952" data-name="Grupo 887952" transform="translate(13.109 14.359)">
                <path id="Trazado_621688" data-name="Trazado 621688" d="M1044.408,953.639a6.185,6.185,0,0,1,.707-3.189l.121.063a6.4,6.4,0,0,0-.521,3Z" transform="translate(-1044.399 -950.45)" fill="#365da4"/>
              </g>
              <path id="Trazado_621689" data-name="Trazado 621689" d="M1627.378,806.619a6.18,6.18,0,0,0,4.1-3.676l.268.037a7.276,7.276,0,0,1-4.53,4.442Z" transform="translate(-1572.228 -799.184)" fill="#365da4"/>
              <g id="Grupo_887953" data-name="Grupo 887953" transform="translate(57.481 2.92)">
                <path id="Trazado_621690" data-name="Trazado 621690" d="M1662.119,794.532a6.186,6.186,0,0,1-.112-3.264l.133.03a6.4,6.4,0,0,0,.245,3.038Z" transform="translate(-1661.841 -791.267)" fill="#365da4"/>
              </g>
              <g id="Grupo_887954" data-name="Grupo 887954" transform="translate(6.958 13.693)">
                <path id="Trazado_621691" data-name="Trazado 621691" d="M960.258,948.739a6.782,6.782,0,0,1-1.431-5.018,9.444,9.444,0,0,1,.512-2.541l.255.1a9.345,9.345,0,0,0-.5,2.468,6.818,6.818,0,0,0,.2,2.223,4.736,4.736,0,0,0,1.217,2.128Z" transform="translate(-958.809 -941.18)" fill="#365da4"/>
              </g>
              <path id="Trazado_621692" data-name="Trazado 621692" d="M973.509,858.715s-1.81,3.1-4.934,3.152-2.662,3.123-5.428,3.789a4.7,4.7,0,0,1-5.427-2.15c-.819-1.434-6.317,1.221-7.076.124a12.792,12.792,0,0,1,1.7-2.127c6.949-7.014,15.406-4.471,21.162-2.788Z" transform="translate(-944.273 -849.214)" fill="#e57970"/>
              <g id="Grupo_887955" data-name="Grupo 887955" transform="translate(5.244 16.37)">
                <path id="Trazado_621693" data-name="Trazado 621693" d="M936.8,979.814a4.165,4.165,0,0,1-1.827-1.137c.033-.082.067-.165.1-.246a3.99,3.99,0,0,0,1.692.969C936.842,979.425,936.817,979.82,936.8,979.814Z" transform="translate(-934.969 -978.431)" fill="#365da4"/>
              </g>
              <path id="Trazado_621694" data-name="Trazado 621694" d="M923.662,990.584a1.471,1.471,0,0,1-1.714.592q.1-.7.258-1.393l0-.007q.152-.659.365-1.312.067-.2.141-.408a1.025,1.025,0,0,1,.47.811C923.23,989.446,924.049,989.833,923.662,990.584Z" transform="translate(-917.639 -970.993)" fill="#e57970"/>
              <path id="Trazado_621695" data-name="Trazado 621695" d="M1175.821,939.22a1.339,1.339,0,0,1-1.411,1.252c-.779,0-1.866-.538-1.866-1.229s1.5-1.5,2.276-1.5S1175.821,938.529,1175.821,939.22Z" transform="translate(-1150.226 -924.295)" fill="#e57970"/>
              <g id="Grupo_887956" data-name="Grupo 887956" transform="translate(52.412 3.125)">
                <path id="Trazado_621696" data-name="Trazado 621696" d="M1597.465,822.911l-4.617-.005a76.734,76.734,0,0,0,.714-11.335,72.611,72.611,0,0,0-.631-8.851,50.484,50.484,0,0,0-1.621-7.922l2.078-.674C1593.429,794.249,1598.131,810.843,1597.465,822.911Z" transform="translate(-1591.31 -794.123)" fill="#365da4"/>
              </g>
              <g id="Grupo_887957" data-name="Grupo 887957" transform="translate(44.397 5.701)">
                <path id="Trazado_621697" data-name="Trazado 621697" d="M1489.573,837.278c-6.32-.968-9.761-7.074-9.8-7.133l.293-.175a13.932,13.932,0,0,0,2.428,2.835,12.587,12.587,0,0,0,2.933,2,10.9,10.9,0,0,0,4.141,1.039Z" transform="translate(-1479.777 -829.97)" fill="#365da4"/>
              </g>
              <g id="Grupo_887958" data-name="Grupo 887958" transform="translate(47.426 5.77)">
                <path id="Trazado_621698" data-name="Trazado 621698" d="M1522.672,834.679l-.543-.323-.2-.223a3.642,3.642,0,0,0,1.333-3.164l.236-.037C1523.938,832.019,1522.687,834.665,1522.672,834.679Z" transform="translate(-1521.929 -830.932)" fill="#365da4"/>
              </g>
              <path id="Trazado_621699" data-name="Trazado 621699" d="M1459.534,752c-.622,2.368-5.25,3.435-8.39,2.926s-5.121,2.421-8.807,2.626a6.778,6.778,0,0,1-5.666-2.626c2.3-1.954,5.616-3.721,11.144-4.162A27.838,27.838,0,0,1,1459.534,752Z" transform="translate(-1395.371 -750.635)" fill="#ffa49f"/>
              <path id="Trazado_621700" data-name="Trazado 621700" d="M1828.149,1177.107s-2.2-1.745-6.708-1.079-11.009-1.272-13.518,1.079Z" transform="translate(-1739.945 -1145.317)" fill="#82b378"/>
              <path id="Trazado_621701" data-name="Trazado 621701" d="M1809.4,1127.638s-3.738-5.12-5.735-3.891S1809.4,1127.638,1809.4,1127.638Z" transform="translate(-1735.689 -1096.756)" fill="#82b378"/>
              <path id="Trazado_621702" data-name="Trazado 621702" d="M1795.969,1163.748s-3.347-1.451-4.132-.871S1795.969,1163.748,1795.969,1163.748Z" transform="translate(-1724.934 -1133.124)" fill="#82b378"/>
              <path id="Trazado_621703" data-name="Trazado 621703" d="M1914.82,1134.148l-11.557-.438c.53.017,4.494.091,6.308-1.481a9.768,9.768,0,0,1,4.79-1.974h0A5.916,5.916,0,0,1,1914.82,1134.148Z" transform="translate(-1828.432 -1102.973)" fill="#82b378"/>
              <path id="Trazado_621704" data-name="Trazado 621704" d="M922.046,1183.8a6.69,6.69,0,0,1,4.392-.63,94.218,94.218,0,0,0,15.18.265c4.028-.409,12.344.362,12.344.362Z" transform="translate(-917.73 -1152.005)" fill="#82b378"/>
              <rect id="Rectángulo_296434" data-name="Rectángulo 296434" width="90.628" height="0.24" rx="0.12" transform="translate(0 31.79)" fill="#2e3552"/>
              <path id="Trazado_621705" data-name="Trazado 621705" d="M962.276,1154.5s.758-3.26,1.147-2.56S962.276,1154.5,962.276,1154.5Z" transform="translate(-955.069 -1123.008)" fill="#82b378"/>
              <path id="Trazado_621706" data-name="Trazado 621706" d="M968.028,1171.36s.955-1.465,1.129-1.275S968.028,1171.36,968.028,1171.36Z" transform="translate(-960.408 -1139.926)" fill="#82b378"/>
              <path id="Trazado_621707" data-name="Trazado 621707" d="M944.778,1169.278c-.009-.017-.478-1.553-.8-1.258S944.778,1169.278,944.778,1169.278Z" transform="translate(-938.036 -1137.991)" fill="#82b378"/>
              <path id="Trazado_621708" data-name="Trazado 621708" d="M1218.736,1166.012c0-.051-1.143-2.109-1.553-1.792S1218.736,1166.012,1218.736,1166.012Z" transform="translate(-1191.604 -1134.467)" fill="#82b378"/>
              <path id="Trazado_621709" data-name="Trazado 621709" d="M1236.385,1166c.017-.1.222-1.875-.222-1.825s.239,1.723.239,1.723Z" transform="translate(-1209.134 -1134.453)" fill="#82b378"/>
              <path id="Trazado_621710" data-name="Trazado 621710" d="M1026.961,1131.752h-8.494l-.393-2h8.478Z" transform="translate(-1006.858 -1102.511)" fill="#b27d59"/>
              <path id="Trazado_621711" data-name="Trazado 621711" d="M1028.98,1131.752h-8.494l-.393-2h8.478Z" transform="translate(-1008.732 -1102.511)" fill="#e0b594"/>
              <path id="Rectángulo_296435" data-name="Rectángulo 296435" d="M0,0H2.507a0,0,0,0,1,0,0V.244a0,0,0,0,1,0,0H.244A.244.244,0,0,1,0,0V0A0,0,0,0,1,0,0Z" transform="translate(11.609 29.242)" fill="#b27d59"/>
              <rect id="Rectángulo_296436" data-name="Rectángulo 296436" width="7.714" height="0.244" transform="translate(14.098 29.242)" fill="#d3a07d"/>
              <g id="Grupo_887959" data-name="Grupo 887959" transform="translate(45.266 13.213)">
                <path id="Trazado_621712" data-name="Trazado 621712" d="M1504.194,935h-.171l0-.013.051-.455a.029.029,0,0,1,.029-.026h.005a.046.046,0,0,1,.04.041Z" transform="translate(-1503.15 -934.501)" fill="#2b478b"/>
                <path id="Trazado_621713" data-name="Trazado 621713" d="M1504.174,934.892h-.006l.042-.365a.029.029,0,0,1,.029-.026h.005l0,0a.046.046,0,0,1,.012.03l0,.263A.092.092,0,0,1,1504.174,934.892Z" transform="translate(-1503.285 -934.501)" fill="#3f65b2"/>
                <rect id="Rectángulo_296437" data-name="Rectángulo 296437" width="0.329" height="14.524" transform="translate(0.823 2.519)" fill="#2b478b"/>
                <rect id="Rectángulo_296438" data-name="Rectángulo 296438" width="0.152" height="14.524" transform="translate(0.823 2.519)" fill="#4365aa"/>
                <rect id="Rectángulo_296439" data-name="Rectángulo 296439" width="1.048" height="3.843" transform="translate(0.464 14.724)" fill="#2b478b"/>
                <rect id="Rectángulo_296440" data-name="Rectángulo 296440" width="0.624" height="3.843" transform="translate(0.464 14.724)" fill="#4365aa"/>
                <path id="Trazado_621714" data-name="Trazado 621714" d="M1498.037,940.231c0,.179-.27.325-.6.325l-.075,0c-.3-.02-.527-.157-.527-.322s.23-.3.527-.322l.075,0C1497.768,939.906,1498.037,940.051,1498.037,940.231Z" transform="translate(-1496.477 -939.518)" fill="#2b478b"/>
                <path id="Trazado_621715" data-name="Trazado 621715" d="M1497.725,940.263c0,.145-.151.269-.365.322-.3-.02-.527-.156-.527-.322s.23-.3.527-.322C1497.575,939.994,1497.725,940.119,1497.725,940.263Z" transform="translate(-1496.477 -939.55)" fill="#3f65b2"/>
                <path id="Trazado_621716" data-name="Trazado 621716" d="M1494.592,950.564h-1.048l-.369-1.778h1.729Z" transform="translate(-1493.082 -947.759)" fill="#3f65b2"/>
                <rect id="Rectángulo_296441" data-name="Rectángulo 296441" width="1.917" height="0.171" transform="translate(0 0.893)" fill="#2b478b"/>
                <rect id="Rectángulo_296442" data-name="Rectángulo 296442" width="1.205" height="0.171" transform="translate(0 0.893)" fill="#3f65b2"/>
                <path id="Trazado_621717" data-name="Trazado 621717" d="M1500.72,1134.985h.669l-.1-.3a.065.065,0,0,0-.061-.044h-.314a.084.084,0,0,0-.078.052Z" transform="translate(-1500.084 -1120.261)" fill="#365da4"/>
                <path id="Trazado_621718" data-name="Trazado 621718" d="M1494.9,949.992h1.477l-.289,1.6h-.848Z" transform="translate(-1494.681 -948.879)" fill="#f9ddbf"/>
                <path id="Trazado_621719" data-name="Trazado 621719" d="M1497.387,941.612s.113-.246.335-.238c0,0-.141.126-.128.238S1497.387,941.612,1497.387,941.612Z" transform="translate(-1496.991 -940.88)" fill="#c7dcf9"/>
                <path id="Trazado_621720" data-name="Trazado 621720" d="M1495.251,944.4h-1.672l.137-.195h1.4Z" transform="translate(-1493.457 -943.511)" fill="#2b478b"/>
                <path id="Trazado_621721" data-name="Trazado 621721" d="M1494.839,944.4h-1.26l.137-.195h.993Z" transform="translate(-1493.457 -943.511)" fill="#3f65b2"/>
                <path id="Trazado_621722" data-name="Trazado 621722" d="M1496.263,950.769h.339l.1,1.493h-.1Z" transform="translate(-1495.947 -949.6)" fill="#ffebd9"/>
              </g>
              <g id="Grupo_887960" data-name="Grupo 887960" transform="translate(22.708 19.691)">
                <path id="Trazado_621723" data-name="Trazado 621723" d="M1186,1024.957h-.111v-.009l.033-.3a.019.019,0,0,1,.019-.017h0a.029.029,0,0,1,.016.008.03.03,0,0,1,.01.019Z" transform="translate(-1185.323 -1024.635)" fill="#2b478b"/>
                <path id="Trazado_621724" data-name="Trazado 621724" d="M1185.988,1024.89h0l.028-.238a.019.019,0,0,1,.019-.017h0l0,0a.029.029,0,0,1,.008.02l0,.171A.061.061,0,0,1,1185.988,1024.89Z" transform="translate(-1185.409 -1024.635)" fill="#3f65b2"/>
                <rect id="Rectángulo_296443" data-name="Rectángulo 296443" width="0.214" height="9.457" transform="translate(0.536 1.64)" fill="#2b478b"/>
                <rect id="Rectángulo_296444" data-name="Rectángulo 296444" width="0.099" height="9.457" transform="translate(0.536 1.64)" fill="#4365aa"/>
                <rect id="Rectángulo_296445" data-name="Rectángulo 296445" width="0.682" height="2.502" transform="translate(0.302 9.588)" fill="#2b478b"/>
                <rect id="Rectángulo_296446" data-name="Rectángulo 296446" width="0.407" height="2.502" transform="translate(0.302 9.588)" fill="#4365aa"/>
                <path id="Trazado_621725" data-name="Trazado 621725" d="M1181.993,1028.366c0,.117-.176.212-.392.212l-.049,0c-.193-.013-.343-.1-.343-.21s.15-.2.343-.21l.049,0C1181.818,1028.154,1181.993,1028.249,1181.993,1028.366Z" transform="translate(-1180.977 -1027.901)" fill="#2b478b"/>
                <path id="Trazado_621726" data-name="Trazado 621726" d="M1181.79,1028.388c0,.094-.1.175-.238.21-.193-.013-.343-.1-.343-.21s.15-.2.343-.21C1181.692,1028.213,1181.79,1028.294,1181.79,1028.388Z" transform="translate(-1180.977 -1027.923)" fill="#3f65b2"/>
                <path id="Trazado_621727" data-name="Trazado 621727" d="M1179.75,1035.095h-.682l-.24-1.158h1.126Z" transform="translate(-1178.766 -1033.268)" fill="#3f65b2"/>
                <rect id="Rectángulo_296447" data-name="Rectángulo 296447" width="1.248" height="0.111" transform="translate(0 0.581)" fill="#2b478b"/>
                <rect id="Rectángulo_296448" data-name="Rectángulo 296448" width="0.785" height="0.111" transform="translate(0 0.581)" fill="#3f65b2"/>
                <path id="Trazado_621728" data-name="Trazado 621728" d="M1183.74,1155.176h.436l-.064-.194a.042.042,0,0,0-.04-.029h-.2a.054.054,0,0,0-.051.034Z" transform="translate(-1183.326 -1145.589)" fill="#365da4"/>
                <path id="Trazado_621729" data-name="Trazado 621729" d="M1179.949,1034.722h.962l-.188,1.041h-.552Z" transform="translate(-1179.807 -1033.997)" fill="#f9ddbf"/>
                <path id="Trazado_621730" data-name="Trazado 621730" d="M1181.569,1029.266s.073-.16.218-.155c0,0-.092.082-.083.155S1181.569,1029.266,1181.569,1029.266Z" transform="translate(-1181.311 -1028.789)" fill="#c7dcf9"/>
                <path id="Trazado_621731" data-name="Trazado 621731" d="M1180.179,1031.084h-1.089l.089-.127h.915Z" transform="translate(-1179.011 -1030.503)" fill="#2b478b"/>
                <path id="Trazado_621732" data-name="Trazado 621732" d="M1179.911,1031.084h-.821l.089-.127h.647Z" transform="translate(-1179.011 -1030.503)" fill="#3f65b2"/>
                <path id="Trazado_621733" data-name="Trazado 621733" d="M1180.838,1035.228h.22l.064.972h-.064Z" transform="translate(-1180.633 -1034.466)" fill="#ffebd9"/>
              </g>
              <g id="Grupo_887962" data-name="Grupo 887962" transform="translate(11.423 29.486)">
                <g id="Grupo_887961" data-name="Grupo 887961">
                  <path id="Trazado_621734" data-name="Trazado 621734" d="M1021.633,1160.936l-.145.572h0l-.431,1.694a.05.05,0,0,1-.048.038.069.069,0,0,1-.068-.083l.384-1.976.048-.246Z" transform="translate(-1020.939 -1160.936)" fill="#edbe9d"/>
                </g>
                <path id="Trazado_621735" data-name="Trazado 621735" d="M1026.465,1161.508c.014-.292-.163-.326-.163-.326l.048-.246h.26Z" transform="translate(-1025.917 -1160.936)" fill="#b27d59"/>
              </g>
              <g id="Grupo_887964" data-name="Grupo 887964" transform="translate(13.265 29.486)">
                <g id="Grupo_887963" data-name="Grupo 887963">
                  <path id="Trazado_621736" data-name="Trazado 621736" d="M1047.272,1160.936l-.146.572h0l-.43,1.694a.05.05,0,0,1-.048.038.07.07,0,0,1-.068-.083l.384-1.976.048-.246Z" transform="translate(-1046.578 -1160.936)" fill="#edbe9d"/>
                </g>
                <path id="Trazado_621737" data-name="Trazado 621737" d="M1052.1,1161.508c.014-.292-.163-.326-.163-.326l.048-.246h.26Z" transform="translate(-1051.556 -1160.936)" fill="#b27d59"/>
              </g>
              <g id="Grupo_887966" data-name="Grupo 887966" transform="translate(21.108 29.486)">
                <g id="Grupo_887965" data-name="Grupo 887965">
                  <path id="Trazado_621738" data-name="Trazado 621738" d="M1155.71,1160.936l.145.572h0l.431,1.694a.05.05,0,0,0,.048.038.07.07,0,0,0,.068-.083l-.384-1.976-.048-.246Z" transform="translate(-1155.71 -1160.936)" fill="#edbe9d"/>
                </g>
                <path id="Trazado_621739" data-name="Trazado 621739" d="M1155.855,1161.508c-.014-.292.163-.326.163-.326l-.048-.246h-.26Z" transform="translate(-1155.71 -1160.936)" fill="#b27d59"/>
              </g>
              <g id="Grupo_887968" data-name="Grupo 887968" transform="translate(19.265 29.486)">
                <g id="Grupo_887967" data-name="Grupo 887967">
                  <path id="Trazado_621740" data-name="Trazado 621740" d="M1130.071,1160.936l.146.572h0l.43,1.694a.05.05,0,0,0,.048.038.07.07,0,0,0,.068-.083l-.384-1.976-.048-.246Z" transform="translate(-1130.071 -1160.936)" fill="#edbe9d"/>
                </g>
                <path id="Trazado_621741" data-name="Trazado 621741" d="M1130.217,1161.508c-.014-.292.163-.326.163-.326l-.048-.246h-.26Z" transform="translate(-1130.071 -1160.936)" fill="#b27d59"/>
              </g>
              <path id="Trazado_621742" data-name="Trazado 621742" d="M1027.279,1131.752h-1.761c-.176-.259.024-.857.083-1.123.063-.286-.282-.744-.387-.874h1.383C1026.784,1130.275,1027.2,1131.348,1027.279,1131.752Z" transform="translate(-1013.484 -1102.511)" fill="#d3a07d"/>
              <path id="Trazado_621743" data-name="Trazado 621743" d="M1114.4,1131.752h-1.761c-.176-.259.024-.857.083-1.123.063-.286-.282-.744-.387-.874h1.383C1113.9,1130.275,1114.323,1131.348,1114.4,1131.752Z" transform="translate(-1094.342 -1102.511)" fill="#d3a07d"/>
              <path id="Trazado_621744" data-name="Trazado 621744" d="M1734.868,933.941s-.527.216-.618.615S1734.94,934.874,1734.868,933.941Z" transform="translate(-1671.559 -920.768)" fill="#ffa49f"/>
              <path id="Trazado_621745" data-name="Trazado 621745" d="M1751.13,870.88s.836.694,1.195.319S1751.13,870.88,1751.13,870.88Z" transform="translate(-1687.233 -862.236)" fill="#ffa49f"/>
              <path id="Trazado_621746" data-name="Trazado 621746" d="M1797.341,986.273s-1.178.239-1.024.6S1797.341,986.273,1797.341,986.273Z" transform="translate(-1729.159 -969.339)" fill="#ffa49f"/>
              <path id="Trazado_621747" data-name="Trazado 621747" d="M1713.761,983.028s.031.752.687.74C1714.448,983.768,1714.66,983.244,1713.761,983.028Z" transform="translate(-1652.549 -966.327)" fill="#ffa49f"/>
              <path id="Trazado_621748" data-name="Trazado 621748" d="M1569.554,1014.695s-.353.489-.705.512-.467.41,0,.432S1569.657,1014.888,1569.554,1014.695Z" transform="translate(-1517.764 -995.719)" fill="#ffa49f"/>
              <path id="Trazado_621749" data-name="Trazado 621749" d="M1556.051,993.324s.239.671.523.489S1556.051,993.324,1556.051,993.324Z" transform="translate(-1506.173 -975.884)" fill="#ffa49f"/>
            </g>
            <g id="Grupo_887979" data-name="Grupo 887979" transform="translate(105.155 57.741)">
              <g id="Grupo_887973" data-name="Grupo 887973" transform="translate(92.335 5.818)">
                <g id="Grupo_887970" data-name="Grupo 887970" transform="translate(0 83.793)">
                  <path id="Trazado_621750" data-name="Trazado 621750" d="M2633.668,1627.133l-1.551,6.53-2.322-.013-.085-6.517Z" transform="translate(-2601.663 -1626.552)" fill="#ffb27d"/>
                  <path id="Trazado_621751" data-name="Trazado 621751" d="M2445.629,1622.969l-4.411,6.252-1.719-2.208,2.655-4.9Z" transform="translate(-2433.459 -1622.109)" fill="#ffb27d"/>
                  <path id="Trazado_621752" data-name="Trazado 621752" d="M2628.231,1680.418a6.3,6.3,0,0,0,.3,2.677s.38,1.732-1.325,1.764-2.124-.129-1.931-1.191.561-2.9.561-2.9Z" transform="translate(-2597.699 -1673.672)" fill="#ffb27d"/>
                  <path id="Trazado_621753" data-name="Trazado 621753" d="M2624.2,1705.832l.006,0h3.529l.006,0a9.1,9.1,0,0,0-.123-2.612c-1.931,1.847-3.14-.046-3.14-.046A9.867,9.867,0,0,0,2624.2,1705.832Z" transform="translate(-2596.79 -1693.794)" fill="#599dad"/>
                  <path id="Trazado_621754" data-name="Trazado 621754" d="M2403.96,1669.839a45.543,45.543,0,0,0,4.111-5.347l2.338,1.2-5.227,4.909-1.223-.161Z" transform="translate(-2402.031 -1659.588)" fill="#ffb27d"/>
                  <path id="Trazado_621755" data-name="Trazado 621755" d="M2387.3,1680.689h4.364a7.124,7.124,0,0,0,1.2-1.958,2.112,2.112,0,0,1,1.424-.971v2.93h.9l.836-3.115a2.962,2.962,0,0,0-.253-2.826c-.456,0-1.777.328-4.1,3a3.022,3.022,0,0,1-2.444,1.164.251.251,0,0,1-.034.018A3.238,3.238,0,0,0,2387.3,1680.689Z" transform="translate(-2387.299 -1668.658)" fill="#599dad"/>
                </g>
                <g id="Grupo_887972" data-name="Grupo 887972" transform="translate(6.308)">
                  <g id="Grupo_887971" data-name="Grupo 887971">
                    <path id="Trazado_621756" data-name="Trazado 621756" d="M2593.13,904.873a.171.171,0,0,0,.014-.049.026.026,0,0,1,.007-.021c.092-.316.2-.632.3-.941V903.8a20.944,20.944,0,0,1,1.11-2.577v-.007c.239-.456.478-.885.716-1.257.035-.056.07-.112.105-.162a.254.254,0,0,1,.042-.056.545.545,0,0,1,.056-.084,6.023,6.023,0,0,1,.752-.927,2.094,2.094,0,0,1,.779-.527,4.6,4.6,0,0,1,2.535.028,1.119,1.119,0,0,0-.464-.351,3.847,3.847,0,0,1,1.278.625c2.03-.344,3.091.16,3.878,1.312a5.727,5.727,0,0,1,.857,1.994v.007a10.6,10.6,0,0,1,.253,1.425v.007a18.019,18.019,0,0,1-.051,4.9c-.52,1.966,1.426,3.034,4.136,5.211,5.168,4.157,4.866,8.265,4.866,8.265-.049.021-.1.035-.155.063-.19-.541-.6-1.573-1.067-1.812.007.049.337,1.376.407,2.107-1.854.9-5.3,2.935-7.893,4.494-.162.091-.316.19-.47.281a3.334,3.334,0,0,0,.105-1.292l-.611,1.594c-.569.351-1.074.653-1.468.9-.569.351-.913.562-.913.562a2.045,2.045,0,0,0-.105-1v-.007a12.1,12.1,0,0,0-.428-1.18,44.67,44.67,0,0,0-2.851-5.5c-.084-.141-.176-.281-.26-.421a49.219,49.219,0,0,0-3.778-5.463,16.8,16.8,0,0,0-1.137-1.271l-.042-.042a5.545,5.545,0,0,1-.33-1.187,13.948,13.948,0,0,1-.162-3,12.676,12.676,0,0,0-.063,3.005,4.635,4.635,0,0,0,.126.7,3.286,3.286,0,0,1-.386-.688C2591.993,910.582,2592.316,907.612,2593.13,904.873Z" transform="translate(-2574.923 -897.879)" fill="#bc3f3f"/>
                    <path id="Trazado_621757" data-name="Trazado 621757" d="M2611.309,995.129a5.469,5.469,0,0,0,3.356.613,4.353,4.353,0,0,0,2.235-2.143c-.577-.115-.744-.908-.731-4.317l-.261.051-4.388.869s.1,1.381.1,2.682C2611.625,993.977,2611.559,995.013,2611.309,995.129Z" transform="translate(-2591.699 -978.707)" fill="#ffb27d"/>
                    <path id="Trazado_621758" data-name="Trazado 621758" d="M2613.13,990.594s.1,1.381.1,2.682c2.455-.069,3.753-2.309,4.285-3.551Z" transform="translate(-2593.31 -979.099)" fill="#ef9e67"/>
                    <path id="Trazado_621759" data-name="Trazado 621759" d="M2608.512,918.69a12.907,12.907,0,0,0,2.309-3.382c.461-1.173.751-5.808-3.913-6.073a6.281,6.281,0,0,0-2.748.451c-1.118.466-2.827,1.615-2.033,5.871l.145,1.413Z" transform="translate(-2583.4 -907.909)" fill="#bc3f3f"/>
                    <path id="Trazado_621760" data-name="Trazado 621760" d="M2441.822,1260.881s1.166.2,2.124.274c.212.016.415.026.591.026a10.4,10.4,0,0,0,1.85-.3l.042-.01c.245-.058.432-.105.5-.123l.029-.008a49.687,49.687,0,0,0,9.078-16.854q.114-.363.241-.733c1.786-5.206,5.487-11.74,7.438-17.655q.465-1.412.839-2.667.121-.4.233-.792a62.7,62.7,0,0,0,2.237-11.777l-11.727,2.984S2450.374,1234.585,2441.822,1260.881Z" transform="translate(-2441.822 -1174.116)" fill="#a8d29f"/>
                    <path id="Trazado_621761" data-name="Trazado 621761" d="M2599.39,931.684s5.677,1.242,6.4-2.3,1.936-5.775-1.658-6.718-4.574.267-5.1,1.393S2597.932,931.27,2599.39,931.684Z" transform="translate(-2580.338 -919.495)" fill="#ffb27d"/>
                    <path id="Trazado_621762" data-name="Trazado 621762" d="M2625.169,916.436s.72,4.476,2.989,5.574,3.437.666,3.437.666a10.327,10.327,0,0,1-.566-4.245S2626.744,914.692,2625.169,916.436Z" transform="translate(-2603.956 -913.879)" fill="#bc3f3f"/>
                    <path id="Trazado_621763" data-name="Trazado 621763" d="M2601.749,916.688a5.132,5.132,0,0,0-1.818,1.541c-.466.846-.968,2.68-1.5,2.508,0,0-.6-3.066,1.038-4.4C2601.214,914.922,2601.749,916.688,2601.749,916.688Z" transform="translate(-2580.217 -913.715)" fill="#bc3f3f"/>
                    <path id="Trazado_621764" data-name="Trazado 621764" d="M2460.179,1339.135c.213.016.415.026.591.026a10.388,10.388,0,0,0,1.849-.3l.042-.009.5-.123.029-.008a49.69,49.69,0,0,0,9.078-16.854q.114-.363.241-.733c1.786-5.206,5.487-11.74,7.438-17.655.31-.942.589-1.829.839-2.668.08-.269.158-.532.232-.792l-2.073-1.574s-6.227,10.083-8.155,19.572C2469.194,1325.877,2462.314,1336.074,2460.179,1339.135Z" transform="translate(-2458.055 -1252.095)" fill="#82b378"/>
                    <path id="Trazado_621765" data-name="Trazado 621765" d="M2609.935,1298.443c-.035,4.614.2,15.223.8,19.616a3.129,3.129,0,0,0,1.983.51,3.41,3.41,0,0,0,2.094-.528c1.508-7.637,2.58-13.955,3.361-19.4.641-4.468,1.21-8.3,1.648-11.6.388-2.922.673-5.426.809-7.585q.027-.44.047-.86c.017-.37.03-.73.037-1.078s.008-.693.006-1.024l-.051,0-2.914-.284-9.205-.9C2608.7,1283.4,2609.955,1295.761,2609.935,1298.443Z" transform="translate(-2589.261 -1231.642)" fill="#a8d29f"/>
                    <path id="Trazado_621766" data-name="Trazado 621766" d="M2644.558,1310.923a3.6,3.6,0,0,0,2.094-.528c1.508-7.637,2.581-13.955,3.362-19.4.641-4.468,1.21-8.3,1.647-11.6.388-2.922.673-5.426.81-7.585.016-1.064.027-2.083.04-2.966s.028-1.654.052-2.182l-2.965,1.9-3.12,2s4.426,4.027,3.339,11.638S2646.072,1309.845,2644.558,1310.923Z" transform="translate(-2621.102 -1223.996)" fill="#82b378"/>
                    <path id="Trazado_621767" data-name="Trazado 621767" d="M2532.761,1022.382s-3.788-.468-5.375,1.112c-1.946,1.936-5.6,13.034-5.454,14.3.056.484,1.975.259,2.634-.432C2527.846,1033.922,2531.608,1024.957,2532.761,1022.382Z" transform="translate(-2512.659 -1007.92)" fill="#6bb7bf"/>
                    <path id="Trazado_621768" data-name="Trazado 621768" d="M2538.934,1054.149c3.531.918,20.01,2.729,20.152-1.4.035-1.007,0-2.223-.08-3.539-.246-4.077-.915-9.115-1.236-11.887-.147-1.271.342-6.962-.033-10.063a7.066,7.066,0,0,0-.228-1.185c-.712-2.34-3.91-2.975-5.552-3.031l-4.954-.169s-5.116,5.715-5.828,7.47-.944,7.766-1.5,10.676S2537.217,1053.7,2538.934,1054.149Z" transform="translate(-2527.079 -1008.415)" fill="#6bb7bf"/>
                    <path id="Trazado_621769" data-name="Trazado 621769" d="M2626.928,1073.718s2.754,8.458,10.34,9.012c-.246-4.077-.914-9.115-1.235-11.887-.147-1.271.341-6.962-.034-10.063-.1.021-.188.076-.291.1C2627.354,1062.488,2626.169,1071.954,2626.928,1073.718Z" transform="translate(-2605.34 -1041.932)" fill="#599dad"/>
                    <path id="Trazado_621770" data-name="Trazado 621770" d="M2524.023,1133.94a16.779,16.779,0,0,0,11.032-.985,10.029,10.029,0,0,1,2.469.052s-.176-1.637-.977-2.082-4.245.518-5.275.376C2529.021,1130.992,2525.1,1130.749,2524.023,1133.94Z" transform="translate(-2514.512 -1103.857)" fill="#ef9e67"/>
                    <path id="Trazado_621771" data-name="Trazado 621771" d="M2546.552,1075.263s-.467-4.041,1.115-6.477a.843.843,0,0,0-.959.443c-.4.633-3.194,6.636-1.864,7.078S2546.552,1075.263,2546.552,1075.263Z" transform="translate(-2532.609 -1048.989)" fill="#599dad"/>
                    <path id="Trazado_621772" data-name="Trazado 621772" d="M2625.078,1130.807a12.486,12.486,0,0,1,2.752.582c.4.285.047,1.281-.712,1.376S2625.078,1130.807,2625.078,1130.807Z" transform="translate(-2603.875 -1103.857)" fill="#ef9e67"/>
                    <path id="Trazado_621773" data-name="Trazado 621773" d="M2577.007,1133.523a93.494,93.494,0,0,1-12.37-1.376s-1.075.009-.949.949,10.2,6.2,12.412,5.185Z" transform="translate(-2549.579 -1105.042)" fill="#ffb27d"/>
                    <path id="Trazado_621774" data-name="Trazado 621774" d="M2550.291,1125.8s-.688-.83-1.116-.83a2.483,2.483,0,0,0-1.708,1.044c-.166.5,1.319.142,1.874.735S2550.291,1125.8,2550.291,1125.8Z" transform="translate(-2535.233 -1098.697)" fill="#ffb27d"/>
                    <path id="Trazado_621775" data-name="Trazado 621775" d="M2645.981,1024.338s5.451.013,6.248,1.971c1.455,3.575-3.341,15.434-4.606,16.636-.545.517-3.065-.3-3.065-3.714C2644.558,1037.46,2644.685,1027.11,2645.981,1024.338Z" transform="translate(-2621.102 -1009.707)" fill="#6bb7bf"/>
                  </g>
                </g>
              </g>
              <g id="Grupo_887978" data-name="Grupo 887978">
                <g id="Grupo_887975" data-name="Grupo 887975" transform="translate(0 2.72)">
                  <path id="Trazado_621776" data-name="Trazado 621776" d="M2087.085,1056.9c-.423.19-.948.427-1.42.642a8.478,8.478,0,0,0-.523-.831s-6.135-10.351-6.646-12.771c-.166-.788-.573-2.365-1.049-4.132-.985-3.658-2.256-8.135-2.256-8.135l-.418-1.812-1.427-6.181a19.406,19.406,0,0,1,4.331.947,1.99,1.99,0,0,1,1.074.795c1.174,2.582,2.346,9.1,3.17,13.746.46,2.591.81,4.6.992,5.029.51,1.188,2.068,7.73,3.4,10.958A8.625,8.625,0,0,0,2087.085,1056.9Z" transform="translate(-2052.336 -1006.029)" fill="#d9935c"/>
                  <path id="Trazado_621777" data-name="Trazado 621777" d="M2179.668,1316.781a2.05,2.05,0,0,0,.144,1.021c.216.385,1.044.943,1.185.663C2181.186,1318.09,2179.668,1316.781,2179.668,1316.781Z" transform="translate(-2146.345 -1265.216)" fill="#d9935c"/>
                  <path id="Trazado_621778" data-name="Trazado 621778" d="M2100.436,1691.338a19.439,19.439,0,0,1-2.977,1.961c-.86.314-2.03.612-2.029,1.191h4.09s1.112-.517,1.578-.294a3.917,3.917,0,0,0,1.9.306c.519,0,.553-1.742.115-2.349a7.133,7.133,0,0,1-.761-1.543Z" transform="translate(-2071.864 -1595.794)" fill="#163560"/>
                  <path id="Trazado_621779" data-name="Trazado 621779" d="M1904.774,1034.027c-.187-.576-.328-.994-.4-1.2l-.049-.147a1.821,1.821,0,0,0-.151.172c-.58.727-2.571,3.852-1.075,11.085.22,1.064.515,2.218.9,3.465,0,0-5.513-.973-7.07-2.01-.065-.162-.876-2.562-1.492-2.886a4.167,4.167,0,0,0-2.01-.551,2.845,2.845,0,0,0,0,2.886,9.448,9.448,0,0,0,2.659,1.849s6.162,4.929,10.443,4.8C1910.108,1051.379,1906.166,1038.318,1904.774,1034.027Z" transform="translate(-1892.884 -1013.985)" fill="#d9935c"/>
                  <path id="Trazado_621780" data-name="Trazado 621780" d="M2025.964,886.494c-2.4-1.477,1.087-4.764,0-9.528s-5.025-3.865-7.928-5.393a3.378,3.378,0,0,0-4.271.708c-2.617-.193-5.672,3.478-5.672,3.478l5.066,6.715-.192,8.155s4.363,6.495,8.579,6.315S2030.242,889.123,2025.964,886.494Z" transform="translate(-1994.631 -871.103)" fill="#233862"/>
                  <path id="Trazado_621781" data-name="Trazado 621781" d="M1982.64,1303.3a39.381,39.381,0,0,1-3.187,7.388l-2.618.628a57.162,57.162,0,0,0,1.287-8.807,42.883,42.883,0,0,0-.875-13.763c-4.054-16.41-2.058-27.884-2.058-27.884l10.342,2.216.482.1c-.412,4.807-.907,11.34-1.282,16.449-.339,4.595-.581,8.038-.581,8.038C1985.748,1292.188,1984.438,1298.231,1982.64,1303.3Z" transform="translate(-1965.1 -1215.766)" fill="#163560"/>
                  <path id="Trazado_621782" data-name="Trazado 621782" d="M2037.591,1285.262a53.429,53.429,0,0,1,1.14,12.1s-.433.584-.821.668a5.515,5.515,0,0,1-1.1.06,41.875,41.875,0,0,0-3.748-10.039c-2.7-4.9-5.05-9.2-5.933-10.854-3.5-6.578-3.65-30.757-3.65-30.757l10.651-.528c1.071,1.8,1.538,4.754,1.649,8.112.28,8.476-1.712,19.527-2.01,21.126a.007.007,0,0,1,0,0,.557.557,0,0,0,.07.357C2035.96,1279.7,2036.7,1281.08,2037.591,1285.262Z" transform="translate(-2008.24 -1202.544)" fill="#1c468a"/>
                  <path id="Trazado_621783" data-name="Trazado 621783" d="M1981.677,1011.274c2.678-.031,9.964-.17,11.716-.754a4.025,4.025,0,0,0,2.652-3.057c0-.049-.177-1.039-.457-2.574a6.575,6.575,0,0,1-.856-2.632,4.269,4.269,0,0,1,.158-1.182c.232-.9.712-2.087,1.422-4.052a10.86,10.86,0,0,0,.529-2.118c.714-4.8-1.1-10.611-3.288-11.963a4.6,4.6,0,0,0-1.171-.211c-.565-.15-1.522-2.191-1.51-5.478l-.255.05-4.276.847s.1,1.346.1,2.613c0,1.056-.061,2.057-.3,2.184-.307.027-.489.046-.489.046l-.012.016c-.814.053-2.976.245-3.262.829l.79,2.4.229.7a18.332,18.332,0,0,0-1.448,4.324,11.51,11.51,0,0,0-.162,1.289,9.221,9.221,0,0,0-.009,1.05c.171,3.917,2.636,6.284-.015,14.758A4.368,4.368,0,0,0,1981.677,1011.274Z" transform="translate(-1971.086 -964.971)" fill="#d9935c"/>
                  <path id="Trazado_621784" data-name="Trazado 621784" d="M1981.677,1077.982c1.334,1.807,9.2,1.807,10.953,1.223,2.157-.72,3.416-4.809,3.416-5.034,0-.049-.177-1.04-.457-2.574-.191-1.057-.433-2.373-.7-3.814-1.166-6.333-2.794-15.095-2.794-15.095s-3.539,3.065-5.9,2.427a4.366,4.366,0,0,1-3-2.248s-.008.027-.024.078a37.045,37.045,0,0,0-1.189,4.731c-.008.067-.017.164-.03.291-.04.456-.1,1.278-.171,2.34.171,3.917,2.636,6.284-.015,14.757A4.369,4.369,0,0,0,1981.677,1077.982Z" transform="translate(-1971.086 -1031.679)" fill="#82b378"/>
                  <path id="Trazado_621785" data-name="Trazado 621785" d="M2023.6,978.527s.1,1.346.1,2.614c2.393-.068,3.657-2.25,4.176-3.46Z" transform="translate(-2008.341 -965.349)" fill="#cb7d45"/>
                  <path id="Trazado_621786" data-name="Trazado 621786" d="M2007.731,906.505a12.569,12.569,0,0,0,1.555-3.675c.215-1.21-.4-5.693-4.906-5.047a6.119,6.119,0,0,0-2.538.96c-.978.661-2.39,2.087-.811,6l.41,1.321Z" transform="translate(-1987.759 -894.64)" fill="#233862"/>
                  <path id="Trazado_621787" data-name="Trazado 621787" d="M2002.278,922.361s5.661.093,5.665-3.433.737-5.89-2.877-6.1-4.318,1.136-4.606,2.313S2000.806,922.246,2002.278,922.361Z" transform="translate(-1987.822 -907.983)" fill="#d9935c"/>
                  <path id="Trazado_621788" data-name="Trazado 621788" d="M2003.457,908.894c2.379.612,3.411-.026,3.411-.026a53.931,53.931,0,0,0-.441-5.776s-4.195-.158-6.851.982c-.37-.319-1.032-.552-1.907.509-1.312,1.591-.145,4.4-.145,4.4.539.063.666-1.786.948-2.684a4.432,4.432,0,0,1,1.235-1.645c.111.408,1.25,4.368,4.1,5.683a13.212,13.212,0,0,1-2.273-2.776A4.045,4.045,0,0,0,2003.457,908.894Z" transform="translate(-1984.863 -899.384)" fill="#233862"/>
                  <path id="Trazado_621789" data-name="Trazado 621789" d="M2039.685,1066.321c.477,4.157.717,14.4-.626,18.262,4.273-.44,12-3.2,14.289-5.551a83.543,83.543,0,0,1-2.733-14.535c-.072-1.062-.183-2.366-.325-3.845-.573-6.012-1.642-14.913-2.561-22.261-.9-7.23-1.662-12.959-1.662-12.959l-2.075-.375s-2.975,2.432-3.457,10.7S2038.975,1060.131,2039.685,1066.321Z" transform="translate(-2022.015 -1007.244)" fill="#bc3f3f"/>
                  <path id="Trazado_621790" data-name="Trazado 621790" d="M1957.212,1026.853a7.292,7.292,0,0,0-3.124.673c-.8.611-2.941,4.676-2.628,10.755-.234,1-.452,2.029-.65,3.064a3.526,3.526,0,0,1-1.4-.07,21.593,21.593,0,0,0,.457,7.081q-.043.665-.063,1.306c-.27,8.989,3.044,21.632,3.044,21.632s1.128-10.139,1.608-21.317c.328-7.654-.809-12.4.505-16.416C1955.581,1031.68,1957.212,1026.853,1957.212,1026.853Z" transform="translate(-1942.647 -1008.832)" fill="#bc3f3f"/>
                  <path id="Trazado_621791" data-name="Trazado 621791" d="M1954.409,1691.671a19.607,19.607,0,0,1-3.207,2.427c-.861.314-2.03.612-2.029,1.191h4.09s1.113-.517,1.578-.294a3.921,3.921,0,0,0,1.9.305c.519,0,.553-1.742.115-2.349a1.49,1.49,0,0,1,.022-1.438Z" transform="translate(-1942.529 -1596.593)" fill="#163560"/>
                  <g id="Grupo_887974" data-name="Grupo 887974" transform="translate(0 24.821)">
                    <path id="Trazado_621792" data-name="Trazado 621792" d="M1898.7,1091.174l-1.805-5.422a.168.168,0,0,0-.213-.107l-2.4.8a.169.169,0,0,0-.107.213l1.805,5.422a.168.168,0,0,0,.213.106l2.4-.8A.169.169,0,0,0,1898.7,1091.174Z" transform="translate(-1893.89 -1085.637)" fill="#163560"/>
                    <path id="Trazado_621793" data-name="Trazado 621793" d="M1896.2,1092.207l-1.723-5.174a.3.3,0,0,0-.378-.189l-2.148.715a.3.3,0,0,0-.189.378l1.723,5.174a.3.3,0,0,0,.378.189l2.148-.715A.3.3,0,0,0,1896.2,1092.207Z" transform="translate(-1891.746 -1086.69)" fill="#1c468a"/>
                  </g>
                  <path id="Trazado_621794" data-name="Trazado 621794" d="M1895.2,1109.62s.486-1.005,1.378-.6.5,1.929-.016,2.465a5.238,5.238,0,0,0-.665.778Z" transform="translate(-1894.802 -1081.408)" fill="#d9935c"/>
                  <path id="Trazado_621795" data-name="Trazado 621795" d="M2094.074,1156.267c-.573-6.012-1.643-14.913-2.561-22.261a5.108,5.108,0,0,0-1.549-.824S2084.905,1147.838,2094.074,1156.267Z" transform="translate(-2065.799 -1102.86)" fill="#a53d38"/>
                  <path id="Trazado_621796" data-name="Trazado 621796" d="M2094.686,1028.291a5.583,5.583,0,0,1,3.064,1.923c1.336,1.944,3.506,16.517,4.652,19.012s1.686,3.573,1.686,3.573a6.321,6.321,0,0,1-3.236,6.15s-4.652-8.442-5.258-9.655S2093.037,1030.885,2094.686,1028.291Z" transform="translate(-2070.634 -1010.105)" fill="#bc3f3f"/>
                  <path id="Trazado_621797" data-name="Trazado 621797" d="M2181.095,1310.749s1.74,1.213,1.877,1.635-.5,1.553-1.05,1.532-.4-.892-.712-1.173-1.728-.581-1.536-1.351S2181.095,1310.749,2181.095,1310.749Z" transform="translate(-2146.345 -1259.875)" fill="#d9935c"/>
                </g>
                <g id="Grupo_887977" data-name="Grupo 887977" transform="translate(32.445)">
                  <g id="Grupo_887976" data-name="Grupo 887976">
                    <path id="Trazado_621798" data-name="Trazado 621798" d="M2245.306,982.908s-6.443-.055-7.994,2.12-4.95,13.873-3.176,17.766,5.094-1.61,6.936-3.994S2245.306,982.908,2245.306,982.908Z" transform="translate(-2226.526 -967.252)" fill="#d86713"/>
                    <path id="Trazado_621799" data-name="Trazado 621799" d="M2333.783,945.047l0,.666s-.182,2.083,2.383,2.387,4.508-.812,4.438-2.42a18.888,18.888,0,0,1-.5-3.129,7.269,7.269,0,0,1,.091-1.247l-4.97-.1-1.464.239Z" transform="translate(-2315.068 -930.374)" fill="#ffb27d"/>
                    <path id="Trazado_621800" data-name="Trazado 621800" d="M2333.764,941.444l.019,3.6a4.2,4.2,0,0,0,1.792.4,5.551,5.551,0,0,0,4.532-2.891,7.269,7.269,0,0,1,.091-1.247l-4.97-.1Z" transform="translate(-2315.068 -930.374)" fill="#e2915a"/>
                    <path id="Trazado_621801" data-name="Trazado 621801" d="M2329.956,875.413c-.577,3.1-4.581,3-6.311,2.806-.487-.054-.793-.116-.793-.116-.55-.147-.856-1.012-1-2.145a17.651,17.651,0,0,1,.453-6.375c.57-1.267,1.644-2.637,5.676-1.648S2330.7,871.436,2329.956,875.413Z" transform="translate(-2304.446 -865.282)" fill="#ffb27d"/>
                    <path id="Trazado_621802" data-name="Trazado 621802" d="M2371.815,1698.426a11.517,11.517,0,0,1,.789-2.954c.551-1.1,4.056-.4,4.056-.4s.7.6.852,3.405Z" transform="translate(-2348.717 -1596.824)" fill="#233862"/>
                    <path id="Trazado_621803" data-name="Trazado 621803" d="M2183.331,1680.752c.824-.5.355-4.253.355-4.253s-3.838-3.071-4.366-.72-3.646,3.406-5.421,3.694a1.9,1.9,0,0,0-1.722,1.279Z" transform="translate(-2172.176 -1579.175)" fill="#233862"/>
                    <path id="Trazado_621804" data-name="Trazado 621804" d="M2253.263,1058.262s-3.249,6.76-3.177,8.409a4.362,4.362,0,0,1,3.177-.946C2255.291,1065.868,2253.263,1058.262,2253.263,1058.262Z" transform="translate(-2241.072 -1033.888)" fill="#ba550f"/>
                    <path id="Trazado_621805" data-name="Trazado 621805" d="M2324.421,942.126c-.487-.054-.793-.116-.793-.116-.549-.147-.856-1.012-1-2.145a2.712,2.712,0,0,1,1.7,1.388A2,2,0,0,1,2324.421,942.126Z" transform="translate(-2305.222 -929.189)" fill="#e2915a"/>
                    <path id="Trazado_621806" data-name="Trazado 621806" d="M2306.616,944.952s-2.242-3.7-.5-3.861a2.636,2.636,0,0,1,2.7,1.453,7.134,7.134,0,0,1-.066,2.389Z" transform="translate(-2290.034 -930.26)" fill="#ffb27d"/>
                    <path id="Trazado_621807" data-name="Trazado 621807" d="M2237.36,1270.951a17.668,17.668,0,0,0-.282,2.073c-.357,6.959-5.858,22.873-6.843,23.244-1.522.575-3.92-.647-5.175-1.046a1.076,1.076,0,0,1-.755-1.222c2.724-12.525,3.726-30.561,4.09-41.239a48.448,48.448,0,0,1,1.107-9.094s13.418-3.58,13.5.949C2243.072,1248.623,2238.557,1264.34,2237.36,1270.951Z" transform="translate(-2218.255 -1196.653)" fill="#2b478b"/>
                    <path id="Trazado_621808" data-name="Trazado 621808" d="M2268.79,1270.951l-8.964-18.191a48.423,48.423,0,0,1,1.107-9.094s13.418-3.58,13.5.949C2274.5,1248.623,2269.987,1264.34,2268.79,1270.951Z" transform="translate(-2249.685 -1196.653)" fill="#233862"/>
                    <path id="Trazado_621809" data-name="Trazado 621809" d="M2311.5,1249.771l7.094,51.411a13.879,13.879,0,0,0,5.538.15s2.077-27.343,1.9-33.953,1.491-17.689-.38-18.91S2311.5,1249.771,2311.5,1249.771Z" transform="translate(-2295.379 -1201.793)" fill="#2b478b"/>
                    <path id="Trazado_621810" data-name="Trazado 621810" d="M2285.928,1000.066c-.02-.222-.038-.442-.056-.661,0-.058-.009-.115-.013-.173-.014-.172-.027-.344-.04-.515,0-.05-.007-.1-.011-.149q-.048-.654-.087-1.291l-.009-.142c-.011-.176-.021-.351-.031-.526,0-.038,0-.076-.006-.114-.011-.213-.023-.425-.034-.635a.058.058,0,0,1,0-.013c-.011-.2-.02-.4-.03-.6,0-.046,0-.093-.007-.138-.008-.17-.016-.339-.023-.506l0-.1c-.01-.2-.017-.4-.025-.6,0-.027,0-.053,0-.081q-.01-.25-.019-.5c0-.057,0-.114-.007-.171q-.007-.211-.016-.42c0-.054,0-.107-.006-.16q-.008-.255-.017-.507c-.005-.129-.009-.257-.013-.384,0-.027,0-.054,0-.082q-.033-1-.067-1.945c0-.01,0-.019,0-.028-.014-.37-.027-.735-.043-1.093,0-.021,0-.043,0-.065-.006-.147-.012-.293-.02-.438,0-.038,0-.076,0-.114-.007-.155-.014-.309-.022-.461,0-.013,0-.025,0-.038-.008-.159-.017-.316-.025-.473,0-.048-.006-.1-.009-.144q-.01-.164-.019-.324c0-.057-.008-.114-.011-.17-.008-.113-.015-.225-.023-.337-.005-.068-.01-.136-.015-.2-.007-.1-.014-.191-.022-.285,0-.012,0-.023,0-.035-.01-.128-.021-.254-.033-.38,0-.039-.006-.08-.01-.119-.012-.133-.025-.265-.038-.4l.131-.156c3.07-3.7,4.65-8.484,3.411-10.254-2.023-2.89-8.473-3.986-8.473-3.986,0,1.069-2.321,2.409-4.178,2.288a3.214,3.214,0,0,1-.857-.175c-.6-1.487-1.02-2.474-1.02-2.474s-.738-1.512-3.365-.642c0,0-.08,1.337,0,3.33,0,.036,0,.073,0,.11-2,1.819-4.4,4.57-4.406,7.2,0,3.721-.051,6.858-.119,9.5-.076,2.934-.181,5.256-.29,7.087-.322,5.407-.68,6.544-.446,6.54,0,0,2.057,1.873,7.49,1.838a41.984,41.984,0,0,0,8.263-.83,22.728,22.728,0,0,0,4.265-1.241C2286.1,1002.681,2285.977,1000.63,2285.928,1000.066Z" transform="translate(-2254.625 -954.85)" fill="#d86713"/>
                    <path id="Trazado_621811" data-name="Trazado 621811" d="M2315.542,848.94a13.336,13.336,0,0,0,3.869-1.047,5.9,5.9,0,0,1,4.539.442,1.041,1.041,0,0,0-.17-.419.934.934,0,0,1,.358.531c.032.024.047.04.038.046a1.2,1.2,0,0,1,.582.038s-.159-.023-.216.08a.092.092,0,0,1-.026.028c2.651,1.281,2.9,5.47,2.042,6.439a21.3,21.3,0,0,0-2.257,3.793,2.252,2.252,0,0,1-.262-1.647c.187-1.026-.7-1.026-1.819-1.493s-.187-1.773-1.166-2.566-4.572-.327-4.525-.933C2315.2,851.746,2315.542,849.077,2315.542,848.94Z" transform="translate(-2298.92 -847.594)" fill="#233862"/>
                    <path id="Trazado_621812" data-name="Trazado 621812" d="M2284.929,1145.548c-1.052,4.224-12.428,6.407-15.014,6.851.109-1.832.214-4.153.291-7.088Z" transform="translate(-2258.607 -1110.865)" fill="#ba550f"/>
                    <path id="Trazado_621813" data-name="Trazado 621813" d="M2372.718,1125.2a20.025,20.025,0,0,0,2.962-.578c.434-.217,2.417-3.034,1.118-3.757s-4.784,2.168-4.784,2.168Z" transform="translate(-2348.893 -1089.148)" fill="#ffb27d"/>
                    <path id="Trazado_621814" data-name="Trazado 621814" d="M2250.183,1127.807s9.361.508,15.644-.837a2.7,2.7,0,0,0-1.816-2.621s-9.792-2.075-12.144-1.5S2250.183,1127.807,2250.183,1127.807Z" transform="translate(-2241.08 -1090.914)" fill="#d86713"/>
                    <path id="Trazado_621815" data-name="Trazado 621815" d="M2325.978,1011.913c-1.943,2.342-4.482,4.255-7.282,4.7h0c-5.823-2.628-7-11.655-7.2-16.615,0,0,2.756,10,6.506,13.489a4.094,4.094,0,0,0,2.121,1.16s4.73-1.337,5.722-2.6A.544.544,0,0,1,2325.978,1011.913Z" transform="translate(-2295.376 -982.367)" fill="#ba550f"/>
                  </g>
                  <path id="Trazado_621816" data-name="Trazado 621816" d="M2384.314,1053.926s-2.921,3.665-4.666.4C2379.648,1054.326,2381.473,1056.1,2384.314,1053.926Z" transform="translate(-2355.644 -1030.053)" fill="#ba550f"/>
                </g>
              </g>
            </g>
            <g id="Grupo_887981" data-name="Grupo 887981" transform="translate(20.793 62.607)">
              <g id="Grupo_887980" data-name="Grupo 887980">
                <path id="Trazado_621817" data-name="Trazado 621817" d="M656.583,1626.105l1.546,6.512,2.316-.013.085-6.5Z" transform="translate(-643.608 -1539.81)" fill="#e49963"/>
                <path id="Trazado_621818" data-name="Trazado 621818" d="M824.953,1621.954l4.4,6.234,1.714-2.2-2.648-4.89Z" transform="translate(-792.498 -1535.381)" fill="#e49963"/>
                <path id="Trazado_621819" data-name="Trazado 621819" d="M565.457,880.968a4.486,4.486,0,0,0-2.428-.464,1.134,1.134,0,0,1,.512-.243,3.763,3.763,0,0,0-1.343.35c-5.78-2.227-6.689,6.284-6.568,8.261s-1.942,2.623-4.95,4.181c-5.738,2.973-6.242,6.953-6.242,6.953.045.026.091.056.141.09.285-.482.871-1.388,1.365-1.525a20.49,20.49,0,0,0-.795,1.936c1.693,1.288,4.86,4.141,7.067,6.164a3.243,3.243,0,0,1,.15-1.253l.273,1.642c1.181,1.086,2,1.849,2,1.849-.146-1.6,7.227-10.03,11.073-12.556A11.117,11.117,0,0,0,567,892.35a10.512,10.512,0,0,1-.787,3.624C569.472,892.976,567.576,882.172,565.457,880.968Z" transform="translate(-544.439 -880.243)" fill="#163560"/>
                <path id="Trazado_621820" data-name="Trazado 621820" d="M684.681,977.065a5.328,5.328,0,0,1-3.269.6,4.242,4.242,0,0,1-2.177-2.087c.562-.112.724-.884.713-4.2l.254.05,4.274.846s-.1,1.345-.1,2.612C684.373,975.942,684.438,976.951,684.681,977.065Z" transform="translate(-663.64 -960.827)" fill="#e49963"/>
                <path id="Trazado_621821" data-name="Trazado 621821" d="M691.867,972.649s-.1,1.345-.1,2.612c-2.391-.067-3.656-2.249-4.174-3.458Z" transform="translate(-671.03 -961.21)" fill="#d68d5d"/>
                <path id="Trazado_621822" data-name="Trazado 621822" d="M671.619,900.664a12.567,12.567,0,0,1-1.554-3.674c-.215-1.209.4-5.69,4.9-5.045a6.118,6.118,0,0,1,2.537.959c.978.66,2.389,2.086.811,6l-.41,1.321Z" transform="translate(-655.498 -890.536)" fill="#163560"/>
                <path id="Trazado_621823" data-name="Trazado 621823" d="M686.344,1273.927l-2.266.069-2.452.075a48.406,48.406,0,0,1-8.841-16.416q-.111-.352-.235-.713c-1.739-5.07-5.344-11.434-7.243-17.195-.3-.917-.574-1.781-.818-2.6-.078-.262-.154-.519-.226-.772a61.107,61.107,0,0,1-2.179-11.47l13.717.11A255.7,255.7,0,0,0,686.344,1273.927Z" transform="translate(-648.473 -1185.03)" fill="#2b478b"/>
                <path id="Trazado_621824" data-name="Trazado 621824" d="M631.948,1021.865c-.035,6.527.957,9.328.957,9.328a18.431,18.431,0,0,1-12.853.787c-.082-.026-5.387-1.236-5.387-1.236.117-.264,1.918-4.646,2.031-4.889a16.118,16.118,0,0,0,1.613-5.632,20.687,20.687,0,0,0,.17-5.469,43.884,43.884,0,0,0-1.693-8.588,44.6,44.6,0,0,0,5.662-1.936,4.422,4.422,0,0,0,3.055,1.133c1.39-.031,1.841-.626,1.769-1.276,1.482.824,2.664,1.6,2.664,1.6,1.259,2.187,3.813,4.312,4,7.667C633.981,1014.185,631.949,1021.683,631.948,1021.865Z" transform="translate(-606.54 -989.76)" fill="#e7f1fd"/>
                <path id="Trazado_621825" data-name="Trazado 621825" d="M750.464,1022.931c-1.2-2.856-4.742-9.323-9.675-11.566l1.792,10.052a4,4,0,0,0,.807,2.838,26.959,26.959,0,0,0,6.31,5.382,40.193,40.193,0,0,0,7.815-1.87c1.464-.488,4.612-3.131,4.612-3.131l.042-2.06s-4.171.84-5.618,1c-.824.094-2.731.337-4.075.51A1.914,1.914,0,0,1,750.464,1022.931Z" transform="translate(-718.071 -996.194)" fill="#739af0"/>
                <path id="Trazado_621826" data-name="Trazado 621826" d="M687.671,916.51s-5.658.093-5.662-3.431-.737-5.886,2.876-6.1,4.316,1.136,4.6,2.312S689.143,916.4,687.671,916.51Z" transform="translate(-666.036 -903.871)" fill="#e49963"/>
                <path id="Trazado_621827" data-name="Trazado 621827" d="M673.557,895.065s-1.549,4.135-3.927,4.747-3.409-.026-3.409-.026.338-3.6.717-6.132C666.938,893.654,672.388,893.1,673.557,895.065Z" transform="translate(-652.131 -892.038)" fill="#163560"/>
                <path id="Trazado_621828" data-name="Trazado 621828" d="M726.306,904.151a5,5,0,0,1,1.439,1.821c.282.9.409,2.745.948,2.682,0,0,1.167-2.811-.145-4.4C727.157,902.568,726.306,904.151,726.306,904.151Z" transform="translate(-705.264 -900.789)" fill="#163560"/>
                <path id="Trazado_621829" data-name="Trazado 621829" d="M925.237,1096.482a3.532,3.532,0,0,1,4.524-1.139c.311.219,1.19.946.2,1.819-.731.643-.805.166-1.9,1a2.5,2.5,0,0,1-2.867.384Z" transform="translate(-881.142 -1070.1)" fill="#e49963"/>
                <path id="Trazado_621830" data-name="Trazado 621830" d="M666.745,1679.242a6.275,6.275,0,0,1-.295,2.67s-.379,1.727,1.322,1.759,2.118-.128,1.925-1.187-.559-2.891-.559-2.891Z" transform="translate(-652.302 -1586.799)" fill="#e49963"/>
                <path id="Trazado_621831" data-name="Trazado 621831" d="M668.723,1704.476s-.036.022-.107.057h-3.33a.812.812,0,0,1-.094-.057,8.354,8.354,0,0,1,.122-2.5c1.927,1.765,3.132-.044,3.132-.044A9.033,9.033,0,0,1,668.723,1704.476Z" transform="translate(-651.167 -1606.866)" fill="#9e322a"/>
                <path id="Trazado_621832" data-name="Trazado 621832" d="M864.071,1668.612a42.577,42.577,0,0,1-4.1-5.252l-2.332,1.195,5.213,4.9,1.219-.16Z" transform="translate(-821.404 -1572.754)" fill="#e49963"/>
                <path id="Trazado_621833" data-name="Trazado 621833" d="M861.5,1679.551h-4.291a6.1,6.1,0,0,1-1.279-1.983,2.1,2.1,0,0,0-1.42-.949v2.9h-.89l-.843-3.082a2.836,2.836,0,0,1,.347-2.751c.454,0,1.676.31,3.993,2.92a3.036,3.036,0,0,0,2.437,1.137.2.2,0,0,0,.034.018A3.11,3.11,0,0,1,861.5,1679.551Z" transform="translate(-816.886 -1581.885)" fill="#9e322a"/>
                <path id="Trazado_621834" data-name="Trazado 621834" d="M723.639,1004.089s3.274,8.087,3.37,9.724.385,26.765.385,26.765-.193,1.156,2.022.674a7.431,7.431,0,0,0,2.792-.963s-2.118-15.5-1.54-20.892c.5-4.694-3.248-11.99-4.228-13.8a1.346,1.346,0,0,0-.659-.6Z" transform="translate(-702.906 -989.76)" fill="#739af0"/>
                <path id="Trazado_621835" data-name="Trazado 621835" d="M700.731,1349.947l-2.452.075a48.407,48.407,0,0,1-8.841-16.416q-.111-.353-.235-.713c-1.739-5.07-5.344-11.434-7.243-17.195-.3-.917-.574-1.781-.817-2.6-.078-.262-.154-.519-.226-.772l2.02-1.533s6.065,9.821,7.942,19.062C692.509,1337.885,699.041,1347.545,700.731,1349.947Z" transform="translate(-665.126 -1260.98)" fill="#233862"/>
                <path id="Trazado_621836" data-name="Trazado 621836" d="M619.9,1310.8c.035,4.494-.193,14.827-.778,19.1h-2.172c-1.2,0-1.8-.017-1.8-.017-1.468-7.438-2.513-13.592-3.273-18.9-.624-4.352-1.178-8.083-1.6-11.294-.43-3.232-.728-5.939-.835-8.225q-.025-.54-.036-1.051t-.006-1l11.852-1.155C621.1,1296.143,619.885,1308.186,619.9,1310.8Z" transform="translate(-601.883 -1241.061)" fill="#2b478b"/>
                <path id="Trazado_621837" data-name="Trazado 621837" d="M617.281,1354.378c-1.2,0-1.8-.017-1.8-.017-1.468-7.437-2.513-13.592-3.273-18.895-.624-4.352-1.178-8.082-1.6-11.294-.43-3.232-.728-5.939-.835-8.225l4.349,2.558s-2.776.979-1.717,8.392S615.806,1353.328,617.281,1354.378Z" transform="translate(-602.21 -1265.536)" fill="#233862"/>
                <path id="Trazado_621838" data-name="Trazado 621838" d="M597.613,1041.358s-.835,3.016-3.723,2.631a34.821,34.821,0,0,1-7-2.118s1.234-3.9,2.769-9.024c1.858-6.2,4.158-14.2,5.242-19.244a31.192,31.192,0,0,0,.589-3.439l2.4-4.649s3.573,8.019,3.766,10.041S597.613,1041.358,597.613,1041.358Z" transform="translate(-581.982 -991.02)" fill="#739af0"/>
                <path id="Trazado_621839" data-name="Trazado 621839" d="M616.025,1015.253l3.163-9.74a48.8,48.8,0,0,0-6,2.2,13.954,13.954,0,0,0-2.029,5.343s-.819,8.949,1.01,12.223c0,0,5.777,1.156,15.019-2.022v-2.118s-10.109.529-12.179.77Z" transform="translate(-603.278 -991.02)" fill="#e49963"/>
                <path id="Trazado_621840" data-name="Trazado 621840" d="M618.649,1081.611c-.129,3.274-.9,9.628-7.767,13.029-.018.009-.037.018-.055.026,1.858-6.2,4.158-14.2,5.242-19.244C617.331,1077.307,618.719,1079.808,618.649,1081.611Z" transform="translate(-603.146 -1052.84)" fill="#4a82d3"/>
                <path id="Trazado_621841" data-name="Trazado 621841" d="M616.841,1005.514s-5.863.413-7.275,3.558-1.862,13.607-.064,16.688a16.363,16.363,0,0,0,6.85-.114l.162-.031s1.4-3.418.144-4.092c0,0-3.691.192-3.306-1.027S616.841,1005.514,616.841,1005.514Z" transform="translate(-600.931 -991.02)" fill="#739af0"/>
                <path id="Trazado_621842" data-name="Trazado 621842" d="M742.143,1114.736a5.058,5.058,0,0,0,.977-1.973,2.144,2.144,0,0,1,2.095-1.918c1.39-.183,1.988-.2,1.984.189a10.373,10.373,0,0,1-3.13,4.761C742.074,1117.429,742.143,1114.736,742.143,1114.736Z" transform="translate(-719.268 -1084.054)" fill="#e49963"/>
              </g>
              <path id="Trazado_621843" data-name="Trazado 621843" d="M939.056,1067.988a.266.266,0,0,0,.144.005l24.822-5.937a.267.267,0,1,0-.125-.519l-24.822,5.936a.267.267,0,0,0-.019.514Z" transform="translate(-893.235 -1040.555)" fill="#233862"/>
            </g>
            <path id="Rectángulo_296450" data-name="Rectángulo 296450" d="M.44,0H294.534a.44.44,0,0,1,.44.44v0a.44.44,0,0,1-.44.44H.441A.441.441,0,0,1,0,.44v0A.44.44,0,0,1,.44,0Z" transform="translate(-1 159.393)" fill="#2e3552"/>
          </g>
        </g>
      </g>
    </g>
  </g>
</svg>
