<svg xmlns="http://www.w3.org/2000/svg" xmlns:xlink="http://www.w3.org/1999/xlink" width="100" height="100" viewBox="0 0 100 100">
  <defs>
    <clipPath id="clip-path">
      <circle id="Elipse_6214" data-name="Elipse 6214" cx="50" cy="50" r="50" transform="translate(935 1589)" fill="#fff" stroke="#707070" stroke-width="1"/>
    </clipPath>
    <clipPath id="clip-path-2">
      <path id="Trazado_664037" data-name="Trazado 664037" d="M42.789,334.845c1.03-1.195,6.317-9.057,7.1-9.963a67.415,67.415,0,0,0,4.821-8.077c.371-1.071.536-4.409.783-5.645s6.511-.742,6.964-1.03,3.462-3.3,4.327-3.585,4.038-1.277,4.821-1.442a26.425,26.425,0,0,1,2.8-.247,1.9,1.9,0,0,1-1.442,1.978,25.106,25.106,0,0,0-3.585,1.525,13.487,13.487,0,0,0-2.926,2.184c-.412.453-1.772,1.113-1.813,1.648a4.549,4.549,0,0,1-.783,1.937,2.492,2.492,0,0,0,.948,3.214,6.26,6.26,0,0,0,4.574.412c1.525-.289,4.048.165,5.032,1.112s.458,1.937,0,1.978-3.59-.124-4.5-.124a8.778,8.778,0,0,0-4.368,1.36c-1.112.907-1.236,2.184-3.709,2.761s-2.307.288-3.626,1.2-3.863,7.985-3.987,8.809S42.789,334.845,42.789,334.845Z" transform="translate(-42.789 -304.855)" fill="#fbbca6"/>
    </clipPath>
    <clipPath id="clip-path-3">
      <path id="Trazado_664040" data-name="Trazado 664040" d="M133.039,287.835a10.474,10.474,0,0,1,.865-3.008c.453-.866.495-1.772.824-2.184s2.308-2.472,2.6-2.761,2.349-.836,2.8-1.757a2.217,2.217,0,0,0,0-1.828s-1.36.453-2.431.948a43.987,43.987,0,0,0-4.45,2.967,7.307,7.307,0,0,0-2.184,2.926,31.318,31.318,0,0,0-.275,5.109" transform="translate(-130.764 -276.297)" fill="#fbbca6"/>
    </clipPath>
    <clipPath id="clip-path-4">
      <path id="Trazado_664043" data-name="Trazado 664043" d="M117,284.766c.33-.37.19-1.277.519-2.184s-.082-2.514.247-2.926a9.278,9.278,0,0,0,1.516-2.824c.256-1.05,1.241-2.205,1.493-2.946.659-1.937-.865-1.937-.865-1.937s-.866,1.112-1.566,2.019a44.516,44.516,0,0,0-2.678,3.709c-.33.659-1.4,2.225-1.525,2.637a38.621,38.621,0,0,0-.618,6.1" transform="translate(-113.496 -271.951)" fill="#fbbca6"/>
    </clipPath>
    <clipPath id="clip-path-5">
      <path id="Trazado_664046" data-name="Trazado 664046" d="M108.308,309.906a13.334,13.334,0,0,0-.206-3.214c-.082-.783.089-2.131,0-2.926s-.124-1.731-.742-2.143-.989-.494-1.071,0-.453,2.926-.659,3.5a15.359,15.359,0,0,0,0,2.39c-.082.783-.2,1.48-.342,2.842" transform="translate(-105.287 -301.283)" fill="#fbbca6"/>
    </clipPath>
    <clipPath id="clip-path-6">
      <path id="Trazado_664053" data-name="Trazado 664053" d="M263.335,339.553a36.553,36.553,0,0,1-3.613-1.124,13.474,13.474,0,0,0-2.533-.789c-.662-.069-3.3-.388-3.932-.54s-3.345-.814-3.345-.814-.7,1.239,1.058,2.015a47.98,47.98,0,0,0,4.817,1.5c.942.339,3.089,1.054,3.545,1.2s3.953.911,4.127.646A7.682,7.682,0,0,0,263.335,339.553Z" transform="translate(-249.773 -336.286)" fill="#fbbca6"/>
    </clipPath>
    <clipPath id="clip-path-7">
      <path id="Trazado_664056" data-name="Trazado 664056" d="M251.432,354.206c-1-.037-4.474.156-5,.221a27.27,27.27,0,0,0-3.391.356c-.614.219-4.316,1.572-4.933,1.654s-3.824.723-4.015.755.192,2.018,2.361,1.782,5.291-1.086,6.192-1.034,4.691-.271,5.449-.217,3.329-.012,3.692-.445S251.432,354.206,251.432,354.206Z" transform="translate(-234.054 -354.201)" fill="#fbbca6"/>
    </clipPath>
    <clipPath id="clip-path-8">
      <path id="Trazado_664060" data-name="Trazado 664060" d="M296.575,351.029c-.791-.243-3.431-.977-3.987-1.241a2.02,2.02,0,0,0-2.332,1.051,29.162,29.162,0,0,1-3.457,3.935c-.635.577-2.709,2.118-2.5,2.911s.635,4.252.675,4.856.148,2.6.148,2.6a3.038,3.038,0,0,0,1.98-2.117,10.239,10.239,0,0,0,.253-3.155,5.058,5.058,0,0,0-.274-1.316,3.573,3.573,0,0,0,1.317-.865,2.075,2.075,0,0,0,.544-1.015,3.6,3.6,0,0,0,1.247-.2c.477-.216,1.152-.189,1.778.872a2.214,2.214,0,0,1-.1,2.519,33.994,33.994,0,0,1-3.22,2,6.9,6.9,0,0,0-2.347,3,2.549,2.549,0,0,0,.157,2.145,24.183,24.183,0,0,1,2.412-1.618c1.1-.613,3.445-2.435,4.725-2.447a34.108,34.108,0,0,0,4.408-.4c1.481-.222,2.87-1.612,3.988-2.129s4.966-.733,6.855-.509,13.171,2.323,13.171,2.323L325.1,352.3s-9.742.566-11.652.7-4.276-.6-5.208-.391a20.184,20.184,0,0,1-4.4.088A47.54,47.54,0,0,1,296.575,351.029Z" transform="translate(-284.285 -349.69)" fill="#fbbca6"/>
    </clipPath>
    <clipPath id="clip-path-9">
      <path id="Trazado_664067" data-name="Trazado 664067" d="M67.875,49.68c-1.114-.691-3,1.3-6.077,1.427-1.432-.157-3.447-.533-4.339-.591-1.2-.077-6.139-.845-7.433-1.575s-.2-1.575.356-2.228,1.514-.96,1.449-3.111-1.549-2.113-1.805-1.921a20.288,20.288,0,0,0-1.67,3.188A14.274,14.274,0,0,1,44.983,47.9c-1,.614-3.193,3.226-4.187,4.071-2.423,2.062-11.337-.343-12.349-.536l-1.328,9.723s11.218-.046,12.678-.43a28.786,28.786,0,0,1,5.877-.768,36.466,36.466,0,0,0,6.831-.768,6.245,6.245,0,0,0,2.708-1.6c.74-.615,2.776-1.059,6.055-2.853.91-.5,5.2-2.544,6.607-3.211C69,50.994,68.509,50.073,67.875,49.68Z" transform="translate(-27.119 -41.598)" fill="#fbbca6"/>
    </clipPath>
    <clipPath id="clip-path-10">
      <path id="Trazado_664069" data-name="Trazado 664069" d="M198.521,88.3a1.827,1.827,0,0,1,2.108-.2,1.129,1.129,0,0,1,.385,1.043s-1.054.816-1.241.952-2.5,1.79-3.133,2.085a3.855,3.855,0,0,1-2.448.431C192.924,92.474,198.521,88.3,198.521,88.3Z" transform="translate(-194.006 -87.854)" fill="#fbbba3"/>
    </clipPath>
    <clipPath id="clip-path-11">
      <path id="Trazado_664072" data-name="Trazado 664072" d="M173.413,87.281a15.391,15.391,0,0,1,2.381-2.113c1.191-.768,2.272.395,1.844.96a13.376,13.376,0,0,1-2.1,2.277,23.813,23.813,0,0,1-2.136,1.925,18.969,18.969,0,0,1-3.354,1.636,7.147,7.147,0,0,1-3.285,0Z" transform="translate(-166.762 -84.914)" fill="#fbbba3"/>
    </clipPath>
    <clipPath id="clip-path-12">
      <path id="Trazado_664078" data-name="Trazado 664078" d="M158.779,95.04c.659-.5,2.449-1.223,3.232-1.722s3.433-2.378,4.47-2.3,1.69.843,1.306,1.42-1.69,1-2.381,1.421-1.594,1.575-2.3,1.805-1.1,1.2-2.592,1.623" transform="translate(-158.779 -91.013)" fill="#fbbba3"/>
    </clipPath>
    <clipPath id="clip-path-13">
      <path id="Trazado_664083" data-name="Trazado 664083" d="M279.257,222.93s-8.056-.916-10.279-1.261-7.823-1.373-8.24-1.607-6.066-2.939-8.19-2.714-4.946.388-6.5.638-6.126.7-7.472.884-4.784.329-4.494,1.878,3.02,1.019,4.165.945,6.306-.1,7.083-.163.3,4.662.3,4.662l2.06,3.259a2.817,2.817,0,0,0,.635,2.195c.845.877,1.821.562,2.562.663a13.2,13.2,0,0,0,3.811-.109c.758-.268,5.409-1.263,6.755-1.465s16.756,4.6,17.488,4.946Z" transform="translate(-234.069 -217.335)" fill="#fbbca6"/>
    </clipPath>
    <clipPath id="clip-path-14">
      <path id="Trazado_664086" data-name="Trazado 664086" d="M303.021,270.63c1.086-.072,3.792-2.034,4.59-2.8s1.148-2.816-.283-2.695-4.293,1.72-5.223,2.156-1.841,1.46-.779,2.6A2.217,2.217,0,0,0,303.021,270.63Z" transform="translate(-300.85 -265.135)" fill="#fbbca6"/>
    </clipPath>
    <clipPath id="clip-path-15">
      <path id="Trazado_664089" data-name="Trazado 664089" d="M298.342,249.735a54.205,54.205,0,0,0-5.579,1.595c-1.381.408-2.973.618-2.636,2.37s.847,1.737,1.77,1.711,6.33-2.354,7.313-2.956S300.275,249.557,298.342,249.735Z" transform="translate(-290.081 -249.726)" fill="#fbbca6"/>
    </clipPath>
    <clipPath id="clip-path-16">
      <path id="Trazado_664092" data-name="Trazado 664092" d="M282.689,238.277a28.8,28.8,0,0,1-4.134.413,5.636,5.636,0,0,0-2.824.106c-1.791.4-2.723,3.2-1.1,3.692a10.77,10.77,0,0,0,5.092-.146c1.125-.3,4.884-1.122,4.672-2.8S283.471,238.2,282.689,238.277Z" transform="translate(-273.793 -238.198)" fill="#fbbca6"/>
    </clipPath>
    <clipPath id="clip-path-17">
      <path id="Trazado_664095" data-name="Trazado 664095" d="M315.032,215.68c-.293-.59-.818-1.369-2.773-2.419s-3.75-2.186-5.056-1.985-2.538,1.493-3.577,2.411-2.107,2.218-1.843,2.866a16.9,16.9,0,0,1,1.226,2.75c.234,1.018.328,2.86,1.473,2.785a1.766,1.766,0,0,0,1.874-1.816c.049-1.149-.736-2.806-.543-3.221s1.254,0,1.8-.625.765-.841.765-.841" transform="translate(-301.742 -211.252)" fill="#fbbca6"/>
    </clipPath>
    <clipPath id="clip-path-18">
      <path id="Trazado_664103" data-name="Trazado 664103" d="M26.239,189.584c4.907-10.354,9.526-13.04,14.758-14.822,2.885-.983,9.952-3.67,10.654-3.813s.851-1.246.057-1.733-3.425.9-7.756,1.576c-3.143.491-8.717-.008-13.22,1.529-3.294,1.123-9.771,9.054-12.952,13.508C19.011,186.694,24.326,188.239,26.239,189.584Z" transform="translate(-17.78 -169.114)" fill="#fbbca6"/>
    </clipPath>
    <clipPath id="clip-path-19">
      <path id="Trazado_664106" data-name="Trazado 664106" d="M141.433,168.491a31.793,31.793,0,0,0,6.075-.891,32.428,32.428,0,0,0,3.828-1.868,3.07,3.07,0,0,1,2.39-.63c.719.2.173,1.181.173,1.181s-3.434,2.676-4.8,3.014-6.8,1.376-7.525,1.1S140.689,168.506,141.433,168.491Z" transform="translate(-140.946 -165.036)" fill="#fbbca6"/>
    </clipPath>
    <clipPath id="clip-path-20">
      <path id="Trazado_664109" data-name="Trazado 664109" d="M139.547,167.134a46.453,46.453,0,0,0,7.082-1.039,37.806,37.806,0,0,0,4.464-2.177,3.577,3.577,0,0,1,2.786-.735c.839.239.2,1.377.2,1.377s-4,3.12-5.594,3.514-7.924,1.6-8.774,1.287S135.816,167.449,139.547,167.134Z" transform="translate(-137.734 -163.105)" fill="#fbbca6"/>
    </clipPath>
    <clipPath id="clip-path-21">
      <path id="Trazado_664112" data-name="Trazado 664112" d="M95.185,173.284c1.253-.224,2.744.336,3.479-.134a39.631,39.631,0,0,1,4.376-2.772,2.181,2.181,0,0,1,2.2.2c.255.365-3.877,3.7-5.12,4.69s-1.328.677-3.137,1.224a45.069,45.069,0,0,0-4.971,1.734,12.047,12.047,0,0,1-6.48,1.573c-1.752.006-3.286-.719-7.631,1.976s-1.3-8.151,5.63-8.7c1.227-.1,3.661.257,5.424,0A14.462,14.462,0,0,1,95.185,173.284Z" transform="translate(-75.885 -170.196)" fill="#fbbca6"/>
    </clipPath>
  </defs>
  <g id="Grupo_898332" data-name="Grupo 898332" transform="translate(-935 -1724.999)">
    <g id="Enmascarar_grupo_231" data-name="Enmascarar grupo 231" transform="translate(0 135.999)" clip-path="url(#clip-path)">
      <g id="Grupo_896648" data-name="Grupo 896648" transform="translate(932.762 1589)">
        <g id="OBJECTS" transform="translate(-30.231 -6)">
          <g id="Trazado_664133" data-name="Trazado 664133" transform="translate(0.469)" fill="#8ab7cc">
            <path d="M 152.5 118.5 L 0.5 118.5 L 0.5 0.5 L 152.5 0.5 L 152.5 118.5 Z" stroke="none"/>
            <path d="M 1 1 L 1 118 L 152 118 L 152 1 L 1 1 M 0 0 L 153 0 L 153 119 L 0 119 L 0 0 Z" stroke="none" fill="#707070"/>
          </g>
          <g id="Grupo_896599" data-name="Grupo 896599" transform="translate(41.803 49.877)">
            <path id="Trazado_664032" data-name="Trazado 664032" d="M65.451,416.468a13.076,13.076,0,0,1,4.993,1.36,12.4,12.4,0,0,1,4.211,2.7s-3.929,1.868-6.259.856S65.451,416.468,65.451,416.468Z" transform="translate(-55.007 -387.691)" fill="#1a7178"/>
            <g id="Grupo_896598" data-name="Grupo 896598" transform="translate(5.931)">
              <g id="Grupo_896591" data-name="Grupo 896591" transform="translate(0 6.552)">
                <path id="Trazado_664033" data-name="Trazado 664033" d="M42.789,334.845c1.03-1.195,6.317-9.057,7.1-9.963a67.415,67.415,0,0,0,4.821-8.077c.371-1.071.536-4.409.783-5.645s6.511-.742,6.964-1.03,3.462-3.3,4.327-3.585,4.038-1.277,4.821-1.442a26.425,26.425,0,0,1,2.8-.247,1.9,1.9,0,0,1-1.442,1.978,25.106,25.106,0,0,0-3.585,1.525,13.487,13.487,0,0,0-2.926,2.184c-.412.453-1.772,1.113-1.813,1.648a4.549,4.549,0,0,1-.783,1.937,2.492,2.492,0,0,0,.948,3.214,6.26,6.26,0,0,0,4.574.412c1.525-.289,4.048.165,5.032,1.112s.458,1.937,0,1.978-3.59-.124-4.5-.124a8.778,8.778,0,0,0-4.368,1.36c-1.112.907-1.236,2.184-3.709,2.761s-2.307.288-3.626,1.2-3.863,7.985-3.987,8.809S42.789,334.845,42.789,334.845Z" transform="translate(-42.789 -304.855)" fill="#fbbca6"/>
                <g id="Grupo_896590" data-name="Grupo 896590" clip-path="url(#clip-path-2)">
                  <path id="Trazado_664034" data-name="Trazado 664034" d="M46.305,340.419c-1.356,3.569-4.694,6.534-6.766,10.536-2.307,4.458-1.7,7.2-4.346,7.521-1.21.145-3.2.443-3.99-.664-.647-.907,2.687-5.649,3.115-6.516a29.533,29.533,0,0,1,3.331-5.214,48.1,48.1,0,0,0,3.965-7.008c.647-1.209,2.872-8.58,5.189-6.357C48.417,334.264,46.959,338.7,46.305,340.419Z" transform="translate(-33.444 -326.837)" opacity="0.1"/>
                  <path id="Trazado_664035" data-name="Trazado 664035" d="M137.548,306.171c.889.729,2.191.077,3.028-.509a15.749,15.749,0,0,1,3.25-2.168,28.143,28.143,0,0,1,5.917-1.626c1.319-.232.641-1.461-.612-1.6-1.712-.195-3.661.739-5.22,1.341a17.179,17.179,0,0,0-5.517,3.578Z" transform="translate(-118.68 -301.157)" opacity="0.2"/>
                  <path id="Trazado_664036" data-name="Trazado 664036" d="M119.784,352.23c-1.1.122-3.928-.105-3.8.794s3.863-.775,4.579.476c-1.121,1.5-4.847,3.5-3.872,4.429s1.756-.853,2.524-1.609a8.38,8.38,0,0,1,2.751-1.71c1.238-.516,2.957-.763,2.367-2.8C123.707,349.63,122.321,351.948,119.784,352.23Z" transform="translate(-101.408 -341.718)" opacity="0.1"/>
                </g>
              </g>
              <g id="Grupo_896593" data-name="Grupo 896593" transform="translate(17.518 0.865)">
                <path id="Trazado_664038" data-name="Trazado 664038" d="M133.039,287.835a10.474,10.474,0,0,1,.865-3.008c.453-.866.495-1.772.824-2.184s2.308-2.472,2.6-2.761,2.349-.836,2.8-1.757a2.217,2.217,0,0,0,0-1.828s-1.36.453-2.431.948a43.987,43.987,0,0,0-4.45,2.967,7.307,7.307,0,0,0-2.184,2.926,31.318,31.318,0,0,0-.275,5.109" transform="translate(-130.764 -276.297)" fill="#fbbca6"/>
                <g id="Grupo_896592" data-name="Grupo 896592" clip-path="url(#clip-path-3)">
                  <path id="Trazado_664039" data-name="Trazado 664039" d="M131.757,271.044c1.919.625-.211,1.727-.9,2.06a25.473,25.473,0,0,0-3.331,1.764c-2.425,1.657-3.405,4.187-4.144,6.966a1.6,1.6,0,0,1-2.208,1.224c-1.315-.569-.472-2.883-.206-3.779a13.206,13.206,0,0,1,10.083-8.728Z" transform="translate(-122.51 -271.695)" opacity="0.2"/>
                </g>
              </g>
              <g id="Grupo_896595" data-name="Grupo 896595" transform="translate(14.079)">
                <path id="Trazado_664041" data-name="Trazado 664041" d="M117,284.766c.33-.37.19-1.277.519-2.184s-.082-2.514.247-2.926a9.278,9.278,0,0,0,1.516-2.824c.256-1.05,1.241-2.205,1.493-2.946.659-1.937-.865-1.937-.865-1.937s-.866,1.112-1.566,2.019a44.516,44.516,0,0,0-2.678,3.709c-.33.659-1.4,2.225-1.525,2.637a38.621,38.621,0,0,0-.618,6.1" transform="translate(-113.496 -271.951)" fill="#fbbca6"/>
                <g id="Grupo_896594" data-name="Grupo 896594" clip-path="url(#clip-path-4)">
                  <path id="Trazado_664042" data-name="Trazado 664042" d="M114.717,273.165c-1.693,1.987-2.1,4.6-2.4,7.122-.085.734.156,2.682-.563,2.888-1.76.505-1.737-3.716-1.609-4.581.46-3.11,1.223-5.373,3.635-7.474.471-.411,3.353-5.5,3.7-2.555C117.662,270.117,115.631,272.092,114.717,273.165Z" transform="translate(-110.774 -268.508)" opacity="0.1"/>
                </g>
              </g>
              <g id="Grupo_896597" data-name="Grupo 896597" transform="translate(12.445 5.841)">
                <path id="Trazado_664044" data-name="Trazado 664044" d="M108.308,309.906a13.334,13.334,0,0,0-.206-3.214c-.082-.783.089-2.131,0-2.926s-.124-1.731-.742-2.143-.989-.494-1.071,0-.453,2.926-.659,3.5a15.359,15.359,0,0,0,0,2.39c-.082.783-.2,1.48-.342,2.842" transform="translate(-105.287 -301.283)" fill="#fbbca6"/>
                <g id="Grupo_896596" data-name="Grupo 896596" clip-path="url(#clip-path-5)">
                  <path id="Trazado_664045" data-name="Trazado 664045" d="M102.178,302.072c.032,1.043.306,2.448-.159,3.4a1.405,1.405,0,0,1-2.749-.366,19.871,19.871,0,0,1,.211-6.2c.157-1.009.545-5.8,2.091-3.319C102.738,297.459,102.114,300,102.178,302.072Z" transform="translate(-100.336 -296.152)" opacity="0.1"/>
                </g>
              </g>
            </g>
            <path id="Trazado_664047" data-name="Trazado 664047" d="M23.446,416.469s1.512,2.7,3.573,3.447a18.973,18.973,0,0,0,5.631.612L26.881,433.1H13Z" transform="translate(-13.002 -387.692)" fill="#248491"/>
          </g>
          <g id="Grupo_896607" data-name="Grupo 896607" transform="translate(79.049 69.295)">
            <path id="Trazado_664048" data-name="Trazado 664048" d="M406.768,360.761a16.577,16.577,0,0,0-1.489,4.878c-.724,4.483,0,5.8,0,5.8s3.91-2.2,4.151-5.087S406.768,360.761,406.768,360.761Z" transform="translate(-370.927 -355.888)" fill="#1a7178"/>
            <g id="Grupo_896606" data-name="Grupo 896606">
              <path id="Trazado_664049" data-name="Trazado 664049" d="M300.346,341.173a52.078,52.078,0,0,1-5.516-2.036c-.82-.438-3.339-1.859-3.339-1.859a1.324,1.324,0,0,0-.361,1.892c.806,1.07,5.815,2.539,6.674,2.852S300.346,341.173,300.346,341.173Z" transform="translate(-279.538 -337.081)" fill="#fbbca6"/>
              <path id="Trazado_664050" data-name="Trazado 664050" d="M300.346,341.173a52.078,52.078,0,0,1-5.516-2.036c-.82-.438-3.339-1.859-3.339-1.859a1.324,1.324,0,0,0-.361,1.892c.806,1.07,5.815,2.539,6.674,2.852S300.346,341.173,300.346,341.173Z" transform="translate(-279.538 -337.081)" opacity="0.2"/>
              <g id="Grupo_896601" data-name="Grupo 896601" transform="translate(3.13)">
                <path id="Trazado_664051" data-name="Trazado 664051" d="M263.335,339.553a36.553,36.553,0,0,1-3.613-1.124,13.474,13.474,0,0,0-2.533-.789c-.662-.069-3.3-.388-3.932-.54s-3.345-.814-3.345-.814-.7,1.239,1.058,2.015a47.98,47.98,0,0,0,4.817,1.5c.942.339,3.089,1.054,3.545,1.2s3.953.911,4.127.646A7.682,7.682,0,0,0,263.335,339.553Z" transform="translate(-249.773 -336.286)" fill="#fbbca6"/>
                <g id="Grupo_896600" data-name="Grupo 896600" clip-path="url(#clip-path-6)">
                  <path id="Trazado_664052" data-name="Trazado 664052" d="M246.783,336.17a3.442,3.442,0,0,0,1.666,1.232,20.616,20.616,0,0,0,3.243.922c1.085.3,2.149.47,3.253.669.954.171,4.38.806,5,.935a1.556,1.556,0,0,1,1,.7,1.037,1.037,0,0,1-.326,1.3c-.994.713-2.7.364-3.774.108-2-.476-4.005-1.064-5.967-1.665-1.222-.375-2.671-.606-3.632-1.52-.481-.457-1.116-1.5-.786-2.212a.694.694,0,0,1,.045-.073Z" transform="translate(-247.05 -336.193)" opacity="0.2"/>
                </g>
              </g>
              <g id="Grupo_896603" data-name="Grupo 896603" transform="translate(0 3.567)">
                <path id="Trazado_664054" data-name="Trazado 664054" d="M251.432,354.206c-1-.037-4.474.156-5,.221a27.27,27.27,0,0,0-3.391.356c-.614.219-4.316,1.572-4.933,1.654s-3.824.723-4.015.755.192,2.018,2.361,1.782,5.291-1.086,6.192-1.034,4.691-.271,5.449-.217,3.329-.012,3.692-.445S251.432,354.206,251.432,354.206Z" transform="translate(-234.054 -354.201)" fill="#fbbca6"/>
                <g id="Grupo_896602" data-name="Grupo 896602" clip-path="url(#clip-path-7)">
                  <path id="Trazado_664055" data-name="Trazado 664055" d="M292.525,356.79c.76-.481,2.249-1.705,3.041-2.13.547-.293.548.039,1.176.322,1.2.539.472,2.688-.1,3.432a3.5,3.5,0,0,1-2.281,1.11,7.269,7.269,0,0,1-2.775.013c-.533-.134-1.427-.541-.953-1.213a5.174,5.174,0,0,1,.877-.748A8.649,8.649,0,0,1,292.525,356.79Z" transform="translate(-279.26 -354.477)" opacity="0.1"/>
                </g>
              </g>
              <g id="Grupo_896605" data-name="Grupo 896605" transform="translate(10.002 2.669)">
                <path id="Trazado_664057" data-name="Trazado 664057" d="M296.575,351.029c-.791-.243-3.431-.977-3.987-1.241a2.02,2.02,0,0,0-2.332,1.051,29.162,29.162,0,0,1-3.457,3.935c-.635.577-2.709,2.118-2.5,2.911s.635,4.252.675,4.856.148,2.6.148,2.6a3.038,3.038,0,0,0,1.98-2.117,10.239,10.239,0,0,0,.253-3.155,5.058,5.058,0,0,0-.274-1.316,3.573,3.573,0,0,0,1.317-.865,2.075,2.075,0,0,0,.544-1.015,3.6,3.6,0,0,0,1.247-.2c.477-.216,1.152-.189,1.778.872a2.214,2.214,0,0,1-.1,2.519,33.994,33.994,0,0,1-3.22,2,6.9,6.9,0,0,0-2.347,3,2.549,2.549,0,0,0,.157,2.145,24.183,24.183,0,0,1,2.412-1.618c1.1-.613,3.445-2.435,4.725-2.447a34.108,34.108,0,0,0,4.408-.4c1.481-.222,2.87-1.612,3.988-2.129s4.966-.733,6.855-.509,13.171,2.323,13.171,2.323L325.1,352.3s-9.742.566-11.652.7-4.276-.6-5.208-.391a20.184,20.184,0,0,1-4.4.088A47.54,47.54,0,0,1,296.575,351.029Z" transform="translate(-284.285 -349.69)" fill="#fbbca6"/>
                <g id="Grupo_896604" data-name="Grupo 896604" clip-path="url(#clip-path-8)">
                  <path id="Trazado_664058" data-name="Trazado 664058" d="M291.4,387.557a7.657,7.657,0,0,0,.884-4.348,5.817,5.817,0,0,0-.75-1.979c-.487-1.017.179-.532.8-.913.69-.421.478-1.17.892-1.715.3-.4,1.028-.151,1.551-.471.708-.434,1.287-.686,1.987-.111.654.536.857,1.121.128,1.643-.861.616-1.928.825-2.356,1.9-.283.712-.408,1.5-.654,2.229a8.925,8.925,0,0,1-.95,1.62,12.016,12.016,0,0,1-1.467,2.21c-.029.03-.085.109-.079.094Z" transform="translate(-289.96 -372.111)" opacity="0.1"/>
                  <path id="Trazado_664059" data-name="Trazado 664059" d="M329.4,397.074a11.134,11.134,0,0,1,2.751-1.031,13.066,13.066,0,0,0,3.269-1.825c1.888-1.592,3.676-2.781,6.321-2.385,3.684.55,7.345.71,11.063.992,3.168.24,7.081-.74,7.743-.217,1.49,1.177-2.188,5.012-3.362,5.275-3.266.73-6.978.143-10.241-.312a43.75,43.75,0,0,0-5.094-.718,21.508,21.508,0,0,0-4.654.462c-.475.1-8.064,1.65-7.837.281Z" transform="translate(-320.377 -383.379)" opacity="0.1"/>
                </g>
              </g>
            </g>
            <path id="Trazado_664061" data-name="Trazado 664061" d="M408.061,358.542a7.319,7.319,0,0,1,1.184,4.809c-.367,2.655-2.673,5.866-2.673,5.866l18.6,3.5V357.99Z" transform="translate(-372.22 -353.668)" fill="#248491"/>
          </g>
          <g id="Grupo_896617" data-name="Grupo 896617" transform="translate(37.445 14.722)">
            <path id="Trazado_664062" data-name="Trazado 664062" d="M35.824,91.025s.984,1.167,1.068,5.41-1.068,6.111-1.068,6.111a8.128,8.128,0,0,1-3.581-5.638C31.854,93.206,35.824,91.025,35.824,91.025Z" transform="translate(-25.802 -81.183)" fill="#1a7178"/>
            <g id="Grupo_896616" data-name="Grupo 896616" transform="translate(5.4)">
              <g id="Grupo_896609" data-name="Grupo 896609">
                <path id="Trazado_664063" data-name="Trazado 664063" d="M67.875,49.68c-1.114-.691-3,1.3-6.077,1.427-1.432-.157-3.447-.533-4.339-.591-1.2-.077-6.139-.845-7.433-1.575s-.2-1.575.356-2.228,1.514-.96,1.449-3.111-1.549-2.113-1.805-1.921a20.288,20.288,0,0,0-1.67,3.188A14.274,14.274,0,0,1,44.983,47.9c-1,.614-3.193,3.226-4.187,4.071-2.423,2.062-11.337-.343-12.349-.536l-1.328,9.723s11.218-.046,12.678-.43a28.786,28.786,0,0,1,5.877-.768,36.466,36.466,0,0,0,6.831-.768,6.245,6.245,0,0,0,2.708-1.6c.74-.615,2.776-1.059,6.055-2.853.91-.5,5.2-2.544,6.607-3.211C69,50.994,68.509,50.073,67.875,49.68Z" transform="translate(-27.119 -41.598)" fill="#fbbca6"/>
                <g id="Grupo_896608" data-name="Grupo 896608" clip-path="url(#clip-path-9)">
                  <path id="Trazado_664064" data-name="Trazado 664064" d="M28.864,116.986c4.4.428,7.841-2.407,10.224-1.83,1.356.328,2.331,1.343,5.8-.05a14.243,14.243,0,0,1,2.905-.843c.694-.081,4.068-.093,2.595,1.9s-30.129,5.173-30.65,4.244-1.33-3.8-.56-4.165S28.864,116.986,28.864,116.986Z" transform="translate(-20.503 -99.773)" opacity="0.1"/>
                  <path id="Trazado_664065" data-name="Trazado 664065" d="M207.839,90.113c-.013-2.293,2.515-2.391,4.068-3.207.512-.269,1.056-1.283,1.576-.566a1.165,1.165,0,0,1-.441,1.936,31.436,31.436,0,0,1-3.443,1.292c-.553.169-1.128.562-1.555.715Z" transform="translate(-171.854 -77.229)" opacity="0.2"/>
                  <path id="Trazado_664066" data-name="Trazado 664066" d="M165.21,91.384c2.325.247,2.061-1.412,4.222-1.877,1.528-.329,4.2-.5,4.824-2.123.276-.715-2.434-.6-4.923.8C168.563,88.616,163.846,91.239,165.21,91.384Z" transform="translate(-137.516 -77.921)" opacity="0.2"/>
                </g>
              </g>
              <g id="Grupo_896611" data-name="Grupo 896611" transform="translate(33.231 9.211)">
                <path id="Trazado_664068" data-name="Trazado 664068" d="M198.521,88.3a1.827,1.827,0,0,1,2.108-.2,1.129,1.129,0,0,1,.385,1.043s-1.054.816-1.241.952-2.5,1.79-3.133,2.085a3.855,3.855,0,0,1-2.448.431C192.924,92.474,198.521,88.3,198.521,88.3Z" transform="translate(-194.006 -87.854)" fill="#fbbba3"/>
                <g id="Grupo_896610" data-name="Grupo 896610" clip-path="url(#clip-path-10)">
                  <rect id="Rectángulo_297330" data-name="Rectángulo 297330" width="8.117" height="6.85" transform="translate(-0.657 -0.444)" opacity="0.2"/>
                </g>
              </g>
              <g id="Grupo_896613" data-name="Grupo 896613" transform="translate(27.806 8.625)">
                <path id="Trazado_664070" data-name="Trazado 664070" d="M173.413,87.281a15.391,15.391,0,0,1,2.381-2.113c1.191-.768,2.272.395,1.844.96a13.376,13.376,0,0,1-2.1,2.277,23.813,23.813,0,0,1-2.136,1.925,18.969,18.969,0,0,1-3.354,1.636,7.147,7.147,0,0,1-3.285,0Z" transform="translate(-166.762 -84.914)" fill="#fbbba3"/>
                <g id="Grupo_896612" data-name="Grupo 896612" clip-path="url(#clip-path-11)">
                  <path id="Trazado_664071" data-name="Trazado 664071" d="M166.55,95.01c1.64.491,4.543-1.258,5.774-2.8.375-.47.7-1.1,1.326-1.174a.919.919,0,0,1,1.047,1.224,5.8,5.8,0,0,1-1.319,1.589c-.66.7-1.406,1.32-2.106,1.98a11.086,11.086,0,0,1-5.6,2.609c-1.165.236-2.686.129-2.933-1.3-.283-1.638,1.889-1.939,2.994-2.356a1.965,1.965,0,0,1,.509-.144Z" transform="translate(-163.518 -89.808)" opacity="0.1"/>
                </g>
              </g>
              <path id="Trazado_664073" data-name="Trazado 664073" d="M141.266,87.854c.134.544-1.429,2.481-3.6,3.229" transform="translate(-115.65 -78.643)" opacity="0.1"/>
              <path id="Trazado_664074" data-name="Trazado 664074" d="M149.473,94.353c-1.051.527-4.1,3.314-3.255,5.966" transform="translate(-122.386 -83.848)" opacity="0.1"/>
              <path id="Trazado_664075" data-name="Trazado 664075" d="M129.953,79.587c-.049.986-.423,3.773-2.5,4.555" transform="translate(-107.477 -72.023)" opacity="0.1"/>
              <g id="Grupo_896615" data-name="Grupo 896615" transform="translate(26.216 9.84)">
                <path id="Trazado_664076" data-name="Trazado 664076" d="M158.779,95.04c.659-.5,2.449-1.223,3.232-1.722s3.433-2.378,4.47-2.3,1.69.843,1.306,1.42-1.69,1-2.381,1.421-1.594,1.575-2.3,1.805-1.1,1.2-2.592,1.623" transform="translate(-158.779 -91.013)" fill="#fbbba3"/>
                <g id="Grupo_896614" data-name="Grupo 896614" clip-path="url(#clip-path-12)">
                  <path id="Trazado_664077" data-name="Trazado 664077" d="M161.32,100.361a14.992,14.992,0,0,0,1.813-.689c1-.494,2.969-1.592,3.535-1.975s1.679-1.242,2.539-.9.731.679.6,1.064-5.816,4.261-6.5,4.623-2.085.408-2.221,0A8.364,8.364,0,0,1,161.32,100.361Z" transform="translate(-160.608 -95.581)" opacity="0.1"/>
                </g>
              </g>
            </g>
            <path id="Trazado_664079" data-name="Trazado 664079" d="M10.023,86.132a13.182,13.182,0,0,0-1.7,5.973,13.658,13.658,0,0,0,1.7,5.548H0V84.915Z" transform="translate(0 -76.29)" fill="#248491"/>
          </g>
          <g id="Grupo_896629" data-name="Grupo 896629" transform="translate(81.053 41.504)">
            <path id="Trazado_664080" data-name="Trazado 664080" d="M399.74,238.2s-1.456.645-2.785,4.888a9.693,9.693,0,0,0,.353,7.239s4.08-2.2,4.428-5.339S399.74,238.2,399.74,238.2Z" transform="translate(-364.111 -232.833)" fill="#cf8416"/>
            <g id="Grupo_896628" data-name="Grupo 896628">
              <g id="Grupo_896619" data-name="Grupo 896619" transform="translate(0 1.211)">
                <path id="Trazado_664081" data-name="Trazado 664081" d="M279.257,222.93s-8.056-.916-10.279-1.261-7.823-1.373-8.24-1.607-6.066-2.939-8.19-2.714-4.946.388-6.5.638-6.126.7-7.472.884-4.784.329-4.494,1.878,3.02,1.019,4.165.945,6.306-.1,7.083-.163.3,4.662.3,4.662l2.06,3.259a2.817,2.817,0,0,0,.635,2.195c.845.877,1.821.562,2.562.663a13.2,13.2,0,0,0,3.811-.109c.758-.268,5.409-1.263,6.755-1.465s16.756,4.6,17.488,4.946Z" transform="translate(-234.069 -217.335)" fill="#fbbca6"/>
                <g id="Grupo_896618" data-name="Grupo 896618" clip-path="url(#clip-path-13)">
                  <path id="Trazado_664082" data-name="Trazado 664082" d="M230.872,219.133c2.435.717,5.322-.167,7.82-.026,7,.4,7.747-3.883,10.033-3.69,1.216.1-.7,3.924.426,4.4,1.058.449,1.256,1.336,2.247,1.83.967.482,1.846.758,2.116,1.944.246,1.082-.407,2.249-.042,3.192,1.009,2.612,5.015-.028,6.845.265a9.732,9.732,0,0,1,1.7.733,18.318,18.318,0,0,0,3.514.967c2.653.466,5.265,1.047,7.887,1.665,1.559.368,3.821.861,4.342,2.591,1.59,5.276-10.426,3.62-12.668,3.522a74.243,74.243,0,0,1-10.825-.8,33.391,33.391,0,0,1-10.273-3.74,59.869,59.869,0,0,1-6.509-4.431c-1.145-.95-2.029-2.143-3.263-3.01a11.56,11.56,0,0,1-2.788-2.177Z" transform="translate(-231.509 -215.794)" opacity="0.2"/>
                </g>
              </g>
              <g id="Grupo_896621" data-name="Grupo 896621" transform="translate(13.297 10.729)">
                <path id="Trazado_664084" data-name="Trazado 664084" d="M303.021,270.63c1.086-.072,3.792-2.034,4.59-2.8s1.148-2.816-.283-2.695-4.293,1.72-5.223,2.156-1.841,1.46-.779,2.6A2.217,2.217,0,0,0,303.021,270.63Z" transform="translate(-300.85 -265.135)" fill="#fbbca6"/>
                <g id="Grupo_896620" data-name="Grupo 896620" clip-path="url(#clip-path-14)">
                  <path id="Trazado_664085" data-name="Trazado 664085" d="M302.861,271.468c1.087-.755,2.172-2.109,1.546.022s-2.042,3.084-4.038,3.9c-1.091.446-2.153.94-3.279.33-.4-.215-1.263-.978-1.255-1.477.015-.971.864-.523,1.56-.509C299.48,273.777,301.21,272.614,302.861,271.468Z" transform="translate(-296.833 -269.307)" opacity="0.1"/>
                </g>
              </g>
              <g id="Grupo_896623" data-name="Grupo 896623" transform="translate(11.153 7.661)">
                <path id="Trazado_664087" data-name="Trazado 664087" d="M298.342,249.735a54.205,54.205,0,0,0-5.579,1.595c-1.381.408-2.973.618-2.636,2.37s.847,1.737,1.77,1.711,6.33-2.354,7.313-2.956S300.275,249.557,298.342,249.735Z" transform="translate(-290.081 -249.726)" fill="#fbbca6"/>
                <g id="Grupo_896622" data-name="Grupo 896622" clip-path="url(#clip-path-15)">
                  <path id="Trazado_664088" data-name="Trazado 664088" d="M292.623,256.842c.844-.473,1.992-1.88,3-1.878,2.2.006-.73,2.655-1.285,3.172a10.5,10.5,0,0,1-6.577,2.316,2.325,2.325,0,0,1-2.146-.67c-1.638-2.026,1.43-1.368,2.514-1.5A12.411,12.411,0,0,0,292.623,256.842Z" transform="translate(-286.13 -253.922)" opacity="0.1"/>
                </g>
              </g>
              <g id="Grupo_896625" data-name="Grupo 896625" transform="translate(7.91 5.365)">
                <path id="Trazado_664090" data-name="Trazado 664090" d="M282.689,238.277a28.8,28.8,0,0,1-4.134.413,5.636,5.636,0,0,0-2.824.106c-1.791.4-2.723,3.2-1.1,3.692a10.77,10.77,0,0,0,5.092-.146c1.125-.3,4.884-1.122,4.672-2.8S283.471,238.2,282.689,238.277Z" transform="translate(-273.793 -238.198)" fill="#fbbca6"/>
                <g id="Grupo_896624" data-name="Grupo 896624" clip-path="url(#clip-path-16)">
                  <path id="Trazado_664091" data-name="Trazado 664091" d="M275.216,246.68a28.986,28.986,0,0,1,3.8-1.139c2.133-.33.551,1.566-.536,2.144-2.257,1.2-5.845,2.8-8.464,2.037-1.233-.358-3.171-2.812-.991-2.874,1-.028,2.046.461,3.117.4A12.961,12.961,0,0,0,275.216,246.68Z" transform="translate(-269.187 -244.049)" opacity="0.1"/>
                </g>
              </g>
              <g id="Grupo_896627" data-name="Grupo 896627" transform="translate(13.475)">
                <path id="Trazado_664093" data-name="Trazado 664093" d="M315.032,215.68c-.293-.59-.818-1.369-2.773-2.419s-3.75-2.186-5.056-1.985-2.538,1.493-3.577,2.411-2.107,2.218-1.843,2.866a16.9,16.9,0,0,1,1.226,2.75c.234,1.018.328,2.86,1.473,2.785a1.766,1.766,0,0,0,1.874-1.816c.049-1.149-.736-2.806-.543-3.221s1.254,0,1.8-.625.765-.841.765-.841" transform="translate(-301.742 -211.252)" fill="#fbbca6"/>
                <g id="Grupo_896626" data-name="Grupo 896626" clip-path="url(#clip-path-17)">
                  <path id="Trazado_664094" data-name="Trazado 664094" d="M306.6,234.9a1.514,1.514,0,0,0,2.288-1.261,5.906,5.906,0,0,0-.735-3.033c-.832-1.725.121-.524,1.225-1.279.474-.324.379-1,1.082-1.047.483-.031.879.432,1.149.766.877,1.082.217,1.032-.479,1.756-.879.915-.44,1.791-.379,2.967s-.543,3.008-1.879,3.241c-.784.137-3.347-.989-2.8-1.963Z" transform="translate(-305.15 -224.891)" opacity="0.1"/>
                </g>
              </g>
              <path id="Trazado_664096" data-name="Trazado 664096" d="M310.9,252.569c-.389,0-.589.144-.558.549s.091,1.869,1.3,1.722,1.005-1.183.875-1.621S311.476,252.573,310.9,252.569Z" transform="translate(-295.154 -244.342)" fill="#fff" opacity="0.3"/>
              <path id="Trazado_664097" data-name="Trazado 664097" d="M328.382,251.04c-.377.142-1.042.44-1.017.808s.151,1.163.768,1.227a1.429,1.429,0,0,0,1.26-.361,1.628,1.628,0,0,0-.035-1.211A.831.831,0,0,0,328.382,251.04Z" transform="translate(-308.787 -243.087)" fill="#fff" opacity="0.3"/>
              <path id="Trazado_664098" data-name="Trazado 664098" d="M329.521,266.9c-.413.142-.81.289-.865.516s.241,1.12.722,1.188.916-.5.946-.877S330.031,266.721,329.521,266.9Z" transform="translate(-309.816 -255.792)" fill="#fff" opacity="0.3"/>
            </g>
            <path id="Trazado_664099" data-name="Trazado 664099" d="M403.218,238.2a23.447,23.447,0,0,1,0,6.578,25.18,25.18,0,0,1-2.432,5.549l19.756,5.708V239.44Z" transform="translate(-367.589 -232.833)" fill="#ec9e21"/>
          </g>
          <g id="Grupo_896639" data-name="Grupo 896639" transform="translate(32.445 38.917)">
            <path id="Trazado_664100" data-name="Trazado 664100" d="M45.355,211.252a20.051,20.051,0,0,1,4.188,2.045c2.8,1.76,3.113,3.132,3.113,3.132a7.229,7.229,0,0,1-5.806-.354C44.221,214.475,45.355,211.252,45.355,211.252Z" transform="translate(-36.129 -201.665)" fill="#cf8416"/>
            <g id="Grupo_896638" data-name="Grupo 896638" transform="translate(3.54)">
              <g id="Grupo_896631" data-name="Grupo 896631" transform="translate(0 1.196)">
                <path id="Trazado_664101" data-name="Trazado 664101" d="M26.239,189.584c4.907-10.354,9.526-13.04,14.758-14.822,2.885-.983,9.952-3.67,10.654-3.813s.851-1.246.057-1.733-3.425.9-7.756,1.576c-3.143.491-8.717-.008-13.22,1.529-3.294,1.123-9.771,9.054-12.952,13.508C19.011,186.694,24.326,188.239,26.239,189.584Z" transform="translate(-17.78 -169.114)" fill="#fbbca6"/>
                <g id="Grupo_896630" data-name="Grupo 896630" clip-path="url(#clip-path-18)">
                  <path id="Trazado_664102" data-name="Trazado 664102" d="M151.115,171.165c-.814.241-3.506.635-3.946,1.478-.5.957,1.062,1,1.7.953,2.172-.152,4.146-1.068,6.23-1.576.717-.175,2.082-.367,2.255-1.273s-.748-1.246-1.476-1.269C154.178,169.424,152.684,170.7,151.115,171.165Z" transform="translate(-121.328 -169.404)" opacity="0.2"/>
                </g>
              </g>
              <g id="Grupo_896633" data-name="Grupo 896633" transform="translate(24.525 0.384)">
                <path id="Trazado_664104" data-name="Trazado 664104" d="M141.433,168.491a31.793,31.793,0,0,0,6.075-.891,32.428,32.428,0,0,0,3.828-1.868,3.07,3.07,0,0,1,2.39-.63c.719.2.173,1.181.173,1.181s-3.434,2.676-4.8,3.014-6.8,1.376-7.525,1.1S140.689,168.506,141.433,168.491Z" transform="translate(-140.946 -165.036)" fill="#fbbca6"/>
                <g id="Grupo_896632" data-name="Grupo 896632" clip-path="url(#clip-path-19)">
                  <path id="Trazado_664105" data-name="Trazado 664105" d="M149.517,167.915a16.365,16.365,0,0,0,4.085-1.353c1.159-.729,1.493-1.436,2.913-1.111.925.211.779,1.243.527,1.872a4.326,4.326,0,0,1-2.89,2.564,22.14,22.14,0,0,1-7.132,1.255c-.977-.057-4.023-1.122-3.114-1.9C144.74,168.525,148.465,168.221,149.517,167.915Z" transform="translate(-143.183 -165.303)" opacity="0.2"/>
                </g>
              </g>
              <g id="Grupo_896635" data-name="Grupo 896635" transform="translate(23.885)">
                <path id="Trazado_664107" data-name="Trazado 664107" d="M139.547,167.134a46.453,46.453,0,0,0,7.082-1.039,37.806,37.806,0,0,0,4.464-2.177,3.577,3.577,0,0,1,2.786-.735c.839.239.2,1.377.2,1.377s-4,3.12-5.594,3.514-7.924,1.6-8.774,1.287S135.816,167.449,139.547,167.134Z" transform="translate(-137.734 -163.105)" fill="#fbbca6"/>
                <g id="Grupo_896634" data-name="Grupo 896634" clip-path="url(#clip-path-20)">
                  <path id="Trazado_664108" data-name="Trazado 664108" d="M157.663,170.809A44.409,44.409,0,0,1,151.47,173c-1.842.632-3.45.791-2.273,2.384.453.614,1.914.336,2.525.279a26.229,26.229,0,0,0,7.251-1.713c1.625-.65,4.773-1.661,5.539-3.41.668-1.523-1.664-1.76-2.736-1.579A14.661,14.661,0,0,0,157.663,170.809Z" transform="translate(-146.593 -167.75)" opacity="0.1"/>
                </g>
              </g>
              <g id="Grupo_896637" data-name="Grupo 896637" transform="translate(11.57 1.412)">
                <path id="Trazado_664110" data-name="Trazado 664110" d="M95.185,173.284c1.253-.224,2.744.336,3.479-.134a39.631,39.631,0,0,1,4.376-2.772,2.181,2.181,0,0,1,2.2.2c.255.365-3.877,3.7-5.12,4.69s-1.328.677-3.137,1.224a45.069,45.069,0,0,0-4.971,1.734,12.047,12.047,0,0,1-6.48,1.573c-1.752.006-3.286-.719-7.631,1.976s-1.3-8.151,5.63-8.7c1.227-.1,3.661.257,5.424,0A14.462,14.462,0,0,1,95.185,173.284Z" transform="translate(-75.885 -170.196)" fill="#fbbca6"/>
                <g id="Grupo_896636" data-name="Grupo 896636" transform="translate(0)" clip-path="url(#clip-path-21)">
                  <path id="Trazado_664111" data-name="Trazado 664111" d="M106.312,184.213c2.067-1.648,3.615,1.569,6.049,1.283,2.637-.311,5.763-1.321,9.022-1.936,3.106-.586-1.036-4.141-3.121-3.706-2.726.569-9.411-.6-11.757.808Z" transform="translate(-100.253 -177.901)" opacity="0.1"/>
                </g>
              </g>
              <path id="Trazado_664113" data-name="Trazado 664113" d="M88.774,182.683a15.5,15.5,0,0,1,5.309.573,3.5,3.5,0,0,0,3.207-.135,15.46,15.46,0,0,1,6.591-.748c1.011.316,2.066,1.206,1.417,1.985s-2.955.956-4.151,1.292a27.6,27.6,0,0,1-2.927.872c-.905.133-3.273,1.525-4.42,1.653s-4.78.227-6.479-1.421C84.838,184.346,85.251,183.321,88.774,182.683Z" transform="translate(-72.209 -178.441)" fill="#fbbca6"/>
              <path id="Trazado_664114" data-name="Trazado 664114" d="M169.648,185.8c-.9.163-1.67.264-1.622.86s-.021,1.089.609,1.137,2.348-.168,2.308-.982A1.016,1.016,0,0,0,169.648,185.8Z" transform="translate(-138.107 -181.259)" fill="#fff" opacity="0.3"/>
            </g>
            <path id="Trazado_664115" data-name="Trazado 664115" d="M9.226,211.252a6.75,6.75,0,0,0,2.853,3.834,11.071,11.071,0,0,0,4.449,1.342L0,243.791v-20.46Z" transform="translate(0 -201.665)" fill="#ec9e21"/>
          </g>
          <g id="Grupo_896641" data-name="Grupo 896641" transform="translate(73.404 6.439)">
            <path id="Trazado_664116" data-name="Trazado 664116" d="M405.747,32.384s1.34,1.667,2.832,3.158a20.5,20.5,0,0,0,3.664,2.858s1.366-3.039-.938-4.782A8.193,8.193,0,0,0,405.747,32.384Z" transform="translate(-365.913 -25.88)" fill="#7d9106"/>
            <path id="Trazado_664117" data-name="Trazado 664117" d="M312.341,32.589a14.458,14.458,0,0,1-3.2,3.38,9.675,9.675,0,0,1-4.366,1.433s-.649-3.3,1.08-4.319A8.4,8.4,0,0,1,312.341,32.589Z" transform="translate(-284.948 -25.746)" fill="#7d9106"/>
            <g id="Grupo_896640" data-name="Grupo 896640" transform="translate(14.983 3.788)">
              <path id="Trazado_664118" data-name="Trazado 664118" d="M381.069,19.024c-.791.593-10.277,6.816-10.919,7.582a5.176,5.176,0,0,0-1.013,2.643,58.692,58.692,0,0,0,.716,8.029,14.269,14.269,0,0,1-.865,5.311c-.346.371-.889,1.037-.84,1.581s.222.618.4.741a.459.459,0,0,0,.42,0,.667.667,0,0,0,.889.593,1.873,1.873,0,0,0,1.087-.494,1.681,1.681,0,0,0,1.63-.3A23.027,23.027,0,0,0,376,40.983c.494-.791,1.458-2.5,1.73-2.89s1.087-.939,1.531-1.482-.025-2.47,0-3.137a6.263,6.263,0,0,0-.692-3.014c-.494-.618-1.48-1.737-.84-2.149,1.112-.716,12.48-4.494,12.48-4.494Z" transform="translate(-350.782 -19.024)" fill="#e4a692"/>
              <path id="Trazado_664119" data-name="Trazado 664119" d="M387.811,106.547c-.076.033-1.144.216-2.148.393a1.945,1.945,0,0,1-1.547-.451,1.378,1.378,0,0,1-.114-1.034h0c.01-.015.019-.031.029-.046.038-.054-.045-.116-.09-.071a.085.085,0,0,0-.1.022,1.866,1.866,0,0,0-.355,1.522.515.515,0,0,0,.2.3.073.073,0,0,0,.034.094c.21.1.618.618.941.749l.022.018a.066.066,0,0,0,.066.009.252.252,0,0,0,.087,0h.01a.052.052,0,0,0,.057,0c.036-.023.07-.048.1-.074a.082.082,0,0,0,.063-.017.509.509,0,0,0,.134-.135l.036-.024a1.394,1.394,0,0,1,.27-.126.449.449,0,0,1,.545.235c.1.3-.15.7-.273.957a.092.092,0,0,0,.014.1l0,0c-.052.071.063.158.121.093a1.07,1.07,0,0,0,.187-.3.09.09,0,0,0,.041-.048,4.288,4.288,0,0,1,.654-1.195,3.74,3.74,0,0,1,.756-.667c.028-.012.253-.179.308-.219A.049.049,0,0,0,387.811,106.547Z" transform="translate(-363.033 -88.138)" opacity="0.2"/>
              <path id="Trazado_664120" data-name="Trazado 664120" d="M379.729,138.169a.1.1,0,0,1-.074-.038c-.075-.044-.142.034-.132.106a.3.3,0,0,0-.264.1c-.041.038,0,.12.057.1a.225.225,0,0,1,.327.178,5.317,5.317,0,0,0-.1.575.046.046,0,0,0-.01.016.681.681,0,0,0-.037.224.774.774,0,0,0,.012.251.061.061,0,0,0,.023.032,1.1,1.1,0,0,0,.1.378c.051.11.215.015.163-.1-.383-.807.475-1.31.771-1.952.024-.051-.039-.11-.082-.063l-.04.044a.1.1,0,0,0-.114-.019l-.048.023a.073.073,0,0,0-.036.034h-.012a1.269,1.269,0,0,1-.387,0A1.02,1.02,0,0,1,379.729,138.169Z" transform="translate(-359.67 -114.283)" opacity="0.2"/>
              <path id="Trazado_664121" data-name="Trazado 664121" d="M371.571,140.379c-.052.037-.1.075-.155.114a.083.083,0,0,0-.021-.014.09.09,0,0,0-.142-.021l-.036.039c-.011-.018-.023-.035-.035-.053a.1.1,0,0,0-.136-.023l-.01-.011a.083.083,0,0,0-.143.032c-.013-.01-.026-.02-.04-.03a.079.079,0,0,0-.123.042.5.5,0,0,0-.348-.048c-.062.014-.04.1.014.1a.447.447,0,0,1,.435.347,3.538,3.538,0,0,0-.278.733.075.075,0,0,0,0,.037.285.285,0,0,0-.008.149.064.064,0,0,0,.011.025c0,.045-.008.091-.008.138a.1.1,0,0,0,.189,0c0-.652.48-1.048.9-1.479C371.672,140.419,371.62,140.344,371.571,140.379Z" transform="translate(-352.542 -116.207)" opacity="0.2"/>
              <path id="Trazado_664122" data-name="Trazado 664122" d="M385.907,76.9a7.633,7.633,0,0,0,4.421,4.78" transform="translate(-365.007 -65.374)" opacity="0.1"/>
              <path id="Trazado_664123" data-name="Trazado 664123" d="M384.328,87.513a5.725,5.725,0,0,0,4.492,2.613" transform="translate(-363.742 -73.875)" opacity="0.1"/>
              <path id="Trazado_664124" data-name="Trazado 664124" d="M382.575,96.233a3.231,3.231,0,0,1,2.855,2.456" transform="translate(-362.338 -80.859)" opacity="0.1"/>
              <path id="Trazado_664125" data-name="Trazado 664125" d="M407.523,96.168a1.562,1.562,0,0,1-1.018-1.657c.15-.751.722-1.719.723-2.2a6.2,6.2,0,0,0-.553-2.269c-.244-.242-.041-.271.328-.133s.562-.325.624.034-.313.486-.189,1.059.03.9.589,1.172.022.249-.3.5a2.975,2.975,0,0,0-.742,2.1A3.69,3.69,0,0,0,407.523,96.168Z" transform="translate(-381.485 -75.709)" opacity="0.1"/>
              <path id="Trazado_664126" data-name="Trazado 664126" d="M287.762,19.024c2.569,1.754,11.142,8.1,11.487,8.644a11.924,11.924,0,0,1,.766,3.607c.074,1.087.222,2.52.321,3.187a8.488,8.488,0,0,0,.815,2.816,11.446,11.446,0,0,0,1.8,1.631c.544.37,1.161.914,1.062,1.26s-.247.346-.247.346.519.692.025,1.013a1.358,1.358,0,0,1-.751.3.574.574,0,0,1-.338.865,7.025,7.025,0,0,1-1.773.272.757.757,0,0,1-.8.4,11.907,11.907,0,0,1-1.923,0,7.254,7.254,0,0,1-3.064-.94c-.469-.42-.638-.973-1.072-.975-.46,0-1.343-1.74-1.546-1.99-.583-.715-1.124-.917-1.334-1.408-.414-.971-1.095-3.959-.867-4.718.314-1.048,1.46-2.94,1.238-3.73s-10.623-5.976-10.623-5.976Z" transform="translate(-280.944 -19.024)" fill="#fbbca6"/>
              <path id="Trazado_664127" data-name="Trazado 664127" d="M342.617,102.507c-.339.039.749-.276.737-.978a3.537,3.537,0,0,0-.737-2.217,1.908,1.908,0,0,0-1-.4c-.24-.057.306-.163.523-.375a2.434,2.434,0,0,0,.17-1.439c-.1-.579-.857-.991-.693-1.028.778-.178.749-1.117.947-.693s-.045.832.056,1.372-.181,1.545.038,1.905a5.245,5.245,0,0,1,1.036,2.45C343.691,102.1,343.225,102.437,342.617,102.507Z" transform="translate(-329.485 -80.09)" opacity="0.1"/>
              <path id="Trazado_664128" data-name="Trazado 664128" d="M352.762,110.564a1.568,1.568,0,0,1,.9-.155,4.7,4.7,0,0,0,1.762-.34,4.851,4.851,0,0,0,1.137-.883c.325-.346.665-.775.848-.568s-.184.306-.254.568-.015.362.155.728a1.667,1.667,0,0,0,.616.848c.284.142.982.2,1.265.431a5.883,5.883,0,0,0,1.287.49c.41.167.609.277.763.634s-.169-.17-.777-.311-1.118-.1-1.429-.205-.523-.516-.876-.544a1.482,1.482,0,0,1-1.053-.467c-.163-.283-.205-.537-.544-.693s-1.11.071-.845.453a8.1,8.1,0,0,0,.774,1.133c.254.228,1.081.317,1.436.577a2.134,2.134,0,0,0,1.327.363,1.653,1.653,0,0,1,1.242.908c.041.262-.371-.409-1.347-.494s-.958-.28-1.361-.209-.138-.427-.661-.526-.913.028-.973-.17a2.545,2.545,0,0,0-.738-1.055,1.362,1.362,0,0,0-1.23-.245c-.282.17-.1.471.212.85s.206.676.867.874.756.361,1.137.441a4.959,4.959,0,0,1,1.525.478,1.114,1.114,0,0,1,.411,1.1c-.1.344-.306-.813-1.069-.954s-1.184-.32-1.552-.141-.032-.226-.3-.424a1.863,1.863,0,0,0-1.357-.368c-.55.1-.142-.24-.2-.65s-.6-1.145-.928-1.159S352.527,110.723,352.762,110.564Z" transform="translate(-338.352 -90.735)" opacity="0.1"/>
              <path id="Trazado_664129" data-name="Trazado 664129" d="M352.805,88.9c.125.535.2,2.081-2.167,3.306" transform="translate(-336.76 -74.988)" opacity="0.1"/>
              <path id="Trazado_664130" data-name="Trazado 664130" d="M359.674,97.736c-1.6.407-2.89,1.019-3.467,2.587" transform="translate(-341.221 -82.063)" opacity="0.1"/>
            </g>
            <path id="Trazado_664131" data-name="Trazado 664131" d="M225.521,11.656a7.862,7.862,0,0,1,3.27-3.846,6.594,6.594,0,0,1,4.3-.967L223.916,0H205.7Z" transform="translate(-205.698)" fill="#94b50b"/>
            <path id="Trazado_664132" data-name="Trazado 664132" d="M405.747,6.5a17.486,17.486,0,0,1,4.572,2.326,5.818,5.818,0,0,1,1.923,3.691l12.272-3.507V0h-8.653Z" transform="translate(-365.913)" fill="#94b50b"/>
          </g>
        </g>
      </g>
    </g>
  </g>
</svg>
