<svg xmlns="http://www.w3.org/2000/svg" width="342.088" height="280.946" viewBox="0 0 342.088 280.946">
  <g id="Grupo_898330" data-name="Grupo 898330" transform="translate(-297.5 -1101.901)">
    <g id="Grupo_896505" data-name="Grupo 896505" transform="translate(273.25 1033.896)">
      <g id="OBJECTS" transform="translate(24.25 68.006)">
        <path id="Trazado_622518" data-name="Trazado 622518" d="M341.985,186.644c17.563-47.145-38.951-48.933-70.9-48-10.975.319-15.168-.973-33.972,3.213-40.818,9.088-51.65,7.569-89.844-21.277-26.951-20.355-91.185-31.069-70.665,37.5,9.694,32.39,14,73.722-16.841,83.768s-40.423,61.068-9.738,78.622,70.21-5.433,103.985,22.789,54.223-32.887,112.878-19.626,82.1-11.434,88.553-49.793C359.6,249.094,332.05,213.314,341.985,186.644Z" transform="translate(-25.831 -76.384)" fill="#9a0606" opacity="0.1"/>
        <g id="Grupo_888831" data-name="Grupo 888831">
          <g id="Grupo_888806" data-name="Grupo 888806" transform="translate(136.989)">
            <g id="Grupo_888805" data-name="Grupo 888805" transform="translate(13.453 8.86)">
              <path id="Trazado_622519" data-name="Trazado 622519" d="M229.7,165.652c-10.8-42.472-11.913-71.6-3.153-84.462a1.118,1.118,0,1,0-1.848-1.259c-5.243,7.7-7.2,20.613-5.813,38.381,1.029,13.2,3.891,29.1,8.507,47.34Z" transform="translate(-218.449 -79.443)" fill="#00a40b"/>
            </g>
            <path id="Trazado_622520" data-name="Trazado 622520" d="M215.757,104.8s-9.191,1.7-11.547-14.576C204.21,90.224,219.016,91.612,215.757,104.8Z" transform="translate(-201.788 -73.012)" fill="#2a660d"/>
            <path id="Trazado_622521" data-name="Trazado 622521" d="M220.093,116.362S217.885,107.28,234,104.021C234,104.021,233.443,118.882,220.093,116.362Z" transform="translate(-205.343 -76.121)" fill="#2a660d"/>
            <path id="Trazado_622522" data-name="Trazado 622522" d="M223.474,84.278s-5.11-7.826,9-16.272C232.474,68.006,236.9,82.2,223.474,84.278Z" transform="translate(-205.925 -68.006)" fill="#2a660d"/>
            <path id="Trazado_622523" data-name="Trazado 622523" d="M216.88,138.98s-8.074,4.708-15.8-9.811C201.083,129.169,215.486,125.467,216.88,138.98Z" transform="translate(-201.083 -81.683)" fill="#2a660d"/>
            <path id="Trazado_622524" data-name="Trazado 622524" d="M224.067,148.695s-3.746-8.563,11.567-14.561C235.634,134.134,237.651,148.868,224.067,148.695Z" transform="translate(-206.171 -82.906)" fill="#2a660d"/>
            <path id="Trazado_622525" data-name="Trazado 622525" d="M221.757,165.382s-7.983,4.86-15.981-9.51C205.776,155.872,220.107,151.9,221.757,165.382Z" transform="translate(-202.14 -87.681)" fill="#2a660d"/>
          </g>
          <g id="Grupo_888808" data-name="Grupo 888808" transform="translate(288.79 115.304)">
            <g id="Grupo_888807" data-name="Grupo 888807" transform="translate(0 8.524)">
              <path id="Trazado_622526" data-name="Trazado 622526" d="M438.953,227.855a1.026,1.026,0,0,0-.933,1.109c1.226,14.305-12.926,37.271-40.983,66.613q.941.5,1.886.994c12.106-12.694,21.695-24.28,28.538-34.5,9.092-13.576,13.331-24.774,12.6-33.283A1.026,1.026,0,0,0,438.953,227.855Z" transform="translate(-397.037 -227.851)" fill="#00a40b"/>
            </g>
            <path id="Trazado_622527" data-name="Trazado 622527" d="M445.47,253.281s6.581,5.489,15.778-6.459C461.248,246.822,448.792,241.279,445.47,253.281Z" transform="translate(-407.95 -223.313)" fill="#2a660d"/>
            <path id="Trazado_622528" data-name="Trazado 622528" d="M437.662,259.113s5.846-6.265-5.571-16.112C432.091,243,425.863,255.128,437.662,259.113Z" transform="translate(-404.565 -222.74)" fill="#2a660d"/>
            <path id="Trazado_622529" data-name="Trazado 622529" d="M449.52,232.492s7.6-3.958.12-17.048C449.64,215.444,439.724,224.8,449.52,232.492Z" transform="translate(-407.436 -215.444)" fill="#2a660d"/>
            <path id="Trazado_622530" data-name="Trazado 622530" d="M428.787,279.413s4.336,7.391,17.033-.741C445.82,278.671,435.973,269.241,428.787,279.413Z" transform="translate(-404.191 -229.881)" fill="#2a660d"/>
            <path id="Trazado_622531" data-name="Trazado 622531" d="M420.045,283.432s6.841-5.16-2.7-16.834C417.344,266.6,409.113,277.466,420.045,283.432Z" transform="translate(-400.943 -228.057)" fill="#2a660d"/>
            <path id="Trazado_622532" data-name="Trazado 622532" d="M413.011,298.29s4.2,7.472,17.044-.418C430.055,297.871,420.389,288.256,413.011,298.29Z" transform="translate(-400.636 -234.168)" fill="#2a660d"/>
          </g>
          <g id="Grupo_888810" data-name="Grupo 888810" transform="translate(0 156.031)">
            <g id="Grupo_888809" data-name="Grupo 888809" transform="translate(3.562 8.144)">
              <path id="Trazado_622533" data-name="Trazado 622533" d="M87.489,321.27c-33.161-14.382-52.747-28.385-56.8-40.689a.943.943,0,0,0-1.792.59c2.46,7.461,10.093,15.4,22.69,23.594,9.116,5.931,20.833,12.014,34.9,18.127Q86.995,322.084,87.489,321.27Z" transform="translate(-28.848 -279.933)" fill="#00a40b"/>
            </g>
            <path id="Trazado_622534" data-name="Trazado 622534" d="M39.929,300.21s-3.582,7.02-15.679.24C24.25,300.45,32.78,291.259,39.929,300.21Z" transform="translate(-24.25 -275.475)" fill="#2a660d"/>
            <path id="Trazado_622535" data-name="Trazado 622535" d="M51.27,301.728s-7.209-3.185-1.113-15.641C50.157,286.087,59.809,294.092,51.27,301.728Z" transform="translate(-29.536 -273.175)" fill="#2a660d"/>
            <path id="Trazado_622536" data-name="Trazado 622536" d="M31.58,283.794s-7.858-.6-6.264-14.374C25.316,269.42,37.085,273.749,31.58,283.794Z" transform="translate(-24.442 -269.42)" fill="#2a660d"/>
            <path id="Trazado_622537" data-name="Trazado 622537" d="M63.458,316.172s-1,7.818-14.672,5.53C48.786,321.7,53.7,310.168,63.458,316.172Z" transform="translate(-29.778 -279.564)" fill="#2a660d"/>
            <path id="Trazado_622538" data-name="Trazado 622538" d="M75.029,316.066s-7.651-1.891-3.8-15.212C71.228,300.854,82.119,307.069,75.029,316.066Z" transform="translate(-34.591 -276.503)" fill="#2a660d"/>
            <path id="Trazado_622539" data-name="Trazado 622539" d="M83.64,326.427s-.847,7.835-14.565,5.807C69.074,332.234,73.772,320.608,83.64,326.427Z" transform="translate(-34.35 -281.897)" fill="#0d5366"/>
          </g>
          <g id="Grupo_888818" data-name="Grupo 888818" transform="translate(153.814 1.415)">
            <path id="Trazado_622540" data-name="Trazado 622540" d="M285.154,136.315C282.6,173.2,253.025,187.866,247.443,191.1c-7.177,4.16-15.155,4.744-20.032,4.614-1.028-.026-1.918-.088-2.636-.153-1.25-.11-1.972-.239-1.972-.239s2.378-20.414,5.617-42.576C231.306,133,241.779,100.114,272.9,69.832,272.9,69.832,287.858,97.222,285.154,136.315Z" transform="translate(-222.802 -69.832)" fill="#73a160"/>
            <g id="Grupo_888811" data-name="Grupo 888811" transform="translate(1.972 25.258)">
              <path id="Trazado_622541" data-name="Trazado 622541" d="M270.635,103.7c-.026.144-2.092,11.074-6.744,26.4a1.143,1.143,0,0,1-.047.151q-.905,2.979-1.945,6.169c-.258.8-.523,1.6-.8,2.41-.844,2.511-1.745,5.094-2.711,7.73-.958,2.613-2,5.343-3.138,8.155a.874.874,0,0,1-.06.153c-1.222,3.029-2.548,6.149-3.982,9.323-.375.838-.763,1.683-1.154,2.527-1.894,4.069-3.958,8.205-6.2,12.321l0,0q-.114.216-.239.434s0,0-.006.009c-1.6,2.922-3.292,5.829-5.073,8.694q-.84,1.347-1.707,2.683a140.413,140.413,0,0,1-8.844,12.2c-1.028-.026-1.918-.088-2.636-.153a152.254,152.254,0,0,0,16.244-24.18q.627-1.138,1.234-2.275a233.675,233.675,0,0,0,10.227-21.986q.531-1.318,1.042-2.608c.809-2.056,1.567-4.061,2.278-6,2.045-5.576,3.808-10.924,5.307-15.827q.407-1.326.786-2.613c4.179-14.106,6.047-23.976,6.07-24.112a1.068,1.068,0,1,1,2.1.393Z" transform="translate(-225.348 -102.437)" fill="#cfd5cb"/>
            </g>
            <g id="Grupo_888812" data-name="Grupo 888812" transform="translate(30.855 38.506)">
              <path id="Trazado_622542" data-name="Trazado 622542" d="M271.412,134.755a1.068,1.068,0,0,1-1.02-.431c-.261-.362-6.414-8.895-7.719-13.423a1.068,1.068,0,1,1,2.052-.591c1.2,4.171,7.335,12.677,7.4,12.762a1.069,1.069,0,0,1-.71,1.683Z" transform="translate(-262.632 -119.538)" fill="#cfd5cb"/>
            </g>
            <g id="Grupo_888813" data-name="Grupo 888813" transform="translate(35.836 53.884)">
              <path id="Trazado_622543" data-name="Trazado 622543" d="M270.281,147.311a1.068,1.068,0,0,1-.389-2.1c.1-.023,10.37-2.384,15.04-5.633a1.068,1.068,0,1,1,1.22,1.753c-5.012,3.487-15.349,5.864-15.786,5.963C270.338,147.3,270.309,147.307,270.281,147.311Z" transform="translate(-269.061 -139.388)" fill="#cfd5cb"/>
            </g>
            <g id="Grupo_888814" data-name="Grupo 888814" transform="translate(20.786 52.735)">
              <path id="Trazado_622544" data-name="Trazado 622544" d="M259.86,163.449a1.068,1.068,0,0,1-1.086-.536c-.313-.561-7.686-13.844-9.13-23.787a1.068,1.068,0,0,1,2.113-.307c1.387,9.549,8.806,22.918,8.881,23.052a1.069,1.069,0,0,1-.779,1.577Z" transform="translate(-249.634 -137.905)" fill="#cfd5cb"/>
            </g>
            <g id="Grupo_888815" data-name="Grupo 888815" transform="translate(24.884 76.95)">
              <path id="Trazado_622545" data-name="Trazado 622545" d="M256.143,181.883a1.068,1.068,0,0,1-.379-2.1c.125-.027,12.552-2.8,21.108-10.351a1.067,1.067,0,1,1,1.413,1.6c-8.982,7.932-21.538,10.723-22.069,10.838C256.193,181.875,256.168,181.88,256.143,181.883Z" transform="translate(-254.924 -169.164)" fill="#cfd5cb"/>
            </g>
            <g id="Grupo_888816" data-name="Grupo 888816" transform="translate(10.868 78.902)">
              <path id="Trazado_622546" data-name="Trazado 622546" d="M245.568,195.418a1.067,1.067,0,0,1-1.084-.533c-.248-.439-6.086-10.9-7.643-21.985a1.068,1.068,0,0,1,.9-1.2h.005a1.067,1.067,0,0,1,1.205.909c1.5,10.694,7.329,21.13,7.388,21.234a1.069,1.069,0,0,1-.776,1.581Z" transform="translate(-236.831 -171.683)" fill="#cfd5cb"/>
            </g>
            <g id="Grupo_888817" data-name="Grupo 888817" transform="translate(11.768 100.033)">
              <path id="Trazado_622547" data-name="Trazado 622547" d="M239.213,212.715a1.068,1.068,0,0,1-.373-2.1A63.591,63.591,0,0,0,262.2,199.19a1.068,1.068,0,1,1,1.324,1.676A64.552,64.552,0,0,1,239.28,212.7Z" transform="translate(-237.993 -198.96)" fill="#00a498"/>
            </g>
          </g>
          <g id="Grupo_888824" data-name="Grupo 888824" transform="translate(13.09 30.331)">
            <path id="Trazado_622548" data-name="Trazado 622548" d="M132.582,255.912a47.311,47.311,0,0,1-7.335,2.865c-.694.206-1.388.4-2.085.576-20.771,5.314-43.078-2.106-43.078-2.106s-40.8-9.431-36.006-29.057,21.576-4.939,28.768-7.491-9.591-17.437-22.377-32.767S44.31,161.376,52.1,162.91s8.872-8.836,1.2-18.241c-8.132-9.964-19.669-34.32-5.4-37.273,16.309-3.378,21.373,30.462,34.359,31.661s2.971-13.406,12.96-13.406,18.181,22.576,12.388,40.757,3.794,34.95,7.989,29.96,3.317-23.412,11.99-25.166C144.372,167.807,155.361,244.692,132.582,255.912Z" transform="translate(-41.147 -107.159)" fill="#73a160"/>
            <g id="Grupo_888819" data-name="Grupo 888819" transform="translate(16.591 21.146)">
              <path id="Trazado_622549" data-name="Trazado 622549" d="M130.073,264.927c-.694.206-1.388.4-2.085.576-19.234-41.589-64.81-128.549-65.3-129.484a1.066,1.066,0,1,1,1.889-.989C65.068,135.969,110.892,223.394,130.073,264.927Z" transform="translate(-62.564 -134.456)" fill="#cfd5cb"/>
            </g>
            <g id="Grupo_888820" data-name="Grupo 888820" transform="translate(41.232 44.114)">
              <path id="Trazado_622550" data-name="Trazado 622550" d="M95.439,190.844a1.068,1.068,0,0,1-.932-1.587c.079-.143,7.944-14.369,9.759-24.277a1.068,1.068,0,1,1,2.1.384c-1.879,10.257-9.663,24.336-9.993,24.93A1.067,1.067,0,0,1,95.439,190.844Z" transform="translate(-94.372 -164.104)" fill="#cfd5cb"/>
            </g>
            <g id="Grupo_888821" data-name="Grupo 888821" transform="translate(19.29 74.007)">
              <path id="Trazado_622551" data-name="Trazado 622551" d="M94,210.521l-.064,0c-.66-.04-16.282-1.015-27.243-5.781a1.068,1.068,0,0,1,.851-1.958c10.609,4.613,26.36,5.6,26.518,5.607A1.068,1.068,0,0,1,94,210.521Z" transform="translate(-66.048 -202.692)" fill="#cfd5cb"/>
            </g>
            <g id="Grupo_888822" data-name="Grupo 888822" transform="translate(68.226 98.425)">
              <path id="Trazado_622552" data-name="Trazado 622552" d="M130.284,260.132a1.068,1.068,0,0,1-.765-1.812c.128-.131,12.781-13.255,14.6-23.232a1.067,1.067,0,1,1,2.1.383c-1.933,10.618-14.628,23.782-15.167,24.337A1.064,1.064,0,0,1,130.284,260.132Z" transform="translate(-129.217 -234.212)" fill="#00a498"/>
            </g>
            <g id="Grupo_888823" data-name="Grupo 888823" transform="translate(37.558 130.233)">
              <path id="Trazado_622553" data-name="Trazado 622553" d="M108.944,279.744c-6.106,0-12.878-.553-18.574-2.388a1.067,1.067,0,0,1,.655-2.032c13.594,4.378,34.416,1.061,34.624,1.027a1.068,1.068,0,1,1,.343,2.108A116.824,116.824,0,0,1,108.944,279.744Z" transform="translate(-89.629 -275.272)" fill="#cfd5cb"/>
            </g>
          </g>
          <g id="Grupo_888830" data-name="Grupo 888830" transform="translate(230.052 4.948)">
            <path id="Trazado_622554" data-name="Trazado 622554" d="M329.048,196.254a42.36,42.36,0,0,0,6.151,3.439c.59.268,1.181.527,1.779.767,17.764,7.256,38.449,3.412,38.449,3.412s37.328-3.359,35.484-21.346-18.523-7.024-24.587-10.168,10.64-14.284,23.855-26.308,8.717-22.787,1.622-22.382-6.782-8.921,1.174-16.319c8.43-7.837,21.645-28.015,9.352-32.384-14.045-4.994-22.683,24.386-34.343,23.858s-.991-12.249-9.847-13.474-18.886,17.787-15.979,34.616-7.648,30.52-10.756,25.582-.07-21.163-7.544-23.782C329.4,116.7,310.229,183.513,329.048,196.254Z" transform="translate(-321.214 -74.393)" fill="#73a160"/>
            <g id="Grupo_888825" data-name="Grupo 888825" transform="translate(13.985 17.764)">
              <path id="Trazado_622555" data-name="Trazado 622555" d="M339.267,204.859c.59.268,1.181.527,1.779.767C363.2,171.112,414.263,99.6,414.813,98.835a.955.955,0,1,0-1.554-1.109C412.708,98.5,361.364,170.389,339.267,204.859Z" transform="translate(-339.267 -97.324)" fill="#cfd5cb"/>
            </g>
            <g id="Grupo_888826" data-name="Grupo 888826" transform="translate(54.38 33.895)">
              <path id="Trazado_622556" data-name="Trazado 622556" d="M397.977,143.073A.956.956,0,0,0,399,141.781c-.053-.136-5.281-13.713-5.677-22.721a.956.956,0,0,0-1.91.084c.41,9.323,5.584,22.759,5.8,23.327A.96.96,0,0,0,397.977,143.073Z" transform="translate(-391.411 -118.147)" fill="#cfd5cb"/>
            </g>
            <g id="Grupo_888827" data-name="Grupo 888827" transform="translate(54.395 64.298)">
              <path id="Trazado_622557" data-name="Trazado 622557" d="M392.255,161.047l.057.006c.59.046,14.559,1.1,24.861-1.785a.956.956,0,0,0-.515-1.841c-9.971,2.789-24.056,1.731-24.2,1.721a.955.955,0,0,0-.206,1.9Z" transform="translate(-391.431 -157.392)" fill="#cfd5cb"/>
            </g>
            <g id="Grupo_888828" data-name="Grupo 888828" transform="translate(19.353 78.122)">
              <path id="Trazado_622558" data-name="Trazado 622558" d="M357.3,200.051a.955.955,0,0,0,.9-1.512c-.1-.132-9.707-13.318-10.095-22.386a.955.955,0,1,0-1.909.081c.412,9.651,10.053,22.878,10.464,23.436A.953.953,0,0,0,357.3,200.051Z" transform="translate(-346.196 -175.238)" fill="#cfd5cb"/>
            </g>
            <g id="Grupo_888829" data-name="Grupo 888829" transform="translate(24.567 108.545)">
              <path id="Trazado_622559" data-name="Trazado 622559" d="M368.557,219.608a56.217,56.217,0,0,0,16.76.16.955.955,0,1,0-.332-1.882c-12.589,2.215-30.642-3.278-30.823-3.333a.955.955,0,1,0-.562,1.826A104.471,104.471,0,0,0,368.557,219.608Z" transform="translate(-352.926 -214.51)" fill="#00a498"/>
            </g>
          </g>
        </g>
        <g id="Grupo_888863" data-name="Grupo 888863" transform="translate(81.725 13.665)">
          <g id="Grupo_888834" data-name="Grupo 888834" transform="translate(0 94.953)">
            <path id="Trazado_622560" data-name="Trazado 622560" d="M139.93,317.98h53.823l5.127-40.6c4.586-10.859,5.551-58.45,5.551-58.45l-23.332-7.6-29,.216-22.358,7.383s.978,46.044,5.564,56.9Z" transform="translate(-129.745 -208.919)" fill="#fb4938"/>
            <g id="Grupo_888833" data-name="Grupo 888833" transform="translate(22.358)">
              <g id="Grupo_888832" data-name="Grupo 888832">
                <path id="Trazado_622561" data-name="Trazado 622561" d="M187.6,210.63c-.673,3.912-2.868,17.611-13.7,17.611-11.126,0-14.545-13.75-15.294-17.395l5.741-2.439,16.765-.191Z" transform="translate(-158.606 -208.217)" fill="#f8c696"/>
              </g>
            </g>
          </g>
          <g id="Grupo_888862" data-name="Grupo 888862" transform="translate(5.563 0)">
            <circle id="Elipse_6041" data-name="Elipse 6041" cx="16.252" cy="16.252" r="16.252" transform="translate(10.722 31.171) rotate(-73.534)" fill="#272d35"/>
            <g id="Grupo_888835" data-name="Grupo 888835" transform="translate(11.933 9.5)">
              <path id="Trazado_622562" data-name="Trazado 622562" d="M168.49,112.541l-12.785-12.62a1.158,1.158,0,0,0-1.384-.184h0a1.159,1.159,0,0,0-.242,1.835l12.874,12.667S168.258,114.956,168.49,112.541Z" transform="translate(-152.646 -98.287)" fill="#fb4938"/>
              <path id="Trazado_622563" data-name="Trazado 622563" d="M157.788,100.638a2.729,2.729,0,1,1-2.729-2.729A2.729,2.729,0,0,1,157.788,100.638Z" transform="translate(-152.33 -97.909)" fill="#fb4938"/>
            </g>
            <g id="Grupo_888836" data-name="Grupo 888836" transform="translate(34.051 9.5)">
              <path id="Trazado_622564" data-name="Trazado 622564" d="M180.882,112.541l12.784-12.62a1.159,1.159,0,0,1,1.385-.184h0a1.159,1.159,0,0,1,.242,1.835L182.42,114.238S181.114,114.956,180.882,112.541Z" transform="translate(-180.882 -98.287)" fill="#fb4938"/>
              <path id="Trazado_622565" data-name="Trazado 622565" d="M199.746,100.638a2.729,2.729,0,1,1-2.729-2.729A2.729,2.729,0,0,1,199.746,100.638Z" transform="translate(-183.903 -97.909)" fill="#fb4938"/>
            </g>
            <g id="Grupo_888843" data-name="Grupo 888843" transform="translate(0 52.741)">
              <g id="Grupo_888840" data-name="Grupo 888840">
                <g id="Grupo_888839" data-name="Grupo 888839">
                  <g id="Grupo_888838" data-name="Grupo 888838">
                    <g id="Grupo_888837" data-name="Grupo 888837">
                      <path id="Trazado_622566" data-name="Trazado 622566" d="M147.088,156.337s-4.693-4.592-8.442-1.6c-4.427,3.539.2,16.278,8.058,14.929Z" transform="translate(-136.927 -153.727)" fill="#ffb285"/>
                    </g>
                  </g>
                </g>
              </g>
              <g id="Grupo_888841" data-name="Grupo 888841" transform="translate(2.836 13.089)">
                <path id="Trazado_622567" data-name="Trazado 622567" d="M147.912,185.276a7.327,7.327,0,1,1,7.327-7.326A7.334,7.334,0,0,1,147.912,185.276Zm0-13a5.676,5.676,0,1,0,5.677,5.677A5.683,5.683,0,0,0,147.912,172.273Z" transform="translate(-140.587 -170.623)" fill="#fbf9f9"/>
              </g>
              <g id="Grupo_888842" data-name="Grupo 888842" transform="translate(2.025 4.102)">
                <path id="Trazado_622568" data-name="Trazado 622568" d="M146.42,166.642a12.154,12.154,0,0,0-6.879-7.62s4.755,4.483,5.117,7.951a.863.863,0,0,0,.877.792l.105,0A.852.852,0,0,0,146.42,166.642Z" transform="translate(-139.541 -159.022)" fill="#f9a278"/>
              </g>
            </g>
            <g id="Grupo_888850" data-name="Grupo 888850" transform="translate(43.666 52.741)">
              <g id="Grupo_888847" data-name="Grupo 888847" transform="translate(6.113)">
                <g id="Grupo_888846" data-name="Grupo 888846">
                  <g id="Grupo_888845" data-name="Grupo 888845">
                    <g id="Grupo_888844" data-name="Grupo 888844">
                      <path id="Trazado_622569" data-name="Trazado 622569" d="M201.184,156.337s4.693-4.592,8.441-1.6c4.428,3.539-.2,16.278-8.057,14.929Z" transform="translate(-201.184 -153.727)" fill="#ffb285"/>
                    </g>
                  </g>
                </g>
              </g>
              <g id="Grupo_888848" data-name="Grupo 888848" transform="translate(0 13.089)">
                <path id="Trazado_622570" data-name="Trazado 622570" d="M200.619,185.276a7.327,7.327,0,1,1,7.326-7.326A7.335,7.335,0,0,1,200.619,185.276Zm0-13a5.676,5.676,0,1,0,5.676,5.677A5.682,5.682,0,0,0,200.619,172.273Z" transform="translate(-193.293 -170.623)" fill="#fbf9f9"/>
              </g>
              <g id="Grupo_888849" data-name="Grupo 888849" transform="translate(7.326 4.102)">
                <path id="Trazado_622571" data-name="Trazado 622571" d="M202.794,166.642a12.154,12.154,0,0,1,6.879-7.62s-4.755,4.483-5.117,7.951a.863.863,0,0,1-.878.792l-.1,0A.852.852,0,0,1,202.794,166.642Z" transform="translate(-202.75 -159.022)" fill="#f9a278"/>
              </g>
            </g>
            <g id="Grupo_888853" data-name="Grupo 888853" transform="translate(21.53 82.582)">
              <g id="Grupo_888851" data-name="Grupo 888851">
                <path id="Trazado_622572" data-name="Trazado 622572" d="M183.44,192.248l-.327,6.156-.41,7.715s-1.532,2.9-8.446,2.9-8.331-1.985-8.331-1.985l-.279-3.423-.929-11.368Z" transform="translate(-164.719 -192.248)" fill="#f8c696"/>
              </g>
              <g id="Grupo_888852" data-name="Grupo 888852">
                <path id="Trazado_622573" data-name="Trazado 622573" d="M183.44,192.248l-.327,6.156c-2.884,2.159-9.71,6.4-17.465,5.211l-.929-11.368Z" transform="translate(-164.719 -192.248)" fill="#f9a278"/>
              </g>
            </g>
            <path id="Trazado_622574" data-name="Trazado 622574" d="M193.389,142.9c-.064.736-.139,1.5-.216,2.261-1.626,15.838-8.769,35.854-23.979,35.854-13.616,0-23.776-18.887-25.973-34.331-.153-1.13-.292-2.223-.407-3.3A25.1,25.1,0,0,1,167.4,115.6h1.321a25.089,25.089,0,0,1,23.42,17.007,24.437,24.437,0,0,1,.94,3.594A24.906,24.906,0,0,1,193.389,142.9Z" transform="translate(-138.221 -92.396)" fill="#f8c696"/>
            <g id="Grupo_888857" data-name="Grupo 888857" transform="translate(29.219 55.161)">
              <g id="Grupo_888856" data-name="Grupo 888856">
                <g id="Grupo_888855" data-name="Grupo 888855">
                  <g id="Grupo_888854" data-name="Grupo 888854">
                    <path id="Trazado_622575" data-name="Trazado 622575" d="M175.433,168.05a.875.875,0,0,1-.374-1.614l2.5-1.541-1.958-.72a.877.877,0,0,1-.572-.768l-.337-5.627a.875.875,0,1,1,1.746-.1l.3,5.056,3.11,1.143a.875.875,0,0,1,.157,1.565l-4.024,2.485A.872.872,0,0,1,175.433,168.05Z" transform="translate(-174.644 -156.85)" fill="#f9a278"/>
                  </g>
                </g>
              </g>
            </g>
            <g id="Grupo_888858" data-name="Grupo 888858" transform="translate(12.67 44.335)">
              <path id="Trazado_622576" data-name="Trazado 622576" d="M164.626,144.03h0a1.151,1.151,0,0,1-1.082,1.15c-2.178.129-7.15.678-10.262,2.993,0,0,1.134-5,10.147-5.3A1.158,1.158,0,0,1,164.626,144.03Z" transform="translate(-153.282 -142.876)" fill="#272d35"/>
              <path id="Trazado_622577" data-name="Trazado 622577" d="M185.477,144.03h0a1.151,1.151,0,0,0,1.081,1.15c2.178.129,7.15.678,10.262,2.993,0,0-1.134-5-10.147-5.3A1.157,1.157,0,0,0,185.477,144.03Z" transform="translate(-160.536 -142.876)" fill="#272d35"/>
            </g>
            <g id="Grupo_888859" data-name="Grupo 888859" transform="translate(13.574 50.699)">
              <path id="Trazado_622578" data-name="Trazado 622578" d="M184.559,157.533s0-3.115,3.8-4.695a7.683,7.683,0,0,1,4.861-.419l1.979-1.329-1.181,2.685S187.5,152.636,184.559,157.533Z" transform="translate(-161.233 -151.091)" fill="#272d35"/>
              <path id="Trazado_622579" data-name="Trazado 622579" d="M165.087,157.533s0-3.115-3.8-4.695a7.683,7.683,0,0,0-4.861-.419l-1.979-1.329,1.181,2.685S162.144,152.636,165.087,157.533Z" transform="translate(-154.449 -151.091)" fill="#272d35"/>
            </g>
            <path id="Trazado_622580" data-name="Trazado 622580" d="M160.206,167.126c0,1.951-2.522,3.533-5.633,3.533s-5.633-1.582-5.633-3.533,2.522-3.533,5.633-3.533S160.206,165.175,160.206,167.126Z" transform="translate(-139.633 -103.209)" fill="#ffb285"/>
            <path id="Trazado_622581" data-name="Trazado 622581" d="M200.536,167.126c0,1.951-2.522,3.533-5.633,3.533s-5.633-1.582-5.633-3.533,2.522-3.533,5.633-3.533S200.536,165.175,200.536,167.126Z" transform="translate(-148.721 -103.209)" fill="#ffb285"/>
            <g id="Grupo_888860" data-name="Grupo 888860" transform="translate(26.673 79.174)">
              <path id="Trazado_622582" data-name="Trazado 622582" d="M175.52,190.4a10.676,10.676,0,0,1-3.835-1.181.651.651,0,0,1,.649-1.129c.184.1,4.395,2.443,8.439-.143a.651.651,0,1,1,.7,1.1A8.982,8.982,0,0,1,175.52,190.4Z" transform="translate(-171.358 -187.849)" fill="#f9a278"/>
            </g>
            <g id="Grupo_888861" data-name="Grupo 888861" transform="translate(22.541 69.261)">
              <path id="Trazado_622583" data-name="Trazado 622583" d="M184.269,175.126a9.123,9.123,0,1,1-18.245.24c0-.026,0-.049,0-.074l18.241-.24C184.267,175.078,184.268,175.1,184.269,175.126Z" transform="translate(-166.024 -175.052)" fill="#481c3f"/>
              <path id="Trazado_622584" data-name="Trazado 622584" d="M184.269,175.126a9.1,9.1,0,0,1-.125,1.634L166.191,177a9.033,9.033,0,0,1-.167-1.63c0-.026,0-.049,0-.074l18.241-.24C184.267,175.078,184.268,175.1,184.269,175.126Z" transform="translate(-166.024 -175.052)" fill="#fff"/>
              <path id="Trazado_622585" data-name="Trazado 622585" d="M182.658,182.451a9.121,9.121,0,0,1-13.405.177,10.016,10.016,0,0,1,13.405-.177Z" transform="translate(-166.751 -176.159)" fill="#f65c66"/>
            </g>
            <path id="Trazado_622586" data-name="Trazado 622586" d="M146.282,172.458c-.136-.062-5.159-2.425-3.494-9.36a35.176,35.176,0,0,0,.908-5.818,17.022,17.022,0,0,1-.8-17.336h3.3s.159,1.389.217,3.43c0,0,0,.007,0,.023.045.612.937,12.915-.741,17.056C143.692,165.36,142.788,168.649,146.282,172.458Z" transform="translate(-137.82 -97.881)" fill="#272d35"/>
            <path id="Trazado_622587" data-name="Trazado 622587" d="M204.411,172.458c.136-.062,5.159-2.425,3.494-9.36a35.176,35.176,0,0,1-.908-5.818,17.021,17.021,0,0,0,.8-17.336h-3.3s-.159,1.389-.217,3.43c0,0,0,.007,0,.023-.045.612-.937,12.915.741,17.056C207,165.36,207.905,168.649,204.411,172.458Z" transform="translate(-152.038 -97.881)" fill="#272d35"/>
            <path id="Trazado_622588" data-name="Trazado 622588" d="M194.347,137.151s-18.334-.695-26.352-10.267c-8.033,9.686-26.492,10.759-26.492,10.759s.359-17.251,11.5-22.4l0,0a33.466,33.466,0,0,1,15.862-3.533,39.88,39.88,0,0,1,13.858,3.344s1.238.559,1.51.728C194.678,121.268,194.347,137.151,194.347,137.151Z" transform="translate(-137.958 -91.515)" fill="#272d35"/>
          </g>
        </g>
        <g id="Grupo_888902" data-name="Grupo 888902" transform="translate(191.298 19.85)">
          <g id="Grupo_888867" data-name="Grupo 888867" transform="translate(0 88.549)">
            <g id="Grupo_888866" data-name="Grupo 888866">
              <g id="Grupo_888865" data-name="Grupo 888865">
                <g id="Grupo_888864" data-name="Grupo 888864">
                  <path id="Trazado_622589" data-name="Trazado 622589" d="M271.188,317.215h73.766l-1.227-22.323.348-78.648L318.1,209.27a38.9,38.9,0,0,0-20.211,0l-25.975,6.974.348,78.648Z" transform="translate(-271.188 -207.934)" fill="#fba01d"/>
                </g>
              </g>
            </g>
          </g>
          <g id="Grupo_888901" data-name="Grupo 888901" transform="translate(2.74)">
            <path id="Trazado_622590" data-name="Trazado 622590" d="M279.279,134.173s-2.735,1.512-2.542,5.87,2.905,5.634,2.905,5.634-3.312,1.724-2.915,4.823,3.69,3.393,3.69,3.393a3.872,3.872,0,0,0-1.862,4.372,6.145,6.145,0,0,0,3.652,4.145,4.735,4.735,0,0,0-2.371,5.376c.775,3.922,5.138,3.763,5.138,3.763a5.765,5.765,0,0,0-.393,4.994c1.162,2.428,4.358,1.41,4.358,1.41a5.579,5.579,0,0,0,1.937,4.02c1.937,1.549,5.035,1.476,6.2-.569l-9.738-46.492Z" transform="translate(-275.169 -102.765)" fill="#6e304f"/>
            <path id="Trazado_622591" data-name="Trazado 622591" d="M350.055,134.173s2.735,1.512,2.542,5.87-2.905,5.635-2.905,5.635S353,147.4,352.606,150.5s-3.689,3.393-3.689,3.393a3.871,3.871,0,0,1,1.861,4.372,6.143,6.143,0,0,1-3.652,4.145,4.735,4.735,0,0,1,2.372,5.376c-.775,3.922-5.138,3.763-5.138,3.763a5.765,5.765,0,0,1,.393,4.994c-1.162,2.428-4.358,1.41-4.358,1.41a5.579,5.579,0,0,1-1.937,4.02c-1.937,1.549-5.035,1.476-6.2-.569L342,134.91Z" transform="translate(-287.689 -102.765)" fill="#6e304f"/>
            <path id="Trazado_622592" data-name="Trazado 622592" d="M281.86,126.245s-7.907-2.04-6.529-7.731,6.468-4.726,6.468-4.726-3.283-5.612.723-8.912,7.675-1.64,7.675-1.64-1.065-5.862,3.278-8.21,8.5,1.228,8.813,3.733a6.106,6.106,0,0,1,5.651-5.076,6.455,6.455,0,0,1,6.807,4.072s.963-4.828,7.088-3.838,5.149,6.5,5.149,6.5a5.152,5.152,0,0,1,5.692-.816c4.742,1.865,3.994,6.7,1.68,8.026,0,0,4.578,2.161,3.792,7.172s-4.059,4.139-4.059,4.139a5.732,5.732,0,0,1,2.67,6.978c-1.434,4.983-7.415,4.284-7.415,4.284Z" transform="translate(-274.826 -93.629)" fill="#6e304f"/>
            <g id="Grupo_888872" data-name="Grupo 888872" transform="translate(24.696 78.638)">
              <g id="Grupo_888869" data-name="Grupo 888869">
                <g id="Grupo_888868" data-name="Grupo 888868">
                  <path id="Trazado_622593" data-name="Trazado 622593" d="M326.465,195.14l-.347,6.531-.435,8.185s-1.625,3.081-8.959,3.081-8.838-2.106-8.838-2.106l-.3-3.631-.985-12.06Z" transform="translate(-306.605 -195.14)" fill="#fdad80"/>
                </g>
              </g>
              <g id="Grupo_888871" data-name="Grupo 888871">
                <g id="Grupo_888870" data-name="Grupo 888870">
                  <path id="Trazado_622594" data-name="Trazado 622594" d="M326.465,195.14l-.347,6.531c-3.06,2.291-10.3,6.795-18.528,5.529l-.985-12.06Z" transform="translate(-306.605 -195.14)" fill="#f68768"/>
                </g>
              </g>
            </g>
            <g id="Grupo_888878" data-name="Grupo 888878" transform="translate(0 45.812)">
              <g id="Grupo_888876" data-name="Grupo 888876">
                <g id="Grupo_888875" data-name="Grupo 888875">
                  <g id="Grupo_888874" data-name="Grupo 888874">
                    <g id="Grupo_888873" data-name="Grupo 888873">
                      <path id="Trazado_622595" data-name="Trazado 622595" d="M286.891,155.891s-5.619-5.5-10.106-1.91c-5.3,4.237.244,19.49,9.648,17.875Z" transform="translate(-274.725 -152.766)" fill="#ff976d"/>
                    </g>
                  </g>
                </g>
              </g>
              <g id="Grupo_888877" data-name="Grupo 888877" transform="translate(2.622 5.152)">
                <path id="Trazado_622596" data-name="Trazado 622596" d="M285.247,167.323a12.612,12.612,0,0,0-7.137-7.906s4.933,4.652,5.308,8.25a.9.9,0,0,0,.91.821l.109,0A.884.884,0,0,0,285.247,167.323Z" transform="translate(-278.11 -159.417)" fill="#f68768"/>
              </g>
            </g>
            <g id="Grupo_888879" data-name="Grupo 888879" transform="translate(57.824 51.129)">
              <path id="Trazado_622597" data-name="Trazado 622597" d="M349.411,167.25a12.153,12.153,0,0,1,6.879-7.621s-4.755,4.483-5.117,7.951a.863.863,0,0,1-.878.792l-.1,0A.851.851,0,0,1,349.411,167.25Z" transform="translate(-349.367 -159.629)" fill="#f68768"/>
            </g>
            <g id="Grupo_888884" data-name="Grupo 888884" transform="translate(55.105 45.812)">
              <g id="Grupo_888882" data-name="Grupo 888882">
                <g id="Grupo_888881" data-name="Grupo 888881">
                  <g id="Grupo_888880" data-name="Grupo 888880">
                    <path id="Trazado_622598" data-name="Trazado 622598" d="M345.858,155.891s5.619-5.5,10.106-1.91c5.3,4.237-.243,19.49-9.647,17.875Z" transform="translate(-345.858 -152.766)" fill="#ff976d"/>
                  </g>
                </g>
              </g>
              <g id="Grupo_888883" data-name="Grupo 888883" transform="translate(2.719 5.317)">
                <path id="Trazado_622599" data-name="Trazado 622599" d="M349.411,167.25a12.153,12.153,0,0,1,6.879-7.621s-4.755,4.483-5.117,7.951a.863.863,0,0,1-.878.792l-.1,0A.851.851,0,0,1,349.411,167.25Z" transform="translate(-349.367 -159.629)" fill="#f68768"/>
              </g>
            </g>
            <path id="Trazado_622600" data-name="Trazado 622600" d="M310.554,183.229c-19.414,0-25.409-23.059-27.2-39.942a26.64,26.64,0,0,1,26.09-29.463q.311,0,.627,0c.262,0,.521,0,.778.005a26.661,26.661,0,0,1,26.166,28.955C335.539,159.885,329.959,183.229,310.554,183.229Z" transform="translate(-276.637 -98.179)" fill="#fdad80"/>
            <circle id="Elipse_6042" data-name="Elipse 6042" cx="2.451" cy="2.451" r="2.451" transform="translate(20.825 46.261)" fill="#481c3f"/>
            <circle id="Elipse_6043" data-name="Elipse 6043" cx="2.451" cy="2.451" r="2.451" transform="translate(42.41 46.261)" fill="#481c3f"/>
            <g id="Grupo_888888" data-name="Grupo 888888" transform="translate(14.759 36.433)">
              <g id="Grupo_888887" data-name="Grupo 888887">
                <g id="Grupo_888886" data-name="Grupo 888886">
                  <g id="Grupo_888885" data-name="Grupo 888885">
                    <path id="Trazado_622601" data-name="Trazado 622601" d="M293.777,145.814s1.856-3.818,5.423-4.774a9.109,9.109,0,0,1,6.843.61,1.183,1.183,0,0,1,.534,1.454h0a1.188,1.188,0,0,1-1.617.664C302.961,142.838,298.561,141.642,293.777,145.814Z" transform="translate(-293.777 -140.659)" fill="#481c3f"/>
                  </g>
                </g>
              </g>
            </g>
            <g id="Grupo_888890" data-name="Grupo 888890" transform="translate(40.571 36.433)">
              <g id="Grupo_888889" data-name="Grupo 888889">
                <path id="Trazado_622602" data-name="Trazado 622602" d="M339.972,145.814s-1.856-3.818-5.423-4.774a9.11,9.11,0,0,0-6.844.61,1.183,1.183,0,0,0-.534,1.454h0a1.188,1.188,0,0,0,1.617.664C330.788,142.838,335.188,141.642,339.972,145.814Z" transform="translate(-327.096 -140.659)" fill="#481c3f"/>
              </g>
            </g>
            <g id="Grupo_888892" data-name="Grupo 888892" transform="translate(32.165 47.253)">
              <g id="Grupo_888891" data-name="Grupo 888891">
                <path id="Trazado_622603" data-name="Trazado 622603" d="M317.17,167.733a1.023,1.023,0,0,1-.438-1.889l2.921-1.8-2.292-.843a1.027,1.027,0,0,1-.669-.9l-.4-6.586a1.024,1.024,0,0,1,2.044-.122l.355,5.918,3.639,1.339a1.024,1.024,0,0,1,.184,1.832l-4.711,2.907A1.02,1.02,0,0,1,317.17,167.733Z" transform="translate(-316.246 -154.626)" fill="#f68768"/>
              </g>
            </g>
            <g id="Grupo_888894" data-name="Grupo 888894" transform="translate(24.224 66.413)">
              <g id="Grupo_888893" data-name="Grupo 888893">
                <path id="Trazado_622604" data-name="Trazado 622604" d="M320.059,183.7a17.844,17.844,0,0,1-13.6-2.47,1.017,1.017,0,1,1,1.116-1.7c8.507,5.578,17.783.122,17.875.067a1.017,1.017,0,0,1,1.049,1.743A21.733,21.733,0,0,1,320.059,183.7Z" transform="translate(-305.995 -179.359)" fill="#f68768"/>
              </g>
            </g>
            <g id="Grupo_888895" data-name="Grupo 888895" transform="translate(28.832 72.368)">
              <path id="Trazado_622605" data-name="Trazado 622605" d="M317.931,189.863a10.387,10.387,0,0,1-5.638-1.489.714.714,0,1,1,.73-1.227,9.78,9.78,0,0,0,9.585.018.714.714,0,0,1,.735,1.224A11.879,11.879,0,0,1,317.931,189.863Z" transform="translate(-311.944 -187.046)" fill="#f68768"/>
            </g>
            <path id="Trazado_622606" data-name="Trazado 622606" d="M284.036,149.215s2.876-2.236,2.226-4.926c0,0,3.405-3.68,1.91-7.166,0,0,5.224-3.938,2.607-8.715,0,0,6.164-.581,8.955-4.842a7.107,7.107,0,0,0,7.623,3.292c5.239-1.065,5.433-3.292,5.433-3.292s2.421,4.164,6.875,3.486,5.52-2.5,5.52-2.5a5.554,5.554,0,0,0,3.583,4.575s-.136,5.547,3.777,5.676c0,0-1.646,3.522.968,5.828,0,0-1.264,4.258,2.9,5.8,0,0,2.133-1.86.874-10.036s-7.172-20.83-22.662-24.058-26.723,8-29.564,13.686S281.332,141.682,284.036,149.215Z" transform="translate(-276.457 -97.715)" fill="#6e304f"/>
            <g id="Grupo_888900" data-name="Grupo 888900" transform="translate(5.952 40.783)">
              <g id="Grupo_888899" data-name="Grupo 888899">
                <g id="Grupo_888898" data-name="Grupo 888898" transform="translate(6.836)">
                  <g id="Grupo_888896" data-name="Grupo 888896">
                    <path id="Trazado_622607" data-name="Trazado 622607" d="M308.772,155.564a8.271,8.271,0,1,1-.4-2.528A8.25,8.25,0,0,1,308.772,155.564Z" transform="translate(-291.467 -146.508)" fill="#fff" opacity="0.2"/>
                    <path id="Trazado_622608" data-name="Trazado 622608" d="M306.156,149.549,294.507,161.2a8.281,8.281,0,0,1-1.574-2.615l10.608-10.608A8.227,8.227,0,0,1,306.156,149.549Z" transform="translate(-291.616 -146.657)" fill="#fff" opacity="0.2"/>
                    <path id="Trazado_622609" data-name="Trazado 622609" d="M309.669,154.328l-10.382,10.382a8.2,8.2,0,0,1-1.281-.534l11.13-11.13A8.175,8.175,0,0,1,309.669,154.328Z" transform="translate(-292.759 -147.8)" fill="#fff" opacity="0.2"/>
                    <path id="Trazado_622610" data-name="Trazado 622610" d="M300.288,164.385a9.056,9.056,0,1,1,9.056-9.056A9.066,9.066,0,0,1,300.288,164.385Zm0-16.875a7.819,7.819,0,1,0,7.82,7.819A7.829,7.829,0,0,0,300.288,147.51Z" transform="translate(-291.233 -146.274)" fill="#272d35"/>
                  </g>
                  <g id="Grupo_888897" data-name="Grupo 888897" transform="translate(24.144)">
                    <path id="Trazado_622611" data-name="Trazado 622611" d="M339.939,155.564a8.261,8.261,0,1,1-.4-2.528A8.249,8.249,0,0,1,339.939,155.564Z" transform="translate(-322.634 -146.508)" fill="#fff" opacity="0.2"/>
                    <path id="Trazado_622612" data-name="Trazado 622612" d="M337.324,149.549,325.675,161.2a8.253,8.253,0,0,1-1.574-2.615l10.608-10.608A8.236,8.236,0,0,1,337.324,149.549Z" transform="translate(-322.783 -146.657)" fill="#fff" opacity="0.2"/>
                    <path id="Trazado_622613" data-name="Trazado 622613" d="M340.836,154.328l-10.382,10.382a8.186,8.186,0,0,1-1.282-.534l11.131-11.13A8.181,8.181,0,0,1,340.836,154.328Z" transform="translate(-323.926 -147.8)" fill="#fff" opacity="0.2"/>
                    <path id="Trazado_622614" data-name="Trazado 622614" d="M331.456,164.385a9.056,9.056,0,1,1,9.055-9.056A9.066,9.066,0,0,1,331.456,164.385Zm0-16.875a7.819,7.819,0,1,0,7.82,7.819A7.828,7.828,0,0,0,331.456,147.51Z" transform="translate(-322.4 -146.274)" fill="#272d35"/>
                  </g>
                </g>
                <path id="Trazado_622615" data-name="Trazado 622615" d="M290.655,152.94c-1.622-.963-4.722-2.615-6.652-2.459-2.253.183-1.459,1.926-1.459,1.926s.081-.033.22-.076a4.333,4.333,0,0,1,3.061.188l4.2,1.866C290.221,153.9,290.438,153.419,290.655,152.94Z" transform="translate(-282.409 -147.22)" fill="#272d35"/>
                <path id="Trazado_622616" data-name="Trazado 622616" d="M349.856,150.481c-1.757-.143-4.478,1.212-6.176,2.182.052.112.1.225.153.338q.257.582.483,1.171l3.718-1.652a4.331,4.331,0,0,1,3.061-.188c.14.043.221.076.221.076S352.109,150.664,349.856,150.481Z" transform="translate(-296.215 -147.22)" fill="#272d35"/>
              </g>
              <path id="Trazado_622617" data-name="Trazado 622617" d="M313.969,156.912s3.227-3.537,7.335,0v1.779s-3.581-3.754-7.335,0Z" transform="translate(-289.52 -148.317)" fill="#272d35"/>
            </g>
          </g>
        </g>
        <g id="Grupo_888935" data-name="Grupo 888935" transform="translate(24.749 106.382)">
          <g id="Grupo_888908" data-name="Grupo 888908" transform="translate(0 73.605)">
            <g id="Grupo_888905" data-name="Grupo 888905" transform="translate(15.447)">
              <g id="Grupo_888904" data-name="Grupo 888904">
                <g id="Grupo_888903" data-name="Grupo 888903">
                  <path id="Trazado_622618" data-name="Trazado 622618" d="M150.312,401.3H76.137l.587-12.234-.029-6.66-.031-7.15-.294-66.435,23.953-6.432,2.549-.683a39.634,39.634,0,0,1,20.624,0l4.6,1.234L150,308.823l-.29,65.158-.033,7.646-.033,7.441Z" transform="translate(-76.137 -300.343)" fill="#0d5366"/>
                </g>
              </g>
            </g>
            <path id="Trazado_622619" data-name="Trazado 622619" d="M135.125,302.942l-6.431,98.36H109.718l-2.361-98.911,2.549-.683a39.634,39.634,0,0,1,20.624,0Z" transform="translate(-67.724 -300.343)" fill="#fff"/>
            <path id="Trazado_622620" data-name="Trazado 622620" d="M121.432,395.783s-30.014,10.829-44.584,7.859l-.032-7.15,41.265-1.779A3.1,3.1,0,0,1,121.432,395.783Z" transform="translate(-60.843 -321.578)" opacity="0.2"/>
            <path id="Trazado_622621" data-name="Trazado 622621" d="M160.957,395.4l-.033,7.645c-14.768.7-34.861-7.079-34.861-7.079Z" transform="translate(-71.939 -321.761)" opacity="0.2"/>
            <g id="Grupo_888907" data-name="Grupo 888907" transform="translate(0 8.48)">
              <path id="Trazado_622622" data-name="Trazado 622622" d="M165.408,372.9c-3.772,10.8-20.661,10.01-39.9,4.11-3.368-1.031-6.809-2.221-10.263-3.533a213.76,213.76,0,0,1-20.331-9l.044-.113,1.968-5.109.671-1.739s36.872,4.017,54.485-.057c-10.933-34.6-1.374-41.61,2.143-46.169C154.228,311.289,172.528,352.522,165.408,372.9Z" transform="translate(-64.921 -311.289)" fill="#0d5366"/>
              <path id="Trazado_622623" data-name="Trazado 622623" d="M135.6,373.516s-9.8,6.582-25,7.672c-8.418.6-13.109-1.17-15.62-2.872l1.968-5.109C104.778,373.656,129.052,374.9,135.6,373.516Z" transform="translate(-64.934 -325.24)" opacity="0.2"/>
              <path id="Trazado_622624" data-name="Trazado 622624" d="M158,370.887s-2.173,4.259-5,10.008c-2.361,4.8-14.171,8.4-21.572,9.548-3.368-1.031-6.809-2.221-10.263-3.533Z" transform="translate(-70.835 -324.718)" opacity="0.2"/>
              <g id="Grupo_888906" data-name="Grupo 888906" transform="translate(1.543 0.001)">
                <path id="Trazado_622625" data-name="Trazado 622625" d="M130.777,370.86c-55.113,18.561-72.068,6.414-72.068,6.414C55,343.721,72.325,311.29,72.325,311.29c10.017,6.387,9.362,21.366,9.362,21.366l-3.2,24.9-.368,2.848c16.59,3.649,47.516-.338,47.516-.338Z" transform="translate(-58.188 -311.29)" fill="#0d5366"/>
                <path id="Trazado_622626" data-name="Trazado 622626" d="M81.03,371.009l-.368,2.848a20.375,20.375,0,0,0-11.176,7.064s2.2-9.975,11.54-9.91Z" transform="translate(-60.734 -324.746)" opacity="0.2"/>
                <path id="Trazado_622627" data-name="Trazado 622627" d="M145.249,370.555s6.1-13.861,15.378-12.627l2.8,10.021c-5.078,2.156-5.821,10.863-13.03,13.4Z" transform="translate(-77.805 -321.781)" fill="#fdad80"/>
              </g>
              <path id="Trazado_622628" data-name="Trazado 622628" d="M88.877,367.343a22.085,22.085,0,0,0-13.994-11.67c-10.141-2.625-16.6,2.154-17.282,3.957s3.825.08,3.825.08a8.752,8.752,0,0,0-4.618,3.588c-1.683,2.758,4.1-.218,4.1-.218s-4.145,1.817-4.672,3.5,4.94-1.161,5.967-1.107c0,0-4.881,1.941-4.849,3.678s5.608-1.1,9.771-.872a65.7,65.7,0,0,1,10.546,1.949,70.043,70.043,0,0,0,9.608,1.264Z" transform="translate(-56.197 -321.116)" fill="#fdad80"/>
            </g>
          </g>
          <g id="Grupo_888934" data-name="Grupo 888934" transform="translate(18.138)">
            <g id="Grupo_888913" data-name="Grupo 888913" transform="translate(24.959 63.666)">
              <g id="Grupo_888910" data-name="Grupo 888910">
                <g id="Grupo_888909" data-name="Grupo 888909">
                  <path id="Trazado_622629" data-name="Trazado 622629" d="M131.9,287.514l-.351,6.6-.439,8.271s-1.642,3.113-9.054,3.113-8.932-2.128-8.932-2.128l-.3-3.67-1-12.188Z" transform="translate(-111.828 -287.514)" fill="#fdad80"/>
                </g>
              </g>
              <g id="Grupo_888912" data-name="Grupo 888912">
                <g id="Grupo_888911" data-name="Grupo 888911">
                  <path id="Trazado_622630" data-name="Trazado 622630" d="M131.9,287.514l-.351,6.6c-3.093,2.314-10.411,6.866-18.725,5.587l-1-12.188Z" transform="translate(-111.828 -287.514)" fill="#f68768"/>
                </g>
              </g>
            </g>
            <g id="Grupo_888920" data-name="Grupo 888920" transform="translate(0 30.491)">
              <g id="Grupo_888917" data-name="Grupo 888917">
                <g id="Grupo_888916" data-name="Grupo 888916">
                  <g id="Grupo_888915" data-name="Grupo 888915">
                    <g id="Grupo_888914" data-name="Grupo 888914">
                      <path id="Trazado_622631" data-name="Trazado 622631" d="M91.9,247.847s-5.678-5.555-10.213-1.93c-5.358,4.283.246,19.7,9.75,18.065Z" transform="translate(-79.61 -244.689)" fill="#ff976d"/>
                    </g>
                  </g>
                </g>
              </g>
              <path id="Trazado_622632" data-name="Trazado 622632" d="M90.638,266.652a.985.985,0,1,1-.985-.985A.984.984,0,0,1,90.638,266.652Z" transform="translate(-81.651 -249.416)" fill="#272d35"/>
              <g id="Grupo_888919" data-name="Grupo 888919" transform="translate(2.649 5.207)">
                <g id="Grupo_888918" data-name="Grupo 888918">
                  <path id="Trazado_622633" data-name="Trazado 622633" d="M90.243,259.4a12.746,12.746,0,0,0-7.213-7.991s4.986,4.7,5.365,8.338a.906.906,0,0,0,.92.83l.11,0A.893.893,0,0,0,90.243,259.4Z" transform="translate(-83.03 -251.411)" fill="#f68768"/>
                </g>
              </g>
            </g>
            <g id="Grupo_888921" data-name="Grupo 888921" transform="translate(58.438 35.865)">
              <path id="Trazado_622634" data-name="Trazado 622634" d="M155.089,259.326a12.284,12.284,0,0,1,6.952-7.7s-4.8,4.53-5.17,8.036a.872.872,0,0,1-.887.8l-.106,0A.861.861,0,0,1,155.089,259.326Z" transform="translate(-155.045 -251.626)" fill="#f68768"/>
            </g>
            <g id="Grupo_888926" data-name="Grupo 888926" transform="translate(55.69 30.491)">
              <g id="Grupo_888924" data-name="Grupo 888924">
                <g id="Grupo_888923" data-name="Grupo 888923">
                  <g id="Grupo_888922" data-name="Grupo 888922">
                    <path id="Trazado_622635" data-name="Trazado 622635" d="M151.5,247.847s5.678-5.555,10.214-1.93c5.357,4.283-.247,19.7-9.75,18.065Z" transform="translate(-151.498 -244.689)" fill="#ff976d"/>
                  </g>
                </g>
              </g>
              <path id="Trazado_622636" data-name="Trazado 622636" d="M157.946,266.652a.984.984,0,1,1-.984-.985A.984.984,0,0,1,157.946,266.652Z" transform="translate(-152.507 -249.416)" fill="#272d35"/>
              <g id="Grupo_888925" data-name="Grupo 888925" transform="translate(2.748 5.374)">
                <path id="Trazado_622637" data-name="Trazado 622637" d="M155.089,259.326a12.284,12.284,0,0,1,6.952-7.7s-4.8,4.53-5.17,8.036a.872.872,0,0,1-.887.8l-.106,0A.861.861,0,0,1,155.089,259.326Z" transform="translate(-155.045 -251.626)" fill="#f68768"/>
              </g>
            </g>
            <path id="Trazado_622638" data-name="Trazado 622638" d="M142.569,234.6c-.04.466-.083.937-.132,1.411-1.681,17.128-7.535,39.464-26.618,39.464-18.805,0-25.151-21.408-27.235-38.21q-.137-1.092-.248-2.155A26.923,26.923,0,0,1,114.7,205.334c.209,0,.421,0,.634,0,.265,0,.527,0,.786.005A26.946,26.946,0,0,1,142.569,234.6Z" transform="translate(-81.542 -205.33)" fill="#fdad80"/>
            <path id="Trazado_622639" data-name="Trazado 622639" d="M112.217,247a2.477,2.477,0,1,1-2.477-2.477A2.477,2.477,0,0,1,112.217,247Z" transform="translate(-85.841 -214.161)" fill="#272d35"/>
            <path id="Trazado_622640" data-name="Trazado 622640" d="M139.495,247a2.477,2.477,0,1,1-2.477-2.477A2.478,2.478,0,0,1,139.495,247Z" transform="translate(-91.987 -214.161)" fill="#272d35"/>
            <g id="Grupo_888928" data-name="Grupo 888928" transform="translate(11.53 42.537)">
              <g id="Grupo_888927" data-name="Grupo 888927">
                <path id="Trazado_622641" data-name="Trazado 622641" d="M139.058,267.154a8.035,8.035,0,0,0-.707-2.3,5.857,5.857,0,0,0-1.76-2.182,5.506,5.506,0,0,0-.617-.421,5.35,5.35,0,0,0-.6-.286,7.484,7.484,0,0,0-1.174-.377,10.788,10.788,0,0,0-2.106-.241,15.406,15.406,0,0,0-1.9.091,58.538,58.538,0,0,0-6.71,1.263c-1.023.241-2.047.512-3.085.707a13.8,13.8,0,0,1-3.144.256,22.73,22.73,0,0,1-3.175-.286c-1.054-.165-2.122-.406-3.19-.647-.557-.136-1.009-.225-1.52-.377-.511-.135-1.023-.315-1.549-.481-1.038-.361-2.106-.752-3.251-1.083a12.3,12.3,0,0,0-3.911-.542,7.945,7.945,0,0,0-1.234.15,6.654,6.654,0,0,0-1.475.512,5.851,5.851,0,0,0-2.392,2.242,7.5,7.5,0,0,0-.917,2.573,9.6,9.6,0,0,0-.136,2.242,17,17,0,0,0,.647,3.852,28.385,28.385,0,0,0,1.2,3.461,35.405,35.405,0,0,0,1.535,3.25,31.444,31.444,0,0,0,1.851,3.13c.346.511.707,1.023,1.113,1.535a13.532,13.532,0,0,0,1.339,1.5c.256.256.526.5.827.752.15.121.316.241.481.361l.271.166.225.15a14.2,14.2,0,0,0,1.82.948,25.256,25.256,0,0,0,3.521,1.249,38.072,38.072,0,0,0,7.1,1.2,31.609,31.609,0,0,0,7.282-.6,18.864,18.864,0,0,0,7.268-2.994,13.126,13.126,0,0,0,1.639-1.415c.121-.136.256-.286.362-.406l.316-.362c.21-.24.406-.481.6-.722a25.743,25.743,0,0,0,2.061-3.1,26.624,26.624,0,0,0,2.708-6.831,17.51,17.51,0,0,0,.512-3.837A11.392,11.392,0,0,0,139.058,267.154ZM117.632,281.99c-8.576,0-14.129-6.786-15.814-9.961-1.79-3.37.741-7.557,5.044-5.992a63.821,63.821,0,0,0,9.986,2.123c12.217-.271,16.661-5.79,17.124.891C134.281,273.509,127.954,281.99,117.632,281.99Z" transform="translate(-94.493 -260.24)" fill="#272d35"/>
              </g>
            </g>
            <g id="Grupo_888930" data-name="Grupo 888930" transform="translate(33.388 30.446)">
              <g id="Grupo_888929" data-name="Grupo 888929">
                <path id="Trazado_622642" data-name="Trazado 622642" d="M123.643,257.878a1.034,1.034,0,0,1-.442-1.91l2.952-1.823-2.317-.852a1.035,1.035,0,0,1-.675-.909l-.4-6.657a1.035,1.035,0,0,1,2.066-.123l.359,5.981,3.678,1.353a1.035,1.035,0,0,1,.186,1.851l-4.761,2.939A1.03,1.03,0,0,1,123.643,257.878Z" transform="translate(-122.709 -244.632)" fill="#f68768"/>
              </g>
            </g>
            <g id="Grupo_888932" data-name="Grupo 888932" transform="translate(24.481 51.31)">
              <g id="Grupo_888931" data-name="Grupo 888931">
                <path id="Trazado_622643" data-name="Trazado 622643" d="M125.425,275.95a18.033,18.033,0,0,1-13.749-2.5,1.028,1.028,0,0,1,1.127-1.72c8.6,5.638,17.972.124,18.066.067a1.028,1.028,0,1,1,1.06,1.762A21.949,21.949,0,0,1,125.425,275.95Z" transform="translate(-111.211 -271.564)" fill="#f68768"/>
              </g>
            </g>
            <g id="Grupo_888933" data-name="Grupo 888933" transform="translate(29.139 57.329)">
              <path id="Trazado_622644" data-name="Trazado 622644" d="M123.274,282.18a10.5,10.5,0,0,1-5.7-1.5.722.722,0,1,1,.738-1.24,9.882,9.882,0,0,0,9.687.018.722.722,0,0,1,.744,1.237A12,12,0,0,1,123.274,282.18Z" transform="translate(-117.224 -279.333)" fill="#f68768"/>
            </g>
            <path id="Trazado_622645" data-name="Trazado 622645" d="M142.569,234.6c-.04.466-.083.937-.132,1.411,0,0-8.945-11.783-8.688-20.778,0,0-24.79,7.21-36.667-.237,0,0,1.209,17.923-8.5,22.27q-.137-1.092-.248-2.155A26.923,26.923,0,0,1,114.7,205.334c.209,0,.421,0,.634,0,.265,0,.527,0,.786.005A26.946,26.946,0,0,1,142.569,234.6Z" transform="translate(-81.542 -205.33)" fill="#272d35" opacity="0.5"/>
            <path id="Trazado_622646" data-name="Trazado 622646" d="M113.043,235.431a5.249,5.249,0,0,1,0,3.75s-7.691-1.28-12.917,1.722l-.492-1.968S102.964,233.155,113.043,235.431Z" transform="translate(-84.122 -211.993)" fill="#272d35"/>
            <path id="Trazado_622647" data-name="Trazado 622647" d="M131.63,235.431a5.25,5.25,0,0,0,0,3.75s7.691-1.28,12.917,1.722l.492-1.968S141.708,233.155,131.63,235.431Z" transform="translate(-91.257 -211.993)" fill="#272d35"/>
          </g>
        </g>
        <g id="Grupo_888969" data-name="Grupo 888969" transform="translate(219.918 95.854)">
          <g id="Grupo_888942" data-name="Grupo 888942" transform="translate(0 84.133)">
            <g id="Grupo_888939" data-name="Grupo 888939" transform="translate(15.439)">
              <g id="Grupo_888938" data-name="Grupo 888938">
                <g id="Grupo_888937" data-name="Grupo 888937">
                  <g id="Grupo_888936" data-name="Grupo 888936">
                    <path id="Trazado_622648" data-name="Trazado 622648" d="M328.062,401.3h74.177l-.672-12.235.356-80.245-18.7-5.021-4.4-1.181-3.406-.913a39.626,39.626,0,0,0-20.622,0l-1.937.52-4.53,1.216L328.3,308.823l.354,80.245Z" transform="translate(-328.062 -300.344)" fill="#727997"/>
                  </g>
                </g>
              </g>
            </g>
            <g id="Grupo_888941" data-name="Grupo 888941" transform="translate(0 8.473)">
              <path id="Trazado_622649" data-name="Trazado 622649" d="M417.343,372.9c-3.772,10.8-20.661,10.01-39.9,4.11-3.368-1.031-6.808-2.221-10.263-3.533a213.756,213.756,0,0,1-20.331-9l.044-.112,1.968-5.11.672-1.739s36.872,4.018,54.484-.057c-10.932-34.6-1.382-41.6,2.136-46.163C406.156,311.289,424.463,352.516,417.343,372.9Z" transform="translate(-316.857 -311.284)" fill="#b0c0d2"/>
              <path id="Trazado_622650" data-name="Trazado 622650" d="M387.534,373.508s-9.8,6.582-25.005,7.672c-8.418.6-13.109-1.17-15.62-2.872l1.968-5.11C356.713,373.648,380.987,374.893,387.534,373.508Z" transform="translate(-316.87 -325.233)" opacity="0.2"/>
              <path id="Trazado_622651" data-name="Trazado 622651" d="M409.934,370.879s-2.173,4.259-5,10.009c-2.361,4.8-14.172,8.4-21.573,9.547-3.368-1.031-6.808-2.221-10.263-3.533Z" transform="translate(-322.77 -324.71)" opacity="0.2"/>
              <g id="Grupo_888940" data-name="Grupo 888940" transform="translate(1.543)">
                <path id="Trazado_622652" data-name="Trazado 622652" d="M382.712,370.852c-55.113,18.561-72.067,6.414-72.067,6.414-3.711-33.552,13.616-65.984,13.616-65.984,10.016,6.387,9.361,21.366,9.361,21.366l-3.2,24.9-.367,2.848c16.59,3.649,47.516-.338,47.516-.338Z" transform="translate(-310.124 -311.282)" fill="#b0c0d2"/>
                <path id="Trazado_622653" data-name="Trazado 622653" d="M332.965,371l-.367,2.848a20.376,20.376,0,0,0-11.176,7.065s2.2-9.975,11.54-9.91Z" transform="translate(-312.67 -324.738)" opacity="0.2"/>
                <path id="Trazado_622654" data-name="Trazado 622654" d="M397.185,370.547s6.1-13.861,15.377-12.626l2.8,10.021c-5.078,2.156-5.821,10.863-13.03,13.4Z" transform="translate(-329.741 -321.773)" fill="#e97e5e"/>
              </g>
              <path id="Trazado_622655" data-name="Trazado 622655" d="M340.813,367.335a22.088,22.088,0,0,0-13.994-11.671c-10.141-2.625-16.6,2.154-17.283,3.957s3.825.08,3.825.08a8.752,8.752,0,0,0-4.617,3.588c-1.683,2.758,4.1-.218,4.1-.218s-4.145,1.817-4.671,3.5,4.94-1.161,5.967-1.107c0,0-4.882,1.941-4.849,3.678s5.608-1.1,9.77-.871A65.653,65.653,0,0,1,329.6,370.22a69.9,69.9,0,0,0,9.608,1.264Z" transform="translate(-308.133 -321.109)" fill="#e97e5e"/>
            </g>
          </g>
          <g id="Grupo_888968" data-name="Grupo 888968" transform="translate(18.226)">
            <g id="Grupo_888945" data-name="Grupo 888945" transform="translate(24.699 74.021)">
              <g id="Grupo_888943" data-name="Grupo 888943">
                <path id="Trazado_622656" data-name="Trazado 622656" d="M383.807,287.291l-.354,6.665-.444,8.35s-1.658,3.144-9.141,3.144-9.017-2.148-9.017-2.148l-.3-3.705-1.006-12.305Z" transform="translate(-363.543 -287.291)" fill="#e97e5e"/>
              </g>
              <g id="Grupo_888944" data-name="Grupo 888944">
                <path id="Trazado_622657" data-name="Trazado 622657" d="M383.807,287.291l-.354,6.665c-3.122,2.336-10.51,6.932-18.9,5.64l-1.006-12.305Z" transform="translate(-363.543 -287.291)" fill="#d45b45"/>
              </g>
            </g>
            <g id="Grupo_888951" data-name="Grupo 888951" transform="translate(0 40.529)">
              <g id="Grupo_888949" data-name="Grupo 888949">
                <g id="Grupo_888948" data-name="Grupo 888948">
                  <g id="Grupo_888947" data-name="Grupo 888947">
                    <g id="Grupo_888946" data-name="Grupo 888946">
                      <path id="Trazado_622658" data-name="Trazado 622658" d="M344.073,247.246s-5.733-5.609-10.311-1.948c-5.409,4.323.249,19.886,9.843,18.238Z" transform="translate(-331.66 -244.057)" fill="#e36c4f"/>
                    </g>
                  </g>
                </g>
              </g>
              <g id="Grupo_888950" data-name="Grupo 888950" transform="translate(2.745 5.428)">
                <path id="Trazado_622659" data-name="Trazado 622659" d="M342.083,258.684a12.159,12.159,0,0,0-6.879-7.62s4.754,4.483,5.116,7.951a.864.864,0,0,0,.878.792l.1,0A.852.852,0,0,0,342.083,258.684Z" transform="translate(-335.204 -251.064)" fill="#d45b45"/>
              </g>
            </g>
            <g id="Grupo_888955" data-name="Grupo 888955" transform="translate(54.434 40.529)">
              <g id="Grupo_888954" data-name="Grupo 888954">
                <g id="Grupo_888953" data-name="Grupo 888953">
                  <g id="Grupo_888952" data-name="Grupo 888952">
                    <path id="Trazado_622660" data-name="Trazado 622660" d="M401.927,247.246s5.733-5.609,10.311-1.948c5.409,4.323-.249,19.886-9.843,18.238Z" transform="translate(-401.927 -244.057)" fill="#e36c4f"/>
                  </g>
                </g>
              </g>
            </g>
            <g id="Grupo_888956" data-name="Grupo 888956" transform="translate(57.486 45.957)">
              <path id="Trazado_622661" data-name="Trazado 622661" d="M405.91,258.684a12.159,12.159,0,0,1,6.879-7.62s-4.754,4.483-5.116,7.951a.864.864,0,0,1-.878.792l-.1,0A.852.852,0,0,1,405.91,258.684Z" transform="translate(-405.867 -251.064)" fill="#d45b45"/>
            </g>
            <path id="Trazado_622662" data-name="Trazado 622662" d="M367.573,275.139c-19.809,0-25.925-23.528-27.747-40.753a27.181,27.181,0,0,1,26.62-30.061q.318,0,.641,0,.4,0,.793.005a27.2,27.2,0,0,1,26.7,29.543C393.064,251.321,387.372,275.139,367.573,275.139Z" transform="translate(-333.465 -194.575)" fill="#e97e5e"/>
            <path id="Trazado_622663" data-name="Trazado 622663" d="M387.927,268.938c-.085-.509-.194-1.016-.324-1.529l-.1-.378-.1-.349c-.071-.239-.149-.488-.242-.751a8.091,8.091,0,0,0-.786-1.669,6.152,6.152,0,0,0-1.393-1.542,5.89,5.89,0,0,0-.891-.593,4.562,4.562,0,0,0-1.171-.407c-.088-.015-.18-.035-.263-.046l-.126-.019-.033,0-.045-.005-.093-.009c-.124-.011-.253-.019-.35-.017s-.217,0-.3.009a6.385,6.385,0,0,0-.961.138,14.525,14.525,0,0,0-1.513.43c-.465.157-.91.322-1.348.488-.869.337-1.71.678-2.539.994s-1.65.617-2.4.82c-.1.027-.182.046-.271.068l-.3.07a4.638,4.638,0,0,1-.463.083,1.389,1.389,0,0,1-.279-.009c-.116-.013-.287-.045-.474-.083-.088-.018-.208-.043-.281-.062s-.136-.032-.221-.06c-.159-.047-.333-.106-.513-.173-.363-.133-.751-.294-1.154-.465-.806-.342-1.656-.717-2.574-1.065-.462-.178-.935-.339-1.47-.49a10.711,10.711,0,0,0-1.66-.31,11.224,11.224,0,0,0-1.675-.047l-.208.012c-.071,0-.133.005-.222.018-.169.021-.337.036-.5.067s-.335.062-.5.106-.329.09-.492.146a6.438,6.438,0,0,0-3.265,2.467,6.348,6.348,0,0,0-.889,1.938l-.064.25-.043.19c-.031.128-.057.253-.081.38-.053.253-.1.506-.138.759a22.168,22.168,0,0,0-.269,3.025,21.9,21.9,0,0,0,.7,6.063,16.893,16.893,0,0,0,2.744,5.78,14.362,14.362,0,0,0,5.109,4.272,17.159,17.159,0,0,0,6.239,1.69,22.208,22.208,0,0,0,3.1.05,19.071,19.071,0,0,0,3.134-.417,15.313,15.313,0,0,0,5.994-2.69,14.677,14.677,0,0,0,2.427-2.3,15.6,15.6,0,0,0,1.8-2.74,18.287,18.287,0,0,0,1.827-5.99,21.309,21.309,0,0,0,.174-3.049A19.814,19.814,0,0,0,387.927,268.938ZM383.1,274.2a13.271,13.271,0,0,1-1.658,4.169,9.978,9.978,0,0,1-1.3,1.666,9.07,9.07,0,0,1-1.562,1.312q-.352.23-.725.431a3.1,3.1,0,0,1-4.019-.946,2.53,2.53,0,0,0-1.81-1.292c-.765-.02-1.494.691-2.079,1.514a3.114,3.114,0,0,1-3.808,1.085l-.063-.029a9.081,9.081,0,0,1-3.2-2.457,14.359,14.359,0,0,1-2.931-8.388,17.437,17.437,0,0,1,.039-2.357c.018-.194.037-.385.062-.577l.039-.283.022-.141.016-.078a1.6,1.6,0,0,1,.178-.524,1.889,1.889,0,0,1,.9-.813,2.114,2.114,0,0,1,.31-.1c.053-.015.108-.021.163-.035.022-.005.072-.012.112-.018l.128-.013a6.723,6.723,0,0,1,1.021-.033,15.914,15.914,0,0,1,4.561,1.327c.432.164.882.329,1.37.486.246.079.5.155.776.224.132.037.29.067.436.1s.246.047.381.068a8.474,8.474,0,0,0,.86.106,5.382,5.382,0,0,0,1.067-.03,8.628,8.628,0,0,0,.861-.169l.355-.089c.128-.035.259-.067.38-.1.984-.285,1.845-.61,2.709-.918s1.7-.616,2.52-.882c.411-.133.817-.261,1.21-.37a9.875,9.875,0,0,1,1.1-.249,2.063,2.063,0,0,1,.376-.035c.027,0,.023.005.035,0s0,0-.014,0l.037.009a.492.492,0,0,1,.067.018c.08.025.1.043.1.046s.005.012.207.186a1.765,1.765,0,0,1,.368.486,3.968,3.968,0,0,1,.3.792c.048.165.093.347.139.542l.07.3.058.276a11.235,11.235,0,0,1,.155,1.126A15.467,15.467,0,0,1,383.1,274.2Z" transform="translate(-336.903 -207.486)" fill="#272d35"/>
            <path id="Trazado_622664" data-name="Trazado 622664" d="M364.274,235.431a5.249,5.249,0,0,1,0,3.75s-7.691-1.28-12.917,1.722l-.492-1.968S354.2,233.155,364.274,235.431Z" transform="translate(-335.988 -201.465)" fill="#272d35"/>
            <path id="Trazado_622665" data-name="Trazado 622665" d="M382.861,235.431a5.25,5.25,0,0,0,0,3.75s7.691-1.28,12.917,1.722l.492-1.968S392.939,233.155,382.861,235.431Z" transform="translate(-343.123 -201.465)" fill="#272d35"/>
            <g id="Grupo_888957" data-name="Grupo 888957" transform="translate(20.118 40.648)">
              <path id="Trazado_622666" data-name="Trazado 622666" d="M362.71,246.214a2.572,2.572,0,1,1-3.078-1.938A2.571,2.571,0,0,1,362.71,246.214Z" transform="translate(-357.63 -244.211)" fill="#272d35"/>
            </g>
            <g id="Grupo_888958" data-name="Grupo 888958" transform="translate(43.062 40.648)">
              <path id="Trazado_622667" data-name="Trazado 622667" d="M392.328,246.214a2.572,2.572,0,1,1-3.078-1.938A2.572,2.572,0,0,1,392.328,246.214Z" transform="translate(-387.247 -244.211)" fill="#272d35"/>
            </g>
            <path id="Trazado_622668" data-name="Trazado 622668" d="M388.044,210.124s10.6,7.061,5.179,26.069l-1.3-.1c.486-5.263-1.9-10.21-2.492-12.011-1.392-4.216-7.469-6.747-7.089-11.3,0,0-22.673,7.089-34.945.127,0,0-.119,6.153-3.537,9.786-1.623,1.725-3.484,8.367-2.813,14.2l-1.234.638c-1.558-5.949-3.658-13.068-3.674-16.179-.039-7.262,4.966-8.851,4.966-8.851s-3.031-9.9,5.454-14.335,20.3-4.55,27.544-6.077C383.869,190.034,399.52,197.15,388.044,210.124Z" transform="translate(-332.671 -191.74)" fill="#272d35"/>
            <g id="Grupo_888962" data-name="Grupo 888962" transform="translate(33.209 42.464)">
              <g id="Grupo_888961" data-name="Grupo 888961">
                <g id="Grupo_888960" data-name="Grupo 888960">
                  <g id="Grupo_888959" data-name="Grupo 888959">
                    <path id="Trazado_622669" data-name="Trazado 622669" d="M375.472,259.927a1.044,1.044,0,0,1-.447-1.927l2.98-1.84-2.34-.861a1.045,1.045,0,0,1-.682-.917l-.4-6.72a1.044,1.044,0,0,1,2.085-.125l.363,6.039,3.713,1.366a1.044,1.044,0,0,1,.187,1.869l-4.806,2.967A1.038,1.038,0,0,1,375.472,259.927Z" transform="translate(-374.529 -246.555)" fill="#d45b45"/>
                  </g>
                </g>
              </g>
            </g>
            <g id="Grupo_888966" data-name="Grupo 888966" transform="translate(24.217 60.774)">
              <g id="Grupo_888965" data-name="Grupo 888965">
                <g id="Grupo_888964" data-name="Grupo 888964">
                  <g id="Grupo_888963" data-name="Grupo 888963">
                    <path id="Trazado_622670" data-name="Trazado 622670" d="M377.27,274.617A18.2,18.2,0,0,1,363.39,272.1a1.038,1.038,0,1,1,1.138-1.736c8.68,5.692,18.144.125,18.238.068a1.038,1.038,0,0,1,1.071,1.778A22.173,22.173,0,0,1,377.27,274.617Z" transform="translate(-362.921 -270.19)" fill="#d45b45"/>
                  </g>
                </g>
              </g>
            </g>
            <g id="Grupo_888967" data-name="Grupo 888967" transform="translate(28.919 67.83)">
              <path id="Trazado_622671" data-name="Trazado 622671" d="M375.1,282.174a10.6,10.6,0,0,1-5.753-1.519.729.729,0,0,1,.745-1.253,9.975,9.975,0,0,0,9.78.019.729.729,0,0,1,.751,1.249A12.1,12.1,0,0,1,375.1,282.174Z" transform="translate(-368.99 -279.299)" fill="#d45b45"/>
            </g>
          </g>
        </g>
        <g id="Grupo_889004" data-name="Grupo 889004" transform="translate(121.339 92.205)">
          <path id="Trazado_622672" data-name="Trazado 622672" d="M285.839,298.473c.056,26.969-33.1,35.146-52.478,32.688-19.376,2.458-52.535-5.719-52.478-32.688.05-23.566,17.112-20.969,15.9-42.058-.238-4.14-.566-8.232-.866-12.24-1.435-19.141-2.168-36.435,11.31-48.419,8.157-7.248,19.141-9.023,26.13-8.688,6.988-.335,17.973,1.44,26.129,8.688,14.408,12.809,12.575,31.688,11.011,52.4-.206,2.723-.409,5.482-.567,8.258C268.726,277.5,285.791,274.906,285.839,298.473Z" transform="translate(-180.882 -187.03)" fill="#272d35"/>
          <path id="Trazado_622673" data-name="Trazado 622673" d="M206.794,404.7c3.93-14.817,11.226-52.7-4.265-89.261,0,0-4.821,28.289-6.84,53a180.022,180.022,0,0,0,.672,36.26Z" transform="translate(-184.082 -215.964)" fill="#ca644b"/>
          <path id="Trazado_622674" data-name="Trazado 622674" d="M295.1,404.368c2.491-14.917,7.05-53.248-3.656-90.417,0,0-6.431,29.216-8.45,53.928a266.062,266.062,0,0,0-.485,36.489Z" transform="translate(-203.688 -215.628)" fill="#ca644b"/>
          <g id="Grupo_888970" data-name="Grupo 888970" transform="translate(18.447 88.321)">
            <path id="Trazado_622675" data-name="Trazado 622675" d="M211.762,350.585l1.075,21.72-4.756,29.154h62.371L265.7,372.3l1.837-21.889c6.325-5.764,3.555-18.121,3.555-18.121L274,311.042l-16.94-6.3-9.948-3.7-16.6.183-9.232,3.923-16.59,7.053,2.761,20.1S205.207,345.658,211.762,350.585Z" transform="translate(-204.694 -301.039)" fill="#47d6bc"/>
            <path id="Trazado_622676" data-name="Trazado 622676" d="M261.886,304.739c-2.2,5.086-7.421,13.6-17.713,13.6-10.507,0-15.865-8.409-18.064-13.19l9.232-3.923,16.6-.183Z" transform="translate(-209.519 -301.039)" fill="#ca644b"/>
            <path id="Trazado_622677" data-name="Trazado 622677" d="M266.012,367.563s-18.24,12.893-44.5.786c0,0,24.529,6.6,44.5-.786Z" transform="translate(-208.484 -316.028)" fill="#00a498"/>
          </g>
          <path id="Trazado_622678" data-name="Trazado 622678" d="M254.895,289.59l-.141,4.83-.31,10.52a20.529,20.529,0,0,1-15.422,0l-.362-5.575-.634-9.775Z" transform="translate(-193.758 -210.139)" fill="#ca644b"/>
          <g id="Grupo_888977" data-name="Grupo 888977" transform="translate(22.955 49.078)">
            <g id="Grupo_888974" data-name="Grupo 888974">
              <g id="Grupo_888973" data-name="Grupo 888973">
                <g id="Grupo_888972" data-name="Grupo 888972">
                  <g id="Grupo_888971" data-name="Grupo 888971">
                    <path id="Trazado_622679" data-name="Trazado 622679" d="M220.675,252.992s-4.693-4.592-8.441-1.6c-4.428,3.539.2,16.279,8.057,14.93Z" transform="translate(-210.513 -250.382)" fill="#c24d3c"/>
                  </g>
                </g>
              </g>
            </g>
            <g id="Grupo_888975" data-name="Grupo 888975" transform="translate(2.835 13.09)">
              <path id="Trazado_622680" data-name="Trazado 622680" d="M221.5,281.931a7.326,7.326,0,1,1,7.326-7.326A7.334,7.334,0,0,1,221.5,281.931Zm0-13a5.676,5.676,0,1,0,5.676,5.676A5.682,5.682,0,0,0,221.5,268.929Z" transform="translate(-214.173 -267.279)" fill="#fbf9f9"/>
            </g>
            <g id="Grupo_888976" data-name="Grupo 888976" transform="translate(2.026 4.103)">
              <path id="Trazado_622681" data-name="Trazado 622681" d="M220.007,263.3a12.157,12.157,0,0,0-6.879-7.62s4.754,4.483,5.116,7.951a.863.863,0,0,0,.878.791l.1,0A.852.852,0,0,0,220.007,263.3Z" transform="translate(-213.128 -255.678)" fill="#a0443f"/>
            </g>
          </g>
          <g id="Grupo_888984" data-name="Grupo 888984" transform="translate(66.621 49.078)">
            <g id="Grupo_888981" data-name="Grupo 888981" transform="translate(6.113)">
              <g id="Grupo_888980" data-name="Grupo 888980">
                <g id="Grupo_888979" data-name="Grupo 888979">
                  <g id="Grupo_888978" data-name="Grupo 888978">
                    <path id="Trazado_622682" data-name="Trazado 622682" d="M274.771,252.992s4.693-4.592,8.441-1.6c4.427,3.539-.2,16.279-8.058,14.93Z" transform="translate(-274.771 -250.382)" fill="#c24d3c"/>
                  </g>
                </g>
              </g>
            </g>
            <g id="Grupo_888982" data-name="Grupo 888982" transform="translate(0 13.09)">
              <path id="Trazado_622683" data-name="Trazado 622683" d="M274.205,281.931a7.326,7.326,0,1,1,7.327-7.326A7.334,7.334,0,0,1,274.205,281.931Zm0-13a5.676,5.676,0,1,0,5.677,5.676A5.683,5.683,0,0,0,274.205,268.929Z" transform="translate(-266.88 -267.279)" fill="#fbf9f9"/>
            </g>
            <g id="Grupo_888983" data-name="Grupo 888983" transform="translate(7.326 4.103)">
              <path id="Trazado_622684" data-name="Trazado 622684" d="M276.38,263.3a12.152,12.152,0,0,1,6.879-7.62s-4.755,4.483-5.116,7.951a.862.862,0,0,1-.878.791l-.1,0A.852.852,0,0,1,276.38,263.3Z" transform="translate(-276.337 -255.678)" fill="#a0443f"/>
            </g>
          </g>
          <g id="Grupo_888985" data-name="Grupo 888985" transform="translate(44.268 79.451)">
            <path id="Trazado_622685" data-name="Trazado 622685" d="M254.895,289.59l-.141,4.83c-3.006,2.147-9.12,5.672-16.094,4.945l-.634-9.775Z" transform="translate(-238.026 -289.59)" fill="#a0443f"/>
          </g>
          <g id="Grupo_889002" data-name="Grupo 889002" transform="translate(28.487 23.222)">
            <path id="Trazado_622686" data-name="Trazado 622686" d="M266.365,224.8v20.186a47.265,47.265,0,0,1-2.68,15.97,34.152,34.152,0,0,1-4.146,8.232s-.038.053-.111.151a22.415,22.415,0,0,1-17.456,8.567c-10.227,0-17.058-8.183-17.474-8.694l0,0a.062.062,0,0,1-.012-.017l0,0a34.106,34.106,0,0,1-4.149-8.232,47.338,47.338,0,0,1-2.677-15.97V224.8c13.049-7.789,24.355-7.789,24.355-7.789S253.316,217.006,266.365,224.8Z" transform="translate(-217.654 -217.006)" fill="#ca644b"/>
            <g id="Grupo_888989" data-name="Grupo 888989" transform="translate(23.145 28.922)">
              <g id="Grupo_888988" data-name="Grupo 888988">
                <g id="Grupo_888987" data-name="Grupo 888987">
                  <g id="Grupo_888986" data-name="Grupo 888986">
                    <path id="Trazado_622687" data-name="Trazado 622687" d="M248.32,265.54a.875.875,0,0,1-.374-1.614l2.5-1.541-1.958-.72a.876.876,0,0,1-.571-.769l-.338-5.628a.875.875,0,0,1,1.746-.1l.3,5.057,3.11,1.143a.874.874,0,0,1,.157,1.565l-4.025,2.485A.876.876,0,0,1,248.32,265.54Z" transform="translate(-247.531 -254.34)" fill="#a0443f"/>
                  </g>
                </g>
              </g>
            </g>
            <g id="Grupo_888990" data-name="Grupo 888990" transform="translate(19.889 52.936)">
              <path id="Trazado_622688" data-name="Trazado 622688" d="M247.49,287.893a10.694,10.694,0,0,1-3.835-1.181.651.651,0,0,1,.648-1.129c.184.1,4.395,2.443,8.439-.143a.651.651,0,1,1,.7,1.1A8.98,8.98,0,0,1,247.49,287.893Z" transform="translate(-243.328 -285.339)" fill="#a0443f"/>
            </g>
            <g id="Grupo_888991" data-name="Grupo 888991" transform="translate(15.757 43.023)">
              <path id="Trazado_622689" data-name="Trazado 622689" d="M256.239,272.616a9.125,9.125,0,0,1-18.078,1.87,9.176,9.176,0,0,1-.167-1.63c0-.026,0-.049,0-.074l18.241-.24C256.237,272.568,256.239,272.591,256.239,272.616Z" transform="translate(-237.994 -272.542)" fill="#481c3f"/>
              <path id="Trazado_622690" data-name="Trazado 622690" d="M256.239,272.616a9.03,9.03,0,0,1-.124,1.634l-17.954.236a9.176,9.176,0,0,1-.167-1.63c0-.026,0-.049,0-.074l18.241-.24C256.237,272.568,256.239,272.591,256.239,272.616Z" transform="translate(-237.994 -272.542)" fill="#fff"/>
              <path id="Trazado_622691" data-name="Trazado 622691" d="M254.629,279.941a9.122,9.122,0,0,1-13.406.177,10.017,10.017,0,0,1,13.406-.177Z" transform="translate(-238.722 -273.649)" fill="#f65c66"/>
            </g>
            <g id="Grupo_888996" data-name="Grupo 888996" transform="translate(6.415 35.029)">
              <g id="Grupo_888995" data-name="Grupo 888995">
                <g id="Grupo_888992" data-name="Grupo 888992" transform="translate(2.097)">
                  <circle id="Elipse_6044" data-name="Elipse 6044" cx="0.753" cy="0.753" r="0.753" fill="#a0443f"/>
                </g>
                <g id="Grupo_888993" data-name="Grupo 888993" transform="translate(0 2.174)">
                  <path id="Trazado_622692" data-name="Trazado 622692" d="M227.44,265.783a.753.753,0,1,1-.752-.753A.753.753,0,0,1,227.44,265.783Z" transform="translate(-225.935 -265.03)" fill="#a0443f"/>
                </g>
                <g id="Grupo_888994" data-name="Grupo 888994" transform="translate(4.226 2.174)">
                  <path id="Trazado_622693" data-name="Trazado 622693" d="M232.9,265.783a.753.753,0,1,1-.752-.753A.752.752,0,0,1,232.9,265.783Z" transform="translate(-231.39 -265.03)" fill="#a0443f"/>
                </g>
              </g>
            </g>
            <g id="Grupo_889001" data-name="Grupo 889001" transform="translate(37.274 35.029)">
              <g id="Grupo_889000" data-name="Grupo 889000">
                <g id="Grupo_888997" data-name="Grupo 888997" transform="translate(2.13)">
                  <path id="Trazado_622694" data-name="Trazado 622694" d="M268.519,262.976a.753.753,0,1,0,.752-.752A.753.753,0,0,0,268.519,262.976Z" transform="translate(-268.519 -262.224)" fill="#a0443f"/>
                </g>
                <g id="Grupo_888998" data-name="Grupo 888998" transform="translate(4.226 2.174)">
                  <path id="Trazado_622695" data-name="Trazado 622695" d="M271.225,265.783a.753.753,0,1,0,.753-.753A.753.753,0,0,0,271.225,265.783Z" transform="translate(-271.225 -265.03)" fill="#a0443f"/>
                </g>
                <g id="Grupo_888999" data-name="Grupo 888999" transform="translate(0 2.174)">
                  <path id="Trazado_622696" data-name="Trazado 622696" d="M265.77,265.783a.753.753,0,1,0,.753-.753A.753.753,0,0,0,265.77,265.783Z" transform="translate(-265.77 -265.03)" fill="#a0443f"/>
                </g>
              </g>
            </g>
          </g>
          <path id="Trazado_622697" data-name="Trazado 622697" d="M237.086,242.038h0a1.186,1.186,0,0,1-1.115,1.185c-2.245.134-7.37.7-10.577,3.085,0,0,1.169-5.152,10.457-5.458A1.192,1.192,0,0,1,237.086,242.038Z" transform="translate(-190.912 -199.156)" fill="#272d35"/>
          <path id="Trazado_622698" data-name="Trazado 622698" d="M258.575,242.038h0a1.186,1.186,0,0,0,1.116,1.185c2.245.134,7.369.7,10.576,3.085,0,0-1.168-5.152-10.457-5.458A1.192,1.192,0,0,0,258.575,242.038Z" transform="translate(-198.388 -199.156)" fill="#272d35"/>
          <path id="Trazado_622699" data-name="Trazado 622699" d="M216.7,245.514s6.486-6.778,4.883-23.025l-8.151,3.262Z" transform="translate(-188.217 -195.019)" fill="#272d35"/>
          <path id="Trazado_622700" data-name="Trazado 622700" d="M279.322,245.514s-6.486-6.778-4.883-23.025l8.151,3.262Z" transform="translate(-201.905 -195.019)" fill="#272d35"/>
          <path id="Trazado_622701" data-name="Trazado 622701" d="M222.847,224.515s23.832-8,40.8,0v-6.866s-10.05-4.633-20.888-4.633c-14.122,0-21.16,6.634-21.16,6.634Z" transform="translate(-190.057 -192.885)" fill="#272d35"/>
          <path id="Trazado_622702" data-name="Trazado 622702" d="M223.37,232.041s33.472,3.11,40.463-10.627-37.155-4.719-37.155-4.719S220,218.939,223.37,232.041Z" transform="translate(-190.241 -193.059)" fill="#272d35"/>
          <path id="Trazado_622703" data-name="Trazado 622703" d="M236.535,252.986a2.405,2.405,0,1,1-4.032-2.333,10.737,10.737,0,0,0-3.441,1.2c4.188-5,9.092-.92,9.092-.92a12.134,12.134,0,0,0-2.392-.444A2.407,2.407,0,0,1,236.535,252.986Z" transform="translate(-191.738 -201.076)" fill="#272d35"/>
          <path id="Trazado_622704" data-name="Trazado 622704" d="M259.007,252.986a2.4,2.4,0,1,0,4.032-2.333,10.746,10.746,0,0,1,3.441,1.2c-4.188-5-9.092-.92-9.092-.92a12.123,12.123,0,0,1,2.392-.444A2.406,2.406,0,0,0,259.007,252.986Z" transform="translate(-198.121 -201.076)" fill="#272d35"/>
          <g id="Grupo_889003" data-name="Grupo 889003" transform="translate(21.531 7.794)">
            <path id="Trazado_622705" data-name="Trazado 622705" d="M270.5,229.19a78.775,78.775,0,0,0-5.489-15.308c-4.42-8.582-13.978-11.714-25.157-11.714l-.232,0-.232,0c-11.179,0-20.737,3.132-25.157,11.714a78.775,78.775,0,0,0-5.489,15.308c0-.562-1.334-14.435,7.847-23.652,5.58-5.607,13.253-8.448,22.8-8.448.077,0,.155,0,.232,0s.155,0,.232,0c9.546,0,17.22,2.841,22.8,8.448C271.835,214.756,270.5,228.629,270.5,229.19Z" transform="translate(-208.675 -197.09)" fill="#47d6bc"/>
          </g>
        </g>
      </g>
    </g>
  </g>
</svg>
