<svg xmlns="http://www.w3.org/2000/svg" width="715" height="402" viewBox="0 0 715 402">
  <g id="Grupo_898340" data-name="Grupo 898340" transform="translate(-650 -6686.823)">
    <path id="Trazado_664752" data-name="Trazado 664752" d="M17,0H698a17,17,0,0,1,17,17V385a17,17,0,0,1-17,17H17A17,17,0,0,1,0,385V17A17,17,0,0,1,17,0Z" transform="translate(650 6686.823)" fill="#fff"/>
    <path id="Trazado_664753" data-name="Trazado 664753" d="M5,0H83a5,5,0,0,1,5,5V31a5,5,0,0,1-5,5H5a5,5,0,0,1-5-5V5A5,5,0,0,1,5,0Z" transform="translate(1157 6867.823)" fill="#ee4e5d"/>
    <path id="Trazado_664754" data-name="Trazado 664754" d="M-15.967-5.586H-21.2V-1.3h6.084V0H-22.8V-12.086h7.6v1.3h-6V-6.89h5.238ZM-12.771,0V-7.794H-14.19V-8.981h1.419V-9.9A3.058,3.058,0,0,1-12-12.136a2.916,2.916,0,0,1,2.183-.789,4.055,4.055,0,0,1,1.054.14l-.083,1.238a4.41,4.41,0,0,0-.83-.075,1.5,1.5,0,0,0-1.154.437,1.773,1.773,0,0,0-.407,1.253v.949h1.917v1.187h-1.917V0ZM-3.9.166a3.924,3.924,0,0,1-2.972-1.2A4.452,4.452,0,0,1-8.014-4.242v-.282A5.39,5.39,0,0,1-7.5-6.91,3.982,3.982,0,0,1-6.076-8.554a3.59,3.59,0,0,1,1.988-.594A3.364,3.364,0,0,1-1.365-7.994a5,5,0,0,1,.971,3.3v.639H-6.479A3.193,3.193,0,0,0-5.7-1.905a2.44,2.44,0,0,0,1.888.818,2.675,2.675,0,0,0,1.378-.332,3.462,3.462,0,0,0,.988-.88l.938.73A3.772,3.772,0,0,1-3.9.166Zm-.191-8.052a2.048,2.048,0,0,0-1.561.677,3.288,3.288,0,0,0-.78,1.9h4.5v-.116a2.925,2.925,0,0,0-.631-1.814A1.928,1.928,0,0,0-4.088-7.886Zm9.073,6.8a2.212,2.212,0,0,0,1.436-.5A1.752,1.752,0,0,0,7.1-2.831H8.554a2.785,2.785,0,0,1-.531,1.469A3.5,3.5,0,0,1,6.715-.249,3.772,3.772,0,0,1,4.985.166,3.7,3.7,0,0,1,2.067-1.058,4.877,4.877,0,0,1,.984-4.408v-.257A5.407,5.407,0,0,1,1.465-7,3.667,3.667,0,0,1,2.847-8.583a3.926,3.926,0,0,1,2.129-.564,3.6,3.6,0,0,1,2.511.9A3.234,3.234,0,0,1,8.554-5.894H7.1a2.116,2.116,0,0,0-.66-1.432,2.053,2.053,0,0,0-1.465-.56,2.149,2.149,0,0,0-1.814.843,3.957,3.957,0,0,0-.643,2.436v.291a3.878,3.878,0,0,0,.639,2.391A2.16,2.16,0,0,0,4.985-1.087Zm7.379-10.069v2.175h1.677v1.187H12.364v5.577a1.247,1.247,0,0,0,.224.81.943.943,0,0,0,.764.27,3.718,3.718,0,0,0,.73-.1V0A4.478,4.478,0,0,1,12.9.166a1.912,1.912,0,0,1-1.552-.623,2.675,2.675,0,0,1-.523-1.768v-5.57H9.193V-8.981h1.635v-2.175Zm2.9,6.583a5.3,5.3,0,0,1,.519-2.374,3.87,3.87,0,0,1,1.444-1.627,3.932,3.932,0,0,1,2.113-.573A3.788,3.788,0,0,1,22.3-7.877,4.886,4.886,0,0,1,23.437-4.5v.108a5.351,5.351,0,0,1-.5,2.353A3.813,3.813,0,0,1,21.5-.415a3.977,3.977,0,0,1-2.146.581A3.778,3.778,0,0,1,16.394-1.1a4.861,4.861,0,0,1-1.133-3.362Zm1.544.183a3.842,3.842,0,0,0,.693,2.4,2.218,2.218,0,0,0,1.855.9A2.2,2.2,0,0,0,21.213-2,4.2,4.2,0,0,0,21.9-4.574a3.836,3.836,0,0,0-.7-2.395,2.23,2.23,0,0,0-1.864-.917,2.205,2.205,0,0,0-1.834.9A4.17,4.17,0,0,0,16.8-4.391Z" transform="translate(1200 6891.823)" fill="#fff"/>
    <path id="Trazado_664755" data-name="Trazado 664755" d="M0,0H308.12V13.222H0Z" transform="translate(836.001 6879.155)" fill="#179587"/>
    <path id="Trazado_664756" data-name="Trazado 664756" d="M17,0,34,30.621H0Z" transform="translate(1169 6867.823) rotate(90)" fill="#179587"/>
    <path id="Trazado_664757" data-name="Trazado 664757" d="M5,0H75a5,5,0,0,1,5,5v9a5,5,0,0,1-5,5H5a5,5,0,0,1-5-5V5A5,5,0,0,1,5,0Z" transform="translate(861 6793.823)" fill="#179587"/>
    <path id="Trazado_664758" data-name="Trazado 664758" d="M5,0H75a5,5,0,0,1,5,5v9a5,5,0,0,1-5,5H5a5,5,0,0,1-5-5V5A5,5,0,0,1,5,0Z" transform="translate(957 6793.823)" fill="#179587"/>
    <path id="Trazado_664759" data-name="Trazado 664759" d="M5,0H94a5,5,0,0,1,5,5v9a5,5,0,0,1-5,5H5a5,5,0,0,1-5-5V5A5,5,0,0,1,5,0Z" transform="translate(823 6974.823)" fill="#179587"/>
    <path id="Trazado_664760" data-name="Trazado 664760" d="M5,0H75a5,5,0,0,1,5,5v9a5,5,0,0,1-5,5H5a5,5,0,0,1-5-5V5A5,5,0,0,1,5,0Z" transform="translate(1054 6793.823)" fill="#179587"/>
    <path id="Trazado_664761" data-name="Trazado 664761" d="M5,0H75a5,5,0,0,1,5,5v9a5,5,0,0,1-5,5H5a5,5,0,0,1-5-5V5A5,5,0,0,1,5,0Z" transform="translate(980 6974.823)" fill="#179587"/>
    <path id="Trazado_664762" data-name="Trazado 664762" d="M-24.984-3.618V0H-26.2V-9.242h3.409a3.425,3.425,0,0,1,2.377.774,2.625,2.625,0,0,1,.86,2.05A2.591,2.591,0,0,1-20.4-4.345a3.578,3.578,0,0,1-2.409.727Zm0-1h2.19a2.19,2.19,0,0,0,1.5-.461,1.686,1.686,0,0,0,.521-1.332A1.742,1.742,0,0,0-21.3-7.731a2.051,2.051,0,0,0-1.428-.515h-2.26ZM-15.336.127A3,3,0,0,1-17.608-.79a3.4,3.4,0,0,1-.876-2.453v-.216a4.121,4.121,0,0,1,.39-1.825A3.045,3.045,0,0,1-17-6.541,2.745,2.745,0,0,1-15.482-7a2.572,2.572,0,0,1,2.082.882,3.82,3.82,0,0,1,.743,2.526V-3.1H-17.31a2.441,2.441,0,0,0,.594,1.641,1.866,1.866,0,0,0,1.444.625,2.045,2.045,0,0,0,1.054-.254,2.648,2.648,0,0,0,.755-.673l.717.559A2.884,2.884,0,0,1-15.336.127Zm-.146-6.157a1.566,1.566,0,0,0-1.193.517,2.515,2.515,0,0,0-.6,1.45h3.44v-.089a2.237,2.237,0,0,0-.482-1.387A1.475,1.475,0,0,0-15.482-6.03Zm7.5.216a3.519,3.519,0,0,0-.578-.044,1.547,1.547,0,0,0-1.568.984V0H-11.3V-6.868h1.143l.019.793A1.829,1.829,0,0,1-8.5-7a1.2,1.2,0,0,1,.521.089ZM-2.9-1.822a.865.865,0,0,0-.359-.74,3.452,3.452,0,0,0-1.25-.454,5.912,5.912,0,0,1-1.416-.457A2.014,2.014,0,0,1-6.7-4.107a1.518,1.518,0,0,1-.251-.876,1.782,1.782,0,0,1,.714-1.428A2.789,2.789,0,0,1-4.412-7a2.87,2.87,0,0,1,1.895.6A1.915,1.915,0,0,1-1.79-4.85H-2.971a1.06,1.06,0,0,0-.409-.832A1.534,1.534,0,0,0-4.412-6.03a1.605,1.605,0,0,0-1,.279.879.879,0,0,0-.362.73.712.712,0,0,0,.336.641,4.139,4.139,0,0,0,1.216.413A6.334,6.334,0,0,1-2.8-3.5a2.079,2.079,0,0,1,.809.657,1.615,1.615,0,0,1,.263.936A1.758,1.758,0,0,1-2.463-.428,3.089,3.089,0,0,1-4.374.127a3.459,3.459,0,0,1-1.46-.292,2.375,2.375,0,0,1-.993-.816,1.966,1.966,0,0,1-.359-1.133h1.174a1.216,1.216,0,0,0,.473.936,1.835,1.835,0,0,0,1.165.346A1.894,1.894,0,0,0-3.3-1.1.829.829,0,0,0-2.9-1.822ZM-.508-3.5a4.057,4.057,0,0,1,.4-1.815,2.96,2.96,0,0,1,1.1-1.244A3.007,3.007,0,0,1,2.609-7a2.9,2.9,0,0,1,2.269.971A3.736,3.736,0,0,1,5.745-3.44v.083a4.092,4.092,0,0,1-.384,1.8,2.916,2.916,0,0,1-1.1,1.241A3.041,3.041,0,0,1,2.622.127,2.889,2.889,0,0,1,.359-.844,3.718,3.718,0,0,1-.508-3.415Zm1.181.14A2.938,2.938,0,0,0,1.2-1.523a1.7,1.7,0,0,0,1.419.692,1.686,1.686,0,0,0,1.422-.7A3.213,3.213,0,0,0,4.57-3.5a2.933,2.933,0,0,0-.536-1.831,1.705,1.705,0,0,0-1.425-.7,1.686,1.686,0,0,0-1.4.692A3.189,3.189,0,0,0,.673-3.358Zm7.655-3.51L8.366-6A2.5,2.5,0,0,1,10.423-7q2.177,0,2.2,2.457V0H11.445V-4.545a1.581,1.581,0,0,0-.34-1.1A1.361,1.361,0,0,0,10.067-6a1.7,1.7,0,0,0-1,.3,2.069,2.069,0,0,0-.673.8V0H7.217V-6.868ZM18.63,0a2.467,2.467,0,0,1-.165-.724A2.62,2.62,0,0,1,16.51.127a2.424,2.424,0,0,1-1.666-.574A1.859,1.859,0,0,1,14.193-1.9a1.942,1.942,0,0,1,.816-1.666A3.846,3.846,0,0,1,17.3-4.164h1.143V-4.7a1.319,1.319,0,0,0-.368-.981,1.48,1.48,0,0,0-1.085-.365,1.712,1.712,0,0,0-1.054.317.935.935,0,0,0-.425.768H14.333a1.621,1.621,0,0,1,.365-.993,2.491,2.491,0,0,1,.99-.759A3.331,3.331,0,0,1,17.063-7a2.715,2.715,0,0,1,1.86.594,2.141,2.141,0,0,1,.7,1.635v3.161a3.865,3.865,0,0,0,.241,1.5V0ZM16.682-.9a2.064,2.064,0,0,0,1.047-.286,1.728,1.728,0,0,0,.717-.743V-3.333h-.92q-2.158,0-2.158,1.263a1.069,1.069,0,0,0,.368.863A1.415,1.415,0,0,0,16.682-.9Zm8.779-.927a.864.864,0,0,0-.359-.74,3.452,3.452,0,0,0-1.25-.454,5.912,5.912,0,0,1-1.416-.457,2.014,2.014,0,0,1-.774-.635,1.518,1.518,0,0,1-.251-.876,1.782,1.782,0,0,1,.714-1.428A2.789,2.789,0,0,1,23.95-7a2.87,2.87,0,0,1,1.895.6,1.915,1.915,0,0,1,.727,1.542H25.391a1.06,1.06,0,0,0-.409-.832A1.534,1.534,0,0,0,23.95-6.03a1.606,1.606,0,0,0-1,.279.879.879,0,0,0-.362.73.712.712,0,0,0,.336.641,4.139,4.139,0,0,0,1.216.413,6.334,6.334,0,0,1,1.425.47,2.079,2.079,0,0,1,.809.657,1.615,1.615,0,0,1,.263.936A1.758,1.758,0,0,1,25.9-.428a3.089,3.089,0,0,1-1.911.555,3.459,3.459,0,0,1-1.46-.292,2.375,2.375,0,0,1-.993-.816,1.966,1.966,0,0,1-.359-1.133H22.35a1.216,1.216,0,0,0,.473.936,1.835,1.835,0,0,0,1.165.346,1.894,1.894,0,0,0,1.07-.27A.829.829,0,0,0,25.46-1.822Z" transform="translate(900 6805.823)" fill="#fff"/>
    <path id="Trazado_664763" data-name="Trazado 664763" d="M-33.912-3.618V0h-1.219V-9.242h3.409a3.425,3.425,0,0,1,2.377.774,2.625,2.625,0,0,1,.86,2.05,2.591,2.591,0,0,1-.841,2.073,3.578,3.578,0,0,1-2.409.727Zm0-1h2.19a2.19,2.19,0,0,0,1.5-.461A1.686,1.686,0,0,0-29.7-6.408a1.742,1.742,0,0,0-.521-1.323,2.051,2.051,0,0,0-1.428-.515h-2.26Zm10.118-1.2a3.519,3.519,0,0,0-.578-.044,1.547,1.547,0,0,0-1.568.984V0h-1.174V-6.868h1.143l.019.793A1.829,1.829,0,0,1-24.315-7a1.2,1.2,0,0,1,.521.089ZM-19.865.127A3,3,0,0,1-22.137-.79a3.4,3.4,0,0,1-.876-2.453v-.216a4.121,4.121,0,0,1,.39-1.825,3.045,3.045,0,0,1,1.092-1.257A2.745,2.745,0,0,1-20.011-7a2.572,2.572,0,0,1,2.082.882,3.82,3.82,0,0,1,.743,2.526V-3.1h-4.653a2.441,2.441,0,0,0,.594,1.641A1.866,1.866,0,0,0-19.8-.832a2.045,2.045,0,0,0,1.054-.254,2.648,2.648,0,0,0,.755-.673l.717.559A2.884,2.884,0,0,1-19.865.127Zm-.146-6.157a1.566,1.566,0,0,0-1.193.517,2.515,2.515,0,0,0-.6,1.45h3.44v-.089a2.237,2.237,0,0,0-.482-1.387A1.475,1.475,0,0,0-20.011-6.03Zm6.938,5.2a1.692,1.692,0,0,0,1.1-.381,1.34,1.34,0,0,0,.521-.952h1.111a2.13,2.13,0,0,1-.406,1.124,2.676,2.676,0,0,1-1,.851,2.885,2.885,0,0,1-1.323.317A2.829,2.829,0,0,1-15.3-.809a3.729,3.729,0,0,1-.828-2.561v-.2a4.135,4.135,0,0,1,.368-1.784,2.8,2.8,0,0,1,1.057-1.212A3,3,0,0,1-13.079-7a2.755,2.755,0,0,1,1.92.692,2.473,2.473,0,0,1,.816,1.8h-1.111a1.618,1.618,0,0,0-.5-1.095,1.57,1.57,0,0,0-1.12-.428,1.644,1.644,0,0,0-1.387.644,3.026,3.026,0,0,0-.492,1.863V-3.3a2.965,2.965,0,0,0,.489,1.828A1.651,1.651,0,0,0-13.073-.832Zm6.9.958A3,3,0,0,1-8.446-.79a3.4,3.4,0,0,1-.876-2.453v-.216a4.121,4.121,0,0,1,.39-1.825A3.045,3.045,0,0,1-7.839-6.541,2.745,2.745,0,0,1-6.319-7a2.572,2.572,0,0,1,2.082.882,3.82,3.82,0,0,1,.743,2.526V-3.1H-8.147a2.441,2.441,0,0,0,.594,1.641A1.866,1.866,0,0,0-6.11-.832a2.045,2.045,0,0,0,1.054-.254A2.648,2.648,0,0,0-4.3-1.758l.717.559A2.884,2.884,0,0,1-6.173.127ZM-6.319-6.03a1.566,1.566,0,0,0-1.193.517,2.515,2.515,0,0,0-.6,1.45h3.44v-.089a2.237,2.237,0,0,0-.482-1.387A1.475,1.475,0,0,0-6.319-6.03Zm3.9,2.539a4.023,4.023,0,0,1,.749-2.542A2.369,2.369,0,0,1,.289-7,2.382,2.382,0,0,1,2.2-6.17V-9.75H3.374V0H2.295L2.238-.736A2.391,2.391,0,0,1,.276.127,2.346,2.346,0,0,1-1.669-.851,4.069,4.069,0,0,1-2.422-3.4Zm1.174.133A3.046,3.046,0,0,0-.765-1.53,1.56,1.56,0,0,0,.568-.87a1.713,1.713,0,0,0,1.631-1V-5.027A1.726,1.726,0,0,0,.581-6a1.567,1.567,0,0,0-1.346.667A3.354,3.354,0,0,0-1.247-3.358ZM8.046.127A3,3,0,0,1,5.773-.79,3.4,3.4,0,0,1,4.9-3.244v-.216a4.121,4.121,0,0,1,.39-1.825A3.045,3.045,0,0,1,6.379-6.541,2.745,2.745,0,0,1,7.9-7a2.572,2.572,0,0,1,2.082.882,3.82,3.82,0,0,1,.743,2.526V-3.1H6.072a2.441,2.441,0,0,0,.594,1.641,1.866,1.866,0,0,0,1.444.625,2.045,2.045,0,0,0,1.054-.254,2.648,2.648,0,0,0,.755-.673l.717.559A2.884,2.884,0,0,1,8.046.127ZM7.9-6.03a1.566,1.566,0,0,0-1.193.517,2.515,2.515,0,0,0-.6,1.45H9.55v-.089a2.237,2.237,0,0,0-.482-1.387A1.475,1.475,0,0,0,7.9-6.03Zm5.294-.838L13.232-6A2.5,2.5,0,0,1,15.288-7q2.177,0,2.2,2.457V0H16.31V-4.545a1.581,1.581,0,0,0-.34-1.1A1.361,1.361,0,0,0,14.933-6a1.7,1.7,0,0,0-1,.3,2.069,2.069,0,0,0-.673.8V0H12.083V-6.868Zm7.655-1.663v1.663h1.282v.908H20.849V-1.7a.953.953,0,0,0,.171.62A.721.721,0,0,0,21.6-.87a2.843,2.843,0,0,0,.559-.076V0a3.424,3.424,0,0,1-.9.126,1.462,1.462,0,0,1-1.187-.476,2.045,2.045,0,0,1-.4-1.352V-5.96h-1.25v-.908h1.25V-8.531Zm5.5,8.658A3,3,0,0,1,24.08-.79,3.4,3.4,0,0,1,23.2-3.244v-.216a4.121,4.121,0,0,1,.39-1.825,3.045,3.045,0,0,1,1.092-1.257A2.745,2.745,0,0,1,26.206-7a2.572,2.572,0,0,1,2.082.882,3.82,3.82,0,0,1,.743,2.526V-3.1H24.378a2.441,2.441,0,0,0,.594,1.641,1.866,1.866,0,0,0,1.444.625,2.045,2.045,0,0,0,1.054-.254,2.648,2.648,0,0,0,.755-.673l.717.559A2.884,2.884,0,0,1,26.352.127ZM26.206-6.03a1.566,1.566,0,0,0-1.193.517,2.515,2.515,0,0,0-.6,1.45h3.44v-.089a2.237,2.237,0,0,0-.482-1.387A1.475,1.475,0,0,0,26.206-6.03Zm8.182,4.208a.865.865,0,0,0-.359-.74,3.452,3.452,0,0,0-1.25-.454,5.912,5.912,0,0,1-1.416-.457,2.014,2.014,0,0,1-.774-.635,1.518,1.518,0,0,1-.251-.876,1.782,1.782,0,0,1,.714-1.428A2.789,2.789,0,0,1,32.878-7a2.87,2.87,0,0,1,1.895.6A1.915,1.915,0,0,1,35.5-4.85H34.319a1.06,1.06,0,0,0-.409-.832,1.534,1.534,0,0,0-1.031-.349,1.605,1.605,0,0,0-1,.279.879.879,0,0,0-.362.73.712.712,0,0,0,.336.641,4.139,4.139,0,0,0,1.216.413,6.334,6.334,0,0,1,1.425.47,2.079,2.079,0,0,1,.809.657,1.615,1.615,0,0,1,.263.936,1.758,1.758,0,0,1-.736,1.476,3.089,3.089,0,0,1-1.911.555,3.459,3.459,0,0,1-1.46-.292,2.375,2.375,0,0,1-.993-.816A1.966,1.966,0,0,1,30.1-2.114h1.174a1.216,1.216,0,0,0,.473.936,1.835,1.835,0,0,0,1.165.346,1.894,1.894,0,0,0,1.07-.27A.829.829,0,0,0,34.388-1.822Z" transform="translate(872 6988.823)" fill="#fff"/>
    <path id="Trazado_664764" data-name="Trazado 664764" d="M-14.025-1h4.38V0h-5.6V-9.242h1.225Zm9.547.317A2.494,2.494,0,0,1-6.49.127,2.135,2.135,0,0,1-8.163-.511,2.761,2.761,0,0,1-8.744-2.4V-6.868H-7.57v4.437Q-7.57-.87-6.3-.87a1.758,1.758,0,0,0,1.79-1v-5h1.174V0H-4.453Zm2.647-2.812a4.037,4.037,0,0,1,.743-2.555A2.375,2.375,0,0,1,.879-7a2.363,2.363,0,0,1,1.961.889L2.9-6.868H3.97v6.7a2.794,2.794,0,0,1-.79,2.1A2.916,2.916,0,0,1,1.057,2.7,3.532,3.532,0,0,1-.4,2.387a2.5,2.5,0,0,1-1.085-.87l.609-.7a2.3,2.3,0,0,0,1.847.933,1.8,1.8,0,0,0,1.336-.482A1.844,1.844,0,0,0,2.79-.1v-.59A2.414,2.414,0,0,1,.866.127,2.346,2.346,0,0,1-1.085-.844,4.244,4.244,0,0,1-1.831-3.491Zm1.181.133A3.08,3.08,0,0,0-.175-1.533,1.547,1.547,0,0,0,1.158-.87,1.72,1.72,0,0,0,2.79-1.879V-5.015A1.74,1.74,0,0,0,1.171-6a1.561,1.561,0,0,0-1.339.667A3.354,3.354,0,0,0-.651-3.358ZM9.982,0a2.467,2.467,0,0,1-.165-.724A2.62,2.62,0,0,1,7.862.127,2.424,2.424,0,0,1,6.2-.448,1.859,1.859,0,0,1,5.545-1.9,1.942,1.942,0,0,1,6.36-3.571a3.846,3.846,0,0,1,2.295-.594H9.8V-4.7a1.319,1.319,0,0,0-.368-.981,1.48,1.48,0,0,0-1.085-.365,1.712,1.712,0,0,0-1.054.317.935.935,0,0,0-.425.768H5.684a1.621,1.621,0,0,1,.365-.993,2.491,2.491,0,0,1,.99-.759A3.331,3.331,0,0,1,8.414-7a2.715,2.715,0,0,1,1.86.594,2.141,2.141,0,0,1,.7,1.635v3.161a3.865,3.865,0,0,0,.241,1.5V0ZM8.033-.9A2.064,2.064,0,0,0,9.08-1.181,1.728,1.728,0,0,0,9.8-1.923V-3.333h-.92q-2.158,0-2.158,1.263a1.069,1.069,0,0,0,.368.863A1.415,1.415,0,0,0,8.033-.9Zm8.1-4.919a3.519,3.519,0,0,0-.578-.044,1.547,1.547,0,0,0-1.568.984V0H12.813V-6.868h1.143l.019.793A1.829,1.829,0,0,1,15.612-7a1.2,1.2,0,0,1,.521.089Z" transform="translate(1020 6988.823)" fill="#fff"/>
    <path id="Trazado_664765" data-name="Trazado 664765" d="M-22.525-4.12a5.731,5.731,0,0,1-2.282-1.108,2.116,2.116,0,0,1-.714-1.622,2.236,2.236,0,0,1,.873-1.806,3.469,3.469,0,0,1,2.269-.714,3.786,3.786,0,0,1,1.7.368,2.792,2.792,0,0,1,1.155,1.016,2.6,2.6,0,0,1,.409,1.416h-1.225a1.69,1.69,0,0,0-.533-1.322,2.168,2.168,0,0,0-1.5-.481,2.22,2.22,0,0,0-1.406.4,1.326,1.326,0,0,0-.5,1.1,1.193,1.193,0,0,0,.479.957,4.7,4.7,0,0,0,1.631.715,7.569,7.569,0,0,1,1.8.715,2.736,2.736,0,0,1,.965.911A2.325,2.325,0,0,1-19.1-2.349a2.159,2.159,0,0,1-.876,1.8,3.735,3.735,0,0,1-2.342.676,4.344,4.344,0,0,1-1.777-.365,2.991,2.991,0,0,1-1.273-1,2.44,2.44,0,0,1-.448-1.441h1.225a1.592,1.592,0,0,0,.619,1.323,2.606,2.606,0,0,0,1.654.486,2.4,2.4,0,0,0,1.479-.394,1.278,1.278,0,0,0,.514-1.073A1.255,1.255,0,0,0-20.8-3.386,5.489,5.489,0,0,0-22.525-4.12ZM-14.869.127A3,3,0,0,1-17.142-.79a3.4,3.4,0,0,1-.876-2.453v-.216a4.121,4.121,0,0,1,.39-1.825,3.045,3.045,0,0,1,1.092-1.257A2.745,2.745,0,0,1-15.015-7a2.572,2.572,0,0,1,2.082.882,3.82,3.82,0,0,1,.743,2.526V-3.1h-4.653a2.441,2.441,0,0,0,.594,1.641,1.866,1.866,0,0,0,1.444.625,2.045,2.045,0,0,0,1.054-.254A2.648,2.648,0,0,0-13-1.758l.717.559A2.884,2.884,0,0,1-14.869.127Zm-.146-6.157a1.566,1.566,0,0,0-1.193.517,2.515,2.515,0,0,0-.6,1.45h3.44v-.089a2.237,2.237,0,0,0-.482-1.387A1.475,1.475,0,0,0-15.015-6.03Zm7.5.216a3.519,3.519,0,0,0-.578-.044,1.547,1.547,0,0,0-1.568.984V0h-1.174V-6.868H-9.69l.019.793A1.829,1.829,0,0,1-8.033-7a1.2,1.2,0,0,1,.521.089Zm3.459,4.221,1.7-5.275h1.2L-3.615,0h-.9L-7-6.868h1.2ZM1.254,0H.079V-6.868H1.254ZM-.016-8.69a.7.7,0,0,1,.175-.482.655.655,0,0,1,.517-.2.666.666,0,0,1,.521.2.694.694,0,0,1,.178.482.671.671,0,0,1-.178.476.678.678,0,0,1-.521.19.667.667,0,0,1-.517-.19A.678.678,0,0,1-.016-8.69Zm5.9,7.858a1.692,1.692,0,0,0,1.1-.381,1.34,1.34,0,0,0,.521-.952H8.617a2.13,2.13,0,0,1-.406,1.124,2.676,2.676,0,0,1-1,.851A2.885,2.885,0,0,1,5.887.127,2.829,2.829,0,0,1,3.656-.809a3.729,3.729,0,0,1-.828-2.561v-.2A4.135,4.135,0,0,1,3.2-5.351,2.8,2.8,0,0,1,4.253-6.563,3,3,0,0,1,5.881-7,2.755,2.755,0,0,1,7.8-6.3a2.473,2.473,0,0,1,.816,1.8H7.506A1.618,1.618,0,0,0,7-5.6a1.57,1.57,0,0,0-1.12-.428,1.644,1.644,0,0,0-1.387.644A3.026,3.026,0,0,0,4-3.523V-3.3a2.965,2.965,0,0,0,.489,1.828A1.651,1.651,0,0,0,5.887-.832ZM11.213,0H10.039V-6.868h1.174ZM9.944-8.69a.7.7,0,0,1,.175-.482.655.655,0,0,1,.517-.2.666.666,0,0,1,.521.2.694.694,0,0,1,.178.482.671.671,0,0,1-.178.476.678.678,0,0,1-.521.19.667.667,0,0,1-.517-.19A.678.678,0,0,1,9.944-8.69ZM12.781-3.5a4.057,4.057,0,0,1,.4-1.815,2.96,2.96,0,0,1,1.1-1.244A3.007,3.007,0,0,1,15.9-7a2.9,2.9,0,0,1,2.269.971,3.736,3.736,0,0,1,.866,2.583v.083a4.092,4.092,0,0,1-.384,1.8,2.916,2.916,0,0,1-1.1,1.241A3.041,3.041,0,0,1,15.91.127a2.889,2.889,0,0,1-2.263-.971,3.718,3.718,0,0,1-.866-2.571Zm1.181.14a2.938,2.938,0,0,0,.53,1.834,1.7,1.7,0,0,0,1.419.692,1.686,1.686,0,0,0,1.422-.7A3.213,3.213,0,0,0,17.859-3.5a2.933,2.933,0,0,0-.536-1.831,1.705,1.705,0,0,0-1.425-.7,1.686,1.686,0,0,0-1.4.692A3.189,3.189,0,0,0,13.962-3.358ZM24.505-1.822a.864.864,0,0,0-.359-.74,3.452,3.452,0,0,0-1.25-.454,5.912,5.912,0,0,1-1.416-.457,2.014,2.014,0,0,1-.774-.635,1.518,1.518,0,0,1-.251-.876,1.782,1.782,0,0,1,.714-1.428A2.789,2.789,0,0,1,22.994-7a2.87,2.87,0,0,1,1.895.6,1.915,1.915,0,0,1,.727,1.542H24.435a1.06,1.06,0,0,0-.409-.832,1.534,1.534,0,0,0-1.031-.349,1.606,1.606,0,0,0-1,.279.879.879,0,0,0-.362.73.712.712,0,0,0,.336.641,4.139,4.139,0,0,0,1.216.413,6.334,6.334,0,0,1,1.425.47,2.079,2.079,0,0,1,.809.657,1.615,1.615,0,0,1,.263.936,1.758,1.758,0,0,1-.736,1.476,3.089,3.089,0,0,1-1.911.555,3.459,3.459,0,0,1-1.46-.292,2.375,2.375,0,0,1-.993-.816,1.966,1.966,0,0,1-.359-1.133h1.174a1.216,1.216,0,0,0,.473.936,1.835,1.835,0,0,0,1.165.346A1.894,1.894,0,0,0,24.1-1.1.829.829,0,0,0,24.505-1.822Z" transform="translate(998 6805.823)" fill="#fff"/>
    <path id="Trazado_664766" data-name="Trazado 664766" d="M-23.658-3.618V0h-1.219V-9.242h3.409a3.425,3.425,0,0,1,2.377.774,2.625,2.625,0,0,1,.86,2.05,2.591,2.591,0,0,1-.841,2.073,3.578,3.578,0,0,1-2.409.727Zm0-1h2.19a2.19,2.19,0,0,0,1.5-.461,1.686,1.686,0,0,0,.521-1.332,1.742,1.742,0,0,0-.521-1.323A2.051,2.051,0,0,0-21.4-8.246h-2.26ZM-12.689,0a2.467,2.467,0,0,1-.165-.724,2.62,2.62,0,0,1-1.955.851,2.424,2.424,0,0,1-1.666-.574A1.859,1.859,0,0,1-17.126-1.9a1.942,1.942,0,0,1,.816-1.666,3.846,3.846,0,0,1,2.295-.594h1.143V-4.7a1.319,1.319,0,0,0-.368-.981,1.48,1.48,0,0,0-1.085-.365,1.712,1.712,0,0,0-1.054.317.935.935,0,0,0-.425.768h-1.181a1.621,1.621,0,0,1,.365-.993,2.491,2.491,0,0,1,.99-.759A3.331,3.331,0,0,1-14.257-7,2.715,2.715,0,0,1-12.4-6.4a2.141,2.141,0,0,1,.7,1.635v3.161a3.865,3.865,0,0,0,.241,1.5V0Zm-1.949-.9a2.064,2.064,0,0,0,1.047-.286,1.728,1.728,0,0,0,.717-.743V-3.333h-.92q-2.158,0-2.158,1.263a1.069,1.069,0,0,0,.368.863A1.415,1.415,0,0,0-14.638-.9Zm6.373-7.636v1.663h1.282v.908H-8.265V-1.7a.953.953,0,0,0,.171.62.721.721,0,0,0,.584.207,2.843,2.843,0,0,0,.559-.076V0a3.424,3.424,0,0,1-.9.126A1.462,1.462,0,0,1-9.039-.349a2.045,2.045,0,0,1-.4-1.352V-5.96h-1.25v-.908h1.25V-8.531Zm5.973,2.717a3.519,3.519,0,0,0-.578-.044,1.547,1.547,0,0,0-1.568.984V0H-5.611V-6.868h1.143l.019.793A1.829,1.829,0,0,1-2.812-7a1.2,1.2,0,0,1,.521.089ZM-1.65-3.5a4.057,4.057,0,0,1,.4-1.815,2.96,2.96,0,0,1,1.1-1.244A3.007,3.007,0,0,1,1.466-7a2.9,2.9,0,0,1,2.269.971A3.736,3.736,0,0,1,4.6-3.44v.083a4.092,4.092,0,0,1-.384,1.8A2.916,2.916,0,0,1,3.12-.317,3.041,3.041,0,0,1,1.479.127,2.889,2.889,0,0,1-.784-.844,3.718,3.718,0,0,1-1.65-3.415Zm1.181.14A2.938,2.938,0,0,0,.06-1.523a1.7,1.7,0,0,0,1.419.692,1.686,1.686,0,0,0,1.422-.7A3.213,3.213,0,0,0,3.428-3.5a2.933,2.933,0,0,0-.536-1.831,1.705,1.705,0,0,0-1.425-.7,1.686,1.686,0,0,0-1.4.692A3.189,3.189,0,0,0-.47-3.358Zm7.655-3.51L7.224-6A2.5,2.5,0,0,1,9.28-7q2.177,0,2.2,2.457V0H10.3V-4.545a1.581,1.581,0,0,0-.34-1.1A1.361,1.361,0,0,0,8.925-6a1.7,1.7,0,0,0-1,.3,2.069,2.069,0,0,0-.673.8V0H6.075V-6.868Zm8.912,7A3,3,0,0,1,13.825-.79a3.4,3.4,0,0,1-.876-2.453v-.216a4.121,4.121,0,0,1,.39-1.825,3.045,3.045,0,0,1,1.092-1.257A2.745,2.745,0,0,1,15.952-7a2.572,2.572,0,0,1,2.082.882,3.82,3.82,0,0,1,.743,2.526V-3.1H14.124a2.441,2.441,0,0,0,.594,1.641,1.866,1.866,0,0,0,1.444.625,2.045,2.045,0,0,0,1.054-.254,2.648,2.648,0,0,0,.755-.673l.717.559A2.884,2.884,0,0,1,16.1.127ZM15.952-6.03a1.566,1.566,0,0,0-1.193.517,2.515,2.515,0,0,0-.6,1.45H17.6v-.089a2.237,2.237,0,0,0-.482-1.387A1.475,1.475,0,0,0,15.952-6.03Zm8.182,4.208a.864.864,0,0,0-.359-.74,3.452,3.452,0,0,0-1.25-.454,5.912,5.912,0,0,1-1.416-.457,2.014,2.014,0,0,1-.774-.635,1.518,1.518,0,0,1-.251-.876A1.782,1.782,0,0,1,20.8-6.411,2.789,2.789,0,0,1,22.623-7a2.87,2.87,0,0,1,1.895.6,1.915,1.915,0,0,1,.727,1.542H24.064a1.06,1.06,0,0,0-.409-.832,1.534,1.534,0,0,0-1.031-.349,1.606,1.606,0,0,0-1,.279.879.879,0,0,0-.362.73.712.712,0,0,0,.336.641,4.139,4.139,0,0,0,1.216.413,6.334,6.334,0,0,1,1.425.47,2.079,2.079,0,0,1,.809.657,1.615,1.615,0,0,1,.263.936,1.758,1.758,0,0,1-.736,1.476,3.089,3.089,0,0,1-1.911.555A3.459,3.459,0,0,1,21.2-.165a2.375,2.375,0,0,1-.993-.816,1.966,1.966,0,0,1-.359-1.133h1.174a1.216,1.216,0,0,0,.473.936,1.835,1.835,0,0,0,1.165.346,1.894,1.894,0,0,0,1.07-.27A.829.829,0,0,0,24.134-1.822Z" transform="translate(1094 6805.823)" fill="#fff"/>
    <path id="Trazado_664767" data-name="Trazado 664767" d="M-17.486-1.3h5.728V0h-7.33V-12.086h1.6ZM-8.512,0h-1.544V-8.981h1.544ZM-8.5-12.742h1.859L-8.861-10.3l-1.237,0Zm3.968,3.76.05,1.129A3.273,3.273,0,0,1-1.789-9.147q2.847,0,2.872,3.212V0H-.452V-5.943A2.068,2.068,0,0,0-.9-7.379a1.78,1.78,0,0,0-1.357-.465,2.216,2.216,0,0,0-1.312.4A2.706,2.706,0,0,0-4.445-6.4V0H-5.981V-8.981ZM7.126.166a3.924,3.924,0,0,1-2.972-1.2A4.452,4.452,0,0,1,3.009-4.242v-.282A5.39,5.39,0,0,1,3.52-6.91,3.982,3.982,0,0,1,4.947-8.554a3.59,3.59,0,0,1,1.988-.594A3.364,3.364,0,0,1,9.658-7.994a5,5,0,0,1,.971,3.3v.639H4.545a3.193,3.193,0,0,0,.776,2.146,2.44,2.44,0,0,0,1.888.818,2.675,2.675,0,0,0,1.378-.332,3.462,3.462,0,0,0,.988-.88l.938.73A3.772,3.772,0,0,1,7.126.166ZM6.935-7.886a2.048,2.048,0,0,0-1.561.677,3.288,3.288,0,0,0-.78,1.9h4.5v-.116a2.925,2.925,0,0,0-.631-1.814A1.928,1.928,0,0,0,6.935-7.886ZM17.95,0a3.226,3.226,0,0,1-.216-.946A3.426,3.426,0,0,1,15.178.166,3.17,3.17,0,0,1,13-.585a2.43,2.43,0,0,1-.851-1.905,2.539,2.539,0,0,1,1.067-2.179,5.029,5.029,0,0,1,3-.776H17.71v-.706a1.725,1.725,0,0,0-.481-1.282,1.935,1.935,0,0,0-1.419-.477,2.239,2.239,0,0,0-1.378.415,1.223,1.223,0,0,0-.556,1H12.331a2.119,2.119,0,0,1,.477-1.3A3.258,3.258,0,0,1,14.1-8.782a4.356,4.356,0,0,1,1.8-.365,3.551,3.551,0,0,1,2.432.776,2.8,2.8,0,0,1,.913,2.137V-2.1a5.054,5.054,0,0,0,.315,1.967V0ZM15.4-1.17a2.7,2.7,0,0,0,1.37-.374,2.259,2.259,0,0,0,.938-.971V-4.358h-1.2q-2.822,0-2.822,1.652a1.4,1.4,0,0,0,.481,1.129A1.85,1.85,0,0,0,15.4-1.17ZM-21.051,13.913a2.212,2.212,0,0,0,1.436-.5,1.752,1.752,0,0,0,.681-1.245h1.453a2.785,2.785,0,0,1-.531,1.469,3.5,3.5,0,0,1-1.307,1.112,3.772,3.772,0,0,1-1.731.415,3.7,3.7,0,0,1-2.918-1.224,4.877,4.877,0,0,1-1.083-3.349v-.257A5.407,5.407,0,0,1-24.57,8a3.667,3.667,0,0,1,1.382-1.585,3.926,3.926,0,0,1,2.129-.564,3.6,3.6,0,0,1,2.511.9,3.234,3.234,0,0,1,1.067,2.349h-1.453a2.116,2.116,0,0,0-.66-1.432,2.053,2.053,0,0,0-1.465-.56,2.149,2.149,0,0,0-1.814.843,3.957,3.957,0,0,0-.643,2.436v.291a3.878,3.878,0,0,0,.639,2.391A2.16,2.16,0,0,0-21.051,13.913Zm9.023,1.253A3.924,3.924,0,0,1-15,13.967a4.452,4.452,0,0,1-1.146-3.208v-.282a5.39,5.39,0,0,1,.51-2.386,3.982,3.982,0,0,1,1.428-1.644,3.59,3.59,0,0,1,1.988-.594A3.364,3.364,0,0,1-9.5,7.006a5,5,0,0,1,.971,3.3v.639h-6.084a3.193,3.193,0,0,0,.776,2.146,2.44,2.44,0,0,0,1.888.818,2.675,2.675,0,0,0,1.378-.332,3.462,3.462,0,0,0,.988-.88l.938.73A3.772,3.772,0,0,1-12.028,15.166Zm-.191-8.052a2.048,2.048,0,0,0-1.561.677,3.288,3.288,0,0,0-.78,1.9h4.5V9.571a2.925,2.925,0,0,0-.631-1.814A1.928,1.928,0,0,0-12.219,7.114Zm6.923-1.1.05,1.129A3.273,3.273,0,0,1-2.557,5.853q2.847,0,2.872,3.212V15H-1.22V9.057a2.068,2.068,0,0,0-.444-1.436,1.78,1.78,0,0,0-1.357-.465,2.216,2.216,0,0,0-1.312.4A2.706,2.706,0,0,0-5.213,8.6V15H-6.749V6.019ZM4.715,3.844V6.019H6.392V7.206H4.715v5.577a1.247,1.247,0,0,0,.224.81.943.943,0,0,0,.764.27,3.718,3.718,0,0,0,.73-.1V15a4.478,4.478,0,0,1-1.179.165A1.912,1.912,0,0,1,3.7,14.543a2.675,2.675,0,0,1-.523-1.768V7.206H1.544V6.019H3.179V3.844ZM12.526,7.4a4.6,4.6,0,0,0-.755-.058A2.024,2.024,0,0,0,9.72,8.625V15H8.185V6.019H9.679L9.7,7.056a2.391,2.391,0,0,1,2.142-1.2,1.569,1.569,0,0,1,.681.116ZM19.15,15a3.226,3.226,0,0,1-.216-.946,3.426,3.426,0,0,1-2.557,1.112,3.17,3.17,0,0,1-2.179-.751,2.43,2.43,0,0,1-.851-1.905,2.539,2.539,0,0,1,1.067-2.179,5.029,5.029,0,0,1,3-.776h1.494V8.849a1.725,1.725,0,0,0-.481-1.282,1.935,1.935,0,0,0-1.419-.477A2.239,2.239,0,0,0,15.63,7.5a1.223,1.223,0,0,0-.556,1H13.53a2.119,2.119,0,0,1,.477-1.3A3.258,3.258,0,0,1,15.3,6.218a4.356,4.356,0,0,1,1.8-.365,3.551,3.551,0,0,1,2.432.776,2.8,2.8,0,0,1,.913,2.137V12.9a5.054,5.054,0,0,0,.315,1.967V15ZM16.6,13.83a2.7,2.7,0,0,0,1.37-.374,2.259,2.259,0,0,0,.938-.971V10.642h-1.2q-2.822,0-2.822,1.652a1.4,1.4,0,0,0,.481,1.129A1.85,1.85,0,0,0,16.6,13.83ZM24.521,15H22.985V2.25h1.536Z" transform="translate(880 6849.823)" fill="#222b5a" opacity="0.8"/>
    <path id="Trazado_664768" data-name="Trazado 664768" d="M-9.471-3.163h-5.063L-15.672,0h-1.644L-12.7-12.086h1.395L-6.682,0H-8.317Zm-4.582-1.3h4.109L-12-10.119Zm2.839-10.857h1.859l-2.225,2.44-1.237,0ZM-.955-7.6a4.6,4.6,0,0,0-.755-.058A2.024,2.024,0,0,0-3.76-6.375V0H-5.3V-8.981H-3.8l.025,1.038a2.391,2.391,0,0,1,2.142-1.2,1.569,1.569,0,0,1,.681.116ZM4.184.166a3.924,3.924,0,0,1-2.972-1.2A4.452,4.452,0,0,1,.066-4.242v-.282A5.39,5.39,0,0,1,.577-6.91,3.982,3.982,0,0,1,2-8.554a3.59,3.59,0,0,1,1.988-.594A3.364,3.364,0,0,1,6.715-7.994a5,5,0,0,1,.971,3.3v.639H1.6a3.193,3.193,0,0,0,.776,2.146,2.44,2.44,0,0,0,1.888.818,2.675,2.675,0,0,0,1.378-.332,3.462,3.462,0,0,0,.988-.88l.938.73A3.772,3.772,0,0,1,4.184.166ZM3.993-7.886a2.048,2.048,0,0,0-1.561.677,3.288,3.288,0,0,0-.78,1.9h4.5v-.116A2.925,2.925,0,0,0,5.52-7.242,1.928,1.928,0,0,0,3.993-7.886ZM15.008,0a3.226,3.226,0,0,1-.216-.946A3.426,3.426,0,0,1,12.235.166a3.17,3.17,0,0,1-2.179-.751A2.43,2.43,0,0,1,9.206-2.49a2.539,2.539,0,0,1,1.067-2.179,5.029,5.029,0,0,1,3-.776h1.494v-.706a1.725,1.725,0,0,0-.481-1.282,1.935,1.935,0,0,0-1.419-.477,2.239,2.239,0,0,0-1.378.415,1.223,1.223,0,0,0-.556,1H9.388a2.119,2.119,0,0,1,.477-1.3,3.258,3.258,0,0,1,1.295-.992,4.356,4.356,0,0,1,1.8-.365,3.551,3.551,0,0,1,2.432.776A2.8,2.8,0,0,1,16.3-6.234V-2.1a5.054,5.054,0,0,0,.315,1.967V0ZM12.459-1.17a2.7,2.7,0,0,0,1.37-.374,2.259,2.259,0,0,0,.938-.971V-4.358h-1.2q-2.822,0-2.822,1.652a1.4,1.4,0,0,0,.481,1.129A1.85,1.85,0,0,0,12.459-1.17Zm-33.51,15.083a2.212,2.212,0,0,0,1.436-.5,1.752,1.752,0,0,0,.681-1.245h1.453a2.785,2.785,0,0,1-.531,1.469,3.5,3.5,0,0,1-1.307,1.112,3.772,3.772,0,0,1-1.731.415,3.7,3.7,0,0,1-2.918-1.224,4.877,4.877,0,0,1-1.083-3.349v-.257A5.407,5.407,0,0,1-24.57,8a3.667,3.667,0,0,1,1.382-1.585,3.926,3.926,0,0,1,2.129-.564,3.6,3.6,0,0,1,2.511.9,3.234,3.234,0,0,1,1.067,2.349h-1.453a2.116,2.116,0,0,0-.66-1.432,2.053,2.053,0,0,0-1.465-.56,2.149,2.149,0,0,0-1.814.843,3.957,3.957,0,0,0-.643,2.436v.291a3.878,3.878,0,0,0,.639,2.391A2.16,2.16,0,0,0-21.051,13.913Zm9.023,1.253A3.924,3.924,0,0,1-15,13.967a4.452,4.452,0,0,1-1.146-3.208v-.282a5.39,5.39,0,0,1,.51-2.386,3.982,3.982,0,0,1,1.428-1.644,3.59,3.59,0,0,1,1.988-.594A3.364,3.364,0,0,1-9.5,7.006a5,5,0,0,1,.971,3.3v.639h-6.084a3.193,3.193,0,0,0,.776,2.146,2.44,2.44,0,0,0,1.888.818,2.675,2.675,0,0,0,1.378-.332,3.462,3.462,0,0,0,.988-.88l.938.73A3.772,3.772,0,0,1-12.028,15.166Zm-.191-8.052a2.048,2.048,0,0,0-1.561.677,3.288,3.288,0,0,0-.78,1.9h4.5V9.571a2.925,2.925,0,0,0-.631-1.814A1.928,1.928,0,0,0-12.219,7.114Zm6.923-1.1.05,1.129A3.273,3.273,0,0,1-2.557,5.853q2.847,0,2.872,3.212V15H-1.22V9.057a2.068,2.068,0,0,0-.444-1.436,1.78,1.78,0,0,0-1.357-.465,2.216,2.216,0,0,0-1.312.4A2.706,2.706,0,0,0-5.213,8.6V15H-6.749V6.019ZM4.715,3.844V6.019H6.392V7.206H4.715v5.577a1.247,1.247,0,0,0,.224.81.943.943,0,0,0,.764.27,3.718,3.718,0,0,0,.73-.1V15a4.478,4.478,0,0,1-1.179.165A1.912,1.912,0,0,1,3.7,14.543a2.675,2.675,0,0,1-.523-1.768V7.206H1.544V6.019H3.179V3.844ZM12.526,7.4a4.6,4.6,0,0,0-.755-.058A2.024,2.024,0,0,0,9.72,8.625V15H8.185V6.019H9.679L9.7,7.056a2.391,2.391,0,0,1,2.142-1.2,1.569,1.569,0,0,1,.681.116ZM19.15,15a3.226,3.226,0,0,1-.216-.946,3.426,3.426,0,0,1-2.557,1.112,3.17,3.17,0,0,1-2.179-.751,2.43,2.43,0,0,1-.851-1.905,2.539,2.539,0,0,1,1.067-2.179,5.029,5.029,0,0,1,3-.776h1.494V8.849a1.725,1.725,0,0,0-.481-1.282,1.935,1.935,0,0,0-1.419-.477A2.239,2.239,0,0,0,15.63,7.5a1.223,1.223,0,0,0-.556,1H13.53a2.119,2.119,0,0,1,.477-1.3A3.258,3.258,0,0,1,15.3,6.218a4.356,4.356,0,0,1,1.8-.365,3.551,3.551,0,0,1,2.432.776,2.8,2.8,0,0,1,.913,2.137V12.9a5.054,5.054,0,0,0,.315,1.967V15ZM16.6,13.83a2.7,2.7,0,0,0,1.37-.374,2.259,2.259,0,0,0,.938-.971V10.642h-1.2q-2.822,0-2.822,1.652a1.4,1.4,0,0,0,.481,1.129A1.85,1.85,0,0,0,16.6,13.83ZM24.521,15H22.985V2.25h1.536Z" transform="translate(826 6799.823)" fill="#222b5a" opacity="0.8"/>
    <path id="Trazado_664769" data-name="Trazado 664769" d="M-17.125-5.586h-5.238V-1.3h6.084V0h-7.678V-12.086h7.6v1.3h-6V-6.89h5.238Zm7.819,3.2a1.131,1.131,0,0,0-.469-.967,4.514,4.514,0,0,0-1.635-.594,7.731,7.731,0,0,1-1.851-.6,2.633,2.633,0,0,1-1.013-.83A1.986,1.986,0,0,1-14.6-6.516a2.33,2.33,0,0,1,.934-1.868,3.647,3.647,0,0,1,2.386-.764A3.753,3.753,0,0,1-8.8-8.359a2.5,2.5,0,0,1,.95,2.017H-9.4a1.386,1.386,0,0,0-.535-1.087,2.006,2.006,0,0,0-1.349-.457,2.1,2.1,0,0,0-1.312.365,1.15,1.15,0,0,0-.473.955.932.932,0,0,0,.44.838,5.413,5.413,0,0,0,1.59.54,8.283,8.283,0,0,1,1.864.614,2.718,2.718,0,0,1,1.058.859A2.112,2.112,0,0,1-7.77-2.49,2.3,2.3,0,0,1-8.732-.56a4.039,4.039,0,0,1-2.5.726A4.523,4.523,0,0,1-13.14-.216a3.105,3.105,0,0,1-1.3-1.067,2.571,2.571,0,0,1-.469-1.482h1.536a1.59,1.59,0,0,0,.618,1.224,2.4,2.4,0,0,0,1.523.452,2.476,2.476,0,0,0,1.4-.353A1.084,1.084,0,0,0-9.305-2.382ZM1.818-4.391a5.378,5.378,0,0,1-.938,3.3A3.006,3.006,0,0,1-1.66.166,3.294,3.294,0,0,1-4.233-.872V3.453H-5.769V-8.981h1.4l.075,1A3.163,3.163,0,0,1-1.685-9.147,3.063,3.063,0,0,1,.876-7.927a5.437,5.437,0,0,1,.942,3.4ZM.282-4.565a3.968,3.968,0,0,0-.647-2.4,2.086,2.086,0,0,0-1.776-.88A2.257,2.257,0,0,0-4.233-6.607v4.292A2.262,2.262,0,0,0-2.125-1.087,2.076,2.076,0,0,0-.369-1.963,4.332,4.332,0,0,0,.282-4.565ZM5.437,0H3.9V-8.981H5.437ZM3.777-11.364a.917.917,0,0,1,.228-.631.857.857,0,0,1,.677-.257.87.87,0,0,1,.681.257.907.907,0,0,1,.232.631.877.877,0,0,1-.232.623.886.886,0,0,1-.681.249.872.872,0,0,1-.677-.249A.886.886,0,0,1,3.777-11.364Zm5.57,2.382L9.4-7.853a3.273,3.273,0,0,1,2.689-1.295q2.847,0,2.872,3.212V0H13.422V-5.943a2.068,2.068,0,0,0-.444-1.436,1.78,1.78,0,0,0-1.357-.465,2.216,2.216,0,0,0-1.312.4A2.706,2.706,0,0,0,9.43-6.4V0H7.894V-8.981ZM22.819,0A3.226,3.226,0,0,1,22.6-.946,3.426,3.426,0,0,1,20.046.166a3.17,3.17,0,0,1-2.179-.751,2.43,2.43,0,0,1-.851-1.905,2.539,2.539,0,0,1,1.067-2.179,5.029,5.029,0,0,1,3-.776h1.494v-.706A1.725,1.725,0,0,0,22.1-7.433a1.935,1.935,0,0,0-1.419-.477A2.239,2.239,0,0,0,19.3-7.5a1.223,1.223,0,0,0-.556,1H17.2a2.119,2.119,0,0,1,.477-1.3,3.258,3.258,0,0,1,1.295-.992,4.356,4.356,0,0,1,1.8-.365,3.551,3.551,0,0,1,2.432.776,2.8,2.8,0,0,1,.913,2.137V-2.1a5.054,5.054,0,0,0,.315,1.967V0ZM20.271-1.17a2.7,2.7,0,0,0,1.37-.374,2.259,2.259,0,0,0,.938-.971V-4.358h-1.2q-2.822,0-2.822,1.652a1.4,1.4,0,0,0,.481,1.129A1.85,1.85,0,0,0,20.271-1.17ZM-21.051,13.913a2.212,2.212,0,0,0,1.436-.5,1.752,1.752,0,0,0,.681-1.245h1.453a2.785,2.785,0,0,1-.531,1.469,3.5,3.5,0,0,1-1.307,1.112,3.772,3.772,0,0,1-1.731.415,3.7,3.7,0,0,1-2.918-1.224,4.877,4.877,0,0,1-1.083-3.349v-.257A5.407,5.407,0,0,1-24.57,8a3.667,3.667,0,0,1,1.382-1.585,3.926,3.926,0,0,1,2.129-.564,3.6,3.6,0,0,1,2.511.9,3.234,3.234,0,0,1,1.067,2.349h-1.453a2.116,2.116,0,0,0-.66-1.432,2.053,2.053,0,0,0-1.465-.56,2.149,2.149,0,0,0-1.814.843,3.957,3.957,0,0,0-.643,2.436v.291a3.878,3.878,0,0,0,.639,2.391A2.16,2.16,0,0,0-21.051,13.913Zm9.023,1.253A3.924,3.924,0,0,1-15,13.967a4.452,4.452,0,0,1-1.146-3.208v-.282a5.39,5.39,0,0,1,.51-2.386,3.982,3.982,0,0,1,1.428-1.644,3.59,3.59,0,0,1,1.988-.594A3.364,3.364,0,0,1-9.5,7.006a5,5,0,0,1,.971,3.3v.639h-6.084a3.193,3.193,0,0,0,.776,2.146,2.44,2.44,0,0,0,1.888.818,2.675,2.675,0,0,0,1.378-.332,3.462,3.462,0,0,0,.988-.88l.938.73A3.772,3.772,0,0,1-12.028,15.166Zm-.191-8.052a2.048,2.048,0,0,0-1.561.677,3.288,3.288,0,0,0-.78,1.9h4.5V9.571a2.925,2.925,0,0,0-.631-1.814A1.928,1.928,0,0,0-12.219,7.114Zm6.923-1.1.05,1.129A3.273,3.273,0,0,1-2.557,5.853q2.847,0,2.872,3.212V15H-1.22V9.057a2.068,2.068,0,0,0-.444-1.436,1.78,1.78,0,0,0-1.357-.465,2.216,2.216,0,0,0-1.312.4A2.706,2.706,0,0,0-5.213,8.6V15H-6.749V6.019ZM4.715,3.844V6.019H6.392V7.206H4.715v5.577a1.247,1.247,0,0,0,.224.81.943.943,0,0,0,.764.27,3.718,3.718,0,0,0,.73-.1V15a4.478,4.478,0,0,1-1.179.165A1.912,1.912,0,0,1,3.7,14.543a2.675,2.675,0,0,1-.523-1.768V7.206H1.544V6.019H3.179V3.844ZM12.526,7.4a4.6,4.6,0,0,0-.755-.058A2.024,2.024,0,0,0,9.72,8.625V15H8.185V6.019H9.679L9.7,7.056a2.391,2.391,0,0,1,2.142-1.2,1.569,1.569,0,0,1,.681.116ZM19.15,15a3.226,3.226,0,0,1-.216-.946,3.426,3.426,0,0,1-2.557,1.112,3.17,3.17,0,0,1-2.179-.751,2.43,2.43,0,0,1-.851-1.905,2.539,2.539,0,0,1,1.067-2.179,5.029,5.029,0,0,1,3-.776h1.494V8.849a1.725,1.725,0,0,0-.481-1.282,1.935,1.935,0,0,0-1.419-.477A2.239,2.239,0,0,0,15.63,7.5a1.223,1.223,0,0,0-.556,1H13.53a2.119,2.119,0,0,1,.477-1.3A3.258,3.258,0,0,1,15.3,6.218a4.356,4.356,0,0,1,1.8-.365,3.551,3.551,0,0,1,2.432.776,2.8,2.8,0,0,1,.913,2.137V12.9a5.054,5.054,0,0,0,.315,1.967V15ZM16.6,13.83a2.7,2.7,0,0,0,1.37-.374,2.259,2.259,0,0,0,.938-.971V10.642h-1.2q-2.822,0-2.822,1.652a1.4,1.4,0,0,0,.481,1.129A1.85,1.85,0,0,0,16.6,13.83ZM24.521,15H22.985V2.25h1.536Z" transform="translate(985 6849.823)" fill="#222b5a" opacity="0.8"/>
    <path id="Trazado_664770" data-name="Trazado 664770" d="M0,0,36.312,57.334" transform="translate(907.979 6813.445)" fill="none" stroke="#222b5a" stroke-width="2"/>
    <path id="Trazado_664771" data-name="Trazado 664771" d="M0,0,36.312,57.334" transform="translate(999.714 6813.445)" fill="none" stroke="#222b5a" stroke-width="2"/>
    <path id="Trazado_664772" data-name="Trazado 664772" d="M0,0,34.4,57.334" transform="translate(1091.448 6813.445)" fill="none" stroke="#222b5a" stroke-width="2"/>
    <path id="Trazado_663046" data-name="Trazado 663046" d="M44.253,4.3,0,78.26" transform="translate(881.223 6897.632)" fill="none" stroke="#222b5a" stroke-width="2"/>
    <path id="Trazado_664773" data-name="Trazado 664773" d="M45.867,0,0,72.623" transform="translate(1026.47 6903.269)" fill="none" stroke="#222b5a" stroke-width="2"/>
    <path id="Trazado_664774" data-name="Trazado 664774" d="M7.645,0l7.645,13.378H0Z" transform="matrix(-0.848, 0.53, -0.53, -0.848, 1138.743, 6876.224)" fill="#222b5a"/>
    <path id="Trazado_664775" data-name="Trazado 664775" d="M7.645,0l7.645,13.378H0Z" transform="matrix(-0.848, 0.53, -0.53, -0.848, 1048.92, 6876.224)" fill="#222b5a"/>
    <path id="Trazado_664776" data-name="Trazado 664776" d="M7.645,0l7.645,13.378H0Z" transform="matrix(-0.848, 0.53, -0.53, -0.848, 957.185, 6876.224)" fill="#222b5a"/>
    <path id="Trazado_664777" data-name="Trazado 664777" d="M7.645,0l7.645,13.378H0Z" transform="matrix(0.899, 0.438, -0.438, 0.899, 924.108, 6888.172)" fill="#222b5a"/>
    <path id="Trazado_664778" data-name="Trazado 664778" d="M7.645,0l7.645,13.378H0Z" transform="matrix(0.899, 0.438, -0.438, 0.899, 1071.265, 6888.172)" fill="#222b5a"/>
  </g>
</svg>
