<svg xmlns="http://www.w3.org/2000/svg" width="715" height="402" viewBox="0 0 715 402">
  <g id="Grupo_898337" data-name="Grupo 898337" transform="translate(-650 -4742.823)">
    <rect id="Rectángulo_295171" data-name="Rectángulo 295171" width="715" height="402" rx="17" transform="translate(650 4742.823)" fill="#fff"/>
    <g id="Grupo_896359" data-name="Grupo 896359" transform="translate(9 -177.178)">
      <g id="Grupo_896358" data-name="Grupo 896358" transform="translate(185 11348)">
        <rect id="Rectángulo_297225" data-name="Rectángulo 297225" width="456" height="335" transform="translate(595 -6389)" fill="#dedede" opacity="0.5"/>
        <g id="Rectángulo_297134" data-name="Rectángulo 297134" transform="translate(606 -6318)" fill="#1c2a5c" stroke="#707070" stroke-width="1" opacity="0.51">
          <rect width="424" height="31" stroke="none"/>
          <rect x="0.5" y="0.5" width="423" height="30" fill="none"/>
        </g>
        <g id="Rectángulo_297170" data-name="Rectángulo 297170" transform="translate(721 -6287)" fill="#fcff9c" stroke="#707070" stroke-width="1" opacity="0.51">
          <rect width="79" height="31" stroke="none"/>
          <rect x="0.5" y="0.5" width="78" height="30" fill="none"/>
        </g>
        <g id="Rectángulo_297188" data-name="Rectángulo 297188" transform="translate(800 -6287)" fill="#dcffd0" stroke="#707070" stroke-width="1" opacity="0.51">
          <rect width="76" height="31" stroke="none"/>
          <rect x="0.5" y="0.5" width="75" height="30" fill="none"/>
        </g>
        <g id="Rectángulo_297206" data-name="Rectángulo 297206" transform="translate(876 -6287)" fill="#e798cb" stroke="#707070" stroke-width="1" opacity="0.51">
          <rect width="79" height="31" stroke="none"/>
          <rect x="0.5" y="0.5" width="78" height="30" fill="none"/>
        </g>
        <g id="Rectángulo_297224" data-name="Rectángulo 297224" transform="translate(955 -6287)" fill="#eecb98" stroke="#707070" stroke-width="1" opacity="0.51">
          <rect width="75" height="31" stroke="none"/>
          <rect x="0.5" y="0.5" width="74" height="30" fill="none"/>
        </g>
        <g id="Rectángulo_297169" data-name="Rectángulo 297169" transform="translate(721 -6257)" fill="#f6f8c5" stroke="#707070" stroke-width="1" opacity="0.51">
          <rect width="79" height="13" stroke="none"/>
          <rect x="0.5" y="0.5" width="78" height="12" fill="none"/>
        </g>
        <g id="Rectángulo_297187" data-name="Rectángulo 297187" transform="translate(800 -6257)" fill="#dcffd0" stroke="#707070" stroke-width="1" opacity="0.51">
          <rect width="76" height="13" stroke="none"/>
          <rect x="0.5" y="0.5" width="75" height="12" fill="none"/>
        </g>
        <g id="Rectángulo_297205" data-name="Rectángulo 297205" transform="translate(876 -6257)" fill="#e798cb" stroke="#707070" stroke-width="1" opacity="0.51">
          <rect width="79" height="13" stroke="none"/>
          <rect x="0.5" y="0.5" width="78" height="12" fill="none"/>
        </g>
        <g id="Rectángulo_297223" data-name="Rectángulo 297223" transform="translate(955 -6257)" fill="#eecb98" stroke="#707070" stroke-width="1" opacity="0.51">
          <rect width="75" height="13" stroke="none"/>
          <rect x="0.5" y="0.5" width="74" height="12" fill="none"/>
        </g>
        <g id="Rectángulo_297168" data-name="Rectángulo 297168" transform="translate(721 -6245)" fill="#f6f8c5" stroke="#707070" stroke-width="1" opacity="0.51">
          <rect width="79" height="13" stroke="none"/>
          <rect x="0.5" y="0.5" width="78" height="12" fill="none"/>
        </g>
        <g id="Rectángulo_297186" data-name="Rectángulo 297186" transform="translate(800 -6245)" fill="#dcffd0" stroke="#707070" stroke-width="1" opacity="0.51">
          <rect width="76" height="13" stroke="none"/>
          <rect x="0.5" y="0.5" width="75" height="12" fill="none"/>
        </g>
        <g id="Rectángulo_297204" data-name="Rectángulo 297204" transform="translate(876 -6245)" fill="#e798cb" stroke="#707070" stroke-width="1" opacity="0.51">
          <rect width="79" height="13" stroke="none"/>
          <rect x="0.5" y="0.5" width="78" height="12" fill="none"/>
        </g>
        <g id="Rectángulo_297222" data-name="Rectángulo 297222" transform="translate(955 -6245)" fill="#eecb98" stroke="#707070" stroke-width="1" opacity="0.51">
          <rect width="75" height="13" stroke="none"/>
          <rect x="0.5" y="0.5" width="74" height="12" fill="none"/>
        </g>
        <g id="Rectángulo_297164" data-name="Rectángulo 297164" transform="translate(721 -6233)" fill="#f6f8c5" stroke="#707070" stroke-width="1" opacity="0.51">
          <rect width="79" height="15" stroke="none"/>
          <rect x="0.5" y="0.5" width="78" height="14" fill="none"/>
        </g>
        <g id="Rectángulo_297182" data-name="Rectángulo 297182" transform="translate(800 -6233)" fill="#dcffd0" stroke="#707070" stroke-width="1" opacity="0.51">
          <rect width="76" height="15" stroke="none"/>
          <rect x="0.5" y="0.5" width="75" height="14" fill="none"/>
        </g>
        <g id="Rectángulo_297200" data-name="Rectángulo 297200" transform="translate(876 -6233)" fill="#e798cb" stroke="#707070" stroke-width="1" opacity="0.51">
          <rect width="79" height="15" stroke="none"/>
          <rect x="0.5" y="0.5" width="78" height="14" fill="none"/>
        </g>
        <g id="Rectángulo_297218" data-name="Rectángulo 297218" transform="translate(955 -6233)" fill="#eecb98" stroke="#707070" stroke-width="1" opacity="0.51">
          <rect width="75" height="15" stroke="none"/>
          <rect x="0.5" y="0.5" width="74" height="14" fill="none"/>
        </g>
        <g id="Rectángulo_297165" data-name="Rectángulo 297165" transform="translate(721 -6219)" fill="#f6f8c5" stroke="#707070" stroke-width="1" opacity="0.51">
          <rect width="79" height="15" stroke="none"/>
          <rect x="0.5" y="0.5" width="78" height="14" fill="none"/>
        </g>
        <g id="Rectángulo_297183" data-name="Rectángulo 297183" transform="translate(800 -6219)" fill="#dcffd0" stroke="#707070" stroke-width="1" opacity="0.51">
          <rect width="76" height="15" stroke="none"/>
          <rect x="0.5" y="0.5" width="75" height="14" fill="none"/>
        </g>
        <g id="Rectángulo_297201" data-name="Rectángulo 297201" transform="translate(876 -6219)" fill="#e798cb" stroke="#707070" stroke-width="1" opacity="0.51">
          <rect width="79" height="15" stroke="none"/>
          <rect x="0.5" y="0.5" width="78" height="14" fill="none"/>
        </g>
        <g id="Rectángulo_297219" data-name="Rectángulo 297219" transform="translate(955 -6219)" fill="#eecb98" stroke="#707070" stroke-width="1" opacity="0.51">
          <rect width="75" height="15" stroke="none"/>
          <rect x="0.5" y="0.5" width="74" height="14" fill="none"/>
        </g>
        <g id="Rectángulo_297166" data-name="Rectángulo 297166" transform="translate(721 -6205)" fill="#f6f8c5" stroke="#707070" stroke-width="1" opacity="0.51">
          <rect width="79" height="13" stroke="none"/>
          <rect x="0.5" y="0.5" width="78" height="12" fill="none"/>
        </g>
        <g id="Rectángulo_297184" data-name="Rectángulo 297184" transform="translate(800 -6205)" fill="#dcffd0" stroke="#707070" stroke-width="1" opacity="0.51">
          <rect width="76" height="13" stroke="none"/>
          <rect x="0.5" y="0.5" width="75" height="12" fill="none"/>
        </g>
        <g id="Rectángulo_297202" data-name="Rectángulo 297202" transform="translate(876 -6205)" fill="#e798cb" stroke="#707070" stroke-width="1" opacity="0.51">
          <rect width="79" height="13" stroke="none"/>
          <rect x="0.5" y="0.5" width="78" height="12" fill="none"/>
        </g>
        <g id="Rectángulo_297220" data-name="Rectángulo 297220" transform="translate(955 -6205)" fill="#eecb98" stroke="#707070" stroke-width="1" opacity="0.51">
          <rect width="75" height="13" stroke="none"/>
          <rect x="0.5" y="0.5" width="74" height="12" fill="none"/>
        </g>
        <g id="Rectángulo_297167" data-name="Rectángulo 297167" transform="translate(721 -6193)" fill="#f6f8c5" stroke="#707070" stroke-width="1" opacity="0.51">
          <rect width="79" height="13" stroke="none"/>
          <rect x="0.5" y="0.5" width="78" height="12" fill="none"/>
        </g>
        <g id="Rectángulo_297185" data-name="Rectángulo 297185" transform="translate(800 -6193)" fill="#dcffd0" stroke="#707070" stroke-width="1" opacity="0.51">
          <rect width="76" height="13" stroke="none"/>
          <rect x="0.5" y="0.5" width="75" height="12" fill="none"/>
        </g>
        <g id="Rectángulo_297203" data-name="Rectángulo 297203" transform="translate(876 -6193)" fill="#e798cb" stroke="#707070" stroke-width="1" opacity="0.51">
          <rect width="79" height="13" stroke="none"/>
          <rect x="0.5" y="0.5" width="78" height="12" fill="none"/>
        </g>
        <g id="Rectángulo_297221" data-name="Rectángulo 297221" transform="translate(955 -6193)" fill="#eecb98" stroke="#707070" stroke-width="1" opacity="0.51">
          <rect width="75" height="13" stroke="none"/>
          <rect x="0.5" y="0.5" width="74" height="12" fill="none"/>
        </g>
        <g id="Rectángulo_297158" data-name="Rectángulo 297158" transform="translate(721 -6181)" fill="#f6f8c5" stroke="#707070" stroke-width="1" opacity="0.51">
          <rect width="79" height="14" stroke="none"/>
          <rect x="0.5" y="0.5" width="78" height="13" fill="none"/>
        </g>
        <g id="Rectángulo_297176" data-name="Rectángulo 297176" transform="translate(800 -6181)" fill="#dcffd0" stroke="#707070" stroke-width="1" opacity="0.51">
          <rect width="76" height="14" stroke="none"/>
          <rect x="0.5" y="0.5" width="75" height="13" fill="none"/>
        </g>
        <g id="Rectángulo_297194" data-name="Rectángulo 297194" transform="translate(876 -6181)" fill="#e798cb" stroke="#707070" stroke-width="1" opacity="0.51">
          <rect width="79" height="14" stroke="none"/>
          <rect x="0.5" y="0.5" width="78" height="13" fill="none"/>
        </g>
        <g id="Rectángulo_297212" data-name="Rectángulo 297212" transform="translate(955 -6181)" fill="#eecb98" stroke="#707070" stroke-width="1" opacity="0.51">
          <rect width="75" height="14" stroke="none"/>
          <rect x="0.5" y="0.5" width="74" height="13" fill="none"/>
        </g>
        <g id="Rectángulo_297159" data-name="Rectángulo 297159" transform="translate(721 -6168)" fill="#f6f8c5" stroke="#707070" stroke-width="1" opacity="0.51">
          <rect width="79" height="14" stroke="none"/>
          <rect x="0.5" y="0.5" width="78" height="13" fill="none"/>
        </g>
        <g id="Rectángulo_297177" data-name="Rectángulo 297177" transform="translate(800 -6168)" fill="#dcffd0" stroke="#707070" stroke-width="1" opacity="0.51">
          <rect width="76" height="14" stroke="none"/>
          <rect x="0.5" y="0.5" width="75" height="13" fill="none"/>
        </g>
        <g id="Rectángulo_297195" data-name="Rectángulo 297195" transform="translate(876 -6168)" fill="#e798cb" stroke="#707070" stroke-width="1" opacity="0.51">
          <rect width="79" height="14" stroke="none"/>
          <rect x="0.5" y="0.5" width="78" height="13" fill="none"/>
        </g>
        <g id="Rectángulo_297213" data-name="Rectángulo 297213" transform="translate(955 -6168)" fill="#eecb98" stroke="#707070" stroke-width="1" opacity="0.51">
          <rect width="75" height="14" stroke="none"/>
          <rect x="0.5" y="0.5" width="74" height="13" fill="none"/>
        </g>
        <g id="Rectángulo_297161" data-name="Rectángulo 297161" transform="translate(721 -6155)" fill="#fff" stroke="#b5b3b3" stroke-width="1" opacity="0.51">
          <rect width="79" height="10" stroke="none"/>
          <rect x="0.5" y="0.5" width="78" height="9" fill="none"/>
        </g>
        <g id="Rectángulo_297179" data-name="Rectángulo 297179" transform="translate(800 -6155)" fill="#fff" stroke="#b5b3b3" stroke-width="1" opacity="0.51">
          <rect width="76" height="10" stroke="none"/>
          <rect x="0.5" y="0.5" width="75" height="9" fill="none"/>
        </g>
        <g id="Rectángulo_297197" data-name="Rectángulo 297197" transform="translate(876 -6155)" fill="#fff" stroke="#b5b3b3" stroke-width="1" opacity="0.51">
          <rect width="79" height="10" stroke="none"/>
          <rect x="0.5" y="0.5" width="78" height="9" fill="none"/>
        </g>
        <g id="Rectángulo_297215" data-name="Rectángulo 297215" transform="translate(955 -6155)" fill="#fff" stroke="#b5b3b3" stroke-width="1" opacity="0.51">
          <rect width="75" height="10" stroke="none"/>
          <rect x="0.5" y="0.5" width="74" height="9" fill="none"/>
        </g>
        <g id="Rectángulo_297162" data-name="Rectángulo 297162" transform="translate(721 -6145)" fill="#fff" stroke="#b5b3b3" stroke-width="1" opacity="0.51">
          <rect width="79" height="10" stroke="none"/>
          <rect x="0.5" y="0.5" width="78" height="9" fill="none"/>
        </g>
        <g id="Rectángulo_297180" data-name="Rectángulo 297180" transform="translate(800 -6145)" fill="#fff" stroke="#b5b3b3" stroke-width="1" opacity="0.51">
          <rect width="76" height="10" stroke="none"/>
          <rect x="0.5" y="0.5" width="75" height="9" fill="none"/>
        </g>
        <g id="Rectángulo_297198" data-name="Rectángulo 297198" transform="translate(876 -6145)" fill="#fff" stroke="#b5b3b3" stroke-width="1" opacity="0.51">
          <rect width="79" height="10" stroke="none"/>
          <rect x="0.5" y="0.5" width="78" height="9" fill="none"/>
        </g>
        <g id="Rectángulo_297216" data-name="Rectángulo 297216" transform="translate(955 -6145)" fill="#fff" stroke="#b5b3b3" stroke-width="1" opacity="0.51">
          <rect width="75" height="10" stroke="none"/>
          <rect x="0.5" y="0.5" width="74" height="9" fill="none"/>
        </g>
        <g id="Rectángulo_297153" data-name="Rectángulo 297153" transform="translate(721 -6117)" fill="#fff" stroke="#b5b3b3" stroke-width="1" opacity="0.51">
          <rect width="79" height="10" stroke="none"/>
          <rect x="0.5" y="0.5" width="78" height="9" fill="none"/>
        </g>
        <g id="Rectángulo_297171" data-name="Rectángulo 297171" transform="translate(800 -6117)" fill="#fff" stroke="#b5b3b3" stroke-width="1" opacity="0.51">
          <rect width="76" height="10" stroke="none"/>
          <rect x="0.5" y="0.5" width="75" height="9" fill="none"/>
        </g>
        <g id="Rectángulo_297189" data-name="Rectángulo 297189" transform="translate(876 -6117)" fill="#fff" stroke="#b5b3b3" stroke-width="1" opacity="0.51">
          <rect width="79" height="10" stroke="none"/>
          <rect x="0.5" y="0.5" width="78" height="9" fill="none"/>
        </g>
        <g id="Rectángulo_297207" data-name="Rectángulo 297207" transform="translate(955 -6117)" fill="#fff" stroke="#b5b3b3" stroke-width="1" opacity="0.51">
          <rect width="75" height="10" stroke="none"/>
          <rect x="0.5" y="0.5" width="74" height="9" fill="none"/>
        </g>
        <g id="Rectángulo_297163" data-name="Rectángulo 297163" transform="translate(721 -6135)" fill="#fff" stroke="#b5b3b3" stroke-width="1" opacity="0.51">
          <rect width="79" height="10" stroke="none"/>
          <rect x="0.5" y="0.5" width="78" height="9" fill="none"/>
        </g>
        <g id="Rectángulo_297181" data-name="Rectángulo 297181" transform="translate(800 -6135)" fill="#fff" stroke="#b5b3b3" stroke-width="1" opacity="0.51">
          <rect width="76" height="10" stroke="none"/>
          <rect x="0.5" y="0.5" width="75" height="9" fill="none"/>
        </g>
        <g id="Rectángulo_297199" data-name="Rectángulo 297199" transform="translate(876 -6135)" fill="#fff" stroke="#b5b3b3" stroke-width="1" opacity="0.51">
          <rect width="79" height="10" stroke="none"/>
          <rect x="0.5" y="0.5" width="78" height="9" fill="none"/>
        </g>
        <g id="Rectángulo_297217" data-name="Rectángulo 297217" transform="translate(955 -6135)" fill="#fff" stroke="#b5b3b3" stroke-width="1" opacity="0.51">
          <rect width="75" height="10" stroke="none"/>
          <rect x="0.5" y="0.5" width="74" height="9" fill="none"/>
        </g>
        <g id="Rectángulo_297154" data-name="Rectángulo 297154" transform="translate(721 -6108)" fill="#fff" stroke="#b5b3b3" stroke-width="1" opacity="0.51">
          <rect width="79" height="10" stroke="none"/>
          <rect x="0.5" y="0.5" width="78" height="9" fill="none"/>
        </g>
        <g id="Rectángulo_297172" data-name="Rectángulo 297172" transform="translate(800 -6108)" fill="#fff" stroke="#b5b3b3" stroke-width="1" opacity="0.51">
          <rect width="76" height="10" stroke="none"/>
          <rect x="0.5" y="0.5" width="75" height="9" fill="none"/>
        </g>
        <g id="Rectángulo_297190" data-name="Rectángulo 297190" transform="translate(876 -6108)" fill="#fff" stroke="#b5b3b3" stroke-width="1" opacity="0.51">
          <rect width="79" height="10" stroke="none"/>
          <rect x="0.5" y="0.5" width="78" height="9" fill="none"/>
        </g>
        <g id="Rectángulo_297208" data-name="Rectángulo 297208" transform="translate(955 -6108)" fill="#fff" stroke="#b5b3b3" stroke-width="1" opacity="0.51">
          <rect width="75" height="10" stroke="none"/>
          <rect x="0.5" y="0.5" width="74" height="9" fill="none"/>
        </g>
        <g id="Rectángulo_297155" data-name="Rectángulo 297155" transform="translate(721 -6126)" fill="#fff" stroke="#b5b3b3" stroke-width="1" opacity="0.51">
          <rect width="79" height="10" stroke="none"/>
          <rect x="0.5" y="0.5" width="78" height="9" fill="none"/>
        </g>
        <g id="Rectángulo_297173" data-name="Rectángulo 297173" transform="translate(800 -6126)" fill="#fff" stroke="#b5b3b3" stroke-width="1" opacity="0.51">
          <rect width="76" height="10" stroke="none"/>
          <rect x="0.5" y="0.5" width="75" height="9" fill="none"/>
        </g>
        <g id="Rectángulo_297191" data-name="Rectángulo 297191" transform="translate(876 -6126)" fill="#fff" stroke="#b5b3b3" stroke-width="1" opacity="0.51">
          <rect width="79" height="10" stroke="none"/>
          <rect x="0.5" y="0.5" width="78" height="9" fill="none"/>
        </g>
        <g id="Rectángulo_297209" data-name="Rectángulo 297209" transform="translate(955 -6126)" fill="#fff" stroke="#b5b3b3" stroke-width="1" opacity="0.51">
          <rect width="75" height="10" stroke="none"/>
          <rect x="0.5" y="0.5" width="74" height="9" fill="none"/>
        </g>
        <g id="Rectángulo_297156" data-name="Rectángulo 297156" transform="translate(721 -6099)" fill="#fff" stroke="#b5b3b3" stroke-width="1" opacity="0.51">
          <rect width="79" height="10" stroke="none"/>
          <rect x="0.5" y="0.5" width="78" height="9" fill="none"/>
        </g>
        <g id="Rectángulo_297174" data-name="Rectángulo 297174" transform="translate(800 -6099)" fill="#fff" stroke="#b5b3b3" stroke-width="1" opacity="0.51">
          <rect width="76" height="10" stroke="none"/>
          <rect x="0.5" y="0.5" width="75" height="9" fill="none"/>
        </g>
        <g id="Rectángulo_297192" data-name="Rectángulo 297192" transform="translate(876 -6099)" fill="#fff" stroke="#b5b3b3" stroke-width="1" opacity="0.51">
          <rect width="79" height="10" stroke="none"/>
          <rect x="0.5" y="0.5" width="78" height="9" fill="none"/>
        </g>
        <g id="Rectángulo_297210" data-name="Rectángulo 297210" transform="translate(955 -6099)" fill="#fff" stroke="#b5b3b3" stroke-width="1" opacity="0.51">
          <rect width="75" height="10" stroke="none"/>
          <rect x="0.5" y="0.5" width="74" height="9" fill="none"/>
        </g>
        <g id="Rectángulo_297157" data-name="Rectángulo 297157" transform="translate(721 -6090)" fill="#fff" stroke="#b5b3b3" stroke-width="1" opacity="0.51">
          <rect width="79" height="10" stroke="none"/>
          <rect x="0.5" y="0.5" width="78" height="9" fill="none"/>
        </g>
        <g id="Rectángulo_297175" data-name="Rectángulo 297175" transform="translate(800 -6090)" fill="#fff" stroke="#b5b3b3" stroke-width="1" opacity="0.51">
          <rect width="76" height="10" stroke="none"/>
          <rect x="0.5" y="0.5" width="75" height="9" fill="none"/>
        </g>
        <g id="Rectángulo_297193" data-name="Rectángulo 297193" transform="translate(876 -6090)" fill="#fff" stroke="#b5b3b3" stroke-width="1" opacity="0.51">
          <rect width="79" height="10" stroke="none"/>
          <rect x="0.5" y="0.5" width="78" height="9" fill="none"/>
        </g>
        <g id="Rectángulo_297211" data-name="Rectángulo 297211" transform="translate(955 -6090)" fill="#fff" stroke="#b5b3b3" stroke-width="1" opacity="0.51">
          <rect width="75" height="10" stroke="none"/>
          <rect x="0.5" y="0.5" width="74" height="9" fill="none"/>
        </g>
        <rect id="Rectángulo_297226" data-name="Rectángulo 297226" width="13" height="15" transform="translate(1038 -6389)" fill="#bdbdbd"/>
        <rect id="Rectángulo_297227" data-name="Rectángulo 297227" width="444" height="15" transform="translate(595 -6389)" fill="#130077"/>
        <rect id="Rectángulo_297228" data-name="Rectángulo 297228" width="12" height="11" transform="translate(1011 -6373)" fill="#bdbdbd"/>
        <rect id="Rectángulo_297229" data-name="Rectángulo 297229" width="14" height="11" transform="translate(1024 -6373)" fill="#bdbdbd"/>
        <rect id="Rectángulo_297230" data-name="Rectángulo 297230" width="12" height="11" transform="translate(1039 -6373)" fill="#bdbdbd"/>
        <g id="Rectángulo_297231" data-name="Rectángulo 297231" transform="translate(595 -6349)" fill="#fff" stroke="#707070" stroke-width="1">
          <rect width="98" height="16" stroke="none"/>
          <rect x="0.5" y="0.5" width="97" height="15" fill="none"/>
        </g>
        <g id="Rectángulo_297232" data-name="Rectángulo 297232" transform="translate(674 -6349)" fill="#fff" stroke="#707070" stroke-width="1">
          <rect width="19" height="16" stroke="none"/>
          <rect x="0.5" y="0.5" width="18" height="15" fill="none"/>
        </g>
        <g id="Rectángulo_297233" data-name="Rectángulo 297233" transform="translate(595 -6338)" fill="#fff" stroke="#707070" stroke-width="1">
          <rect width="98" height="14" stroke="none"/>
          <rect x="0.5" y="0.5" width="97" height="13" fill="none"/>
        </g>
        <g id="Rectángulo_297234" data-name="Rectángulo 297234" transform="translate(674 -6338)" fill="#fff" stroke="#707070" stroke-width="1">
          <rect width="19" height="14" stroke="none"/>
          <rect x="0.5" y="0.5" width="18" height="13" fill="none"/>
        </g>
        <g id="Rectángulo_297235" data-name="Rectángulo 297235" transform="translate(693 -6338)" fill="#fff" stroke="#707070" stroke-width="1">
          <rect width="353" height="14" stroke="none"/>
          <rect x="0.5" y="0.5" width="352" height="13" fill="none"/>
        </g>
        <g id="Rectángulo_297236" data-name="Rectángulo 297236" transform="translate(693 -6349)" fill="#fff" stroke="#707070" stroke-width="1">
          <rect width="278" height="12" stroke="none"/>
          <rect x="0.5" y="0.5" width="277" height="11" fill="none"/>
        </g>
        <g id="Rectángulo_297237" data-name="Rectángulo 297237" transform="translate(595 -6362)" fill="#fff" stroke="#707070" stroke-width="1">
          <rect width="344" height="13" stroke="none"/>
          <rect x="0.5" y="0.5" width="343" height="12" fill="none"/>
        </g>
        <g id="Rectángulo_297238" data-name="Rectángulo 297238" transform="translate(596 -6373)" fill="#fff" stroke="#707070" stroke-width="1">
          <rect width="11" height="10" stroke="none"/>
          <rect x="0.5" y="0.5" width="10" height="9" fill="none"/>
        </g>
        <g id="Grupo_896368" data-name="Grupo 896368" transform="translate(0 1.917)">
          <rect id="Rectángulo_297239" data-name="Rectángulo 297239" width="3" height="8" transform="translate(634 -6373.917)" fill="#636363" opacity="0.33"/>
          <rect id="Rectángulo_297240" data-name="Rectángulo 297240" width="4" height="8" transform="translate(656 -6373.917)" fill="#636363" opacity="0.33"/>
          <rect id="Rectángulo_297241" data-name="Rectángulo 297241" width="3" height="8" transform="translate(673 -6373.917)" fill="#636363" opacity="0.33"/>
          <rect id="Rectángulo_297242" data-name="Rectángulo 297242" width="2" height="8" transform="translate(699 -6373.917)" fill="#636363" opacity="0.33"/>
          <rect id="Rectángulo_297243" data-name="Rectángulo 297243" width="2" height="8" transform="translate(728 -6373.917)" fill="#636363" opacity="0.33"/>
          <rect id="Rectángulo_297244" data-name="Rectángulo 297244" width="3" height="8" transform="translate(769 -6373.917)" fill="#636363" opacity="0.33"/>
          <rect id="Rectángulo_297245" data-name="Rectángulo 297245" width="3" height="8" transform="translate(823 -6373.917)" fill="#636363" opacity="0.33"/>
        </g>
        <g id="Rectángulo_297246" data-name="Rectángulo 297246" transform="translate(612 -6369)" fill="#fff" stroke="#707070" stroke-width="1">
          <rect width="18" height="3" stroke="none"/>
          <rect x="0.5" y="0.5" width="17" height="2" fill="none"/>
        </g>
        <g id="Rectángulo_297247" data-name="Rectángulo 297247" transform="translate(639 -6369)" fill="#fff" stroke="#707070" stroke-width="1">
          <rect width="16" height="3" stroke="none"/>
          <rect x="0.5" y="0.5" width="15" height="2" fill="none"/>
        </g>
        <g id="Rectángulo_297248" data-name="Rectángulo 297248" transform="translate(661 -6369)" fill="#fff" stroke="#707070" stroke-width="1">
          <rect width="11" height="3" stroke="none"/>
          <rect x="0.5" y="0.5" width="10" height="2" fill="none"/>
        </g>
        <g id="Rectángulo_297249" data-name="Rectángulo 297249" transform="translate(679 -6369)" fill="#fff" stroke="#707070" stroke-width="1">
          <rect width="18" height="3" stroke="none"/>
          <rect x="0.5" y="0.5" width="17" height="2" fill="none"/>
        </g>
        <g id="Rectángulo_297250" data-name="Rectángulo 297250" transform="translate(704 -6369)" fill="#fff" stroke="#707070" stroke-width="1">
          <rect width="20" height="3" stroke="none"/>
          <rect x="0.5" y="0.5" width="19" height="2" fill="none"/>
        </g>
        <g id="Rectángulo_297251" data-name="Rectángulo 297251" transform="translate(733 -6369)" fill="#fff" stroke="#707070" stroke-width="1">
          <rect width="34" height="3" stroke="none"/>
          <rect x="0.5" y="0.5" width="33" height="2" fill="none"/>
        </g>
        <g id="Rectángulo_297252" data-name="Rectángulo 297252" transform="translate(775 -6369)" fill="#fff" stroke="#707070" stroke-width="1">
          <rect width="45" height="3" stroke="none"/>
          <rect x="0.5" y="0.5" width="44" height="2" fill="none"/>
        </g>
        <g id="Rectángulo_297253" data-name="Rectángulo 297253" transform="translate(606 -6324)" fill="#fff" stroke="#707070" stroke-width="1">
          <rect width="117" height="8" stroke="none"/>
          <rect x="0.5" y="0.5" width="116" height="7" fill="none"/>
        </g>
        <g id="Rectángulo_297254" data-name="Rectángulo 297254" transform="translate(723 -6324)" fill="#fff" stroke="#707070" stroke-width="1">
          <rect width="117" height="8" stroke="none"/>
          <rect x="0.5" y="0.5" width="116" height="7" fill="none"/>
        </g>
        <g id="Rectángulo_297255" data-name="Rectángulo 297255" transform="translate(840 -6324)" fill="#fff" stroke="#707070" stroke-width="1">
          <rect width="118" height="8" stroke="none"/>
          <rect x="0.5" y="0.5" width="117" height="7" fill="none"/>
        </g>
        <g id="Rectángulo_297256" data-name="Rectángulo 297256" transform="translate(958 -6324)" fill="#fff" stroke="#707070" stroke-width="1">
          <rect width="88" height="8" stroke="none"/>
          <rect x="0.5" y="0.5" width="87" height="7" fill="none"/>
        </g>
        <g id="Rectángulo_297257" data-name="Rectángulo 297257" transform="translate(1034 -6317)" fill="#e0e0e0" stroke="#707070" stroke-width="1">
          <rect width="12" height="244" stroke="none"/>
          <rect x="0.5" y="0.5" width="11" height="243" fill="none"/>
        </g>
        <g id="Rectángulo_297258" data-name="Rectángulo 297258" transform="translate(607 -6083)" fill="#fff" stroke="#707070" stroke-width="1">
          <rect width="428" height="10" stroke="none"/>
          <rect x="0.5" y="0.5" width="427" height="9" fill="none"/>
        </g>
        <g id="Rectángulo_297266" data-name="Rectángulo 297266" transform="translate(800 -6083)" fill="#fff" stroke="#707070" stroke-width="1">
          <rect width="69" height="10" stroke="none"/>
          <rect x="0.5" y="0.5" width="68" height="9" fill="none"/>
        </g>
        <g id="Rectángulo_297267" data-name="Rectángulo 297267" transform="translate(732 -6083)" fill="#fff" stroke="#707070" stroke-width="1">
          <rect width="69" height="10" stroke="none"/>
          <rect x="0.5" y="0.5" width="68" height="9" fill="none"/>
        </g>
        <g id="Rectángulo_297268" data-name="Rectángulo 297268" transform="translate(664 -6083)" fill="#fff" stroke="#707070" stroke-width="1">
          <rect width="69" height="10" stroke="none"/>
          <rect x="0.5" y="0.5" width="68" height="9" fill="none"/>
        </g>
        <g id="Rectángulo_297259" data-name="Rectángulo 297259" transform="translate(1034 -6317)" fill="#fff" stroke="#707070" stroke-width="1">
          <rect width="12" height="12" stroke="none"/>
          <rect x="0.5" y="0.5" width="11" height="11" fill="none"/>
        </g>
        <rect id="Rectángulo_297260" data-name="Rectángulo 297260" width="10" height="133" transform="translate(1035 -6213)" fill="#bdbdbd"/>
        <g id="Rectángulo_297261" data-name="Rectángulo 297261" transform="translate(1034 -6083)" fill="#fff" stroke="#707070" stroke-width="1">
          <rect width="12" height="10" stroke="none"/>
          <rect x="0.5" y="0.5" width="11" height="9" fill="none"/>
        </g>
        <g id="Grupo_896357" data-name="Grupo 896357" transform="translate(1041.693 -6385.51)">
          <line id="Línea_1149" data-name="Línea 1149" x2="6.999" y2="6.98" fill="none" stroke="#707070" stroke-width="1"/>
          <line id="Línea_1150" data-name="Línea 1150" x1="6.999" y2="6.98" fill="none" stroke="#707070" stroke-width="1"/>
        </g>
        <g id="Grupo_896360" data-name="Grupo 896360">
          <g id="Rectángulo_297135" data-name="Rectángulo 297135" transform="translate(606 -6287)" fill="#fff" stroke="#707070" stroke-width="1" opacity="0.51">
            <rect width="115" height="31" stroke="none"/>
            <rect x="0.5" y="0.5" width="114" height="30" fill="none"/>
          </g>
          <g id="Rectángulo_297136" data-name="Rectángulo 297136" transform="translate(606 -6257)" fill="#fff" stroke="#707070" stroke-width="1" opacity="0.51">
            <rect width="115" height="13" stroke="none"/>
            <rect x="0.5" y="0.5" width="114" height="12" fill="none"/>
          </g>
          <g id="Rectángulo_297137" data-name="Rectángulo 297137" transform="translate(606 -6245)" fill="#fff" stroke="#707070" stroke-width="1" opacity="0.51">
            <rect width="115" height="13" stroke="none"/>
            <rect x="0.5" y="0.5" width="114" height="12" fill="none"/>
          </g>
          <g id="Rectángulo_297138" data-name="Rectángulo 297138" transform="translate(606 -6233)" fill="#fff" stroke="#707070" stroke-width="1" opacity="0.51">
            <rect width="115" height="15" stroke="none"/>
            <rect x="0.5" y="0.5" width="114" height="14" fill="none"/>
          </g>
          <g id="Rectángulo_297139" data-name="Rectángulo 297139" transform="translate(606 -6219)" fill="#fff" stroke="#707070" stroke-width="1" opacity="0.51">
            <rect width="115" height="15" stroke="none"/>
            <rect x="0.5" y="0.5" width="114" height="14" fill="none"/>
          </g>
          <g id="Rectángulo_297140" data-name="Rectángulo 297140" transform="translate(606 -6205)" fill="#fff" stroke="#707070" stroke-width="1" opacity="0.51">
            <rect width="115" height="13" stroke="none"/>
            <rect x="0.5" y="0.5" width="114" height="12" fill="none"/>
          </g>
          <g id="Rectángulo_297141" data-name="Rectángulo 297141" transform="translate(606 -6193)" fill="#fff" stroke="#707070" stroke-width="1" opacity="0.51">
            <rect width="115" height="13" stroke="none"/>
            <rect x="0.5" y="0.5" width="114" height="12" fill="none"/>
          </g>
          <g id="Rectángulo_297142" data-name="Rectángulo 297142" transform="translate(606 -6181)" fill="#fff" stroke="#707070" stroke-width="1" opacity="0.51">
            <rect width="115" height="14" stroke="none"/>
            <rect x="0.5" y="0.5" width="114" height="13" fill="none"/>
          </g>
          <g id="Rectángulo_297143" data-name="Rectángulo 297143" transform="translate(606 -6168)" fill="#fff" stroke="#707070" stroke-width="1" opacity="0.51">
            <rect width="115" height="14" stroke="none"/>
            <rect x="0.5" y="0.5" width="114" height="13" fill="none"/>
          </g>
          <g id="Rectángulo_297145" data-name="Rectángulo 297145" transform="translate(606 -6155)" fill="#fff" stroke="#b5b3b3" stroke-width="1" opacity="0.51">
            <rect width="115" height="10" stroke="none"/>
            <rect x="0.5" y="0.5" width="114" height="9" fill="none"/>
          </g>
          <g id="Rectángulo_297146" data-name="Rectángulo 297146" transform="translate(606 -6145)" fill="#fff" stroke="#b5b3b3" stroke-width="1" opacity="0.51">
            <rect width="115" height="10" stroke="none"/>
            <rect x="0.5" y="0.5" width="114" height="9" fill="none"/>
          </g>
          <g id="Rectángulo_297151" data-name="Rectángulo 297151" transform="translate(606 -6117)" fill="#fff" stroke="#b5b3b3" stroke-width="1" opacity="0.51">
            <rect width="115" height="10" stroke="none"/>
            <rect x="0.5" y="0.5" width="114" height="9" fill="none"/>
          </g>
          <g id="Rectángulo_297147" data-name="Rectángulo 297147" transform="translate(606 -6135)" fill="#fff" stroke="#b5b3b3" stroke-width="1" opacity="0.51">
            <rect width="115" height="10" stroke="none"/>
            <rect x="0.5" y="0.5" width="114" height="9" fill="none"/>
          </g>
          <g id="Rectángulo_297150" data-name="Rectángulo 297150" transform="translate(606 -6108)" fill="#fff" stroke="#b5b3b3" stroke-width="1" opacity="0.51">
            <rect width="115" height="10" stroke="none"/>
            <rect x="0.5" y="0.5" width="114" height="9" fill="none"/>
          </g>
          <g id="Rectángulo_297148" data-name="Rectángulo 297148" transform="translate(606 -6126)" fill="#fff" stroke="#b5b3b3" stroke-width="1" opacity="0.51">
            <rect width="115" height="10" stroke="none"/>
            <rect x="0.5" y="0.5" width="114" height="9" fill="none"/>
          </g>
          <g id="Rectángulo_297149" data-name="Rectángulo 297149" transform="translate(606 -6099)" fill="#fff" stroke="#b5b3b3" stroke-width="1" opacity="0.51">
            <rect width="115" height="10" stroke="none"/>
            <rect x="0.5" y="0.5" width="114" height="9" fill="none"/>
          </g>
          <g id="Rectángulo_297152" data-name="Rectángulo 297152" transform="translate(606 -6090)" fill="#fff" stroke="#b5b3b3" stroke-width="1" opacity="0.51">
            <rect width="115" height="10" stroke="none"/>
            <rect x="0.5" y="0.5" width="114" height="9" fill="none"/>
          </g>
        </g>
        <g id="Rectángulo_297269" data-name="Rectángulo 297269" transform="translate(1014 -6369)" fill="#fff" stroke="#707070" stroke-width="1">
          <rect width="6" height="2" stroke="none"/>
          <rect x="0.5" y="0.5" width="5" height="1" fill="none"/>
        </g>
        <g id="Grupo_896362" data-name="Grupo 896362">
          <g id="Rectángulo_297270" data-name="Rectángulo 297270" transform="translate(1030 -6371)" fill="#fff" stroke="#707070" stroke-width="1">
            <rect width="2" height="6" stroke="none"/>
            <rect x="0.5" y="0.5" width="1" height="5" fill="none"/>
          </g>
          <g id="Rectángulo_297271" data-name="Rectángulo 297271" transform="translate(1028 -6369)" fill="#fff" stroke="#707070" stroke-width="1">
            <rect width="6" height="2" stroke="none"/>
            <rect x="0.5" y="0.5" width="5" height="1" fill="none"/>
          </g>
        </g>
        <g id="Grupo_896361" data-name="Grupo 896361" transform="translate(0 1)">
          <g id="Rectángulo_297272" data-name="Rectángulo 297272" transform="translate(1041 -6372)" fill="none" stroke="#707070" stroke-width="1">
            <rect width="5" height="5" stroke="none"/>
            <rect x="0.5" y="0.5" width="4" height="4" fill="none"/>
          </g>
          <g id="Rectángulo_297273" data-name="Rectángulo 297273" transform="translate(1044 -6369)" fill="none" stroke="#707070" stroke-width="1">
            <rect width="5" height="5" stroke="none"/>
            <rect x="0.5" y="0.5" width="4" height="4" fill="none"/>
          </g>
        </g>
        <g id="Grupo_896363" data-name="Grupo 896363">
          <line id="Línea_1151" data-name="Línea 1151" x2="3" y2="3" transform="translate(1037.5 -6311.5)" fill="none" stroke="#707070" stroke-width="1"/>
          <line id="Línea_1152" data-name="Línea 1152" y1="3" x2="3" transform="translate(1040 -6311.5)" fill="none" stroke="#707070" stroke-width="1"/>
        </g>
        <g id="Grupo_896364" data-name="Grupo 896364" transform="translate(2080.25 -12388) rotate(180)">
          <line id="Línea_1151-2" data-name="Línea 1151" x2="3" y2="3" transform="translate(1037.5 -6311.5)" fill="none" stroke="#707070" stroke-width="1"/>
          <line id="Línea_1152-2" data-name="Línea 1152" y1="3" x2="3" transform="translate(1040 -6311.5)" fill="none" stroke="#707070" stroke-width="1"/>
        </g>
        <g id="Rectángulo_297274" data-name="Rectángulo 297274" transform="translate(1035 -6083) rotate(90)" fill="#e0e0e0" stroke="#707070" stroke-width="1">
          <rect width="10" height="64" stroke="none"/>
          <rect x="0.5" y="0.5" width="9" height="63" fill="none"/>
        </g>
        <rect id="Rectángulo_297265" data-name="Rectángulo 297265" width="8" height="106.477" transform="translate(974.977 -6082) rotate(90)" fill="#bdbdbd"/>
        <g id="Grupo_896366" data-name="Grupo 896366" transform="translate(7109.667 -5039) rotate(-90)">
          <g id="Rectángulo_297275" data-name="Rectángulo 297275" transform="translate(1034 -6084.667)" fill="#fff" stroke="#707070" stroke-width="1">
            <rect width="10" height="10" stroke="none"/>
            <rect x="0.5" y="0.5" width="9" height="9" fill="none"/>
          </g>
          <g id="Grupo_896365" data-name="Grupo 896365" transform="translate(1041.292 -6078.583) rotate(180)">
            <line id="Línea_1151-3" data-name="Línea 1151" x2="2.5" y2="2.5" fill="none" stroke="#707070" stroke-width="1"/>
            <line id="Línea_1152-3" data-name="Línea 1152" y1="2.5" x2="2.5" transform="translate(2.083)" fill="none" stroke="#707070" stroke-width="1"/>
          </g>
        </g>
        <g id="Grupo_896367" data-name="Grupo 896367" transform="translate(-5215.667 -7117) rotate(90)">
          <g id="Rectángulo_297275-2" data-name="Rectángulo 297275" transform="translate(1034 -6084.667)" fill="#fff" stroke="#707070" stroke-width="1">
            <rect width="10" height="10" stroke="none"/>
            <rect x="0.5" y="0.5" width="9" height="9" fill="none"/>
          </g>
          <g id="Grupo_896365-2" data-name="Grupo 896365" transform="translate(1041.292 -6078.583) rotate(180)">
            <line id="Línea_1151-4" data-name="Línea 1151" x2="2.5" y2="2.5" fill="none" stroke="#707070" stroke-width="1"/>
            <line id="Línea_1152-4" data-name="Línea 1152" y1="2.5" x2="2.5" transform="translate(2.083)" fill="none" stroke="#707070" stroke-width="1"/>
          </g>
        </g>
      </g>
      <g id="Rectángulo_297262" data-name="Rectángulo 297262" transform="translate(780 5024)" fill="#afafaf" stroke="#707070" stroke-width="1">
        <rect width="12" height="37" stroke="none"/>
        <rect x="0.5" y="0.5" width="11" height="36" fill="none"/>
      </g>
      <g id="Rectángulo_297264" data-name="Rectángulo 297264" transform="translate(780 5092)" fill="#afafaf" stroke="#707070" stroke-width="1">
        <rect width="12" height="183" stroke="none"/>
        <rect x="0.5" y="0.5" width="11" height="182" fill="none"/>
      </g>
      <g id="Rectángulo_297263" data-name="Rectángulo 297263" transform="translate(780 5061)" fill="#e8e8e8" stroke="#707070" stroke-width="1">
        <rect width="12" height="31" stroke="none"/>
        <rect x="0.5" y="0.5" width="11" height="30" fill="none"/>
      </g>
    </g>
  </g>
</svg>
