<svg xmlns="http://www.w3.org/2000/svg" width="51" height="51" viewBox="0 0 51 51">
  <g id="Grupo_898345" data-name="Grupo 898345" transform="translate(-382.795 -2016)">
    <circle id="Elipse_5166" data-name="Elipse 5166" cx="25.5" cy="25.5" r="25.5" transform="translate(382.795 2016)" fill="#222b5a"/>
    <g id="Grupo_883019" data-name="Grupo 883019" transform="translate(-182.906 188.189)">
      <path id="Icon_awesome-pen-alt" data-name="Icon awesome-pen-alt" d="M11.2,1.668,9.848.316a1.08,1.08,0,0,0-1.528,0L7.048,1.588l2.88,2.88L11.2,3.2a1.08,1.08,0,0,0,0-1.528ZM5.649,1.206a.9.9,0,0,0-1.272,0L1.7,3.879a.36.36,0,0,0,0,.509l.509.509a.36.36,0,0,0,.509,0l2.29-2.29.509.509L2.113,6.524A7.356,7.356,0,0,0,0,10.912v.005a.54.54,0,0,0,.6.6A7.356,7.356,0,0,0,4.992,9.4L9.419,4.977,7.557,3.115,5.649,1.206Z" transform="translate(594.031 1850.561) rotate(-45)" fill="#fff"/>
      <path id="Icon_awesome-book-open" data-name="Icon awesome-book-open" d="M19.87,2.252c-2.008.114-6,.529-8.464,2.037a.563.563,0,0,0-.266.483V18.106a.58.58,0,0,0,.853.494,22.351,22.351,0,0,1,8.014-1.719,1.143,1.143,0,0,0,1.1-1.124V3.377A1.149,1.149,0,0,0,19.87,2.252ZM9.7,4.289C7.238,2.78,3.246,2.366,1.238,2.252A1.149,1.149,0,0,0,0,3.377V15.758a1.142,1.142,0,0,0,1.1,1.124A22.348,22.348,0,0,1,9.117,18.6a.578.578,0,0,0,.851-.493V4.765A.552.552,0,0,0,9.7,4.289Z" transform="translate(575.851 1842.852)" fill="#fff"/>
    </g>
  </g>
</svg>
