<svg xmlns="http://www.w3.org/2000/svg" width="715" height="402" viewBox="0 0 715 402">
  <g id="Grupo_898341" data-name="Grupo 898341" transform="translate(-650 -7334.823)">
    <rect id="Rectángulo_295184" data-name="Rectángulo 295184" width="715" height="402" rx="17" transform="translate(650 7334.823)" fill="#fff"/>
    <g id="Grupo_896328" data-name="Grupo 896328" transform="translate(469.807 7200.455)">
      <g id="Grupo_888028" data-name="Grupo 888028" transform="translate(340.193 189.105)">
        <g id="Grupo_887996" data-name="Grupo 887996" transform="translate(16.771 1.449)">
          <g id="Grupo_887985" data-name="Grupo 887985" transform="translate(0 236.138)">
            <g id="Grupo_887984" data-name="Grupo 887984">
              <path id="Trazado_621845" data-name="Trazado 621845" d="M390.937,274H356.473a6.759,6.759,0,0,1,0-2.9h34.464a6.759,6.759,0,0,1,0,2.9Z" transform="translate(-356.316 -271.098)" fill="#c4c4c4"/>
            </g>
          </g>
          <g id="Grupo_887987" data-name="Grupo 887987" transform="translate(0 188.915)">
            <g id="Grupo_887986" data-name="Grupo 887986">
              <path id="Trazado_621846" data-name="Trazado 621846" d="M390.937,257.7H356.473a6.759,6.759,0,0,1,0-2.9h34.464a6.759,6.759,0,0,1,0,2.9Z" transform="translate(-356.316 -254.801)" fill="#c4c4c4"/>
            </g>
          </g>
          <g id="Grupo_887989" data-name="Grupo 887989" transform="translate(0 141.686)">
            <g id="Grupo_887988" data-name="Grupo 887988">
              <path id="Trazado_621847" data-name="Trazado 621847" d="M390.937,241.4H356.473a6.759,6.759,0,0,1,0-2.9h34.464a6.759,6.759,0,0,1,0,2.9Z" transform="translate(-356.316 -238.502)" fill="#c4c4c4"/>
            </g>
          </g>
          <g id="Grupo_887991" data-name="Grupo 887991" transform="translate(0 94.457)">
            <g id="Grupo_887990" data-name="Grupo 887990">
              <path id="Trazado_621848" data-name="Trazado 621848" d="M390.937,225.1H356.473a6.759,6.759,0,0,1,0-2.9h34.464a6.759,6.759,0,0,1,0,2.9Z" transform="translate(-356.316 -222.203)" fill="#c4c4c4"/>
            </g>
          </g>
          <g id="Grupo_887993" data-name="Grupo 887993" transform="translate(0 47.229)">
            <g id="Grupo_887992" data-name="Grupo 887992">
              <path id="Trazado_621849" data-name="Trazado 621849" d="M390.937,208.8H356.473a6.759,6.759,0,0,1,0-2.9h34.464a6.759,6.759,0,0,1,0,2.9Z" transform="translate(-356.316 -205.904)" fill="#c4c4c4"/>
            </g>
          </g>
          <g id="Grupo_887995" data-name="Grupo 887995">
            <g id="Grupo_887994" data-name="Grupo 887994">
              <path id="Trazado_621850" data-name="Trazado 621850" d="M390.937,192.5H356.473a6.759,6.759,0,0,1,0-2.9h34.464a6.759,6.759,0,0,1,0,2.9Z" transform="translate(-356.316 -189.605)" fill="#c4c4c4"/>
            </g>
          </g>
        </g>
        <g id="Grupo_887997" data-name="Grupo 887997" transform="translate(31.474)">
          <path id="Trazado_621851" data-name="Trazado 621851" d="M684.641,478.264H353.953a2.9,2.9,0,0,1-2.9-2.9V192a2.9,2.9,0,1,1,5.8,0V472.469h327.79a2.9,2.9,0,1,1,0,5.8Z" transform="translate(-351.055 -189.105)" fill="#c4c4c4"/>
        </g>
        <rect id="Rectángulo_297099" data-name="Rectángulo 297099" width="40" height="136" transform="translate(85 144.263)" fill="#f1b62b"/>
        <rect id="Rectángulo_297100" data-name="Rectángulo 297100" width="40" height="153" transform="translate(125 127.263)" fill="#616161"/>
        <path id="Trazado_663044" data-name="Trazado 663044" d="M0,0H40V207H0Z" transform="translate(165 73.263)" fill="#00acc1"/>
        <path id="Trazado_663045" data-name="Trazado 663045" d="M0,0H40V187H0Z" transform="translate(205 93.263)" fill="#f1b62b"/>
        <rect id="Rectángulo_297103" data-name="Rectángulo 297103" width="40" height="271" transform="translate(245 9.263)" fill="#616161"/>
        <rect id="Rectángulo_297104" data-name="Rectángulo 297104" width="40" height="119" transform="translate(285 161.263)" fill="#00acc1"/>
      </g>
    </g>
  </g>
</svg>
