<svg xmlns="http://www.w3.org/2000/svg" width="51" height="51" viewBox="0 0 51 51">
  <g id="Grupo_898348" data-name="Grupo 898348" transform="translate(-382.795 -2190)">
    <circle id="Elipse_5178" data-name="Elipse 5178" cx="25.5" cy="25.5" r="25.5" transform="translate(382.795 2190)" fill="#222b5a"/>
    <path id="Icon_awesome-clipboard-check" data-name="Icon awesome-clipboard-check" d="M21.576,4.11H16.439a4.11,4.11,0,1,0-8.219,0H3.082A3.083,3.083,0,0,0,0,7.192V29.8a3.083,3.083,0,0,0,3.082,3.082H21.576A3.083,3.083,0,0,0,24.658,29.8V7.192A3.083,3.083,0,0,0,21.576,4.11ZM12.329,2.569A1.541,1.541,0,1,1,10.788,4.11,1.537,1.537,0,0,1,12.329,2.569Zm7.783,14.885-9.183,9.106a.771.771,0,0,1-1.092-.006L4.534,21.2a.771.771,0,0,1,.006-1.092L6.364,18.3a.771.771,0,0,1,1.092.006l2.954,2.98,6.807-6.755a.771.771,0,0,1,1.092.006l1.811,1.824A.771.771,0,0,1,20.112,17.453Z" transform="translate(395.966 2198.743)" fill="#fff"/>
  </g>
</svg>
