<svg xmlns="http://www.w3.org/2000/svg" width="89" height="89" viewBox="0 0 89 89">
  <g id="Grupo_898358" data-name="Grupo 898358" transform="translate(-781 -5286)">
    <circle id="Elipse_6259" data-name="Elipse 6259" cx="44.5" cy="44.5" r="44.5" transform="translate(781 5286)" fill="#179587"/>
    <path id="Icon_awesome-user-check" data-name="Icon awesome-user-check" d="M18.738,21.415A10.707,10.707,0,1,0,8.03,10.707,10.706,10.706,0,0,0,18.738,21.415Zm7.5,2.677h-1.4a14.562,14.562,0,0,1-12.2,0h-1.4A11.246,11.246,0,0,0,0,35.334v3.48a4.016,4.016,0,0,0,4.015,4.015H33.46a4.016,4.016,0,0,0,4.015-4.015v-3.48A11.246,11.246,0,0,0,26.233,24.091ZM53.252,13.351,50.927,11a.992.992,0,0,0-1.405-.008l-8.767,8.7L36.949,15.86a.992.992,0,0,0-1.405-.008l-2.351,2.334a.992.992,0,0,0-.008,1.405l6.834,6.884a.992.992,0,0,0,1.405.008l11.82-11.728a1,1,0,0,0,.008-1.405Z" transform="translate(801 5308)" fill="#fff"/>
  </g>
</svg>
