<svg xmlns="http://www.w3.org/2000/svg" width="51" height="51" viewBox="0 0 51 51">
  <g id="Grupo_898352" data-name="Grupo 898352" transform="translate(-825.295 -2122)">
    <circle id="Elipse_5182" data-name="Elipse 5182" cx="25.5" cy="25.5" r="25.5" transform="translate(825.295 2122)" fill="#222b5a"/>
    <path id="Icon_awesome-question" data-name="Icon awesome-question" d="M11.813,0C7.283,0,4.349,2.033,2.045,5.658A1.589,1.589,0,0,0,2.339,7.7L4.787,9.734a1.284,1.284,0,0,0,1.887-.258C8.1,7.526,9.151,6.4,11.372,6.4c1.746,0,3.906,1.231,3.906,3.085,0,1.4-1.057,2.122-2.781,3.18-2.011,1.234-4.671,2.771-4.671,6.614v.608a1.431,1.431,0,0,0,1.362,1.492H13.3a1.431,1.431,0,0,0,1.362-1.492v-.359c0-2.664,7.11-2.775,7.11-9.984C21.774,4.118,16.631,0,11.813,0Zm-.569,23.213a4.136,4.136,0,0,0-3.932,4.306,4.136,4.136,0,0,0,3.932,4.306,4.136,4.136,0,0,0,3.932-4.306A4.136,4.136,0,0,0,11.245,23.213Z" transform="translate(839.008 2132.804)" fill="#fff"/>
  </g>
</svg>
