<svg xmlns="http://www.w3.org/2000/svg" width="99" height="99" viewBox="0 0 99 99">
  <g id="Grupo_898341" data-name="Grupo 898341" transform="translate(-993.259 -5542)">
    <circle id="Elipse_5169" data-name="Elipse 5169" cx="49.5" cy="49.5" r="49.5" transform="translate(993.259 5542)" fill="#222b5a"/>
    <path id="Icon_metro-profile" data-name="Icon metro-profile" d="M65.809,14.786H61.192V7.858L51.66,7.712l.05,7.074H23.069l.2-7.074-9.333.146v7.074l-4.716-.146A4.718,4.718,0,0,0,4.5,19.5V52.516a4.718,4.718,0,0,0,4.716,4.716H65.809a4.718,4.718,0,0,0,4.716-4.716V19.5A4.718,4.718,0,0,0,65.809,14.786ZM54.019,10.07h4.716V19.5H54.019ZM23.363,26.133c2.849,0,5.159,3.035,5.159,6.779s-2.311,6.779-5.159,6.779S18.2,36.658,18.2,32.913s2.311-6.779,5.159-6.779ZM16.289,10.07h4.716V19.5H16.289ZM13.146,47.677s.559-4.485,1.83-5.332,4.928-1.41,4.928-1.41,2.372,2.535,3.381,2.535,3.379-2.535,3.379-2.535,3.66.561,4.931,1.41c1.493,1,1.865,5.332,1.865,5.332H13.146Zm47.947-2.235H39.87V43.083H61.093Zm0-4.716H39.87V38.367H61.093Zm0-4.716H39.87V33.651H61.093Zm0-4.716H39.87V28.935H61.093Z" transform="translate(1005.247 5555.34)" fill="#fff"/>
  </g>
</svg>
