<svg xmlns="http://www.w3.org/2000/svg" width="498.673" height="353.322" viewBox="0 0 498.673 353.322">
  <g id="Grupo_896302" data-name="Grupo 896302" transform="translate(-41.785 -38.542)">
    <g id="Background_Complete" data-name="Background Complete" transform="translate(41.785 60.927)">
      <g id="Grupo_889301" data-name="Grupo 889301" transform="translate(0 0)">
        <g id="Grupo_889263" data-name="Grupo 889263" transform="translate(61.698 101.68)">
          <g id="Grupo_889241" data-name="Grupo 889241">
            <g id="Grupo_889240" data-name="Grupo 889240">
              <path id="Trazado_623265" data-name="Trazado 623265" d="M183.678,192.159s-4.537-3.716-11.661,7.317a152.02,152.02,0,0,0-10.06,17.515s-1.818,2.278-3.329.513-3.344-6.523-6.275-6c-3.04.542-4.35,3.739-4.283,8.64s-.179,15.643-.205,16.614c-.025.954-.71,2.292-1.933,1.254s-7.926-10.239-12.1-6.8-1.745,17.065-1.507,18.559-.111,2.086-.839,2.376-2.689-3.016-4.7-5.555-4.793-5.13-7.037-2.942-3.9,12.053,3.9,29.149l4.133,7.686,8.755.409c18.79-.268,27-5.986,28.015-8.95s-2.514-4.367-5.67-5.1-6.983-1.092-7.034-1.874.336-1.35,1.789-1.775,14.8-4.058,16.128-9.3-9.861-7.369-11.322-8.029-.544-1.853.306-2.283c.867-.439,10.471-5.26,14.929-7.3s6.786-4.588,5.976-7.567c-.782-2.873-5.865-2.492-8.108-3.1s-.962-3.229-.962-3.229A152,152,0,0,0,182.1,205.8c6.923-11.16,1.476-13.707,1.476-13.707" transform="translate(-117.879 -191.557)" fill="#ebebeb"/>
            </g>
          </g>
          <g id="Grupo_889244" data-name="Grupo 889244" transform="translate(8.349 10.471)">
            <g id="Grupo_889243" data-name="Grupo 889243">
              <g id="Grupo_889242" data-name="Grupo 889242">
                <path id="Trazado_623266" data-name="Trazado 623266" d="M128.176,284.352c5.116-8.176,14.454-22.556,22.407-34.943s15.137-23.6,20.294-31.75l6.1-9.658,1.66-2.625.437-.679c.1-.152.157-.226.157-.226s-.041.084-.134.242l-.414.693-1.617,2.651c-1.407,2.3-3.465,5.617-6.025,9.7-5.116,8.176-12.278,19.411-20.228,31.794s-17.315,26.749-22.472,34.9" transform="translate(-128.176 -204.471)" fill="#e0e0e0"/>
              </g>
            </g>
          </g>
          <g id="Grupo_889247" data-name="Grupo 889247" transform="translate(36.761 26.704)">
            <g id="Grupo_889246" data-name="Grupo 889246">
              <g id="Grupo_889245" data-name="Grupo 889245">
                <path id="Trazado_623267" data-name="Trazado 623267" d="M163.225,224.492a2.8,2.8,0,0,1,.159.611c.087.4.195.974.322,1.687.251,1.428.547,3.409.835,5.6.276,2.162.525,4.118.716,5.614.09.674.166,1.242.227,1.7a2.882,2.882,0,0,1,.06.628,2.785,2.785,0,0,1-.164-.611c-.085-.4-.194-.974-.313-1.689-.237-1.431-.508-3.415-.795-5.608-.292-2.159-.555-4.112-.756-5.607-.093-.674-.173-1.242-.236-1.7A2.9,2.9,0,0,1,163.225,224.492Z" transform="translate(-163.218 -224.492)" fill="#e0e0e0"/>
              </g>
            </g>
          </g>
          <g id="Grupo_889250" data-name="Grupo 889250" transform="translate(39.867 39.509)">
            <g id="Grupo_889249" data-name="Grupo 889249">
              <g id="Grupo_889248" data-name="Grupo 889248">
                <path id="Trazado_623268" data-name="Trazado 623268" d="M167.049,243.558c-.013-.074,4.045-.865,9.062-1.767s9.1-1.575,9.111-1.5-4.043.865-9.063,1.768S167.063,243.632,167.049,243.558Z" transform="translate(-167.049 -240.285)" fill="#e0e0e0"/>
              </g>
            </g>
          </g>
          <g id="Grupo_889253" data-name="Grupo 889253" transform="translate(26.8 61.243)">
            <g id="Grupo_889252" data-name="Grupo 889252">
              <g id="Grupo_889251" data-name="Grupo 889251">
                <path id="Trazado_623269" data-name="Trazado 623269" d="M150.932,267.1a3.048,3.048,0,0,1,.644.036l1.742.185c1.47.153,3.5.357,5.75.5s4.291.211,5.769.244l1.751.041a2.973,2.973,0,0,1,.643.046,2.951,2.951,0,0,1-.642.059c-.413.02-1.013.038-1.753.045-1.481.015-3.528-.017-5.784-.165s-4.29-.377-5.757-.58c-.733-.1-1.326-.2-1.733-.27A2.914,2.914,0,0,1,150.932,267.1Z" transform="translate(-150.932 -267.09)" fill="#e0e0e0"/>
              </g>
            </g>
          </g>
          <g id="Grupo_889256" data-name="Grupo 889256" transform="translate(20.793 47.325)">
            <g id="Grupo_889255" data-name="Grupo 889255">
              <g id="Grupo_889254" data-name="Grupo 889254">
                <path id="Trazado_623270" data-name="Trazado 623270" d="M143.526,249.925a2.509,2.509,0,0,1,.29.521l.7,1.46c.58,1.238,1.363,2.956,2.213,4.86s1.607,3.636,2.141,4.893q.367.884.621,1.5a2.467,2.467,0,0,1,.193.564,2.55,2.55,0,0,1-.289-.521l-.7-1.46c-.579-1.238-1.363-2.956-2.214-4.862s-1.606-3.634-2.141-4.892c-.245-.589-.452-1.089-.62-1.5A2.534,2.534,0,0,1,143.526,249.925Z" transform="translate(-143.524 -249.925)" fill="#e0e0e0"/>
              </g>
            </g>
          </g>
          <g id="Grupo_889259" data-name="Grupo 889259" transform="translate(7.185 62.164)">
            <g id="Grupo_889258" data-name="Grupo 889258">
              <g id="Grupo_889257" data-name="Grupo 889257">
                <path id="Trazado_623271" data-name="Trazado 623271" d="M126.743,268.226a4.108,4.108,0,0,1,.365.669l.9,1.869c.752,1.583,1.773,3.776,2.886,6.206s2.107,4.638,2.814,6.241l.825,1.9a4.122,4.122,0,0,1,.268.713,4.032,4.032,0,0,1-.364-.669c-.235-.487-.538-1.115-.9-1.868-.752-1.583-1.773-3.777-2.886-6.208s-2.106-4.637-2.813-6.24l-.825-1.9A4.113,4.113,0,0,1,126.743,268.226Z" transform="translate(-126.741 -268.226)" fill="#e0e0e0"/>
              </g>
            </g>
          </g>
          <g id="Grupo_889262" data-name="Grupo 889262" transform="translate(15.174 79.282)">
            <g id="Grupo_889261" data-name="Grupo 889261">
              <g id="Grupo_889260" data-name="Grupo 889260">
                <path id="Trazado_623272" data-name="Trazado 623272" d="M136.594,289.348a4.676,4.676,0,0,1,.816.025l2.216.154c1.871.128,4.457.3,7.316.4s5.45.138,7.326.146l2.222.011a4.673,4.673,0,0,1,.816.036,4.747,4.747,0,0,1-.813.07c-.525.028-1.284.056-2.222.075-1.877.041-4.473.041-7.338-.066s-5.452-.3-7.321-.479c-.935-.091-1.69-.172-2.211-.24A4.9,4.9,0,0,1,136.594,289.348Z" transform="translate(-136.594 -289.338)" fill="#e0e0e0"/>
              </g>
            </g>
          </g>
        </g>
        <g id="Grupo_889270" data-name="Grupo 889270" transform="translate(0 104.241)">
          <g id="Grupo_889268" data-name="Grupo 889268">
            <g id="Grupo_889265" data-name="Grupo 889265">
              <g id="Grupo_889264" data-name="Grupo 889264">
                <path id="Trazado_623273" data-name="Trazado 623273" d="M97.835,223.679a23.342,23.342,0,0,1-.226,4,29.07,29.07,0,0,1-3.645,10.729l-.084-.147h.176l-.084.148L71.263,278.68l-.143.252-.154-.246-24.007-38.3-1.181-1.885-.183-.293.345,0h0l-.165.286a29.431,29.431,0,0,1-3.618-10.116,28.008,28.008,0,0,1-.36-5.264q.072-1.307.142-2.605.195-1.286.387-2.559a29.526,29.526,0,0,1,9.8-16.757,28.4,28.4,0,0,1,7.9-4.642l1.044-.389.52-.194.533-.142,2.116-.551a29.514,29.514,0,0,1,4.232-.513,28.458,28.458,0,0,1,4.116.074c.671.054,1.327.2,1.982.292l.975.157c.32.067.632.165.946.245l1.858.5,1.762.671c.289.114.582.214.863.339l.82.41,1.607.813a29.1,29.1,0,0,1,9.326,8.608,29.638,29.638,0,0,1,4.063,8.693,26.315,26.315,0,0,1,.716,3.435,18.993,18.993,0,0,1,.272,2.554q.035,1.028.054,1.579c.011.355.006.537.006.537s-.021-.182-.044-.537-.052-.89-.092-1.574a19.6,19.6,0,0,0-.306-2.542,26.716,26.716,0,0,0-.746-3.412,29.719,29.719,0,0,0-4.1-8.613,28.967,28.967,0,0,0-9.284-8.5l-1.595-.8-.812-.4c-.278-.122-.569-.22-.855-.332l-1.745-.66-1.841-.491c-.311-.079-.619-.174-.936-.24l-.965-.152c-.648-.09-1.3-.232-1.961-.283a28.08,28.08,0,0,0-4.07-.062,29.279,29.279,0,0,0-4.181.516l-2.089.55-.526.141-.512.192-1.031.387a28.12,28.12,0,0,0-7.793,4.6,29.2,29.2,0,0,0-9.66,16.561q-.189,1.258-.379,2.526-.069,1.282-.139,2.574a27.645,27.645,0,0,0,.358,5.2,29.072,29.072,0,0,0,3.573,9.984l.168.287H45.94l.161-.291,1.181,1.884L71.259,278.5l-.3.006,22.84-40.2.085.146H93.71l.086-.148a29.374,29.374,0,0,0,3.71-10.644c.186-1.292.24-2.292.283-2.963.012-.328.021-.58.028-.761S97.835,223.679,97.835,223.679Z" transform="translate(-41.785 -194.715)" fill="#e0e0e0"/>
              </g>
            </g>
            <g id="Grupo_889267" data-name="Grupo 889267" transform="translate(10.18 10.709)">
              <g id="Grupo_889266" data-name="Grupo 889266">
                <path id="Trazado_623274" data-name="Trazado 623274" d="M90.023,225.858a1.631,1.631,0,0,1-.033-.287c-.015-.208-.035-.487-.059-.842-.012-.187-.025-.393-.039-.619s-.074-.473-.114-.74a12.958,12.958,0,0,0-.371-1.828,16.945,16.945,0,0,0-1.961-4.7A17.592,17.592,0,0,0,66.333,209.3a16.093,16.093,0,0,0-4.45,2.382,16.077,16.077,0,0,0-3.722,3.72,17.025,17.025,0,0,0-2.522,4.832,17.411,17.411,0,0,0-.029,11.08,17.011,17.011,0,0,0,2.5,4.845,16.034,16.034,0,0,0,3.7,3.741,16.136,16.136,0,0,0,4.438,2.4A17.638,17.638,0,0,0,87.4,234.858a16.944,16.944,0,0,0,1.984-4.687,12.984,12.984,0,0,0,.38-1.826c.041-.268.092-.513.118-.739l.042-.619c.027-.354.048-.633.063-.841a1.6,1.6,0,0,1,.035-.287,1.681,1.681,0,0,1,0,.288c-.006.208-.015.489-.026.845l-.024.624c-.02.228-.065.476-.1.746a12.614,12.614,0,0,1-.349,1.846,16.781,16.781,0,0,1-1.945,4.76,17.86,17.86,0,0,1-12.046,8.44,17.927,17.927,0,0,1-9.408-.778,16.48,16.48,0,0,1-4.535-2.442,16.406,16.406,0,0,1-3.787-3.812,17.359,17.359,0,0,1-2.556-4.947,17.754,17.754,0,0,1,.03-11.32,17.35,17.35,0,0,1,2.581-4.932,16.406,16.406,0,0,1,3.805-3.792,16.483,16.483,0,0,1,4.547-2.419,17.93,17.93,0,0,1,9.411-.731,17.867,17.867,0,0,1,12,8.5,16.812,16.812,0,0,1,1.922,4.771,12.5,12.5,0,0,1,.339,1.849c.035.27.079.517.1.746s.015.436.021.624c.009.357.016.636.022.846A1.648,1.648,0,0,1,90.023,225.858Z" transform="translate(-54.34 -207.923)" fill="#e0e0e0"/>
              </g>
            </g>
          </g>
          <g id="Grupo_889269" data-name="Grupo 889269" transform="translate(17.448 19.565)">
            <path id="Trazado_623275" data-name="Trazado 623275" d="M73.62,236.186l-10.316-7.2,2.512-3.6,6.917,4.826,8.948-11.37,3.449,2.714Z" transform="translate(-63.304 -218.845)" fill="#e0e0e0"/>
          </g>
        </g>
        <g id="Grupo_889278" data-name="Grupo 889278" transform="translate(270.26)">
          <g id="Grupo_889277" data-name="Grupo 889277">
            <g id="Grupo_889276" data-name="Grupo 889276">
              <g id="Grupo_889275" data-name="Grupo 889275">
                <g id="Grupo_889274" data-name="Grupo 889274">
                  <g id="Grupo_889273" data-name="Grupo 889273">
                    <g id="Grupo_889272" data-name="Grupo 889272">
                      <g id="Grupo_889271" data-name="Grupo 889271">
                        <path id="Trazado_623276" data-name="Trazado 623276" d="M421.305,74.029a34.154,34.154,0,0,1,8.774,2.317l6.449-5.4,11.077,8.432-3.49,7.656a34.091,34.091,0,0,1,4.572,7.84l8.379.738,1.87,13.8-7.878,2.945a34.02,34.02,0,0,1-2.319,8.775l5.4,6.449-8.43,11.077-7.656-3.49a34.125,34.125,0,0,1-7.842,4.571l-.736,8.379-13.8,1.873L412.74,142.1a34.045,34.045,0,0,1-8.775-2.318l-6.451,5.406-11.078-8.432,3.492-7.657a34.165,34.165,0,0,1-4.572-7.84l-8.377-.739-1.872-13.8,7.879-2.944a34.027,34.027,0,0,1,2.318-8.776L379.9,88.558l8.43-11.077,7.657,3.491a34.1,34.1,0,0,1,7.841-4.571l.738-8.378,13.794-1.872,2.946,7.879Zm-4.138,19.023a14.936,14.936,0,1,0,15,11.424A14.94,14.94,0,0,0,417.168,93.052Z" transform="translate(-375.107 -66.15)" fill="#f5f5f5" fill-rule="evenodd"/>
                      </g>
                    </g>
                  </g>
                </g>
              </g>
            </g>
          </g>
        </g>
        <g id="Grupo_889286" data-name="Grupo 889286" transform="translate(160.844 46.87)">
          <g id="Grupo_889285" data-name="Grupo 889285">
            <g id="Grupo_889284" data-name="Grupo 889284">
              <g id="Grupo_889283" data-name="Grupo 889283">
                <g id="Grupo_889282" data-name="Grupo 889282">
                  <g id="Grupo_889281" data-name="Grupo 889281">
                    <g id="Grupo_889280" data-name="Grupo 889280">
                      <g id="Grupo_889279" data-name="Grupo 889279">
                        <path id="Trazado_623277" data-name="Trazado 623277" d="M270.148,129.071a22.161,22.161,0,0,1,5.7,1.5l4.186-3.508,7.191,5.473-2.265,4.97a22.162,22.162,0,0,1,2.968,5.089l5.44.479,1.214,8.955-5.114,1.912a22.088,22.088,0,0,1-1.5,5.7l3.508,4.187-5.472,7.19-4.97-2.265a22.183,22.183,0,0,1-5.09,2.968l-.478,5.439-8.956,1.215-1.911-5.115a22.1,22.1,0,0,1-5.7-1.5l-4.187,3.509-7.191-5.474,2.266-4.97a22.2,22.2,0,0,1-2.968-5.089l-5.438-.48L240.16,150.3l5.115-1.911a22.062,22.062,0,0,1,1.5-5.7L243.27,138.5l5.472-7.19,4.971,2.266a22.146,22.146,0,0,1,5.089-2.968l.479-5.438,8.955-1.215,1.912,5.114Zm-2.685,12.349a9.7,9.7,0,1,0,9.738,7.416A9.7,9.7,0,0,0,267.463,141.419Z" transform="translate(-240.16 -123.957)" fill="#ebebeb" fill-rule="evenodd"/>
                      </g>
                    </g>
                  </g>
                </g>
              </g>
            </g>
          </g>
        </g>
        <g id="Grupo_889297" data-name="Grupo 889297" transform="translate(213.641 86.782)">
          <g id="Grupo_889291" data-name="Grupo 889291" transform="translate(28.712 28.491)">
            <g id="Grupo_889290" data-name="Grupo 889290">
              <g id="Grupo_889289" data-name="Grupo 889289">
                <g id="Grupo_889288" data-name="Grupo 889288">
                  <g id="Grupo_889287" data-name="Grupo 889287">
                    <path id="Trazado_623278" data-name="Trazado 623278" d="M364.306,210.485a11.839,11.839,0,0,1,3.238,2.141,15.594,15.594,0,0,1,5.019,9.225,15.792,15.792,0,0,1-.555,7.352,16.033,16.033,0,0,1-4.629,7.084,16.042,16.042,0,0,1-8.5,3.885,15.982,15.982,0,0,1-16.694-9.156,16.045,16.045,0,0,1-1.292-9.255,16.041,16.041,0,0,1,3.487-7.712,15.8,15.8,0,0,1,5.9-4.417,15.6,15.6,0,0,1,10.476-.724,11.843,11.843,0,0,1,3.545,1.579c-.046.1-1.24-.641-3.632-1.241a15.615,15.615,0,0,0-10.131.966,15.3,15.3,0,0,0-8.828,11.675,15.3,15.3,0,0,0,1.271,8.758,15.177,15.177,0,0,0,15.779,8.655,15.307,15.307,0,0,0,8.067-3.634,15.307,15.307,0,0,0,5.1-13.718,15.612,15.612,0,0,0-4.629-9.064C365.514,211.186,364.246,210.579,364.306,210.485Z" transform="translate(-340.689 -208.322)" fill="#ebebeb"/>
                  </g>
                </g>
              </g>
            </g>
          </g>
          <g id="Grupo_889296" data-name="Grupo 889296">
            <g id="Grupo_889295" data-name="Grupo 889295">
              <g id="Grupo_889294" data-name="Grupo 889294">
                <g id="Grupo_889293" data-name="Grupo 889293">
                  <g id="Grupo_889292" data-name="Grupo 889292">
                    <path id="Trazado_623279" data-name="Trazado 623279" d="M374.328,191.212a3.372,3.372,0,0,1,.12-.537c.1-.4.245-.928.426-1.616l1.744-6.369.069.165-12.844-6.949.281-.049-5.82,6.63-.1.12-.156-.038a35.715,35.715,0,0,0-9.394-.994l-.178,0-.088-.157-4.3-7.707.37.152-14.008,4.12.254-.362c.172,2.728.361,5.731.555,8.81l.015.224-.194.117a35.522,35.522,0,0,0-7.338,5.906l-.161.171-.227-.065-8.485-2.417.461-.193-7.008,12.813-.089-.515,6.612,5.841.193.17-.062.252a35.636,35.636,0,0,0-1.013,9.351l.007.263-.231.128-7.717,4.287.209-.508,4.093,14.018-.457-.321,8.812-.539.272-.016.14.233a35.4,35.4,0,0,0,5.876,7.327l0,0,0,0c.055.2-.121-.448.123.451l0,.008,0,.017-.009.033-.019.066-.038.134-.077.268-.152.534-.306,1.066-.61,2.128-1.211,4.228-.216-.517,12.8,7.027-.547.095,5.849-6.6.178-.2.259.064a35.382,35.382,0,0,0,9.348,1.027l.264-.006.127.23L355,260.737l-.494-.2,14.022-4.073-.3.422q-.269-4.484-.527-8.811l-.015-.244.209-.126a35.442,35.442,0,0,0,7.354-5.879l.163-.171.226.065,8.477,2.443-.431.18,7.051-12.789.074.423-6.593-5.864-.146-.131.047-.189a35.627,35.627,0,0,0,1.05-9.38l0-.18.156-.086,7.733-4.255-.126.306L388.9,198.157l.206.145-8.813.48-.088,0-.045-.075a37.072,37.072,0,0,0-4.233-5.766l-1.2-1.3a3.656,3.656,0,0,1-.395-.435,4.559,4.559,0,0,1,.448.383c.285.268.715.675,1.26,1.252a34.629,34.629,0,0,1,4.372,5.717l-.133-.07,8.807-.594.16-.011.046.156,4.148,14,.06.2-.186.1-7.7,4.308.152-.266a36.09,36.09,0,0,1-1.014,9.55l-.1-.319,6.622,5.831.206.182-.132.242-7,12.817-.143.261-.288-.082-8.485-2.414.388-.106a36.149,36.149,0,0,1-7.5,6.033l.195-.369.547,8.809.021.33-.319.093-14.013,4.1-.328.1-.167-.3-4.288-7.714.391.223a36.188,36.188,0,0,1-9.581-1.041l.435-.135-5.843,6.61-.235.267-.312-.171-12.807-7.021-.315-.172.1-.345L323,247.423l.609-2.127.306-1.066.152-.534.077-.267.038-.134.019-.066.01-.033,0-.017,0-.008c.245.9.067.247.121.448l0,0,0,0a36.254,36.254,0,0,1-6.024-7.515l.411.216-8.811.536-.357.021-.1-.342-4.08-14.022-.1-.338.307-.171,7.723-4.276-.224.391a36.418,36.418,0,0,1,1.052-9.576l.131.422-6.6-5.854-.251-.222.161-.293,7.039-12.8.154-.281.308.088,8.477,2.442-.387.105a36.163,36.163,0,0,1,7.516-6.007l-.178.34c-.182-3.079-.359-6.083-.52-8.812l-.017-.283.271-.079,14.028-4.054.247-.071.122.223,4.261,7.732-.265-.152a36.135,36.135,0,0,1,9.535,1.073l-.26.082,5.873-6.584.122-.137.159.088,12.762,7.1.1.057-.033.109c-.812,2.72-1.438,4.817-1.874,6.271-.212.689-.376,1.221-.5,1.618A4.154,4.154,0,0,1,374.328,191.212Z" transform="translate(-305.277 -173.182)" fill="#ebebeb"/>
                  </g>
                </g>
              </g>
            </g>
          </g>
        </g>
        <g id="Grupo_889300" data-name="Grupo 889300" transform="translate(304.299 68.022)">
          <g id="Grupo_889298" data-name="Grupo 889298" transform="translate(0 0)">
            <path id="Trazado_623280" data-name="Trazado 623280" d="M429.813,201.5,417.09,150.9l51.768-.855Z" transform="translate(-417.09 -150.044)" fill="#ebebeb"/>
          </g>
          <g id="Grupo_889299" data-name="Grupo 889299" transform="translate(18.375 9.83)">
            <rect id="Rectángulo_296566" data-name="Rectángulo 296566" width="29.417" height="118.961" transform="matrix(0.604, -0.797, 0.797, 0.604, 0, 23.434)" fill="#ebebeb"/>
          </g>
        </g>
      </g>
    </g>
    <g id="Character" transform="translate(411.545 81.376)">
      <g id="Grupo_889454" data-name="Grupo 889454">
        <path id="Trazado_623283" data-name="Trazado 623283" d="M545.726,371.65l6.576,14.909s-12.946,11.692-12,14.565l29.367-11.712-9.293-23.651Z" transform="translate(-505.853 -143.285)" fill="#e8505b"/>
        <path id="Trazado_623284" data-name="Trazado 623284" d="M545.726,371.65l6.576,14.909s-12.946,11.692-12,14.565l29.367-11.712-9.293-23.651Z" transform="translate(-505.853 -143.285)" opacity="0.5"/>
        <path id="Trazado_623285" data-name="Trazado 623285" d="M569.648,394.383l-1.03-2.347-27.771,12.107s-1.081,1.091-.566,1.952Z" transform="translate(-505.832 -148.256)" fill="#263238"/>
        <path id="Trazado_623286" data-name="Trazado 623286" d="M610.288,397.317l8.231,14.063s-11.53,13.091-10.261,15.838L636.1,412.236,624.172,389.8Z" transform="translate(-518.7 -147.832)" fill="#e8505b"/>
        <path id="Trazado_623287" data-name="Trazado 623287" d="M610.288,397.317l8.231,14.063s-11.53,13.091-10.261,15.838L636.1,412.236,624.172,389.8Z" transform="translate(-518.7 -147.832)" opacity="0.5"/>
        <path id="Trazado_623288" data-name="Trazado 623288" d="M636.073,416.955l-1.29-2.214-26.211,15.192s-.949,1.206-.34,2Z" transform="translate(-518.675 -152.551)" fill="#263238"/>
        <g id="Grupo_889382" data-name="Grupo 889382" transform="translate(22.317)">
          <g id="Grupo_889378" data-name="Grupo 889378" transform="translate(4.178 9.037)">
            <g id="Grupo_889314" data-name="Grupo 889314">
              <g id="Grupo_889313" data-name="Grupo 889313">
                <g id="Grupo_889312" data-name="Grupo 889312">
                  <g id="Grupo_889306" data-name="Grupo 889306">
                    <g id="Grupo_889305" data-name="Grupo 889305">
                      <g id="Grupo_889304" data-name="Grupo 889304">
                        <g id="Grupo_889303" data-name="Grupo 889303">
                          <g id="Grupo_889302" data-name="Grupo 889302">
                            <path id="Trazado_623289" data-name="Trazado 623289" d="M559.671,145.7l-18.046,1.406-.6-10.1s-7.279-.106-8.368-7.216-2.154-23.638-2.154-23.638h0a25,25,0,0,1,25.312-.371l1.17.664Z" transform="translate(-530.503 -102.518)" fill="#ffbe9d"/>
                          </g>
                        </g>
                      </g>
                    </g>
                  </g>
                  <g id="Grupo_889311" data-name="Grupo 889311" transform="translate(10.497 30.438)">
                    <g id="Grupo_889310" data-name="Grupo 889310">
                      <g id="Grupo_889309" data-name="Grupo 889309">
                        <g id="Grupo_889308" data-name="Grupo 889308">
                          <g id="Grupo_889307" data-name="Grupo 889307">
                            <path id="Trazado_623290" data-name="Trazado 623290" d="M543.449,144a16.724,16.724,0,0,0,8.914-3.945s-1.578,5.592-8.775,5.95Z" transform="translate(-543.449 -140.058)" fill="#eb996e"/>
                          </g>
                        </g>
                      </g>
                    </g>
                  </g>
                </g>
              </g>
            </g>
            <g id="Grupo_889326" data-name="Grupo 889326" transform="translate(26.641 10.932)">
              <g id="Grupo_889319" data-name="Grupo 889319">
                <g id="Grupo_889318" data-name="Grupo 889318">
                  <g id="Grupo_889317" data-name="Grupo 889317">
                    <g id="Grupo_889316" data-name="Grupo 889316">
                      <g id="Grupo_889315" data-name="Grupo 889315">
                        <path id="Trazado_623291" data-name="Trazado 623291" d="M563.361,116.492c.114-.07,4.69-2.136,5.219,2.756s-4.49,4.413-4.515,4.274S563.361,116.492,563.361,116.492Z" transform="translate(-563.361 -116)" fill="#ffbe9d"/>
                      </g>
                    </g>
                  </g>
                </g>
              </g>
              <g id="Grupo_889325" data-name="Grupo 889325" transform="translate(1.958 1.533)">
                <g id="Grupo_889324" data-name="Grupo 889324">
                  <g id="Grupo_889323" data-name="Grupo 889323">
                    <g id="Grupo_889322" data-name="Grupo 889322">
                      <g id="Grupo_889321" data-name="Grupo 889321">
                        <g id="Grupo_889320" data-name="Grupo 889320">
                          <path id="Trazado_623292" data-name="Trazado 623292" d="M565.817,121.865c.019-.018.092.05.242.1a.86.86,0,0,0,.639-.056,2.119,2.119,0,0,0,.77-2,2.821,2.821,0,0,0-.37-1.194.989.989,0,0,0-.712-.585.435.435,0,0,0-.478.288c-.051.144-.009.238-.034.249s-.114-.071-.1-.276a.549.549,0,0,1,.159-.328.651.651,0,0,1,.458-.175,1.2,1.2,0,0,1,.972.662,2.908,2.908,0,0,1,.443,1.331,2.224,2.224,0,0,1-1.014,2.247.918.918,0,0,1-.793-.045C565.839,121.982,565.8,121.876,565.817,121.865Z" transform="translate(-565.776 -117.891)" fill="#eb996e"/>
                        </g>
                      </g>
                    </g>
                  </g>
                </g>
              </g>
            </g>
            <g id="Grupo_889377" data-name="Grupo 889377" transform="translate(2.669 6.739)">
              <g id="Grupo_889376" data-name="Grupo 889376">
                <g id="Grupo_889365" data-name="Grupo 889365" transform="translate(0.064 4.035)">
                  <g id="Grupo_889364" data-name="Grupo 889364">
                    <g id="Grupo_889363" data-name="Grupo 889363">
                      <g id="Grupo_889338" data-name="Grupo 889338" transform="translate(0 1.309)">
                        <g id="Grupo_889331" data-name="Grupo 889331" transform="translate(0.335 1.669)">
                          <g id="Grupo_889330" data-name="Grupo 889330">
                            <g id="Grupo_889329" data-name="Grupo 889329">
                              <g id="Grupo_889328" data-name="Grupo 889328">
                                <g id="Grupo_889327" data-name="Grupo 889327">
                                  <path id="Trazado_623293" data-name="Trazado 623293" d="M534.292,120.548a1.028,1.028,0,0,0,1.125.888.983.983,0,0,0,.919-1.065,1.028,1.028,0,0,0-1.125-.889A.983.983,0,0,0,534.292,120.548Z" transform="translate(-534.287 -119.479)" fill="#263238"/>
                                </g>
                              </g>
                            </g>
                          </g>
                        </g>
                        <g id="Grupo_889337" data-name="Grupo 889337">
                          <g id="Grupo_889336" data-name="Grupo 889336">
                            <g id="Grupo_889335" data-name="Grupo 889335">
                              <g id="Grupo_889334" data-name="Grupo 889334">
                                <g id="Grupo_889333" data-name="Grupo 889333">
                                  <g id="Grupo_889332" data-name="Grupo 889332">
                                    <path id="Trazado_623294" data-name="Trazado 623294" d="M533.9,118.8c.145.114.835-.564,1.931-.715,1.091-.166,1.973.284,2.074.133.049-.067-.113-.289-.5-.495a2.818,2.818,0,0,0-1.683-.27,2.708,2.708,0,0,0-1.513.735C533.907,118.49,533.827,118.746,533.9,118.8Z" transform="translate(-533.873 -117.42)" fill="#263238"/>
                                  </g>
                                </g>
                              </g>
                            </g>
                          </g>
                        </g>
                      </g>
                      <g id="Grupo_889350" data-name="Grupo 889350" transform="translate(10.788)">
                        <g id="Grupo_889343" data-name="Grupo 889343" transform="translate(0.193 1.746)">
                          <g id="Grupo_889342" data-name="Grupo 889342">
                            <g id="Grupo_889341" data-name="Grupo 889341">
                              <g id="Grupo_889340" data-name="Grupo 889340">
                                <g id="Grupo_889339" data-name="Grupo 889339">
                                  <path id="Trazado_623295" data-name="Trazado 623295" d="M547.421,119.029a1.027,1.027,0,0,0,1.125.888.982.982,0,0,0,.919-1.065,1.027,1.027,0,0,0-1.124-.889A.983.983,0,0,0,547.421,119.029Z" transform="translate(-547.416 -117.96)" fill="#263238"/>
                                </g>
                              </g>
                            </g>
                          </g>
                        </g>
                        <g id="Grupo_889349" data-name="Grupo 889349">
                          <g id="Grupo_889348" data-name="Grupo 889348">
                            <g id="Grupo_889347" data-name="Grupo 889347">
                              <g id="Grupo_889346" data-name="Grupo 889346">
                                <g id="Grupo_889345" data-name="Grupo 889345">
                                  <g id="Grupo_889344" data-name="Grupo 889344">
                                    <path id="Trazado_623296" data-name="Trazado 623296" d="M547.2,117.183c.145.115.836-.564,1.931-.714,1.091-.167,1.973.283,2.074.132.049-.067-.111-.289-.5-.494a2.814,2.814,0,0,0-1.682-.271,2.705,2.705,0,0,0-1.513.735C547.212,116.876,547.132,117.132,547.2,117.183Z" transform="translate(-547.178 -115.807)" fill="#263238"/>
                                  </g>
                                </g>
                              </g>
                            </g>
                          </g>
                        </g>
                      </g>
                      <g id="Grupo_889356" data-name="Grupo 889356" transform="translate(5.069 0.862)">
                        <g id="Grupo_889355" data-name="Grupo 889355">
                          <g id="Grupo_889354" data-name="Grupo 889354">
                            <g id="Grupo_889353" data-name="Grupo 889353">
                              <g id="Grupo_889352" data-name="Grupo 889352">
                                <g id="Grupo_889351" data-name="Grupo 889351">
                                  <path id="Trazado_623297" data-name="Trazado 623297" d="M543.037,126.06a7.281,7.281,0,0,0-1.823-.071c-.283.01-.555-.008-.629-.192a1.429,1.429,0,0,1,.07-.855q.252-1.07.527-2.245a36.818,36.818,0,0,0,1.073-5.827,37.1,37.1,0,0,0-1.54,5.728c-.171.786-.336,1.536-.491,2.252a1.638,1.638,0,0,0,.009,1.117.709.709,0,0,0,.517.344,1.884,1.884,0,0,0,.484,0A7.192,7.192,0,0,0,543.037,126.06Z" transform="translate(-540.125 -116.87)" fill="#263238"/>
                                </g>
                              </g>
                            </g>
                          </g>
                        </g>
                      </g>
                      <g id="Grupo_889362" data-name="Grupo 889362" transform="translate(8.228 10.355)">
                        <g id="Grupo_889361" data-name="Grupo 889361">
                          <g id="Grupo_889360" data-name="Grupo 889360">
                            <g id="Grupo_889359" data-name="Grupo 889359">
                              <g id="Grupo_889358" data-name="Grupo 889358">
                                <g id="Grupo_889357" data-name="Grupo 889357">
                                  <path id="Trazado_623298" data-name="Trazado 623298" d="M547.1,128.579c-.18.015-.015,1.2-.913,2.189s-2.182,1.034-2.167,1.2c-.006.077.315.191.851.131a2.985,2.985,0,0,0,1.819-.936,2.6,2.6,0,0,0,.689-1.824C547.355,128.836,547.182,128.56,547.1,128.579Z" transform="translate(-544.021 -128.578)" fill="#263238"/>
                                </g>
                              </g>
                            </g>
                          </g>
                        </g>
                      </g>
                    </g>
                  </g>
                </g>
                <g id="Grupo_889370" data-name="Grupo 889370" transform="translate(9.977)">
                  <g id="Grupo_889369" data-name="Grupo 889369">
                    <g id="Grupo_889368" data-name="Grupo 889368">
                      <g id="Grupo_889367" data-name="Grupo 889367">
                        <g id="Grupo_889366" data-name="Grupo 889366">
                          <path id="Trazado_623299" data-name="Trazado 623299" d="M546.112,111.992c.149.282,1.223-.013,2.528-.038,1.305-.053,2.394.178,2.527-.113.058-.139-.161-.393-.62-.622a4.393,4.393,0,0,0-3.851.114C546.25,111.59,546.046,111.856,546.112,111.992Z" transform="translate(-546.1 -110.83)" fill="#263238"/>
                        </g>
                      </g>
                    </g>
                  </g>
                </g>
                <g id="Grupo_889375" data-name="Grupo 889375" transform="translate(0 2.067)">
                  <g id="Grupo_889374" data-name="Grupo 889374">
                    <g id="Grupo_889373" data-name="Grupo 889373">
                      <g id="Grupo_889372" data-name="Grupo 889372">
                        <g id="Grupo_889371" data-name="Grupo 889371">
                          <path id="Trazado_623300" data-name="Trazado 623300" d="M533.839,114.808c.228.221.945-.143,1.85-.282.9-.171,1.7-.068,1.838-.353.06-.138-.1-.37-.465-.558a2.709,2.709,0,0,0-2.972.512C533.806,114.427,533.737,114.7,533.839,114.808Z" transform="translate(-533.795 -113.379)" fill="#263238"/>
                        </g>
                      </g>
                    </g>
                  </g>
                </g>
              </g>
            </g>
          </g>
          <g id="Grupo_889381" data-name="Grupo 889381">
            <g id="Grupo_889380" data-name="Grupo 889380">
              <g id="Grupo_889379" data-name="Grupo 889379">
                <path id="Trazado_623301" data-name="Trazado 623301" d="M525.425,100.03a2.655,2.655,0,0,1,.641-2.485,1.884,1.884,0,0,1,2.442-.159,2.2,2.2,0,0,1,1.5-2.9c1.151-.237,2.265.5,3.431.651a5.34,5.34,0,0,0,3.272-.851c.994-.572,1.9-1.3,2.909-1.836a9.2,9.2,0,0,1,12.4,3.709,4.084,4.084,0,0,1,4.517,1.021,6.7,6.7,0,0,1,1.673,4.53,14.964,14.964,0,0,1-.365,3.311c.013.092.035.18.046.272.477,3.927.68,8.588-.987,8.848-2.906.455-2.984-5.13-2.984-5.13-3.768-.878-3.19-6.421-4.2-7.107s-3.143-2.312-10.087,2.565a14.631,14.631,0,0,1-8.744,2.209c-.063,0-.127,0-.191-.011l-.044,0c-.024,0-.042-.012-.066-.016a6.776,6.776,0,0,1-2.034-.544,3.83,3.83,0,0,1-1.829-1.536,2.1,2.1,0,0,1,.095-2.287A4.61,4.61,0,0,1,525.425,100.03Z" transform="translate(-525.35 -91.372)" fill="#263238"/>
              </g>
            </g>
          </g>
        </g>
        <g id="Grupo_889383" data-name="Grupo 889383" transform="translate(36.992 36.608)">
          <path id="Trazado_623302" data-name="Trazado 623302" d="M543.449,149.626l.805,28.275,17.592-37.873-.441-3.506Z" transform="translate(-543.449 -136.521)" fill="#ebebeb"/>
        </g>
        <g id="Grupo_889396" data-name="Grupo 889396" transform="translate(12.199 127.588)">
          <g id="Grupo_889384" data-name="Grupo 889384" transform="translate(0 5.855)">
            <path id="Trazado_623303" data-name="Trazado 623303" d="M549.335,256.747c-.645.211-37.274,37.255-36.451,43.909s26.9,55.933,26.9,55.933l18.6-9.173-17.451-43.2.229-2.68,21.327-17.477-1.139-28.106Z" transform="translate(-512.871 -255.952)" fill="#263238"/>
          </g>
          <g id="Grupo_889385" data-name="Grupo 889385" transform="translate(44.362)">
            <path id="Trazado_623304" data-name="Trazado 623304" d="M567.585,262.681c.426.646,6.769,58.843,8.469,61.856s27.178,52.7,27.178,52.7l18.916-7.622L599.056,315l2.632-51.681-1.425-14.593L571.7,254.586Z" transform="translate(-567.585 -248.731)" fill="#263238"/>
          </g>
          <g id="Grupo_889387" data-name="Grupo 889387" transform="translate(44.341 16.923)">
            <g id="Grupo_889386" data-name="Grupo 889386">
              <path id="Trazado_623305" data-name="Trazado 623305" d="M575.717,327.461a3.225,3.225,0,0,1-.124-.583l-.275-1.68c-.229-1.506-.547-3.61-.938-6.191l-2.941-20.445c-1.1-7.974-2.1-15.191-2.824-20.466-.337-2.589-.612-4.7-.809-6.208q-.124-1.054-.2-1.691a3.153,3.153,0,0,1-.042-.594,3.234,3.234,0,0,1,.123.581c.069.423.161.982.275,1.68.228,1.506.547,3.61.938,6.19.758,5.271,1.8,12.482,2.942,20.45,1.1,7.972,2.1,15.188,2.823,20.463.337,2.589.612,4.7.809,6.208.083.7.15,1.266.2,1.691A3.337,3.337,0,0,1,575.717,327.461Z" transform="translate(-567.559 -269.603)" fill="#455a64"/>
            </g>
          </g>
          <g id="Grupo_889389" data-name="Grupo 889389" transform="translate(72.747 64.604)">
            <g id="Grupo_889388" data-name="Grupo 889388">
              <path id="Trazado_623306" data-name="Trazado 623306" d="M605.2,328.41a55.232,55.232,0,0,1-2.591,9.113,55.423,55.423,0,0,1,2.591-9.113Z" transform="translate(-602.593 -328.41)" fill="#455a64"/>
            </g>
          </g>
          <g id="Grupo_889391" data-name="Grupo 889391" transform="translate(75.356 66.355)">
            <g id="Grupo_889390" data-name="Grupo 889390">
              <path id="Trazado_623307" data-name="Trazado 623307" d="M608.668,342a5.308,5.308,0,0,1-1.032-1.436,14.147,14.147,0,0,1-1.762-8.263,5.271,5.271,0,0,1,.358-1.732A18.469,18.469,0,0,0,608.668,342Z" transform="translate(-605.811 -330.569)" fill="#455a64"/>
            </g>
          </g>
          <g id="Grupo_889393" data-name="Grupo 889393" transform="translate(21.96 47.84)">
            <g id="Grupo_889392" data-name="Grupo 889392">
              <path id="Trazado_623308" data-name="Trazado 623308" d="M539.958,307.743a9.976,9.976,0,0,1,5.233,4.772c-.1.068-1-1.256-2.453-2.565S539.9,307.852,539.958,307.743Z" transform="translate(-539.956 -307.734)" fill="#455a64"/>
            </g>
          </g>
          <g id="Grupo_889395" data-name="Grupo 889395" transform="translate(24.827 46.125)">
            <g id="Grupo_889394" data-name="Grupo 889394">
              <path id="Trazado_623309" data-name="Trazado 623309" d="M543.5,305.624a8.106,8.106,0,0,1,2.826,4.575,24.427,24.427,0,0,1-1.369-2.316A24.174,24.174,0,0,1,543.5,305.624Z" transform="translate(-543.492 -305.619)" fill="#455a64"/>
            </g>
          </g>
        </g>
        <g id="Grupo_889426" data-name="Grupo 889426" transform="translate(17.806 38.223)">
          <g id="Grupo_889398" data-name="Grupo 889398" transform="translate(19.976)">
            <g id="Grupo_889397" data-name="Grupo 889397">
              <path id="Trazado_623310" data-name="Trazado 623310" d="M546.2,189.108l4.682,23.23,3.811,32.418s15.71-2.194,22.406-4.313c7.766-2.458,24.664-4.552,24.664-4.552l-2.848,2.818c6.046-1.693,9.9-7.463,9.9-7.463C598.393,221.583,589.5,201.7,589.5,201.7l-7.924-39.343s-1.2-5.55-1.929-8.018-12.758-10.429-14.426-11.436l-1.048-.5-.333-3.153-1.24-.742-13.022,11.83a14.111,14.111,0,0,0-4.532,8.841,102.065,102.065,0,0,0-.568,14.8C544.638,178.593,546.2,189.108,546.2,189.108Z" transform="translate(-544.425 -138.514)" fill="#e8505b"/>
            </g>
          </g>
          <g id="Grupo_889408" data-name="Grupo 889408" transform="translate(0 9.88)">
            <g id="Grupo_889399" data-name="Grupo 889399" transform="translate(0.195)">
              <path id="Trazado_623311" data-name="Trazado 623311" d="M550.527,151.171s-6.88,3.688-8.072,6.818,2.355,37.446,2.355,37.446l-24.7.464-.077,14.72s39.239,3.1,40.767.979c2.064-2.869,4.463-29.684,4.463-29.684l.891-19.293S563.874,147.909,550.527,151.171Z" transform="translate(-520.028 -150.699)" fill="#e8505b"/>
            </g>
            <g id="Grupo_889401" data-name="Grupo 889401" transform="translate(25.975 35.852)" opacity="0.3">
              <g id="Grupo_889400" data-name="Grupo 889400">
                <path id="Trazado_623312" data-name="Trazado 623312" d="M552.286,223.01a23.63,23.63,0,0,0,9.888.924c3.48-.324,7.02-2.227,8.336-5.465,1.007-2.479.587-5.273.739-7.944.133-2.321.708-4.591,1.058-6.889s-.841-6.523-1.6-8.72c0,0-.881,15.93-3.373,22.617a5.477,5.477,0,0,1-1.528,2.442,6,6,0,0,1-3.229.889,93.58,93.58,0,0,1-10.756-.217" transform="translate(-551.823 -194.916)"/>
              </g>
            </g>
            <g id="Grupo_889403" data-name="Grupo 889403" transform="translate(0 14.008)">
              <g id="Grupo_889402" data-name="Grupo 889402">
                <path id="Trazado_623313" data-name="Trazado 623313" d="M566.061,167.975a2.156,2.156,0,0,1,0,.35c-.01.249-.023.589-.039,1.025-.045.921-.109,2.245-.191,3.941-.09,1.717-.2,3.809-.326,6.234-.149,2.429-.229,5.2-.527,8.252-.266,3.052-.585,6.392-.969,9.975s-.822,7.408-1.5,11.41a24.855,24.855,0,0,1-.679,3.026,5.906,5.906,0,0,1-1.781,2.668,4.51,4.51,0,0,1-3.074,1.1c-1.09.024-2.181,0-3.285-.017-4.41-.109-8.968-.335-13.635-.588-7.012-.388-13.77-.825-20.085-1.268l-.182-.013v-.182c.032-5.228.062-10.154.088-14.7l0-.169.169,0,23.845-.512,6.67-.116,1.756-.017c.4,0,.6.013.6.013s-.2.023-.6.041l-1.755.07-6.668.212-23.841.658.169-.174c-.015,4.543-.031,9.469-.049,14.7l-.18-.195c6.314.431,13.071.862,20.08,1.249,4.665.253,9.221.482,13.622.6,1.1.015,2.191.044,3.264.021a4.119,4.119,0,0,0,2.839-1,5.517,5.517,0,0,0,1.668-2.493,24.686,24.686,0,0,0,.67-2.968c.689-3.98,1.126-7.806,1.538-11.38s.733-6.915,1.017-9.964c.316-3.046.417-5.816.587-8.242.153-2.423.286-4.512.395-6.229.115-1.693.2-3.015.267-3.935.033-.435.06-.774.079-1.023A2.371,2.371,0,0,1,566.061,167.975Z" transform="translate(-519.787 -167.975)" fill="#263238"/>
              </g>
            </g>
            <g id="Grupo_889405" data-name="Grupo 889405" transform="translate(4.875 45.429)">
              <g id="Grupo_889404" data-name="Grupo 889404">
                <path id="Trazado_623314" data-name="Trazado 623314" d="M525.969,221a62.784,62.784,0,0,1-.166-7.138,63.016,63.016,0,0,1,.241-7.137,62.543,62.543,0,0,1,.166,7.138A63.054,63.054,0,0,1,525.969,221Z" transform="translate(-525.8 -206.728)" fill="#263238"/>
              </g>
            </g>
            <g id="Grupo_889407" data-name="Grupo 889407" transform="translate(1.839 47.472)">
              <g id="Grupo_889406" data-name="Grupo 889406">
                <path id="Trazado_623315" data-name="Trazado 623315" d="M522.641,209.441c-.047-.027.2-.3.669-.146a.76.76,0,0,1,.5.654.9.9,0,0,1-.5.882.92.92,0,0,1-.993-.183.831.831,0,0,1-.242-.778c.111-.466.436-.565.447-.518.04.046-.154.218-.161.553a.562.562,0,0,0,.2.463.581.581,0,0,0,.576.092.556.556,0,0,0,.3-.491.477.477,0,0,0-.247-.414C522.9,209.387,522.666,209.494,522.641,209.441Z" transform="translate(-522.055 -209.247)" fill="#263238"/>
              </g>
            </g>
          </g>
          <g id="Grupo_889409" data-name="Grupo 889409" transform="translate(57.241 27.215)">
            <path id="Trazado_623316" data-name="Trazado 623316" d="M590.385,172.08s12.852,16.8,14.418,21.384.356,11.154-2.261,14.3-4.729,1.866-4.729,1.866Z" transform="translate(-590.385 -172.08)" fill="#e8505b"/>
          </g>
          <g id="Grupo_889411" data-name="Grupo 889411" transform="translate(57.698 63.38)">
            <g id="Grupo_889410" data-name="Grupo 889410">
              <path id="Trazado_623317" data-name="Trazado 623317" d="M597.46,216.718a26.936,26.936,0,0,1-6.511,1.117,26.953,26.953,0,0,1,6.511-1.117Z" transform="translate(-590.949 -216.683)" fill="#263238"/>
            </g>
          </g>
          <g id="Grupo_889413" data-name="Grupo 889413" transform="translate(66.674 75.805)">
            <g id="Grupo_889412" data-name="Grupo 889412">
              <path id="Trazado_623318" data-name="Trazado 623318" d="M602.025,232.007a4.322,4.322,0,0,1,.349.887c.2.579.491,1.413.872,2.435a72.281,72.281,0,0,0,3.452,7.788,81.965,81.965,0,0,0,4.318,7.348c.6.912,1.1,1.645,1.442,2.149a4.357,4.357,0,0,1,.5.81,4.218,4.218,0,0,1-.629-.716c-.387-.476-.919-1.185-1.552-2.081a63.05,63.05,0,0,1-4.442-7.324,57.278,57.278,0,0,1-3.362-7.878c-.349-1.039-.6-1.89-.752-2.485A4.313,4.313,0,0,1,602.025,232.007Z" transform="translate(-602.019 -232.007)" fill="#263238"/>
            </g>
          </g>
          <g id="Grupo_889415" data-name="Grupo 889415" transform="translate(67.553 77.796)" opacity="0.3">
            <g id="Grupo_889414" data-name="Grupo 889414">
              <path id="Trazado_623319" data-name="Trazado 623319" d="M603.1,234.463c2.037,3.63,4.13,7.33,7.233,10.105a18.7,18.7,0,0,1,3.156,3.058,3.847,3.847,0,0,1,.4,4.136,1.3,1.3,0,0,1-1.281.692,1.643,1.643,0,0,1-.838-.68,50.055,50.055,0,0,1-8.534-16.756" transform="translate(-603.103 -234.463)"/>
            </g>
          </g>
          <g id="Grupo_889417" data-name="Grupo 889417" transform="translate(58.321 29.749)" opacity="0.3">
            <g id="Grupo_889416" data-name="Grupo 889416">
              <path id="Trazado_623320" data-name="Trazado 623320" d="M599.252,210.157a6.216,6.216,0,0,0,2.115-5.821,21.554,21.554,0,0,0-2.135-6.111,100.615,100.615,0,0,1-6.259-18.359l-1.256-4.661,6.358,33.259Z" transform="translate(-591.717 -175.205)"/>
            </g>
          </g>
          <g id="Grupo_889419" data-name="Grupo 889419" transform="translate(34.037 4.066)">
            <g id="Grupo_889418" data-name="Grupo 889418">
              <path id="Trazado_623321" data-name="Trazado 623321" d="M561.769,148.321a28.438,28.438,0,0,1,2.4-2.393,28.527,28.527,0,0,1,2.393-2.4,14.217,14.217,0,0,1-4.788,4.789Z" transform="translate(-561.766 -143.529)" fill="#263238"/>
            </g>
          </g>
          <g id="Grupo_889421" data-name="Grupo 889421" transform="translate(23.193 11.697)">
            <g id="Grupo_889420" data-name="Grupo 889420">
              <path id="Trazado_623322" data-name="Trazado 623322" d="M557.94,152.949c.02.068-.742.3-1.88.86a14.939,14.939,0,0,0-6.822,6.9c-.549,1.144-.769,1.909-.838,1.889-.028-.007.006-.2.088-.555a9.247,9.247,0,0,1,.486-1.451,13.42,13.42,0,0,1,6.964-7.047,9.17,9.17,0,0,1,1.445-.5A1.521,1.521,0,0,1,557.94,152.949Z" transform="translate(-548.391 -152.94)" fill="#263238"/>
            </g>
          </g>
          <g id="Grupo_889423" data-name="Grupo 889423" transform="translate(57.464 27.574)">
            <g id="Grupo_889422" data-name="Grupo 889422">
              <path id="Trazado_623323" data-name="Trazado 623323" d="M600.454,212.992a1.366,1.366,0,0,1-.2-.323l-.515-.964-1.849-3.619-.007-.014,0-.019c-.8-3.683-1.941-9.053-3.177-15.027-1.142-5.629-2.174-10.724-2.936-14.482l-.843-4.4c-.084-.484-.154-.881-.209-1.2a.214.214,0,1,1,.08-.017l.284,1.185c.242,1.09.57,2.569.971,4.372.792,3.752,1.866,8.837,3.052,14.458,1.236,5.973,2.324,11.355,3.048,15.054l-.011-.033c.72,1.523,1.305,2.762,1.738,3.674l.45,1A1.426,1.426,0,0,1,600.454,212.992Z" transform="translate(-590.66 -172.522)" fill="#263238"/>
            </g>
          </g>
          <g id="Grupo_889425" data-name="Grupo 889425" transform="translate(21.755 23.429)">
            <g id="Grupo_889424" data-name="Grupo 889424">
              <path id="Trazado_623324" data-name="Trazado 623324" d="M549.413,198.584a7.229,7.229,0,0,1-.188-1.218c-.093-.859-.215-1.982-.362-3.335-.288-2.817-.658-6.712-1.042-11.016s-.709-8.2-.924-11.029c-.095-1.357-.173-2.483-.234-3.345a7.24,7.24,0,0,1-.03-1.231,7.033,7.033,0,0,1,.188,1.219c.093.859.216,1.982.362,3.335.289,2.818.658,6.712,1.043,11.016s.709,8.2.923,11.025c.095,1.357.174,2.484.234,3.346A7.059,7.059,0,0,1,549.413,198.584Z" transform="translate(-546.618 -167.41)" fill="#263238"/>
            </g>
          </g>
        </g>
        <g id="Grupo_889444" data-name="Grupo 889444" transform="translate(0 87.341)">
          <g id="Grupo_889429" data-name="Grupo 889429">
            <g id="Grupo_889427" data-name="Grupo 889427" transform="translate(0 3.29)">
              <path id="Trazado_623325" data-name="Trazado 623325" d="M516.214,207.545s-5.328-4.042-6.628-4.286c-1-.186-6.942-.088-9.677-.031a1.957,1.957,0,0,0-1.962,1.9,1.036,1.036,0,0,0,.019.193,1.784,1.784,0,0,0,1.3,1.352,2.073,2.073,0,0,0-1.44,1.95c-.023,1.544,1.846,1.869,1.846,1.869a2.773,2.773,0,0,0-.267.238,1.842,1.842,0,0,0,.9,3.092l.843.191a1.825,1.825,0,0,0-1.125,1.534c.031,2.033,4.6,2.422,4.6,2.422s11.3,1.788,11.539,1.707S516.214,207.545,516.214,207.545Z" transform="translate(-497.826 -203.15)" fill="#ffbe9d"/>
            </g>
            <g id="Grupo_889428" data-name="Grupo 889428" transform="translate(3.132)">
              <path id="Trazado_623326" data-name="Trazado 623326" d="M501.691,200.057a3.3,3.3,0,0,0,1.347,2.741l6.294-.246s-4.687-1.618-5.354-2.417a5.417,5.417,0,0,0-.9-.879A.89.89,0,0,0,501.691,200.057Z" transform="translate(-501.689 -199.093)" fill="#ffbe9d"/>
            </g>
          </g>
          <g id="Grupo_889431" data-name="Grupo 889431" transform="translate(2.073 3.19)">
            <g id="Grupo_889430" data-name="Grupo 889430">
              <path id="Trazado_623327" data-name="Trazado 623327" d="M506.124,203.234a9.238,9.238,0,0,1-2.874.2,11.663,11.663,0,0,1-2.868-.2,9.239,9.239,0,0,1,2.874-.2A11.67,11.67,0,0,1,506.124,203.234Z" transform="translate(-500.382 -203.027)" fill="#eb996e"/>
            </g>
          </g>
          <g id="Grupo_889433" data-name="Grupo 889433" transform="translate(1.462 6.68)">
            <g id="Grupo_889432" data-name="Grupo 889432">
              <path id="Trazado_623328" data-name="Trazado 623328" d="M504.568,207.563a9.119,9.119,0,0,1-4.939-.176,46.775,46.775,0,0,1,4.939.176Z" transform="translate(-499.629 -207.332)" fill="#eb996e"/>
            </g>
          </g>
          <g id="Grupo_889435" data-name="Grupo 889435" transform="translate(8.487 6.449)">
            <g id="Grupo_889434" data-name="Grupo 889434">
              <path id="Trazado_623329" data-name="Trazado 623329" d="M509.41,207.061c.093.058-.028.4-.383.629s-.718.2-.732.092.234-.25.511-.433S509.315,207,509.41,207.061Z" transform="translate(-508.294 -207.047)" fill="#eb996e"/>
            </g>
          </g>
          <g id="Grupo_889437" data-name="Grupo 889437" transform="translate(1.683 10.588)">
            <g id="Grupo_889436" data-name="Grupo 889436">
              <path id="Trazado_623330" data-name="Trazado 623330" d="M505.312,212.462a18.134,18.134,0,0,1-5.411-.178,18.134,18.134,0,0,1,5.411.178Z" transform="translate(-499.901 -212.152)" fill="#eb996e"/>
            </g>
          </g>
          <g id="Grupo_889439" data-name="Grupo 889439" transform="translate(9.376 9.215)">
            <g id="Grupo_889438" data-name="Grupo 889438">
              <path id="Trazado_623331" data-name="Trazado 623331" d="M510.7,210.46c.05-.015.148.113.178.36a1.3,1.3,0,0,1-1.1,1.4c-.248.029-.394-.036-.392-.088,0-.111.542-.182.9-.644S510.6,210.483,510.7,210.46Z" transform="translate(-509.39 -210.459)" fill="#eb996e"/>
            </g>
          </g>
          <g id="Grupo_889441" data-name="Grupo 889441" transform="translate(3.2 14.143)">
            <g id="Grupo_889440" data-name="Grupo 889440">
              <path id="Trazado_623332" data-name="Trazado 623332" d="M506.617,217.2a14.717,14.717,0,0,1-4.845-.6,14.775,14.775,0,0,1,4.845.6Z" transform="translate(-501.772 -216.536)" fill="#eb996e"/>
            </g>
          </g>
          <g id="Grupo_889443" data-name="Grupo 889443" transform="translate(10.296 12.819)">
            <g id="Grupo_889442" data-name="Grupo 889442">
              <path id="Trazado_623333" data-name="Trazado 623333" d="M511.785,214.9c.052-.007.13.131.122.375a1.517,1.517,0,0,1-.337.855c-.461.558-.978.76-1.035.684-.081-.1.334-.466.714-.933S511.679,214.922,511.785,214.9Z" transform="translate(-510.524 -214.903)" fill="#eb996e"/>
            </g>
          </g>
        </g>
        <g id="Grupo_889445" data-name="Grupo 889445" transform="translate(89.532 134.473)">
          <path id="Trazado_623334" data-name="Trazado 623334" d="M608.856,261.509a7.2,7.2,0,0,0,5.458-3.439c.129-.217.24-.514.071-.7a.624.624,0,0,0-.476-.143,14.781,14.781,0,0,0-5.172.887.7.7,0,0,0-.464.347.713.713,0,0,0,.022.426l.664,2.557" transform="translate(-608.249 -257.223)" fill="#e8505b"/>
        </g>
        <g id="Grupo_889447" data-name="Grupo 889447" transform="translate(89.532 134.473)" opacity="0.4">
          <g id="Grupo_889446" data-name="Grupo 889446">
            <path id="Trazado_623335" data-name="Trazado 623335" d="M608.856,261.509a7.2,7.2,0,0,0,5.458-3.439c.129-.217.24-.514.071-.7a.624.624,0,0,0-.476-.143,14.781,14.781,0,0,0-5.172.887.7.7,0,0,0-.464.347.713.713,0,0,0,.022.426l.664,2.557" transform="translate(-608.249 -257.223)"/>
          </g>
        </g>
        <g id="Grupo_889453" data-name="Grupo 889453" transform="translate(34.99 49.712)">
          <g id="Grupo_889448" data-name="Grupo 889448">
            <path id="Trazado_623336" data-name="Trazado 623336" d="M542.982,152.684s-2.591,8.7-1.877,8.2,2.262-1.867,2.262-1.867Z" transform="translate(-540.98 -152.684)" fill="#ebebeb"/>
          </g>
          <g id="Grupo_889449" data-name="Grupo 889449" transform="translate(0.356 4.01)">
            <path id="Trazado_623337" data-name="Trazado 623337" d="M543.214,157.63l-1.417,3.387a4.615,4.615,0,0,0-.275,1.094c-.117.949-.252,2.688.313,2.809a1.9,1.9,0,0,0,1.515-.626Z" transform="translate(-541.419 -157.63)" fill="#263238"/>
          </g>
          <g id="Grupo_889452" data-name="Grupo 889452" transform="translate(0.183 1.942)">
            <g id="Grupo_889450" data-name="Grupo 889450">
              <path id="Trazado_623338" data-name="Trazado 623338" d="M587.12,157.682s-13.862-5.408-21.537-.632-9.074,12.4-13.644,12.4c-8.914,0-8.629-6.29-8.629-6.29l-1.895.574c-.036,1.287-2.066,10.527,7.328,11.673s13.342-11.661,21.793-11.673A28.052,28.052,0,0,1,585.4,168.3l6.071-3.84Z" transform="translate(-541.206 -155.079)" fill="#263238"/>
            </g>
            <g id="Grupo_889451" data-name="Grupo 889451" transform="translate(10.346 0.722)">
              <path id="Trazado_623339" data-name="Trazado 623339" d="M553.966,175.418a13.025,13.025,0,0,0,5.347-6.135c2.154-4.969,6.776-10.641,10.636-12.066s12.79-2.42,18.958,1.6l3.951,5.337-5.129,3.327a47.628,47.628,0,0,0-9.038-3.619c-6.375-1.78-10.249.23-13.955,3.738-.23.219-.442.435-.627.643a42.036,42.036,0,0,1-5.868,5.2A9.244,9.244,0,0,1,553.966,175.418Z" transform="translate(-553.966 -155.969)" fill="#455a64"/>
            </g>
          </g>
        </g>
      </g>
    </g>
    <g id="Flag" transform="translate(103.478 38.541)">
      <g id="Grupo_889462" data-name="Grupo 889462">
        <g id="Grupo_889455" data-name="Grupo 889455" transform="translate(0.34)">
          <path id="Trazado_623340" data-name="Trazado 623340" d="M184.52,77.731C176.3,79,170.271,72.091,168.349,65.942c-1.774-5.676-2.617-11.581-5.111-16.979-3.483-7.545-12.711-11.032-20.993-10.335S125.62,43.476,118.293,47.4l2.021,45.419s15.956-16.99,23.622-17.3c12.793-.516,12.1,20.511,24.518,23.616,0,0,17.414,4.721,29.188-10.486,7.472-9.651,8.134-21.376,8.134-21.376S200.053,75.338,184.52,77.731Z" transform="translate(-118.293 -38.541)" fill="#e8505b"/>
        </g>
        <g id="Grupo_889457" data-name="Grupo 889457" transform="translate(0 1.32)">
          <g id="Grupo_889456" data-name="Grupo 889456">
            <path id="Trazado_623341" data-name="Trazado 623341" d="M117.878,40.17c.113,0,2.35,48.226,5,107.711,2.648,59.507,4.7,107.736,4.591,107.741s-2.349-48.215-5-107.722C119.821,88.414,117.766,40.176,117.878,40.17Z" transform="translate(-117.874 -40.17)" fill="#263238"/>
          </g>
        </g>
        <g id="Grupo_889459" data-name="Grupo 889459" transform="translate(43.918 24.259)" opacity="0.2">
          <g id="Grupo_889458" data-name="Grupo 889458">
            <path id="Trazado_623342" data-name="Trazado 623342" d="M172.04,68.461a55.268,55.268,0,0,0,6.046,13.633c2.368,3.708,5.959,6.829,10.266,7.728a9.965,9.965,0,0,1,2.3.6,2.228,2.228,0,0,1,1.372,1.806c.033,1.189-1.2,1.968-2.264,2.494a18.651,18.651,0,0,1-4.726,1.816c-1.664.311-2.968.485-4.111-.765a23.881,23.881,0,0,1-2.973-3.563c-3.753-6.395-5.61-15.542-5.915-22.779" transform="translate(-172.04 -68.461)"/>
          </g>
        </g>
        <g id="Grupo_889461" data-name="Grupo 889461" transform="translate(43.152 14.803)">
          <g id="Grupo_889460" data-name="Grupo 889460">
            <path id="Trazado_623343" data-name="Trazado 623343" d="M182.979,95.421a1.666,1.666,0,0,1-.37-.211c-.234-.151-.568-.39-.982-.722a16.9,16.9,0,0,1-3.032-3.294,25.275,25.275,0,0,1-3.036-5.905,65.016,65.016,0,0,1-2.248-7.8,87.145,87.145,0,0,1-2.1-14.584c-.1-1.884-.122-3.411-.121-4.465.011-.49.019-.89.027-1.214a1.636,1.636,0,0,1,.038-.423,1.707,1.707,0,0,1,.044.422c.013.323.029.723.049,1.212.047,1.052.109,2.573.25,4.448a97.483,97.483,0,0,0,2.2,14.512,69.632,69.632,0,0,0,2.2,7.766,26.051,26.051,0,0,0,2.921,5.87,18.44,18.44,0,0,0,2.9,3.339C182.516,95.063,183,95.392,182.979,95.421Z" transform="translate(-171.095 -56.799)" fill="#263238"/>
          </g>
        </g>
      </g>
    </g>
    <g id="Stairs" transform="translate(53.907 251.584)">
      <g id="Grupo_889463" data-name="Grupo 889463" transform="translate(0 13.319)">
        <path id="Trazado_623344" data-name="Trazado 623344" d="M56.736,317.722,165.361,335.5V317.722Z" transform="translate(-56.736 -317.722)" fill="#e0e0e0"/>
      </g>
      <g id="Grupo_889464" data-name="Grupo 889464" transform="translate(126.557 53.491)">
        <path id="Trazado_623345" data-name="Trazado 623345" d="M212.824,367.267,321.448,385.05V367.267Z" transform="translate(-212.824 -367.267)" fill="#e0e0e0"/>
      </g>
      <g id="Grupo_889465" data-name="Grupo 889465" transform="translate(252.241 91.918)">
        <path id="Trazado_623346" data-name="Trazado 623346" d="M367.836,414.662,476.46,432.444V414.662Z" transform="translate(-367.836 -414.662)" fill="#e0e0e0"/>
      </g>
      <g id="Grupo_889466" data-name="Grupo 889466" transform="translate(377.76 122.498)">
        <path id="Trazado_623347" data-name="Trazado 623347" d="M522.643,452.376l108.625,17.783V452.376Z" transform="translate(-522.643 -452.376)" fill="#e0e0e0"/>
      </g>
      <g id="Grupo_889469" data-name="Grupo 889469">
        <g id="Grupo_889467" data-name="Grupo 889467">
          <rect id="Rectángulo_296567" data-name="Rectángulo 296567" width="108.625" height="13.319" fill="#e8505b"/>
        </g>
        <g id="Grupo_889468" data-name="Grupo 889468" transform="translate(74.728)" opacity="0.3">
          <rect id="Rectángulo_296568" data-name="Rectángulo 296568" width="33.896" height="13.319"/>
        </g>
      </g>
      <g id="Grupo_889472" data-name="Grupo 889472" transform="translate(126.557 40.172)">
        <g id="Grupo_889470" data-name="Grupo 889470">
          <rect id="Rectángulo_296569" data-name="Rectángulo 296569" width="108.625" height="13.319" fill="#e8505b"/>
        </g>
        <g id="Grupo_889471" data-name="Grupo 889471" transform="translate(74.728)" opacity="0.3">
          <rect id="Rectángulo_296570" data-name="Rectángulo 296570" width="33.896" height="13.319"/>
        </g>
      </g>
      <g id="Grupo_889475" data-name="Grupo 889475" transform="translate(252.241 78.599)">
        <g id="Grupo_889473" data-name="Grupo 889473">
          <rect id="Rectángulo_296571" data-name="Rectángulo 296571" width="108.625" height="13.319" fill="#e8505b"/>
        </g>
        <g id="Grupo_889474" data-name="Grupo 889474" transform="translate(74.728)" opacity="0.3">
          <rect id="Rectángulo_296572" data-name="Rectángulo 296572" width="33.896" height="13.319"/>
        </g>
      </g>
      <g id="Grupo_889478" data-name="Grupo 889478" transform="translate(377.926 109.178)">
        <g id="Grupo_889476" data-name="Grupo 889476">
          <rect id="Rectángulo_296573" data-name="Rectángulo 296573" width="108.625" height="13.319" fill="#e8505b"/>
        </g>
        <g id="Grupo_889477" data-name="Grupo 889477" transform="translate(74.728)" opacity="0.3">
          <rect id="Rectángulo_296574" data-name="Rectángulo 296574" width="33.896" height="13.319"/>
        </g>
      </g>
      <g id="Grupo_889480" data-name="Grupo 889480" transform="translate(419.608 57.744)">
        <g id="Grupo_889479" data-name="Grupo 889479">
          <path id="Trazado_623348" data-name="Trazado 623348" d="M574.256,375.468a2.954,2.954,0,1,0,2.954-2.955A2.954,2.954,0,0,0,574.256,375.468Z" transform="translate(-574.256 -372.513)" fill="#ebebeb"/>
        </g>
      </g>
    </g>
  </g>
</svg>
