<svg xmlns="http://www.w3.org/2000/svg" xmlns:xlink="http://www.w3.org/1999/xlink" width="493" height="329" viewBox="0 0 493 329">
  <defs>
    <clipPath id="clip-path">
      <rect id="Rectángulo_296431" data-name="Rectángulo 296431" width="493" height="329" transform="translate(0 0)" fill="none"/>
    </clipPath>
  </defs>
  <g id="Grupo_896289" data-name="Grupo 896289" transform="translate(0 0.313)">
    <g id="OBJECTS" transform="translate(0 -0.313)">
      <g id="Grupo_887903" data-name="Grupo 887903" transform="translate(95.763 22.331)">
        <g id="Grupo_887897" data-name="Grupo 887897" transform="translate(0 33.52)">
          <path id="Trazado_621566" data-name="Trazado 621566" d="M248.385,92.615V197.793a8.15,8.15,0,0,1-4.094,7.071,8.067,8.067,0,0,1-4.065,1.088H153.849a8.159,8.159,0,0,1-8.16-8.159V92.615a8.2,8.2,0,0,1,1.088-4.075,7.851,7.851,0,0,1,1.489-1.871,8.1,8.1,0,0,1,5.583-2.224h86.377A8.164,8.164,0,0,1,248.385,92.615Z" transform="translate(-145.689 -84.446)" fill="#fefffe"/>
          <rect id="Rectángulo_296414" data-name="Rectángulo 296414" width="87.113" height="106.212" transform="translate(7.792 7.647)" fill="#cae2ff"/>
          <g id="Grupo_887896" data-name="Grupo 887896" transform="translate(17.931 37.587)">
            <g id="Grupo_887894" data-name="Grupo 887894" transform="translate(0 13.45)">
              <rect id="Rectángulo_296415" data-name="Rectángulo 296415" width="45.315" height="6.641" transform="translate(21.517)" fill="#fefffe"/>
              <rect id="Rectángulo_296416" data-name="Rectángulo 296416" width="15.571" height="6.641" fill="#fefffe"/>
            </g>
            <rect id="Rectángulo_296417" data-name="Rectángulo 296417" width="66.833" height="6.641" transform="translate(66.833 6.641) rotate(180)" fill="#fefffe"/>
            <rect id="Rectángulo_296418" data-name="Rectángulo 296418" width="51.902" height="6.641" transform="translate(51.903 33.541) rotate(180)" fill="#fefffe"/>
            <g id="Grupo_887895" data-name="Grupo 887895" transform="translate(0 39.24)">
              <path id="Trazado_621567" data-name="Trazado 621567" d="M172.969,204.874a3.546,3.546,0,1,1,3.546,3.546A3.546,3.546,0,0,1,172.969,204.874Z" transform="translate(-172.969 -201.328)" fill="#fefffe"/>
              <path id="Trazado_621568" data-name="Trazado 621568" d="M196.557,204.874a3.546,3.546,0,1,1,3.546,3.546A3.546,3.546,0,0,1,196.557,204.874Z" transform="translate(-181.052 -201.328)" fill="#fefffe"/>
              <path id="Trazado_621569" data-name="Trazado 621569" d="M220.144,204.874a3.546,3.546,0,1,1,3.546,3.546A3.546,3.546,0,0,1,220.144,204.874Z" transform="translate(-189.135 -201.328)" fill="#fefffe"/>
            </g>
          </g>
        </g>
        <g id="Grupo_887899" data-name="Grupo 887899" transform="translate(247.933)">
          <path id="Trazado_621570" data-name="Trazado 621570" d="M625.578,41.619V146.8a8.15,8.15,0,0,1-4.094,7.071,8.065,8.065,0,0,1-4.065,1.088H531.042a8.159,8.159,0,0,1-8.16-8.159V41.619a8.2,8.2,0,0,1,1.089-4.075,7.832,7.832,0,0,1,1.488-1.871,8.1,8.1,0,0,1,5.583-2.224h86.377A8.164,8.164,0,0,1,625.578,41.619Z" transform="translate(-522.882 -33.45)" fill="#fefffe"/>
          <rect id="Rectángulo_296419" data-name="Rectángulo 296419" width="87.113" height="106.212" transform="translate(7.792 7.647)" fill="#cae2ff"/>
          <g id="Grupo_887898" data-name="Grupo 887898" transform="translate(25.48 31.672)">
            <rect id="Rectángulo_296420" data-name="Rectángulo 296420" width="29.738" height="29.738" fill="#fefffe"/>
            <rect id="Rectángulo_296421" data-name="Rectángulo 296421" width="17.977" height="17.977" transform="translate(33.117 37.745)" fill="#fefffe"/>
          </g>
        </g>
        <g id="Grupo_887902" data-name="Grupo 887902" transform="translate(183.661 97.673)">
          <path id="Trazado_621571" data-name="Trazado 621571" d="M502.971,188.239V267.99a6.193,6.193,0,0,1-6.187,6.187h-65.5a6.187,6.187,0,0,1-6.187-6.187V188.239a6.226,6.226,0,0,1,.825-3.09,5.949,5.949,0,0,1,1.129-1.418,6.138,6.138,0,0,1,4.233-1.686h65.5A6.19,6.19,0,0,1,502.971,188.239Z" transform="translate(-425.101 -182.045)" fill="#fefffe"/>
          <rect id="Rectángulo_296422" data-name="Rectángulo 296422" width="66.053" height="80.536" transform="translate(5.908 5.798)" fill="#e0edff"/>
          <g id="Grupo_887901" data-name="Grupo 887901" transform="translate(13.597 28.5)">
            <g id="Grupo_887900" data-name="Grupo 887900" transform="translate(0 10.198)">
              <rect id="Rectángulo_296423" data-name="Rectángulo 296423" width="34.36" height="5.036" transform="translate(50.676 5.036) rotate(180)" fill="#fefffe"/>
              <rect id="Rectángulo_296424" data-name="Rectángulo 296424" width="11.807" height="5.036" transform="translate(11.807 5.036) rotate(180)" fill="#fefffe"/>
            </g>
            <rect id="Rectángulo_296425" data-name="Rectángulo 296425" width="50.676" height="5.036" transform="translate(0 20.397)" fill="#fefffe"/>
            <rect id="Rectángulo_296426" data-name="Rectángulo 296426" width="39.355" height="5.036" transform="translate(0)" fill="#fefffe"/>
          </g>
        </g>
      </g>
      <g id="Grupo_887912" data-name="Grupo 887912" transform="translate(158.431 37.085)">
        <g id="Grupo_887904" data-name="Grupo 887904" transform="translate(0 3.964)">
          <path id="Trazado_621572" data-name="Trazado 621572" d="M503.409,175.713l8.573-16.888H485.047l6.258,25.584c.766,1.534,4.721-1.66,8.237-4.191A12.563,12.563,0,0,0,503.409,175.713Z" transform="translate(-324.651 -95.131)" fill="#2b41b3"/>
          <path id="Trazado_621573" data-name="Trazado 621573" d="M445.448,75.5v38.735c0,3.674-4.7,10.4-9.2,13.771a9.068,9.068,0,0,0,2.851-6.614V78.2a9.122,9.122,0,0,0-9.119-9.119H250.747a9.1,9.1,0,0,0-7.961,4.682c2.23-5.111,10.031-11.838,14.313-11.838H431.875A13.573,13.573,0,0,1,445.448,75.5Z" transform="translate(-241.631 -61.925)" fill="#2b41b3"/>
          <rect id="Rectángulo_296427" data-name="Rectángulo 296427" width="197.465" height="61.427" rx="13.719" transform="translate(0 7.158)" fill="#5773ff"/>
          <path id="Trazado_621574" data-name="Trazado 621574" d="M490.967,184.121,501.8,162.454H474.865L485.7,184.121A2.946,2.946,0,0,0,490.967,184.121Z" transform="translate(-321.162 -96.375)" fill="#5773ff"/>
          <path id="Trazado_621575" data-name="Trazado 621575" d="M445.448,75.5v38.735c0,3.674-4.7,10.4-9.2,13.771a9.068,9.068,0,0,0,2.851-6.614V78.2a9.122,9.122,0,0,0-9.119-9.119H250.747a9.1,9.1,0,0,0-7.961,4.682c2.23-5.111,10.031-11.838,14.313-11.838H431.875A13.573,13.573,0,0,1,445.448,75.5Z" transform="translate(-241.631 -61.925)" fill="#2b41b3"/>
        </g>
        <g id="Grupo_887910" data-name="Grupo 887910" transform="translate(16.827 28.724)">
          <path id="Trazado_621576" data-name="Trazado 621576" d="M501.557,109.39l-6.889,7.359,2.714,8.769a.165.165,0,0,1-.01.137.228.228,0,0,1-.314.137l-9.014-4.429-8.838,4.341a.317.317,0,0,1-.441-.383l2.646-8.573-6.859-7.32a.4.4,0,0,1,.206-.657l4.723-1.009,4.194-.9,4.115-7.113a.288.288,0,0,1,.51,0l4.106,7.113,8.966,1.921A.365.365,0,0,1,501.557,109.39Z" transform="translate(-337.845 -99.594)" fill="#2b41b3"/>
          <g id="Grupo_887905" data-name="Grupo 887905">
            <path id="Trazado_621577" data-name="Trazado 621577" d="M293.74,109.39l-6.889,7.359,2.715,8.769a.167.167,0,0,1-.01.137.228.228,0,0,1-.314.137l-9.015-4.429-8.838,4.341a.318.318,0,0,1-.441-.383l2.646-8.573-6.859-7.32a.4.4,0,0,1,.206-.657l4.723-1.009,4.194-.9,4.115-7.113a.287.287,0,0,1,.509,0l4.106,7.113,8.966,1.921A.365.365,0,0,1,293.74,109.39Z" transform="translate(-266.629 -99.594)" fill="#fcd535"/>
            <path id="Trazado_621578" data-name="Trazado 621578" d="M288.539,101.274l3.557,6.164,8.966,1.921" transform="translate(-274.137 -100.17)" fill="none" stroke="#bf8d00" stroke-miterlimit="10" stroke-width="1"/>
            <path id="Trazado_621579" data-name="Trazado 621579" d="M301.179,119.541l-3.785,4.043,2.714,8.77" transform="translate(-277.172 -106.43)" fill="none" stroke="#bf8d00" stroke-miterlimit="10" stroke-width="1"/>
            <path id="Trazado_621580" data-name="Trazado 621580" d="M288.539,107.424l2.528,4.65,3.733.7" transform="translate(-274.137 -102.277)" fill="none" stroke="#f9f1de" stroke-miterlimit="10" stroke-width="1"/>
          </g>
          <g id="Grupo_887907" data-name="Grupo 887907" transform="translate(34.214)">
            <g id="Grupo_887906" data-name="Grupo 887906">
              <path id="Trazado_621581" data-name="Trazado 621581" d="M345.791,109.39l-6.888,7.359,2.714,8.769a.165.165,0,0,1-.01.137.228.228,0,0,1-.314.137l-9.015-4.429-8.838,4.341a.318.318,0,0,1-.441-.383l2.646-8.573-6.859-7.32a.4.4,0,0,1,.206-.657l4.723-1.009,4.194-.9,4.115-7.113a.287.287,0,0,1,.509,0l4.106,7.113,8.966,1.921A.365.365,0,0,1,345.791,109.39Z" transform="translate(-318.68 -99.594)" fill="#fcd535"/>
            </g>
            <path id="Trazado_621582" data-name="Trazado 621582" d="M356.334,114.5l-6.888,7.359,2.7,8.907" transform="translate(-329.223 -104.701)" fill="none" stroke="#bf8d00" stroke-miterlimit="10" stroke-width="1"/>
            <path id="Trazado_621583" data-name="Trazado 621583" d="M340.933,107.424l2.528,4.65,3.733.7" transform="translate(-326.306 -102.277)" fill="none" stroke="#f9f1de" stroke-miterlimit="10" stroke-width="1"/>
          </g>
          <g id="Grupo_887908" data-name="Grupo 887908" transform="translate(68.679)">
            <path id="Trazado_621584" data-name="Trazado 621584" d="M398.225,109.39l-6.889,7.359,2.714,8.769a.167.167,0,0,1-.009.137.229.229,0,0,1-.314.137l-9.014-4.429-8.838,4.341a.317.317,0,0,1-.441-.383l2.646-8.573-6.859-7.32a.4.4,0,0,1,.206-.657l4.723-1.009,4.194-.9,4.115-7.113a.288.288,0,0,1,.51,0l4.106,7.113,8.966,1.921A.365.365,0,0,1,398.225,109.39Z" transform="translate(-371.114 -99.594)" fill="#fcd535"/>
            <path id="Trazado_621585" data-name="Trazado 621585" d="M393.356,101.85l3.339,5.785,9.4,2.015a.294.294,0,0,1,.148.494l-7.29,7.378,2.094,6.765" transform="translate(-378.736 -100.367)" fill="none" stroke="#bf8d00" stroke-miterlimit="10" stroke-width="1"/>
            <path id="Trazado_621586" data-name="Trazado 621586" d="M393.356,107.424l2.528,4.65,3.733.7" transform="translate(-378.736 -102.277)" fill="none" stroke="#f9f1de" stroke-miterlimit="10" stroke-width="1"/>
          </g>
          <g id="Grupo_887909" data-name="Grupo 887909" transform="translate(102.893)">
            <path id="Trazado_621587" data-name="Trazado 621587" d="M450.276,109.39l-6.889,7.359,2.715,8.769a.17.17,0,0,1-.01.137.229.229,0,0,1-.314.137l-9.015-4.429-8.838,4.341a.317.317,0,0,1-.441-.383l2.646-8.573-6.859-7.32a.4.4,0,0,1,.206-.657l4.723-1.009,4.194-.9,4.115-7.113a.287.287,0,0,1,.509,0l4.106,7.113,8.966,1.921A.366.366,0,0,1,450.276,109.39Z" transform="translate(-423.165 -99.594)" fill="#fcd535"/>
            <path id="Trazado_621588" data-name="Trazado 621588" d="M459.78,116.185l-5.85,6.25,2.714,8.77" transform="translate(-433.708 -105.28)" fill="none" stroke="#bf8d00" stroke-miterlimit="10" stroke-width="1"/>
            <path id="Trazado_621589" data-name="Trazado 621589" d="M445.5,107.424l2.528,4.65,3.733.7" transform="translate(-430.82 -102.277)" fill="none" stroke="#f9f1de" stroke-miterlimit="10" stroke-width="1"/>
          </g>
        </g>
        <g id="Grupo_887911" data-name="Grupo 887911" transform="translate(0.657 11.122)">
          <path id="Trazado_621590" data-name="Trazado 621590" d="M311.3,134.242H251.047a9.017,9.017,0,0,1-9.018-9.017V81.833a9.017,9.017,0,0,1,9.018-9.018h34.077" transform="translate(-242.029 -72.815)" fill="none" stroke="#0d1a5e" stroke-miterlimit="10" stroke-width="1"/>
          <line id="Línea_351" data-name="Línea 351" x1="15.125" transform="translate(73.091 61.427)" fill="none" stroke="#0d1a5e" stroke-miterlimit="10" stroke-width="1"/>
        </g>
        <path id="Trazado_621591" data-name="Trazado 621591" d="M445.089,55.9h60.076A13.574,13.574,0,0,1,518.74,69.468V95.714" transform="translate(-310.958 -55.895)" fill="none" stroke="#0d1a5e" stroke-miterlimit="10" stroke-width="1"/>
      </g>
      <g id="Grupo_887937" data-name="Grupo 887937">
        <g id="Grupo_887936" data-name="Grupo 887936" clip-path="url(#clip-path)">
          <g id="Grupo_887924" data-name="Grupo 887924" transform="translate(42.924 131.449)">
            <g id="Grupo_887919" data-name="Grupo 887919" transform="translate(25.626 12.08)">
              <path id="Trazado_621592" data-name="Trazado 621592" d="M143.217,335.039l-11.322,31.35,44.595,5.249,1.6,14.37-58.933,1.8a14.074,14.074,0,0,1-14.479-17.3l10.408-43.872a14.734,14.734,0,0,1,16.771-11.538h0A14.734,14.734,0,0,1,143.217,335.039Z" transform="translate(-104.29 -251.098)" fill="#2b41b3"/>
              <path id="Trazado_621593" data-name="Trazado 621593" d="M136.207,310.331h0a124.2,124.2,0,0,1,46.767,3.6l4.142,1.135c8.818,2.416,13.972,11.014,11.609,19.364l-16.136,57-53-3.206-8.126-60.1C120.277,319.375,126.9,311.388,136.207,310.331Z" transform="translate(-110.127 -249.26)" fill="#3954d7"/>
              <g id="Grupo_887917" data-name="Grupo 887917" transform="translate(129.015)">
                <g id="Grupo_887914" data-name="Grupo 887914">
                  <path id="Trazado_621594" data-name="Trazado 621594" d="M359.942,249.277l-20.16,8.379-2.466,19.73a.36.36,0,0,1-.142.262.5.5,0,0,1-.741-.009l-13.841-16.783-21.316.683a.687.687,0,0,1-.529-1.147l12.869-14.562-7.008-20.565a.855.855,0,0,1,.992-1.112l10.221,2.221,9.081,1.962,14.468-10.369a.623.623,0,0,1,1.006.455l1.757,17.7,15.983,11.788A.792.792,0,0,1,359.942,249.277Z" transform="translate(-300.566 -217.833)" fill="#fcd535"/>
                  <g id="Grupo_887913" data-name="Grupo 887913" transform="translate(27.224 29.655)">
                    <path id="Trazado_621595" data-name="Trazado 621595" d="M341.983,291.818,347.261,299" transform="translate(-341.983 -272.842)" fill="none" stroke="#bf8d00" stroke-miterlimit="10" stroke-width="1"/>
                    <path id="Trazado_621596" data-name="Trazado 621596" d="M351.349,304.236l2.239,2.732" transform="translate(-345.193 -277.098)" fill="none" stroke="#bf8d00" stroke-miterlimit="10" stroke-width="1"/>
                    <path id="Trazado_621597" data-name="Trazado 621597" d="M360.159,273.056q9.434-4.283,19.188-7.807a2.7,2.7,0,0,0,1.432-.9c.313-.48.159-1.29-.4-1.4" transform="translate(-348.212 -262.949)" fill="none" stroke="#bf8d00" stroke-miterlimit="10" stroke-width="1"/>
                    <path id="Trazado_621598" data-name="Trazado 621598" d="M356.844,282.607c.362-2.821.723-5.642,1.1-8.717l8.02-3.253" transform="translate(-347.076 -265.584)" fill="none" stroke="#f9f1de" stroke-miterlimit="10" stroke-width="1"/>
                  </g>
                </g>
                <g id="Grupo_887916" data-name="Grupo 887916" transform="translate(6.996 28.793)">
                  <path id="Trazado_621599" data-name="Trazado 621599" d="M311.209,295.2c1.265-4.287,2.53-8.575,3.94-12.816.949-2.855,2.009-5.765,4-8.021,2.39-2.708,5.953-4.271,8.012-7.238.874-1.259,1.441-2.726,2.435-3.891s2.649-1.994,4.058-1.393a3.261,3.261,0,0,1,1.784,2.755,7.485,7.485,0,0,1-.665,3.351,23.24,23.24,0,0,1-6.86,9.337s6.8,9.164,7.174,9.712c-2.734,3.446-7.325,1.16-12.256,13.9Z" transform="translate(-311.209 -261.637)" fill="#fdbebd"/>
                  <g id="Grupo_887915" data-name="Grupo 887915" transform="translate(1.554 3.178)">
                    <path id="Trazado_621600" data-name="Trazado 621600" d="M330.325,266.471a22.377,22.377,0,0,1-6.079,6.706,22.129,22.129,0,0,0-3.175,2.468,13.092,13.092,0,0,0-2.021,3.078,56.364,56.364,0,0,0-3.221,7.556" transform="translate(-314.346 -266.471)" fill="none" stroke="#e69291" stroke-miterlimit="10" stroke-width="1"/>
                    <path id="Trazado_621601" data-name="Trazado 621601" d="M314.422,299.749a13.615,13.615,0,0,0-.849,3.135" transform="translate(-313.573 -277.875)" fill="none" stroke="#e69291" stroke-miterlimit="10" stroke-width="1"/>
                  </g>
                </g>
              </g>
              <path id="Trazado_621602" data-name="Trazado 621602" d="M221.132,320.425,243.6,346.554l27.4-37.475,13.749,5.865L256.4,368.909a14.551,14.551,0,0,1-22.936,4.238l-34.2-31.673a15.232,15.232,0,0,1-1.86-20.963h0A15.231,15.231,0,0,1,221.132,320.425Z" transform="translate(-135.056 -249.102)" fill="#3954d7"/>
              <g id="Grupo_887918" data-name="Grupo 887918" transform="translate(0.244 63.724)">
                <path id="Trazado_621603" data-name="Trazado 621603" d="M204.749,352.223a18.594,18.594,0,0,0,4.74,10.725,65.1,65.1,0,0,0,8.805,8.03q6.54,5.357,12.7,11.154" transform="translate(-138.96 -327.611)" fill="none" stroke="#081452" stroke-miterlimit="10" stroke-width="1"/>
                <path id="Trazado_621604" data-name="Trazado 621604" d="M247.505,400.231a62.3,62.3,0,0,0,5.189,4.453" transform="translate(-153.612 -344.062)" fill="none" stroke="#081452" stroke-miterlimit="10" stroke-width="1"/>
                <path id="Trazado_621605" data-name="Trazado 621605" d="M262.513,358.376c1.525,2.188,3.741,3.86,5.061,6.177a19.306,19.306,0,0,1,1.19,2.694l1.453,3.8" transform="translate(-158.755 -329.719)" fill="none" stroke="#081452" stroke-miterlimit="10" stroke-width="1"/>
                <path id="Trazado_621606" data-name="Trazado 621606" d="M130.669,406.406q.964,7.449,2.191,14.862" transform="translate(-113.574 -346.178)" fill="none" stroke="#081452" stroke-miterlimit="10" stroke-width="1"/>
                <path id="Trazado_621607" data-name="Trazado 621607" d="M164.521,314.779a8.218,8.218,0,0,0,.041,3.622,6.118,6.118,0,0,0,.561,1.253,9.569,9.569,0,0,0,4.537,4.021" transform="translate(-125.112 -314.779)" fill="none" stroke="#081452" stroke-miterlimit="10" stroke-width="1"/>
                <path id="Trazado_621608" data-name="Trazado 621608" d="M161.385,325.441a12.471,12.471,0,0,0,11.148,6.323" transform="translate(-124.1 -318.433)" fill="none" stroke="#081452" stroke-miterlimit="10" stroke-width="1"/>
                <path id="Trazado_621609" data-name="Trazado 621609" d="M108.784,374.313q-1.121,5.506-2.5,10.954c-1.005,3.958-2.121,8.055-1.375,12.071a13.461,13.461,0,0,0,3.586,6.905" transform="translate(-104.661 -335.181)" fill="none" stroke="#081452" stroke-miterlimit="10" stroke-width="1"/>
              </g>
            </g>
            <g id="Grupo_887921" data-name="Grupo 887921">
              <path id="Trazado_621610" data-name="Trazado 621610" d="M211.567,269.054a1.878,1.878,0,1,1,1.878,1.878A1.878,1.878,0,0,1,211.567,269.054Z" transform="translate(-115.426 -222.663)" fill="#fdbebd"/>
              <ellipse id="Elipse_6021" data-name="Elipse 6021" cx="5.008" cy="5.647" rx="5.008" ry="5.647" transform="translate(92.709 34.739)" fill="none" stroke="#000" stroke-miterlimit="10" stroke-width="2"/>
              <circle id="Elipse_6022" data-name="Elipse 6022" cx="21.999" cy="21.999" r="21.999" transform="translate(53.72 23.723)" fill="#fdbebd"/>
              <path id="Trazado_621611" data-name="Trazado 621611" d="M164.488,309.45l2.5-12.247,14.864,2.186.6,11.863c.205,4.039-3.648,7.246-8.621,7.176h0C168.089,318.348,163.56,314,164.488,309.45Z" transform="translate(-99.251 -232.953)" fill="#fdbebd"/>
              <path id="Trazado_621612" data-name="Trazado 621612" d="M125.851,267.9c6.263,1.822,13.6-2.684,14.809-9.093.531-2.822.014-5.73.159-8.6s1.211-6.01,3.784-7.283c1.716-.849,3.874-.745,5.357-1.955,1.131-.922,1.622-2.424,2.631-3.478,1.633-1.706,4.258-1.935,6.3-3.118,3.431-1.985,4.729-6.66,3.471-10.418s-4.624-6.549-8.356-7.884a27.208,27.208,0,0,0-11.75-1c-4.614.442-9.532,1.39-13.685-.666-3.384-1.675-5.579-5.044-8.606-7.3a15.485,15.485,0,0,0-10.2-3.006c-3.059.207-6.013,1.326-9.077,1.422-8.334.258-15.745-6.992-24.019-5.966-5.872.728-10.731,6.035-11.305,11.924a15.267,15.267,0,0,0,8.2,14.569c2.285,1.177,4.855,1.8,6.983,3.245,2.719,1.845,4.437,4.84,5.675,7.884,2.65,6.517,3.53,13.7,6.646,20s9.622,11.867,16.541,10.6c1.781-.327,3.454-1.085,5.214-1.512C118.176,265.4,121.757,266.71,125.851,267.9Z" transform="translate(-65.303 -199.456)"/>
              <path id="Trazado_621613" data-name="Trazado 621613" d="M207.124,256.757,186.292,262.4a13.174,13.174,0,0,0-4.777,1.98,5.6,5.6,0,0,0-1.929,3.208,4.869,4.869,0,0,0,1.952,5.269" transform="translate(-104.419 -219.092)" fill="none" stroke="#000" stroke-miterlimit="10" stroke-width="2"/>
              <g id="Grupo_887920" data-name="Grupo 887920" transform="translate(77.129 47.784)">
                <path id="Trazado_621614" data-name="Trazado 621614" d="M182.643,272.252a3.822,3.822,0,0,1,3.068.651,8.764,8.764,0,0,1,2.186,2.36" transform="translate(-182.643 -272.151)" fill="none" stroke="#e69291" stroke-miterlimit="10" stroke-width="1"/>
                <path id="Trazado_621615" data-name="Trazado 621615" d="M184.367,275.347a2.192,2.192,0,0,1,3.18-.566" transform="translate(-183.234 -272.899)" fill="none" stroke="#e69291" stroke-miterlimit="10" stroke-width="1"/>
              </g>
              <path id="Trazado_621616" data-name="Trazado 621616" d="M187.166,299.709a19.8,19.8,0,0,0,7.893-3.007" transform="translate(-107.064 -232.781)" fill="none" stroke="#e69291" stroke-miterlimit="10" stroke-width="1"/>
            </g>
            <g id="Grupo_887923" data-name="Grupo 887923" transform="translate(25.175 150.153)">
              <path id="Trazado_621617" data-name="Trazado 621617" d="M123.339,428.219S103.6,444.756,103.6,475.288h76.653a216.092,216.092,0,0,0-3.443-44.047C155.061,426.422,123.339,428.219,123.339,428.219Z" transform="translate(-103.602 -427.891)"/>
              <g id="Grupo_887922" data-name="Grupo 887922" transform="translate(3.007 6.876)">
                <path id="Trazado_621618" data-name="Trazado 621618" d="M146.608,438.609a224.216,224.216,0,0,1,46.2,2.565" transform="translate(-121.346 -438.351)" fill="none" stroke="#f2f7ff" stroke-miterlimit="10" stroke-width="1"/>
                <path id="Trazado_621619" data-name="Trazado 621619" d="M161.083,447.813c-.406,3.968-.467,6.555-.534,10.542a8.246,8.246,0,0,0,.428,3.371,7.346,7.346,0,0,0,2.034,2.519,27,27,0,0,0,4.739,3.348,10.228,10.228,0,0,0,2.9,1.177c2.451.5,4.934-.485,7.242-1.447,1.954-.815,4.057-1.763,5.036-3.64a9.18,9.18,0,0,0,.727-4.042q.146-5.38.291-10.762a1.187,1.187,0,0,0-.149-.755,1.056,1.056,0,0,0-.614-.351c-6.519-1.57-18.45-1.17-18.45-1.17C163.266,446.649,161.193,446.729,161.083,447.813Z" transform="translate(-126.122 -441.163)" fill="none" stroke="#f2f7ff" stroke-miterlimit="10" stroke-width="1"/>
                <path id="Trazado_621620" data-name="Trazado 621620" d="M124.085,475.787a28.474,28.474,0,0,0,12.359,10.7,2.024,2.024,0,0,1,1.054.775,1.945,1.945,0,0,1,.164.789q.117,1.828.235,3.657" transform="translate(-113.628 -451.18)" fill="none" stroke="#f2f7ff" stroke-miterlimit="10" stroke-width="1"/>
                <path id="Trazado_621621" data-name="Trazado 621621" d="M205.417,441.2c.124,4.158.262,8.387,1.594,12.327s4.062,7.621,7.961,9.072" transform="translate(-141.499 -439.328)" fill="none" stroke="#f2f7ff" stroke-miterlimit="10" stroke-width="1"/>
                <path id="Trazado_621622" data-name="Trazado 621622" d="M215.823,471.25q.15,7.34.3,14.678" transform="translate(-145.065 -449.625)" fill="none" stroke="#f2f7ff" stroke-miterlimit="10" stroke-width="1"/>
                <path id="Trazado_621623" data-name="Trazado 621623" d="M108.176,460.524c.909.272,2.486-1.445,3.228-2.551a15.036,15.036,0,0,0,1.232-2.42q2.126-4.875,4.25-9.75a2.234,2.234,0,0,0,.273-1.234c-.071-.421-.471-.577-.871-.809" transform="translate(-108.176 -440.205)" fill="none" stroke="#f2f7ff" stroke-miterlimit="10" stroke-width="1"/>
              </g>
            </g>
          </g>
          <g id="Grupo_887935" data-name="Grupo 887935" transform="translate(244.231 175.545)">
            <g id="Grupo_887930" data-name="Grupo 887930" transform="translate(0 54.271)">
              <path id="Trazado_621624" data-name="Trazado 621624" d="M546.654,380.282l10.2,28.234-40.162,4.727-1.441,12.941,53.075,1.618a12.675,12.675,0,0,0,13.04-15.582l-9.373-39.51a13.269,13.269,0,0,0-15.1-10.391h0A13.268,13.268,0,0,0,546.654,380.282Z" transform="translate(-420.8 -353.576)" fill="#e0b31f"/>
              <g id="Grupo_887927" data-name="Grupo 887927" transform="translate(50.565)">
                <rect id="Rectángulo_296428" data-name="Rectángulo 296428" width="24.29" height="105.257" transform="translate(11.78 21.373) rotate(-60.011)" fill="#fa6377"/>
                <path id="Trazado_621625" data-name="Trazado 621625" d="M612.734,455.1l4.51,2.6a10.985,10.985,0,0,0,15.006-4.024l1.159-2.008a10.986,10.986,0,0,0-4.024-15.006l-4.51-2.6Z" transform="translate(-504.773 -378.219)" fill="#fcc"/>
                <g id="Grupo_887925" data-name="Grupo 887925" transform="translate(15.526 6.825)" opacity="0.141">
                  <line id="Línea_352" data-name="Línea 352" x2="91.166" y2="52.611" transform="translate(0 8.059)" fill="none" stroke="#af3f52" stroke-miterlimit="10" stroke-width="3"/>
                  <line id="Línea_353" data-name="Línea 353" x2="91.166" y2="52.611" transform="translate(4.651)" fill="none" stroke="#af3f52" stroke-miterlimit="10" stroke-width="3"/>
                </g>
                <g id="Grupo_887926" data-name="Grupo 887926" transform="translate(102.946 52.946)">
                  <rect id="Rectángulo_296429" data-name="Rectángulo 296429" width="24.29" height="4.193" transform="translate(0 21.038) rotate(-60.011)"/>
                  <rect id="Rectángulo_296430" data-name="Rectángulo 296430" width="24.29" height="2.603" transform="matrix(0.5, -0.866, 0.866, 0.5, 3.398, 22.999)"/>
                </g>
                <path id="Trazado_621626" data-name="Trazado 621626" d="M472.409,349.441l-12.141,21.038-8.253-13.8-3.342-5.594a1.306,1.306,0,0,1,1.138-1.974l6.516.095Z" transform="translate(-448.488 -349.107)" fill="#fcc"/>
                <path id="Trazado_621627" data-name="Trazado 621627" d="M456.328,349.2a8.171,8.171,0,0,1-4.313,7.474l-3.342-5.594a1.306,1.306,0,0,1,1.138-1.974Z" transform="translate(-448.488 -349.107)"/>
              </g>
              <path id="Trazado_621628" data-name="Trazado 621628" d="M551.006,358.03h0a111.867,111.867,0,0,0-42.117,3.246l-3.73,1.022c-7.942,2.176-12.584,9.919-10.455,17.438l14.531,51.332,47.734-2.888,7.318-54.123C565.353,366.174,559.392,358.981,551.006,358.03Z" transform="translate(-413.583 -351.92)" fill="#fcd535"/>
              <g id="Grupo_887928" data-name="Grupo 887928" transform="translate(0 1.957)">
                <path id="Trazado_621629" data-name="Trazado 621629" d="M388.08,376.288a8.569,8.569,0,0,0-5.519,1.651,7.283,7.283,0,0,1-2.7,1.638,4.593,4.593,0,0,1-2.775-.634,16.2,16.2,0,0,1-3.892-2.658,5.412,5.412,0,0,1-1.4-1.859,2.5,2.5,0,0,1,.1-2.282c.732-1.042,2.243-.605,3.289.145s2.1,1.777,3.29,1.7a4.556,4.556,0,0,0,1.593-.581,6.528,6.528,0,0,1,4.558-.59A5.062,5.062,0,0,1,388.08,376.288Z" transform="translate(-371.56 -358.747)" fill="#fdbebd"/>
                <path id="Trazado_621630" data-name="Trazado 621630" d="M393.946,373.155a9.15,9.15,0,0,0-5.742-1.336,7.057,7.057,0,0,1-3.124.071,5.583,5.583,0,0,1-2.335-1.95,19.539,19.539,0,0,1-2.609-4.281,5.97,5.97,0,0,1-.6-2.331,2.146,2.146,0,0,1,.949-1.945c1.071-.542,2.309.6,3,1.782s1.28,2.611,2.414,3.137a4.777,4.777,0,0,0,1.7.294,7.36,7.36,0,0,1,4.449,1.779A5.776,5.776,0,0,1,393.946,373.155Z" transform="translate(-374.293 -355.223)" fill="#f7b1b0"/>
                <path id="Trazado_621631" data-name="Trazado 621631" d="M408.9,369.979c-2.174-3.624-4.037-8.044-7.566-9.611-1.8-.8-3.791-.708-5.545-1.637-2.159-1.143-3.571-3.6-5.351-5.452a3.726,3.726,0,0,0-1.691-1.154,1.337,1.337,0,0,0-1.606.81,2.643,2.643,0,0,0,.029,1.382c.685,3.107,2.571,5.721,4.3,8.149l-6.514,1.862a5.888,5.888,0,0,1-3.032.311c-2.1-.52-3.474-3.088-5.5-3.96a1.413,1.413,0,0,0-1.656.154,2.014,2.014,0,0,0-.3,1.472,10.251,10.251,0,0,0,2.849,5.527c1.371,1.583,2.943,3.1,4.8,3.57,1.691.429,3.39-.06,5.055-.394a27.89,27.89,0,0,1,6.528-.525,5.161,5.161,0,0,1,3.51,1.131,17.1,17.1,0,0,1,2.588,3.861Z" transform="translate(-372.551 -352.084)" fill="#fdbebd"/>
              </g>
              <path id="Trazado_621632" data-name="Trazado 621632" d="M465.316,374.138,449.45,400.809l-30.129-28.983-11.284,7.34,33.533,43.463a13.1,13.1,0,0,0,21,.194l25.414-33.414a13.717,13.717,0,0,0-1.609-18.885h0A13.717,13.717,0,0,0,465.316,374.138Z" transform="translate(-384.06 -355.269)" fill="#fcd535"/>
              <g id="Grupo_887929" data-name="Grupo 887929" transform="translate(24.071 11.365)">
                <path id="Trazado_621633" data-name="Trazado 621633" d="M494.868,433.938l11.977-15.662c2.795-3.655,5.868-7.51,10.257-8.89" transform="translate(-437.887 -381.128)" fill="none" stroke="#bf8d00" stroke-miterlimit="10" stroke-width="1"/>
                <path id="Trazado_621634" data-name="Trazado 621634" d="M517.547,416.919a14.9,14.9,0,0,1,3.85-1.222" transform="translate(-445.659 -383.292)" fill="none" stroke="#bf8d00" stroke-miterlimit="10" stroke-width="1"/>
                <path id="Trazado_621635" data-name="Trazado 621635" d="M462.361,410.031l4.465,4.352a3.743,3.743,0,0,1,1.418,2.643q.578,3.167,1.154,6.334" transform="translate(-426.747 -381.35)" fill="none" stroke="#bf8d00" stroke-miterlimit="10" stroke-width="1"/>
                <path id="Trazado_621636" data-name="Trazado 621636" d="M408.18,385.514l8.912,11.323" transform="translate(-408.18 -372.948)" fill="none" stroke="#bf8d00" stroke-miterlimit="10" stroke-width="1"/>
                <path id="Trazado_621637" data-name="Trazado 621637" d="M424.17,406.053l2.6,3.285" transform="translate(-413.66 -379.987)" fill="none" stroke="#bf8d00" stroke-miterlimit="10" stroke-width="1"/>
                <path id="Trazado_621638" data-name="Trazado 621638" d="M596.964,404.745q-1.15,8.321-2.3,16.641" transform="translate(-472.086 -379.538)" fill="none" stroke="#bf8d00" stroke-miterlimit="10" stroke-width="1"/>
                <path id="Trazado_621639" data-name="Trazado 621639" d="M593.313,433.376q-1.118,6.993-1.773,14.05" transform="translate(-471.015 -389.35)" fill="none" stroke="#bf8d00" stroke-miterlimit="10" stroke-width="1"/>
                <path id="Trazado_621640" data-name="Trazado 621640" d="M530.826,366.4a7.085,7.085,0,0,0,3.031,4.51,9.529,9.529,0,0,0,5.276,1.55" transform="translate(-450.209 -366.397)" fill="none" stroke="#bf8d00" stroke-miterlimit="10" stroke-width="1"/>
                <path id="Trazado_621641" data-name="Trazado 621641" d="M533.434,377.008a12.914,12.914,0,0,0,10.3,2.261" transform="translate(-451.103 -370.033)" fill="none" stroke="#bf8d00" stroke-miterlimit="10" stroke-width="1"/>
              </g>
            </g>
            <g id="Grupo_887932" data-name="Grupo 887932" transform="translate(92.219 129.728)">
              <path id="Trazado_621642" data-name="Trazado 621642" d="M563.182,464.2s17.775,14.893,17.775,42.391H511.924a194.578,194.578,0,0,1,3.1-39.668C534.613,462.58,563.182,464.2,563.182,464.2Z" transform="translate(-511.858 -463.903)" fill="#3954d7"/>
              <g id="Grupo_887931" data-name="Grupo 887931" transform="translate(0.356 6.08)">
                <path id="Trazado_621643" data-name="Trazado 621643" d="M564.468,473.384A282.4,282.4,0,0,0,515.15,475.7" transform="translate(-513.342 -473.152)" fill="none" stroke="#0d1a5e" stroke-miterlimit="10" stroke-width="1"/>
                <path id="Trazado_621644" data-name="Trazado 621644" d="M554.381,481.7c.365,3.584.421,5.92.48,9.522a7.469,7.469,0,0,1-.385,3.043,6.625,6.625,0,0,1-1.829,2.276,24.32,24.32,0,0,1-4.263,3.024,9.189,9.189,0,0,1-2.607,1.062c-2.205.449-4.439-.438-6.515-1.307-1.756-.736-3.649-1.592-4.53-3.287a8.332,8.332,0,0,1-.654-3.651q-.131-4.861-.262-9.721a1.075,1.075,0,0,1,.133-.681.945.945,0,0,1,.553-.317c5.863-1.418,16.6-1.056,16.6-1.056C552.416,480.646,554.281,480.719,554.381,481.7Z" transform="translate(-519.737 -475.691)" fill="none" stroke="#0d1a5e" stroke-miterlimit="10" stroke-width="1"/>
                <path id="Trazado_621645" data-name="Trazado 621645" d="M592.161,506.963a25.641,25.641,0,0,1-11.118,9.667,1.83,1.83,0,0,0-.948.7,1.768,1.768,0,0,0-.147.713q-.105,1.652-.212,3.3" transform="translate(-535.475 -484.739)" fill="none" stroke="#0d1a5e" stroke-miterlimit="10" stroke-width="1"/>
                <path id="Trazado_621646" data-name="Trazado 621646" d="M520.994,475.725c-.112,3.755-.235,7.575-1.434,11.134s-3.654,6.883-7.161,8.193" transform="translate(-512.399 -474.034)" fill="none" stroke="#0d1a5e" stroke-miterlimit="10" stroke-width="1"/>
                <path id="Trazado_621647" data-name="Trazado 621647" d="M515.973,502.865q-.135,6.629-.27,13.257" transform="translate(-513.531 -483.334)" fill="none" stroke="#0d1a5e" stroke-miterlimit="10" stroke-width="1"/>
                <path id="Trazado_621648" data-name="Trazado 621648" d="M608.144,492.481c-.958.21-2.546-1.4-3.284-2.429a13.026,13.026,0,0,1-1.2-2.233q-2.052-4.484-4.1-8.968a1.8,1.8,0,0,1-.244-1.124c.089-.378.512-.5.937-.7" transform="translate(-542.173 -474.481)" fill="none" stroke="#0d1a5e" stroke-miterlimit="10" stroke-width="1"/>
              </g>
            </g>
            <g id="Grupo_887934" data-name="Grupo 887934" transform="translate(87.146)">
              <path id="Trazado_621649" data-name="Trazado 621649" d="M511.762,319.159a1.691,1.691,0,1,0-1.691,1.691A1.691,1.691,0,0,0,511.762,319.159Z" transform="translate(-505.593 -283.993)" fill="#fdbebd"/>
              <path id="Trazado_621650" data-name="Trazado 621650" d="M513.524,309.162a4.543,4.543,0,1,0-4.511,5.086A4.824,4.824,0,0,0,513.524,309.162Z" transform="translate(-504.265 -279.404)" fill="none" stroke="#3954d7" stroke-miterlimit="10" stroke-width="2"/>
              <circle id="Elipse_6023" data-name="Elipse 6023" cx="19.812" cy="19.812" r="19.812" transform="translate(4.492 15.867)" fill="#fdbebd"/>
              <path id="Trazado_621651" data-name="Trazado 621651" d="M547.037,357.237l-2.25-11.029L531.4,348.176l-.543,10.684c-.185,3.637,3.285,6.526,7.764,6.463h0C543.794,365.25,547.872,361.331,547.037,357.237Z" transform="translate(-513.294 -293.842)" fill="#fdbebd"/>
              <path id="Trazado_621652" data-name="Trazado 621652" d="M504.14,309.782l18.76,5.078a11.87,11.87,0,0,1,4.3,1.784,5.039,5.039,0,0,1,1.737,2.889,4.385,4.385,0,0,1-1.758,4.746" transform="translate(-504.14 -281.359)" fill="none" stroke="#3954d7" stroke-miterlimit="10" stroke-width="2"/>
              <g id="Grupo_887933" data-name="Grupo 887933" transform="translate(18.301 37.535)">
                <path id="Trazado_621653" data-name="Trazado 621653" d="M536.714,323.737a3.441,3.441,0,0,0-2.763.587,7.9,7.9,0,0,0-1.969,2.125" transform="translate(-531.982 -323.645)" fill="none" stroke="#e69291" stroke-miterlimit="10" stroke-width="1"/>
                <path id="Trazado_621654" data-name="Trazado 621654" d="M536.136,326.524a1.974,1.974,0,0,0-2.864-.509" transform="translate(-532.424 -324.319)" fill="none" stroke="#e69291" stroke-miterlimit="10" stroke-width="1"/>
              </g>
              <path id="Trazado_621655" data-name="Trazado 621655" d="M531.4,348.464a17.831,17.831,0,0,1-7.108-2.708" transform="translate(-511.047 -293.687)" fill="none" stroke="#e69291" stroke-miterlimit="10" stroke-width="1"/>
              <path id="Trazado_621656" data-name="Trazado 621656" d="M540.737,280.8c-3.694.641-6.664-2.793-9.116-5.629-2.7-3.126-5.854-6-9.687-7.542s-8.452-1.568-11.891.721a12.2,12.2,0,0,0-4.092,4.829,17.122,17.122,0,0,0,.937,15.919,22.485,22.485,0,0,0,12.975,9.751c3.661,1.1,8.191,1.911,9.553,5.481,1.135,2.975-.668,6.17-1.309,9.289a12.942,12.942,0,0,0,3.091,11.17,29.738,29.738,0,0,1,2.471,2.656c1.585,2.219,1.707,5.172,1.314,7.87s-1.237,5.335-1.37,8.058a20.508,20.508,0,0,0,3.7,12.034c1.689,2.577,3.983,5,6.984,5.7,4.729,1.094,9.63-2.915,10.521-7.687.424-2.27.134-4.651.764-6.872C557,341.527,562.4,339,566.453,335.716c6.423-5.2,10.11-14.374,7.065-22.057-1.684-4.25-5.2-7.732-6.1-12.214-.648-3.239.167-6.6-.2-9.885A15.608,15.608,0,0,0,557.178,279.2C551.955,277.226,546.558,279.79,540.737,280.8Z" transform="translate(-504.233 -266.541)"/>
            </g>
          </g>
        </g>
      </g>
      <g id="Grupo_887942" data-name="Grupo 887942" transform="translate(17.663 14.64)">
        <path id="Trazado_621657" data-name="Trazado 621657" d="M498.949,21.748,490.716,26.6l7.171,4.647Z" transform="translate(-185.826 -21.748)" fill="#fa6377"/>
        <path id="Trazado_621658" data-name="Trazado 621658" d="M147.061,156.435l-7.5-5.913-1.729,8.368Z" transform="translate(-64.895 -65.877)" fill="#3954d7"/>
        <path id="Trazado_621659" data-name="Trazado 621659" d="M383.455,460.728l-3.5,8.889,8.512-.756Z" transform="translate(-147.869 -172.181)" fill="#fa6377"/>
        <path id="Trazado_621660" data-name="Trazado 621660" d="M40.881,66.053l-3.5,8.889,8.512-.756Z" transform="translate(-30.473 -36.931)" fill="#fcd535"/>
        <path id="Trazado_621661" data-name="Trazado 621661" d="M699.278,346.256l-1.453-9.443-6.973,4.939Z" transform="translate(-254.41 -129.717)" fill="#fcd535"/>
        <circle id="Elipse_6024" data-name="Elipse 6024" cx="2.629" cy="2.629" r="2.629" transform="translate(301.917 2.151)" fill="none" stroke="#000" stroke-miterlimit="10" stroke-width="1"/>
        <circle id="Elipse_6025" data-name="Elipse 6025" cx="2.629" cy="2.629" r="2.629" transform="translate(60.684 74.858)" fill="none" stroke="#000" stroke-miterlimit="10" stroke-width="1"/>
        <circle id="Elipse_6026" data-name="Elipse 6026" cx="2.629" cy="2.629" r="2.629" transform="translate(15.682 194.868)" fill="none" stroke="#000" stroke-miterlimit="10" stroke-width="1"/>
        <circle id="Elipse_6027" data-name="Elipse 6027" cx="2.629" cy="2.629" r="2.629" transform="translate(237.418 115.93)" fill="none" stroke="#000" stroke-miterlimit="10" stroke-width="1"/>
        <circle id="Elipse_6028" data-name="Elipse 6028" cx="2.629" cy="2.629" r="2.629" transform="translate(452.968 72.229)" fill="none" stroke="#000" stroke-miterlimit="10" stroke-width="1"/>
        <g id="Grupo_887938" data-name="Grupo 887938" transform="translate(369.068 149.491)">
          <line id="Línea_354" data-name="Línea 354" x1="1.736" y1="1.887" fill="none" stroke="#000" stroke-miterlimit="10" stroke-width="1"/>
          <line id="Línea_355" data-name="Línea 355" y1="1.887" x2="1.736" transform="translate(3.821)" fill="none" stroke="#000" stroke-miterlimit="10" stroke-width="1"/>
          <line id="Línea_356" data-name="Línea 356" x1="1.736" y2="1.887" transform="translate(0 3.973)" fill="none" stroke="#000" stroke-miterlimit="10" stroke-width="1"/>
          <line id="Línea_357" data-name="Línea 357" x2="1.736" y2="1.887" transform="translate(3.821 3.973)" fill="none" stroke="#000" stroke-miterlimit="10" stroke-width="1"/>
        </g>
        <g id="Grupo_887939" data-name="Grupo 887939" transform="translate(213.705 279.99)">
          <line id="Línea_358" data-name="Línea 358" x1="2.154" y2="1.39" transform="translate(0 4.086)" fill="none" stroke="#000" stroke-miterlimit="10" stroke-width="1"/>
          <line id="Línea_359" data-name="Línea 359" x1="1.565" y1="2.031" transform="translate(0.944)" fill="none" stroke="#000" stroke-miterlimit="10" stroke-width="1"/>
          <line id="Línea_360" data-name="Línea 360" x2="1.565" y2="2.031" transform="translate(4.21 4.44)" fill="none" stroke="#000" stroke-miterlimit="10" stroke-width="1"/>
          <line id="Línea_361" data-name="Línea 361" y1="1.39" x2="2.154" transform="translate(4.564 0.995)" fill="none" stroke="#000" stroke-miterlimit="10" stroke-width="1"/>
        </g>
        <g id="Grupo_887940" data-name="Grupo 887940" transform="translate(126.282 16.408)">
          <line id="Línea_362" data-name="Línea 362" x1="2.154" y2="1.39" transform="translate(0 4.086)" fill="none" stroke="#000" stroke-miterlimit="10" stroke-width="1"/>
          <line id="Línea_363" data-name="Línea 363" x1="1.565" y1="2.031" transform="translate(0.944)" fill="none" stroke="#000" stroke-miterlimit="10" stroke-width="1"/>
          <line id="Línea_364" data-name="Línea 364" x2="1.565" y2="2.031" transform="translate(4.21 4.44)" fill="none" stroke="#000" stroke-miterlimit="10" stroke-width="1"/>
          <line id="Línea_365" data-name="Línea 365" y1="1.39" x2="2.154" transform="translate(4.564 0.995)" fill="none" stroke="#000" stroke-miterlimit="10" stroke-width="1"/>
        </g>
        <g id="Grupo_887941" data-name="Grupo 887941" transform="translate(0 205.184)">
          <line id="Línea_366" data-name="Línea 366" x1="2.154" y2="1.39" transform="translate(0 4.086)" fill="none" stroke="#000" stroke-miterlimit="10" stroke-width="1"/>
          <line id="Línea_367" data-name="Línea 367" x1="1.565" y1="2.031" transform="translate(0.944)" fill="none" stroke="#000" stroke-miterlimit="10" stroke-width="1"/>
          <line id="Línea_368" data-name="Línea 368" x2="1.565" y2="2.031" transform="translate(4.21 4.44)" fill="none" stroke="#000" stroke-miterlimit="10" stroke-width="1"/>
          <line id="Línea_369" data-name="Línea 369" y1="1.39" x2="2.154" transform="translate(4.564 0.995)" fill="none" stroke="#000" stroke-miterlimit="10" stroke-width="1"/>
        </g>
      </g>
    </g>
  </g>
</svg>
