<svg xmlns="http://www.w3.org/2000/svg" width="291.462" height="191.57" viewBox="0 0 291.462 191.57">
  <g id="Grupo_898349" data-name="Grupo 898349" transform="translate(-227.749 -6542)">
    <g id="Grupo_887867" data-name="Grupo 887867" transform="translate(189.677 6515.615)">
      <g id="Grupo_884326" data-name="Grupo 884326" transform="translate(38.071 38.79)">
        <g id="Grupo_884325" data-name="Grupo 884325">
          <g id="Grupo_884294" data-name="Grupo 884294" transform="translate(13.626 52.149)">
            <g id="Grupo_884293" data-name="Grupo 884293" transform="translate(1.955)">
              <path id="Trazado_618874" data-name="Trazado 618874" d="M641.663,775.3c14.12,25.267-6.312,74.842-135.892,40.388-64.969-17.274-113.5,21.64-123.5-5.522-23.294-63.27,71.836-136.458,124.736-85.361C555.361,771.51,615.964,729.314,641.663,775.3Z" transform="translate(-378.665 -707.632)" fill="none" stroke="#e4e4e4" stroke-miterlimit="10" stroke-width="4" stroke-dasharray="32.088 32.088"/>
            </g>
            <path id="Trazado_618875" data-name="Trazado 618875" d="M625.529,948.549H361.32c8.269-61.091,64.256-108.345,132.1-108.345S617.26,887.458,625.529,948.549Z" transform="translate(-361.32 -825.261)" fill="#f6f5f5"/>
          </g>
          <g id="Grupo_884320" data-name="Grupo 884320" transform="translate(135.641)">
            <path id="Trazado_621475" data-name="Trazado 621475" d="M58.066,0a58.066,58.066,0,0,1,58.066,58.066v71.172A58.066,58.066,0,0,1,0,129.238V58.066A58.066,58.066,0,0,1,58.066,0Z" transform="translate(0 -12.405)" fill="#d2e1f1"/>
            <g id="Grupo_884318" data-name="Grupo 884318" transform="translate(5.203 22.015)">
              <g id="Grupo_884295" data-name="Grupo 884295">
                <rect id="Rectángulo_296023" data-name="Rectángulo 296023" width="95.585" height="138.849" transform="translate(5.293)" fill="#f6f5f5"/>
                <path id="Trazado_618876" data-name="Trazado 618876" d="M1632.536,440.287c.03,54.144,1.778,119.444-4.3,133.9-26.788,2.61-58.155,3.448-91.283,3.6l12.592-137.087Z" transform="translate(-1531.658 -440.286)" fill="#e4e4e4"/>
                <path id="Trazado_618877" data-name="Trazado 618877" d="M1582.3,569.863c-41.754,6.682-69.66,7.035-92.293,5.354,2.933-31.222,4.109-83.09,5.292-134.874l50.314.112,45.536,3.006C1591.808,497.207,1591.881,546.854,1582.3,569.863Z" transform="translate(-1490.003 -440.336)" fill="#fff"/>
              </g>
              <g id="Grupo_884317" data-name="Grupo 884317" transform="translate(14.912 12.805)">
                <rect id="Rectángulo_296024" data-name="Rectángulo 296024" width="50.298" height="7.661" transform="translate(12.344 0) rotate(1.348)" fill="#708cd5"/>
                <g id="Grupo_884316" data-name="Grupo 884316" transform="translate(0 14.947)">
                  <g id="Grupo_884299" data-name="Grupo 884299" transform="translate(1.684)">
                    <g id="Grupo_884296" data-name="Grupo 884296" transform="translate(25.019 3.912)">
                      <rect id="Rectángulo_296025" data-name="Rectángulo 296025" width="45.368" height="3.507" transform="matrix(1, 0.024, -0.024, 1, 0.262, 0)" fill="#708cd5"/>
                      <rect id="Rectángulo_296026" data-name="Rectángulo 296026" width="30.838" height="3.507" transform="translate(0.083 7.644) rotate(1.348)" fill="#d3dfff"/>
                    </g>
                    <g id="Grupo_884298" data-name="Grupo 884298" transform="translate(0)">
                      <rect id="Rectángulo_296027" data-name="Rectángulo 296027" width="10.74" height="10.74" transform="matrix(1, 0.024, -0.024, 1, 0.253, 3.529)" fill="#fff" stroke="#708cd5" stroke-miterlimit="10" stroke-width="6"/>
                      <g id="Grupo_884297" data-name="Grupo 884297" transform="translate(1.981)">
                        <path id="Trazado_618878" data-name="Trazado 618878" d="M1654.844,692.849c.331,1.269.944,6.585,3.606,5.1a8.109,8.109,0,0,0,1.593-1.77l2.477-2.812,4.953-5.624c.423-.48-1.445-1.685-1.976-1.082l-4.4,5-2.2,2.5c-.509.578-1.687,2.443-2.443,2.609l1.233.4c.29.238-.249-1.451-.261-1.5l-.614-2.352c-.169-.648-2.213-1.426-1.963-.467Z" transform="translate(-1654.823 -686.495)" fill="#ee6f57"/>
                      </g>
                    </g>
                  </g>
                  <g id="Grupo_884303" data-name="Grupo 884303" transform="translate(1.225 19.824)">
                    <g id="Grupo_884300" data-name="Grupo 884300" transform="translate(25.019 3.609)">
                      <rect id="Rectángulo_296028" data-name="Rectángulo 296028" width="37.36" height="3.507" transform="translate(0.262 0) rotate(1.348)" fill="#708cd5"/>
                      <rect id="Rectángulo_296029" data-name="Rectángulo 296029" width="45.368" height="3.507" transform="translate(0.083 7.644) rotate(1.348)" fill="#d3dfff"/>
                    </g>
                    <g id="Grupo_884302" data-name="Grupo 884302" transform="translate(0)">
                      <rect id="Rectángulo_296030" data-name="Rectángulo 296030" width="10.74" height="10.74" transform="matrix(1, 0.024, -0.024, 1, 0.253, 3.227)" fill="#fff" stroke="#708cd5" stroke-miterlimit="10" stroke-width="6"/>
                      <g id="Grupo_884301" data-name="Grupo 884301" transform="translate(1.974)">
                        <path id="Trazado_618879" data-name="Trazado 618879" d="M1650.7,868.728c.331,1.269.944,6.585,3.606,5.1a8.111,8.111,0,0,0,1.593-1.77l2.477-2.812,4.953-5.624c.423-.48-1.445-1.685-1.976-1.082l-4.4,5-2.2,2.5c-.509.578-1.687,2.443-2.443,2.609l1.233.4c.29.238-.249-1.451-.261-1.5l-.614-2.352c-.169-.648-2.214-1.426-1.963-.467Z" transform="translate(-1650.682 -862.373)" fill="#ee6f57"/>
                      </g>
                    </g>
                  </g>
                  <g id="Grupo_884307" data-name="Grupo 884307" transform="translate(0.765 39.483)">
                    <g id="Grupo_884304" data-name="Grupo 884304" transform="translate(25.019 3.471)">
                      <rect id="Rectángulo_296031" data-name="Rectángulo 296031" width="45.368" height="3.507" transform="translate(0.262 0) rotate(1.348)" fill="#708cd5"/>
                      <rect id="Rectángulo_296032" data-name="Rectángulo 296032" width="20.289" height="3.507" transform="translate(0.083 7.644) rotate(1.348)" fill="#d3dfff"/>
                    </g>
                    <g id="Grupo_884306" data-name="Grupo 884306" transform="translate(0)">
                      <rect id="Rectángulo_296033" data-name="Rectángulo 296033" width="10.74" height="10.74" transform="matrix(1, 0.024, -0.024, 1, 0.253, 3.088)" fill="#fff" stroke="#708cd5" stroke-miterlimit="10" stroke-width="6"/>
                      <g id="Grupo_884305" data-name="Grupo 884305" transform="translate(2.12)">
                        <path id="Trazado_618880" data-name="Trazado 618880" d="M1647.921,1043.149c.331,1.269.944,6.585,3.606,5.1a8.111,8.111,0,0,0,1.593-1.77l2.477-2.812,4.953-5.624c.423-.48-1.445-1.685-1.976-1.082l-4.4,5-2.2,2.5c-.509.578-1.687,2.443-2.443,2.608l1.233.4c.29.238-.249-1.45-.261-1.5l-.614-2.352c-.169-.648-2.213-1.427-1.963-.467Z" transform="translate(-1647.9 -1036.794)" fill="#ee6f57"/>
                      </g>
                    </g>
                  </g>
                  <g id="Grupo_884311" data-name="Grupo 884311" transform="translate(0.306 58.876)">
                    <g id="Grupo_884308" data-name="Grupo 884308" transform="translate(25.019 3.599)">
                      <rect id="Rectángulo_296034" data-name="Rectángulo 296034" width="45.368" height="3.507" transform="translate(0.262 0) rotate(1.348)" fill="#708cd5"/>
                      <rect id="Rectángulo_296035" data-name="Rectángulo 296035" width="35.839" height="3.507" transform="matrix(1, 0.024, -0.024, 1, 0.083, 7.644)" fill="#d3dfff"/>
                    </g>
                    <g id="Grupo_884310" data-name="Grupo 884310" transform="translate(0)">
                      <rect id="Rectángulo_296036" data-name="Rectángulo 296036" width="10.74" height="10.74" transform="matrix(1, 0.024, -0.024, 1, 0.253, 3.216)" fill="#fff" stroke="#708cd5" stroke-miterlimit="10" stroke-width="6"/>
                      <g id="Grupo_884309" data-name="Grupo 884309" transform="translate(2.123)">
                        <path id="Trazado_618881" data-name="Trazado 618881" d="M1643.872,1215.2c.331,1.269.944,6.585,3.606,5.1a8.111,8.111,0,0,0,1.593-1.77l2.477-2.812,4.953-5.624c.423-.48-1.445-1.685-1.976-1.082l-4.4,5-2.2,2.5c-.509.578-1.687,2.443-2.443,2.608l1.233.4c.29.238-.249-1.451-.261-1.5l-.614-2.352c-.169-.648-2.213-1.427-1.963-.467Z" transform="translate(-1643.85 -1208.849)" fill="#ee6f57"/>
                      </g>
                    </g>
                  </g>
                  <g id="Grupo_884315" data-name="Grupo 884315" transform="translate(0 78.099)">
                    <g id="Grupo_884312" data-name="Grupo 884312" transform="translate(24.869 3.749)">
                      <rect id="Rectángulo_296037" data-name="Rectángulo 296037" width="17.984" height="3.507" transform="matrix(1, 0.024, -0.024, 1, 0.262, 0)" fill="#708cd5"/>
                      <path id="Trazado_618882" data-name="Trazado 618882" d="M1888.38,1481.543l-45.356-1.068-.083,3.506c17.548.412,39.89,1.234,44.449.534A3.936,3.936,0,0,0,1888.38,1481.543Z" transform="translate(-1842.942 -1472.831)" fill="#d3dfff"/>
                    </g>
                    <g id="Grupo_884314" data-name="Grupo 884314">
                      <rect id="Rectángulo_296038" data-name="Rectángulo 296038" width="10.74" height="10.74" transform="translate(0.253 3.37) rotate(1.348)" fill="#fff" stroke="#708cd5" stroke-miterlimit="10" stroke-width="6"/>
                      <g id="Grupo_884313" data-name="Grupo 884313" transform="translate(1.976)">
                        <path id="Trazado_618883" data-name="Trazado 618883" d="M1639.858,1385.752c.332,1.269.944,6.585,3.606,5.1a8.1,8.1,0,0,0,1.593-1.77l2.477-2.812,4.953-5.624c.423-.48-1.445-1.685-1.976-1.082l-4.4,5-2.2,2.5c-.509.578-1.687,2.443-2.442,2.609l1.233.4c.29.238-.249-1.451-.261-1.5q-.308-1.176-.614-2.352c-.169-.648-2.214-1.427-1.963-.467Z" transform="translate(-1639.836 -1379.397)" fill="#ee6f57"/>
                      </g>
                    </g>
                  </g>
                </g>
              </g>
            </g>
            <g id="Grupo_884319" data-name="Grupo 884319" transform="translate(33.043)">
              <path id="Trazado_618884" data-name="Trazado 618884" d="M1811.057,261.52v10.717H1768V261.52a6.185,6.185,0,0,1,1.813-4.378,5.127,5.127,0,0,1,.437-.392,6.145,6.145,0,0,1,3.94-1.42,7.29,7.29,0,0,0,3.165-.721,7.584,7.584,0,0,0,1.19-.717,7.287,7.287,0,0,0,2.642-3.747,7.317,7.317,0,0,1,7-5.185h2.687a7.317,7.317,0,0,1,7,5.185,7.287,7.287,0,0,0,2.642,3.747,7.585,7.585,0,0,0,1.19.717,7.29,7.29,0,0,0,3.165.721,6.2,6.2,0,0,1,6.19,6.19Z" transform="translate(-1764.506 -244.96)" fill="#ee6f57"/>
              <path id="Trazado_618885" data-name="Trazado 618885" d="M1787.045,440.28v7.967H1737V440.28h3.494v5.261h43.057V440.28Z" transform="translate(-1737 -418.265)" fill="#e4e4e4"/>
              <ellipse id="Elipse_5978" data-name="Elipse 5978" cx="3.819" cy="3.63" rx="3.819" ry="3.63" transform="translate(21.204 2.794)" fill="#fff"/>
            </g>
          </g>
          <g id="Grupo_884324" data-name="Grupo 884324" transform="translate(28.371 31.166)">
            <g id="Grupo_884321" data-name="Grupo 884321" transform="translate(79.238 11.966)">
              <path id="Trazado_618886" data-name="Trazado 618886" d="M1198.726,641.1c-1.527-.289-2.955-2.841-3.45-3.819a1.215,1.215,0,0,1-.11-.776l.608-3.221s1.4.238,1.294,2.106a1.375,1.375,0,0,0,.1.569l.537,1.4,1.587-1.229-.87-2.458a4.227,4.227,0,0,1-1.766.128c-1.235-.394.384-1.357.9-1.459s1.638-.512,2.15.358.819,1.382.819,1.382a19.277,19.277,0,0,0,.179-6.3c-.017-.2.473-.192.611-.051.412.419,1.069,1.7,1.1,5.581,0,0,.069-4.526.845-4.992.64-.384.963,1.831.512,5.588,0,0,.836-3.253,1.433-3.259,1.009-.01.013,8.688-2.523,11.28Z" transform="translate(-1195.144 -627.631)" fill="#f9b384"/>
              <path id="Trazado_618887" data-name="Trazado 618887" d="M1211.694,735.28q-.067.649-.149,1.258v0a36.578,36.578,0,0,1-.667,3.837c-.014.054-.022.1-.036.153-.771,3.16-.911,4.707-3.544,4.292l-2.71-3.084-.027-.031-.2-.225.55-1.623.072-.212.406-1.181.05-.153.694-2.033.28-.825Z" transform="translate(-1203.324 -723.147)" fill="#f9b384"/>
            </g>
            <g id="Grupo_884322" data-name="Grupo 884322" transform="translate(28.915 130.695)">
              <path id="Trazado_618888" data-name="Trazado 618888" d="M757.023,1731.542l-.69,2.156c-4.729,1.554-7.488,3.334-7.664,5.41h13.676l1.1-7.218A10.609,10.609,0,0,1,757.023,1731.542Z" transform="translate(-748.669 -1725.845)" fill="#1f3c88"/>
              <path id="Trazado_618889" data-name="Trazado 618889" d="M824.5,1684l-1.715,5.359a10.61,10.61,0,0,0,6.418.348l.707-4.655Z" transform="translate(-814.435 -1683.662)" fill="#f9b384"/>
              <path id="Trazado_618890" data-name="Trazado 618890" d="M995.262,1686.458l.4-5.458-6.425.338-.351,5.031A10.512,10.512,0,0,0,995.262,1686.458Z" transform="translate(-961.812 -1681)" fill="#f9b384"/>
              <path id="Trazado_618891" data-name="Trazado 618891" d="M998.656,1736.532c-.177-2.077-2.592-4.922-7.89-5.6l.162-2.207a10.513,10.513,0,0,1-6.374-.088l-.551,7.893Z" transform="translate(-957.478 -1723.27)" fill="#1f3c88"/>
            </g>
            <path id="Trazado_618892" data-name="Trazado 618892" d="M938.233,667.668l-7.75.054V656H938l0,.717.036,3.715.054,5.965Z" transform="translate(-881.075 -640.836)" fill="#f9b384"/>
            <path id="Trazado_618893" data-name="Trazado 618893" d="M945.883,671.075c-1.393,1.465-5.027-.189-6.56-1.8l6.524-1.912Z" transform="translate(-888.919 -650.916)" fill="#e28b6d"/>
            <path id="Trazado_618894" data-name="Trazado 618894" d="M916.938,570.529a16.756,16.756,0,0,1-.2,2.637c-.379,2.362-1.38,4.4-3.688,4.468-5.455.158-7.011-2.962-8.039-5.514s.64-8.7.64-8.7l7.06-.7,3.877,3.179A28.928,28.928,0,0,1,916.938,570.529Z" transform="translate(-858.175 -558.07)" fill="#f9b384"/>
            <path id="Trazado_618895" data-name="Trazado 618895" d="M878.232,534.056s1.557-.072,1.822-4.089a5.5,5.5,0,0,0,6.428-1.771,3.721,3.721,0,0,0,6.524-1.333c.939-2.686-1.653-6.688-5.429-4.264-3.7-1.87-9.313-1.741-10.929,2.845,0,0-5.615,2.589.33,8.289A6.875,6.875,0,0,0,878.232,534.056Z" transform="translate(-831.179 -521.467)" fill="#102048"/>
            <path id="Trazado_618896" data-name="Trazado 618896" d="M987.022,1133.3l-4.284,64.776H972.669l2.517-62.857,1.54-.714Z" transform="translate(-918.507 -1064.338)" fill="#102048"/>
            <path id="Trazado_618897" data-name="Trazado 618897" d="M811.733,1016.809l-7.063,73.639H815.64l10.445-61.166,11.872-3.607.526-13.075-26.45-.6Z" transform="translate(-769.443 -956.71)" fill="#1f3c88"/>
            <path id="Trazado_618898" data-name="Trazado 618898" d="M863.77,997.431c5.992,2.151,20.051-.307,22.971-3.3l-2.074-4.148-23.124,3.073Z" transform="translate(-819.905 -937.172)" fill="#102048" opacity="0.6"/>
            <path id="Trazado_618899" data-name="Trazado 618899" d="M914.613,756.242c-.194.081-.392.167-.6.243a40.694,40.694,0,0,1-7.511,2.236,34.474,34.474,0,0,1-5.036.618,29.1,29.1,0,0,1-7.908-.64l3.359-31.316.41-3.819s4.4,5.41,9.243-.564Z" transform="translate(-848.317 -700.285)" fill="#fff"/>
            <path id="Trazado_618900" data-name="Trazado 618900" d="M901.471,780.19a29.1,29.1,0,0,1-7.908-.64l3.359-31.316,1.2-1.733C901.083,753.7,904.117,769.658,901.471,780.19Z" transform="translate(-848.317 -721.136)" fill="#1f3c88" opacity="0.3"/>
            <path id="Trazado_618901" data-name="Trazado 618901" d="M636.958,717c3.34,14.18,4.714,28.77-.207,44.973a18.422,18.422,0,0,1-11.872.15l1.052-29.456-24.759,17.02-1.5-9.28C609.187,731.306,625.643,717.558,636.958,717Z" transform="translate(-587.549 -694.961)" fill="#708cd5"/>
            <path id="Trazado_618902" data-name="Trazado 618902" d="M1005.295,809.722a40.692,40.692,0,0,1-7.511,2.236c-1.492-8.557-1.821-22.615-.609-28.958Z" transform="translate(-939.594 -753.522)" fill="#1f3c88" opacity="0.3"/>
            <path id="Trazado_618903" data-name="Trazado 618903" d="M1212.439,764.265c-.013.054-.022.1-.036.153-.771,3.16-.911,4.707-3.544,4.292l-2.71-3.084-.027-.032.352-1.848.072-.212.406-1.181.05-.153Z" transform="translate(-1125.647 -735.066)" fill="#e28b6d" opacity="0.6"/>
            <path id="Trazado_618904" data-name="Trazado 618904" d="M1026.643,725.7s-6.65,14.089-10.595,14.427c-3.824.328-5.636-3.381-5.636-3.381l2.705,20.59a17.265,17.265,0,0,1-10.672,1.5c-3.575-11.61-4.927-26.621-5.193-43.338,2.895.18,8.627.428,10.68,1.747,3.682,2.367,8.228,10.82,8.228,10.82l5.3-7.214Z" transform="translate(-940.32 -693.63)" fill="#708cd5"/>
            <g id="Grupo_884323" data-name="Grupo 884323" transform="translate(1.089 5.786)">
              <path id="Trazado_618905" data-name="Trazado 618905" d="M538.744,579.234s.4-6.74,1.089-6.422,2.062,6.179,2.062,6.179l-1.471,2.374Z" transform="translate(-534.579 -572.801)" fill="#6f3428"/>
              <path id="Trazado_618906" data-name="Trazado 618906" d="M602.178,1709.667l.2,2.218a7.12,7.12,0,0,1-6.453,7.728l-.57.051a7.119,7.119,0,0,1-7.728-6.453l-.2-2.218Z" transform="translate(-577.775 -1581.527)" fill="#ee6f57"/>
              <rect id="Rectángulo_296039" data-name="Rectángulo 296039" width="14.811" height="107.844" transform="translate(0.002 22.054) rotate(-5.134)" fill="#fbc343"/>
              <rect id="Rectángulo_296040" data-name="Rectángulo 296040" width="5.26" height="94.529" transform="translate(4.563 19.473) rotate(-5.134)" fill="none" stroke="#6f3428" stroke-miterlimit="10" stroke-width="8" opacity="0.3"/>
              <path id="Trazado_618907" data-name="Trazado 618907" d="M590.442,1579.178,575.7,1580.5l-.388-4.328-.27-3.007-.834-9.242,14.752-1.326.83,9.243.271,3.007Z" transform="translate(-566.041 -1451.036)" fill="#102048"/>
              <rect id="Rectángulo_296041" data-name="Rectángulo 296041" width="14.807" height="3.019" transform="translate(8.996 122.131) rotate(-5.136)" fill="#fbc343"/>
              <path id="Trazado_618908" data-name="Trazado 618908" d="M501.793,635.795l4.1-16.421a3.522,3.522,0,0,0,3.13-.432l7.525,15.528Z" transform="translate(-501.793 -613.74)" fill="#ee6f57"/>
            </g>
            <path id="Trazado_618909" data-name="Trazado 618909" d="M888.868,621.312c-.066-.242-1.167-.575-1.41-.642a1.689,1.689,0,0,0-1.15.011c-1.331.6-1.153,2.508-.464,3.51a3,3,0,0,0,1.628,1.195c.242.069,2.532.1,2.432-.271Z" transform="translate(-840.998 -609.404)" fill="#f9b384"/>
            <path id="Trazado_618910" data-name="Trazado 618910" d="M498.094,955.72a2,2,0,0,0-2.562-1.323c-1.678.579-3.14,1.563-3.366,3.235-.206,1.523.555,6.387,3.957,7.012l-.278-2.5s2.083-.486,2.5-1.388A10.474,10.474,0,0,0,498.094,955.72Z" transform="translate(-492.136 -905.503)" fill="#f9b384"/>
            <path id="Trazado_618911" data-name="Trazado 618911" d="M1103.4,818.576c.179,1.064.331,2.132.477,3.2s.271,2.139.408,3.208l.349,3.216c.1,1.073.2,2.147.268,3.225l-.175.02c-.184-1.064-.335-2.132-.484-3.2l-.4-3.209c-.113-1.072-.244-2.142-.343-3.216s-.2-2.147-.274-3.224Z" transform="translate(-1034.348 -785.088)" fill="#1f3c88"/>
            <path id="Trazado_618912" data-name="Trazado 618912" d="M829.073,816.971c0,1.2-.032,2.39-.067,3.584s-.092,2.387-.136,3.58l-.2,3.577c-.08,1.192-.162,2.383-.278,3.573l-.176-.008c0-1.2.028-2.39.06-3.584l.143-3.58c.068-1.192.12-2.385.2-3.577s.161-2.383.271-3.574Z" transform="translate(-790.339 -783.657)" fill="#1f3c88"/>
            <path id="Trazado_618913" data-name="Trazado 618913" d="M956.3,620.981a.709.709,0,0,1-.391.9c-.311.07-.641-.219-.736-.644a.708.708,0,0,1,.391-.9C955.875,620.268,956.2,620.556,956.3,620.981Z" transform="translate(-902.959 -609.184)" fill="#102048"/>
            <path id="Trazado_618914" data-name="Trazado 618914" d="M996.154,615.066c-.018.435-.292.777-.61.764s-.562-.377-.544-.813.292-.777.61-.764S996.172,614.63,996.154,615.066Z" transform="translate(-938.319 -603.795)" fill="#102048"/>
            <path id="Trazado_618915" data-name="Trazado 618915" d="M981.662,624.635a10.258,10.258,0,0,1,.23,1.08.843.843,0,0,0,.219.375,1.42,1.42,0,0,0,.423.208,1.179,1.179,0,0,1,.534.4.7.7,0,0,1,.054.738,1.391,1.391,0,0,1-.44.446c-.155.1-.3.215-.464.313l-.116-.133c.118-.146.249-.278.373-.418a1.319,1.319,0,0,0,.291-.38c.1-.208-.109-.437-.4-.554a1.571,1.571,0,0,1-.55-.312,1.1,1.1,0,0,1-.289-.6c-.074-.418.011-.775-.03-1.122Z" transform="translate(-926.333 -613.007)" fill="#e28b6d"/>
            <path id="Trazado_618916" data-name="Trazado 618916" d="M946.294,608.041a1.312,1.312,0,0,1,.46-.7,1.4,1.4,0,0,1,.817-.306,1.512,1.512,0,0,1,1.422.8l-.138.109a1.936,1.936,0,0,0-1.262-.46,1.474,1.474,0,0,0-1.139.635Z" transform="translate(-895.104 -597.386)" fill="#102048"/>
            <path id="Trazado_618917" data-name="Trazado 618917" d="M987.579,604.008a1.356,1.356,0,0,1,.354-.57,1.178,1.178,0,0,1,.64-.317,1.122,1.122,0,0,1,1.2.6l-.141.106a1.429,1.429,0,0,0-.988-.258,1.268,1.268,0,0,0-.471.172,3.108,3.108,0,0,0-.437.36Z" transform="translate(-931.736 -593.905)" fill="#102048"/>
            <path id="Trazado_618918" data-name="Trazado 618918" d="M965.452,663.373c.787,1.232,1.836,1.366,2.646.069Z" transform="translate(-912.103 -647.378)" fill="#fff"/>
            <path id="Trazado_618919" data-name="Trazado 618919" d="M1004.489,629.333a20.8,20.8,0,0,1-.224,2.938,1.358,1.358,0,0,1-.942-1.294A1.735,1.735,0,0,1,1004.489,629.333Z" transform="translate(-945.705 -617.175)" fill="#fc8879" opacity="0.4"/>
            <circle id="Elipse_5979" data-name="Elipse 5979" cx="1.454" cy="1.454" r="1.454" transform="translate(49.973 13.154)" fill="#fc8879" opacity="0.4"/>
            <path id="Trazado_618920" data-name="Trazado 618920" d="M895.041,631.709a7.28,7.28,0,0,0-.813-.535.71.71,0,0,0-.359-.093.8.8,0,0,0-.375.172l-.148-.1a.7.7,0,0,1,.428-.461.837.837,0,0,1,.652.075,1.688,1.688,0,0,1,.754.831Z" transform="translate(-848.124 -618.351)" fill="#e28b6d"/>
            <path id="Trazado_618921" data-name="Trazado 618921" d="M527.358,1011.674l-2.093,6.358-.432-4.969A4.337,4.337,0,0,0,527.358,1011.674Z" transform="translate(-521.148 -956.421)" fill="#6f3428" opacity="0.6"/>
          </g>
          <line id="Línea_332" data-name="Línea 332" x2="291.462" transform="translate(0 175.165)" fill="none" stroke="#ee4e5d" stroke-miterlimit="10" stroke-width="8"/>
        </g>
      </g>
    </g>
  </g>
</svg>
