<svg xmlns="http://www.w3.org/2000/svg" width="77.861" height="24.923" viewBox="0 0 77.861 24.923">
  <g id="Grupo_887863" data-name="Grupo 887863" transform="translate(-13.398 -105.721)">
    <g id="Grupo_884349" data-name="Grupo 884349" transform="translate(13.398 112.672)">
      <path id="Trazado_618988" data-name="Trazado 618988" d="M30.228,134.325c-1.3,1.468-6.21-3.309-12.086-2.5-.7.1-4.018.55-4.644,2.617a3.476,3.476,0,0,0,1.158,3.372c.624.53,1.577.536,3.381.681.74.059,1.445.069,1.854.578.264.328.116.575.35.939a3.6,3.6,0,0,0,2.683,1.191c2.066.224,5.465.592,8.293-.947a3.639,3.639,0,0,1,2.336-.6c.624.1.619.332,1.567.648a8.3,8.3,0,0,0,2.719.366c2.287.017,2.844-.706,4.4-.717,1.795-.013,2.679,1.1,4.365,1.7,5.943,2.121,14.513,1.668,17.1-1.041.347-.364.414-.649.849-.98,1.388-1.056,2.856-.808,6.727-.958,2.584-.1,3.223-.285,3.8-.749a4.08,4.08,0,0,0,1.363-2.574c.318-2.577-2.039-4.676-2.953-5.489-1.749-1.557-3.7-2.38-7.067-3.225-2.948-.739-10.713-2.607-18.109-.964a12.351,12.351,0,0,0-5.213,2.031c-1.683,1.256-1.8,2.2-3.255,2.706-2.06.715-2.731-.9-5.1-.291a6.665,6.665,0,0,0-4.263,3.6C30.274,134.177,30.354,134.183,30.228,134.325Z" transform="translate(-13.398 -125.012)" fill="#e9f4f6"/>
    </g>
    <path id="Trazado_618989" data-name="Trazado 618989" d="M119.475,124.177c-4.277,3.3-20.62,1.264-20.529.328.052-.539,5.467.255,6.476-2.1a3.273,3.273,0,0,0-.212-2.564,4.023,4.023,0,0,0-1.984-1.751,6.886,6.886,0,0,0-3.483-.681c-2,.116-2.63.951-3.454.493-.8-.446-.344-1.4-1.226-2.573-1.392-1.847-4.133-1.823-4.326-1.818a7.366,7.366,0,0,0-3.3,1c-.316.169-.791.552-1.682,1.085a7.68,7.68,0,0,1-1.24.678c-1.105.3-1.958-.627-3.31-1.281a9.237,9.237,0,0,0-4.14-.76,9.035,9.035,0,0,0-5.546,2.659,10.263,10.263,0,0,0-2.279,3.229,4.738,4.738,0,0,0-1.932-1.539,5.136,5.136,0,0,0-3.848.064c-2.141.814-2.922,2.717-3.155,2.568-.255-.161.46-2.542,2.331-4.4a9.22,9.22,0,0,1,4.876-2.5,9.107,9.107,0,0,1,4.634.451c.2-.557,1.714-4.526,5.463-5.677a7.956,7.956,0,0,1,3.415-.245,7.528,7.528,0,0,1,3.672,1.724,2.909,2.909,0,0,1,2.341-.722,2.87,2.87,0,0,1,1.88,1.208,10.307,10.307,0,0,1,2.25-2.856,8.979,8.979,0,0,1,5.416-2.459,8.731,8.731,0,0,1,5.909,1.922,9.515,9.515,0,0,1,3.394,6.866,4.956,4.956,0,0,1,2.221-1.486,4.743,4.743,0,0,1,3.332.128,4.9,4.9,0,0,1,2.433,2.565c.5,1.313,0,2,.552,2.418.731.565,1.757-.572,3.611-.169a3.9,3.9,0,0,1,1.8.867,3.667,3.667,0,0,1,1.247,2.955A3.767,3.767,0,0,1,119.475,124.177Z" transform="translate(-29.971)" fill="#fff"/>
    <g id="Grupo_884350" data-name="Grupo 884350" transform="translate(13.398 119.39)">
      <path id="Trazado_618990" data-name="Trazado 618990" d="M74.367,146.364c-2.477-.842-2.238-1.484-4.2-2.054-5.009-1.456-8.388,3.122-12.973,1.585a7.352,7.352,0,0,1-2.98-1.961c-.417.532-3.479,4.308-8.36,4.259a9.943,9.943,0,0,1-4.981-1.44,5.882,5.882,0,0,1-6.477,2.425,6.074,6.074,0,0,1-3.741-3.915c-.065.124-.127.248-.182.375-.2.464-.12.47-.245.611-1.3,1.468-6.21-3.309-12.086-2.5-.7.1-4.018.55-4.644,2.617a3.476,3.476,0,0,0,1.158,3.372c.624.53,1.577.536,3.381.681.74.059,1.445.069,1.854.578.264.328.116.575.35.939a3.6,3.6,0,0,0,2.683,1.191c2.066.224,5.465.592,8.293-.947a3.639,3.639,0,0,1,2.336-.6c.624.1.619.332,1.567.648a8.3,8.3,0,0,0,2.719.366c2.287.017,2.844-.706,4.4-.717,1.795-.013,2.679,1.1,4.365,1.7,5.943,2.121,14.513,1.668,17.1-1.041.347-.364.414-.649.849-.98,2.083-1.586,4.953-1.213,6.727-.958,3.519.506,8.84,1.233,13.933.156,0,0,4.816-.984,5.754-3.28a3.822,3.822,0,0,0,.235-2.176,3.02,3.02,0,0,0-.359-.851,5.058,5.058,0,0,1-3.543,2.834,4.852,4.852,0,0,1-3.55-.833A16.073,16.073,0,0,1,74.367,146.364Z" transform="translate(-13.398 -143.654)" fill="#ceeaf0"/>
    </g>
    <path id="Trazado_618991" data-name="Trazado 618991" d="M143.611,144.492a6.431,6.431,0,0,1,3.658.2c1.91.62,3.072,1.963,3.531,1.594.187-.151.062-.428.115-1.006a4.416,4.416,0,0,1,1.1-2.342,4.338,4.338,0,0,1,4.523-.924A4.866,4.866,0,0,1,159.2,144.7c1.373,3.009-.557,5.962-.68,6.143a6.965,6.965,0,0,1-2.619,2.252c-.712.358-1.816.77-9.522.15-2.245-.181-3.367-.271-4.2-.389a17.775,17.775,0,0,0-2.968-.335c-1.682.011-1.886.386-3.154.377-.459,0-3.538-.03-4.241-1.831a3.265,3.265,0,0,1,1.29-3.484,3.894,3.894,0,0,1,2.246-.651c2.043-.11,2.418.871,3.76.749C141.1,147.5,141.134,145.2,143.611,144.492Z" transform="translate(-75.659 -23.045)" fill="#fff"/>
    <path id="Trazado_618992" data-name="Trazado 618992" d="M48.539,145.294c-.133.8-1.59,1.1-1.727,1.123-1.037.2-1.576-.193-3.044-.554-2.612-.642-3.2-.58-3.652-.4-.584.234-.558.461-1.243.688a3.451,3.451,0,0,1-2.453-.067,2.5,2.5,0,0,1-1.556-1.572,1.968,1.968,0,0,1,.2-1.327,2.387,2.387,0,0,1,1.173-1.022,2.842,2.842,0,0,1,1.356-.324,2.771,2.771,0,0,1,1.04.228,3.049,3.049,0,0,1,.608-1.154,3.457,3.457,0,0,1,6.152,2.119,3.927,3.927,0,0,1,2.2.821C47.937,144.129,48.638,144.691,48.539,145.294Z" transform="translate(-13.704 -21.73)" fill="#fff"/>
    <path id="Trazado_618993" data-name="Trazado 618993" d="M47.8,150.225a3.982,3.982,0,0,1-4.272-.526,4.96,4.96,0,0,1-4.358-.286,2.631,2.631,0,0,1-.859.88,2.667,2.667,0,0,1-2.017.316,2.641,2.641,0,0,1-1.365-.876,1.907,1.907,0,0,0-.06,1,2.488,2.488,0,0,0,1.556,1.572,3.451,3.451,0,0,0,2.453.067c.686-.227.66-.454,1.244-.688.449-.18,1.04-.243,3.652.4,1.468.361,2.007.753,3.044.554.137-.026,1.593-.319,1.727-1.123C48.629,150.985,48.11,150.477,47.8,150.225Z" transform="translate(-13.708 -27.948)" fill="#e9f4f6"/>
    <path id="Trazado_618994" data-name="Trazado 618994" d="M159.173,151.4a8.022,8.022,0,0,1-5.242,4.643,7.859,7.859,0,0,1-6.09-1.08c-1.884,1.977-6.21,2.815-8.367,1.066a5.525,5.525,0,0,1-4.573.514,5.285,5.285,0,0,1-2.653-2.174,2.2,2.2,0,0,0-.78.958,2.413,2.413,0,0,0,.121,1.912c.874,1.736,3.7,1.82,4.059,1.828l.182,0c1.268.009,1.471-.365,3.154-.377a17.775,17.775,0,0,1,2.968.335c.833.119,1.956.209,4.2.389,7.705.619,8.81.208,9.522-.15a7.291,7.291,0,0,0,2.618-2.252,6.743,6.743,0,0,0,1.125-4.564A5.925,5.925,0,0,0,159.173,151.4Z" transform="translate(-75.43 -29.219)" fill="#ceeaf0"/>
  </g>
</svg>
