<svg xmlns="http://www.w3.org/2000/svg" width="55.313" height="30.483" viewBox="0 0 55.313 30.483">
  <g id="Grupo_887862" data-name="Grupo 887862" transform="translate(11469.499 12072.631)">
    <g id="Grupo_887846" data-name="Grupo 887846" transform="translate(-11469.499 -12072.631)">
      <path id="Trazado_618928" data-name="Trazado 618928" d="M34.516,221.434c-1.278-.912-4.045-2.839-4.015-5.7a6.012,6.012,0,0,1,2.017-4.3,7.573,7.573,0,0,1,4.295-1.57,11.2,11.2,0,0,1,3.15.051,5.781,5.781,0,0,1,1.809-5.513,5.849,5.849,0,0,1,6.849-.448,10.429,10.429,0,0,1,1.684-4.128c.353-.509,3.268-4.559,8.162-4.452a9.645,9.645,0,0,1,6.306,2.721,10.782,10.782,0,0,1,3.28,7.326,6.717,6.717,0,0,1,1.641-1.165c.57-.286,3.566-1.686,6.332.022a6.208,6.208,0,0,1,2.844,5.688,6.857,6.857,0,0,1,3.587.619,5.831,5.831,0,0,1,2.968,2.844,5.611,5.611,0,0,1,.128,3.712c-1.418,5.044-11.626,10.052-19.209,7.46-1.979-.676-3.451-1.774-6.467-1.95-2.981-.174-4.685.716-7.041,1.366C46.672,225.715,39.334,224.874,34.516,221.434Z" transform="translate(-30.501 -195.369)" fill="#fff"/>
      <path id="Trazado_618929" data-name="Trazado 618929" d="M83.122,224.612c.863-.607,2.9-2.013,2.88-4.039-.02-2.231-2.212-3.538-2.4-3.651a5.891,5.891,0,0,0-6.794.908,10.368,10.368,0,0,0-5.459-3.707,10.525,10.525,0,0,0-7.734.98,18.514,18.514,0,0,0-5.341-3.593,12.4,12.4,0,0,0-5.124-1.361,11.506,11.506,0,0,0-7.477,2.815,12.018,12.018,0,0,0-3.313,4.62,10.227,10.227,0,0,0-3.736-.561c-1.278.05-3.393.132-4.9,1.64-1.173,1.174-1.973,3.267-1.514,4.648,1.234,3.708,11.118,1.033,28.568,2.7C68.061,226.7,77.916,228.274,83.122,224.612Z" transform="translate(-30.969 -199.767)" fill="#f2f7f8"/>
      <path id="Trazado_618930" data-name="Trazado 618930" d="M81.945,226.94a6.706,6.706,0,0,1-5.58-1.8A9.169,9.169,0,0,1,72,226.2c-5.109-.089-8.125-4.708-8.43-5.192A15.505,15.505,0,0,1,52.487,226.2a14.791,14.791,0,0,1-8.175-2.455,8.544,8.544,0,0,1-5.952,4.329,8.33,8.33,0,0,1-6.1-1.526,16.791,16.791,0,0,0,1.557,1.993,17.991,17.991,0,0,0,4.67,3.611c2.8,1.423,5.373,1.374,8.842,1.307a28.063,28.063,0,0,0,10.958-2.366c.663-.3,1.205-.577,1.59-.783,2.069,1.042,9.994,4.768,17.769,2.285,2.05-.655,5.714-1.824,7.578-5.277a9.168,9.168,0,0,0,1.02-3.26A6.57,6.57,0,0,1,81.945,226.94Z" transform="translate(-31.025 -202.998)" fill="#ceeaf0"/>
    </g>
  </g>
</svg>
