<svg xmlns="http://www.w3.org/2000/svg" width="155.114" height="84.699" viewBox="0 0 155.114 84.699">
  <g id="Grupo_898327" data-name="Grupo 898327" transform="translate(-119.807 -118.774)">
    <g id="Grupo_887767" data-name="Grupo 887767" transform="translate(119.807 118.774)" opacity="0.85">
      <circle id="Elipse_5995" data-name="Elipse 5995" cx="25.533" cy="25.533" r="25.533" transform="translate(62.962 36.108) rotate(-45)" fill="#fff"/>
      <circle id="Elipse_5996" data-name="Elipse 5996" cx="20.847" cy="20.847" r="20.847" transform="translate(42.926 49.437) rotate(-45)" fill="#fff"/>
      <circle id="Elipse_5997" data-name="Elipse 5997" cx="20.847" cy="20.847" r="20.847" transform="translate(96.151 41.72) rotate(-45)" fill="#fff"/>
      <circle id="Elipse_5998" data-name="Elipse 5998" cx="17.932" cy="17.932" r="17.932" transform="matrix(0.025, -1, 1, 0.025, 37.235, 72.901)" fill="#fff"/>
      <circle id="Elipse_5999" data-name="Elipse 5999" cx="14.818" cy="14.818" r="14.818" transform="translate(14.538 69.583) rotate(-64.978)" fill="#fff"/>
      <circle id="Elipse_6000" data-name="Elipse 6000" cx="11.725" cy="11.725" r="11.725" transform="matrix(0.461, -0.887, 0.887, 0.461, 0, 73.881)" fill="#fff"/>
    </g>
    <g id="Grupo_887769" data-name="Grupo 887769" transform="translate(178.957 147.546)">
      <circle id="Elipse_6001" data-name="Elipse 6001" cx="16.06" cy="16.06" r="16.06" transform="translate(31.463 22.712) rotate(-45)" fill="#fff"/>
      <circle id="Elipse_6002" data-name="Elipse 6002" cx="13.814" cy="13.814" r="13.814" transform="translate(21.7 27.326) rotate(-45)" fill="#fff"/>
      <circle id="Elipse_6003" data-name="Elipse 6003" cx="11.415" cy="11.415" r="11.415" transform="translate(8.622 32.717) rotate(-45)" fill="#fff"/>
      <circle id="Elipse_6004" data-name="Elipse 6004" cx="9.033" cy="9.033" r="9.033" transform="translate(0 44.862) rotate(-79.122)" fill="#fff"/>
    </g>
  </g>
</svg>
