<svg xmlns="http://www.w3.org/2000/svg" width="113.517" height="36.336" viewBox="0 0 113.517 36.336">
  <g id="Grupo_898328" data-name="Grupo 898328" transform="translate(-316.893 -218.309)">
    <g id="Grupo_896666" data-name="Grupo 896666" transform="translate(303.495 112.588)">
      <g id="Grupo_884349" data-name="Grupo 884349" transform="translate(13.398 115.855)">
        <path id="Trazado_618988" data-name="Trazado 618988" d="M37.935,138.59c-1.9,2.14-9.053-4.824-17.621-3.651-1.015.139-5.858.8-6.771,3.815a5.069,5.069,0,0,0,1.688,4.917c.91.772,2.3.781,4.929.993,1.079.087,2.106.1,2.7.843.385.479.169.838.51,1.368.706,1.1,2.315,1.564,3.912,1.737,3.012.326,7.968.863,12.091-1.381a5.306,5.306,0,0,1,3.406-.875c.91.141.9.484,2.285.945a12.1,12.1,0,0,0,3.964.534c3.334.025,4.147-1.03,6.41-1.046,2.617-.019,3.905,1.6,6.363,2.479,8.665,3.092,21.159,2.432,24.924-1.518.506-.531.6-.947,1.238-1.429,2.023-1.54,4.163-1.178,9.807-1.4,3.767-.146,4.7-.416,5.54-1.093a5.948,5.948,0,0,0,1.987-3.753c.464-3.758-2.973-6.818-4.3-8-2.551-2.271-5.392-3.47-10.3-4.7-4.3-1.078-15.619-3.8-26.4-1.406-2.93.651-5.221,1.186-7.6,2.961-2.454,1.832-2.621,3.208-4.745,3.945-3,1.042-3.982-1.309-7.438-.424a9.717,9.717,0,0,0-6.216,5.248C38,138.375,38.119,138.383,37.935,138.59Z" transform="translate(-13.398 -125.012)" fill="#e9f4f6"/>
      </g>
      <path id="Trazado_618989" data-name="Trazado 618989" d="M146.6,132.629c-6.235,4.818-30.062,1.843-29.93.479.076-.786,7.971.372,9.441-3.067a4.771,4.771,0,0,0-.309-3.738,5.866,5.866,0,0,0-2.892-2.553,10.039,10.039,0,0,0-5.077-.993c-2.909.169-3.834,1.386-5.036.719-1.172-.65-.5-2.046-1.788-3.751-2.03-2.693-6.025-2.657-6.307-2.651a10.739,10.739,0,0,0-4.815,1.462c-.461.247-1.153.8-2.453,1.582a11.2,11.2,0,0,1-1.808.989c-1.611.439-2.855-.915-4.826-1.867a13.466,13.466,0,0,0-6.036-1.108,13.172,13.172,0,0,0-8.086,3.876,14.963,14.963,0,0,0-3.323,4.708,6.908,6.908,0,0,0-2.817-2.243,7.488,7.488,0,0,0-5.61.094c-3.122,1.186-4.261,3.961-4.6,3.745-.372-.235.67-3.706,3.4-6.413a13.443,13.443,0,0,1,7.109-3.645,13.277,13.277,0,0,1,6.756.657c.3-.813,2.5-6.6,7.965-8.277a11.6,11.6,0,0,1,4.979-.357,10.976,10.976,0,0,1,5.353,2.514,4.241,4.241,0,0,1,3.413-1.053,4.184,4.184,0,0,1,2.741,1.761,15.027,15.027,0,0,1,3.28-4.164,13.091,13.091,0,0,1,7.9-3.585,12.729,12.729,0,0,1,8.615,2.8,13.873,13.873,0,0,1,4.948,10.01,7.225,7.225,0,0,1,3.238-2.167,6.915,6.915,0,0,1,4.858.186,7.148,7.148,0,0,1,3.548,3.739c.733,1.915.006,2.909.8,3.525,1.066.824,2.561-.834,5.264-.246a5.683,5.683,0,0,1,2.623,1.264,5.346,5.346,0,0,1,1.819,4.309A5.492,5.492,0,0,1,146.6,132.629Z" transform="translate(-22.24)" fill="#fff"/>
      <g id="Grupo_884350" data-name="Grupo 884350" transform="translate(13.398 125.649)">
        <path id="Trazado_618990" data-name="Trazado 618990" d="M102.287,147.606c-3.612-1.228-3.263-2.164-6.123-2.995-7.3-2.122-12.229,4.552-18.914,2.31a10.718,10.718,0,0,1-4.344-2.859c-.608.775-5.072,6.281-12.188,6.21a14.5,14.5,0,0,1-7.262-2.1,8.576,8.576,0,0,1-9.444,3.535c-4.055-1.248-5.353-5.367-5.454-5.708-.1.18-.185.362-.265.547-.291.677-.174.685-.358.892-1.9,2.14-9.053-4.824-17.621-3.651-1.015.139-5.858.8-6.771,3.815a5.069,5.069,0,0,0,1.688,4.917c.91.772,2.3.781,4.929.993,1.079.087,2.106.1,2.7.843.385.479.169.838.51,1.368.706,1.1,2.315,1.564,3.912,1.737,3.012.326,7.968.863,12.091-1.381a5.306,5.306,0,0,1,3.406-.875c.91.141.9.484,2.285.945a12.1,12.1,0,0,0,3.964.534c3.334.025,4.147-1.03,6.41-1.046,2.617-.019,3.905,1.6,6.363,2.479,8.665,3.092,21.159,2.432,24.924-1.518.506-.531.6-.947,1.238-1.429,3.038-2.313,7.221-1.768,9.807-1.4,5.131.737,12.889,1.8,20.314.227,0,0,7.022-1.435,8.389-4.782a5.572,5.572,0,0,0,.343-3.173,4.4,4.4,0,0,0-.523-1.24,7.375,7.375,0,0,1-5.166,4.131,7.074,7.074,0,0,1-5.176-1.215A23.434,23.434,0,0,1,102.287,147.606Z" transform="translate(-13.398 -143.654)" fill="#ceeaf0"/>
      </g>
      <path id="Trazado_618991" data-name="Trazado 618991" d="M149.077,145.749a9.377,9.377,0,0,1,5.333.291c2.784.9,4.479,2.863,5.148,2.325.272-.22.09-.624.168-1.467a6.438,6.438,0,0,1,1.6-3.415,6.325,6.325,0,0,1,6.594-1.347,7.094,7.094,0,0,1,3.889,3.914c2,4.387-.813,8.693-.991,8.956A10.155,10.155,0,0,1,167,158.288c-1.038.522-2.648,1.122-13.882.219-3.273-.263-4.909-.395-6.124-.567a25.915,25.915,0,0,0-4.328-.489c-2.453.016-2.75.562-4.6.549-.669,0-5.159-.043-6.183-2.669-.671-1.723.378-3.973,1.881-5.079a5.677,5.677,0,0,1,3.275-.949c2.979-.16,3.526,1.27,5.482,1.093C145.41,150.134,145.466,146.785,149.077,145.749Z" transform="translate(-56.142 -17.1)" fill="#fff"/>
      <path id="Trazado_618992" data-name="Trazado 618992" d="M54.82,147.859c-.194,1.173-2.318,1.6-2.517,1.637-1.511.29-2.3-.282-4.438-.808-3.808-.937-4.669-.845-5.324-.583-.851.341-.813.672-1.813,1a5.032,5.032,0,0,1-3.576-.1,3.641,3.641,0,0,1-2.268-2.292,2.87,2.87,0,0,1,.293-1.935,3.481,3.481,0,0,1,1.71-1.49,4.143,4.143,0,0,1,1.977-.472,4.04,4.04,0,0,1,1.517.333,4.445,4.445,0,0,1,.887-1.683,5.393,5.393,0,0,1,6.9-.911,5.439,5.439,0,0,1,2.065,4,5.725,5.725,0,0,1,3.205,1.2C53.943,146.16,54.966,146.979,54.82,147.859Z" transform="translate(-10.169 -16.125)" fill="#fff"/>
      <path id="Trazado_618993" data-name="Trazado 618993" d="M53.742,150.6a5.805,5.805,0,0,1-6.229-.768,7.232,7.232,0,0,1-6.353-.417,3.836,3.836,0,0,1-1.253,1.282,3.889,3.889,0,0,1-2.941.461,3.85,3.85,0,0,1-1.991-1.278,2.78,2.78,0,0,0-.088,1.454,3.628,3.628,0,0,0,2.268,2.292,5.032,5.032,0,0,0,3.576.1c1-.33.962-.662,1.813-1,.655-.262,1.516-.354,5.324.583,2.14.526,2.926,1.1,4.438.808.2-.038,2.323-.464,2.517-1.637C54.95,151.706,54.193,150.965,53.742,150.6Z" transform="translate(-10.172 -20.738)" fill="#e9f4f6"/>
      <path id="Trazado_618994" data-name="Trazado 618994" d="M171.929,151.4a11.7,11.7,0,0,1-7.642,6.77,11.458,11.458,0,0,1-8.879-1.574c-2.746,2.882-9.054,4.1-12.2,1.554a8.055,8.055,0,0,1-6.668.749,7.7,7.7,0,0,1-3.868-3.17,3.208,3.208,0,0,0-1.137,1.4,3.518,3.518,0,0,0,.177,2.787c1.274,2.532,5.395,2.653,5.918,2.666.115,0,.2,0,.265,0,1.849.013,2.145-.533,4.6-.549a25.913,25.913,0,0,1,4.328.489c1.215.173,2.852.3,6.124.567,11.234.9,12.844.3,13.882-.219a10.629,10.629,0,0,0,3.818-3.283,9.83,9.83,0,0,0,1.641-6.653A8.638,8.638,0,0,0,171.929,151.4Z" transform="translate(-55.972 -21.681)" fill="#ceeaf0"/>
    </g>
  </g>
</svg>
