<svg xmlns="http://www.w3.org/2000/svg" width="309.8" height="223.678" viewBox="0 0 309.8 223.678">
  <g id="Grupo_896687" data-name="Grupo 896687" transform="translate(-49.077 -64.511)">
    <g id="Document" transform="translate(126.854 64.511)">
      <g id="Grupo_896862" data-name="Grupo 896862" transform="translate(0 0)">
        <g id="Grupo_896825" data-name="Grupo 896825">
          <g id="Grupo_896770" data-name="Grupo 896770" transform="translate(0.193 15.898)">
            <g id="Grupo_896769" data-name="Grupo 896769">
              <path id="Trazado_664228" data-name="Trazado 664228" d="M320.843,110.414,321.861,304.9l-144.257-.27-10.134-9.05,9.108-187.292L311.894,97.121Z" transform="translate(-167.47 -97.121)" fill="#e0e0e0"/>
            </g>
          </g>
          <g id="Grupo_896777" data-name="Grupo 896777" transform="translate(0 15.898)">
            <g id="Grupo_896776" data-name="Grupo 896776">
              <g id="Grupo_896775" data-name="Grupo 896775">
                <g id="Grupo_896774" data-name="Grupo 896774">
                  <g id="Grupo_896771" data-name="Grupo 896771" transform="translate(0.193 0)">
                    <path id="Trazado_664229" data-name="Trazado 664229" d="M311.894,97.121l-.146,198.329-144.278.128,1.8-198.233Z" transform="translate(-167.47 -97.121)" fill="#fafafa"/>
                  </g>
                  <g id="Grupo_896773" data-name="Grupo 896773">
                    <g id="Grupo_896772" data-name="Grupo 896772">
                      <path id="Trazado_664230" data-name="Trazado 664230" d="M311.825,97.121,169.2,97.5l.155-.154c-.494,55.428-1.106,124.054-1.768,198.234l-.191-.193h.856l143.422-.11-.174.174c.189-117.29.318-196.79.32-198.329,0,1.537.011,81.04.028,198.329v.174h-.174l-143.421.145h-1.05v-.193c.688-74.179,1.326-142.805,1.84-198.233V97.19h.154Z" transform="translate(-167.207 -97.121)" fill="#263238"/>
                    </g>
                  </g>
                </g>
              </g>
            </g>
          </g>
          <g id="Grupo_896779" data-name="Grupo 896779" transform="translate(20.328 57.902)">
            <g id="Grupo_896778" data-name="Grupo 896778">
              <path id="Trazado_664231" data-name="Trazado 664231" d="M197.734,160.3l48.486-.335a2.859,2.859,0,0,0,2.839-2.879h0a2.859,2.859,0,0,0-2.878-2.839l-48.486.335a2.859,2.859,0,0,0-2.839,2.879h0A2.859,2.859,0,0,0,197.734,160.3Z" transform="translate(-194.855 -154.25)" fill="#e0e0e0"/>
            </g>
          </g>
          <g id="Grupo_896781" data-name="Grupo 896781" transform="translate(20.244 68.964)">
            <g id="Grupo_896780" data-name="Grupo 896780">
              <path id="Trazado_664232" data-name="Trazado 664232" d="M197.618,175.348l48.485-.335a2.859,2.859,0,0,0,2.839-2.879h0a2.857,2.857,0,0,0-2.878-2.839l-48.486.335a2.859,2.859,0,0,0-2.839,2.879h0A2.859,2.859,0,0,0,197.618,175.348Z" transform="translate(-194.74 -169.295)" fill="#e0e0e0"/>
            </g>
          </g>
          <g id="Grupo_896783" data-name="Grupo 896783" transform="translate(20.158 80.025)">
            <g id="Grupo_896782" data-name="Grupo 896782">
              <path id="Trazado_664233" data-name="Trazado 664233" d="M197.5,190.392l48.486-.335a2.859,2.859,0,0,0,2.839-2.879h0a2.859,2.859,0,0,0-2.879-2.839l-48.485.335a2.86,2.86,0,0,0-2.84,2.879h0A2.859,2.859,0,0,0,197.5,190.392Z" transform="translate(-194.624 -184.339)" fill="#e0e0e0"/>
            </g>
          </g>
          <g id="Grupo_896785" data-name="Grupo 896785" transform="translate(20.074 91.086)">
            <g id="Grupo_896784" data-name="Grupo 896784">
              <path id="Trazado_664234" data-name="Trazado 664234" d="M197.387,205.436l48.486-.336a2.857,2.857,0,0,0,2.839-2.878h0a2.859,2.859,0,0,0-2.878-2.84l-48.486.336a2.859,2.859,0,0,0-2.839,2.879h0A2.859,2.859,0,0,0,197.387,205.436Z" transform="translate(-194.509 -199.383)" fill="#e0e0e0"/>
            </g>
          </g>
          <g id="Grupo_896787" data-name="Grupo 896787" transform="translate(19.989 102.148)">
            <g id="Grupo_896786" data-name="Grupo 896786">
              <path id="Trazado_664235" data-name="Trazado 664235" d="M197.272,220.481l48.486-.335a2.859,2.859,0,0,0,2.839-2.879h0a2.859,2.859,0,0,0-2.879-2.839l-48.485.335a2.859,2.859,0,0,0-2.839,2.879h0A2.858,2.858,0,0,0,197.272,220.481Z" transform="translate(-194.394 -214.428)" fill="#e0e0e0"/>
            </g>
          </g>
          <g id="Grupo_896789" data-name="Grupo 896789" transform="translate(19.904 113.209)">
            <g id="Grupo_896788" data-name="Grupo 896788">
              <path id="Trazado_664236" data-name="Trazado 664236" d="M197.156,235.525l48.485-.336a2.859,2.859,0,0,0,2.84-2.878h0a2.859,2.859,0,0,0-2.879-2.84l-48.486.336a2.858,2.858,0,0,0-2.839,2.878h0A2.86,2.86,0,0,0,197.156,235.525Z" transform="translate(-194.278 -229.472)" fill="#e0e0e0"/>
            </g>
          </g>
          <g id="Grupo_896791" data-name="Grupo 896791" transform="translate(19.819 124.271)">
            <g id="Grupo_896790" data-name="Grupo 896790">
              <path id="Trazado_664237" data-name="Trazado 664237" d="M197.041,250.57l48.486-.335a2.859,2.859,0,0,0,2.839-2.879h0a2.859,2.859,0,0,0-2.879-2.839L197,244.852a2.859,2.859,0,0,0-2.839,2.879h0A2.858,2.858,0,0,0,197.041,250.57Z" transform="translate(-194.163 -244.517)" fill="#e0e0e0"/>
            </g>
          </g>
          <g id="Grupo_896793" data-name="Grupo 896793" transform="translate(80.1 112.725)">
            <g id="Grupo_896792" data-name="Grupo 896792">
              <path id="Trazado_664238" data-name="Trazado 664238" d="M278.99,234.531l48.486.3a2.858,2.858,0,0,0,2.876-2.841h0a2.857,2.857,0,0,0-2.84-2.876l-48.486-.3a2.859,2.859,0,0,0-2.876,2.841h0A2.858,2.858,0,0,0,278.99,234.531Z" transform="translate(-276.149 -228.814)" fill="#e0e0e0"/>
            </g>
          </g>
          <g id="Grupo_896795" data-name="Grupo 896795" transform="translate(79.87 123.784)">
            <g id="Grupo_896794" data-name="Grupo 896794">
              <path id="Trazado_664239" data-name="Trazado 664239" d="M278.677,249.572l48.486.3a2.858,2.858,0,0,0,2.876-2.841h0a2.859,2.859,0,0,0-2.841-2.876l-48.486-.3a2.859,2.859,0,0,0-2.876,2.841h0A2.858,2.858,0,0,0,278.677,249.572Z" transform="translate(-275.836 -243.855)" fill="#e0e0e0"/>
            </g>
          </g>
          <g id="Grupo_896797" data-name="Grupo 896797" transform="translate(79.554 135.448)">
            <g id="Grupo_896796" data-name="Grupo 896796">
              <path id="Trazado_664240" data-name="Trazado 664240" d="M278.247,265.436l48.486.3a2.859,2.859,0,0,0,2.876-2.841h0a2.859,2.859,0,0,0-2.841-2.876l-48.486-.3a2.859,2.859,0,0,0-2.876,2.841h0A2.858,2.858,0,0,0,278.247,265.436Z" transform="translate(-275.406 -259.719)" fill="#e0e0e0"/>
            </g>
          </g>
          <g id="Grupo_896799" data-name="Grupo 896799" transform="translate(79.237 147.113)">
            <g id="Grupo_896798" data-name="Grupo 896798">
              <path id="Trazado_664241" data-name="Trazado 664241" d="M277.817,281.3l48.486.3a2.859,2.859,0,0,0,2.876-2.841h0a2.859,2.859,0,0,0-2.841-2.876l-48.486-.3a2.859,2.859,0,0,0-2.876,2.841h0A2.859,2.859,0,0,0,277.817,281.3Z" transform="translate(-274.976 -275.583)" fill="#e0e0e0"/>
            </g>
          </g>
          <g id="Grupo_896801" data-name="Grupo 896801" transform="translate(78.921 158.777)">
            <g id="Grupo_896800" data-name="Grupo 896800">
              <path id="Trazado_664242" data-name="Trazado 664242" d="M277.387,297.164l48.486.3a2.859,2.859,0,0,0,2.876-2.841h0a2.858,2.858,0,0,0-2.841-2.876l-48.486-.3a2.86,2.86,0,0,0-2.876,2.841h0A2.859,2.859,0,0,0,277.387,297.164Z" transform="translate(-274.546 -291.447)" fill="#e0e0e0"/>
            </g>
          </g>
          <g id="Grupo_896803" data-name="Grupo 896803" transform="translate(78.605 170.441)">
            <g id="Grupo_896802" data-name="Grupo 896802">
              <path id="Trazado_664243" data-name="Trazado 664243" d="M276.957,313.028l48.486.3a2.859,2.859,0,0,0,2.876-2.841h0a2.86,2.86,0,0,0-2.841-2.877l-48.486-.3a2.859,2.859,0,0,0-2.876,2.841h0A2.859,2.859,0,0,0,276.957,313.028Z" transform="translate(-274.116 -307.311)" fill="#e0e0e0"/>
            </g>
          </g>
          <g id="Grupo_896805" data-name="Grupo 896805" transform="translate(78.289 182.104)">
            <g id="Grupo_896804" data-name="Grupo 896804">
              <path id="Trazado_664244" data-name="Trazado 664244" d="M276.527,328.891l48.486.3a2.858,2.858,0,0,0,2.876-2.841h0a2.859,2.859,0,0,0-2.841-2.876l-48.486-.3a2.859,2.859,0,0,0-2.876,2.841h0A2.858,2.858,0,0,0,276.527,328.891Z" transform="translate(-273.686 -323.174)" fill="#e0e0e0"/>
            </g>
          </g>
          <g id="Grupo_896807" data-name="Grupo 896807" transform="translate(17.358 192.628)">
            <g id="Grupo_896806" data-name="Grupo 896806">
              <path id="Trazado_664245" data-name="Trazado 664245" d="M192.718,343.2l110.232.679a2.859,2.859,0,0,0,2.876-2.841h0a2.858,2.858,0,0,0-2.841-2.876l-110.232-.679a1.914,1.914,0,0,0-1.926,1.9l-.012,1.887A1.915,1.915,0,0,0,192.718,343.2Z" transform="translate(-190.815 -337.487)" fill="#e0e0e0"/>
            </g>
          </g>
          <g id="Grupo_896809" data-name="Grupo 896809" transform="translate(20.677 43.604)">
            <g id="Grupo_896808" data-name="Grupo 896808">
              <path id="Trazado_664246" data-name="Trazado 664246" d="M198.207,140.743l32.083-.222a2.858,2.858,0,0,0,2.839-2.878h0a2.858,2.858,0,0,0-2.879-2.839l-32.083.221a2.859,2.859,0,0,0-2.839,2.879h0A2.859,2.859,0,0,0,198.207,140.743Z" transform="translate(-195.329 -134.804)" fill="#e0e0e0"/>
            </g>
          </g>
          <g id="Grupo_896824" data-name="Grupo 896824" transform="translate(58.276)">
            <g id="Grupo_896811" data-name="Grupo 896811" transform="translate(1.005 11.245)">
              <g id="Grupo_896810" data-name="Grupo 896810">
                <path id="Trazado_664247" data-name="Trazado 664247" d="M247.833,92.873l2.024-1.959,24.4-.121,1.207,2.149Z" transform="translate(-247.833 -90.793)" fill="#ee4e5d"/>
              </g>
            </g>
            <g id="Grupo_896813" data-name="Grupo 896813" transform="translate(0.985 13.335)">
              <g id="Grupo_896812" data-name="Grupo 896812">
                <rect id="Rectángulo_297355" data-name="Rectángulo 297355" width="11.261" height="27.634" transform="translate(27.654 0.048) rotate(90.1)" fill="#ee4e5d"/>
              </g>
            </g>
            <g id="Grupo_896815" data-name="Grupo 896815" transform="translate(0 23.643)">
              <g id="Grupo_896814" data-name="Grupo 896814">
                <rect id="Rectángulo_297356" data-name="Rectángulo 297356" width="2.248" height="29.553" rx="1.124" transform="translate(29.556 0.048) rotate(90.092)" fill="#ee4e5d"/>
              </g>
            </g>
            <g id="Grupo_896817" data-name="Grupo 896817" transform="translate(7.657)">
              <g id="Grupo_896816" data-name="Grupo 896816">
                <path id="Trazado_664248" data-name="Trazado 664248" d="M270.12,97.391h-.013l-12.154-.031a1.085,1.085,0,0,1-.876-.443,1.011,1.011,0,0,1-.132-.947l3.475-9.358A6.1,6.1,0,0,1,257.8,81.8a6.248,6.248,0,0,1,6.108-6.3,6.421,6.421,0,0,1,4.647,1.725,6.021,6.021,0,0,1-.738,9.432l3.3,9.358a1.016,1.016,0,0,1-.143.94A1.088,1.088,0,0,1,270.12,97.391ZM264.09,76.242l-.149,0a5.561,5.561,0,0,0-5.37,5.535,5.378,5.378,0,0,0,2.52,4.38l.252.161-3.676,9.9a.286.286,0,0,0,.037.27.3.3,0,0,0,.25.126l12.154.031a.3.3,0,0,0,.249-.124.286.286,0,0,0,.041-.268l-3.493-9.9.253-.157a5.343,5.343,0,0,0,2.574-4.538,5.283,5.283,0,0,0-1.7-3.9A5.642,5.642,0,0,0,264.09,76.242Z" transform="translate(-256.881 -75.499)" fill="#bdc7cc"/>
              </g>
            </g>
            <g id="Grupo_896820" data-name="Grupo 896820" transform="translate(1.145 23.575)">
              <g id="Grupo_896819" data-name="Grupo 896819">
                <g id="Grupo_896818" data-name="Grupo 896818">
                  <path id="Trazado_664249" data-name="Trazado 664249" d="M275.295,107.689a1.411,1.411,0,0,0-.279-.013l-.793-.012-2.922-.03-9.64-.059-9.643-.012-2.922.021-.795.016a1.259,1.259,0,0,0-.277.021,1.347,1.347,0,0,0,.277.024l.794.025,2.922.049c2.468.032,5.876.061,9.643.076s7.173.013,9.641-.005c1.234-.009,2.232-.022,2.923-.04.346-.01.612-.016.8-.029A1.318,1.318,0,0,0,275.295,107.689Z" transform="translate(-248.024 -107.563)" fill="#455a64"/>
                </g>
              </g>
            </g>
            <g id="Grupo_896823" data-name="Grupo 896823" transform="translate(1.421 13.038)">
              <g id="Grupo_896822" data-name="Grupo 896822">
                <g id="Grupo_896821" data-name="Grupo 896821">
                  <path id="Trazado_664250" data-name="Trazado 664250" d="M275.671,93.356a1.411,1.411,0,0,0-.279-.013l-.793-.012-2.922-.03-9.64-.059-9.643-.011-2.922.02-.795.016a1.319,1.319,0,0,0-.277.021,1.347,1.347,0,0,0,.277.024l.794.025,2.922.05c2.468.032,5.876.06,9.642.075s7.174.013,9.641-.005c1.234-.009,2.232-.022,2.923-.04.346-.01.612-.016.8-.029A1.317,1.317,0,0,0,275.671,93.356Z" transform="translate(-248.4 -93.231)" fill="#455a64"/>
                </g>
              </g>
            </g>
          </g>
        </g>
        <g id="Grupo_896829" data-name="Grupo 896829" transform="translate(144.47 214.225)">
          <g id="Grupo_896826" data-name="Grupo 896826" transform="translate(0.002 0.002)">
            <line id="Línea_1184" data-name="Línea 1184" x2="10.113" y2="9.449" fill="#fafafa"/>
          </g>
          <g id="Grupo_896828" data-name="Grupo 896828">
            <g id="Grupo_896827" data-name="Grupo 896827">
              <path id="Trazado_664251" data-name="Trazado 664251" d="M373.811,376.312a125.32,125.32,0,0,1-10.113-9.449,125.357,125.357,0,0,1,10.113,9.449Z" transform="translate(-363.697 -366.861)" fill="#263238"/>
            </g>
          </g>
        </g>
        <g id="Grupo_896831" data-name="Grupo 896831" transform="translate(17.357 57.028)">
          <g id="Grupo_896830" data-name="Grupo 896830">
            <path id="Trazado_664252" data-name="Trazado 664252" d="M190.814,315.617s.227-.013.671-.018l1.97-.018,7.6-.034,28.117-.058,94.309-.062-.19.19c0-4.765,0-9.822,0-14.939.021-40.766.041-77.667.056-104.385.026-13.351.046-24.155.061-31.633.015-3.728.027-6.625.036-8.6.008-.976.015-1.723.018-2.237s.02-.762.02-.762.013.258.02.762.01,1.26.019,2.237c.008,1.975.02,4.872.035,8.6.015,7.478.035,18.282.061,31.633.015,26.718.035,63.619.056,104.385,0,5.117,0,10.174,0,14.939v.191h-.19l-94.309-.062-28.117-.059-7.6-.034-1.97-.018C191.041,315.629,190.814,315.617,190.814,315.617Z" transform="translate(-190.814 -153.061)" fill="#fff"/>
          </g>
        </g>
        <g id="Grupo_896852" data-name="Grupo 896852" transform="translate(19.936 139.907)">
          <g id="Grupo_896841" data-name="Grupo 896841">
            <g id="Grupo_896834" data-name="Grupo 896834" transform="translate(1.44)">
              <g id="Grupo_896833" data-name="Grupo 896833">
                <g id="Grupo_896832" data-name="Grupo 896832">
                  <path id="Trazado_664253" data-name="Trazado 664253" d="M241.205,287.989a22.465,22.465,0,1,1-22.823-22.2A22.547,22.547,0,0,1,241.205,287.989Zm-33.2.536a10.741,10.741,0,1,0,10.568-10.963A10.777,10.777,0,0,0,208,288.525Z" transform="translate(-196.279 -265.783)" fill="#afafaf"/>
                </g>
              </g>
            </g>
            <g id="Grupo_896837" data-name="Grupo 896837" transform="translate(23.543 0.001)">
              <g id="Grupo_896836" data-name="Grupo 896836">
                <g id="Grupo_896835" data-name="Grupo 896835">
                  <path id="Trazado_664254" data-name="Trazado 664254" d="M249.164,287.989a22.546,22.546,0,0,1-22.1,22.927l-.188-11.776a10.791,10.791,0,0,0-.345-21.578l-.189-11.776A22.538,22.538,0,0,1,249.164,287.989Z" transform="translate(-226.341 -265.784)" fill="#f1b62b"/>
                </g>
              </g>
            </g>
            <g id="Grupo_896840" data-name="Grupo 896840" transform="translate(0 21.155)">
              <g id="Grupo_896839" data-name="Grupo 896839">
                <g id="Grupo_896838" data-name="Grupo 896838">
                  <path id="Trazado_664255" data-name="Trazado 664255" d="M220.6,320.346a25.667,25.667,0,0,1-26.282-25.568l13.713-.221c.112,6.96,5.408,11.342,12.335,11.23Z" transform="translate(-194.321 -294.556)" fill="#179587"/>
                </g>
              </g>
            </g>
          </g>
        </g>
        <g id="Grupo_896853" data-name="Grupo 896853" transform="translate(84.569 67.057)">
          <path id="Trazado_664261" data-name="Trazado 664261" d="M325.388,201.93h-.008l-42.426-.507a.736.736,0,0,1-.726-.744l.4-33.252a.722.722,0,0,1,.744-.726.735.735,0,0,1,.726.744l-.388,32.517,41.69.5a.735.735,0,0,1-.009,1.471Z" transform="translate(-282.228 -166.701)" fill="#263238"/>
        </g>
        <g id="Grupo_896854" data-name="Grupo 896854" transform="translate(91.06 88.256)">
          <rect id="Rectángulo_297357" data-name="Rectángulo 297357" width="5.695" height="10.463" transform="matrix(1, 0.012, -0.012, 1, 0.125, 0)" fill="#179587"/>
        </g>
        <g id="Grupo_896855" data-name="Grupo 896855" transform="translate(110.838 88.256)">
          <rect id="Rectángulo_297358" data-name="Rectángulo 297358" width="5.695" height="10.463" transform="translate(0.125) rotate(0.684)" fill="#179587"/>
        </g>
        <g id="Grupo_896856" data-name="Grupo 896856" transform="translate(100.982 79.878)">
          <rect id="Rectángulo_297359" data-name="Rectángulo 297359" width="5.695" height="19.018" transform="translate(0.227 0) rotate(0.684)" fill="#f1b62b"/>
        </g>
        <g id="Grupo_896857" data-name="Grupo 896857" transform="translate(120.693 79.878)">
          <rect id="Rectángulo_297360" data-name="Rectángulo 297360" width="5.695" height="19.018" transform="matrix(1, 0.012, -0.012, 1, 0.227, 0)" fill="#f1b62b"/>
        </g>
        <g id="Grupo_896858" data-name="Grupo 896858" transform="translate(89.782 64.132)">
          <path id="Trazado_664262" data-name="Trazado 664262" d="M290.052,182.282a.736.736,0,0,1-.5-1.278l13.081-11.978a.737.737,0,0,1,.949-.037l8.247,6.435L329.46,162.86a.735.735,0,0,1,.853,1.2L312.239,176.94a.735.735,0,0,1-.879-.019l-8.188-6.391-12.622,11.558A.736.736,0,0,1,290.052,182.282Z" transform="translate(-289.317 -162.724)" fill="#228d37"/>
        </g>
        <g id="Grupo_896859" data-name="Grupo 896859" transform="translate(113.273 57.153)">
          <path id="Trazado_664263" data-name="Trazado 664263" d="M324.4,167.649s-3.812-1.236-3.023-6.76,3.966-7.658,3.966-7.658,3.6,3.756,3.611,8.519-3.153,5.916-3.153,5.916l-.646-9.253Z" transform="translate(-321.267 -153.231)" fill="#228d37"/>
        </g>
        <g id="Grupo_896860" data-name="Grupo 896860" transform="translate(121.99 62.408)">
          <path id="Trazado_664264" data-name="Trazado 664264" d="M333.361,169.577s-1.584-3.915,3.412-7.019,8.869-1.982,8.869-1.982-.6,5.447-4.434,8.684-7.136,1.261-7.136,1.261l7.319-5.838Z" transform="translate(-333.123 -160.378)" fill="#228d37"/>
        </g>
        <g id="Grupo_896861" data-name="Grupo 896861" transform="translate(118.358 41.727)">
          <path id="Trazado_664265" data-name="Trazado 664265" d="M341.641,139.212h-9.978a3.48,3.48,0,0,1-3.48-3.48h0a3.481,3.481,0,0,1,3.48-3.481h9.978a3.481,3.481,0,0,1,3.481,3.481h0A3.481,3.481,0,0,1,341.641,139.212Z" transform="translate(-328.183 -132.251)" fill="#e0e0e0"/>
        </g>
      </g>
    </g>
    <g id="Earth" transform="translate(51.004 135.83)">
      <g id="Grupo_896768" data-name="Grupo 896768" transform="translate(-1.926)">
        <path id="Trazado_664212" data-name="Trazado 664212" d="M305.777,62.535s1.053-9.7-7.656-14.338a22.888,22.888,0,0,0-16.607-2.065s.9,14.054,9.9,18.171c0,0,4.137,2.6,11.06.717l3.047,4,2.021-1.82c-5.453-7.239-20.056-16.956-20.056-16.956a69.418,69.418,0,0,1,11.277,6.724A79.457,79.457,0,0,1,305.777,62.535Z" transform="translate(-279.518 -37.022)" fill="#298a1e"/>
        <path id="Trazado_664213" data-name="Trazado 664213" d="M328.7,45.507s2.347-4.009-.52-7.6A10.584,10.584,0,0,0,321.395,34s-2.35,6.248.746,9.666a6.708,6.708,0,0,0,4.648,2.319l.7,3.042,1.34-.616c-.95-4.124-5.646-11.546-5.646-11.546a31.4,31.4,0,0,1,3.572,4.959A36.013,36.013,0,0,1,328.7,45.507Z" transform="translate(-296.203 -33.998)" fill="#298a1e"/>
        <g id="Grupo_896767" data-name="Grupo 896767" transform="translate(0 8.271)">
          <path id="Trazado_664214" data-name="Trazado 664214" d="M418.137,95.563c0,27.789-23.177,50.316-51.767,50.316a53.168,53.168,0,0,1-34.483-12.235A49.828,49.828,0,0,1,314.6,95.563c0-27.789,23.177-50.316,51.767-50.316S418.137,67.774,418.137,95.563Z" transform="translate(-314.603 -45.247)" fill="#79e1dd"/>
          <path id="Trazado_664215" data-name="Trazado 664215" d="M451.312,118.359c.061-.584.112-1.162.147-1.743q.065-.919.1-1.834-.03.915-.1,1.834C451.424,117.2,451.373,117.775,451.312,118.359Z" transform="translate(-347.9 -63.656)" fill="#263238"/>
          <path id="Trazado_664216" data-name="Trazado 664216" d="M397.25,136.2c-1.673,1.657-2.392,3.988-3.21,6.175s-1.921,4.467-3.987,5.616-5.283.443-5.829-1.816c-.3-1.226.246-2.5.206-3.762-.053-1.643-1.075-3.1-1.372-4.714a12,12,0,0,1,.276-4.177c1.311-7.564,1.054-15.767-3.022-22.274a5.042,5.042,0,0,0-1.951-2.009,3.013,3.013,0,0,0-3.194.443c-.529.464-.887,1.118-1.494,1.479-1.317.787-3.113-.3-3.592-1.731a7.531,7.531,0,0,1,.375-4.443l1.587-5.4a4.729,4.729,0,0,1,1.385-2.554c1.12-.86,2.76-.6,4.04-1.2,1.678-.8,2.292-2.807,3.528-4.178s4.247-1.476,4.315.347c4.356-5.824,9.13,4.976,13.276,5.024,1.2.014,2.45-.318,3.587.066,2.006.678,2.613,3.118,2.921,5.183q.763,5.139,1.528,10.278c.194,1.305.49,2.772,1.622,3.475.869.539,2.019.474,2.9.995,2.326,1.376.714,5.1-1.657,6.438s-5.427,1.876-6.889,4.143c-1.1,1.708-.968,3.981-2.12,5.658C399.652,134.452,398.287,135.173,397.25,136.2Z" transform="translate(-328.259 -57.167)" fill="#ff725e" opacity="0.3"/>
          <path id="Trazado_664217" data-name="Trazado 664217" d="M397.25,136.2c-1.673,1.657-2.392,3.988-3.21,6.175s-1.921,4.467-3.987,5.616-5.283.443-5.829-1.816c-.3-1.226.246-2.5.206-3.762-.053-1.643-1.075-3.1-1.372-4.714a12,12,0,0,1,.276-4.177c1.311-7.564,1.054-15.767-3.022-22.274a5.042,5.042,0,0,0-1.951-2.009,3.013,3.013,0,0,0-3.194.443c-.529.464-.887,1.118-1.494,1.479-1.317.787-3.113-.3-3.592-1.731a7.531,7.531,0,0,1,.375-4.443l1.587-5.4a4.729,4.729,0,0,1,1.385-2.554c1.12-.86,2.76-.6,4.04-1.2,1.678-.8,2.292-2.807,3.528-4.178s4.247-1.476,4.315.347c4.356-5.824,9.13,4.976,13.276,5.024,1.2.014,2.45-.318,3.587.066,2.006.678,2.613,3.118,2.921,5.183q.763,5.139,1.528,10.278c.194,1.305.49,2.772,1.622,3.475.869.539,2.019.474,2.9.995,2.326,1.376.714,5.1-1.657,6.438s-5.427,1.876-6.889,4.143c-1.1,1.708-.968,3.981-2.12,5.658C399.652,134.452,398.287,135.173,397.25,136.2Z" transform="translate(-328.259 -57.167)" fill="#228d37" opacity="0.3"/>
          <path id="Trazado_664218" data-name="Trazado 664218" d="M415.558,155.558c-.848-.044-1.739-.63-2.476-.21a2.717,2.717,0,0,0-.855,1.173,2.858,2.858,0,0,1-1.491,1.347,1.806,1.806,0,0,1-1.9-.4,1.278,1.278,0,0,1,.1-1.807,9.364,9.364,0,0,1,.829-.436c1.3-.808.94-2.837,2.02-3.888.637-.62,1.557-1.2,2.245-1.815.529-.476.771-.888,1.563-.89C419.059,148.624,419.166,155.745,415.558,155.558Z" transform="translate(-337.523 -72.618)" fill="#228d37" opacity="0.3"/>
          <path id="Trazado_664219" data-name="Trazado 664219" d="M334.5,162.655q.558.553,1.136,1.085c.269.25.539.492.817.735-.279-.243-.548-.485-.817-.735Q335.056,163.208,334.5,162.655Z" transform="translate(-319.346 -76.33)" fill="#263238" opacity="0.3"/>
          <path id="Trazado_664220" data-name="Trazado 664220" d="M450.181,124.764q.217-1.087.376-2.17-.16,1.083-.376,2.17c-.031.235-.078.465-.126.7-.228,1.115-.494,2.206-.784,3.292.289-1.087.555-2.178.784-3.292C450.1,125.23,450.15,125,450.181,124.764Z" transform="translate(-347.413 -65.724)" fill="#263238"/>
          <path id="Trazado_664221" data-name="Trazado 664221" d="M450.808,101.751q.168,1.026.293,2.056-.126-1.031-.293-2.056s.01-.006,0-.007h0Z" transform="translate(-347.779 -60.204)" fill="#263238"/>
          <path id="Trazado_664222" data-name="Trazado 664222" d="M434.914,108.581q.217-1.087.376-2.17t.268-2.167c.061-.584.112-1.162.147-1.743q.065-.919.1-1.834a49.046,49.046,0,0,0-.125-5.454q-.083-1.039-.208-2.07t-.293-2.056v-.007h0c-.161-.527-.34-1.049-.545-1.568-1.935-4.97-5.353-9.231-7.61-14.064-.738-1.573-1.3-2.863-3.048-3.478-2.589-.916-4.248.323-5.632-2.531-.372-.766-1.136-1.557-1.97-1.3.085.571.177,1.143.261,1.721a.768.768,0,0,1-.007.362c-.117.367-.705.362-.987.093a3.276,3.276,0,0,1-.528-1.036,2.687,2.687,0,0,0-3.782-1.045,1.457,1.457,0,0,0-.609-1.341,1.812,1.812,0,0,1-2.487.973c-.054-.515.846-.435,1.238-.79.363-.336.134-.943-.163-1.339a5.694,5.694,0,0,0-3.247-2.018,4.948,4.948,0,0,1-2.356-.74c-.363-.318-.574-.771-.947-1.083-.8-.673-2.016-.426-3.024-.105a5.9,5.9,0,0,0-3.542,2.295c-.716,1.237-.1,3.215,1.34,3.317a2.842,2.842,0,0,1,1.1.086,1.287,1.287,0,0,1,.52,1.365,3.6,3.6,0,0,0-.07,1.534c.152.492.843.856,1.212.488a2.808,2.808,0,0,0,.935-2.47,3.434,3.434,0,0,1,.72-2.568c.691-.621,2.182-.1,1.894.776-.173.512-.858.779-.944,1.318s.527.961,1.082,1.042a6.156,6.156,0,0,1,1.66.235c.516.231.8,1.006.335,1.321-.826.621-2.312-1-2.851-.13-.146.221-.1.51-.181.76-.225.768-1.279.865-2.092.809a4.5,4.5,0,0,1-2.322-.617,1.478,1.478,0,0,1-.405-2.088.932.932,0,0,0-1.33.21,2.579,2.579,0,0,0-.386,1.432,2.291,2.291,0,0,0-2.321.815,3.976,3.976,0,0,1-2.126,1.423c-.877.09-1.941-.462-2.521.189-.754.849.617,2.368-.144,3.208-.433.472-1.207.307-1.857.357a2.662,2.662,0,0,0-1.913,3.838,3.273,3.273,0,0,0,4.505.844,14.7,14.7,0,0,0,2.347-2.63c.792-.867,2.092-1.545,3.144-1.014a3.428,3.428,0,0,1,1.011.938c.451.549.9,1.1,1.351,1.657a1.452,1.452,0,0,1,.473,1.224c-.106.351-.446.576-.636.887-.538.9.692,2.085,1.69,1.73a1.955,1.955,0,0,0,.934-2.627c-.607-1.308-2.393-2.245-2.053-3.653,1.131-.595,2.493.518,2.833,1.733s.091,2.516.335,3.746,1.372,2.5,2.6,2.16c-.09-1.043-.172-2.077-.263-3.112.82-.389,1.324,1.3,2.227,1.2.551-.06.765-.781.64-1.318a6.911,6.911,0,0,1-.425-1.579,1.716,1.716,0,0,1,2.279-1.311A2.514,2.514,0,0,1,410,82.028a4.555,4.555,0,0,0,.026,1.188c.216.835,1.132,1.251,1.86,1.72s1.4,1.418.909,2.134c-.224.313-.655.57-.6.946.058.334.5.559.431.893-.054.221-.32.328-.548.375-.579.113-1.177.074-1.746.221a1.509,1.509,0,0,0-1.211,1.109c-.1.809.787,1.375,1.1,2.122a9.741,9.741,0,0,1,.2,2.306,7.837,7.837,0,0,0,.865,1.978c.976,2.056.816,4.434,1.035,6.693.094,1.019.408,2.2,1.375,2.571a3.189,3.189,0,0,0,1.683,0,10.134,10.134,0,0,0,4.443-1.568c1.259-.968,1.986-2.79,1.174-4.128a.829.829,0,0,0-.43-.405,1.553,1.553,0,0,0-.815.118,2.215,2.215,0,0,1-2.161-.909,6.271,6.271,0,0,1-.938-2.24c-.235-.865-.469-1.737-.711-2.61a1.451,1.451,0,0,1,1.7.49,9.293,9.293,0,0,1,.889,1.659,7.607,7.607,0,0,0,4.626,3.333,4.967,4.967,0,0,1,1.381.57c1.3.918,1.288,3.076,2.711,3.811a9.794,9.794,0,0,1,1.229.532,2.339,2.339,0,0,1,.754,1.783,25.159,25.159,0,0,0,.226,3.7,3.3,3.3,0,0,0,2.3,2.665,3.06,3.06,0,0,0,2.241-.507l0-.008c.289-1.087.555-2.178.784-3.292C434.836,109.047,434.883,108.816,434.914,108.581Z" transform="translate(-332.146 -49.541)" fill="#ff725e" opacity="0.3"/>
          <path id="Trazado_664223" data-name="Trazado 664223" d="M434.914,108.581q.217-1.087.376-2.17t.268-2.167c.061-.584.112-1.162.147-1.743q.065-.919.1-1.834a49.046,49.046,0,0,0-.125-5.454q-.083-1.039-.208-2.07t-.293-2.056v-.007h0c-.161-.527-.34-1.049-.545-1.568-1.935-4.97-5.353-9.231-7.61-14.064-.738-1.573-1.3-2.863-3.048-3.478-2.589-.916-4.248.323-5.632-2.531-.372-.766-1.136-1.557-1.97-1.3.085.571.177,1.143.261,1.721a.768.768,0,0,1-.007.362c-.117.367-.705.362-.987.093a3.276,3.276,0,0,1-.528-1.036,2.687,2.687,0,0,0-3.782-1.045,1.457,1.457,0,0,0-.609-1.341,1.812,1.812,0,0,1-2.487.973c-.054-.515.846-.435,1.238-.79.363-.336.134-.943-.163-1.339a5.694,5.694,0,0,0-3.247-2.018,4.948,4.948,0,0,1-2.356-.74c-.363-.318-.574-.771-.947-1.083-.8-.673-2.016-.426-3.024-.105a5.9,5.9,0,0,0-3.542,2.295c-.716,1.237-.1,3.215,1.34,3.317a2.842,2.842,0,0,1,1.1.086,1.287,1.287,0,0,1,.52,1.365,3.6,3.6,0,0,0-.07,1.534c.152.492.843.856,1.212.488a2.808,2.808,0,0,0,.935-2.47,3.434,3.434,0,0,1,.72-2.568c.691-.621,2.182-.1,1.894.776-.173.512-.858.779-.944,1.318s.527.961,1.082,1.042a6.156,6.156,0,0,1,1.66.235c.516.231.8,1.006.335,1.321-.826.621-2.312-1-2.851-.13-.146.221-.1.51-.181.76-.225.768-1.279.865-2.092.809a4.5,4.5,0,0,1-2.322-.617,1.478,1.478,0,0,1-.405-2.088.932.932,0,0,0-1.33.21,2.579,2.579,0,0,0-.386,1.432,2.291,2.291,0,0,0-2.321.815,3.976,3.976,0,0,1-2.126,1.423c-.877.09-1.941-.462-2.521.189-.754.849.617,2.368-.144,3.208-.433.472-1.207.307-1.857.357a2.662,2.662,0,0,0-1.913,3.838,3.273,3.273,0,0,0,4.505.844,14.7,14.7,0,0,0,2.347-2.63c.792-.867,2.092-1.545,3.144-1.014a3.428,3.428,0,0,1,1.011.938c.451.549.9,1.1,1.351,1.657a1.452,1.452,0,0,1,.473,1.224c-.106.351-.446.576-.636.887-.538.9.692,2.085,1.69,1.73a1.955,1.955,0,0,0,.934-2.627c-.607-1.308-2.393-2.245-2.053-3.653,1.131-.595,2.493.518,2.833,1.733s.091,2.516.335,3.746,1.372,2.5,2.6,2.16c-.09-1.043-.172-2.077-.263-3.112.82-.389,1.324,1.3,2.227,1.2.551-.06.765-.781.64-1.318a6.911,6.911,0,0,1-.425-1.579,1.716,1.716,0,0,1,2.279-1.311A2.514,2.514,0,0,1,410,82.028a4.555,4.555,0,0,0,.026,1.188c.216.835,1.132,1.251,1.86,1.72s1.4,1.418.909,2.134c-.224.313-.655.57-.6.946.058.334.5.559.431.893-.054.221-.32.328-.548.375-.579.113-1.177.074-1.746.221a1.509,1.509,0,0,0-1.211,1.109c-.1.809.787,1.375,1.1,2.122a9.741,9.741,0,0,1,.2,2.306,7.837,7.837,0,0,0,.865,1.978c.976,2.056.816,4.434,1.035,6.693.094,1.019.408,2.2,1.375,2.571a3.189,3.189,0,0,0,1.683,0,10.134,10.134,0,0,0,4.443-1.568c1.259-.968,1.986-2.79,1.174-4.128a.829.829,0,0,0-.43-.405,1.553,1.553,0,0,0-.815.118,2.215,2.215,0,0,1-2.161-.909,6.271,6.271,0,0,1-.938-2.24c-.235-.865-.469-1.737-.711-2.61a1.451,1.451,0,0,1,1.7.49,9.293,9.293,0,0,1,.889,1.659,7.607,7.607,0,0,0,4.626,3.333,4.967,4.967,0,0,1,1.381.57c1.3.918,1.288,3.076,2.711,3.811a9.794,9.794,0,0,1,1.229.532,2.339,2.339,0,0,1,.754,1.783,25.159,25.159,0,0,0,.226,3.7,3.3,3.3,0,0,0,2.3,2.665,3.06,3.06,0,0,0,2.241-.507l0-.008c.289-1.087.555-2.178.784-3.292C434.836,109.047,434.883,108.816,434.914,108.581Z" transform="translate(-332.146 -49.541)" fill="#228d37" opacity="0.3"/>
          <path id="Trazado_664224" data-name="Trazado 664224" d="M375.038,55.8c-1.136.4-1.906,1.424-2.865,2.145s-2.491,1.073-3.265.174a2.1,2.1,0,0,1-.391-1.614,3.866,3.866,0,0,1,1.023-2.2c.586-.622,1.372-1.05,1.9-1.721a1.633,1.633,0,0,0-.021-2.27c-.375-.267-.91-.293-1.222-.629-.562-.6.142-1.643.967-1.782a6.017,6.017,0,0,1,2.436.452c2.928.752,5.5-.741,8.055-1.9,1.986-.9,5.978-1.655,7.727-.011a1.546,1.546,0,0,1-.125,2.432c-.389.19-.867.158-1.238.379-.446.265-.613.81-.922,1.223-.8,1.073-2.51,1.193-3.277,2.292-.462.661-.5,1.585-1.115,2.118a2.914,2.914,0,0,1-1.831.5l-4.053.165A6.057,6.057,0,0,0,375.038,55.8Z" transform="translate(-327.801 -45.306)" fill="#228d37" opacity="0.3"/>
          <path id="Trazado_664225" data-name="Trazado 664225" d="M323.118,74.522c1.12-.622,2.792-.4,3.323.742a3.479,3.479,0,0,1-.26,2.623q-.641,1.715-1.291,3.428a1.85,1.85,0,0,0-.168,1.068c.2.816,1.479.911,2.094.334a3.307,3.307,0,0,0,.791-2.34,4.581,4.581,0,0,1,.526-2.44c1.2-1.741,4.014-.906,5.935-1.821a9.274,9.274,0,0,0,2.762-2.766c.845-1.006,2.1-1.932,3.388-1.629.434.1.83.34,1.271.408a1.761,1.761,0,0,0,1.685-2.558,3.212,3.212,0,0,1-.449-.682,1.069,1.069,0,0,1,.661-1.173,3.151,3.151,0,0,1,1.449-.17c1.129.033,2.256.075,3.384.116,1.244.047,2.915-.271,2.989-1.49.065-1.055-1.257-1.787-1.259-2.847a3.348,3.348,0,0,0,.015-.775c-.2-.717-1.248-.643-1.959-.415a1.607,1.607,0,0,0-2.25-1.216c-.756.4-1.026,1.31-1.414,2.056-.925,1.809-2.769,2.963-4.518,4.028a3.078,3.078,0,0,1-1.921.626c-.679-.1-1.238-.94-.811-1.462.292-.358.922-.478.957-.935.033-.573-.963-.722-1.048-1.293.711-1.5,2.683-1.8,4.265-2.38a9.028,9.028,0,0,0,4.637-3.781,1.15,1.15,0,0,0,.238-.915c-.129-.438-.658-.605-1.12-.693-1.082-.224-2.463-.338-3.064.582a12,12,0,0,0-.534,1.661c-.72,1.583-3.065,1.326-4.676,2.045a13.343,13.343,0,0,1-1.836.907,8.9,8.9,0,0,1-2.224-.069c.093.011.133.009,0,0-.57.524-1.351,1.256-1.894,1.808s-1.018,1.069-1.535,1.644a51.11,51.11,0,0,0-6.658,8.706q-.961,1.672-1.794,3.428t-1.537,3.589a14.441,14.441,0,0,0,1.573-2.993A5.984,5.984,0,0,1,323.118,74.522Z" transform="translate(-315.715 -48.097)" fill="#228d37" opacity="0.3"/>
          <path id="Trazado_664226" data-name="Trazado 664226" d="M327.312,142.033l.008,0c.435.505.883.987,1.34,1.464q.54.568,1.1,1.121t1.136,1.085c.269.25.538.492.817.735-.023-.095-.047-.182-.069-.278-.628-2.644.025-6.16,2.692-6.9a5.752,5.752,0,0,0,1.513-.447c1.283-.8.824-3.037,2.107-3.835.721-.441,1.661-.221,2.482-.411,1.478-.355,2.264-1.976,2.459-3.462s0-3.021.465-4.445c.72-2.155,2.927-4.059,2.331-6.242-.67-2.437-4.023-2.7-6.127-4.14-2.937-2.009-3.127-6.133-4.663-9.314-1.377-2.845-5.222-6.417-8.728-6.308A4.194,4.194,0,0,0,321.9,103.7l-.3-.107c-.88-.267-1.922-.515-2.266-1.343-.4-.962.426-2.12.006-3.069-.219-.5-.714-.79-1.087-1.184s-.631-1.031-.268-1.442c.3-.349.881-.32,1.238-.624a.82.82,0,0,0,.188-1c-.7-1.251-2.18.743-2.8,1.163a4.5,4.5,0,0,1-.491.3v.008c-.027.094-.054.18-.073.276-.074.3-.135.6-.2.9s-.14.6-.2.905c-.051.247-.093.493-.139.739s-.1.494-.139.739c-.024.119-.047.231-.063.352a50.191,50.191,0,0,0-.017,16.588,48.1,48.1,0,0,0,1.775,7.19c.314,1.012.68,2.017,1.074,3.011.489,1.226,1.015,2.436,1.606,3.617.543,1.129,1.139,2.245,1.784,3.327a50.037,50.037,0,0,0,2.869,4.355q1.37,1.875,2.919,3.619" transform="translate(-314.603 -58.295)" opacity="0.3"/>
        </g>
        <path id="Trazado_664227" data-name="Trazado 664227" d="M393.557,190.29s6.914-6.145,15.332-2.446a20.136,20.136,0,0,1,10.817,10.815s-11.361,7.155-19.542,2.956c0,0-4.3-1.538-6.695-7.568l-6.358.075.622-2.757c8.622-.093,25.479,5.272,25.479,5.272a65.322,65.322,0,0,0-11.458-4.389A76.668,76.668,0,0,0,393.557,190.29Z" transform="translate(-334.408 -74.415)" fill="#298a1e"/>
      </g>
    </g>
    <g id="Background_Complete" data-name="Background Complete" transform="translate(6.536 33.998)">
      <g id="Grupo_896690" data-name="Grupo 896690" transform="translate(247.128 201.963)" opacity="0.28">
        <g id="Grupo_896689" data-name="Grupo 896689">
          <path id="Trazado_664147" data-name="Trazado 664147" d="M38.865,338.524a18.509,18.509,0,0,1,4.926-.086l2.571-3.775,7.03,2.768-.692,4.515a18.5,18.5,0,0,1,3.545,3.42l4.485-.852,3.014,6.929-3.679,2.7a18.516,18.516,0,0,1,.085,4.926l3.775,2.57-2.768,7.03-4.515-.692a18.52,18.52,0,0,1-3.419,3.545l.851,4.486-6.929,3.014-2.7-3.68a18.478,18.478,0,0,1-4.926.085L36.948,379.2l-7.031-2.768.692-4.515a18.5,18.5,0,0,1-3.545-3.42l-4.485.852-3.015-6.929,3.68-2.7a18.516,18.516,0,0,1-.085-4.926l-3.775-2.57,2.768-7.031,4.515.692a18.523,18.523,0,0,1,3.42-3.545l-.851-4.485,6.928-3.015,2.7,3.681Zm-.129,10.839a8.106,8.106,0,1,0,10.667,4.2A8.106,8.106,0,0,0,38.736,349.363Z" transform="translate(-19.384 -334.663)" fill="#ebebeb"/>
        </g>
      </g>
      <g id="Grupo_896694" data-name="Grupo 896694" transform="translate(257.354 128.555)" opacity="0.33">
        <g id="Grupo_896693" data-name="Grupo 896693">
          <path id="Trazado_664149" data-name="Trazado 664149" d="M196.522,53.408a29.224,29.224,0,0,1,7.121-3.095l1.467-7.049,11.91-.208,1.714,6.992a29.176,29.176,0,0,1,7.227,2.843l6.019-3.946,8.57,8.274-3.731,6.153a29.161,29.161,0,0,1,3.095,7.124l7.049,1.467.209,11.91-6.992,1.714a29.171,29.171,0,0,1-2.843,7.226l3.945,6.02-8.273,8.569-6.153-3.731a29.161,29.161,0,0,1-7.123,3.095l-1.467,7.049-11.91.208-1.714-6.993a29.217,29.217,0,0,1-7.227-2.843l-6.019,3.945-8.57-8.273,3.731-6.153a29.164,29.164,0,0,1-3.1-7.123l-7.049-1.466-.209-11.91,6.993-1.715a29.2,29.2,0,0,1,2.843-7.225l-3.945-6.02,8.273-8.569,6.154,3.731Zm6.349,15.866a12.778,12.778,0,1,0,18.068-.318A12.778,12.778,0,0,0,202.87,69.274Z" transform="translate(-176.203 -43.056)" fill="#f5f5f5"/>
        </g>
      </g>
      <g id="Grupo_896698" data-name="Grupo 896698" transform="translate(257.355 58.076)" opacity="0.28">
        <g id="Grupo_896697" data-name="Grupo 896697">
          <path id="Trazado_664151" data-name="Trazado 664151" d="M127.307,115.048a18.79,18.79,0,0,1,4.579-1.99l.943-4.532,7.657-.134,1.1,4.495a18.778,18.778,0,0,1,4.646,1.828l3.869-2.536,5.509,5.319-2.4,3.956a18.721,18.721,0,0,1,1.99,4.579l4.532.943.134,7.656-4.495,1.1a18.783,18.783,0,0,1-1.828,4.645l2.536,3.869-5.318,5.509-3.956-2.4a18.725,18.725,0,0,1-4.579,1.989l-.943,4.532-7.657.134-1.1-4.5a18.773,18.773,0,0,1-4.645-1.828l-3.87,2.536-5.509-5.318,2.4-3.956a18.7,18.7,0,0,1-1.99-4.579l-4.532-.943-.135-7.656,4.5-1.1a18.772,18.772,0,0,1,1.828-4.645l-2.536-3.87,5.318-5.508,3.956,2.4Zm4.082,10.2a8.214,8.214,0,1,0,11.615-.2A8.215,8.215,0,0,0,131.388,125.247Z" transform="translate(-114.245 -108.393)" fill="#f5f5f5"/>
        </g>
      </g>
      <g id="Grupo_896700" data-name="Grupo 896700" transform="translate(330.009 148.617)" opacity="0.49">
        <g id="Grupo_896699" data-name="Grupo 896699">
          <path id="Trazado_664152" data-name="Trazado 664152" d="M77.143,79.533a9.162,9.162,0,0,1,2.241-.974l.461-2.218,3.748-.066.539,2.2a9.17,9.17,0,0,1,2.274.9L88.3,78.128l2.7,2.6-1.174,1.936A9.134,9.134,0,0,1,90.8,84.91l2.218.461.066,3.747-2.2.54a9.211,9.211,0,0,1-.894,2.274l1.241,1.894-2.6,2.7-1.937-1.174a9.174,9.174,0,0,1-2.241.974l-.462,2.219-3.747.065-.539-2.2a9.189,9.189,0,0,1-2.274-.9l-1.895,1.242-2.7-2.6,1.174-1.936a9.174,9.174,0,0,1-.974-2.241l-2.218-.462-.066-3.747,2.2-.54a9.179,9.179,0,0,1,.894-2.274L72.6,81.055l2.6-2.7,1.937,1.174Zm2,4.993a4.021,4.021,0,1,0,5.685-.1A4.02,4.02,0,0,0,79.141,84.526Z" transform="translate(-70.749 -76.275)" fill="#f5f5f5"/>
        </g>
      </g>
      <g id="Grupo_896716" data-name="Grupo 896716" transform="translate(253.612 40.51)">
        <g id="Grupo_896701" data-name="Grupo 896701" transform="translate(55.305 52.658)">
          <path id="Trazado_664153" data-name="Trazado 664153" d="M427.4,281.855h-7.9a1.491,1.491,0,0,0-1.5,1.405l-.31,6.129a1.487,1.487,0,0,0,1.479,1.552l8.232.1Z" transform="translate(-417.687 -281.855)" fill="#e0e0e0"/>
        </g>
        <path id="Trazado_664154" data-name="Trazado 664154" d="M436.814,293.1,438.6,437.25H423.375L429.95,293.1Z" transform="translate(-363.423 -231.256)" fill="#f5f5f5"/>
        <path id="Trazado_664155" data-name="Trazado 664155" d="M438.2,293.1l.217,12.183-7.486-6,.406-6.182Z" transform="translate(-364.806 -231.256)" fill="#e0e0e0"/>
        <path id="Trazado_664156" data-name="Trazado 664156" d="M446.651,283.639v6.351a1.12,1.12,0,0,1-1.176,1.055h-15.9v-9.19l15.959.731A1.112,1.112,0,0,1,446.651,283.639Z" transform="translate(-364.559 -229.197)" fill="#f5f5f5"/>
        <g id="Grupo_896704" data-name="Grupo 896704" transform="translate(57.747 54.446)">
          <g id="Grupo_896702" data-name="Grupo 896702">
            <path id="Trazado_664157" data-name="Trazado 664157" d="M432.991,290.575c1.165,1.012,25.612,35.848,27.614,39.277,2.251,3.857.191,6.212.191,6.212L420.676,286.68l2.34-2.637,4.805,5.823S431.825,289.564,432.991,290.575Z" transform="translate(-420.676 -284.043)" fill="#f5f5f5"/>
            <path id="Trazado_664158" data-name="Trazado 664158" d="M462.207,331.147a14.5,14.5,0,0,1,.806,1.631l-1.728-2.082-31.862-39.535s4-.3,5.169.709S460.2,327.719,462.207,331.147Z" transform="translate(-422.277 -285.339)" fill="#ebebeb"/>
          </g>
          <g id="Grupo_896703" data-name="Grupo 896703" transform="translate(2.823 0.681)">
            <path id="Trazado_664159" data-name="Trazado 664159" d="M440.291,304.707a5.518,5.518,0,0,0-.6-.81l-1.714-2.138-5.629-7.074c-2.2-2.767-4.213-5.251-5.714-7.016-.75-.882-1.365-1.59-1.8-2.069a5.635,5.635,0,0,0-.7-.722,5.658,5.658,0,0,0,.6.81l1.714,2.137,5.63,7.075c2.2,2.766,4.211,5.25,5.713,7.015.749.882,1.364,1.59,1.8,2.068A5.649,5.649,0,0,0,440.291,304.707Z" transform="translate(-424.132 -284.877)" fill="#e0e0e0"/>
          </g>
        </g>
        <g id="Grupo_896707" data-name="Grupo 896707" transform="translate(0 54.895)">
          <g id="Grupo_896705" data-name="Grupo 896705">
            <path id="Trazado_664160" data-name="Trazado 664160" d="M401.015,294.647c-1.269.711-41.122,10.537-44.945,11.126-4.3.663-6.082-2.144-6.082-2.144l57.836-19.036,1.987,3.173-6.838,2.314S402.284,293.936,401.015,294.647Z" transform="translate(-349.988 -284.593)" fill="#f5f5f5"/>
            <path id="Trazado_664161" data-name="Trazado 664161" d="M357.034,307a13.671,13.671,0,0,1-1.782.143l2.447-.836,46.24-15s-.69,3.856-1.959,4.567S360.857,306.413,357.034,307Z" transform="translate(-350.952 -285.823)" fill="#ebebeb"/>
          </g>
          <g id="Grupo_896706" data-name="Grupo 896706" transform="translate(37.469 3.066)">
            <path id="Trazado_664162" data-name="Trazado 664162" d="M418.52,288.352a4.456,4.456,0,0,0-.91.213l-2.467.717c-2.076.623-4.933,1.511-8.07,2.532s-5.964,1.988-7.989,2.727c-1.013.369-1.827.682-2.383.909a4.33,4.33,0,0,0-.846.391,5.006,5.006,0,0,0,.907-.262l2.43-.8,8.027-2.627,8.026-2.63,2.421-.824A3.942,3.942,0,0,0,418.52,288.352Z" transform="translate(-395.854 -288.345)" fill="#e0e0e0"/>
          </g>
        </g>
        <g id="Grupo_896710" data-name="Grupo 896710" transform="translate(57.493 0)">
          <g id="Grupo_896708" data-name="Grupo 896708">
            <path id="Trazado_664163" data-name="Trazado 664163" d="M422.184,259.4c.444-1.429,22.367-36.364,24.7-39.434,2.621-3.453,5.682-2.433,5.682-2.433l-28.755,54.5-3.442-1.173,3.358-6.494S421.74,260.833,422.184,259.4Z" transform="translate(-420.366 -217.396)" fill="#f5f5f5"/>
            <path id="Trazado_664164" data-name="Trazado 664164" d="M447.274,220.249a13.315,13.315,0,0,1,1.17-1.327l-1.2,2.33-23.13,43.4s-1.984-3.538-1.541-4.968S444.944,223.319,447.274,220.249Z" transform="translate(-420.759 -217.675)" fill="#ebebeb"/>
          </g>
          <g id="Grupo_896709" data-name="Grupo 896709" transform="translate(0.898 29.573)">
            <path id="Trazado_664165" data-name="Trazado 664165" d="M421.468,275.75c.088.047,2.786-4.875,6.025-10.992s5.8-11.115,5.708-11.162-2.785,4.875-6.026,10.993S421.38,275.7,421.468,275.75Z" transform="translate(-421.465 -253.597)" fill="#e0e0e0"/>
          </g>
        </g>
        <g id="Grupo_896715" data-name="Grupo 896715" transform="translate(55.447 53.741)">
          <g id="Grupo_896711" data-name="Grupo 896711" transform="translate(0.203 0.115)">
            <path id="Trazado_664166" data-name="Trazado 664166" d="M420.237,285.987c0,.655-.606,1.947-.175,2.365.363.351,1.908.278,2.665.278a2.647,2.647,0,0,0,0-5.286,8.7,8.7,0,0,0-2.762.2C419.363,283.721,420.237,285.331,420.237,285.987Z" transform="translate(-418.41 -283.322)" fill="#f5f5f5"/>
            <path id="Trazado_664167" data-name="Trazado 664167" d="M418.109,285.992a2.495,2.495,0,1,0,2.491-2.643A2.57,2.57,0,0,0,418.109,285.992Z" transform="translate(-418.109 -283.327)" fill="#e0e0e0"/>
          </g>
          <g id="Grupo_896712" data-name="Grupo 896712">
            <path id="Trazado_664168" data-name="Trazado 664168" d="M422.9,283.318a3.582,3.582,0,0,0-.916-.086l-1.047-.033c-.2.008-.415-.036-.663-.011a2.53,2.53,0,0,0-.734.181l.019-.007c-.007,0,0,0-.02.006l-.014.006a2.774,2.774,0,0,0-1.658,2.326,2.844,2.844,0,0,0,.861,2.3,2.45,2.45,0,0,0,2,.685h-.02a8.447,8.447,0,0,0,1.656-.094,8.432,8.432,0,0,0-1.636-.132h-.021a2.2,2.2,0,0,1-1.723-.668,2.619,2.619,0,0,1-.736-2.069,2.516,2.516,0,0,1,1.423-2.083l-.014,0c-.011,0,.008,0,.008,0l.019-.007a2.243,2.243,0,0,1,.628-.178c.2-.03.417,0,.622-.016l1.051-.037A3.588,3.588,0,0,0,422.9,283.318Z" transform="translate(-417.861 -283.181)" fill="#e0e0e0"/>
          </g>
          <g id="Grupo_896713" data-name="Grupo 896713" transform="translate(2.905 0.237)">
            <path id="Trazado_664169" data-name="Trazado 664169" d="M421.418,288.618a1.725,1.725,0,0,0,1.015-.34,2.9,2.9,0,0,0,1.381-1.995,2.724,2.724,0,0,0-.765-2.245,1.636,1.636,0,0,0-.885-.562c-.035.047.31.248.675.711a2.756,2.756,0,0,1,.6,2.053,2.928,2.928,0,0,1-1.166,1.846C421.789,288.449,421.4,288.565,421.418,288.618Z" transform="translate(-421.417 -283.471)" fill="#e0e0e0"/>
          </g>
          <g id="Grupo_896714" data-name="Grupo 896714" transform="translate(3.993 0.283)">
            <path id="Trazado_664170" data-name="Trazado 664170" d="M422.748,288.679a1.9,1.9,0,0,0,1.172-.122,3.074,3.074,0,0,0,1.929-1.87,2.677,2.677,0,0,0-.547-2.5,1.719,1.719,0,0,0-.926-.656c-.038.047.341.269.706.792a2.652,2.652,0,0,1,.4,2.27,3.028,3.028,0,0,1-1.672,1.743C423.195,288.611,422.743,288.621,422.748,288.679Z" transform="translate(-422.748 -283.527)" fill="#e0e0e0"/>
          </g>
        </g>
      </g>
    </g>
  </g>
</svg>
