<svg xmlns="http://www.w3.org/2000/svg" width="409" height="228.608" viewBox="0 0 409 228.608">
  <g id="Grupo_896313" data-name="Grupo 896313" transform="translate(0.118 -32.399)">
    <path id="Trazado_663036" data-name="Trazado 663036" d="M409,241h0Z" transform="translate(-0.118 20.008)" fill="#fff"/>
    <g id="Grupo_891728" data-name="Grupo 891728" transform="translate(10.579 32.399)">
      <g id="Grupo_891710" data-name="Grupo 891710" transform="translate(22.305 22.977)">
        <path id="Trazado_648155" data-name="Trazado 648155" d="M590.887,627.14c-2.574-43.782-45.186-46.039-59.469-47.91s-11.747-62.375-53.16-61.129h0a42.375,42.375,0,0,0-24.469,7.47c-4.775,3.391-11.221-.146-11.221-6.191V491.262c0-27.61-20.785-50.2-46.189-50.2h0c-25.4,0-46.189,22.59-46.189,50.2h0c0,16.527-13.833,29.4-29.47,27.259a45.706,45.706,0,0,0-6.189-.419h0c-20.375,0-37.045,13.4-37.045,29.787V553.2a2.658,2.658,0,0,1-2.594,2.718h-.027c-14.169,0-25.761,8.9-25.761,19.767v51.434l266.2.024Z" transform="translate(-249.102 -441.062)" fill="#fff" opacity="0.2"/>
        <path id="Trazado_648156" data-name="Trazado 648156" d="M809.442,854.825s-12.055-5.13-4.926-19.722C804.516,835.1,817.927,843.822,809.442,854.825Z" transform="translate(-729.296 -783.127)" fill="#fff" opacity="0.2"/>
      </g>
      <rect id="Rectángulo_296921" data-name="Rectángulo 296921" width="143.326" height="209.109" transform="translate(115.08)" fill="#222b5a"/>
      <rect id="Rectángulo_296922" data-name="Rectángulo 296922" width="125.086" height="187.117" transform="translate(124.2 9.774)" fill="#dce1f1"/>
      <rect id="Rectángulo_296923" data-name="Rectángulo 296923" width="68.787" height="12.385" transform="translate(152.35)" fill="#ee4e5d"/>
      <g id="Grupo_891713" data-name="Grupo 891713" transform="translate(133.746 71.001)">
        <g id="Grupo_891711" data-name="Grupo 891711" transform="translate(0 4.591)">
          <path id="Trazado_648157" data-name="Trazado 648157" d="M1114.433,860.423h-20.478V839.945h20.478Zm-18.756-1.721h17.035V841.667h-17.035Z" transform="translate(-1093.955 -839.945)" fill="#cbd0e6"/>
        </g>
        <g id="Grupo_891712" data-name="Grupo 891712" transform="translate(34.288 9.216)">
          <path id="Rectángulo_296924" data-name="Rectángulo 296924" d="M1.254,0h69.79A1.254,1.254,0,0,1,72.3,1.254v0a1.254,1.254,0,0,1-1.254,1.254H1.254A1.254,1.254,0,0,1,0,1.254v0A1.254,1.254,0,0,1,1.254,0Z" fill="#cbd0e6"/>
          <path id="Trazado_648158" data-name="Trazado 648158" d="M1424.946,910.57h-69.79a1.257,1.257,0,0,1-1.254-1.254h0a1.257,1.257,0,0,1,1.254-1.254h69.79a1.258,1.258,0,0,1,1.254,1.254h0A1.258,1.258,0,0,1,1424.946,910.57Z" transform="translate(-1353.902 -903.703)" fill="#cbd0e6"/>
          <path id="Trazado_648159" data-name="Trazado 648159" d="M1401.39,943.62h-46.234a1.258,1.258,0,0,1-1.254-1.254h0a1.257,1.257,0,0,1,1.254-1.254h46.234a1.258,1.258,0,0,1,1.254,1.254h0A1.258,1.258,0,0,1,1401.39,943.62Z" transform="translate(-1353.902 -932.393)" fill="#cbd0e6"/>
        </g>
        <path id="Trazado_648160" data-name="Trazado 648160" d="M1128.954,813.646a117.561,117.561,0,0,1,4.695,11.94s5.639-16.27,11.166-20.443c0,0-9.444,7.329-11.479,12.259Z" transform="translate(-1124.338 -805.143)" fill="#2aa526"/>
        <path id="Trazado_664362" data-name="Trazado 664362" d="M1016.25,696.363a39.008,39.008,0,0,0-11.716,69.608l45.435-63.408A38.937,38.937,0,0,0,1016.25,696.363Z" transform="translate(-1001.765 -709.448)" fill="#7b809a" opacity="0.2"/>
      </g>
      <g id="Grupo_891716" data-name="Grupo 891716" transform="translate(133.746 27.684)">
        <g id="Grupo_891714" data-name="Grupo 891714" transform="translate(0 4.591)">
          <path id="Trazado_648161" data-name="Trazado 648161" d="M1114.433,532.027h-20.478V511.549h20.478Zm-18.756-1.721h17.035V513.271h-17.035Z" transform="translate(-1093.955 -511.549)" fill="#cbd0e6"/>
        </g>
        <g id="Grupo_891715" data-name="Grupo 891715" transform="translate(34.288 9.216)">
          <path id="Rectángulo_296925" data-name="Rectángulo 296925" d="M1.254,0h69.79A1.254,1.254,0,0,1,72.3,1.254v0a1.254,1.254,0,0,1-1.254,1.254H1.254A1.254,1.254,0,0,1,0,1.254v0A1.254,1.254,0,0,1,1.254,0Z" fill="#cbd0e6"/>
          <path id="Trazado_648162" data-name="Trazado 648162" d="M1424.946,582.174h-69.79a1.257,1.257,0,0,1-1.254-1.254h0a1.257,1.257,0,0,1,1.254-1.254h69.79a1.258,1.258,0,0,1,1.254,1.254h0A1.258,1.258,0,0,1,1424.946,582.174Z" transform="translate(-1353.902 -575.307)" fill="#cbd0e6"/>
          <path id="Trazado_648163" data-name="Trazado 648163" d="M1401.39,615.224h-46.234a1.257,1.257,0,0,1-1.254-1.254h0a1.257,1.257,0,0,1,1.254-1.254h46.234a1.258,1.258,0,0,1,1.254,1.254h0A1.258,1.258,0,0,1,1401.39,615.224Z" transform="translate(-1353.902 -603.997)" fill="#cbd0e6"/>
        </g>
        <path id="Trazado_648164" data-name="Trazado 648164" d="M1128.954,485.25a117.568,117.568,0,0,1,4.695,11.94s5.639-16.269,11.166-20.443c0,0-9.444,7.329-11.479,12.259Z" transform="translate(-1124.338 -476.747)" fill="#2aa526"/>
      </g>
      <g id="Grupo_891720" data-name="Grupo 891720" transform="translate(133.746 114.543)">
        <g id="Grupo_891717" data-name="Grupo 891717" transform="translate(34.288 5.862)">
          <path id="Trazado_648165" data-name="Trazado 648165" d="M1424.946,1182.193h-69.79a1.257,1.257,0,0,1-1.254-1.254h0a1.257,1.257,0,0,1,1.254-1.254h69.79a1.258,1.258,0,0,1,1.254,1.254h0A1.258,1.258,0,0,1,1424.946,1182.193Z" transform="translate(-1353.902 -1179.685)" fill="#cbd0e6"/>
          <path id="Trazado_648166" data-name="Trazado 648166" d="M1424.946,1215.244h-69.79a1.257,1.257,0,0,1-1.254-1.254h0a1.257,1.257,0,0,1,1.254-1.254h69.79a1.258,1.258,0,0,1,1.254,1.254h0A1.258,1.258,0,0,1,1424.946,1215.244Z" transform="translate(-1353.902 -1208.377)" fill="#cbd0e6"/>
          <path id="Trazado_648167" data-name="Trazado 648167" d="M1401.39,1248.294h-46.234a1.258,1.258,0,0,1-1.254-1.254h0a1.257,1.257,0,0,1,1.254-1.254h46.234a1.257,1.257,0,0,1,1.254,1.254h0A1.258,1.258,0,0,1,1401.39,1248.294Z" transform="translate(-1353.902 -1237.067)" fill="#cbd0e6"/>
        </g>
        <g id="Grupo_891719" data-name="Grupo 891719" transform="translate(0)">
          <g id="Grupo_891718" data-name="Grupo 891718" transform="translate(0 4.14)">
            <path id="Trazado_648168" data-name="Trazado 648168" d="M1114.433,1187.113h-20.478v-20.478h20.478Zm-18.756-1.721h17.035v-17.035h-17.035Z" transform="translate(-1093.955 -1166.635)" fill="#cbd0e6"/>
          </g>
          <path id="Trazado_648169" data-name="Trazado 648169" d="M1128.954,1143.749a117.547,117.547,0,0,1,4.695,11.94s5.639-16.27,11.166-20.443c0,0-9.444,7.329-11.479,12.259Z" transform="translate(-1124.338 -1135.246)" fill="#2aa526"/>
        </g>
      </g>
      <g id="Grupo_891723" data-name="Grupo 891723" transform="translate(133.746 157.86)">
        <g id="Grupo_891721" data-name="Grupo 891721" transform="translate(0 4.14)">
          <path id="Trazado_648170" data-name="Trazado 648170" d="M1114.433,1515.509h-20.478v-20.478h20.478Zm-18.756-1.721h17.035v-17.035h-17.035Z" transform="translate(-1093.955 -1495.031)" fill="#cbd0e6"/>
        </g>
        <g id="Grupo_891722" data-name="Grupo 891722" transform="translate(34.288 5.862)">
          <path id="Rectángulo_296926" data-name="Rectángulo 296926" d="M1.254,0h69.79A1.254,1.254,0,0,1,72.3,1.254v0a1.254,1.254,0,0,1-1.254,1.254H1.254A1.254,1.254,0,0,1,0,1.254v0A1.254,1.254,0,0,1,1.254,0Z" fill="#cbd0e6"/>
          <path id="Trazado_648171" data-name="Trazado 648171" d="M1424.946,1543.64h-69.79a1.258,1.258,0,0,1-1.254-1.254h0a1.257,1.257,0,0,1,1.254-1.254h69.79a1.258,1.258,0,0,1,1.254,1.254h0A1.258,1.258,0,0,1,1424.946,1543.64Z" transform="translate(-1353.902 -1536.773)" fill="#cbd0e6"/>
          <path id="Trazado_648172" data-name="Trazado 648172" d="M1401.39,1576.691h-46.234a1.258,1.258,0,0,1-1.254-1.254h0a1.257,1.257,0,0,1,1.254-1.254h46.234a1.257,1.257,0,0,1,1.254,1.254h0A1.258,1.258,0,0,1,1401.39,1576.691Z" transform="translate(-1353.902 -1565.464)" fill="#cbd0e6"/>
        </g>
        <path id="Trazado_648173" data-name="Trazado 648173" d="M1128.954,1472.145a117.564,117.564,0,0,1,4.695,11.94s5.639-16.27,11.166-20.443c0,0-9.444,7.329-11.479,12.259Z" transform="translate(-1124.338 -1463.642)" fill="#2aa526"/>
      </g>
      <g id="Grupo_891725" data-name="Grupo 891725" transform="translate(39.471 54.212)">
        <path id="Trazado_648174" data-name="Trazado 648174" d="M631.5,1819.1l1.148,4.171h11.4S641.127,1817.65,631.5,1819.1Z" transform="translate(-598.224 -1668.361)" fill="#272253"/>
        <path id="Trazado_648175" data-name="Trazado 648175" d="M449.324,1819.1l1.148,4.171h11.4S458.953,1817.65,449.324,1819.1Z" transform="translate(-440.08 -1668.361)" fill="#272253"/>
        <path id="Trazado_648176" data-name="Trazado 648176" d="M445.517,1253.908s-7.64,54.285-5.237,75.711H450.3L460.8,1258.89Z" transform="translate(-431.823 -1177.925)" fill="#577597"/>
        <path id="Trazado_648177" data-name="Trazado 648177" d="M499,1258.479l9.433,71.14H497.8s-23.914-65.9-19.046-75.711Z" transform="translate(-465.063 -1177.925)" fill="#b0c0d2"/>
        <g id="Grupo_891724" data-name="Grupo 891724">
          <path id="Trazado_648179" data-name="Trazado 648179" d="M539.541,708.235a41.571,41.571,0,0,0-80.776,19.451L380.2,749.7a1.311,1.311,0,0,0-.906,1.612l.7,2.495a1.311,1.311,0,0,0,1.612.906l78.511-21.994a41.571,41.571,0,0,0,79.427-24.479Zm-29.783,47.373a37.582,37.582,0,1,1,26.051-46.327A37.582,37.582,0,0,1,509.758,755.608Z" transform="translate(-379.244 -677.868)" fill="#ee4e5d"/>
        </g>
        <path id="Trazado_648180" data-name="Trazado 648180" d="M565.356,1300.613a8.117,8.117,0,0,0,7.179-3.917,8.472,8.472,0,0,1-7.361,3.64l0,.276Z" transform="translate(-540.644 -1215.07)" fill="#f6f6f6"/>
        <path id="Trazado_648181" data-name="Trazado 648181" d="M582.157,1401.736a212.406,212.406,0,0,1-6.267-20.794c-.286-1.155-.572-2.344-.851-3.535-.307-1.313-.609-2.643-.9-3.955a5.239,5.239,0,0,1-.006-1.505,5.044,5.044,0,0,0,0-1.37c-1.054-4.99-1.772-9.583-2.406-13.636q-.249-1.594-.493-3.123c-1.482-9.211-2.358-14.427-2.37-14.478h0c.012.051,1.219,5.208,2.7,14.432q.246,1.53.493,3.124c.633,4.049,1.35,8.638,2.4,13.619a5.247,5.247,0,0,1,0,1.462,5.038,5.038,0,0,0,0,1.411c.288,1.31.589,2.639.9,3.951.278,1.189.564,2.377.85,3.53a217.154,217.154,0,0,0,6.036,20.86Z" transform="translate(-543.859 -1252.09)" fill="#f6f6f6"/>
        <path id="Trazado_648182" data-name="Trazado 648182" d="M622.539,840.654a17.281,17.281,0,0,1-1.263,6.024s-4.5-1.2-5.854-1.784a13.362,13.362,0,0,1-2.139-1.656,19.94,19.94,0,0,0,2.533-7.064C616.4,832.177,622.539,840.654,622.539,840.654Z" transform="translate(-582.413 -814.362)" fill="#945c2e"/>
        <path id="Trazado_648183" data-name="Trazado 648183" d="M635.853,779.433s-9.369.428-9.545-5.41-1.5-9.715,4.469-10.235,7.2,1.672,7.737,3.607S638.286,779.172,635.853,779.433Z" transform="translate(-593.504 -752.387)" fill="#a36d3c"/>
        <path id="Trazado_648184" data-name="Trazado 648184" d="M460.609,893.824S448.3,906.678,443.357,916.73c0,0,2.47,7.874,13.6,19.758,0,0,.158-1,.623-3.827.092-.555-4.143-10.262-7.921-15.664,0,0,8.766-5.539,11.08-10.078S460.609,893.824,460.609,893.824Z" transform="translate(-434.9 -865.338)" fill="#945c2e"/>
        <path id="Trazado_648185" data-name="Trazado 648185" d="M615.967,766.105s4.439-7.92,11.835-8.408c0,0,3.258-1.3,3.258-3.065,0,0-10.522-3.1-14.351,0C610.965,759.287,615.967,766.105,615.967,766.105Z" transform="translate(-582.99 -743.309)" fill="#12263f"/>
        <path id="Trazado_648186" data-name="Trazado 648186" d="M691.474,948.542c-1.414.279-.851.366-2.849.719s-3.745,1.55-4.172,2.941l-14.742.414c1.157-5.252,1.068-25.01.267-26.612s-8.471-3.146-8.471-3.146l-1.88,9.266s2.342,23.361,4.567,25.563,22.541-3.462,22.541-3.462a5.571,5.571,0,0,0,5.705-4.079S692.888,948.262,691.474,948.542Z" transform="translate(-622.643 -890.542)" fill="#945c2e"/>
        <path id="Trazado_648187" data-name="Trazado 648187" d="M451.367,893.824S437.572,912.08,436.5,916.686c0,0,.461,1.256,3.452,5.331l5.181-2.827s-.859-1.75-1.039-2.036c0,0-.1-.1.484-.417s3.488-2.286,3.488-2.286Z" transform="translate(-428.951 -865.338)" fill="#d1872b"/>
        <path id="Trazado_648188" data-name="Trazado 648188" d="M451.367,893.824S437.572,912.08,436.5,916.686a36.036,36.036,0,0,0,3.452,5.331l5.181-2.827s-.859-1.75-1.039-2.036c0,0-.1-.1.484-.417s3.488-2.286,3.488-2.286Z" transform="translate(-428.951 -865.338)" fill="#f1b62b" opacity="0.2"/>
        <path id="Trazado_648189" data-name="Trazado 648189" d="M479.236,940.548c1.752,3.538,20.959,5.134,22.161,4.467s.361-5.137.534-7.009c.381-4.13,2.428-8.884,2.913-10.424.057-.187.091-.29.091-.29.033,1.936,2.436,5.254,2.436,5.254,4.572.45,12.893-1.684,12.893-1.684-.027-.183-.047-.365-.061-.543a10.237,10.237,0,0,1,.485-3.993c-.708-.052-5.542-.016-6.85-.005a.311.311,0,0,1-.313-.324l.746-7.247C515.9,904.22,513.055,899,513.055,899c-2.224-1.78-8.321-3.158-8.321-3.158a19.293,19.293,0,0,1-8.321-2.4s-7.209-.8-8.456-.39-3.582,14.985-4.125,20.714-3.845,19.862-4.6,21.95C478.074,938.944,478.969,940.009,479.236,940.548Z" transform="translate(-465.542 -864.565)" fill="#f1b62b"/>
        <path id="Trazado_648190" data-name="Trazado 648190" d="M674.406,1035.472c.033,1.936,2.436,5.255,2.436,5.255,4.572.45,12.893-1.684,12.893-1.684-.027-.183-.047-.364-.061-.543-1.529.165-10.628,1.118-11.7.476,0,0-3.654-3.331-4.1-21.426Z" transform="translate(-635.013 -972.744)" fill="#a1431f" opacity="0.2"/>
      </g>
      <path id="Trazado_648191" data-name="Trazado 648191" d="M462.8,1852.335H81.014A1.027,1.027,0,0,0,80,1853.371h0a1.027,1.027,0,0,0,1.011,1.035H462.8a1.036,1.036,0,0,0,0-2.071Z" transform="translate(-80.003 -1643.204)" fill="#f6f6f6"/>
      <g id="Grupo_891726" data-name="Grupo 891726" transform="translate(216.403 26.802)">
        <path id="Trazado_648192" data-name="Trazado 648192" d="M1721.725,474.585s57.281-10.251,98.771.116c0,0,11.195,92.9-49.308,118.566C1771.188,593.268,1711.754,571.3,1721.725,474.585Z" transform="translate(-1720.597 -470.063)" fill="#fff"/>
        <path id="Trazado_648193" data-name="Trazado 648193" d="M1777.492,529.563s52.533-6.741,84.611,0c0,0,10.711,75.449-41.15,103.341C1820.953,632.9,1773.448,619.442,1777.492,529.563Z" transform="translate(-1769.776 -519.114)" fill="#f1b62b"/>
        <path id="Trazado_648194" data-name="Trazado 648194" d="M1976.451,695.038H1960.71V679.686h-14.417v15.353h-14.964v14.417h14.964v15.353h14.417V709.455h15.741Z" transform="translate(-1903.532 -652.035)" fill="#fff"/>
      </g>
      <g id="scientist_2" data-name="scientist 2" transform="translate(293.424 72.532)">
        <path id="Trazado_648195" data-name="Trazado 648195" d="M2513.224,846.253c2.511-2.49,2.188-21.843,2.217-23.026.083-3.418,1.375-4.846,1.375-4.846,4.329-2.563,11.455-2.731,14.162,4.175,1.737,4.432,6.178,13.047,6.178,13.047,18.155,25.189,10.941,37.617,10.941,37.617l-.776-.086a4.1,4.1,0,0,0,.205-2.485l-.74,2.467-13.41-1.725a40.681,40.681,0,0,0-1.137-6.6l-.063,6.821-1.8.095c.713-14.383-2.344-21.445-3.248-23.2.776,8-3.094,21.036-3.094,21.036l-.555-.125,1.257-6.519-1.608,6.44-1.558-.354q.372-1.3.684-2.54l-.684,2.54c-3.342-3.635-9.461-3.314-9.461-3.314C2508.781,861.006,2513.224,846.253,2513.224,846.253Z" transform="translate(-2483.652 -816.753)" fill="#c4541c"/>
        <path id="Trazado_648196" data-name="Trazado 648196" d="M2470.863,1767.117l-3.913,7.809-3.187-1.229.733-7.97Z" transform="translate(-2442.757 -1640.553)" fill="#dcabb0"/>
        <path id="Trazado_648197" data-name="Trazado 648197" d="M2421.732,1824.093l-1.067,3.527h-10.58S2412.792,1822.863,2421.732,1824.093Z" transform="translate(-2396.159 -1691.043)" fill="#c4541c"/>
        <path id="Trazado_648198" data-name="Trazado 648198" d="M2465.236,1257.274l-8.358,68.464h8.863s11.564-29.609,13.224-60.464C2479.6,1253.485,2465.236,1257.274,2465.236,1257.274Z" transform="translate(-2436.78 -1198.663)" fill="#a1ccf9"/>
        <path id="Trazado_648199" data-name="Trazado 648199" d="M2642.888,1756.093l-1.813,6.368-3.39-.41-.75-9.733Z" transform="translate(-2593.085 -1628.912)" fill="#dcabb0"/>
        <path id="Trazado_648200" data-name="Trazado 648200" d="M2594.071,1824.093l-1.066,3.527h-10.581S2585.13,1822.863,2594.071,1824.093Z" transform="translate(-2545.766 -1691.043)" fill="#c4541c"/>
        <path id="Trazado_648201" data-name="Trazado 648201" d="M2576.468,1261.659h6.564l7.043-.985s4.506,9.843,2.186,39.014a188.809,188.809,0,0,1-5.565,30.592l-9.086-.187-3.923-54.4c-.116-1.49-1.852-2.026-1.852-2.026l.252-12.171Z" transform="translate(-2536.574 -1202.118)" fill="#b1ceec"/>
        <g id="Grupo_891727" data-name="Grupo 891727" transform="translate(46.731 59.882)">
          <path id="Trazado_648202" data-name="Trazado 648202" d="M2658.878,1337.707c1.223-6.579,2.3-14.383,2.991-22.522.106-1.244.207-2.524.3-3.805.1-1.412.2-2.843.283-4.251a6.03,6.03,0,0,0-.217-1.582,5.819,5.819,0,0,1-.207-1.438c.282-5.356.3-10.259.309-14.584q.005-1.7.014-3.334c.07-9.836.146-15.409.15-15.464h0c0,.055-.409,5.6-.479,15.452q-.012,1.635-.014,3.335c-.013,4.321-.028,9.22-.31,14.566a6.067,6.067,0,0,0,.216,1.536,5.807,5.807,0,0,1,.209,1.482c-.084,1.407-.18,2.836-.282,4.247-.094,1.279-.194,2.558-.3,3.8-.692,8.127-1.536,16-2.758,22.567Z" transform="translate(-2658.783 -1270.727)" fill="#f6f6f6"/>
        </g>
        <path id="Trazado_648203" data-name="Trazado 648203" d="M2569.161,914.292s1.04,6.045-2.723,8.9c0,0,1.619,3.509,2.708,4.057,1.216.613,4.4.614,5.439-.267,1.072-.91,2.028-5.247,2.028-5.247a42.985,42.985,0,0,1-.654-9.512Z" transform="translate(-2531.888 -899.629)" fill="#cb7f83"/>
        <path id="Trazado_648204" data-name="Trazado 648204" d="M2560.611,849.426s8.293.379,8.449-4.789,1.333-8.6-3.956-9.06-6.377,1.48-6.849,3.193S2558.458,849.194,2560.611,849.426Z" transform="translate(-2524.661 -833.034)" fill="#dcabb0"/>
        <path id="Trazado_648205" data-name="Trazado 648205" d="M2520.242,1017.547s1.1.907,12.086,1.452q1.073.053,2.038.074a39.263,39.263,0,0,0,8.338-.527,7.53,7.53,0,0,0,3.063-1.055s-3.429-8.274-3.429-12.206c0-2.716-6.132-24.736-6.132-24.736a5.49,5.49,0,0,1-4.783,3.689c-5.566.041-3.395-3.7-3.395-3.7l-6.27,2.519a11.775,11.775,0,0,1,.486,4.58,5.667,5.667,0,0,1-.475,1.693c-.054.116-.115.231-.181.342-1.516,2.59-.478,7.081.632,12.285S2520.242,1017.547,2520.242,1017.547Z" transform="translate(-2491.786 -958.936)" fill="#7e9fc1"/>
        <path id="Trazado_648206" data-name="Trazado 648206" d="M2334.482,999.638s-6.613,11.114-9.874,19.511c0,0-7.991-3.318-12.561-5.242l-.7-.3-1.489-.632a4.523,4.523,0,0,0-4.143-3.906s-1.57-.062-1.126,1.021.426.62,1.02,2.156a4.249,4.249,0,0,0,3,2.864s.514.4,1.358,1.03h0c.252.188.533.4.841.625,3.8,2.8,11.423,8.163,13.8,7.9,3.216-.36,12.333-13.435,12.333-13.435Z" transform="translate(-2304.51 -975.514)" fill="#dcabb0"/>
        <path id="Trazado_648207" data-name="Trazado 648207" d="M2414.571,1017.383s4.339,2.179,5.2,2.179,3.2-1.134,5.657-4.065c1.073-1.279,2.643-3.28,4.069-5.142,1.846-2.407,3.451-4.581,3.428-4.648-.04-.12-.9-12.157-.9-12.157a19.716,19.716,0,0,0-2.2.7c-.14.14-8.217,14.616-9.657,18.893l-4.809-1.444Z" transform="translate(-2400.053 -970.229)" fill="#dce1f1"/>
        <path id="Trazado_648208" data-name="Trazado 648208" d="M2504.146,1002.976l-1.032,46.3H2491.29s2.583-26.271,3.819-34.487c1.417-9.414,1.316-28.55,1.316-28.55s4.854-1.977,5.224-1.917S2504.146,1002.976,2504.146,1002.976Z" transform="translate(-2466.653 -962.219)" fill="#dce1f1"/>
        <path id="Trazado_648209" data-name="Trazado 648209" d="M2563.289,980.54s1.97,15.354,1.25,19.152l-3.1-10.36.7-1.237-1.279-.4.8-6.518A2.148,2.148,0,0,1,2563.289,980.54Z" transform="translate(-2527.047 -958.936)" fill="#cdd2ea"/>
        <path id="Trazado_648210" data-name="Trazado 648210" d="M2597.364,1003.468v45.824s7.518-.135,13.325-.324a51.068,51.068,0,0,0,6.629-.4c0-.325-2.062-19.073-5.83-32.634a26.064,26.064,0,0,1-.856-9.277,58.578,58.578,0,0,1,1.146-8.307c0-.014.01-.029.013-.043s7.106,5.728,6.927,6-1.937,5.038-1.937,5.038,3.337,2.42,4.017,2.759c0,0,6.2-8.356,5.338-9.687,0,0-10.8-18.366-13.255-17.6-.7.218-7.958-.485-7.958-.485Z" transform="translate(-2558.735 -962.233)" fill="#dce1f1"/>
        <path id="Trazado_648211" data-name="Trazado 648211" d="M2603.462,982.879c-.3.3-6.094,19.131-6.094,19.131s5.318-9.077,5.718-9.277l-.593-1.119,1.273-.64,1.16-8.095S2603.959,982.381,2603.462,982.879Z" transform="translate(-2558.738 -960.774)" fill="#cdd2ea"/>
        <path id="Trazado_648212" data-name="Trazado 648212" d="M2559.774,828.161s10.172,7.839,9.273,13.629c-.844,5.439.757,5.923,1.947,6.442,3.071,1.339,8.081-1.317,9.676-1.238,1.135.056-2.766-1.1-4.621-3.579-4.935-6.591-4.454-15.5-5.439-16.137C2563.9,822.909,2559.774,828.161,2559.774,828.161Z" transform="translate(-2526.104 -824.382)" fill="#c4541c"/>
        <path id="Trazado_648213" data-name="Trazado 648213" d="M2405.244,1126.207a59.746,59.746,0,0,1-1.28,6.415l1.5.766s.9-5.7.66-6.744Z" transform="translate(-2390.845 -1085.388)" fill="#cdd2ea"/>
        <path id="Trazado_648214" data-name="Trazado 648214" d="M2671.583,1111.282c.793,3.005,2.6,19.195,3.365,26.278a51.078,51.078,0,0,0,6.628-.4c0-.325-2.061-19.073-5.829-32.635a26.064,26.064,0,0,1-.857-9.277,58.537,58.537,0,0,1,1.146-8.307c-.521-.455-1.12-.722-1.464-.433C2673.816,1087.153,2670.563,1107.411,2671.583,1111.282Z" transform="translate(-2622.994 -1050.825)" fill="#cdd2ea"/>
        <path id="Trazado_648215" data-name="Trazado 648215" d="M2673.162,1173.929c-.108.6-3.319,6.309-3.921,7.375-.062.11-.1.17-.1.17l-.57.44a4.522,4.522,0,0,0-5.693-.015s-1.188,1.029-.123,1.515.734.161,2.218.876a4.255,4.255,0,0,0,4.143.038l1.042-.8c.179-.138.5-.431.919-.822,2-1.879,6.1-6.02,6.1-6.02Z" transform="translate(-2615.119 -1126.815)" fill="#dcabb0"/>
        <path id="Trazado_648216" data-name="Trazado 648216" d="M2414.571,1113.9s4.339,2.179,5.2,2.179,3.2-1.134,5.657-4.065c1.073-1.279,2.643-3.28,4.069-5.141.2-.984.275-2.072-.393-2.139-1.2-.12-7.677,9.716-9.3,9.657S2414.571,1113.9,2414.571,1113.9Z" transform="translate(-2400.053 -1066.742)" fill="#cdd2ea"/>
        <path id="Trazado_648217" data-name="Trazado 648217" d="M2744.183,1171.9l4.61,2.876a6.069,6.069,0,0,1-.621.62c-.02-.04-4.158-3.021-4.158-3.021Z" transform="translate(-2686.041 -1125.055)" fill="#cdd2ea"/>
      </g>
    </g>
  </g>
</svg>
