<svg xmlns="http://www.w3.org/2000/svg" width="169" height="169" viewBox="0 0 169 169">
  <g id="Grupo_898337" data-name="Grupo 898337" transform="translate(-1067 -1561)">
    <g id="Grupo_898330" data-name="Grupo 898330">
      <circle id="Elipse_6260" data-name="Elipse 6260" cx="84.5" cy="84.5" r="84.5" transform="translate(1067 1561)" fill="#fff"/>
      <g id="Grupo_898289" data-name="Grupo 898289" transform="translate(1075.498 1597)">
        <g id="Rectángulo_297411" data-name="Rectángulo 297411" transform="translate(-4.498 71)" fill="#636363" stroke="#707070" stroke-width="1">
          <rect width="161" height="1" stroke="none"/>
          <rect x="0.5" y="0.5" width="160" fill="none"/>
        </g>
        <g id="OBJECTS" transform="translate(0 0)">
          <g id="Grupo_889116" data-name="Grupo 889116" transform="translate(77.478 52.495)">
            <path id="Trazado_622932" data-name="Trazado 622932" d="M477.208,304.757c-.034.615,2.875,1.828,2.995.94S477.295,303.2,477.208,304.757Z" transform="translate(-449.128 -266.958)" fill="#0a3d56"/>
            <g id="Grupo_889111" data-name="Grupo 889111" transform="translate(27.453 36.396)">
              <path id="Trazado_622933" data-name="Trazado 622933" d="M477.644,302.844a12.575,12.575,0,0,1,.191,2.6.269.269,0,0,1-.015.039c-.143.338-.57.66-.711.889s-.41.274-.623.463a1.589,1.589,0,0,1-.748.224s-.843.619-.867.281c-.028-.421.465-.787.465-.787l.375-.95s-.219-1.281-.467-1.281-.156.531-.281.952a.359.359,0,0,1-.395.235l-.031-.768a5.214,5.214,0,0,1,.193-1.31c.14-.208.849-.939.849-.939l.3-1.584,2.124.127A10.607,10.607,0,0,0,477.644,302.844Z" transform="translate(-474.538 -300.905)" fill="#ff8b66"/>
              <path id="Trazado_622934" data-name="Trazado 622934" d="M481.729,320.387c-.143.338-.57.66-.711.889s-.41.274-.623.463a1.589,1.589,0,0,1-.748.224c.2-.16.566-1.055.658-1.11s.147.072.312.072.237-.329.4-.274a.331.331,0,0,0,.456-.145A.279.279,0,0,1,481.729,320.387Z" transform="translate(-478.447 -315.811)" fill="#ef6e4b"/>
            </g>
            <path id="Trazado_622935" data-name="Trazado 622935" d="M371.425,220.983c-.51-.591-2.577,1.859-1.758,2.742s2.4-.884,2.4-.884A3.992,3.992,0,0,0,371.425,220.983Z" transform="translate(-366.701 -203.289)" fill="#0a3d56"/>
            <g id="Grupo_889112" data-name="Grupo 889112" transform="translate(0 14.401)">
              <path id="Trazado_622936" data-name="Trazado 622936" d="M358.514,210.484a5.6,5.6,0,0,1,1.065.457,3.187,3.187,0,0,0,1.267.757c.394.081.959,1.014.959,1.014a3.475,3.475,0,0,0,.949-1.664s-.433-.366-.475-.54c-.087-.347.2-.823-.092-1.423a5.039,5.039,0,0,1-.358-1.5s-.336-.149-.413.19.127.847.046.988a.4.4,0,0,1-.057.078.021.021,0,0,0,0,.007.379.379,0,0,1-.286.144.047.047,0,0,1-.024,0,3.1,3.1,0,0,1-1.271-.98c-.35-.422-.865-.976-1.031-.659s.264.344.868,1.421l-.084.094a4.636,4.636,0,0,1-1.223-.925c-.379-.372-.51,0-.457.179s.487.5.758.768c.181.178.37.362.483.471l-.056.157c-1-.341-1.118-.746-1.361-.557s.353.7.671.81a2.91,2.91,0,0,1,.577.364c-.817-.112-.987-.4-1.147-.2S358.231,210.447,358.514,210.484Z" transform="translate(-357.659 -207.261)" fill="#ff8b66"/>
              <path id="Trazado_622937" data-name="Trazado 622937" d="M372.115,215.2a1.531,1.531,0,0,1,.186-1.174.38.38,0,0,1-.286.144A.916.916,0,0,0,372.115,215.2Z" transform="translate(-368.561 -212.433)" fill="#ef6e4b"/>
            </g>
            <path id="Trazado_622938" data-name="Trazado 622938" d="M382.086,192.164l-5.652,10.353s-.255-.582-.544-.349S372.042,199,372.042,199a2.567,2.567,0,0,1-1.758,2.742s4.706,4.162,6.251,5.15,6.769-7.779,6.769-7.779Z" transform="translate(-367.319 -181.309)" fill="#0d527c"/>
            <g id="Grupo_889113" data-name="Grupo 889113" transform="translate(5.877 63.701)">
              <path id="Trazado_622939" data-name="Trazado 622939" d="M382.678,421.56a3.361,3.361,0,0,0,.026.435h7.388c0-.146,0-.292-.01-.435a13.565,13.565,0,0,0-.694-3.609l-1.846-.793a2.954,2.954,0,0,1-1.082,1.956,2.611,2.611,0,0,1-.422.271c-.068.037-.135.07-.206.1a3.547,3.547,0,0,1-.472.175,11.5,11.5,0,0,1-1.773.31C382.8,420.094,382.678,421,382.678,421.56Z" transform="translate(-382.678 -417.158)" fill="#0e3944"/>
              <path id="Trazado_622940" data-name="Trazado 622940" d="M382.678,435.9a3.361,3.361,0,0,0,.026.435h7.388c0-.146,0-.292-.01-.435Z" transform="translate(-382.678 -431.497)" fill="#adbec4"/>
              <path id="Trazado_622941" data-name="Trazado 622941" d="M396.978,425.756l1.025.329.217-.375-.819-.224A2.614,2.614,0,0,1,396.978,425.756Z" transform="translate(-393.619 -423.529)" fill="#adbec4"/>
              <path id="Trazado_622942" data-name="Trazado 622942" d="M394.091,427.247l.691.459.425-.167-.644-.467A3.548,3.548,0,0,1,394.091,427.247Z" transform="translate(-391.41 -424.743)" fill="#adbec4"/>
            </g>
            <g id="Grupo_889114" data-name="Grupo 889114" transform="translate(18.983 62.867)">
              <path id="Trazado_622943" data-name="Trazado 622943" d="M438.487,418.841a1.844,1.844,0,0,0,.083.435h4.921a2.2,2.2,0,0,0,.138-.435c.485-2.355-2.785-5.236-2.785-5.236l-1.038,1.385s.12,2.217-.759,2.678A1.124,1.124,0,0,0,438.487,418.841Z" transform="translate(-438.48 -413.605)" fill="#0e3944"/>
              <path id="Trazado_622944" data-name="Trazado 622944" d="M443.654,435.9h-5.142a1.845,1.845,0,0,0,.083.435h4.921A2.205,2.205,0,0,0,443.654,435.9Z" transform="translate(-438.504 -430.663)" fill="#adbec4"/>
              <path id="Trazado_622945" data-name="Trazado 622945" d="M441.855,428.438s2.073-.473,3.019.14v-.342A3.041,3.041,0,0,0,441.855,428.438Z" transform="translate(-441.062 -424.551)" fill="#adbec4"/>
              <path id="Trazado_622946" data-name="Trazado 622946" d="M443.6,426.2a3.382,3.382,0,0,1,2.608,0l-.147-.345A2.532,2.532,0,0,0,443.6,426.2Z" transform="translate(-442.4 -422.842)" fill="#adbec4"/>
            </g>
            <path id="Trazado_622947" data-name="Trazado 622947" d="M416.327,273.844c0,4.681-.461,9.449-.579,10.658s-1.371,14.719-1.547,19.945a31.853,31.853,0,0,1-.95,5.917s-2.55-2.061-4-.53l-.362-2.089.677-1.645a2.857,2.857,0,0,1-.132-2.417c.592-1.057.773-23.65.773-23.65l-1.139-.073-5.467,26.14v1.489a8.2,8.2,0,0,0-1.2,3.107l-3.633-1.235.592-1.716-.394-2.45,1.32-3.2s3.776-24.988,3.469-27.792Z" transform="translate(-389.118 -243.804)" fill="#8bbddb"/>
            <path id="Trazado_622948" data-name="Trazado 622948" d="M431.164,206.959s-1.972,2.777-7.745,1.863a8.576,8.576,0,0,1-4.768-2.12s-1.054-18.589.106-20.1c.843-1.1,2.5-1.565,4.662-1.679.815-.042,1.7-.035,2.644.01a8.925,8.925,0,0,1,1.976.317c2.419.675,4.114,2.262,4.371,3.507C432.733,190.32,431.164,206.959,431.164,206.959Z" transform="translate(-403.989 -175.749)" fill="#cfd8dc"/>
            <path id="Trazado_622949" data-name="Trazado 622949" d="M452.742,182.035a2.064,2.064,0,0,1,1.02,1.558s.349-2.131-.479-2.455S452.742,182.035,452.742,182.035Z" transform="translate(-430.372 -172.831)" fill="#0a3d56"/>
            <path id="Trazado_622950" data-name="Trazado 622950" d="M454.413,210.184a8.545,8.545,0,0,1-5.565,1.169s-1.036-19.5-.756-21.325a15.64,15.64,0,0,1,1.8-1.7,3.126,3.126,0,0,0,.968-1.918c2.419.675,4.171,1.21,4.429,2.455C455.616,190.422,454.413,210.184,454.413,210.184Z" transform="translate(-426.814 -176.903)" fill="#105e99"/>
            <path id="Trazado_622951" data-name="Trazado 622951" d="M422.658,185.016a8.046,8.046,0,0,0-1.126,3.384c-.123,1.149-2.063,21.052-2.063,21.052-1.752-.01-2.152-1.012-2.152-1.012s-.481-20.237.679-21.745C418.839,185.6,420.5,185.13,422.658,185.016Z" transform="translate(-403.229 -175.84)" fill="#105e99"/>
            <path id="Trazado_622952" data-name="Trazado 622952" d="M449.882,181.317a2.307,2.307,0,0,1,2.139,1.783c.425,1.752-1.814,3.127-1.814,3.127s-.367-.946-.859-.945-1.1.854-1.1.854a4.8,4.8,0,0,1,1.166-1.606A2.408,2.408,0,0,0,449.882,181.317Z" transform="translate(-426.971 -173.01)" fill="#0d527c"/>
            <path id="Trazado_622953" data-name="Trazado 622953" d="M431.806,181.15a5.04,5.04,0,0,0-3.007,3.539s.456-.891.859-.625.734,1.378.734,1.378.4-2.719,1.722-3.406Z" transform="translate(-412.09 -172.882)" fill="#0d527c"/>
            <path id="Trazado_622954" data-name="Trazado 622954" d="M471.188,194.421c-1.659.872-2.246,4.5-2.07,5.976l2.348,7.157s.059.833.352.95L471,220.835c.237-.468,2.654-.087,2.995.94,0,0,1.646-11.9,1.41-15.172C475.354,205.956,471.188,194.421,471.188,194.421Z" transform="translate(-442.916 -183.036)" fill="#0d527c"/>
            <path id="Trazado_622955" data-name="Trazado 622955" d="M440.873,172.606l.768,3.025s.869.409,2.711-.831c0,0-.978-2.3-.112-3.937,0,0-.219.013-.566.054C443.674,170.917,443.326,172.716,440.873,172.606Z" transform="translate(-421.328 -165.011)" fill="#ef6e4b"/>
            <g id="Grupo_889115" data-name="Grupo 889115" transform="translate(17.414)">
              <path id="Trazado_622956" data-name="Trazado 622956" d="M439.238,153.023c.036,3.579-3.79,4.046-4.681,2.723a6,6,0,0,1-.712-2.039c-.037-.191-.068-.385-.093-.58-.166-1.32-.037-2.656.7-3.01C437.019,148.886,439.2,149.444,439.238,153.023Z" transform="translate(-433.245 -148.685)" fill="#ff8b66"/>
              <path id="Trazado_622964" data-name="Trazado 622964" d="M432.4,148.215s.714-.948,2.923-.7c0,0,.33,1.313,1,1.7a2.7,2.7,0,0,1,.926,1.51s.063-.556.348-.617-.083,1.737-.083,1.737,1.087-.164,1.141-3.167c.048-2.715-2.282-2.024-2.282-2.024s-.56-1.119-3.138-.543l.186.1a2.249,2.249,0,0,0-1.616,1.19l.2-.02A.64.64,0,0,0,432.4,148.215Z" transform="translate(-431.8 -145.949)" fill="#8b383e"/>
              <path id="Trazado_622965" data-name="Trazado 622965" d="M453.865,162.788s.517-.731,1.091-.365-.213,1.7-.8,1.7S453.865,162.788,453.865,162.788Z" transform="translate(-448.628 -158.475)" fill="#ff8b66"/>
            </g>
          </g>
          <g id="Grupo_889123" data-name="Grupo 889123" transform="translate(57.309 60.21)">
            <path id="Trazado_622968" data-name="Trazado 622968" d="M300.255,413.9a6.474,6.474,0,0,1-1.542-2.623c-.03-1.073-.009-2.547.04-4.154h-1.69c.068,1.752.073,3.936.049,4.6-.036.111-.159.846-.22.952a6.973,6.973,0,0,0-.015,1.38l3.419-.138-.031-.009C300.259,413.9,300.257,413.9,300.255,413.9Z" transform="translate(-290.962 -353.494)" fill="#ef6e4b"/>
            <path id="Trazado_622969" data-name="Trazado 622969" d="M293.571,306.1c.071-4.535.977-11.4,1.1-12.536.081-.735.712-2.653,1.557-5.458,1.959-6.506,2.086-11.2,1.415-15.437l-4.376.1c-.758,3.365-5.052,7-2.131,10.887.118,1.453.947,6.381.6,8.551a25.809,25.809,0,0,0-.507,6.789c.065,1.238.737,5.119.733,7.1Z" transform="translate(-285.824 -250.621)" fill="#0d527c"/>
            <g id="Grupo_889117" data-name="Grupo 889117" transform="translate(17.496 13.011)">
              <path id="Trazado_622970" data-name="Trazado 622970" d="M347.736,234.19l-.839,1c-.842,1-.63,1.077-.472,1.763.147.641,1.349.5,1.827.307.405-.161,1.484.087,1.783-.136.121-.09,0-.139-.348-.173a2.549,2.549,0,0,1-.77-.218c.257-.379,1.723-.083,1.936-.53.1-.217-1.647.169-1.814-.055,0,0,.08-.146.924-.4.484-.149.983-.3,1.011-.461.049-.3-.91.192-2.126.3,0,0,.491-.252.962-.455.431-.183.852-.31.752-.494-.081-.151-.746.154-1.176.332a5.206,5.206,0,0,1-1.8.408,1.858,1.858,0,0,1-.255,0C348.1,234.28,347.736,234.19,347.736,234.19Z" transform="translate(-346.28 -234.19)" fill="#ff8b66"/>
              <path id="Trazado_622971" data-name="Trazado 622971" d="M350,239.207a1.188,1.188,0,0,1-.226.883.71.71,0,0,0,.481-.879A1.859,1.859,0,0,1,350,239.207Z" transform="translate(-348.956 -238.029)" fill="#ef6e4b"/>
            </g>
            <path id="Trazado_622972" data-name="Trazado 622972" d="M276.306,183.929c-1.088,1.375-1.965,13.159,0,17.406a16.7,16.7,0,0,0,6.9-.424s.732-15.31-1.1-17.22Z" transform="translate(-274.352 -182.541)" fill="#0e3944"/>
            <path id="Trazado_622973" data-name="Trazado 622973" d="M306.178,219.9c2.833.683,3.361.9,4.947,8.864,0,0,4.125-4.742,4.934-4.39,0,0-.266.426.3,1.415a1.217,1.217,0,0,0,.927.607c.117.94-4.066,7.34-5.409,7.751s-4.912-3.954-5.447-5.383S306.178,219.9,306.178,219.9Z" transform="translate(-298.046 -210.248)" fill="#ce364c"/>
            <path id="Trazado_622974" data-name="Trazado 622974" d="M288.14,214.111c.175-.327,3.232.219,3.532.468s-1.146,1.354-1.92,1.037S287.935,214.494,288.14,214.111Z" transform="translate(-284.28 -205.738)" fill="#b72e48"/>
            <path id="Trazado_622975" data-name="Trazado 622975" d="M286.429,408.537h-2c.225,2.064.392,3.817.392,3.817L284.6,415.4h2.176a31.06,31.06,0,0,1-.471-4.8C286.358,409.927,286.4,409.235,286.429,408.537Z" transform="translate(-281.462 -354.575)" fill="#ff8b66"/>
            <path id="Trazado_622976" data-name="Trazado 622976" d="M278.6,287.589h0c.175,1.449.5,2.417.631,3.636.189,1.775-.9,4.346-.192,7.2.333,1.353.816,5.82,1.068,8.291h1.65c0-.023,0-.048,0-.07.431-6.013.337-12.947.655-15.672.134-1.149.933-3.014,1.245-4.5,0-.007.949-4.312,1.6-4.673,2.657-1.479,3.476-9.136,3.476-9.136l-6.531.3a10.257,10.257,0,0,0-3.426,8.785s-.008.058-.02.159A22.187,22.187,0,0,0,278.6,287.589Z" transform="translate(-276.915 -250.621)" fill="#105e99"/>
            <path id="Trazado_622977" data-name="Trazado 622977" d="M283.152,425.549s.081-.75,1.112-.662.9.842.9.842a.238.238,0,0,1,.293,0c.128.122-.062,1.162.184,1.381s.124.794.124.794h-3.029s-.111-.739.209-1.013S282.573,425.631,283.152,425.549Z" transform="translate(-280.152 -367.079)" fill="#cdcfd0"/>
            <path id="Trazado_622978" data-name="Trazado 622978" d="M275.684,238.52c1.185,2.672,12.108,1.849,11.711-.587A54.081,54.081,0,0,0,284.7,227.4c3-5.124-2.242-8.714-2.242-8.714s-4.893-1.792-7.577.51,3,9.416,3,9.416C277.109,230.509,275.174,237.371,275.684,238.52Z" transform="translate(-273.607 -208.804)" fill="#f24052"/>
            <g id="Grupo_889121" data-name="Grupo 889121" transform="translate(1.514)">
              <path id="Trazado_622979" data-name="Trazado 622979" d="M282.565,182.8s3.857-1.292,4.634,1.424.071,5.58-1.739,5.388C282.912,189.338,279.568,184.323,282.565,182.8Z" transform="translate(-280.643 -181.621)" fill="#ff8b66"/>
              <path id="Trazado_622984" data-name="Trazado 622984" d="M282.367,188.845a4.4,4.4,0,0,0-.837,2.585s-.647-.793-.986-.1,1.017,1.7,1.017,1.7-2.183.123-2.439-2.7C279.014,189.132,280.557,188.046,282.367,188.845Z" transform="translate(-278.91 -186.274)" fill="#0e3944"/>
              <path id="Trazado_622985" data-name="Trazado 622985" d="M288.332,204.926c.3.8,1.431,2.178,2.632,1.783,0,0-.3,1.188.2,1.621,0,0,.528.92-.674,1.05a2.639,2.639,0,0,1-2.34-1.05,4.354,4.354,0,0,0-.245-3.257A.261.261,0,0,0,288.332,204.926Z" transform="translate(-285.633 -198.788)" fill="#ef6e4b"/>
              <path id="Trazado_622989" data-name="Trazado 622989" d="M279.82,179.284a2.725,2.725,0,0,0-1.371,3.558c.244-.948,2.058-1.636,2.058-1.636a1.844,1.844,0,0,0,.552,1.411,3.3,3.3,0,0,1,.626-.667,3.523,3.523,0,0,0,.132-.4,3.007,3.007,0,0,0,.075-.374c.008-.061.017-.12.018-.175s.009-.109.005-.159a1.643,1.643,0,0,0-.015-.237l-.011-.09.021.088a1.717,1.717,0,0,1,.042.237c.009.05.008.1.013.161s0,.118,0,.181a3.106,3.106,0,0,1-.035.393c-.011.075-.025.148-.041.221.086-.059.173-.113.262-.162.032-.053.064-.107.093-.164a2.028,2.028,0,0,0,.2-.593,1.257,1.257,0,0,0,.017-.209v-.08l.009.08a1.277,1.277,0,0,1,.009.213,2.1,2.1,0,0,1-.133.637l-.007.018a3.733,3.733,0,0,1,.778-.265c-.008-.072-.017-.147-.029-.223a2.978,2.978,0,0,0-.1-.453,1.72,1.72,0,0,0-.078-.2,1.734,1.734,0,0,1,.112.183,3.07,3.07,0,0,1,.183.439c.025.074.048.148.068.22a4.542,4.542,0,0,1,.477-.061c-.025-.125-.06-.278-.105-.431a3.026,3.026,0,0,0-.175-.462,1.778,1.778,0,0,0-.112-.2,1.774,1.774,0,0,1,.143.178,3.107,3.107,0,0,1,.253.438,4.844,4.844,0,0,1,.194.463,5.125,5.125,0,0,1,.7.025c0-.019,0-.039,0-.062a2.4,2.4,0,0,0-.041-.412,1.805,1.805,0,0,0-.124-.4,1.073,1.073,0,0,0-.064-.124l-.027-.046.035.04a1.1,1.1,0,0,1,.088.112,1.883,1.883,0,0,1,.2.385,2.556,2.556,0,0,1,.125.423c.009.043.015.08.02.112.146.022.232.043.232.043C285.28,178.915,282.2,178.211,279.82,179.284Z" transform="translate(-278.237 -178.794)" fill="#0e3944"/>
            </g>
            <path id="Trazado_622990" data-name="Trazado 622990" d="M286.036,215.458c.025.578,1.513,1.642,3.294,1.423a1.106,1.106,0,0,0,.752-1.971s-1.065.746-3.532-.468a.584.584,0,0,0-.294.537A.461.461,0,0,1,286.036,215.458Z" transform="translate(-282.69 -206.069)" fill="#ce364c"/>
            <g id="Grupo_889122" data-name="Grupo 889122" transform="translate(0.389 33.122)">
              <path id="Trazado_622991" data-name="Trazado 622991" d="M280.579,324.6a1.5,1.5,0,0,1,0,.7c-.1.267-.549.853-.48,1.176s-.283.47-.254-.44S279.845,324.42,280.579,324.6Z" transform="translate(-278.341 -323.452)" fill="#ef6e4b"/>
              <path id="Trazado_622992" data-name="Trazado 622992" d="M275.2,321.072l-.254,1.321s-.176.91-.352.881-.264-.734-.264-.734-.44-.234-.47-.367-.029-.6-.249-.661-.162-1.7-.162-1.7S275.017,320.632,275.2,321.072Z" transform="translate(-273.446 -319.81)" fill="#ff8b66"/>
            </g>
            <path id="Trazado_622993" data-name="Trazado 622993" d="M273.068,222.668c1.2-.855,2.695,3.621,2.876,5.246.411,3.679-.117,17.7-1.116,18.888s-2.173-.293-2.819-.788.338-10.536.338-10.536S270.779,224.3,273.068,222.668Z" transform="translate(-271.79 -212.28)" fill="#ce364c"/>
            <path id="Trazado_622994" data-name="Trazado 622994" d="M295.924,428.4s-.167-2.25.273-2.838c0,0,.486.773,1.152.773.433,0,.608-1,.978-.773.325.2.544.759,1.417,1.335s1.583.412,1.638,1.5Z" transform="translate(-290.232 -367.576)" fill="#bfc0c1"/>
          </g>
          <g id="Grupo_889133" data-name="Grupo 889133" transform="translate(123.189 9.688)">
            <path id="Trazado_622995" data-name="Trazado 622995" d="M600.341,231.5c-.691-.363-1.717,2.674-.632,3.2s1.913-1.7,1.913-1.7A3.993,3.993,0,0,0,600.341,231.5Z" transform="translate(-595.205 -210.572)" fill="#c96f32"/>
            <g id="Grupo_889124" data-name="Grupo 889124" transform="translate(0 18.366)">
              <path id="Trazado_622996" data-name="Trazado 622996" d="M583.587,224.615a5.6,5.6,0,0,1,1.158.035,3.188,3.188,0,0,0,1.456.241c.4-.069,1.264.592,1.264.592a3.472,3.472,0,0,0,.273-1.9,2.03,2.03,0,0,1-.64-.329c-.208-.291-.118-.837-.606-1.29a5.038,5.038,0,0,1-.882-1.262s-.367-.016-.315.328.428.742.4.9a.4.4,0,0,1-.024.093.022.022,0,0,0,0,.008.381.381,0,0,1-.214.239.049.049,0,0,1-.022.009,3.1,3.1,0,0,1-1.542-.446c-.48-.264-1.162-.591-1.2-.236s.372.223,1.328,1l-.043.118a4.641,4.641,0,0,1-1.477-.412c-.489-.207-.473.191-.359.334a4.275,4.275,0,0,0,.987.436c.233.1.477.2.622.261l.005.167c-1.057.049-1.314-.285-1.471-.02s.583.52.92.508a2.915,2.915,0,0,1,.67.127c-.8.2-1.064-.007-1.142.232S583.311,224.685,583.587,224.615Z" transform="translate(-582.078 -220.706)" fill="#a8604f"/>
              <path id="Trazado_622997" data-name="Trazado 622997" d="M596.943,227.536a1.531,1.531,0,0,1-.257-1.161.381.381,0,0,1-.214.239A.916.916,0,0,0,596.943,227.536Z" transform="translate(-593.09 -225.043)" fill="#874538"/>
            </g>
            <path id="Trazado_622998" data-name="Trazado 622998" d="M612.325,190.287c-1.7.819-4.631,11.192-4.631,11.192s-.45-.448-.634-.125-5.177-1.365-5.177-1.365a2.567,2.567,0,0,1-.632,3.2s5.333,2.625,7.133,2.979,4.62-8.754,4.62-8.754Z" transform="translate(-596.748 -179.065)" fill="#e28a42"/>
            <g id="Grupo_889125" data-name="Grupo 889125" transform="translate(6.265 64.509)">
              <path id="Trazado_622999" data-name="Trazado 622999" d="M608.75,421.56a3.361,3.361,0,0,0,.026.435h7.388c0-.146,0-.292-.011-.435a13.568,13.568,0,0,0-.694-3.609l-1.846-.793a2.955,2.955,0,0,1-1.082,1.956,2.613,2.613,0,0,1-.423.271c-.068.037-.135.07-.206.1a3.544,3.544,0,0,1-.472.175,11.513,11.513,0,0,1-1.773.31C608.87,420.094,608.75,421,608.75,421.56Z" transform="translate(-608.75 -417.158)" fill="#0e3944"/>
              <path id="Trazado_623000" data-name="Trazado 623000" d="M608.75,435.9a3.361,3.361,0,0,0,.026.435h7.388c0-.146,0-.292-.011-.435Z" transform="translate(-608.75 -431.497)" fill="#adbec4"/>
              <path id="Trazado_623001" data-name="Trazado 623001" d="M623.05,425.756l1.025.329.216-.375-.819-.224A2.613,2.613,0,0,1,623.05,425.756Z" transform="translate(-619.691 -423.529)" fill="#adbec4"/>
              <path id="Trazado_623002" data-name="Trazado 623002" d="M620.164,427.247l.691.459.425-.167-.644-.467A3.548,3.548,0,0,1,620.164,427.247Z" transform="translate(-617.483 -424.743)" fill="#adbec4"/>
            </g>
            <g id="Grupo_889126" data-name="Grupo 889126" transform="translate(19.372 63.674)">
              <path id="Trazado_623003" data-name="Trazado 623003" d="M664.559,418.841a1.863,1.863,0,0,0,.083.435h4.921a2.22,2.22,0,0,0,.138-.435c.485-2.355-2.785-5.236-2.785-5.236l-1.038,1.385s.12,2.217-.759,2.678A1.124,1.124,0,0,0,664.559,418.841Z" transform="translate(-664.552 -413.605)" fill="#0e3944"/>
              <path id="Trazado_623004" data-name="Trazado 623004" d="M669.725,435.9h-5.142a1.86,1.86,0,0,0,.083.435h4.921A2.217,2.217,0,0,0,669.725,435.9Z" transform="translate(-664.576 -430.663)" fill="#adbec4"/>
              <path id="Trazado_623005" data-name="Trazado 623005" d="M667.928,428.438s2.073-.473,3.018.14v-.342A3.041,3.041,0,0,0,667.928,428.438Z" transform="translate(-667.135 -424.551)" fill="#adbec4"/>
              <path id="Trazado_623006" data-name="Trazado 623006" d="M669.676,426.2a3.382,3.382,0,0,1,2.608,0l-.147-.345A2.532,2.532,0,0,0,669.676,426.2Z" transform="translate(-668.473 -422.842)" fill="#adbec4"/>
            </g>
            <path id="Trazado_623007" data-name="Trazado 623007" d="M642.4,273.844c0,4.681-.461,9.449-.579,10.658s-1.37,14.719-1.547,19.945a31.869,31.869,0,0,1-.95,5.917s-2.55-2.061-3.995-.53l-.362-2.089.677-1.645a2.858,2.858,0,0,1-.132-2.417c.592-1.057.773-23.65.773-23.65l-1.139-.073L629.68,306.1v1.489a8.2,8.2,0,0,0-1.2,3.107l-3.633-1.235.592-1.716-.394-2.45,1.319-3.2s3.776-24.988,3.469-27.792Z" transform="translate(-614.803 -242.997)" fill="#0d527c"/>
            <path id="Trazado_623008" data-name="Trazado 623008" d="M644.285,192.522c0,.31,0,.627,0,.947,0,.592.007,1.2.016,1.818,0,.312.009.627.016.942.014.752.033,1.508.056,2.248.009.319.019.637.028.949.028.862.061,1.7.092,2.471.014.336.028.66.042.97.028.7.059,1.344.085,1.886.019.385.035.726.052,1.008.031.6.049.94.049.94a8.575,8.575,0,0,0,4.768,2.121c5.773.914,7.746-1.863,7.746-1.863s.023-.218.063-.608c.028-.256.061-.587.1-.979.049-.467.1-1.022.164-1.642q.046-.455.092-.951c.066-.693.136-1.442.209-2.227.026-.305.054-.618.08-.932.056-.627.11-1.273.162-1.919.026-.315.052-.632.075-.947.056-.7.106-1.39.153-2.069.021-.324.042-.641.061-.956.047-.742.085-1.459.115-2.126.014-.336.026-.658.033-.965.021-.693.028-1.313.014-1.837-.009-.4-.028-.738-.061-1.008a1.658,1.658,0,0,0-.164-.658c-.561-.824-1.8-1.207-4.223-1.884a8.928,8.928,0,0,0-1.975-.317c-.942-.045-1.83-.052-2.645-.009-2.1.113-3.73.559-4.592,1.592-.023.028-.047.056-.07.087a2.372,2.372,0,0,0-.284.93,17.943,17.943,0,0,0-.176,1.827c-.019.3-.033.615-.042.949C644.3,190.99,644.288,191.737,644.285,192.522Z" transform="translate(-629.673 -174.94)" fill="#ffb878"/>
            <path id="Trazado_623016" data-name="Trazado 623016" d="M668.768,184.582c.264.038.822.4.836.662.044.834-1.56,1.527-3.029,1.409s-1.472-.914-1.2-1.311S666.319,184.227,668.768,184.582Z" transform="translate(-645.706 -174.626)" fill="#c96f32"/>
            <path id="Trazado_623017" data-name="Trazado 623017" d="M667.061,172.957l.521,3.077s.833.478,2.77-.609c0,0-.789-2.373.206-3.933,0,0-.219,0-.568.008C669.99,171.5,669.5,173.264,667.061,172.957Z" transform="translate(-647.1 -164.684)" fill="#874538"/>
            <g id="Grupo_889131" data-name="Grupo 889131" transform="translate(18.452)">
              <path id="Trazado_623018" data-name="Trazado 623018" d="M661.058,145.32s-.889-.726-.085-.962c0,0-.339-.889.05-1.034s.785.212,1-.169a.938.938,0,0,1,1.517-.393c.831.6,1.293-.384,1.651-.066s.139.83.722.906,1.128.212,1,.8.509.622.539.978-.243.459-.268.763.407.432.252.888-.6.391-.561.718.325,1.049-.093,1.152-.575.839-1.063.734S661.058,145.32,661.058,145.32Z" transform="translate(-660.637 -142.511)" fill="#0e3944"/>
              <path id="Trazado_623019" data-name="Trazado 623019" d="M666.7,153.171c.106,2.917-4.058,4.171-4.84,2.781a9.074,9.074,0,0,1-.591-2.535c-.021-.194-.037-.389-.046-.585-.059-1.329.178-2.651.941-2.944C664.826,148.868,666.575,149.594,666.7,153.171Z" transform="translate(-661.083 -147.833)" fill="#a8604f"/>
              <path id="Trazado_623028" data-name="Trazado 623028" d="M666.325,149.794a2.375,2.375,0,0,0-.578-1.668c-.64-.611-.084-1.511-.084-1.511s-2.563-.434-3.7.6c0,0-.854-1.5,1.585-2.115s6.4,1.282,3.072,6.426l.543-1.781Z" transform="translate(-661.538 -144.409)" fill="#0e3944"/>
              <path id="Trazado_623029" data-name="Trazado 623029" d="M680.941,163.548s.574-.687,1.117-.276-.349,1.674-.931,1.633S680.941,163.548,680.941,163.548Z" transform="translate(-676.071 -158.296)" fill="#a8604f"/>
            </g>
            <path id="Trazado_623030" data-name="Trazado 623030" d="M683.985,244.256c-.622-.01-.974,2.853.243,3.154C684.229,247.41,685.687,244.284,683.985,244.256Z" transform="translate(-659.614 -220.358)" fill="#c96f32"/>
            <g id="Grupo_889132" data-name="Grupo 889132" transform="translate(19.352 23.72)">
              <path id="Trazado_623031" data-name="Trazado 623031" d="M669.517,246.26a12.586,12.586,0,0,1-2.5.72.3.3,0,0,1-.042-.007,6.441,6.441,0,0,1-1.015-.513c-.262-.1-.353-.345-.581-.515a1.59,1.59,0,0,1-.373-.686s-.778-.7-.453-.79c.406-.114.866.294.866.294l1.007.172s1.209-.478,1.158-.72-.552-.043-.989-.079c-.289-.022-.311-.338-.311-.338l.745-.188a5.212,5.212,0,0,1,1.321-.08c.233.095,1.093.638,1.093.638l1.611-.035.311,2.1A10.6,10.6,0,0,0,669.517,246.26Z" transform="translate(-664.471 -243.5)" fill="#a8604f"/>
              <path id="Trazado_623032" data-name="Trazado 623032" d="M668.706,252.7a6.446,6.446,0,0,1-1.015-.513c-.262-.1-.352-.345-.581-.515a1.59,1.59,0,0,1-.373-.686c.2.165,1.149.337,1.222.416s-.041.159-.007.32.371.164.351.337a.33.33,0,0,0,.235.417A.279.279,0,0,1,668.706,252.7Z" transform="translate(-666.205 -249.231)" fill="#874538"/>
            </g>
            <path id="Trazado_623033" data-name="Trazado 623033" d="M690.127,194.421c-1.659.872-2.246,4.5-2.07,5.976l1.824,4.846s-.358.654-.065.771l-3.98.112s1.019,1.061.243,3.154c0,0,5.2,1.558,7.43,0a3.024,3.024,0,0,0,.829-2.677A43.443,43.443,0,0,0,690.127,194.421Z" transform="translate(-661.466 -182.228)" fill="#e28a42"/>
          </g>
          <g id="Grupo_889141" data-name="Grupo 889141" transform="translate(0 16.35)">
            <path id="Trazado_623034" data-name="Trazado 623034" d="M134.9,256.571c.774.1-.13,3.175-1.319,2.979s-.588-2.493-.588-2.493A3.991,3.991,0,0,1,134.9,256.571Z" transform="translate(-108.165 -230.433)" fill="#a1b1b5"/>
            <g id="Grupo_889134" data-name="Grupo 889134" transform="translate(25.248 24.965)">
              <path id="Trazado_623035" data-name="Trazado 623035" d="M138.964,255.979a5.6,5.6,0,0,0-.968-.637,3.187,3.187,0,0,1-1.331-.639c-.284-.284-1.375-.241-1.375-.241a3.473,3.473,0,0,1,.865-1.709,2.031,2.031,0,0,0,.713.1c.338-.119.578-.618,1.238-.708a5.041,5.041,0,0,0,1.447-.527s.31.2.07.449-.777.361-.849.507a.4.4,0,0,0-.034.09.018.018,0,0,1,0,.007.379.379,0,0,0,.038.318.047.047,0,0,0,.013.02,3.1,3.1,0,0,0,1.518.52c.544.059,1.291.184,1.118.5s-.433-.031-1.664.06l-.033.122a4.646,4.646,0,0,0,1.446.51c.519.111.278.428.1.48a4.264,4.264,0,0,1-1.058-.21c-.248-.053-.506-.109-.659-.144l-.1.134c.837.648,1.239.521,1.215.829s-.776.09-1.045-.113a2.911,2.911,0,0,0-.622-.281c.544.62.874.605.8.845S139.15,256.195,138.964,255.979Z" transform="translate(-135.291 -251.617)" fill="#ff8b66"/>
              <path id="Trazado_623036" data-name="Trazado 623036" d="M146.228,256.9a1.53,1.53,0,0,0,.877-.8.379.379,0,0,0,.038.319A.916.916,0,0,1,146.228,256.9Z" transform="translate(-143.659 -255.048)" fill="#ef6e4b"/>
            </g>
            <path id="Trazado_623037" data-name="Trazado 623037" d="M97,192.164c1.811,2.362,3.377,13.019,3.377,13.019s.626-.108.591.261,5.022,1.856,5.022,1.856a2.567,2.567,0,0,0-1.319,2.979s-5.874-.914-7.55-1.658-2.063-12-2.063-12Z" transform="translate(-79.26 -181.164)" fill="#cfd8dc"/>
            <g id="Grupo_889135" data-name="Grupo 889135" transform="translate(12.167 63.847)">
              <path id="Trazado_623038" data-name="Trazado 623038" d="M87.01,421.56a3.359,3.359,0,0,1-.026.435H79.6c0-.146,0-.292.011-.435a13.565,13.565,0,0,1,.694-3.609l1.846-.793a2.955,2.955,0,0,0,1.082,1.956,2.616,2.616,0,0,0,.423.271c.068.037.136.07.206.1a3.541,3.541,0,0,0,.472.175,11.512,11.512,0,0,0,1.773.31C86.89,420.094,87.01,421,87.01,421.56Z" transform="translate(-79.596 -417.158)" fill="#0e3944"/>
              <path id="Trazado_623039" data-name="Trazado 623039" d="M87.01,435.9a3.359,3.359,0,0,1-.026.435H79.6c0-.146,0-.292.011-.435Z" transform="translate(-79.596 -431.497)" fill="#adbec4"/>
              <path id="Trazado_623040" data-name="Trazado 623040" d="M92.817,425.756l-1.025.329-.217-.375.819-.224A2.615,2.615,0,0,0,92.817,425.756Z" transform="translate(-88.762 -423.529)" fill="#adbec4"/>
              <path id="Trazado_623041" data-name="Trazado 623041" d="M96.112,427.247l-.691.459L95,427.539l.644-.467A3.547,3.547,0,0,0,96.112,427.247Z" transform="translate(-91.379 -424.743)" fill="#adbec4"/>
            </g>
            <g id="Grupo_889136" data-name="Grupo 889136" transform="translate(2.693 63.012)">
              <path id="Trazado_623042" data-name="Trazado 623042" d="M44.447,418.841a1.859,1.859,0,0,1-.083.435H39.442a2.22,2.22,0,0,1-.138-.435c-.485-2.355,3.49-5.236,3.49-5.236l.333,1.385s-.12,2.217.759,2.678A1.124,1.124,0,0,1,44.447,418.841Z" transform="translate(-39.263 -413.605)" fill="#0e3944"/>
              <path id="Trazado_623043" data-name="Trazado 623043" d="M39.438,435.9H44.58a1.86,1.86,0,0,1-.083.435H39.576A2.221,2.221,0,0,1,39.438,435.9Z" transform="translate(-39.397 -430.663)" fill="#adbec4"/>
              <path id="Trazado_623044" data-name="Trazado 623044" d="M48.154,428.438s-2.073-.473-3.018.14v-.342A3.041,3.041,0,0,1,48.154,428.438Z" transform="translate(-43.757 -424.551)" fill="#adbec4"/>
              <path id="Trazado_623045" data-name="Trazado 623045" d="M47.744,426.2a3.382,3.382,0,0,0-2.608,0l.147-.345A2.532,2.532,0,0,1,47.744,426.2Z" transform="translate(-43.757 -422.842)" fill="#adbec4"/>
            </g>
            <path id="Trazado_623046" data-name="Trazado 623046" d="M41.956,273.844c0,4.681-1.5,21.57-1.666,22.774-.309,2.309-.137,6.3-.562,8.748a25.167,25.167,0,0,0-.337,5s2.55-2.061,3.995-.53l.6-2.089L43.54,306.1l.837-2.417c-.592-1.057,3.692-23.65,3.692-23.65l.434-.073-.174,26.14v1.489a16.9,16.9,0,0,1,.493,3.107l4.338-1.235-.592-1.716.394-2.215-.144-2.96s1.395-25.458,1.7-28.262Z" transform="translate(-36.656 -243.659)" fill="#8b383e"/>
            <path id="Trazado_623047" data-name="Trazado 623047" d="M46.043,206.959s1.2,1.035,7.04.923c4.513-.086,5.708-1.18,5.708-1.18s1.054-18.589-.106-20.1c-.843-1.1-2.5-1.565-4.662-1.679-.815-.042-1.7-.035-2.644.01a8.925,8.925,0,0,0-1.976.317c-2.419.675-4.114,2.262-4.371,3.507C44.709,190.32,46.043,206.959,46.043,206.959Z" transform="translate(-40.945 -175.604)" fill="#cfd8dc"/>
            <path id="Trazado_623048" data-name="Trazado 623048" d="M91.523,198.12a9.83,9.83,0,0,1-.247,5.329c-.528.954-2.936.526-2.936.526s.059-8.056-.322-12.153a14.838,14.838,0,0,0-2.161-6.638s4.3.164,4.949,2.56a7.662,7.662,0,0,1,.153,3.5,4.078,4.078,0,0,1-.153.573.2.2,0,0,1,.038,0c.139.026.611.237.942,1.952a7.123,7.123,0,0,1-.51,3.932A1.123,1.123,0,0,1,91.523,198.12Z" transform="translate(-72.22 -175.824)" fill="#f24052"/>
            <path id="Trazado_623049" data-name="Trazado 623049" d="M86.413,185.22s.74-2.462-.145-3.634a3.461,3.461,0,0,0-1.845-1.368,5.614,5.614,0,0,1,1.35,1.879C85.931,182.841,86.413,185.22,86.413,185.22Z" transform="translate(-71.122 -172.023)" fill="#ce364c"/>
            <path id="Trazado_623050" data-name="Trazado 623050" d="M65.257,178.242c-1.261-.379-4.325-.959-5.871-.323,0,0-.126,1.321.416,1.781s5.808-2.223,7.345,3.053C67.148,182.754,67.607,178.949,65.257,178.242Z" transform="translate(-51.957 -170.048)" fill="#b72e48"/>
            <path id="Trazado_623051" data-name="Trazado 623051" d="M48.8,196.953c-.059,6.769-.848,8.707-.848,8.707s-4.986.646-5.886-.352,0-4.15,0-4.15a12.931,12.931,0,0,1-.411-1.233l0,0c-.089-.312-.183-.672-.263-1.059s-.15-.8-.2-1.217a4.475,4.475,0,0,1,.373-2.41,2.755,2.755,0,0,1,.312-.526s-.954-3.93-.531-5.67a2.592,2.592,0,0,1,.484-1c1.266-1.632,4.209-1.632,4.209-1.632.827.225,2.081,2.4,2.56,6.567v0A31.813,31.813,0,0,1,48.8,196.953Z" transform="translate(-38.021 -176.757)" fill="#f24052"/>
            <path id="Trazado_623052" data-name="Trazado 623052" d="M71.652,172.606l-.768,3.025s-.869.409-2.711-.831c0,0,.978-2.3.112-3.937,0,0,.219.013.565.054C68.851,170.917,69.2,172.716,71.652,172.606Z" transform="translate(-58.689 -164.866)" fill="#ef6e4b"/>
            <g id="Grupo_889139" data-name="Grupo 889139" transform="translate(8.312)">
              <path id="Trazado_623053" data-name="Trazado 623053" d="M68.172,152.937c-.036,3.579,3.406,4.094,4.3,2.772a6,6,0,0,0,.712-2.039c.037-.191.068-.385.093-.58.166-1.32.037-2.656-.7-3.01C70.008,148.848,68.208,149.357,68.172,152.937Z" transform="translate(-67 -148.502)" fill="#ff8b66"/>
              <path id="Trazado_623061" data-name="Trazado 623061" d="M69.313,147.582a1.726,1.726,0,0,0,1.137-.693,1.642,1.642,0,0,1-.568,0,.893.893,0,0,0,.255-.94,3.467,3.467,0,0,1-1.125,0l.445-.333a5.921,5.921,0,0,1-1.507-.156,5.171,5.171,0,0,0-3.761.528c-1.079.8-1.789,4.54.563,6.155l-.143-.817a2.031,2.031,0,0,1-.246-1.248c.157-.509.437-.1.437-.1a5.639,5.639,0,0,0,.816-2.186v-.867S68.2,146.338,69.313,147.582Z" transform="translate(-63.183 -145.329)" fill="#ffb878"/>
              <path id="Trazado_623062" data-name="Trazado 623062" d="M65.555,162.788s-.517-.731-1.091-.365.213,1.7.8,1.7S65.555,162.788,65.555,162.788Z" transform="translate(-64.01 -158.329)" fill="#ff8b66"/>
            </g>
            <path id="Trazado_623063" data-name="Trazado 623063" d="M60.74,183.544s.8-2.571.554-3.375-2.77-1.7-3-1.46a2.053,2.053,0,0,0-.249,1.84S59.609,180.793,60.74,183.544Z" transform="translate(-50.859 -170.838)" fill="#ce364c"/>
            <path id="Trazado_623064" data-name="Trazado 623064" d="M48.851,198.29l0,0c-.749.972-5.2,1.019-5.2,1.019s-2.936,4.308-.822,5.637c2.074,1.306,5.787.388,5.924.355-.82.672-5.949,1.127-6.844-.061l0,0a.658.658,0,0,1-.094-.174,3.552,3.552,0,0,1-.169-.885,19.648,19.648,0,0,1,.176-3.627,2.755,2.755,0,0,1,.312-.526s-.954-3.93-.531-5.67a2.593,2.593,0,0,1,.484-1c2.638.063,2.858,4.935,2.858,4.935a18.334,18.334,0,0,0,3.911,0Z" transform="translate(-38.272 -182.075)" fill="#ce364c"/>
            <path id="Trazado_623065" data-name="Trazado 623065" d="M36.881,304.757c.034.615-2.875,1.828-2.995.94S36.795,303.2,36.881,304.757Z" transform="translate(-32.454 -266.812)" fill="#a1b1b5"/>
            <g id="Grupo_889140" data-name="Grupo 889140" transform="translate(1.594 36.542)">
              <path id="Trazado_623066" data-name="Trazado 623066" d="M34.937,302.844a12.594,12.594,0,0,0-.191,2.6.3.3,0,0,0,.016.039c.143.338.57.66.711.889s.41.274.623.463a1.59,1.59,0,0,0,.748.224s.842.619.866.281c.028-.421-.465-.787-.465-.787l-.375-.95s.219-1.281.467-1.281.156.531.281.952a.359.359,0,0,0,.395.235l.031-.768a5.215,5.215,0,0,0-.193-1.31c-.14-.208-.849-.939-.849-.939l-.3-1.584-2.124.127A10.607,10.607,0,0,1,34.937,302.844Z" transform="translate(-34.582 -300.905)" fill="#ff8b66"/>
              <path id="Trazado_623067" data-name="Trazado 623067" d="M35.348,320.387c.143.338.57.66.711.889s.41.274.623.463a1.59,1.59,0,0,0,.748.224c-.2-.16-.566-1.055-.658-1.11s-.147.072-.311.072-.237-.329-.4-.274a.331.331,0,0,1-.456-.145A.279.279,0,0,0,35.348,320.387Z" transform="translate(-35.168 -315.811)" fill="#ef6e4b"/>
            </g>
            <path id="Trazado_623068" data-name="Trazado 623068" d="M32.032,194.421c1.659.872,2.246,4.5,2.07,5.976l-2.348,7.157s-.059.833-.352.95l.823,12.332c-.236-.468-2.654-.087-2.995.94,0,0-1.646-11.9-1.41-15.172C27.866,205.956,32.032,194.421,32.032,194.421Z" transform="translate(-27.796 -182.89)" fill="#cfd8dc"/>
            <path id="Trazado_623069" data-name="Trazado 623069" d="M96.178,211.578a8.123,8.123,0,0,0,2.678-.573,4.078,4.078,0,0,1-.153.573A9.485,9.485,0,0,1,96.178,211.578Z" transform="translate(-80.116 -195.579)" fill="#ce364c"/>
            <path id="Trazado_623070" data-name="Trazado 623070" d="M101.34,238.916a12.36,12.36,0,0,1-2.652-.129,8.54,8.54,0,0,0,2.405-.282A1.123,1.123,0,0,1,101.34,238.916Z" transform="translate(-82.037 -216.62)" fill="#ce364c"/>
          </g>
          <g id="Grupo_889148" data-name="Grupo 889148" transform="translate(29.106 24.251)">
            <path id="Trazado_623071" data-name="Trazado 623071" d="M169.242,236.269c-.186-.345-1.7,1.494-1.274,2.623s1.274.94,1.274.94S169.781,237.27,169.242,236.269Z" transform="translate(-164.092 -222.778)" fill="#c96f32"/>
            <g id="Grupo_889142" data-name="Grupo 889142" transform="translate(0 10.741)">
              <path id="Trazado_623072" data-name="Trazado 623072" d="M154.956,224.7l.839,1c.842,1,.63,1.077.472,1.763-.147.641-1.349.5-1.827.308-.4-.161-1.484.087-1.783-.136-.121-.09,0-.139.348-.173a2.557,2.557,0,0,0,.77-.218c-.257-.379-1.723-.083-1.937-.53-.1-.217,1.647.169,1.813-.055,0,0-.08-.146-.924-.4-.484-.149-.983-.3-1.011-.461-.049-.3.91.192,2.126.3,0,0-.491-.252-.962-.455-.431-.183-.852-.31-.752-.494.082-.151.746.154,1.176.332a5.207,5.207,0,0,0,1.8.408,1.858,1.858,0,0,0,.255,0C154.593,224.787,154.956,224.7,154.956,224.7Z" transform="translate(-151.714 -224.697)" fill="#ff8b66"/>
              <path id="Trazado_623073" data-name="Trazado 623073" d="M166.34,229.714a1.188,1.188,0,0,0,.226.883.71.71,0,0,1-.481-.879A1.865,1.865,0,0,0,166.34,229.714Z" transform="translate(-162.69 -228.536)" fill="#ef6e4b"/>
            </g>
            <path id="Trazado_623074" data-name="Trazado 623074" d="M168.937,233.2l.812,1.97-.805,1.883s-.608-2.237-.821-2.941S168.937,233.2,168.937,233.2Z" transform="translate(-164.246 -220.458)" fill="#ff8b66"/>
            <path id="Trazado_623075" data-name="Trazado 623075" d="M178.266,220.209a16.294,16.294,0,0,0-3.665,1.808l-2.292,7.1s-.078-.5-.235-.294l-2.584-4.808s-.043,2.623-1.274,2.623c0,0,2.527,6.968,3.936,7.36s3.837-5.756,3.837-5.756Z" transform="translate(-164.341 -210.523)" fill="#f2a668"/>
            <path id="Trazado_623076" data-name="Trazado 623076" d="M181.059,252.386c1.165-1.235,10.894-.386,11.955.73s-1.568-14.723-1.568-14.723-4.795-.441-5.063.812A51.4,51.4,0,0,1,181.059,252.386Z" transform="translate(-174.167 -224.378)" fill="#c96f32"/>
            <path id="Trazado_623077" data-name="Trazado 623077" d="M210,215.195a5.142,5.142,0,0,1,3.411-.2l.278,2.291s-3.827,1.4-5.065.985S207.057,216.878,210,215.195Z" transform="translate(-194.566 -206.363)" fill="#c96f32"/>
            <path id="Trazado_623078" data-name="Trazado 623078" d="M161.165,415.455a8.531,8.531,0,0,0,1.8-2.642c.328-1.081.716-2.566,1.112-4.185h1.689c-.554,1.765-.909,3.242-1.068,3.908a1.283,1.283,0,0,0,.062.312c.047.163.141,2.621.141,2.621H161.12l.034-.01Z" transform="translate(-158.911 -354.686)" fill="#ef6e4b"/>
            <path id="Trazado_623079" data-name="Trazado 623079" d="M212.564,408.628h2c-.373,2.058-.665,3.805-.665,3.805v3.036H211.72a31.782,31.782,0,0,0,.815-4.781C212.535,410.013,212.546,409.324,212.564,408.628Z" transform="translate(-197.626 -354.686)" fill="#ff8b66"/>
            <path id="Trazado_623080" data-name="Trazado 623080" d="M171.714,306.863c1.187-4.568,2.657-11.484,2.848-12.629.123-.74.234-3.089.525-5.973.076-3.289.455-10.808,2.3-15.076l4.349.1c-.176,3.389,3.111,7.048-.891,10.968a58.1,58.1,0,0,0-2.5,8.614c-.3,2.58-.777,3.724-2.268,6.6a39.4,39.4,0,0,0-2.753,7.393Z" transform="translate(-167.016 -251.056)" fill="#ef6e4b"/>
            <path id="Trazado_623081" data-name="Trazado 623081" d="M204.938,288.056h0c-.279,1.444-.674,2.41-.891,3.625-.317,1.769.584,4.332-.325,7.181-.43,1.349-1.234,5.8-1.662,8.265h-1.65c0-.023,0-.048,0-.07,0-5.994.827-13.141.7-15.859-.052-1.145-.247-2.77-.452-4.248,0-.007-.64-4.3-1.262-4.659-2.551-1.474-3.526-9.107-3.526-9.107l6.509.3a9.509,9.509,0,0,1,2.8,8.758s0,.058.009.158A22.138,22.138,0,0,1,204.938,288.056Z" transform="translate(-185.502 -251.056)" fill="#ff8b66"/>
            <path id="Trazado_623082" data-name="Trazado 623082" d="M160.262,428.4s.167-2.25-.273-2.838c0,0-.486.773-1.152.773-.433,0-.608-1-.979-.773-.325.2-.544.759-1.417,1.335s-1.583.412-1.637,1.5Z" transform="translate(-154.078 -367.617)" fill="#ce364c"/>
            <path id="Trazado_623083" data-name="Trazado 623083" d="M213.2,425.587s-.027-.747-1.064-.66-.963.839-.963.839a.236.236,0,0,0-.293,0c-.136.121-.021,1.158-.283,1.377s-.181.791-.181.791h3.029s.164-.737-.136-1.01S213.777,425.669,213.2,425.587Z" transform="translate(-196.622 -367.151)" fill="#ce364c"/>
            <path id="Trazado_623084" data-name="Trazado 623084" d="M189.879,229.122a38.823,38.823,0,0,1,2.382,17.477s-2.33,1.466-7.338,1.3c-5.419-.181-6.748-1.9-6.748-1.9,2.126-8.305,4.881-18.083,4.881-18.083-3-5.125,2.243-8.714,2.243-8.714s.038-.014.108-.038c.688-.23,4.505-1.4,7,.2a3.959,3.959,0,0,1,.472.35C195.561,222.007,189.879,229.122,189.879,229.122Z" transform="translate(-171.96 -209.238)" fill="#ce364c"/>
            <g id="Grupo_889146" data-name="Grupo 889146" transform="translate(12.536)">
              <path id="Trazado_623085" data-name="Trazado 623085" d="M233.778,186.051a1.631,1.631,0,0,1,2.258-.16c1.109,1.018-.056,3.107,0,3.491s.954.478.739.96-.793.56-.739.795.6.612.367.854-.749-.009-.707.41.316.967-.193,1.006c0,0,.391-.471.039-.627s-.624.016-.781-.482.57-.693.245-.967-1.043-.274-.7-.7.459-.823-.17-1.186S233.778,186.051,233.778,186.051Z" transform="translate(-226.993 -183.948)" fill="#8b383e"/>
              <path id="Trazado_623086" data-name="Trazado 623086" d="M209.6,185.475c-1.293-.034-1.379,2.8.173,4.309S211.714,185.531,209.6,185.475Z" transform="translate(-207.791 -183.947)" fill="#8b383e"/>
              <path id="Trazado_623087" data-name="Trazado 623087" d="M215.466,183.308s-3.857-1.291-4.634,1.424-.071,5.58,1.739,5.388C215.119,189.851,218.462,184.836,215.466,183.308Z" transform="translate(-209.243 -182.054)" fill="#ff8b66"/>
              <path id="Trazado_623092" data-name="Trazado 623092" d="M225.038,189.358a4.4,4.4,0,0,1,.838,2.585s.647-.793.986-.1-1.017,1.7-1.017,1.7,2.183.123,2.439-2.7C228.391,189.645,226.848,188.559,225.038,189.358Z" transform="translate(-220.351 -186.708)" fill="#8b383e"/>
              <path id="Trazado_623093" data-name="Trazado 623093" d="M218.671,205.439c-.3.8-1.43,2.178-2.632,1.783,0,0,.3,1.188-.2,1.621,0,0-.528.92.674,1.051a2.64,2.64,0,0,0,2.34-1.051,4.355,4.355,0,0,1,.245-3.257A.261.261,0,0,1,218.671,205.439Z" transform="translate(-213.226 -199.222)" fill="#ef6e4b"/>
              <path id="Trazado_623099" data-name="Trazado 623099" d="M208.795,180.834s-.583,3.061,1.814,3.371c0,0,.856-1.455,1.987-.437,0,0,1.208-3.32-1.638-3.851,0,0-.553-1.272-2.767-.868-3.093.565-3.954,4.3-2.231,8C205.959,187.045,204.446,180.4,208.795,180.834Z" transform="translate(-205.084 -178.969)" fill="#8b383e"/>
            </g>
            <path id="Trazado_623100" data-name="Trazado 623100" d="M213.74,219.355c-.324.179-.709.369-1.163.571-8.258,3.695-6.318.233-6.318.233a1.278,1.278,0,0,1,.233-.7,1.757,1.757,0,0,1,.251-.3c.674-.225,4.348-1.351,6.84.1C213.637,219.29,213.688,219.322,213.74,219.355Z" transform="translate(-193.296 -209.238)" fill="#ef6e4b"/>
            <path id="Trazado_623101" data-name="Trazado 623101" d="M213.74,221.737c-.324.178-.709.369-1.163.571-8.258,3.695-6.318.233-6.318.233a1.278,1.278,0,0,1,.233-.7,9.936,9.936,0,0,0,1.116.465l.132.507.7-.456a18.449,18.449,0,0,0,5.139-.716C213.637,221.671,213.688,221.7,213.74,221.737Z" transform="translate(-193.296 -211.62)" fill="#ff8b66"/>
            <path id="Trazado_623102" data-name="Trazado 623102" d="M218.545,218.53a12.322,12.322,0,0,0-3.813,4.977c-1.41,3.313,2.525,17.184,2.525,17.184a18.235,18.235,0,0,0,4.463-1.893l-2.877-9.747s3.112-6.459,3.171-7.516A4.449,4.449,0,0,0,218.545,218.53Z" transform="translate(-199.698 -209.238)" fill="#ffb878"/>
            <path id="Trazado_623103" data-name="Trazado 623103" d="M218.858,216.58a9.71,9.71,0,0,1,.1,3.591,2.869,2.869,0,0,0-1.794-.392,13.732,13.732,0,0,0-2.955,8.326s-1.243-4.8-.348-7.231,4-5.163,4-5.163Z" transform="translate(-199.015 -207.08)" fill="#f2a668"/>
            <path id="Trazado_623104" data-name="Trazado 623104" d="M187.983,220.209s-2.59,3.739-2.649,5.024,0,5.445,0,5.445l-4.345,8.936s-.857-1.993,3.329-8.718a34.651,34.651,0,0,1-.276-5.666A6.981,6.981,0,0,1,187.983,220.209Z" transform="translate(-174.058 -210.523)" fill="#ffb878"/>
            <path id="Trazado_623105" data-name="Trazado 623105" d="M198.779,227.9s-.041-5.344.816-7.511a9.949,9.949,0,0,1,3.343-3.812,7.85,7.85,0,0,0-4.307,3.67,1.733,1.733,0,0,1,.587-.059S197.928,221.426,198.779,227.9Z" transform="translate(-187.502 -207.74)" fill="#f2a668"/>
            <path id="Trazado_623106" data-name="Trazado 623106" d="M236.97,231.323s2.551,9.806,1.775,10.628-1.722,2.326-3.125-.832a20.408,20.408,0,0,1-1.644-5.771S235.326,231.382,236.97,231.323Z" transform="translate(-214.654 -219.026)" fill="#f2a668"/>
            <path id="Trazado_623107" data-name="Trazado 623107" d="M238.878,247.453s1.79-.041,2.213-1.216A1.833,1.833,0,0,0,238.878,247.453Z" transform="translate(-218.405 -230.388)" fill="#c96f32"/>
            <path id="Trazado_623108" data-name="Trazado 623108" d="M239.432,239.72l.634,2.6s1.079-.23,1.314-.935l-.47-1.668Z" transform="translate(-218.829 -225.451)" fill="#ff8b66"/>
            <g id="Grupo_889147" data-name="Grupo 889147" transform="translate(20.547 11.136)">
              <path id="Trazado_623109" data-name="Trazado 623109" d="M239.833,227.016l-.416,1.236c-.419,1.236-.193,1.233.205,1.814.372.543,1.438-.027,1.813-.381.318-.3,1.414-.461,1.61-.778.079-.128-.05-.129-.387-.034a2.555,2.555,0,0,1-.8.078c.1-.447,1.573-.707,1.609-1.2.017-.24-1.471.759-1.709.611,0,0,.021-.166.712-.714.4-.316.806-.637.773-.8-.062-.293-.777.511-1.869,1.057,0,0,.365-.414.729-.775.334-.328.68-.6.52-.735-.131-.111-.638.415-.973.739a5.2,5.2,0,0,1-1.531,1.039,1.807,1.807,0,0,1-.239.09C240.2,226.968,239.833,227.016,239.833,227.016Z" transform="translate(-239.192 -226.38)" fill="#ff8b66"/>
              <path id="Trazado_623110" data-name="Trazado 623110" d="M242.131,234.1a1.188,1.188,0,0,1,.112.9.71.71,0,0,0,.127-.994A1.811,1.811,0,0,1,242.131,234.1Z" transform="translate(-241.441 -232.22)" fill="#ef6e4b"/>
            </g>
          </g>
          <g id="Grupo_889154" data-name="Grupo 889154" transform="translate(105.547 18.251)">
            <path id="Trazado_623111" data-name="Trazado 623111" d="M583.036,415.455a8.523,8.523,0,0,1-1.8-2.642c-.328-1.081-.716-2.566-1.112-4.185h-1.69c.554,1.765.909,3.242,1.068,3.908a1.3,1.3,0,0,1-.062.312c-.047.163-.141,2.621-.141,2.621h3.784l-.034-.01Z" transform="translate(-561.648 -354.686)" fill="#ef6e4b"/>
            <path id="Trazado_623112" data-name="Trazado 623112" d="M551.381,306.863c-1.187-4.568-2.656-11.484-2.847-12.629-.123-.74-.234-3.089-.525-5.973-.076-3.289-.455-10.808-2.3-15.076l-4.348.1c.176,3.389-3.11,7.048.891,10.968a58.09,58.09,0,0,1,2.5,8.614c.3,2.58.777,3.724,2.268,6.6a39.4,39.4,0,0,1,2.753,7.393Z" transform="translate(-532.436 -251.056)" fill="#ef6e4b"/>
            <path id="Trazado_623113" data-name="Trazado 623113" d="M581.2,428.4s-.167-2.25.273-2.838c0,0,.486.773,1.152.773.433,0,.608-1,.979-.773.325.2.544.759,1.417,1.335s1.583.412,1.638,1.5Z" transform="translate(-563.739 -367.617)" fill="#0e3944"/>
            <path id="Trazado_623114" data-name="Trazado 623114" d="M537.519,408.628h-2c.373,2.058.665,3.805.665,3.805v3.036h2.176a31.778,31.778,0,0,1-.815-4.781C537.549,410.013,537.538,409.324,537.519,408.628Z" transform="translate(-528.815 -354.686)" fill="#ff8b66"/>
            <path id="Trazado_623115" data-name="Trazado 623115" d="M523.551,288.056h0c.279,1.444.674,2.41.891,3.625.317,1.769-.584,4.332.324,7.181.43,1.349,1.234,5.8,1.662,8.265h1.65c0-.023,0-.048,0-.07,0-5.994-.827-13.141-.7-15.859.052-1.145.247-2.77.452-4.248,0-.007.64-4.3,1.262-4.659,2.551-1.474,3.526-9.107,3.526-9.107l-6.509.3a9.509,9.509,0,0,0-2.8,8.758s0,.058-.009.158A22.124,22.124,0,0,0,523.551,288.056Z" transform="translate(-519.344 -251.056)" fill="#ff8b66"/>
            <path id="Trazado_623116" data-name="Trazado 623116" d="M536.085,425.587s.027-.747,1.064-.66.963.839.963.839a.235.235,0,0,1,.293,0c.136.121.021,1.158.283,1.377s.181.791.181.791h-3.029s-.164-.737.136-1.01S535.511,425.669,536.085,425.587Z" transform="translate(-529.023 -367.151)" fill="#0e3944"/>
            <path id="Trazado_623117" data-name="Trazado 623117" d="M553.96,293.165a4.8,4.8,0,0,1-2.494.279v-.352s-3.025-5.637-3.319-9.513c0,0-.665-1.719-1.36-3.84-.19-.582-.383-1.2-.566-1.813a24.821,24.821,0,0,1-.951-4.291c-.294-3.267.5-11.765.5-11.765l2.971-.075.228,0a26.431,26.431,0,0,1,1.773,5.3,55.646,55.646,0,0,1,1.454,13.146Z" transform="translate(-536.223 -242.337)" fill="#8b383e"/>
            <path id="Trazado_623118" data-name="Trazado 623118" d="M528.345,273.583s-1.184,9.729-1.52,20.388a8.766,8.766,0,0,1-2.92,0v-.693s-1.881-6.469-1.449-10.438a29.592,29.592,0,0,1-.667-14.17,36.167,36.167,0,0,1,1.846-6.656l1.254-.115,4.129-.378A12.133,12.133,0,0,1,528.345,273.583Z" transform="translate(-517.912 -242.131)" fill="#8b383e"/>
            <path id="Trazado_623119" data-name="Trazado 623119" d="M527.347,263.388s-1.2,5.294-3.875,6.513a36.168,36.168,0,0,1,1.846-6.656l1.254-.115A4.05,4.05,0,0,1,527.347,263.388Z" transform="translate(-519.594 -243.362)" fill="#662c33"/>
            <path id="Trazado_623120" data-name="Trazado 623120" d="M562.272,267.091a2.042,2.042,0,0,1-.5-.853c-.315-1.1-1.17-3.521-1.5-4.444l.228,0A26.426,26.426,0,0,1,562.272,267.091Z" transform="translate(-547.751 -242.337)" fill="#662c33"/>
            <path id="Trazado_623121" data-name="Trazado 623121" d="M550.867,277.472a6.714,6.714,0,0,0-.77,2.612c-.19-.582-.383-1.2-.566-1.813a49.579,49.579,0,0,0,.681-6.678,57.486,57.486,0,0,0-.484-9.268l.333-.085s1.82,6.49.153,10.952a7.444,7.444,0,0,0,1.458-2.344S552.176,275.367,550.867,277.472Z" transform="translate(-539.533 -242.681)" fill="#662c33"/>
            <g id="Grupo_889149" data-name="Grupo 889149" transform="translate(21.393 19.413)">
              <path id="Trazado_623122" data-name="Trazado 623122" d="M600.685,261.618l-1.248.378c-1.25.375-1.117.558-1.358,1.219-.227.618.856,1.156,1.362,1.255.427.087,1.2.884,1.568.86.15-.009.076-.116-.2-.335a2.55,2.55,0,0,1-.525-.6c.422-.176,1.488.872,1.911.615.205-.126-1.472-.758-1.489-1.037,0,0,.147-.079.995.165.487.14.987.288,1.1.167.2-.221-.867-.336-1.945-.91,0,0,.549.057,1.054.144.461.082.883.206.9,0,.014-.171-.708-.279-1.166-.365a5.2,5.2,0,0,1-1.735-.645,1.875,1.875,0,0,1-.212-.143C600.939,261.891,600.685,261.618,600.685,261.618Z" transform="translate(-598.048 -261.618)" fill="#ff8b66"/>
              <path id="Trazado_623123" data-name="Trazado 623123" d="M602.887,264.869a1.187,1.187,0,0,1-.672.616.71.71,0,0,0,.884-.474A1.877,1.877,0,0,1,602.887,264.869Z" transform="translate(-601.236 -264.105)" fill="#ef6e4b"/>
            </g>
            <path id="Trazado_623124" data-name="Trazado 623124" d="M550.375,221.2c2.08.554,2.432,1.8,4.605,8.72a7.743,7.743,0,0,1,2.466.542,37.332,37.332,0,0,0,5.1,1.117l-.349.97s-6.967.037-7.927-.449-3.218-6.239-3.218-6.239Z" transform="translate(-540.179 -211.283)" fill="#ff8b66"/>
            <path id="Trazado_623125" data-name="Trazado 623125" d="M519.225,229.122c5.045,1.141,7.024-.431,7.024-.431,3-5.125-2.444-9.495-2.444-9.495s-.038-.014-.108-.038c-.688-.23-4.5-1.4-7,.2a3.962,3.962,0,0,0-.472.35C513.543,222.007,519.225,229.122,519.225,229.122Z" transform="translate(-513.501 -209.238)" fill="#8bbddb"/>
            <g id="Grupo_889153" data-name="Grupo 889153" transform="translate(2.86)">
              <path id="Trazado_623126" data-name="Trazado 623126" d="M526.514,189.143a10.093,10.093,0,0,0-6.433.471s-3.275-7.987,2.4-7.9S527.023,187.72,526.514,189.143Z" transform="translate(-519.141 -181.067)" fill="#ffb878"/>
              <path id="Trazado_623127" data-name="Trazado 623127" d="M523.911,183.308s3.857-1.291,4.634,1.424.071,5.58-1.739,5.388C524.258,189.851,520.915,184.836,523.911,183.308Z" transform="translate(-521.886 -182.054)" fill="#ff8b66"/>
              <path id="Trazado_623132" data-name="Trazado 623132" d="M523.713,189.358a4.4,4.4,0,0,0-.837,2.585s-.647-.793-.986-.1,1.017,1.7,1.017,1.7-2.183.123-2.439-2.7C520.36,189.645,521.9,188.559,523.713,189.358Z" transform="translate(-520.152 -186.708)" fill="#ffb878"/>
              <path id="Trazado_623133" data-name="Trazado 623133" d="M529.678,205.439c.3.8,1.43,2.178,2.632,1.783,0,0-.3,1.188.2,1.621,0,0,.528.92-.674,1.051a2.639,2.639,0,0,1-2.34-1.051,4.355,4.355,0,0,0-.245-3.257A.262.262,0,0,0,529.678,205.439Z" transform="translate(-526.875 -199.222)" fill="#ef6e4b"/>
              <path id="Trazado_623139" data-name="Trazado 623139" d="M525.249,180.834s.583,3.061-1.814,3.371c0,0-.856-1.455-1.987-.437,0,0-1.208-3.32,1.637-3.851,0,0,.553-1.272,2.768-.868,3.093.565,3.954,4.3,2.231,8C528.084,187.045,529.6,180.4,525.249,180.834Z" transform="translate(-520.711 -178.969)" fill="#ffb878"/>
            </g>
            <path id="Trazado_623140" data-name="Trazado 623140" d="M520.585,219.355c.324.179.709.369,1.163.571,8.258,3.695,6.318.233,6.318.233a1.277,1.277,0,0,0-.233-.7,1.757,1.757,0,0,0-.251-.3c-.674-.225-4.348-1.351-6.84.1C520.688,219.29,520.637,219.322,520.585,219.355Z" transform="translate(-517.386 -209.238)" fill="#ef6e4b"/>
            <path id="Trazado_623141" data-name="Trazado 623141" d="M520.585,221.737c.324.178.709.369,1.163.571,8.258,3.695,6.318.233,6.318.233a1.277,1.277,0,0,0-.233-.7,9.938,9.938,0,0,1-1.116.465l-.131.507-.7-.456a18.449,18.449,0,0,1-5.139-.716C520.688,221.671,520.637,221.7,520.585,221.737Z" transform="translate(-517.386 -211.62)" fill="#ff8b66"/>
            <path id="Trazado_623142" data-name="Trazado 623142" d="M544.895,250.425l-1.248.378c-1.25.376-1.116.558-1.358,1.219-.227.618.856,1.156,1.362,1.256.427.087,1.2.884,1.568.86.15-.01.076-.116-.2-.335a2.554,2.554,0,0,1-.525-.6c.422-.177,1.488.871,1.911.614.205-.126-1.472-.758-1.489-1.037,0,0,.147-.078.995.166.487.139.987.288,1.1.167.2-.221-.867-.336-1.945-.91,0,0,.549.057,1.054.144.461.082.883.206.9,0,.015-.171-.708-.279-1.166-.365a5.211,5.211,0,0,1-1.735-.644,1.826,1.826,0,0,1-.212-.143C545.149,250.7,544.895,250.425,544.895,250.425Z" transform="translate(-533.968 -233.642)" fill="#ff8b66"/>
            <path id="Trazado_623143" data-name="Trazado 623143" d="M509.474,223.95c1.292-.84,2.288,1.822,2.115,3.579-.078.792-2.115,6.553-2.115,6.553l6.1-3.139.373.959s-2.871,2.031-4.594,3.489-3.562,1.473-4.189,1,.391-4.862.744-6.663S508.722,224.439,509.474,223.95Z" transform="translate(-506.966 -213.263)" fill="#ff8b66"/>
          </g>
          <g id="Grupo_889155" data-name="Grupo 889155" transform="translate(78.391 38.557)">
            <ellipse id="Elipse_6046" data-name="Elipse 6046" cx="7.708" cy="6.772" rx="7.708" ry="6.772" fill="#d2e1f1"/>
            <path id="Trazado_623144" data-name="Trazado 623144" d="M396.469,132l-4.17.61a11.137,11.137,0,0,0,6.49,5.222S396.054,135.153,396.469,132Z" transform="translate(-385.076 -121.341)" fill="#d2e1f1"/>
          </g>
          <g id="Grupo_889156" data-name="Grupo 889156" transform="translate(67.175 52.032)">
            <ellipse id="Elipse_6047" data-name="Elipse 6047" cx="6.173" cy="5.423" rx="6.173" ry="5.423" fill="#b0c0d2"/>
            <path id="Trazado_623145" data-name="Trazado 623145" d="M321.461,180.332l3.34.489A8.92,8.92,0,0,1,319.6,185S321.794,182.854,321.461,180.332Z" transform="translate(-318.239 -171.792)" fill="#b0c0d2"/>
          </g>
          <g id="Grupo_889157" data-name="Grupo 889157" transform="translate(28.266 17.396)">
            <ellipse id="Elipse_6048" data-name="Elipse 6048" cx="6.871" cy="6.036" rx="6.871" ry="6.036" fill="#dee4f0"/>
            <path id="Trazado_623146" data-name="Trazado 623146" d="M179.272,190.25l-3.717.544a9.927,9.927,0,0,0,5.786,4.655S178.9,193.058,179.272,190.25Z" transform="translate(-169.116 -180.745)" fill="#dee4f0"/>
          </g>
          <g id="Grupo_889158" data-name="Grupo 889158" transform="translate(15.754 4.972)">
            <ellipse id="Elipse_6049" data-name="Elipse 6049" cx="7.708" cy="6.772" rx="7.708" ry="6.772" transform="translate(0)" fill="#d2e1f1"/>
            <path id="Trazado_623147" data-name="Trazado 623147" d="M104.441,142.286l4.17.61a11.136,11.136,0,0,1-6.49,5.222S104.856,145.435,104.441,142.286Z" transform="translate(-100.418 -131.623)" fill="#d2e1f1"/>
          </g>
          <g id="Grupo_889159" data-name="Grupo 889159" transform="translate(124.427 -6)">
            <ellipse id="Elipse_6050" data-name="Elipse 6050" cx="7.708" cy="6.772" rx="7.708" ry="6.772" fill="#dee4f0"/>
            <path id="Trazado_623148" data-name="Trazado 623148" d="M622.269,121.117l-4.17.61a11.136,11.136,0,0,0,6.49,5.222S621.854,124.266,622.269,121.117Z" transform="translate(-610.876 -110.454)" fill="#dee4f0"/>
          </g>
          <g id="Grupo_889160" data-name="Grupo 889160" transform="translate(114.965 7.918)">
            <ellipse id="Elipse_6051" data-name="Elipse 6051" cx="9.126" cy="6.486" rx="9.126" ry="6.486" fill="#b0c0d2"/>
            <path id="Trazado_623149" data-name="Trazado 623149" d="M566.541,182.579l3.994.585a10.667,10.667,0,0,1-6.217,5S566.939,185.6,566.541,182.579Z" transform="translate(-560.266 -171.398)" fill="#b0c0d2"/>
          </g>
        </g>
      </g>
    </g>
  </g>
</svg>
