<svg xmlns="http://www.w3.org/2000/svg" xmlns:xlink="http://www.w3.org/1999/xlink" width="173" height="173" viewBox="0 0 173 173">
  <defs>
    <clipPath id="clip-path">
      <circle id="Elipse_6266" data-name="Elipse 6266" cx="86.5" cy="86.5" r="86.5" transform="translate(1093 993.148)" fill="#fff" stroke="#707070" stroke-width="1"/>
    </clipPath>
  </defs>
  <g id="Grupo_898334" data-name="Grupo 898334" transform="translate(-1066 -985)">
    <circle id="Elipse_6260" data-name="Elipse 6260" cx="84.5" cy="84.5" r="84.5" transform="translate(1067 985)" fill="#fff"/>
    <g id="Enmascarar_grupo_243" data-name="Enmascarar grupo 243" transform="translate(-27 -8.148)" clip-path="url(#clip-path)">
      <g id="Grupo_898286" data-name="Grupo 898286" transform="translate(1026.972 982.593)">
        <g id="Grupo_894063" data-name="Grupo 894063" transform="translate(35.602 28.293)">
          <g id="Grupo_894007" data-name="Grupo 894007" transform="translate(199.063 40.967)">
            <path id="Trazado_649465" data-name="Trazado 649465" d="M2451.249,820.209s8.064-16.441,12.573-14.982S2451.249,820.209,2451.249,820.209Z" transform="translate(-2445.449 -805.136)" fill="#cde0fb"/>
            <path id="Trazado_649466" data-name="Trazado 649466" d="M2396.445,883.509s19.316-18.934,26.823-15.481-4.576,7.156-9.184,8.164S2396.445,883.509,2396.445,883.509Z" transform="translate(-2396.445 -860.997)" fill="#cde0fb"/>
          </g>
          <path id="Trazado_649467" data-name="Trazado 649467" d="M2387.374,1301.3c6.9-4.533.345-16.536.345-16.536s-16.1-4.333-17.24-6.754,14.486,1.017,14.486,1.017c-1.13-5.046-11.21-15.544-11.21-15.544s-15.2,5.857-15.714,3.229,13.725-4.5,13.725-4.5c-2.971-4.267-9.941-6.875-9.941-6.875-10.8-2.574-13.551,11.43-13.551,11.43a26.484,26.484,0,0,1-12.55.62h0a19.222,19.222,0,0,0-3.562-.5l.423,1.29c.38-.008.753,0,1.116.022h.022c.229.023.554.057.951.1h0c.9.141,1.559.221,2.025.254h0c2.81.387,6.524,1.054,7.558,1.972a2.633,2.633,0,0,1,.5-.47l-.5.47c-4.009,3.76-1.178,15.062,2.1,20.8s4.135,2.488,5.865-1.748-1.288-10.934-.855-13.347,2.519.223,3.547,4.428-2.4,7.6-.86,14.434,15.659,7.8,15.659,7.8c-2.919-4.109-3.085-13.141-1.61-13.973s5.3,11.367,6.392,13.1S2380.474,1305.831,2387.374,1301.3Z" transform="translate(-2139.902 -1166.448)" fill="#cde0fb"/>
          <g id="Grupo_894008" data-name="Grupo 894008" transform="translate(0 55.446)">
            <path id="Trazado_649468" data-name="Trazado 649468" d="M652.355,960.973s-10.171-20.737-15.859-18.9S652.355,960.973,652.355,960.973Z" transform="translate(-622.811 -941.961)" fill="#dfebfd"/>
            <path id="Trazado_649469" data-name="Trazado 649469" d="M552.107,1040.813s-24.364-23.881-33.831-19.526,5.771,9.025,11.583,10.3S552.107,1040.813,552.107,1040.813Z" transform="translate(-515.249 -1012.418)" fill="#dfebfd"/>
          </g>
          <g id="Grupo_894010" data-name="Grupo 894010" transform="translate(23.86 26.474)">
            <path id="Trazado_649471" data-name="Trazado 649471" d="M829.776,789.385h-85.67a3.375,3.375,0,0,1-3.37-3.379V671.55a3.374,3.374,0,0,1,3.5-3.377l88.913,4.1V786.006A3.374,3.374,0,0,1,829.776,789.385Z" transform="translate(-740.736 -668.171)" fill="#ee4e5d"/>
            <path id="Trazado_649472" data-name="Trazado 649472" d="M1617.4,789.385h85.67a3.375,3.375,0,0,0,3.37-3.379V671.55a3.374,3.374,0,0,0-3.5-3.377l-88.914,4.1V786.006A3.375,3.375,0,0,0,1617.4,789.385Z" transform="translate(-1521.621 -668.171)" fill="#ee4e5d"/>
            <path id="Trazado_649473" data-name="Trazado 649473" d="M773.32,715.11l-2.778,2.257a1.7,1.7,0,0,0-.621,1.317V829.646a1.663,1.663,0,0,0,1.643,1.681h6.916a1.665,1.665,0,0,0,1.64-1.783Z" transform="translate(-766.833 -710.143)" fill="#aec3ff"/>
            <path id="Trazado_649474" data-name="Trazado 649474" d="M2370.136,715.11l2.778,2.257a1.694,1.694,0,0,1,.621,1.317V829.646a1.662,1.662,0,0,1-1.643,1.681h-6.916a1.665,1.665,0,0,1-1.64-1.783Z" transform="translate(-2191.635 -710.143)" fill="#aec3ff"/>
            <path id="Trazado_649475" data-name="Trazado 649475" d="M876.146,824.056h-80.6a3.219,3.219,0,0,1-3.17-3.265V710.21a3.214,3.214,0,0,1,3.289-3.262l70.357,2.719a14.046,14.046,0,0,1,13.3,14.218v96.907A3.218,3.218,0,0,1,876.146,824.056Z" transform="translate(-786.907 -702.842)" fill="#fff7f0"/>
            <path id="Trazado_649476" data-name="Trazado 649476" d="M1616.941,823.969h81.126a2.954,2.954,0,0,0,2.91-3V709.844a2.95,2.95,0,0,0-3.019-2.994l-72.121,2.787a12.469,12.469,0,0,0-11.806,12.622v98.714A2.954,2.954,0,0,0,1616.941,823.969Z" transform="translate(-1521.621 -702.755)" fill="#fff7f0"/>
            <g id="Grupo_894009" data-name="Grupo 894009" transform="translate(92.191 26.113)">
              <rect id="Rectángulo_297001" data-name="Rectángulo 297001" width="0.437" height="71.803" fill="#f9dec7"/>
            </g>
          </g>
          <g id="Grupo_894014" data-name="Grupo 894014" transform="translate(135.276)">
            <g id="Grupo_894011" data-name="Grupo 894011">
              <path id="Trazado_649477" data-name="Trazado 649477" d="M1968.9,803.172a.578.578,0,0,1,.1.619l0,0a3.849,3.849,0,0,1-1.224,1.324c-.074.059-.139.112-.2.161l-.044.039-.034.03c-.537.489-.337.6-1.3,1.595-1.1,1.13-1.855,1.146-2.069,1.04-.18-.089.192-.691.6-1.366l.06-.1c.055-.09.11-.181.164-.271.484-.813.364-1.2.259-2.413-.085-.988-1.5-5.527-1.5-5.527l2.1-.346s.606,3.611,1.3,4.171c.37.3.786.305,1.142.527l.074.048A2.755,2.755,0,0,1,1968.9,803.172Z" transform="translate(-1945.721 -757.753)" fill="#ffb27d"/>
              <path id="Trazado_649478" data-name="Trazado 649478" d="M1971.963,842.876a.578.578,0,0,1,.1.619,0,0,0,0,1,0,0,4.449,4.449,0,0,1-1.226,1.32c-.073.059-.137.114-.194.165l-.044.039-.034.03c-.538.488-.338.6-1.3,1.595-1.1,1.13-1.855,1.146-2.068,1.04-.181-.09.192-.691.6-1.366a4.658,4.658,0,0,0,1.96-1.423c.665-.836,1.111-1.913,1.564-2.535l.074.048A2.748,2.748,0,0,1,1971.963,842.876Z" transform="translate(-1948.784 -797.457)" fill="#233862"/>
              <path id="Trazado_649479" data-name="Trazado 649479" d="M1799.929,795.51c-.134.646-1.056.532-2.084.273s-.786.042-2.251-.131-1.906-.723-1.949-.941c-.038-.194.687-.257,1.464-.341l.294-.033a6.351,6.351,0,0,0,2.326-1.125,9.309,9.309,0,0,0,1.9-2.222l2.01.173s-1.067,1.6-1.48,2.29a2.429,2.429,0,0,0-.207,1.369A2.578,2.578,0,0,1,1799.929,795.51Z" transform="translate(-1793.643 -751.519)" fill="#ffb27d"/>
              <path id="Trazado_649480" data-name="Trazado 649480" d="M1797.845,824.347c-1.029-.259-.786.042-2.251-.131s-1.906-.723-1.949-.941c-.038-.194.687-.257,1.464-.341l.007.015a4.133,4.133,0,0,0,2.1.668c.995.031,2.051-.246,2.738-.23a2.578,2.578,0,0,1-.021.688C1799.8,824.72,1798.874,824.606,1797.845,824.347Z" transform="translate(-1793.643 -780.083)" fill="#233862"/>
              <path id="Trazado_649481" data-name="Trazado 649481" d="M1933.568,696.586s-.14.091-.349.206a4.678,4.678,0,0,1-.916.4,3.717,3.717,0,0,1-.943.123c-.218,0-.362-.013-.362-.013l-2.409-6.624-.435-1.2-.463-1.274-.161-.443-.785-2.157s1.917-4.915,3.872-2.572a4.755,4.755,0,0,1,.669,1.21c.143.347.278.739.407,1.164.1.319.19.656.28,1.007.243.954.459,2.008.647,3.066C1933.25,693.013,1933.568,696.586,1933.568,696.586Z" transform="translate(-1912.66 -654.42)" fill="#233862"/>
              <path id="Trazado_649482" data-name="Trazado 649482" d="M1868.147,637.91l-9.766.411a20.624,20.624,0,0,1-5.172-2.182l-.286-.142a5.849,5.849,0,0,0-.826-.375c-.743-.155-1.125,1.056-1.754,2.545-.129.3-.266.617-.421.934a4.768,4.768,0,0,1-.595.857c-.052.062-.1.126-.161.192a96.066,96.066,0,0,1-7.725,7.225l-.171,0a5.624,5.624,0,0,1-1.462-.177,2.236,2.236,0,0,1-.474-.246,1.076,1.076,0,0,1-.225-.2s6.658-13.018,10.105-16.564h0c.05-.052.1-.1.148-.147a2.811,2.811,0,0,1,.989-.7c1.175-.369,8.772.043,8.772.043l.243-.394.406-.029.07,0,.338-.025h0l.467-.033.694-.049,1.878-.133.3-.021,3.472-.247s.158.357.372.949c.084.231.176.5.27.792C1868.254,632.124,1869.057,635.611,1868.147,637.91Z" transform="translate(-1834.298 -606.173)" fill="#222b5a"/>
              <path id="Trazado_649483" data-name="Trazado 649483" d="M2026.024,427.312c-1.735-1.481-2.972-1.847-3.145-4.192-.093-1.273-1.8-5.483-4.693-5.115a4.323,4.323,0,0,1-.728.043,2.7,2.7,0,0,0-1.469.369c-1.391.815-3.954,8.348-2.227,11a1.917,1.917,0,0,0,1.378.886l.223.125h0c.311.175.652.366,1.014.571,2.042,1.152,4.716,2.674,6.086,3.444h0l.233.132.4.221c.161.088.254.137.261.137a5.963,5.963,0,0,0,.848.238,3.233,3.233,0,0,0,2.325-.215,3.7,3.7,0,0,0,.736-.638C2028.656,432.759,2029.022,429.871,2026.024,427.312Z" transform="translate(-1989.953 -417.983)" fill="#12263f"/>
              <path id="Trazado_649484" data-name="Trazado 649484" d="M2050.522,486.579a3.588,3.588,0,0,0,2.236.085,3.99,3.99,0,0,0,1.49-1.759c-.386-.021-.807-.361-1.117-2.575l-.165.058-2.768.974s.194.887.317,1.732C2050.62,485.8,2050.674,486.48,2050.522,486.579Z" transform="translate(-2023.051 -475.52)" fill="#ffb27d"/>
              <path id="Trazado_649485" data-name="Trazado 649485" d="M2050.2,483.848s.118.622.282,1.51a3.224,3.224,0,0,0,2.486-2.484Z" transform="translate(-2023.051 -476.007)" fill="#ed975d"/>
              <path id="Trazado_649486" data-name="Trazado 649486" d="M2030.139,444.293s3.781-.48,3.445-2.83-.073-3.994-2.5-3.787-2.768,1.171-2.847,1.982S2029.146,444.358,2030.139,444.293Z" transform="translate(-2003.407 -435.577)" fill="#ffb27d"/>
              <path id="Trazado_649487" data-name="Trazado 649487" d="M2029.659,436.595s2.4,2.1,4.047,2.28a3.154,3.154,0,0,0,2.27-.344,6.424,6.424,0,0,1-1.538-2.115,1.157,1.157,0,0,0-.948-.688C2032.316,435.618,2030.09,435.556,2029.659,436.595Z" transform="translate(-2004.684 -433.799)" fill="#12263f"/>
              <path id="Trazado_649488" data-name="Trazado 649488" d="M2027.387,438.875a5.956,5.956,0,0,0-1.073,1.355,4.576,4.576,0,0,0-.141,2.43s-1.243-2.46-.521-3.645A1.007,1.007,0,0,1,2027.387,438.875Z" transform="translate(-2000.9 -436.254)" fill="#12263f"/>
              <path id="Trazado_649489" data-name="Trazado 649489" d="M2022.825,513.11c.06,7.646-.011,6.048.82,6.78a3.214,3.214,0,0,0,1.511.339c2.344.172,6.468-.185,6.627-.617.551-1.5.173-1.964.64-4.256.049-.244.109-.508.179-.795.387-1.574.757-2.107-.559-4.649a19.78,19.78,0,0,0-2.552-4.107c-3.206,1.873-3.453.278-3.453.278S2022.795,509.381,2022.825,513.11Z" transform="translate(-1998.573 -496.51)" fill="#0f7d70"/>
              <path id="Trazado_649490" data-name="Trazado 649490" d="M1949.15,722s-.14.091-.349.207a4.7,4.7,0,0,1-.917.4,3.723,3.723,0,0,1-.943.123c-.218,0-.362-.013-.362-.013l-2.409-6.624.706-1.2,1.806-3.066.593-1.007c.1.319.19.656.28,1.007.244.954.459,2.008.647,3.066C1948.832,718.425,1949.15,722,1949.15,722Z" transform="translate(-1928.242 -679.833)" fill="#2b478b"/>
              <path id="Trazado_649491" data-name="Trazado 649491" d="M1999.029,508.441s-3.29.534-3.686,1.946-2.725,9.712-2.725,9.712,1.668.312,2.445-.455,2.736-7.14,2.736-7.14Z" transform="translate(-1971.563 -498.869)" fill="#13756a"/>
              <path id="Trazado_649492" data-name="Trazado 649492" d="M2044.858,573.98c2.343.172,6.468-.185,6.627-.617.551-1.5.173-1.964.641-4.256l-1.109-3.192s.162,3.547-.89,4.472-4.294,1.77-4.808,2.546A2.853,2.853,0,0,0,2044.858,573.98Z" transform="translate(-2018.276 -550.261)" fill="#0f7d70"/>
              <path id="Trazado_649493" data-name="Trazado 649493" d="M2035.681,625.051a9.836,9.836,0,0,0-2.684-.329,5.429,5.429,0,0,0-1.408,1.2c-.116.259.832-.192,1.14-.272a2.733,2.733,0,0,1,.981.222,3.266,3.266,0,0,0,1.76.189Z" transform="translate(-2006.402 -602.805)" fill="#ffb27d"/>
              <path id="Trazado_649494" data-name="Trazado 649494" d="M2068.79,505.8s3.1.213,4.169,1.72c1.5,2.122,4.437,11.139,2.708,12.326-1.948,1.337-8.821.291-8.821.291a2.793,2.793,0,0,1,.1-1.587c.322-.516,5.505-1.315,5.746-1.553s-2.954-4.681-2.949-5.4S2068.79,505.8,2068.79,505.8Z" transform="translate(-2037.87 -496.511)" fill="#179587"/>
              <path id="Trazado_649495" data-name="Trazado 649495" d="M2036.185,631.188a4.46,4.46,0,0,1-.649.7.473.473,0,0,1-.262.054l.331-.586Z" transform="translate(-2009.705 -608.627)" fill="#ffb27d"/>
              <path id="Trazado_649496" data-name="Trazado 649496" d="M2033.031,625.112l-1.414.674a.252.252,0,0,0,.233.092,3.37,3.37,0,0,0,.612-.164Z" transform="translate(-2006.435 -603.194)" fill="#ffb27d"/>
            </g>
            <g id="Grupo_894013" data-name="Grupo 894013" transform="translate(11.692 15.476)">
              <g id="Grupo_894012" data-name="Grupo 894012">
                <path id="Trazado_649497" data-name="Trazado 649497" d="M1918.579,572.678l-11.146-.079-3.294-8.361,11.128.079Z" transform="translate(-1904.139 -564.238)" fill="#afafaf"/>
                <path id="Trazado_649498" data-name="Trazado 649498" d="M1934.055,640.176l14.718.1,0,.325-14.587-.1Z" transform="translate(-1930.889 -632.14)" fill="#afafaf"/>
              </g>
              <path id="Trazado_649499" data-name="Trazado 649499" d="M1961.962,599.584a.386.386,0,0,1,.382-.528.76.76,0,0,1,.679.536.386.386,0,0,1-.382.528A.761.761,0,0,1,1961.962,599.584Z" transform="translate(-1955.825 -595.372)" fill="#636363"/>
            </g>
          </g>
          <g id="Grupo_894031" data-name="Grupo 894031" transform="translate(154.707 84.871)">
            <g id="Grupo_894027" data-name="Grupo 894027" transform="translate(24.764 9.674)">
              <path id="Trazado_649505" data-name="Trazado 649505" d="M2325.777,1468.736a11.457,11.457,0,0,1,.522,2.164,7.819,7.819,0,0,1-.665,2.131c-.257.353-.383-1.435-.586-1.7s-.041.673-.185.76-.441-.693-.57-.968.314-1.29.315-2S2325.777,1468.736,2325.777,1468.736Z" transform="translate(-2312.316 -1452.028)" fill="#ffb27d"/>
              <path id="Trazado_649506" data-name="Trazado 649506" d="M2211.311,1314.173a2.5,2.5,0,0,1,3.768-2.354l.1.066c2.594,1.669,8.191,9.46,8.576,10.24s1.522,6.989,1.522,6.989-1.4.514-2.062-.02c0,0-2.278-5.888-2.615-6.182s-9.114-5.219-9.188-7.065C2211.4,1315.359,2211.358,1314.772,2211.311,1314.173Z" transform="translate(-2211.303 -1311.458)" fill="#233862"/>
            </g>
            <g id="Grupo_894028" data-name="Grupo 894028" transform="translate(0 8.684)">
              <rect id="Rectángulo_297010" data-name="Rectángulo 297010" width="2.32" height="11.672" transform="matrix(-0.329, -0.944, 0.944, -0.329, 2.944, 6.475)" fill="#f1b62b"/>
              <path id="Trazado_649507" data-name="Trazado 649507" d="M1977.274,1344.577l2.944.2-.763-2.192Z" transform="translate(-1977.274 -1338.305)" fill="#f9ddbf"/>
              <path id="Rectángulo_297011" data-name="Rectángulo 297011" d="M0,0H2.32a0,0,0,0,1,0,0V.231A1.126,1.126,0,0,1,1.195,1.357h0A1.195,1.195,0,0,1,0,.162V0A0,0,0,0,1,0,0Z" transform="matrix(-0.329, -0.944, 0.944, -0.329, 13.967, 2.637)" fill="#f9ddbf"/>
            </g>
            <g id="Grupo_894029" data-name="Grupo 894029" transform="translate(21.457 27.74)">
              <path id="Trazado_649508" data-name="Trazado 649508" d="M2327.37,1764.208s1.046.955.842,1.632-1.148,1.13-1.276,1.959-.637,1.281-1.1,1.281h-2.189s-.338-.583.479-.759,1.124-1.15,1.073-2.054a15.85,15.85,0,0,1,.076-2.11l1.735-.4Z" transform="translate(-2308.393 -1733.961)" fill="#1f4075"/>
              <path id="Trazado_649509" data-name="Trazado 649509" d="M2186.192,1784.252s.188,2.172-.271,2.4l-5.876-.012s0-.678.944-.829,2.6-.7,2.882-1.934S2186.192,1784.252,2186.192,1784.252Z" transform="translate(-2180.045 -1751.537)" fill="#1f4075"/>
              <path id="Trazado_649510" data-name="Trazado 649510" d="M2191.257,1496.95s.31,3.807.674,8.384c.495,6.217,1.09,13.853,1.149,15.3.1,2.512.511,6.531.511,6.531a3.241,3.241,0,0,0,2.907.552,64.83,64.83,0,0,0,2.221-11.805c.008-.1.016-.2.024-.3.459-6.178,1.173-19.189,1.173-19.189Z" transform="translate(-2190.071 -1494.915)" fill="#f99746"/>
              <path id="Trazado_649511" data-name="Trazado 649511" d="M2191.257,1496.95s.31,3.807.674,8.384l6.788,10.577c.008-.1.016-.2.024-.3.459-6.178,1.173-19.189,1.173-19.189Z" transform="translate(-2190.071 -1494.915)" fill="#ef7e29"/>
              <path id="Trazado_649512" data-name="Trazado 649512" d="M2204.632,1484.668s5.586,13.788,9.259,20.269,4.821,8.288,4.821,8.288,2.1-.829,2.3-1.394c0,0-1.4-12.51-3.865-15.559-1.389-1.723-3.022-6.894-3.1-8.7s-.5-5.387-.5-5.387Z" transform="translate(-2202.031 -1482.182)" fill="#f99746"/>
            </g>
            <path id="Trazado_649513" data-name="Trazado 649513" d="M2200,1271.84s-3.742,1.9-5.935,1.265a5.148,5.148,0,0,1,1.451-1.209c-.084-.436-.15-.814-.19-1.135a10.45,10.45,0,0,1-.115-1.161l1.435-1.176,1.361-1.125A5.571,5.571,0,0,0,2200,1271.84Z" transform="translate(-2171.125 -1262.297)" fill="#ffb27d"/>
            <path id="Trazado_649514" data-name="Trazado 649514" d="M2187.768,1319.114a15.429,15.429,0,0,1-4.616,1.989,36.646,36.646,0,0,1-5.214.454.339.339,0,0,1-.237-.06c-.063-.033-.422-2.442-.781-5.482-.016-.122-.033-.246-.039-.37l-.005-.041c-.14-1.188-.261-2.437-.368-3.689-.086-.974-.157-1.937-.207-2.841-.062-1.132-.088-2.172-.062-3.027.011-.391.034-.742.069-1.047a7.452,7.452,0,0,1,1.858-3.99l.662-.753a3.632,3.632,0,0,0,2.29-.584c.808-.532,1.684-1.163,1.848-1.067,1.239.678,2.244,2.492,2.964,4.811a26.444,26.444,0,0,1,.933,4.454c.066.5.121,1.009.163,1.517.008.094.015.188.022.281.1,1.39.256,2.693.432,3.857.237,1.569.507,2.884.7,3.81.1.472.168.836.212,1.1C2188.427,1318.661,2187.971,1318.987,2187.768,1319.114Z" transform="translate(-2155.175 -1290.283)" fill="#222b5a"/>
            <path id="Trazado_649515" data-name="Trazado 649515" d="M2207.74,1277.983a5.009,5.009,0,0,1-2.729,2.283,10.684,10.684,0,0,1-.115-1.162l1.435-1.176Z" transform="translate(-2180.809 -1271.802)" fill="#ed985f"/>
            <path id="Trazado_649516" data-name="Trazado 649516" d="M2192.2,1238.814s3.616.518,3.911-1.7.959-3.653-1.337-4.078-2.859.366-3.141,1.084S2191.271,1238.622,2192.2,1238.814Z" transform="translate(-2168.784 -1231.55)" fill="#ffb27d"/>
            <path id="Trazado_649517" data-name="Trazado 649517" d="M2187.024,1221.2c.032-.038.107-.07.274-.083a.677.677,0,0,0-.315-.082.846.846,0,0,0-.576-.736.505.505,0,0,1,.251.359c-.475-.469-1.48-.8-4.238-.524-3.635.359-2.389,2.667-1.912,2.935s1.648-.517,2.528-.465,1.072,1.318,1.373,1.486.178-.137.577-.328.451.477.343.913.458,1,.458,1l.548-.614a6.27,6.27,0,0,0,.76-3.717C2187.072,1221.3,2187.049,1221.249,2187.024,1221.2Z" transform="translate(-2158.469 -1220.035)" fill="#2c3a64"/>
            <path id="Trazado_649518" data-name="Trazado 649518" d="M2182.583,1369.208a16.367,16.367,0,0,1-6.282,2.828c-.062-1.132-.088-2.171-.062-3.027Z" transform="translate(-2155.175 -1353.246)" fill="#233862"/>
            <g id="Grupo_894030" data-name="Grupo 894030" transform="translate(5.341 10.448)">
              <path id="Trazado_649519" data-name="Trazado 649519" d="M2031.088,1325.8c-.048-.052-.67-2.13-1.745-1.979-.7.1-1.848.505-1.543,1.429a11.319,11.319,0,0,0,2.257,1.615Z" transform="translate(-2027.749 -1323.282)" fill="#222b5a"/>
              <path id="Trazado_649520" data-name="Trazado 649520" d="M2068.543,1319.806a2.5,2.5,0,0,1-.262,4.435l-.115.048c-2.863,1.148-11.381,1.276-13.314,1.064-2.1-.23-6.58-2.8-6.58-2.8s.394-1.443,1.21-1.67a49.649,49.649,0,0,0,6.555,1.447c1.152.066,9.531-4.409,11.08-3.4C2067.526,1319.189,2068.027,1319.5,2068.543,1319.806Z" transform="translate(-2046.1 -1318.775)" fill="#222b5a"/>
            </g>
          </g>
          <g id="Grupo_894041" data-name="Grupo 894041" transform="translate(121.457 35.496)">
            <g id="Grupo_894033" data-name="Grupo 894033" transform="translate(0 82.64)" opacity="0.57">
              <path id="Trazado_649521" data-name="Trazado 649521" d="M1682.431,1553.775l-19.379.953v-19.379l19.379-.953Z" transform="translate(-1663.052 -1534.396)" fill="#ee4e5d"/>
              <g id="Grupo_894032" data-name="Grupo 894032" transform="translate(1.456 4.274)">
                <path id="Trazado_649522" data-name="Trazado 649522" d="M1676.807,1615.353l5.724-10.6,4.209,5.534,2.1-2.4,4.454,6.658Z" transform="translate(-1676.807 -1601.581)" fill="#fff7f0"/>
                <path id="Trazado_649523" data-name="Trazado 649523" d="M1756.679,1576.339a1.573,1.573,0,0,1,1.481-1.554,1.4,1.4,0,0,1,1.482,1.408,1.573,1.573,0,0,1-1.482,1.554A1.4,1.4,0,0,1,1756.679,1576.339Z" transform="translate(-1748.227 -1574.783)" fill="#fff7f0"/>
              </g>
            </g>
            <g id="Grupo_894035" data-name="Grupo 894035" transform="translate(49.048)" opacity="0.57">
              <path id="Trazado_649524" data-name="Trazado 649524" d="M2154.486,781.346l-27.918,1.372V754.8l27.918-1.372Z" transform="translate(-2126.568 -753.427)" fill="#ee4e5d"/>
              <g id="Grupo_894034" data-name="Grupo 894034" transform="translate(2.097 6.157)">
                <path id="Trazado_649525" data-name="Trazado 649525" d="M2146.384,870.058l8.247-15.273,6.063,7.973,3.028-3.458,6.417,9.591Z" transform="translate(-2146.384 -850.217)" fill="#fff7f0"/>
                <path id="Trazado_649526" data-name="Trazado 649526" d="M2261.452,813.852a2.266,2.266,0,0,1,2.134-2.239,2.013,2.013,0,0,1,2.135,2.029,2.266,2.266,0,0,1-2.135,2.239A2.012,2.012,0,0,1,2261.452,813.852Z" transform="translate(-2249.276 -811.61)" fill="#fff7f0"/>
              </g>
            </g>
            <g id="Grupo_894036" data-name="Grupo 894036" transform="translate(0 47.393)">
              <path id="Trazado_649527" data-name="Trazado 649527" d="M1690.353,1202.892l-27.3,1.342v-1.59l27.3-1.341Z" transform="translate(-1663.052 -1201.302)" fill="#ee4e5d"/>
              <path id="Trazado_649528" data-name="Trazado 649528" d="M1677.688,1245.912l-14.636.72v-.8l14.636-.719Z" transform="translate(-1663.052 -1240.481)" fill="#ee4e5d"/>
              <path id="Trazado_649529" data-name="Trazado 649529" d="M1673.4,1272.9l-10.346.508v-.8l10.346-.508Z" transform="translate(-1663.052 -1264.617)" fill="#ee4e5d"/>
              <path id="Trazado_649530" data-name="Trazado 649530" d="M1790.156,1267.166l-10.346.509v-.8l10.346-.508Z" transform="translate(-1767.455 -1259.486)" fill="#ee4e5d"/>
              <path id="Trazado_649531" data-name="Trazado 649531" d="M1904.121,1260.626l-12.607.62v-.8l12.607-.619Z" transform="translate(-1867.339 -1253.638)" fill="#ee4e5d"/>
              <path id="Trazado_649532" data-name="Trazado 649532" d="M1672.034,1298.026l-8.982.441v-.8l8.982-.441Z" transform="translate(-1663.052 -1287.08)" fill="#ee4e5d"/>
              <path id="Trazado_649533" data-name="Trazado 649533" d="M1773.4,1293.044l-8.982.441v-.8l8.982-.441Z" transform="translate(-1753.689 -1282.625)" fill="#ee4e5d"/>
              <path id="Trazado_649534" data-name="Trazado 649534" d="M1872.337,1287.366l-10.945.538v-.8l10.945-.538Z" transform="translate(-1840.405 -1277.548)" fill="#ee4e5d"/>
            </g>
            <g id="Grupo_894037" data-name="Grupo 894037" transform="translate(0 29.448)">
              <path id="Trazado_649535" data-name="Trazado 649535" d="M1690.353,1033.309l-27.3,1.342v-1.59l27.3-1.342Z" transform="translate(-1663.052 -1031.719)" fill="#ee4e5d"/>
              <path id="Trazado_649536" data-name="Trazado 649536" d="M1677.688,1076.329l-14.636.719v-.8l14.636-.719Z" transform="translate(-1663.052 -1070.897)" fill="#ee4e5d"/>
              <path id="Trazado_649537" data-name="Trazado 649537" d="M1842.856,1068.211l-14.636.719v-.8l14.636-.719Z" transform="translate(-1810.742 -1063.639)" fill="#ee4e5d"/>
              <path id="Trazado_649538" data-name="Trazado 649538" d="M1673.4,1103.321l-10.346.509v-.8l10.346-.509Z" transform="translate(-1663.052 -1095.033)" fill="#ee4e5d"/>
              <path id="Trazado_649539" data-name="Trazado 649539" d="M1790.156,1097.583l-10.346.508v-.8l10.346-.508Z" transform="translate(-1767.455 -1089.903)" fill="#ee4e5d"/>
              <path id="Trazado_649540" data-name="Trazado 649540" d="M1904.121,1091.043l-12.607.619v-.8l12.607-.62Z" transform="translate(-1867.339 -1084.055)" fill="#ee4e5d"/>
              <path id="Trazado_649541" data-name="Trazado 649541" d="M1672.034,1128.443l-8.982.441v-.795l8.982-.442Z" transform="translate(-1663.052 -1117.497)" fill="#ee4e5d"/>
              <path id="Trazado_649542" data-name="Trazado 649542" d="M1773.4,1123.461l-8.982.442v-.8l8.982-.441Z" transform="translate(-1753.689 -1113.042)" fill="#ee4e5d"/>
              <path id="Trazado_649543" data-name="Trazado 649543" d="M1872.337,1117.783l-10.945.538v-.8l10.945-.538Z" transform="translate(-1840.405 -1107.965)" fill="#ee4e5d"/>
            </g>
            <g id="Grupo_894038" data-name="Grupo 894038" transform="translate(48.891 32.133)">
              <path id="Trazado_649544" data-name="Trazado 649544" d="M2144.289,1058.208l-19.2.944v-1.119l19.2-.944Z" transform="translate(-2125.084 -1057.089)" fill="#ee4e5d"/>
              <path id="Trazado_649545" data-name="Trazado 649545" d="M2135.38,1088.471l-10.3.505v-.559l10.3-.506Z" transform="translate(-2125.084 -1084.65)" fill="#ee4e5d"/>
              <path id="Trazado_649546" data-name="Trazado 649546" d="M2251.568,1082.76l-10.3.506v-.559l10.3-.506Z" transform="translate(-2228.977 -1079.544)" fill="#ee4e5d"/>
              <path id="Trazado_649547" data-name="Trazado 649547" d="M2132.362,1107.459l-7.278.358v-.559l7.278-.358Z" transform="translate(-2125.084 -1101.629)" fill="#ee4e5d"/>
              <path id="Trazado_649548" data-name="Trazado 649548" d="M2214.5,1103.422l-7.278.358v-.559l7.278-.358Z" transform="translate(-2198.528 -1098.019)" fill="#ee4e5d"/>
              <path id="Trazado_649549" data-name="Trazado 649549" d="M2294.667,1098.821l-8.868.436v-.56l8.868-.436Z" transform="translate(-2268.793 -1093.905)" fill="#ee4e5d"/>
              <path id="Trazado_649550" data-name="Trazado 649550" d="M2131.4,1125.13l-6.319.31v-.559l6.319-.311Z" transform="translate(-2125.084 -1117.43)" fill="#ee4e5d"/>
              <path id="Trazado_649551" data-name="Trazado 649551" d="M2202.707,1121.626l-6.319.311v-.559l6.319-.311Z" transform="translate(-2188.843 -1114.297)" fill="#ee4e5d"/>
              <path id="Trazado_649552" data-name="Trazado 649552" d="M2272.308,1117.632l-7.7.378v-.56l7.7-.378Z" transform="translate(-2249.844 -1110.725)" fill="#ee4e5d"/>
            </g>
            <g id="Grupo_894039" data-name="Grupo 894039" transform="translate(0 66.112)">
              <path id="Trazado_649553" data-name="Trazado 649553" d="M1690.353,1379.794l-27.3,1.341v-1.59l27.3-1.342Z" transform="translate(-1663.052 -1378.203)" fill="#ee4e5d"/>
              <path id="Trazado_649554" data-name="Trazado 649554" d="M1677.688,1422.813l-14.636.719v-.8l14.636-.719Z" transform="translate(-1663.052 -1417.381)" fill="#ee4e5d"/>
              <path id="Trazado_649555" data-name="Trazado 649555" d="M1842.856,1414.7l-14.636.719v-.795l14.636-.719Z" transform="translate(-1810.742 -1410.123)" fill="#ee4e5d"/>
              <path id="Trazado_649556" data-name="Trazado 649556" d="M1673.4,1449.806l-10.346.509v-.8l10.346-.508Z" transform="translate(-1663.052 -1441.518)" fill="#ee4e5d"/>
              <path id="Trazado_649557" data-name="Trazado 649557" d="M1790.156,1444.068l-10.346.508v-.8l10.346-.508Z" transform="translate(-1767.455 -1436.387)" fill="#ee4e5d"/>
              <path id="Trazado_649558" data-name="Trazado 649558" d="M1904.121,1437.527l-12.607.62v-.795l12.607-.62Z" transform="translate(-1867.339 -1430.539)" fill="#ee4e5d"/>
              <path id="Trazado_649559" data-name="Trazado 649559" d="M1672.034,1474.927l-8.982.442v-.8l8.982-.441Z" transform="translate(-1663.052 -1463.981)" fill="#ee4e5d"/>
              <path id="Trazado_649560" data-name="Trazado 649560" d="M1773.4,1469.945l-8.982.441v-.8l8.982-.441Z" transform="translate(-1753.689 -1459.526)" fill="#ee4e5d"/>
              <path id="Trazado_649561" data-name="Trazado 649561" d="M1872.337,1464.268l-10.945.538v-.8l10.945-.538Z" transform="translate(-1840.405 -1454.45)" fill="#ee4e5d"/>
            </g>
            <g id="Grupo_894040" data-name="Grupo 894040" transform="translate(24.377 91.048)">
              <path id="Trazado_649562" data-name="Trazado 649562" d="M1914.509,1615.441l-21.087,1.036v-1.59l21.087-1.036Z" transform="translate(-1893.422 -1613.851)" fill="#ee4e5d"/>
              <path id="Trazado_649563" data-name="Trazado 649563" d="M1904.726,1657.121l-11.3.556v-.795l11.3-.556Z" transform="translate(-1893.422 -1651.831)" fill="#ee4e5d"/>
              <path id="Trazado_649564" data-name="Trazado 649564" d="M2032.3,1650.852l-11.3.556v-.795l11.3-.556Z" transform="translate(-2007.498 -1646.226)" fill="#ee4e5d"/>
              <path id="Trazado_649565" data-name="Trazado 649565" d="M1901.413,1683.661l-7.991.392v-.795l7.991-.393Z" transform="translate(-1893.422 -1675.562)" fill="#ee4e5d"/>
              <path id="Trazado_649566" data-name="Trazado 649566" d="M1991.6,1679.229l-7.991.393v-.8l7.991-.393Z" transform="translate(-1974.061 -1671.599)" fill="#ee4e5d"/>
              <path id="Trazado_649567" data-name="Trazado 649567" d="M2079.623,1674.177l-9.737.478v-.8l9.737-.479Z" transform="translate(-2051.213 -1667.082)" fill="#ee4e5d"/>
              <path id="Trazado_649568" data-name="Trazado 649568" d="M1900.359,1708.638l-6.938.341v-.8l6.938-.341Z" transform="translate(-1893.422 -1697.897)" fill="#ee4e5d"/>
              <path id="Trazado_649569" data-name="Trazado 649569" d="M1978.653,1704.79l-6.937.341v-.8l6.937-.341Z" transform="translate(-1963.431 -1694.457)" fill="#ee4e5d"/>
              <path id="Trazado_649570" data-name="Trazado 649570" d="M2055.073,1700.4l-8.454.416v-.8l8.454-.415Z" transform="translate(-2030.408 -1690.535)" fill="#ee4e5d"/>
            </g>
          </g>
          <g id="Grupo_894047" data-name="Grupo 894047" transform="translate(36.537 35.904)" opacity="0.57">
            <g id="Grupo_894043" data-name="Grupo 894043" transform="translate(39.303 5.528)">
              <path id="Trazado_649571" data-name="Trazado 649571" d="M1262.377,841.053l-30.423-1.1V809.525l30.423,1.1Z" transform="translate(-1231.954 -809.525)" fill="#ee4e5d"/>
              <g id="Grupo_894042" data-name="Grupo 894042" transform="translate(2.285 6.743)">
                <path id="Trazado_649572" data-name="Trazado 649572" d="M1253.549,930.823l8.987-15.875,6.607,9.253,3.3-3.487,6.992,11.049Z" transform="translate(-1253.549 -910.536)" fill="#fff7f0"/>
                <path id="Trazado_649573" data-name="Trazado 649573" d="M1378.939,875.491a2.227,2.227,0,0,1,2.325-2.241,2.43,2.43,0,0,1,2.325,2.41,2.226,2.226,0,0,1-2.325,2.241A2.43,2.43,0,0,1,1378.939,875.491Z" transform="translate(-1365.671 -873.248)" fill="#fff7f0"/>
              </g>
            </g>
            <g id="Grupo_894044" data-name="Grupo 894044" transform="translate(38.791 46.471)">
              <path id="Trazado_649574" data-name="Trazado 649574" d="M1254.416,1199.033l-27.3-.991v-1.59l27.3.991Z" transform="translate(-1227.115 -1196.452)" fill="#ee4e5d"/>
              <path id="Trazado_649575" data-name="Trazado 649575" d="M1241.752,1235.712l-14.636-.531v-.795l14.636.531Z" transform="translate(-1227.115 -1230.372)" fill="#ee4e5d"/>
              <path id="Trazado_649576" data-name="Trazado 649576" d="M1237.462,1260.556l-10.346-.375v-.8l10.346.376Z" transform="translate(-1227.115 -1252.727)" fill="#ee4e5d"/>
              <path id="Trazado_649577" data-name="Trazado 649577" d="M1354.22,1264.8l-10.346-.376v-.8l10.346.376Z" transform="translate(-1331.519 -1256.517)" fill="#ee4e5d"/>
              <path id="Trazado_649578" data-name="Trazado 649578" d="M1468.186,1268.933l-12.607-.458v-.8l12.607.458Z" transform="translate(-1431.404 -1260.143)" fill="#ee4e5d"/>
              <path id="Trazado_649579" data-name="Trazado 649579" d="M1236.1,1284.994l-8.982-.326v-.8l8.982.326Z" transform="translate(-1227.115 -1274.622)" fill="#ee4e5d"/>
              <path id="Trazado_649580" data-name="Trazado 649580" d="M1337.462,1288.674l-8.982-.326v-.8l8.982.326Z" transform="translate(-1317.754 -1277.913)" fill="#ee4e5d"/>
              <path id="Trazado_649581" data-name="Trazado 649581" d="M1436.4,1292.267l-10.944-.4v-.8l10.944.4Z" transform="translate(-1404.469 -1281.062)" fill="#ee4e5d"/>
            </g>
            <g id="Grupo_894045" data-name="Grupo 894045" transform="translate(38.791 65.191)">
              <path id="Trazado_649582" data-name="Trazado 649582" d="M1254.416,1375.935l-27.3-.991v-1.59l27.3.991Z" transform="translate(-1227.115 -1373.354)" fill="#ee4e5d"/>
              <path id="Trazado_649583" data-name="Trazado 649583" d="M1241.752,1412.613l-14.636-.531v-.8l14.636.531Z" transform="translate(-1227.115 -1407.273)" fill="#ee4e5d"/>
              <path id="Trazado_649584" data-name="Trazado 649584" d="M1406.92,1418.61l-14.636-.532v-.795l14.636.531Z" transform="translate(-1374.807 -1412.635)" fill="#ee4e5d"/>
              <path id="Trazado_649585" data-name="Trazado 649585" d="M1237.462,1437.458l-10.346-.375v-.8l10.346.375Z" transform="translate(-1227.115 -1429.628)" fill="#ee4e5d"/>
              <path id="Trazado_649586" data-name="Trazado 649586" d="M1354.22,1441.7l-10.346-.375v-.8l10.346.376Z" transform="translate(-1331.519 -1433.417)" fill="#ee4e5d"/>
              <path id="Trazado_649587" data-name="Trazado 649587" d="M1468.186,1445.834l-12.607-.458v-.8l12.607.458Z" transform="translate(-1431.404 -1437.044)" fill="#ee4e5d"/>
              <path id="Trazado_649588" data-name="Trazado 649588" d="M1236.1,1461.9l-8.982-.326v-.8l8.982.326Z" transform="translate(-1227.115 -1451.524)" fill="#ee4e5d"/>
              <path id="Trazado_649589" data-name="Trazado 649589" d="M1337.462,1465.575l-8.982-.326v-.8l8.982.326Z" transform="translate(-1317.754 -1454.814)" fill="#ee4e5d"/>
              <path id="Trazado_649590" data-name="Trazado 649590" d="M1436.4,1469.167l-10.944-.4v-.8l10.944.4Z" transform="translate(-1404.469 -1457.962)" fill="#ee4e5d"/>
            </g>
            <g id="Grupo_894046" data-name="Grupo 894046">
              <path id="Trazado_649591" data-name="Trazado 649591" d="M887.831,759.867l-27.3-.991v-1.59l27.3.991Z" transform="translate(-860.531 -757.286)" fill="#ee4e5d"/>
              <path id="Trazado_649592" data-name="Trazado 649592" d="M875.167,796.546l-14.636-.531v-.8l14.636.531Z" transform="translate(-860.531 -791.205)" fill="#ee4e5d"/>
              <path id="Trazado_649593" data-name="Trazado 649593" d="M1040.335,802.542l-14.636-.531v-.8l14.636.531Z" transform="translate(-1008.222 -796.567)" fill="#ee4e5d"/>
              <path id="Trazado_649594" data-name="Trazado 649594" d="M870.877,821.391l-10.346-.376v-.8l10.346.376Z" transform="translate(-860.531 -813.56)" fill="#ee4e5d"/>
              <path id="Trazado_649595" data-name="Trazado 649595" d="M987.635,825.629l-10.346-.376v-.795l10.346.375Z" transform="translate(-964.934 -817.35)" fill="#ee4e5d"/>
              <path id="Trazado_649596" data-name="Trazado 649596" d="M1101.6,829.766l-12.607-.458v-.8l12.607.458Z" transform="translate(-1064.819 -820.977)" fill="#ee4e5d"/>
              <path id="Trazado_649597" data-name="Trazado 649597" d="M869.513,845.828l-8.982-.326v-.8l8.982.326Z" transform="translate(-860.531 -835.456)" fill="#ee4e5d"/>
              <path id="Trazado_649598" data-name="Trazado 649598" d="M970.877,849.508l-8.982-.326v-.8l8.982.326Z" transform="translate(-951.168 -838.747)" fill="#ee4e5d"/>
              <path id="Trazado_649599" data-name="Trazado 649599" d="M1069.817,853.1l-10.945-.4v-.795l10.945.4Z" transform="translate(-1037.884 -841.895)" fill="#ee4e5d"/>
            </g>
          </g>
          <g id="Grupo_894052" data-name="Grupo 894052" transform="translate(217.5 16.883)">
            <path id="Trazado_649604" data-name="Trazado 649604" d="M2579.559,589.692a6.616,6.616,0,0,1-3.744.271,6.28,6.28,0,1,1,7.628-4.8,6.139,6.139,0,0,1-1.773,3.188l1,1.293-2.054,1.5Zm-1.571-2.123-1.586-2.055,2.058-1.514,1.578,2.177a4.086,4.086,0,0,0,.674-1.594,3.688,3.688,0,0,0-2.807-4.493,3.64,3.64,0,0,0-4.353,2.978,3.688,3.688,0,0,0,2.807,4.493A3.915,3.915,0,0,0,2577.988,587.569Z" transform="translate(-2570.677 -577.532)" fill="#afcdfb"/>
          </g>
          <g id="Grupo_894053" data-name="Grupo 894053" transform="translate(199.063 1.956)">
            <path id="Trazado_649605" data-name="Trazado 649605" d="M2396.445,437.914l2.44-.331,6.64,6.642-1-7.406,2.612-.354,1.63,12.028-2.251.3-6.861-6.857,1.036,7.647-2.612.354Z" transform="translate(-2396.445 -436.466)" fill="#afcdfb"/>
          </g>
          <g id="Grupo_894062" data-name="Grupo 894062" transform="translate(33.89 52.224)">
            <g id="Grupo_894057" data-name="Grupo 894057" transform="translate(0 28.292)">
              <path id="Trazado_649616" data-name="Trazado 649616" d="M870.913,1247.123h0a.92.92,0,0,0,.837-.582l21.521-66.117a.435.435,0,0,0-.456-.59h0a.92.92,0,0,0-.838.582l-21.521,66.117A.435.435,0,0,0,870.913,1247.123Z" transform="translate(-853.085 -1179.734)" fill="#233862"/>
              <path id="Trazado_649617" data-name="Trazado 649617" d="M707.005,1246.165h0a.921.921,0,0,0,.837-.582l21.521-66.117a.435.435,0,0,0-.456-.59h0a.921.921,0,0,0-.837.582l-21.521,66.117A.435.435,0,0,0,707.005,1246.165Z" transform="translate(-706.521 -1178.877)" fill="#233862"/>
              <path id="Trazado_649618" data-name="Trazado 649618" d="M883.721,1262.166l17.417.1a.872.872,0,0,0,.791-.55h0a.411.411,0,0,0-.431-.556l-17.417-.1a.872.872,0,0,0-.791.549h0A.411.411,0,0,0,883.721,1262.166Z" transform="translate(-864.562 -1252.364)" fill="#233862"/>
              <path id="Trazado_649619" data-name="Trazado 649619" d="M848.212,1371.257l17.417.1a.872.872,0,0,0,.791-.55h0a.411.411,0,0,0-.431-.557l-17.417-.1a.872.872,0,0,0-.791.549h0A.411.411,0,0,0,848.212,1371.257Z" transform="translate(-832.811 -1349.911)" fill="#233862"/>
              <path id="Trazado_649620" data-name="Trazado 649620" d="M814.013,1476.326l17.417.1a.872.872,0,0,0,.791-.549h0a.411.411,0,0,0-.431-.557l-17.417-.1a.872.872,0,0,0-.79.549h0A.411.411,0,0,0,814.013,1476.326Z" transform="translate(-802.23 -1443.862)" fill="#233862"/>
              <path id="Trazado_649621" data-name="Trazado 649621" d="M775.512,1594.61l17.417.1a.872.872,0,0,0,.79-.55h0a.411.411,0,0,0-.431-.557l-17.417-.1a.871.871,0,0,0-.791.549h0A.411.411,0,0,0,775.512,1594.61Z" transform="translate(-767.804 -1549.63)" fill="#233862"/>
              <path id="Trazado_649622" data-name="Trazado 649622" d="M735.215,1718.414l17.417.1a.872.872,0,0,0,.791-.55h0a.411.411,0,0,0-.43-.556l-17.417-.1a.872.872,0,0,0-.79.549h0A.411.411,0,0,0,735.215,1718.414Z" transform="translate(-731.77 -1660.333)" fill="#233862"/>
            </g>
            <g id="Grupo_894061" data-name="Grupo 894061" transform="translate(14.89)">
              <path id="Trazado_649623" data-name="Trazado 649623" d="M1043.487,1031.927s.206-.463.339-.683.7-.862.8-.716.485,1.125.279,1.4.014.751-1.012,1.04Z" transform="translate(-1022.72 -1017.916)" fill="#ffb27d"/>
              <path id="Trazado_649624" data-name="Trazado 649624" d="M935.837,1016.29s5.247,4.38,7.293,3.975a40.441,40.441,0,0,0,4.055-1.159l.491,1.256s-2.2,2.987-4.5,3.007a13.077,13.077,0,0,1-6.24-1.554Z" transform="translate(-926.462 -1005.202)" fill="#ef7e29"/>
              <path id="Trazado_649625" data-name="Trazado 649625" d="M848.87,1446.219s.152,2.458.628,2.492c.063,0,2.411,0,2.411,0l3-.017a.973.973,0,0,0-.9-.875,4.063,4.063,0,0,1-2.873-1.926C850.579,1444.68,848.87,1446.219,848.87,1446.219Z" transform="translate(-848.697 -1388.931)" fill="#1c3d72"/>
              <path id="Trazado_649626" data-name="Trazado 649626" d="M847.237,1198.16a6.25,6.25,0,0,0,1.622.3,5.96,5.96,0,0,0,1.515-.216,41.443,41.443,0,0,1,1.115-5.314c.495-1.916,1.2-4.379,2.207-7.44a100.741,100.741,0,0,0,3.7-13.877c0-.025.006-.037.006-.037l-.009,0-8.547-3.753s1.056,11.66-.291,16.135a18.836,18.836,0,0,0-.489,2.144A85.958,85.958,0,0,0,847.237,1198.16Z" transform="translate(-847.237 -1140.701)" fill="#2b478b"/>
              <path id="Trazado_649627" data-name="Trazado 649627" d="M862.581,1192.935c.495-1.916,1.2-4.379,2.207-7.44a100.743,100.743,0,0,0,3.7-13.877c0-.014,0-.027,0-.041l-8.547-3.753s1.056,11.66-.292,16.135C859.46,1184.584,862.581,1192.935,862.581,1192.935Z" transform="translate(-858.328 -1140.701)" fill="#233862"/>
              <path id="Trazado_649628" data-name="Trazado 649628" d="M911.959,1446.219s.152,2.458.628,2.492c.063,0,2.411,0,2.411,0l3-.017a.973.973,0,0,0-.9-.875,4.063,4.063,0,0,1-2.873-1.926C913.668,1444.68,911.959,1446.219,911.959,1446.219Z" transform="translate(-905.11 -1388.931)" fill="#1c3d72"/>
              <path id="Trazado_649629" data-name="Trazado 649629" d="M880.961,1170.42a121.674,121.674,0,0,1-1.2,16.832c-1.307,9.276-.864,13.214-.864,13.214a8.926,8.926,0,0,1-1.261.32,5.719,5.719,0,0,1-1.87-.217s-1.871-9.28-1.335-13.923-2.562-15.933-2.562-15.933Z" transform="translate(-869.266 -1143.023)" fill="#2b478b"/>
              <path id="Trazado_649630" data-name="Trazado 649630" d="M900.479,971.777l1.669,1.094,1.52-.43a3.634,3.634,0,0,0,.356-1.822,11.354,11.354,0,0,0-.06-1.213l-2.251-.994-.84-.37c0,.013.065.69.074.789A5.745,5.745,0,0,1,900.479,971.777Z" transform="translate(-894.845 -962.06)" fill="#ffb27d"/>
              <path id="Trazado_649631" data-name="Trazado 649631" d="M869.1,1017.761c-2.077,2.005-9.936,1.668-10.42-.541s.528-18.806,4.076-19.848c.736-.216,4.672,1.055,4.672,1.055a24.947,24.947,0,0,1,1.022,3.672c.079.4.308,4.642.48,8.609.08,1.856.148,3.652.183,4.968A14.305,14.305,0,0,1,869.1,1017.761Z" transform="translate(-857.372 -988.264)" fill="#f99746"/>
              <path id="Trazado_649632" data-name="Trazado 649632" d="M905.945,971.986c.457.772,2.059,1.448,2.908,1.758a11.337,11.337,0,0,0-.06-1.213l-2.251-.994C906.045,971.53,905.742,971.641,905.945,971.986Z" transform="translate(-899.676 -965.185)" fill="#fca56b"/>
              <path id="Trazado_649633" data-name="Trazado 649633" d="M898.686,929.189s-3.627,1.131-4.3-1.138-1.589-3.652.7-4.47,2.995-.086,3.4.617S899.613,928.836,898.686,929.189Z" transform="translate(-888.719 -921.981)" fill="#ffb27d"/>
              <path id="Trazado_649634" data-name="Trazado 649634" d="M885.013,913.508s-.231,2.641-.777,2.526-1.147-.36-1.067.436-.531,2.161-1.319,2.158c-1.689-.007-3.524-4.341-3.062-5.163C880.122,911.094,886.942,910.615,885.013,913.508Z" transform="translate(-875.385 -911.509)" fill="#163560"/>
              <path id="Trazado_649635" data-name="Trazado 649635" d="M901.862,988.711a16.665,16.665,0,0,0-3.01-1.107c-.31.1-.7,1.05-.7,1.05l4.672,1.056A2.321,2.321,0,0,0,901.862,988.711Z" transform="translate(-892.767 -979.546)" fill="#ef7e29"/>
              <g id="Grupo_894059" data-name="Grupo 894059" transform="translate(9.349 1.673)">
                <path id="Trazado_649636" data-name="Trazado 649636" d="M951.855,1107.572l-14.873,14c-.292.275-.659.362-.817.194l-.5-.533c-.158-.167-.048-.529.243-.8l14.873-14c.292-.275.659-.362.817-.194l.5.533C952.256,1106.936,952.146,1107.3,951.855,1107.572Z" transform="translate(-935.59 -1087.226)" fill="#1f4d84"/>
                <path id="Trazado_649637" data-name="Trazado 649637" d="M943.508,1184.2l-6.526,6.145c-.292.274-.659.362-.817.194l-.5-.533c-.158-.167-.048-.529.243-.8l6.527-6.145Z" transform="translate(-935.59 -1155.993)" fill="#f78248"/>
                <path id="Trazado_649638" data-name="Trazado 649638" d="M1052.714,942.374a11.658,11.658,0,1,0,19.322-11.715c-.06-.06-.121-.119-.183-.176a11.658,11.658,0,0,0-19.139,11.891Zm3.332-10.759a10.738,10.738,0,1,1,.462,15.178A10.725,10.725,0,0,1,1056.046,931.615Z" transform="translate(-1039.868 -927.316)" fill="#1f4d84"/>
                <g id="Grupo_894058" data-name="Grupo 894058" transform="translate(13.26 0.92)" opacity="0.5">
                  <path id="Trazado_649639" data-name="Trazado 649639" d="M1079.46,954.107A10.738,10.738,0,1,1,1079,938.93,10.695,10.695,0,0,1,1079.46,954.107Z" transform="translate(-1060.903 -936.013)" fill="#b3cff9"/>
                </g>
              </g>
              <path id="Trazado_649640" data-name="Trazado 649640" d="M894.617,1055.368c-8.2-5.84-7.514-13.632-7.514-13.632a19.53,19.53,0,0,1,7.331,8.665C894.514,1052.257,894.582,1054.053,894.617,1055.368Z" transform="translate(-882.872 -1027.956)" fill="#ef7e29"/>
              <g id="Grupo_894060" data-name="Grupo 894060" transform="translate(4.06 10.164)">
                <path id="Trazado_649641" data-name="Trazado 649641" d="M1026.372,1139.968a2.232,2.232,0,0,0,1.047-.647s.246.017-.04.543c-.024.044-.077.157-.118.237a.051.051,0,0,0,.043.073,5.443,5.443,0,0,1,1.311.027c.089.018.115.231.111.321a.822.822,0,0,1-.173.56,2.867,2.867,0,0,1-1.036.543,3.137,3.137,0,0,1-1.6-.2l-.525-.243.163-.975.132.028C1025.895,1140.277,1026.154,1140.021,1026.372,1139.968Z" transform="translate(-1010.599 -1125.379)" fill="#f99746"/>
                <path id="Trazado_649642" data-name="Trazado 649642" d="M888.319,1007.563s-7.364,1.4,2.166,12.065c1.524,1.705,9.759,3.926,9.759,3.926s.835-.711.414-1.286c0,0-5.67-4.117-6.917-4.772-.561-.295-2.178-6.571-3.093-8.083A4.124,4.124,0,0,0,888.319,1007.563Z" transform="translate(-885.605 -1007.563)" fill="#f99746"/>
              </g>
              <path id="Trazado_649643" data-name="Trazado 649643" d="M1045.374,1029.985a3.75,3.75,0,0,0,.288-.7,3.883,3.883,0,0,1,.475-1.076c.05-.05.215.015.234.229a1.248,1.248,0,0,1-.118.466,5.243,5.243,0,0,0-.156.926C1045.984,1030.2,1045.374,1029.985,1045.374,1029.985Z" transform="translate(-1024.408 -1015.843)" fill="#ffb27d"/>
            </g>
          </g>
          <g id="Grupo_894020" data-name="Grupo 894020" transform="translate(69.385 141.369)">
            <g id="Grupo_894019" data-name="Grupo 894019">
              <path id="Rectángulo_297002" data-name="Rectángulo 297002" d="M7.649,0H66.832a7.649,7.649,0,0,1,7.649,7.649v0A7.649,7.649,0,0,1,66.832,15.3H7.649A7.649,7.649,0,0,1,0,7.649v0A7.649,7.649,0,0,1,7.649,0Z" transform="translate(74.481 15.309) rotate(-180)" fill="#2b478b"/>
              <path id="Trazado_649500" data-name="Trazado 649500" d="M1219.128,1676.918l-.054,3.343a5.357,5.357,0,0,0,5.27,5.441l39.542.631.011-.666a6.816,6.816,0,0,1-3.673-6.16l.019-1.176a6.815,6.815,0,0,1,3.868-6.039v-.014l-39.542-.632A5.357,5.357,0,0,0,1219.128,1676.918Z" transform="translate(-1177.916 -1671.294)" fill="#f9dec7"/>
              <g id="Grupo_894015" data-name="Grupo 894015" transform="translate(40.556)">
                <path id="Trazado_649501" data-name="Trazado 649501" d="M1259.836,1683.617h-41.658c-2.687,0-4.792-3.362-4.792-7.654s2.1-7.654,4.792-7.654h41.658a.626.626,0,0,1,0,1.253h-41.658c-1.918,0-3.539,2.932-3.539,6.4s1.621,6.4,3.539,6.4h41.658a.626.626,0,0,1,0,1.253Z" transform="translate(-1213.386 -1668.308)" fill="#1b3770"/>
              </g>
              <g id="Grupo_894016" data-name="Grupo 894016" transform="translate(47.206 4.076)">
                <rect id="Rectángulo_297003" data-name="Rectángulo 297003" width="35.825" height="0.099" fill="#e8c2a3"/>
              </g>
              <g id="Grupo_894017" data-name="Grupo 894017" transform="translate(68.922 5.473)">
                <rect id="Rectángulo_297004" data-name="Rectángulo 297004" width="13.6" height="0.09" fill="#e8c2a3"/>
              </g>
              <g id="Grupo_894018" data-name="Grupo 894018" transform="translate(58.797 10.224)">
                <rect id="Rectángulo_297005" data-name="Rectángulo 297005" width="23.725" height="0.09" fill="#e8c2a3"/>
              </g>
            </g>
            <path id="Trazado_649502" data-name="Trazado 649502" d="M1271.448,1707.29a3.889,3.889,0,0,1,2.057,3.366,18.473,18.473,0,0,1,0,3.98l-2.219-1.056-2.24,1.056v-4.059s-.082-3.287-3.14-3.287Z" transform="translate(-1219.793 -1703.165)" fill="#f78248"/>
          </g>
          <g id="Grupo_894026" data-name="Grupo 894026" transform="translate(67.203 129.856)">
            <g id="Grupo_894025" data-name="Grupo 894025" transform="translate(0 0)">
              <rect id="Rectángulo_297006" data-name="Rectángulo 297006" width="55.585" height="11.516" rx="5.758" transform="translate(55.585 11.523) rotate(180)" fill="#179587"/>
              <path id="Trazado_649503" data-name="Trazado 649503" d="M1099.819,1565.979l-.04,2.513a4.013,4.013,0,0,0,3.933,4.09l29.51.475.008-.5a5.127,5.127,0,0,1-2.742-4.63l.014-.884a5.127,5.127,0,0,1,2.887-4.54v-.01l-29.51-.475A4.011,4.011,0,0,0,1099.819,1565.979Z" transform="translate(-1069.063 -1561.751)" fill="#f9dec7"/>
              <g id="Grupo_894021" data-name="Grupo 894021" transform="translate(30.267)">
                <path id="Trazado_649504" data-name="Trazado 649504" d="M1130.2,1571.012H1099.11c-2.005,0-3.576-2.527-3.576-5.754s1.571-5.754,3.576-5.754H1130.2a.471.471,0,0,1,0,.942H1099.11c-1.432,0-2.641,2.2-2.641,4.812s1.209,4.812,2.641,4.812H1130.2a.471.471,0,0,1,0,.942Z" transform="translate(-1095.534 -1559.505)" fill="#127268"/>
              </g>
              <g id="Grupo_894022" data-name="Grupo 894022" transform="translate(39.518 3.067)">
                <rect id="Rectángulo_297007" data-name="Rectángulo 297007" width="22.448" height="0.068" fill="#e8c2a3"/>
              </g>
              <g id="Grupo_894023" data-name="Grupo 894023" transform="translate(51.437 4.114)">
                <rect id="Rectángulo_297008" data-name="Rectángulo 297008" width="10.15" height="0.068" fill="#e8c2a3"/>
              </g>
              <g id="Grupo_894024" data-name="Grupo 894024" transform="translate(43.881 7.685)">
                <rect id="Rectángulo_297009" data-name="Rectángulo 297009" width="17.706" height="0.068" fill="#e8c2a3"/>
              </g>
            </g>
          </g>
        </g>
      </g>
    </g>
  </g>
</svg>
