<svg xmlns="http://www.w3.org/2000/svg" xmlns:xlink="http://www.w3.org/1999/xlink" width="169" height="173" viewBox="0 0 169 173">
  <defs>
    <clipPath id="clip-path">
      <ellipse id="Elipse_6269" data-name="Elipse 6269" cx="84.5" cy="86.5" rx="84.5" ry="86.5" transform="translate(385.672 2139.574)" fill="#fff" stroke="#707070" stroke-width="1"/>
    </clipPath>
    <clipPath id="clip-path-2">
      <rect id="Rectángulo_297401" data-name="Rectángulo 297401" width="244" height="196" transform="translate(0 -17.616)" fill="#fff" stroke="#707070" stroke-width="1"/>
    </clipPath>
  </defs>
  <g id="Grupo_898338" data-name="Grupo 898338" transform="translate(-369 -2136)">
    <circle id="Elipse_6260" data-name="Elipse 6260" cx="84.5" cy="84.5" r="84.5" transform="translate(369 2137)" fill="#fff"/>
    <g id="Enmascarar_grupo_246" data-name="Enmascarar grupo 246" transform="translate(-16.672 -3.574)" clip-path="url(#clip-path)">
      <g id="Enmascarar_grupo_239" data-name="Enmascarar grupo 239" transform="translate(348.672 2157.19)" clip-path="url(#clip-path-2)">
        <g id="Grupo_898290" data-name="Grupo 898290" transform="translate(0.77 -35.904)">
          <g id="Rectángulo_297413" data-name="Rectángulo 297413" transform="translate(48.23 154.287)" fill="#fff" stroke="#707070" stroke-width="1">
            <rect width="146" height="2" stroke="none"/>
            <rect x="0.5" y="0.5" width="145" height="1" fill="none"/>
          </g>
          <g id="_8" data-name="8" transform="translate(12.069 16.068)">
            <rect id="Rectángulo_297398" data-name="Rectángulo 297398" width="89.178" height="218.643" transform="translate(218.643 0) rotate(90)" fill="#afafaf"/>
            <rect id="Rectángulo_297399" data-name="Rectángulo 297399" width="213.04" height="83.457" transform="translate(2.802 2.861)" fill="#e8e8e8"/>
            <path id="Trazado_664633" data-name="Trazado 664633" d="M201.986,734c-6.365,3.294-12.932,8.522-18.234,13.28h-24.5v-17.4a63.952,63.952,0,0,1,28.707-15.754C212.141,708.03,216.148,726.673,201.986,734Z" transform="translate(-156.448 -660.966)" fill="#f6f6f6"/>
            <path id="Trazado_664634" data-name="Trazado 664634" d="M974.786,377.89c-1.076,7.442-.45,15.653-2.506,25.537-1.713,8.237-13.628,21.673-27.65,3.553-7.1-9.18-7.618-20.18-6.087-29.09Z" transform="translate(-862.334 -375.029)" fill="#f6f6f6"/>
            <path id="Trazado_664635" data-name="Trazado 664635" d="M1714.6,628.641H1669.11a70.6,70.6,0,0,0,13.468-25.719c6.866-25.221,25.427-25.221,29.879-13.827C1716.207,598.692,1715.579,613.678,1714.6,628.641Z" transform="translate(-1525.322 -542.323)" fill="#f6f6f6"/>
            <path id="Trazado_664636" data-name="Trazado 664636" d="M341.1,452.092c-5.692.194-8.441,3.506-8.011,5.745.572,2.973,4.434,4.669,10.871,1.336S349.678,451.8,341.1,452.092Z" transform="translate(-314.012 -442.143)" fill="#839cea"/>
            <path id="Trazado_664638" data-name="Trazado 664638" d="M1379.521,453.544c1.667-5.561-.509-9.291-2.723-9.6-2.94-.412-5.763,2.769-4.765,10.068S1377.008,461.929,1379.521,453.544Z" transform="translate(-1255.8 -434.752)" fill="#f6f6f6"/>
            <path id="Trazado_664639" data-name="Trazado 664639" d="M742.648,753.267c-2.961.629-.286,7-.572,10.427s3.576,6.921,7.009,2.544S746.654,752.416,742.648,753.267Z" transform="translate(-684.094 -702.926)" fill="#f6f6f6"/>
            <path id="Trazado_664640" data-name="Trazado 664640" d="M2198.611,674.8c-2.961.629-.286,7-.572,10.427s3.576,6.921,7.009,2.544S2202.616,673.95,2198.611,674.8Z" transform="translate(-2004.104 -634.195)" fill="#839cea"/>
            <path id="Trazado_664641" data-name="Trazado 664641" d="M1576.833,921.461c-1.635-2.6-6.505,2.233-9.739,3.186s-5.049,5.887.183,7.594S1579.045,924.976,1576.833,921.461Z" transform="translate(-1430.011 -848.933)" fill="#f6f6f6"/>
            <path id="Trazado_664642" data-name="Trazado 664642" d="M312.137,564.845c.392,3.874,4.36,3.741,5.538,1.531S311.723,560.758,312.137,564.845Z" transform="translate(-295.043 -537.183)" fill="#839cea"/>
            <path id="Trazado_664643" data-name="Trazado 664643" d="M980.147,738.249c.392,3.874,4.36,3.741,5.538,1.531S979.733,734.162,980.147,738.249Z" transform="translate(-900.677 -689.823)" fill="#f6f6f6"/>
            <path id="Trazado_664644" data-name="Trazado 664644" d="M1340.867,644.613a3.032,3.032,0,0,0,.383-5.846C1338.9,638.021,1337.024,645.829,1340.867,644.613Z" transform="translate(-1225.73 -603.78)" fill="#f6f6f6"/>
            <path id="Trazado_664645" data-name="Trazado 664645" d="M2149.294,583.783c1.51-3.576-2.017-5.439-4.1-4.1S2147.7,587.556,2149.294,583.783Z" transform="translate(-1956.466 -551.485)" fill="#839cea"/>
            <path id="Trazado_664646" data-name="Trazado 664646" d="M681.663,941.666a3.032,3.032,0,0,0,.383-5.846C679.694,935.074,677.82,942.882,681.663,941.666Z" transform="translate(-628.081 -862.563)" fill="#f6f6f6"/>
          </g>
          <g id="_7" data-name="7" transform="translate(0 113.338)">
            <rect id="Rectángulo_297400" data-name="Rectángulo 297400" width="242.78" height="38.775" transform="translate(0 2.595)" fill="#e8e8e8"/>
            <g id="Rectángulo_297412" data-name="Rectángulo 297412" transform="translate(32.23 0.95)" fill="#636363" stroke="#707070" stroke-width="1">
              <rect width="179" height="3" stroke="none"/>
              <rect x="0.5" y="0.5" width="178" height="2" fill="none"/>
            </g>
          </g>
          <g id="_6" data-name="6" transform="translate(0 0.047)">
            <path id="Trazado_664649" data-name="Trazado 664649" d="M1027.942.086s25.4,24.4,52.057-.086Z" transform="translate(-931.956)" fill="#4065a8"/>
            <path id="Trazado_664651" data-name="Trazado 664651" d="M1978.835,0V82.3c-20.58-10.694-51.784-34.291-63.976-82.3Z" transform="translate(-1736.055)" fill="#245084"/>
            <path id="Trazado_664653" data-name="Trazado 664653" d="M63.976,0C51.784,48.009,20.58,71.607,0,82.3V0Z" fill="#245084"/>
          </g>
          <g id="_4" data-name="4" transform="translate(5.88 144.514)">
            <path id="Trazado_664659" data-name="Trazado 664659" d="M465.915,1542.332a2.218,2.218,0,0,0-1.849-.518,0,0,0,0,0,0,0v0l0,0c.037-.329.062-.68.075-1.04l.007,0c0-.245.008-.487.009-.734,3.525-.6,5.864-5.491,3.262-7.873-.3-1.14.384-1.241.639-2.15.245-1.053-.4-1.123-1.187-2.036-.891-.952-.085-1.688-.8-2.771a1.432,1.432,0,0,0-1.909-.407c-1.109-2.354-2.554-.252-5.01-1.176a2.225,2.225,0,0,0-2.686,2.008c-.611,1.817-2.936.38-2.233,4.512,0,.563-1.738,1.3-1.4,2.642s1.442,1.136,1.653,2-.436,2.337.537,2.822a2.67,2.67,0,0,0,2.684-.228c-.025-.053-.048-.1-.071-.157a7.138,7.138,0,0,0,1.392,1.85h0a4.753,4.753,0,0,0,.4.3s0,0,0,0a4.453,4.453,0,0,0,.438.258,11.781,11.781,0,0,1-.093,2.357c-.426-.276-1.6.246-1.577.3a19.428,19.428,0,0,0-10.415,7.468,4.71,4.71,0,0,0-4.684,4.759v10.682h0v3.8h36.888l-.008-3.791h0C480.141,1559.475,477.354,1546.029,465.915,1542.332Z" transform="translate(-407.594 -1522.748)" fill="#afafaf"/>
            <path id="Trazado_664660" data-name="Trazado 664660" d="M1300.07,1558.216a26.567,26.567,0,0,0-1.383-3.047l.021,0a24.841,24.841,0,0,0-1.787-2.928l-.052.008a23.861,23.861,0,0,0-2.482-2.931l.046-.006a17.466,17.466,0,0,0-9.7-5.113c0-.006-.008-.016-.013-.023a1.672,1.672,0,0,0-1.009-1.754v-.844c2.165-.774,3.853-2.8,3.491-6.087,1.828-.652,1.211-4.148-.752-3.3,1.813-6.4-.657-6.88-4.8-7.43-1.562-.6-3.368-1.819-5.1-.26a2.882,2.882,0,0,0,.039,4.181,11.022,11.022,0,0,0,.172,3.522c-2.025-.9-2.613,2.758-.7,3.313a5.289,5.289,0,0,0,3.664,6.155v.766a1.811,1.811,0,0,0-1.134,1.762,13.9,13.9,0,0,0-7.028,2.638h-.018a18.592,18.592,0,0,0-3.3,2.865l.069.008a23.677,23.677,0,0,0-2.354,3.027l-.026,0a25.008,25.008,0,0,0-3.622,9.163h0a19.127,19.127,0,0,0-.441,3.456h0v3.8h39.76C1301.684,1565.677,1301.476,1561.435,1300.07,1558.216Z" transform="translate(-1149.919 -1522.907)" fill="#afafaf"/>
            <path id="Trazado_664661" data-name="Trazado 664661" d="M96.656,1549.95h0a15.536,15.536,0,0,0-2.326-7.449h0a14.765,14.765,0,0,0-1.378-1.832h0A17.425,17.425,0,0,0,89.2,1537.5h0a24.527,24.527,0,0,0-3.771-1.936c.758-1.2.1-2.7,1.778-3.211,2.576-.779,5.917-5.652,2.862-8.5-2.975-2.312-4.059-9.7-8.406-6.987-4.259-3.5-8.142-1.435-11.364,4.8-3.669,5.37-9.4,10.838-2.654,13.738,2.366.42,1.322,2.36,1.844,3.846q-.284.228-.559.465l0,0a20.091,20.091,0,0,0-1.65,1.6h0a18.98,18.98,0,0,0-2.855,3.989h0a17.508,17.508,0,0,0-.957,2.146h0c-1.149,3.172.077,10.153.077,10.153v3.8H95.958l-.044-3.791A46.448,46.448,0,0,0,96.656,1549.95Z" transform="translate(-62.972 -1515.158)" fill="#afafaf"/>
            <path id="Trazado_664662" data-name="Trazado 664662" d="M2189.618,1535.864c1.155-.182,1.942-.462,1.988-.819.167-1.289-.588-1.963-.228-2.769a5.724,5.724,0,0,0,0-3.183c-.24-.92-1.082-1.964-.743-3.149a5.254,5.254,0,0,0,.117-3.457c-.382-1.063-1.646-1.726-1.838-2.783-1.013-4.171-6.039-5.565-9.348-3.959-4.758-1.411-4.635,2.873-6.55,5.82-1.514,1.612-2.374,4.091-1.7,5.768.737,2.616-4.431,6.214,1.889,7.327-.116.092-.181.148-.181.148v0c-8.641,6.9-10.117,22.809-10.006,26.522h33.334v-3.8C2201.247,1550.163,2196.738,1540.385,2189.618,1535.864Z" transform="translate(-1966.924 -1515.097)" fill="#afafaf"/>
            <path id="Trazado_664663" data-name="Trazado 664663" d="M890.927,1542.336h-.933c1.547-5.461-3.469-9.5-2.44-15.846,2.587-6.238-5.232-14.662-10.59-9.534h0a6.824,6.824,0,0,0-1.143,1.785c-.023.007-.85.272-.411.693-2.695,1.062-4.515,3.983-4.934,7.056-1,4.279,3.664,7.59.382,10.32a3.172,3.172,0,0,0,2.895-1.212q.165,1.163.374,2.306c-2.32.683-5.445,1.916-7.2,3.8-4.206,4.423-6.581,12.938-6.379,19.879h35.044v-14.487A4.711,4.711,0,0,0,890.927,1542.336Zm-15.338-22.957c-.057.016-.113.033-.169.052.023-.009.083-.031.173-.062A.039.039,0,0,0,875.589,1519.379Z" transform="translate(-786.059 -1515.345)" fill="#afafaf"/>
            <path id="Trazado_664664" data-name="Trazado 664664" d="M1751.985,1557.906v-.047a18.084,18.084,0,0,0-2.907-1.217l.01-.017a2.066,2.066,0,0,0-2.19-.577V1554.9c2.7-.319,6.538-.676,8.467-1.974l0,0h0c.933-.632.862-2.56-.009-3.95-1.738-2.477-1.388-3.719-2.351-5.9-1.707-3.361-6.657-5.929-9.239-2.788,0-.012,0-.026.006-.037-1.561-1.289-4.431.091-5.727,2.825-1.528,2.981-1.111,6.515-3.616,9.468-1.114,1.579,7.4,2.463,8.655,2.456v.969a2.657,2.657,0,0,0-2.19.681c-10.973,3.358-17.093,16.691-11.025,22.388h0v3.8h30.259l.079-3.791C1765.24,1573.231,1759.613,1560.627,1751.985,1557.906Z" transform="translate(-1572.053 -1536.602)" fill="#afafaf"/>
          </g>
          <g id="_3" data-name="3" transform="translate(0 149.279)">
            <path id="Trazado_664665" data-name="Trazado 664665" d="M1546.293,1604.269V1614H1509.41c.081-8.806,5.678-20.668,15.906-22.426a0,0,0,0,1,0,0v0l0,0c-.037-.33-.062-.68-.076-1.04l-.006,0c0-.246-.007-.487-.009-.734-3.525-.6-5.864-5.491-3.261-7.873.425-1.283-1.143-1.847-.578-3.017.2-.358.633-.6,1.126-1.169.892-.953.085-1.688.8-2.771a1.432,1.432,0,0,1,1.909-.407c1.108-2.354,2.555-.253,5.01-1.176a2.225,2.225,0,0,1,2.686,2.008c.876,1.843,2.984.75,2.233,4.511,0,.563,1.739,1.3,1.4,2.642s-1.443,1.137-1.654,2,.436,2.337-.537,2.822a2.671,2.671,0,0,1-2.684-.229c.025-.054.047-.1.071-.157a7.125,7.125,0,0,1-1.392,1.851h0a4.744,4.744,0,0,1-.395.3s0,0,0,0a4.442,4.442,0,0,1-.439.258,11.918,11.918,0,0,0,.094,2.356c.427-.276,1.6.247,1.577.3a19.308,19.308,0,0,1,10.415,7.468A4.71,4.71,0,0,1,1546.293,1604.269Z" transform="translate(-1368.466 -1572.532)" fill="#636363"/>
            <path id="Trazado_664666" data-name="Trazado 664666" d="M283.626,1624.065a8.55,8.55,0,0,1-1.481,3.795H250.32c-3.809-7,2-17.563,8.919-20.188v-.047a18.54,18.54,0,0,1,2.908-1.217l-.01-.017a2.062,2.062,0,0,1,2.189-.577v-1.143c-2.7-.32-6.538-.676-8.467-1.974l0,0h0c-.9-.613-.866-2.439-.071-3.817h0c1.78-2.482,1.473-3.9,2.471-6.108,1.67-3.242,6.624-5.864,9.2-2.711,0-.012,0-.025-.007-.036,1.546-1.277,4.377.065,5.689,2.747,1.572,3,1.128,6.566,3.654,9.546,1.115,1.579-7.4,2.463-8.654,2.456v.969a2.656,2.656,0,0,1,2.19.681C278.61,1608.938,284.869,1617.95,283.626,1624.065Z" transform="translate(-225.85 -1586.388)" fill="#636363"/>
            <path id="Trazado_664667" data-name="Trazado 664667" d="M700.257,1614.162H660.63a25.252,25.252,0,0,1,2.865-9.229l-.021,0a24.855,24.855,0,0,1,1.787-2.928l.052.009a23.8,23.8,0,0,1,2.482-2.932l-.047-.007a17.478,17.478,0,0,1,9.7-5.113c0-.007.008-.015.013-.023a1.671,1.671,0,0,1,1.008-1.753v-.845c-2.165-.774-3.853-2.8-3.491-6.087-1.828-.652-1.211-4.148.752-3.3-1.476-4.795-.462-7.106,4.8-7.431,1.561-.6,3.368-1.818,5.1-.26a2.88,2.88,0,0,1-.039,4.18,11.012,11.012,0,0,1-.171,3.522c2.025-.9,2.613,2.758.7,3.313a5.288,5.288,0,0,1-3.663,6.155v.767a1.809,1.809,0,0,1,1.134,1.761,13.868,13.868,0,0,1,7.028,2.638h.018a18.653,18.653,0,0,1,3.3,2.865l-.069.008a23.7,23.7,0,0,1,2.353,3.028l.026,0a24.986,24.986,0,0,1,3.622,9.163h0A17.407,17.407,0,0,1,700.257,1614.162Z" transform="translate(-598.942 -1572.69)" fill="#636363"/>
            <path id="Trazado_664668" data-name="Trazado 664668" d="M1978.375,1618.806H1938.85a25.407,25.407,0,0,1,2.81-8.739l-.021,0a24.917,24.917,0,0,1,1.787-2.929l.052.009a23.773,23.773,0,0,1,2.482-2.931l-.047-.007a17.454,17.454,0,0,1,9.7-5.113c0-.007.008-.015.013-.023a1.672,1.672,0,0,1,1.008-1.755v-.844c-2.165-.774-3.853-2.8-3.492-6.087-1.827-.652-1.211-4.147.753-3.3-1.446-4.768-.541-7.084,4.8-7.43,1.561-.6,3.368-1.819,5.1-.26a2.881,2.881,0,0,1-.039,4.181,11.016,11.016,0,0,1-.171,3.521c2.025-.9,2.613,2.759.7,3.314a5.289,5.289,0,0,1-3.663,6.155v.766a1.811,1.811,0,0,1,1.134,1.762,13.883,13.883,0,0,1,7.029,2.638h.018a18.626,18.626,0,0,1,3.3,2.864l-.069.008a23.625,23.625,0,0,1,2.353,3.027l.026,0a24.98,24.98,0,0,1,3.622,9.164h0A17.162,17.162,0,0,1,1978.375,1618.806Z" transform="translate(-1757.806 -1577.334)" fill="#636363"/>
            <path id="Trazado_664669" data-name="Trazado 664669" d="M2434.014,1569.36v41.063h-16.5a26.732,26.732,0,0,1-.553-6.7h0a15.531,15.531,0,0,1,2.327-7.45h0a14.746,14.746,0,0,1,1.378-1.832h0a17.422,17.422,0,0,1,3.755-3.169h0a24.442,24.442,0,0,1,3.771-1.936c-.758-1.2-.1-2.7-1.778-3.212-2.576-.778-5.917-5.653-2.862-8.5,2.963-2.3,4.078-9.719,8.406-6.987A8.282,8.282,0,0,1,2434.014,1569.36Z" transform="translate(-2191.234 -1568.951)" fill="#636363"/>
            <path id="Trazado_664670" data-name="Trazado 664670" d="M1144.492,1602.745c-1.647-7.81-5.594-13.622-12.616-15.138.138-.761.263-1.534.374-2.305.684,1.294,2.94,1.284,2.895,1.212-1.107-.682-1.728-2.979-.533-4.907,2.335-4.167.456-10.635-4.019-12.469.439-.421-.388-.687-.411-.693-3.588-7.817-13.766-.527-12.039,6.393,2.128,6.794-3.672,10.938-2.135,17.2-8.023-.57-5.068,9.614-5.593,14.5h34.874C1145.057,1605.268,1144.8,1603.995,1144.492,1602.745Zm-13.91-33.611c-.056-.018-.113-.035-.169-.052a.051.051,0,0,0,0-.01C1130.5,1569.1,1130.558,1569.125,1130.582,1569.133Z" transform="translate(-1006.622 -1565.068)" fill="#636363"/>
            <path id="Trazado_664671" data-name="Trazado 664671" d="M19.357,1602.821c-1.677-7.838-5.532-13.581-12.616-15.138.138-.761.264-1.53.374-2.306a3.174,3.174,0,0,0,2.9,1.212c-1.262-.966-1.846-2.686.038-6.2,1.351-4.072-.529-9.52-4.591-11.18.439-.422-.388-.687-.411-.693-1.149-2.54-3.068-3.494-5.047-3.354v41.45H20.144C19.943,1605.562,19.6,1603.842,19.357,1602.821ZM5.274,1569.147c.091.03.15.053.174.062-.056-.018-.113-.035-.17-.052A.044.044,0,0,0,5.274,1569.147Z" transform="translate(0 -1565.144)" fill="#636363"/>
          </g>
          <g id="_2" data-name="2" transform="translate(102.143 45.203)">
            <path id="Trazado_664672" data-name="Trazado 664672" d="M1505.481,732.835l-1.061.28a2.34,2.34,0,0,0,1.061,2.179l.792-.474Z" transform="translate(-1466.077 -708.114)" fill="#f99370"/>
            <path id="Trazado_664673" data-name="Trazado 664673" d="M1281.9,634c-2.719,2.86-8.689,5.06-12.98,3.945a9.074,9.074,0,0,1-5.075-3.247c-1.638-1.966-5.116-11.682-6.277-13.839,10.04,2.636,12.005,13.375,23.184,10.8a2.363,2.363,0,0,0,.22,1.3A2.56,2.56,0,0,0,1281.9,634Z" transform="translate(-1242.279 -606.811)" fill="#e9f4ff"/>
            <path id="Trazado_664674" data-name="Trazado 664674" d="M1445.385,797.98h0l-.019.005Z" transform="translate(-1412.545 -767.047)" fill="#d1e0f2"/>
            <path id="Trazado_664675" data-name="Trazado 664675" d="M1332.522,696.414a10.838,10.838,0,0,1-9.128-1.506l-2.005-9.327c.044.1,2.875,6.468,4.045,8.661C1326.52,696.28,1330.523,696.794,1332.522,696.414Z" transform="translate(-1300.145 -665.365)" fill="#d1e0f2"/>
            <path id="Trazado_664676" data-name="Trazado 664676" d="M1253.026,482.105a1.1,1.1,0,0,1,1.468.314c.551.833-.069,1.4.616,2.132s1.109.866.913,1.565-.721.777-.491,1.654C1255.389,487.745,1250.963,483.058,1253.026,482.105Z" transform="translate(-1237.669 -481.147)" fill="#8c4225"/>
            <path id="Trazado_664677" data-name="Trazado 664677" d="M1219.246,556.817a20.457,20.457,0,0,0-.322-5.508c-.446-2.124-3.745-1.3-3.2.786a19.592,19.592,0,0,1,.212,4.848C1212.845,557.892,1222.153,561.009,1219.246,556.817Z" transform="translate(-1203.963 -542.773)" fill="#f99370"/>
            <path id="Trazado_664678" data-name="Trazado 664678" d="M1167.71,647.218a2.723,2.723,0,0,1-.213.418,2.34,2.34,0,0,1-.214.232,3.115,3.115,0,0,1-.879.573,12.574,12.574,0,0,1-5.431.552c-.773-.04-1.6-.108-2.469-.2a24.343,24.343,0,0,1-6.5-1.22,11.419,11.419,0,0,1-2.834-1.182c-1.907-3.44,4.939-20.337,5.14-23.4-.056-.471.553-1.233.985-1.668a2.009,2.009,0,0,1,.385-.33,6.96,6.96,0,0,0,2.293,1.1c1.365.254,1.033-1.156,1.016-1.229h0c.331.284.743.626,1.19,1.015a23.671,23.671,0,0,1,2.219,2.153,11.31,11.31,0,0,1,1.082,1.42C1166.133,628.993,1169.386,643.159,1167.71,647.218Z" transform="translate(-1143.706 -606.829)" fill="#179587"/>
            <path id="Trazado_664679" data-name="Trazado 664679" d="M1198.477,890.506a2.7,2.7,0,0,1-.213.418,2.333,2.333,0,0,1-.214.232,3.109,3.109,0,0,1-.879.573,12.572,12.572,0,0,1-5.43.552c-.773-.041-1.6-.108-2.47-.2a24.341,24.341,0,0,1-6.5-1.22l.766-1.061A28.908,28.908,0,0,0,1198.477,890.506Z" transform="translate(-1174.473 -850.117)" fill="#103663"/>
            <path id="Trazado_664680" data-name="Trazado 664680" d="M1124.45,637.039a145.936,145.936,0,0,0-2.27,18.058h-7.5c.678-15.315.3-21.859,10.035-32.913a8.708,8.708,0,0,1,.39,1.453C1125.514,625.716,1125.923,630.077,1124.45,637.039Z" transform="translate(-1112.733 -608.013)" fill="#e9f4ff"/>
            <path id="Trazado_664681" data-name="Trazado 664681" d="M1219.371,551.717c.008.058.018.118.032.175a19.264,19.264,0,0,1,.293,3.612,5.653,5.653,0,0,0,3.289.308,20.317,20.317,0,0,0-.426-4.847A1.645,1.645,0,0,0,1219.371,551.717Z" transform="translate(-1207.637 -542.57)" fill="#e57d61"/>
            <path id="Trazado_664682" data-name="Trazado 664682" d="M1203.267,502.787a4.755,4.755,0,0,1-6.139.486h0a7.257,7.257,0,0,1-1.371-7.768c.853-1.994,3.6-3.1,5.319-1.6a7.186,7.186,0,0,1,1.71,2.932,4.485,4.485,0,0,0,.8,1.124C1204.778,499.194,1204.78,501.127,1203.267,502.787Z" transform="translate(-1185.717 -491.338)" fill="#f99370"/>
            <path id="Trazado_664683" data-name="Trazado 664683" d="M1127.989,725.541s-.987,2.926-1.741,4.72-1.482,4.911.584,9.913l-4.133,2.384a33.541,33.541,0,0,1-2.523-3.344s.017-.321.053-.809S1127.989,725.541,1127.989,725.541Z" transform="translate(-1117.72 -701.515)" fill="#d1e0f2"/>
            <path id="Trazado_664684" data-name="Trazado 664684" d="M1105.645,628.629c-1.8,6.009-7.5,8.7-2.98,18.686a3.472,3.472,0,0,1-3.271,1.6,25.657,25.657,0,0,1-3.007-4.013c-6.816-11.387,1.682-21.038,8.577-22.568q.451-.1.891-.153A13.087,13.087,0,0,1,1105.645,628.629Z" transform="translate(-1093.879 -608.01)" fill="#e9f4ff"/>
            <path id="Trazado_664685" data-name="Trazado 664685" d="M1222.9,621.89l-.019.268c-1.039,2.253-4.091.293-4.091.293l-.775-1.124a2,2,0,0,1,.385-.33,6.959,6.959,0,0,0,2.293,1.1c1.365.254,1.033-1.156,1.016-1.229h0C1222.043,621.159,1222.455,621.5,1222.9,621.89Z" transform="translate(-1206.426 -606.829)" fill="#105d54"/>
            <path id="Trazado_664688" data-name="Trazado 664688" d="M1201.838,495.14c-1.323,1.165-2.83-.627-2.857,1.087.025.7-1.223.493-1.37.821s.024.952-.257,1.377a5.24,5.24,0,0,1-1.687.947c.332,1.434.125,2.661,1.682,4.332a3.189,3.189,0,0,1-.3-.228h0c-2.238-2.163-2.745-6.671-.538-8.961A3.29,3.29,0,0,1,1201.838,495.14Z" transform="translate(-1185.634 -491.54)" fill="#e57d61"/>
            <path id="Trazado_664690" data-name="Trazado 664690" d="M1173.953,476.716s.719-.906-.042-1.572-.714-1.665-1.766-1.5a4.719,4.719,0,0,1-2.584-.018,1.712,1.712,0,0,0-2.066,1.545c.044.739-1.489.739-1.718,1.738a4.166,4.166,0,0,0,0,1.732c0,.433-1.337,1-1.076,2.032s1.109.874,1.272,1.536-.336,1.8.412,2.17a2.053,2.053,0,0,0,2.065-.176c-2.042-4.431,1.231-2.413.944-4.9-.224-.966,1.174-.666,1.5-1.166s.092-1.1.7-1.232S1172.6,477.522,1173.953,476.716Z" transform="translate(-1158.057 -473.572)" fill="#8c4225"/>
            <path id="Trazado_664691" data-name="Trazado 664691" d="M1185.242,548.08c.363,1.715,2.414,1.272,2.066-.446C1186.945,545.919,1184.895,546.362,1185.242,548.08Z" transform="translate(-1176.675 -539.59)" fill="#f99370"/>
            <path id="Trazado_664692" data-name="Trazado 664692" d="M1189.366,553.022a.085.085,0,0,1-.081-.061c-.383-1.092.2-1.548.9-1.254a.086.086,0,0,1-.062.161c-.6-.253-1,.13-.678,1.042A.087.087,0,0,1,1189.366,553.022Z" transform="translate(-1180.266 -544.177)" fill="#c16256"/>
            <path id="Trazado_664694" data-name="Trazado 664694" d="M1142.677,877.19c-.163-.008-1.146,0-1.145-.246,0-.1.806-.212.906-.208a3.116,3.116,0,0,0,3.268-1.781c.185-.272.428-.721.594-.737.308.169-.188,1.261-.85,1.931A3.713,3.713,0,0,1,1142.677,877.19Z" transform="translate(-1137.082 -836.016)" fill="#d1e0f2"/>
            <path id="Trazado_664695" data-name="Trazado 664695" d="M1267.8,653.913h-2.826c.115-11.917.591-25.314-7.4-33.038h0c3.948,2.351,6.589,6.439,8.011,10.7C1268.1,639.769,1267.418,643.819,1267.8,653.913Z" transform="translate(-1242.288 -606.829)" fill="#e9f4ff"/>
            <path id="Trazado_664698" data-name="Trazado 664698" d="M1189.449,637.036a145.954,145.954,0,0,0-2.27,18.058h-.81c.478-4.734,1.161-10.679,1.781-15.421.521-4.824,1.356-7.019,1.349-11.044a31.916,31.916,0,0,0-.681-6.3q.451-.1.891-.153h0a8.66,8.66,0,0,1,.39,1.453C1190.513,625.714,1190.923,630.075,1189.449,637.036Z" transform="translate(-1177.733 -608.01)" fill="#d1e0f2"/>
            <path id="Trazado_664699" data-name="Trazado 664699" d="M1265.865,647.869c0,1.423-.018,3.517-.043,6.044h-.849c.115-11.917.591-25.314-7.4-33.038a5.953,5.953,0,0,1,1.431.4c.307.325,1.675,2.294,1.98,2.77C1265.321,629.584,1265.941,642.042,1265.865,647.869Z" transform="translate(-1242.288 -606.829)" fill="#d1e0f2"/>
            <path id="Trazado_664700" data-name="Trazado 664700" d="M1515.656,684.563c.424.175-.333,1.2-.316,1.631a6.99,6.99,0,0,0,1.408-.807q.993-1.114,1.87-2.328c1.386-.648-.933,2.473-1.1,2.783l.01.011a22.355,22.355,0,0,0,2.388-2c1.565-.333-1.7,2.467-1.956,2.728l0,.007a12.88,12.88,0,0,0,2.475-1.627c1.607-.192-1.923,2.388-2.26,2.547v.012a13.037,13.037,0,0,0,2.145-.957c1.495.072-1.828,1.815-2.169,1.945a9.374,9.374,0,0,1-3.219,1.209c-.563.124-1.284-1.347-1.118-1.9a7,7,0,0,1,.682-1.368C1514.669,686,1515.106,684.456,1515.656,684.563Z" transform="translate(-1474.587 -663.003)" fill="#f99370"/>
          </g>
          <g id="_1" data-name="1" transform="translate(94.365 70.689)">
            <path id="Trazado_664702" data-name="Trazado 664702" d="M1087.4,912.473h23.3l3.879-48.376h-31.062Z" transform="translate(-1076.707 -852.346)" fill="#2b1e08"/>
            <path id="Trazado_664703" data-name="Trazado 664703" d="M1290.875,742.923c.11-1.05-1.674-2.652-2.456-1.846-.828.839.943,2.806,1.959,2.477l2.1,2.149v7.109h.788v-7.442Z" transform="translate(-1262.282 -740.858)" fill="#12263f"/>
            <path id="Trazado_664704" data-name="Trazado 664704" d="M1098.98,1334.26H1124.1a1.681,1.681,0,0,0,1.663-1.7c-.043-1.43.444-3.911-1.663-3.965H1098.98c-2.112.065-1.62,2.522-1.663,3.965A1.68,1.68,0,0,0,1098.98,1334.26Z" transform="translate(-1089.199 -1272.555)" fill="#4e3c0a"/>
            <path id="Trazado_664705" data-name="Trazado 664705" d="M1070.413,1369.25h28.974c3.14-.1,2.405-3.746,2.47-5.891a2.5,2.5,0,0,0-2.47-2.523h-28.974c-3.14.1-2.405,3.746-2.47,5.891A2.5,2.5,0,0,0,1070.413,1369.25Z" transform="translate(-1062.558 -1301.72)" fill="#2b1e08"/>
            <path id="Trazado_664706" data-name="Trazado 664706" d="M1054.108,843.734h-42.372c-1.415.013-1.127,1.755-1.14,2.719a1.152,1.152,0,0,0,1.14,1.164h2.326v1.941h37.719v-1.941h2.326a1.153,1.153,0,0,0,1.14-1.164C1055.225,845.5,1055.532,843.738,1054.108,843.734Z" transform="translate(-1010.58 -833.925)" fill="#4e3c0a"/>
          </g>
          <g id="_5" data-name="5" transform="translate(-9.819 -2.072)">
            <path id="Trazado_664654" data-name="Trazado 664654" d="M397.222,191.217l-5.835-5.067S202.038,306.134,202.038,306.8c0,0,0,.007,0,.011h0c.068,3.717,32.9,6.728,73.4,6.728s73.331-3.011,73.4-6.728h0Z" transform="translate(-144.172 -168.012)" fill="#a7e4fb" opacity="0.1"/>
            <path id="Trazado_664655" data-name="Trazado 664655" d="M348.351,1403.94c0,3.266-32.619,5.954-73.1,5.954s-73.207-3.462-73.207-6.728,32.729-5.1,73.207-5.1S348.351,1400.674,348.351,1403.94Z" transform="translate(-183.18 -1268.369)" fill="#fff" opacity="0.1"/>
            <path id="Trazado_664656" data-name="Trazado 664656" d="M319.986,191.217l5.835-5.067S515.169,306.134,515.169,306.8c0,0,0,.007,0,.011h0c-.068,3.717-32.9,6.728-73.4,6.728s-73.331-3.011-73.4-6.728h0Z" transform="translate(-304.107 -172.012)" fill="#92cfcb" opacity="0.1"/>
            <path id="Trazado_664657" data-name="Trazado 664657" d="M843.44,1403.94c0,3.266,32.619,5.954,73.1,5.954s73.207-3.462,73.207-6.728-32.729-5.1-73.207-5.1S843.44,1400.674,843.44,1403.94Z" transform="translate(-764.682 -1268.369)" fill="#fff" opacity="0.1"/>
            <path id="Trazado_664658" data-name="Trazado 664658" d="M242.78,37.882H0v2.382H23.655c-.206,2.361.814,1.626,3.163,1.737v3.422C21.6,48.347,25.366,53.374,28.485,56.6a1.265,1.265,0,0,0,1.98,1.4l6.05-5.177a1.276,1.276,0,0,0-1-2.223c-1.73-2.236-3.776-5.135-6.212-5.6V42c2.355-.113,3.364.627,3.163-1.737H211.276c0,.618-.152,1.754.745,1.737h2.418v3c-2.424.46-4.462,3.333-6.186,5.565A1.277,1.277,0,0,0,207.3,52.8l6.05,5.177a1.264,1.264,0,0,0,1.963-1.444c3.118-3.215,6.792-8.21,1.61-11.109V42h2.418c.891.017.75-1.119.745-1.737H242.78Z" transform="translate(0 -37.882)" fill="#163260"/>
          </g>
          <g id="_5-2" data-name="5" transform="translate(-9.819 32.485)">
            <path id="Trazado_664654-2" data-name="Trazado 664654" d="M397.222,191.217l-5.835-5.067S202.038,306.134,202.038,306.8c0,0,0,.007,0,.011h0c.068,3.717,32.9,6.728,73.4,6.728s73.331-3.011,73.4-6.728h0Z" transform="translate(-144.172 -168.012)" fill="#a7e4fb" opacity="0.1"/>
            <path id="Trazado_664655-2" data-name="Trazado 664655" d="M348.351,1403.94c0,3.266-32.619,5.954-73.1,5.954s-73.207-3.462-73.207-6.728,32.729-5.1,73.207-5.1S348.351,1400.674,348.351,1403.94Z" transform="translate(-183.18 -1268.369)" fill="#fff" opacity="0.1"/>
            <path id="Trazado_664656-2" data-name="Trazado 664656" d="M319.986,191.217l5.835-5.067S515.169,306.134,515.169,306.8c0,0,0,.007,0,.011h0c-.068,3.717-32.9,6.728-73.4,6.728s-73.331-3.011-73.4-6.728h0Z" transform="translate(-304.107 -172.012)" fill="#92cfcb" opacity="0.1"/>
            <path id="Trazado_664657-2" data-name="Trazado 664657" d="M843.44,1403.94c0,3.266,32.619,5.954,73.1,5.954s73.207-3.462,73.207-6.728-32.729-5.1-73.207-5.1S843.44,1400.674,843.44,1403.94Z" transform="translate(-764.682 -1268.369)" fill="#fff" opacity="0.1"/>
            <path id="Trazado_664658-2" data-name="Trazado 664658" d="M242.78,37.882H0v2.382H23.655c-.206,2.361.814,1.626,3.163,1.737v3.422C21.6,48.347,25.366,53.374,28.485,56.6a1.265,1.265,0,0,0,1.98,1.4l6.05-5.177a1.276,1.276,0,0,0-1-2.223c-1.73-2.236-3.776-5.135-6.212-5.6V42c2.355-.113,3.364.627,3.163-1.737H211.276c0,.618-.152,1.754.745,1.737h2.418v3c-2.424.46-4.462,3.333-6.186,5.565A1.277,1.277,0,0,0,207.3,52.8l6.05,5.177a1.264,1.264,0,0,0,1.963-1.444c3.118-3.215,6.792-8.21,1.61-11.109V42h2.418c.891.017.75-1.119.745-1.737H242.78Z" transform="translate(0 -37.882)" fill="#163260"/>
          </g>
        </g>
      </g>
    </g>
  </g>
</svg>
