<svg xmlns="http://www.w3.org/2000/svg" xmlns:xlink="http://www.w3.org/1999/xlink" width="170" height="170" viewBox="0 0 170 170">
  <defs>
    <clipPath id="clip-path">
      <circle id="Elipse_6271" data-name="Elipse 6271" cx="85" cy="85" r="85" transform="translate(1069.246 2139)" fill="#fff" stroke="#707070" stroke-width="1"/>
    </clipPath>
  </defs>
  <g id="Grupo_898340" data-name="Grupo 898340" transform="translate(-1066 -2136)">
    <circle id="Elipse_6260" data-name="Elipse 6260" cx="84.5" cy="84.5" r="84.5" transform="translate(1067 2137)" fill="#fff"/>
    <g id="Enmascarar_grupo_248" data-name="Enmascarar grupo 248" transform="translate(-3.246 -3)" clip-path="url(#clip-path)">
      <g id="Grupo_898292" data-name="Grupo 898292" transform="translate(1033.26 2139.009)">
        <g id="Rect치ngulo_297403" data-name="Rect치ngulo 297403" transform="translate(43.986 129.991)" fill="#fff" stroke="#707070" stroke-width="1">
          <rect width="156" height="4" stroke="none"/>
          <rect x="0.5" y="0.5" width="155" height="3" fill="none"/>
        </g>
        <g id="Rect치ngulo_297404" data-name="Rect치ngulo 297404" transform="translate(43.986 133.991)" fill="#fff" stroke="#707070" stroke-width="1">
          <rect width="156" height="39" stroke="none"/>
          <rect x="0.5" y="0.5" width="155" height="38" fill="none"/>
        </g>
        <g id="Speech_Bubble_2" data-name="Speech Bubble 2" transform="translate(137.609 54.691)">
          <g id="Grupo_883414" data-name="Grupo 883414" transform="translate(0 0)">
            <g id="Grupo_883387" data-name="Grupo 883387">
              <g id="Grupo_883386" data-name="Grupo 883386">
                <g id="Grupo_883385" data-name="Grupo 883385">
                  <path id="Trazado_618227" data-name="Trazado 618227" d="M460.739,200a8.137,8.137,0,0,1-1.351,4.6,13.108,13.108,0,0,0,.787,2.865l-2.793-.974a6.55,6.55,0,0,1-4.272,1.135A7.628,7.628,0,1,1,460.739,200Z" transform="translate(-445.483 -192.37)" fill="#dee4f0"/>
                </g>
              </g>
            </g>
            <g id="Grupo_883406" data-name="Grupo 883406" transform="translate(4.41 7.008)">
              <g id="Grupo_883393" data-name="Grupo 883393" transform="translate(5.319 0)">
                <g id="Grupo_883392" data-name="Grupo 883392">
                  <g id="Grupo_883391" data-name="Grupo 883391">
                    <g id="Grupo_883390" data-name="Grupo 883390">
                      <g id="Grupo_883389" data-name="Grupo 883389">
                        <g id="Grupo_883388" data-name="Grupo 883388">
                          <path id="Trazado_618228" data-name="Trazado 618228" d="M474.786,214.131a.655.655,0,1,0,.654-.654A.655.655,0,0,0,474.786,214.131Z" transform="translate(-474.786 -213.477)" fill="#dee4f0"/>
                        </g>
                      </g>
                    </g>
                  </g>
                </g>
              </g>
              <g id="Grupo_883399" data-name="Grupo 883399" transform="translate(2.7 0)">
                <g id="Grupo_883398" data-name="Grupo 883398">
                  <g id="Grupo_883397" data-name="Grupo 883397">
                    <g id="Grupo_883396" data-name="Grupo 883396">
                      <g id="Grupo_883395" data-name="Grupo 883395">
                        <g id="Grupo_883394" data-name="Grupo 883394">
                          <path id="Trazado_618229" data-name="Trazado 618229" d="M466.9,214.131a.654.654,0,1,0,.654-.654A.655.655,0,0,0,466.9,214.131Z" transform="translate(-466.898 -213.477)" fill="#dee4f0"/>
                        </g>
                      </g>
                    </g>
                  </g>
                </g>
              </g>
              <g id="Grupo_883405" data-name="Grupo 883405">
                <g id="Grupo_883404" data-name="Grupo 883404">
                  <g id="Grupo_883403" data-name="Grupo 883403">
                    <g id="Grupo_883402" data-name="Grupo 883402">
                      <g id="Grupo_883401" data-name="Grupo 883401">
                        <g id="Grupo_883400" data-name="Grupo 883400">
                          <path id="Trazado_618230" data-name="Trazado 618230" d="M458.853,213.8a.654.654,0,1,0,.894-.24A.654.654,0,0,0,458.853,213.8Z" transform="translate(-458.765 -213.477)" fill="#dee4f0"/>
                        </g>
                      </g>
                    </g>
                  </g>
                </g>
              </g>
            </g>
          </g>
        </g>
        <g id="Speech_Bubble_1" data-name="Speech Bubble 1" transform="translate(93.365 19.006)">
          <g id="Grupo_883444" data-name="Grupo 883444" transform="translate(0 0)">
            <g id="Grupo_883417" data-name="Grupo 883417" transform="translate(0.183)">
              <g id="Grupo_883416" data-name="Grupo 883416">
                <g id="Grupo_883415" data-name="Grupo 883415">
                  <path id="Trazado_618232" data-name="Trazado 618232" d="M312.778,92.518a8.135,8.135,0,0,0,1.351,4.6,13.133,13.133,0,0,1-.788,2.865l2.793-.974a6.551,6.551,0,0,0,4.272,1.134,7.628,7.628,0,1,0-7.628-7.628Z" transform="translate(-312.778 -84.89)" fill="#d2e1f1"/>
                </g>
              </g>
            </g>
            <g id="Grupo_883436" data-name="Grupo 883436" transform="translate(4.401 7.008)">
              <g id="Grupo_883423" data-name="Grupo 883423" transform="translate(0 0)">
                <g id="Grupo_883422" data-name="Grupo 883422">
                  <g id="Grupo_883421" data-name="Grupo 883421">
                    <g id="Grupo_883420" data-name="Grupo 883420">
                      <g id="Grupo_883419" data-name="Grupo 883419">
                        <g id="Grupo_883418" data-name="Grupo 883418">
                          <path id="Trazado_618233" data-name="Trazado 618233" d="M326.79,106.651a.655.655,0,1,1-.655-.654A.655.655,0,0,1,326.79,106.651Z" transform="translate(-325.481 -105.997)" fill="#d2e1f1"/>
                        </g>
                      </g>
                    </g>
                  </g>
                </g>
              </g>
              <g id="Grupo_883429" data-name="Grupo 883429" transform="translate(2.619 0)">
                <g id="Grupo_883428" data-name="Grupo 883428">
                  <g id="Grupo_883427" data-name="Grupo 883427">
                    <g id="Grupo_883426" data-name="Grupo 883426">
                      <g id="Grupo_883425" data-name="Grupo 883425">
                        <g id="Grupo_883424" data-name="Grupo 883424">
                          <path id="Trazado_618234" data-name="Trazado 618234" d="M334.678,106.651a.655.655,0,1,1-.654-.654A.654.654,0,0,1,334.678,106.651Z" transform="translate(-333.369 -105.997)" fill="#d2e1f1"/>
                        </g>
                      </g>
                    </g>
                  </g>
                </g>
              </g>
              <g id="Grupo_883435" data-name="Grupo 883435" transform="translate(5.319)">
                <g id="Grupo_883434" data-name="Grupo 883434">
                  <g id="Grupo_883433" data-name="Grupo 883433">
                    <g id="Grupo_883432" data-name="Grupo 883432">
                      <g id="Grupo_883431" data-name="Grupo 883431">
                        <g id="Grupo_883430" data-name="Grupo 883430">
                          <path id="Trazado_618235" data-name="Trazado 618235" d="M342.723,106.323a.654.654,0,1,1-.894-.239A.655.655,0,0,1,342.723,106.323Z" transform="translate(-341.502 -105.996)" fill="#d2e1f1"/>
                        </g>
                      </g>
                    </g>
                  </g>
                </g>
              </g>
            </g>
            <g id="Grupo_883443" data-name="Grupo 883443" transform="translate(0 0.015)">
              <g id="Grupo_883442" data-name="Grupo 883442">
                <g id="Grupo_883441" data-name="Grupo 883441">
                  <g id="Grupo_883440" data-name="Grupo 883440">
                    <g id="Grupo_883439" data-name="Grupo 883439">
                      <g id="Grupo_883438" data-name="Grupo 883438">
                        <g id="Grupo_883437" data-name="Grupo 883437">
                          <path id="Trazado_618236" data-name="Trazado 618236" d="M319.941,84.939a.75.75,0,0,1,.132,0l.389.011c.085,0,.181,0,.287.013l.343.048.4.057.447.111a7.243,7.243,0,0,1,2.168.945,7.649,7.649,0,0,1,3.514,5.75,7.9,7.9,0,0,1,.021,1.048c-.013.177-.009.357-.035.536l-.081.54a7.676,7.676,0,0,1-.728,2.133,8.221,8.221,0,0,1-1.393,1.917,8.06,8.06,0,0,1-2.008,1.442,7.293,7.293,0,0,1-2.447.751,4.859,4.859,0,0,1-.653.055,5.9,5.9,0,0,1-.66.012,7.868,7.868,0,0,1-1.321-.167,7.728,7.728,0,0,1-2.631-1.107l.08.008-2.68,1.075-.159.064.045-.165.788-2.865.014.071a7.689,7.689,0,0,1-1.43-3.273,6.965,6.965,0,0,1-.1-1.677,5.371,5.371,0,0,1,.076-.805q.031-.2.061-.392c.024-.129.063-.254.094-.38a7.663,7.663,0,0,1,2.99-4.358,7.333,7.333,0,0,1,1.779-.939l.4-.143.38-.1.348-.086c.112-.022.219-.033.32-.048.2-.026.38-.061.537-.068l.394-.013.241-.005a.363.363,0,0,1,.081,0,.376.376,0,0,1-.081.011l-.239.019-.391.027c-.155.012-.331.051-.532.081a7.622,7.622,0,0,0-6.093,5.653c-.029.124-.067.246-.09.373l-.058.385a5.269,5.269,0,0,0-.071.791,6.834,6.834,0,0,0,.109,1.644,7.551,7.551,0,0,0,1.41,3.2l.024.032-.011.039-.782,2.866-.114-.1,2.678-1.078.042-.017.038.025a7.566,7.566,0,0,0,2.572,1.081,7.688,7.688,0,0,0,1.292.164,5.8,5.8,0,0,0,.645-.012,4.7,4.7,0,0,0,.638-.054,7.131,7.131,0,0,0,2.393-.732,7.9,7.9,0,0,0,1.967-1.407,8.077,8.077,0,0,0,1.369-1.874,7.55,7.55,0,0,0,.72-2.087l.082-.529c.026-.175.023-.352.036-.526a7.554,7.554,0,0,0-3.439-6.71,7.283,7.283,0,0,0-2.133-.962l-.442-.118-.4-.065-.34-.056c-.1-.012-.2-.014-.284-.021l-.387-.028A.753.753,0,0,1,319.941,84.939Z" transform="translate(-312.226 -84.936)" fill="#d2e1f1"/>
                        </g>
                      </g>
                    </g>
                  </g>
                </g>
              </g>
            </g>
          </g>
        </g>
        <g id="Character_2" data-name="Character 2" transform="translate(116.688 52.952)">
          <g id="Grupo_883691" data-name="Grupo 883691" transform="translate(0 0)">
            <g id="Grupo_883516" data-name="Grupo 883516" transform="translate(11.954 72.808)">
              <g id="Grupo_883499" data-name="Grupo 883499">
                <g id="Grupo_883451" data-name="Grupo 883451" transform="translate(0.073)">
                  <g id="Grupo_883450" data-name="Grupo 883450">
                    <g id="Grupo_883449" data-name="Grupo 883449">
                      <g id="Grupo_883448" data-name="Grupo 883448">
                        <g id="Grupo_883447" data-name="Grupo 883447">
                          <g id="Grupo_883446" data-name="Grupo 883446">
                            <g id="Grupo_883445" data-name="Grupo 883445">
                              <path id="Trazado_618237" data-name="Trazado 618237" d="M439.046,407.36l2.416,7.2s-7.721,2.93-7.7,4.395l15.3-.536-2.921-12Z" transform="translate(-433.757 -406.417)" fill="#ee4e5d"/>
                            </g>
                          </g>
                        </g>
                      </g>
                    </g>
                  </g>
                </g>
                <g id="Grupo_883466" data-name="Grupo 883466" transform="translate(0 10.778)" opacity="0.6">
                  <g id="Grupo_883465" data-name="Grupo 883465">
                    <g id="Grupo_883464" data-name="Grupo 883464">
                      <g id="Grupo_883463" data-name="Grupo 883463">
                        <g id="Grupo_883462" data-name="Grupo 883462">
                          <g id="Grupo_883461" data-name="Grupo 883461">
                            <g id="Grupo_883460" data-name="Grupo 883460">
                              <path id="Trazado_618239" data-name="Trazado 618239" d="M448.915,440.1l-.3-1.223L434.071,439.9a1.058,1.058,0,0,0-.534.855Z" transform="translate(-433.537 -438.88)" fill="#fff"/>
                            </g>
                          </g>
                        </g>
                      </g>
                    </g>
                  </g>
                </g>
              </g>
              <g id="Grupo_883507" data-name="Grupo 883507" transform="translate(7.385 3.315)">
                <g id="Grupo_883506" data-name="Grupo 883506">
                  <g id="Grupo_883505" data-name="Grupo 883505">
                    <g id="Grupo_883504" data-name="Grupo 883504">
                      <g id="Grupo_883503" data-name="Grupo 883503">
                        <g id="Grupo_883502" data-name="Grupo 883502">
                          <g id="Grupo_883501" data-name="Grupo 883501">
                            <g id="Grupo_883500" data-name="Grupo 883500">
                              <path id="Trazado_618244" data-name="Trazado 618244" d="M455.779,417.774a1.436,1.436,0,0,0,.765-.059,3.454,3.454,0,0,0,.783-.3,3.632,3.632,0,0,0,.422-.265.942.942,0,0,0,.218-.2.326.326,0,0,0,.005-.4.41.41,0,0,0-.339-.147,1,1,0,0,0-.284.06,2.712,2.712,0,0,0-1.135.712c-.331.354-.431.641-.4.654s.191-.224.532-.521a3.054,3.054,0,0,1,.654-.434,2.826,2.826,0,0,1,.429-.167c.158-.054.3-.065.343,0,.017.027.02.037-.011.087a.766.766,0,0,1-.16.144,4.051,4.051,0,0,1-.388.26,4.236,4.236,0,0,1-.718.337A5.328,5.328,0,0,0,455.779,417.774Z" transform="translate(-455.779 -416.402)" fill="#263238"/>
                            </g>
                          </g>
                        </g>
                      </g>
                    </g>
                  </g>
                </g>
              </g>
              <g id="Grupo_883515" data-name="Grupo 883515" transform="translate(6.36 2.403)">
                <g id="Grupo_883514" data-name="Grupo 883514">
                  <g id="Grupo_883513" data-name="Grupo 883513">
                    <g id="Grupo_883512" data-name="Grupo 883512">
                      <g id="Grupo_883511" data-name="Grupo 883511">
                        <g id="Grupo_883510" data-name="Grupo 883510">
                          <g id="Grupo_883509" data-name="Grupo 883509">
                            <g id="Grupo_883508" data-name="Grupo 883508">
                              <path id="Trazado_618245" data-name="Trazado 618245" d="M453.823,416.037a1.217,1.217,0,0,0,.148-.753,2.483,2.483,0,0,0-.393-1.28.635.635,0,0,0-.516-.351.359.359,0,0,0-.3.236,1.049,1.049,0,0,0-.058.286,1.7,1.7,0,0,0,.037.515,1.763,1.763,0,0,0,.384.766c.327.374.645.441.649.415.022-.04-.248-.164-.5-.528a1.763,1.763,0,0,1-.294-.7,1.58,1.58,0,0,1-.018-.443c.012-.164.063-.3.125-.287.076-.007.214.106.286.231a2.55,2.55,0,0,1,.219.4,2.756,2.756,0,0,1,.2.753C453.841,415.744,453.782,416.029,453.823,416.037Z" transform="translate(-452.694 -413.653)" fill="#263238"/>
                            </g>
                          </g>
                        </g>
                      </g>
                    </g>
                  </g>
                </g>
              </g>
            </g>
            <g id="Grupo_883588" data-name="Grupo 883588" transform="translate(53.451 69.306)">
              <g id="Grupo_883571" data-name="Grupo 883571">
                <g id="Grupo_883523" data-name="Grupo 883523">
                  <g id="Grupo_883522" data-name="Grupo 883522">
                    <g id="Grupo_883521" data-name="Grupo 883521">
                      <g id="Grupo_883520" data-name="Grupo 883520">
                        <g id="Grupo_883519" data-name="Grupo 883519">
                          <g id="Grupo_883518" data-name="Grupo 883518">
                            <g id="Grupo_883517" data-name="Grupo 883517">
                              <path id="Trazado_618246" data-name="Trazado 618246" d="M560.845,407.87l6.582-3.788s4.395,6.991,5.828,6.686l-3.544-14.9-11.19,5.231Z" transform="translate(-558.521 -395.87)" fill="#ee4e5d"/>
                            </g>
                          </g>
                        </g>
                      </g>
                    </g>
                  </g>
                </g>
                <g id="Grupo_883538" data-name="Grupo 883538" transform="translate(10.05)" opacity="0.6">
                  <g id="Grupo_883537" data-name="Grupo 883537">
                    <g id="Grupo_883536" data-name="Grupo 883536">
                      <g id="Grupo_883535" data-name="Grupo 883535">
                        <g id="Grupo_883534" data-name="Grupo 883534">
                          <g id="Grupo_883533" data-name="Grupo 883533">
                            <g id="Grupo_883532" data-name="Grupo 883532">
                              <path id="Trazado_618248" data-name="Trazado 618248" d="M589.929,395.87l-1.14.533,3.867,14.06a1.059,1.059,0,0,0,.944.355Z" transform="translate(-588.789 -395.87)" fill="#fff"/>
                            </g>
                          </g>
                        </g>
                      </g>
                    </g>
                  </g>
                </g>
                <g id="Grupo_883570" data-name="Grupo 883570" transform="translate(6.615 7.27)">
                  <g id="Grupo_883569" data-name="Grupo 883569">
                    <g id="Grupo_883568" data-name="Grupo 883568">
                      <g id="Grupo_883567" data-name="Grupo 883567">
                        <g id="Grupo_883566" data-name="Grupo 883566">
                          <g id="Grupo_883565" data-name="Grupo 883565">
                            <g id="Grupo_883564" data-name="Grupo 883564">
                              <g id="Grupo_883563" data-name="Grupo 883563">
                                <path id="Trazado_618252" data-name="Trazado 618252" d="M578.951,419.321c.057-.048-.134-.351-.22-.766s-.045-.768-.117-.788-.244.356-.137.843S578.9,419.372,578.951,419.321Z" transform="translate(-578.444 -417.765)" fill="#263238"/>
                              </g>
                            </g>
                          </g>
                        </g>
                      </g>
                    </g>
                  </g>
                </g>
              </g>
              <g id="Grupo_883579" data-name="Grupo 883579" transform="translate(3.873 7.262)">
                <g id="Grupo_883578" data-name="Grupo 883578">
                  <g id="Grupo_883577" data-name="Grupo 883577">
                    <g id="Grupo_883576" data-name="Grupo 883576">
                      <g id="Grupo_883575" data-name="Grupo 883575">
                        <g id="Grupo_883574" data-name="Grupo 883574">
                          <g id="Grupo_883573" data-name="Grupo 883573">
                            <g id="Grupo_883572" data-name="Grupo 883572">
                              <path id="Trazado_618253" data-name="Trazado 618253" d="M571.908,419.758a1.437,1.437,0,0,0-.209-.738,3.455,3.455,0,0,0-.452-.707,3.623,3.623,0,0,0-.343-.362.933.933,0,0,0-.236-.175.326.326,0,0,0-.392.073.411.411,0,0,0-.077.362,1,1,0,0,0,.116.266,2.7,2.7,0,0,0,.922.973,1.28,1.28,0,0,0,.721.268c.015-.039-.257-.143-.615-.419a3.054,3.054,0,0,1-.554-.556,2.849,2.849,0,0,1-.249-.388c-.084-.145-.122-.278-.064-.337.023-.022.033-.027.087-.007a.756.756,0,0,1,.172.129,4.052,4.052,0,0,1,.332.328,4.251,4.251,0,0,1,.472.638A5.306,5.306,0,0,0,571.908,419.758Z" transform="translate(-570.186 -417.741)" fill="#263238"/>
                            </g>
                          </g>
                        </g>
                      </g>
                    </g>
                  </g>
                </g>
              </g>
              <g id="Grupo_883587" data-name="Grupo 883587" transform="translate(3.478 9.105)">
                <g id="Grupo_883586" data-name="Grupo 883586">
                  <g id="Grupo_883585" data-name="Grupo 883585">
                    <g id="Grupo_883584" data-name="Grupo 883584">
                      <g id="Grupo_883583" data-name="Grupo 883583">
                        <g id="Grupo_883582" data-name="Grupo 883582">
                          <g id="Grupo_883581" data-name="Grupo 883581">
                            <g id="Grupo_883580" data-name="Grupo 883580">
                              <path id="Trazado_618254" data-name="Trazado 618254" d="M571.19,423.345a1.218,1.218,0,0,0-.768,0,2.477,2.477,0,0,0-1.177.638.633.633,0,0,0-.242.575.358.358,0,0,0,.292.252,1.03,1.03,0,0,0,.292,0,1.689,1.689,0,0,0,.5-.138,1.759,1.759,0,0,0,.676-.528c.3-.394.3-.719.279-.719-.043-.014-.112.276-.418.6a1.768,1.768,0,0,1-.63.427,1.57,1.57,0,0,1-.431.1c-.163.021-.306,0-.306-.066-.022-.073.062-.231.17-.326a2.539,2.539,0,0,1,.35-.294,2.767,2.767,0,0,1,.7-.348C570.9,423.385,571.19,423.387,571.19,423.345Z" transform="translate(-568.996 -423.294)" fill="#263238"/>
                            </g>
                          </g>
                        </g>
                      </g>
                    </g>
                  </g>
                </g>
              </g>
            </g>
            <path id="Trazado_618255" data-name="Trazado 618255" d="M503.728,347.871s-6.908,20.329-5.37,23.954c1.124,2.649,2.631,5.816,9.126,4.522,7.143-1.424,18.878-5.69,18.878-5.69l-2.28-8.623L511.82,366.1s8.167-13.419,7.91-17.509c-.306-4.88-.522-5.24-.522-5.24Z" transform="translate(-464.733 -291.481)" fill="#222b5a"/>
            <path id="Trazado_618256" data-name="Trazado 618256" d="M448.523,338.165s-11.293-4.592-16.71-4.5-8.107,1.471-7.957,6.141,8.3,24.338,8.3,24.338,9.431-.923,9.338-1.017-5.658-17.5-5.658-17.5,7.392,3.648,11.051,5.647c4.173,2.28,6.256,2.518,6.256,2.518l3.738-10.176Z" transform="translate(-415.113 -285.013)" fill="#222b5a"/>
            <g id="Grupo_883589" data-name="Grupo 883589" transform="translate(33.38 59.676)">
              <path id="Trazado_618257" data-name="Trazado 618257" d="M498.739,388.62a1.131,1.131,0,0,1-.109-.2,4.06,4.06,0,0,1-.236-.611,8.506,8.506,0,0,1-.325-2.381,26.388,26.388,0,0,1,1.382-7.784l2.089-7.629.648-2.308.185-.626a.114.114,0,1,1,.034.009l-.153.634-.6,2.323c-.516,1.959-1.213,4.669-2.042,7.649a27.578,27.578,0,0,0-1.424,7.73,9.052,9.052,0,0,0,.267,2.363C498.608,388.333,498.758,388.612,498.739,388.62Z" transform="translate(-498.069 -366.866)" fill="#455a64"/>
            </g>
            <g id="Grupo_883594" data-name="Grupo 883594" transform="translate(0 27.588)">
              <path id="Trazado_618258" data-name="Trazado 618258" d="M405.659,270.247a12.788,12.788,0,0,0,1.569,2.028c.645.569,1.208.6,1.736,1.712s1.15,2.281,1.15,2.281a29.2,29.2,0,0,1,2.652,1.545c-.1.063-1.561,4.164-1.561,4.164l-4.77-3.012-5.821-2.219-2.843-3.447.121-.345-.36-.713s.266-.933,1.061-.4c0,0-.27-1.017.922-.489s3.44,2.046,3.6,2.049,2.245.446,2.245.446l.936-.251a2.541,2.541,0,0,1-1.121-1.1c-.322-.721-.886-1.11-.561-1.779A.909.909,0,0,1,405.659,270.247Z" transform="translate(-397.533 -270.22)" fill="#ae7461"/>
              <g id="Grupo_883590" data-name="Grupo 883590" transform="translate(2.402 3.767)">
                <path id="Trazado_618259" data-name="Trazado 618259" d="M411.8,283.735a1.857,1.857,0,0,1-.328-.085,4.9,4.9,0,0,0-.918-.113,13.443,13.443,0,0,0-3.109.349l-.029.007-.026-.012-.644-.3-.319-.149-.027-.012-.012-.024-.634-1.224a.852.852,0,0,0-.379-.415.525.525,0,0,0-.484.047l.029-.069a9.7,9.7,0,0,1,.207,2.2c-.013,0-.025-.215-.086-.595s-.146-.923-.261-1.579l-.008-.045.037-.024a.669.669,0,0,1,.626-.073,1,1,0,0,1,.465.484l.64,1.214-.039-.036.32.149.643.3-.056-.006a11.978,11.978,0,0,1,3.154-.3,4.013,4.013,0,0,1,.929.168A1.133,1.133,0,0,1,411.8,283.735Z" transform="translate(-404.767 -281.567)" fill="#6f4439"/>
              </g>
              <g id="Grupo_883591" data-name="Grupo 883591" transform="translate(1.114 1.549)">
                <path id="Trazado_618260" data-name="Trazado 618260" d="M404.549,277.453a28.9,28.9,0,0,1-3.661-2.565,28.9,28.9,0,0,1,3.661,2.565Z" transform="translate(-400.887 -274.886)" fill="#6f4439"/>
              </g>
              <g id="Grupo_883592" data-name="Grupo 883592" transform="translate(0.274 2.631)">
                <path id="Trazado_618261" data-name="Trazado 618261" d="M400.308,279.485c-.02.014-.116-.089-.259-.258a4.343,4.343,0,0,0-.594-.609,1.733,1.733,0,0,0-.744-.35c-.21-.039-.348-.018-.353-.045s.129-.087.367-.077a1.5,1.5,0,0,1,.837.336,2.724,2.724,0,0,1,.585.672C400.268,279.345,400.327,279.472,400.308,279.485Z" transform="translate(-398.358 -278.145)" fill="#6f4439"/>
              </g>
              <g id="Grupo_883593" data-name="Grupo 883593" transform="translate(4.545 3.569)">
                <path id="Trazado_618262" data-name="Trazado 618262" d="M412.687,280.978a3.041,3.041,0,0,0-1.446,1.844c-.021,0-.034-.145.015-.37a2.079,2.079,0,0,1,1.076-1.372C412.538,280.979,412.68,280.958,412.687,280.978Z" transform="translate(-411.222 -280.971)" fill="#6f4439"/>
              </g>
            </g>
            <g id="Grupo_883603" data-name="Grupo 883603" transform="translate(9.891 22.296)">
              <path id="Trazado_618263" data-name="Trazado 618263" d="M430.31,265.844l9.715,4.434s6.492-10.573,7.672-11.5,7.476-3.2,7.476-3.2l-5.8,15.775s-4.674,7.273-7.563,7.765c-1.881.321-14.487-7.427-14.487-7.427Z" transform="translate(-427.322 -255.146)" fill="#138276"/>
              <path id="Trazado_618264" data-name="Trazado 618264" d="M511.509,288.266c.093-2.432-1.624-9.509-1.624-9.509s1.484-18.7-.273-20.944c-1.543-1.97-8.4-3.529-8.4-3.529l-7.014.361-7.86,3.268-.888,6.631,2.456,7.8,1.4,10.917-1.323,1.227s1.545,5.433,6.266,5.922S511.509,288.266,511.509,288.266Z" transform="translate(-466.149 -254.284)" fill="#179587"/>
              <g id="Grupo_883595" data-name="Grupo 883595" transform="translate(20.631 6.854)">
                <path id="Trazado_618265" data-name="Trazado 618265" d="M489.471,274.928a1.073,1.073,0,0,1,.024.221l.034.633c.032.55.086,1.344.178,2.324.176,1.961.514,4.66.912,7.639s.776,5.676,1.007,7.633c.118.978.2,1.772.248,2.321.02.26.036.471.049.633a1.074,1.074,0,0,1,0,.222,1.1,1.1,0,0,1-.04-.219c-.021-.161-.047-.37-.08-.629-.074-.567-.177-1.352-.3-2.312l-1.057-7.626c-.4-2.98-.718-5.685-.863-7.651-.077-.983-.112-1.781-.123-2.332,0-.262,0-.472,0-.635A1.068,1.068,0,0,1,489.471,274.928Z" transform="translate(-489.46 -274.928)" fill="#263238"/>
              </g>
              <path id="Trazado_618266" data-name="Trazado 618266" d="M492.19,303.364s1.514.336,1.957,1,1.148,4.319,3.009,4.983l1.118.386a1.259,1.259,0,0,0,1.49-.542l.969-1.616,3.377.609.512,2.1a1.313,1.313,0,0,0,1.072.986l8.862,1.4v-2.713l-9.837-4.927-5.127-1.165-3.563-1.285-3.323-2.366-1.016-.354Z" transform="translate(-470.32 -284.728)" opacity="0.3"/>
              <g id="Grupo_883596" data-name="Grupo 883596" transform="translate(24.933 30.599)">
                <path id="Trazado_618267" data-name="Trazado 618267" d="M519.02,347.332a.8.8,0,0,1-.152.113,4.675,4.675,0,0,1-.463.284,11.95,11.95,0,0,1-1.825.807,24.353,24.353,0,0,1-6.447,1.267,17.6,17.6,0,0,1-3.625-.121,10.047,10.047,0,0,1-1.549-.356,5.382,5.382,0,0,1-1.256-.589,2.664,2.664,0,0,1-1.207-1.564c-.025-.117-.056-.218-.065-.309s-.007-.163-.011-.231a.775.775,0,0,1,0-.189.8.8,0,0,1,.033.187c.008.067.017.141.027.225s.05.186.079.3a2.647,2.647,0,0,0,1.209,1.48,5.382,5.382,0,0,0,1.234.556,10.149,10.149,0,0,0,1.528.335,18.108,18.108,0,0,0,3.592.106,25.864,25.864,0,0,0,6.417-1.21,13.768,13.768,0,0,0,1.834-.751C518.794,347.463,519.01,347.316,519.02,347.332Z" transform="translate(-502.418 -346.445)" fill="#263238"/>
              </g>
              <g id="Grupo_883598" data-name="Grupo 883598" transform="translate(35.301 2.18)">
                <path id="Trazado_618268" data-name="Trazado 618268" d="M538.605,268.427l2.358,8.878-6.419-1.075-.629,7.306s6.739,1.191,9.055,1.489c3.324.429,5.136-1.846,4.11-7.486-.412-2.265-1.3-8.8-2.808-12.642a9.938,9.938,0,0,0-3.989-4.048" transform="translate(-533.825 -260.849)" fill="#138276"/>
                <g id="Grupo_883597" data-name="Grupo 883597">
                  <path id="Trazado_618269" data-name="Trazado 618269" d="M540.1,260.849a2.809,2.809,0,0,1,.558.279,9.574,9.574,0,0,1,1.412,1.1,10.1,10.1,0,0,1,1.822,2.165,4.308,4.308,0,0,1,.354.785c.1.276.208.562.3.861.2.593.379,1.231.558,1.9.716,2.686,1.263,5.953,1.866,9.566a17.989,17.989,0,0,1,.292,2.813c0,.242-.015.485-.023.729s-.054.488-.08.734-.1.486-.155.731a6.307,6.307,0,0,1-.267.709,3.409,3.409,0,0,1-.929,1.22,3.254,3.254,0,0,1-1.422.637l-.391.06c-.131.011-.263.01-.395.015a6.124,6.124,0,0,1-.791-.041c-.521-.065-1.041-.145-1.564-.225-2.607-.409-5.129-.848-7.53-1.27l-.076-.013.007-.076c.225-2.588.439-5.038.637-7.305l.007-.082.08.014,6.417,1.089-.07.077-1.7-6.5-.453-1.77-.114-.462c-.025-.1-.033-.159-.033-.159s.02.051.05.154l.13.457.485,1.762,1.752,6.489.025.092-.1-.016L534.35,276.3l.088-.068c-.193,2.267-.4,4.718-.62,7.306l-.069-.09c2.4.418,4.923.856,7.527,1.264a9.517,9.517,0,0,0,3.082.193,3.091,3.091,0,0,0,1.348-.6,3.244,3.244,0,0,0,.882-1.159,6.1,6.1,0,0,0,.258-.683c.049-.239.117-.473.152-.712s.068-.479.079-.719.021-.479.023-.717a17.95,17.95,0,0,0-.284-2.785c-.6-3.621-1.129-6.881-1.828-9.564-.174-.67-.349-1.307-.544-1.9-.092-.3-.192-.584-.294-.859a4.234,4.234,0,0,0-.341-.774,11.361,11.361,0,0,0-3.169-3.281,3.869,3.869,0,0,0-.4-.234C540.148,260.877,540.1,260.849,540.1,260.849Z" transform="translate(-533.644 -260.849)" fill="#138276"/>
                </g>
              </g>
              <g id="Grupo_883599" data-name="Grupo 883599" transform="translate(42.248 18.579)">
                <path id="Trazado_618270" data-name="Trazado 618270" d="M558.545,311.3a6.964,6.964,0,0,0-1.913-.755c-1.12-.22-2.066-.181-2.064-.243a1.941,1.941,0,0,1,.614-.058,6.956,6.956,0,0,1,1.485.132,4.348,4.348,0,0,1,1.4.535A1.5,1.5,0,0,1,558.545,311.3Z" transform="translate(-554.568 -310.242)" fill="#263238"/>
              </g>
              <g id="Grupo_883601" data-name="Grupo 883601" transform="translate(39.745 3.469)">
                <path id="Trazado_618271" data-name="Trazado 618271" d="M547.21,268.639a4.112,4.112,0,0,1,1.915-3.9" transform="translate(-547.134 -264.735)" fill="#455a64"/>
                <g id="Grupo_883600" data-name="Grupo 883600">
                  <path id="Trazado_618272" data-name="Trazado 618272" d="M549.022,264.734a6.471,6.471,0,0,1-.5.444,4.419,4.419,0,0,0-1.371,2.792,6.493,6.493,0,0,1-.046.666,1.652,1.652,0,0,1-.076-.674,3.913,3.913,0,0,1,1.412-2.876A1.649,1.649,0,0,1,549.022,264.734Z" transform="translate(-547.03 -264.732)" fill="#263238"/>
                </g>
              </g>
              <g id="Grupo_883602" data-name="Grupo 883602" transform="translate(12.593 15.039)">
                <path id="Trazado_618273" data-name="Trazado 618273" d="M466.406,304.2a2.313,2.313,0,0,1-.351-.614,8.863,8.863,0,0,1-.8-3.3,2.32,2.32,0,0,1,.031-.707c.055,0,.063,1.076.378,2.356S466.455,304.179,466.406,304.2Z" transform="translate(-465.249 -299.58)" fill="#263238"/>
              </g>
            </g>
            <g id="Grupo_883611" data-name="Grupo 883611" transform="translate(28.793 24.44)">
              <g id="Grupo_883605" data-name="Grupo 883605" transform="translate(0 1.482)">
                <path id="Trazado_618274" data-name="Trazado 618274" d="M501.379,269.476c-.187.26-5.532,14.971-5.532,14.971a4.154,4.154,0,0,1-2.806-1.138c-.878-1.1-1.96-2.943-3.194-2.9s-5.262-.085-5.262-.085l3.764-14.635a8.062,8.062,0,0,1,3.762-.062c1.492.518,2.25,3.056,4.072,3.638A16.633,16.633,0,0,0,501.379,269.476Z" transform="translate(-484.475 -265.34)" fill="#fff"/>
                <g id="Grupo_883604" data-name="Grupo 883604">
                  <path id="Trazado_618275" data-name="Trazado 618275" d="M501.156,269.338a.5.5,0,0,1-.067.013l-.2.024c-.176.019-.437.044-.778.065a17.693,17.693,0,0,1-2.963-.033,7.035,7.035,0,0,1-1-.181,2.819,2.819,0,0,1-1.011-.471,8.981,8.981,0,0,1-1.695-1.829,6.507,6.507,0,0,0-.925-.993,2.432,2.432,0,0,0-1.293-.534,8.709,8.709,0,0,0-3.083.22l.054-.054-3.642,14.2-.111.433-.081-.108c1.16.035,2.3.064,3.426.082.561.008,1.117.017,1.665.008a2.818,2.818,0,0,1,.426.015l.211.051c.068.024.133.053.2.079a2.945,2.945,0,0,1,.69.468,23.014,23.014,0,0,1,2,2.431,2.884,2.884,0,0,0,1.241.745,5.274,5.274,0,0,0,1.4.256l-.074.05c1.631-4.464,3.012-8.208,4-10.832.492-1.312.883-2.344,1.159-3.046.136-.352.247-.619.321-.8.036-.092.07-.151.092-.2s.035-.069.036-.07l-.4,1.084-1.118,3.06L495.7,284.335l-.019.053-.054,0a5.419,5.419,0,0,1-1.451-.26,3.567,3.567,0,0,1-.7-.306,2.422,2.422,0,0,1-.614-.48,23.412,23.412,0,0,0-1.991-2.415,1.84,1.84,0,0,0-1.411-.569c-.553.01-1.109,0-1.671-.006-1.124-.018-2.268-.046-3.428-.081l-.108,0,.027-.1.112-.433,3.664-14.2.012-.044.042-.01a8.8,8.8,0,0,1,3.14-.211,3.333,3.333,0,0,1,.727.187,1.843,1.843,0,0,1,.332.169,1.935,1.935,0,0,1,.3.213,6.57,6.57,0,0,1,.939,1.018,8.97,8.97,0,0,0,1.661,1.819,2.727,2.727,0,0,0,.975.464,7,7,0,0,0,.981.187,18.744,18.744,0,0,0,2.95.074l.778-.042.2-.013A.431.431,0,0,1,501.156,269.338Z" transform="translate(-484.253 -265.202)" fill="#263238"/>
                </g>
              </g>
              <g id="Grupo_883607" data-name="Grupo 883607" transform="translate(0.645)">
                <path id="Trazado_618276" data-name="Trazado 618276" d="M503.418,265.007c-.187.259-5.637,17.708-5.637,17.708a4.155,4.155,0,0,1-2.806-1.138c-.878-1.1-1.96-2.943-3.193-2.9s-5.262-.085-5.262-.085l3.87-17.371a8.061,8.061,0,0,1,3.762-.062c1.493.518,2.251,3.056,4.072,3.638A16.635,16.635,0,0,0,503.418,265.007Z" transform="translate(-486.413 -260.873)" fill="#fff"/>
                <g id="Grupo_883606" data-name="Grupo 883606">
                  <path id="Trazado_618277" data-name="Trazado 618277" d="M503.2,264.873a.572.572,0,0,1-.066.012l-.2.024c-.175.018-.434.043-.774.064a17.725,17.725,0,0,1-2.953-.032,7,7,0,0,1-1-.178,2.849,2.849,0,0,1-1.012-.464,8.848,8.848,0,0,1-1.7-1.826,6.61,6.61,0,0,0-.924-1,2.436,2.436,0,0,0-1.294-.542,8.683,8.683,0,0,0-3.095.219l.053-.055-3.752,16.907-.1.467-.082-.1q1.721.051,3.394.081c.557.008,1.11.016,1.655.009l.2,0,.218.013a1.622,1.622,0,0,1,.413.118,2.635,2.635,0,0,1,.7.455,20.432,20.432,0,0,1,2.011,2.434,2.847,2.847,0,0,0,1.243.765,5.291,5.291,0,0,0,1.425.263l-.076.055c1.646-5.242,3.051-9.671,4.057-12.785.5-1.557.9-2.786,1.188-3.623.14-.419.254-.739.332-.955.037-.11.074-.183.1-.237s.036-.083.038-.084a.718.718,0,0,1-.026.08c-.017.054-.052.141-.085.249l-.309.962-1.146,3.636-4,12.8-.018.058-.058,0a5.421,5.421,0,0,1-1.473-.268,3,3,0,0,1-1.314-.808,20.613,20.613,0,0,0-2-2.416,1.814,1.814,0,0,0-1.418-.539c-.55.008-1.1,0-1.661-.008-1.115-.018-2.248-.046-3.4-.08l-.1,0,.023-.1.1-.467,3.779-16.9.01-.045.043-.01a8.8,8.8,0,0,1,3.151-.21,3.322,3.322,0,0,1,.727.191,1.744,1.744,0,0,1,.331.171,2.058,2.058,0,0,1,.3.214,6.7,6.7,0,0,1,.937,1.021,8.79,8.79,0,0,0,1.665,1.816,2.755,2.755,0,0,0,.977.458,7,7,0,0,0,.981.184,18.82,18.82,0,0,0,2.941.071l.774-.043.2-.013A.473.473,0,0,1,503.2,264.873Z" transform="translate(-486.197 -260.739)" fill="#263238"/>
                </g>
              </g>
              <g id="Grupo_883610" data-name="Grupo 883610" transform="translate(6.984 10.954)">
                <path id="Trazado_618278" data-name="Trazado 618278" d="M508.056,293.894l2.459,1.767,1.831.587.852-1.184.837,2.992,1.369.338-.482,4.593-2.264-1.167s-3.034-.273-3.266-.273a24.25,24.25,0,0,1-2.517-2.169l-1.069-2.556s-.906-1.007-.325-1.627c0,0-.387-.125.077-.547s1.046-.112,1.549.43,1.2,1.355,1.2,1.355l1.936.775-1.588-1.162s-1.754-1.446-1.75-1.776a.49.49,0,0,1,.245-.425A.815.815,0,0,1,508.056,293.894Z" transform="translate(-505.286 -293.731)" fill="#ae7461"/>
                <g id="Grupo_883608" data-name="Grupo 883608" transform="translate(0.025 1.366)">
                  <path id="Trazado_618279" data-name="Trazado 618279" d="M509.529,301.436c-.015.021-.28-.146-.751-.337-.234-.1-.517-.207-.827-.348a3.089,3.089,0,0,1-.942-.607,14.1,14.1,0,0,1-1.172-1.626c-.284-.42-.493-.655-.474-.674a2.413,2.413,0,0,1,.573.6c.322.4.684,1.016,1.2,1.577a3.162,3.162,0,0,0,.886.584l.81.38A2.156,2.156,0,0,1,509.529,301.436Z" transform="translate(-505.362 -297.844)" fill="#6f4439"/>
                </g>
                <g id="Grupo_883609" data-name="Grupo 883609" transform="translate(0.477 3.106)">
                  <path id="Trazado_618280" data-name="Trazado 618280" d="M509.632,306.383a1.357,1.357,0,0,1-.594-.289,6.147,6.147,0,0,1-1.123-1.122,8.772,8.772,0,0,1-.936-1.279,1.647,1.647,0,0,1-.254-.608,5.179,5.179,0,0,1,.358.543,14.474,14.474,0,0,0,.965,1.232A8.4,8.4,0,0,0,509.113,306C509.418,306.25,509.644,306.357,509.632,306.383Z" transform="translate(-506.722 -303.085)" fill="#6f4439"/>
                </g>
              </g>
            </g>
            <g id="Grupo_883690" data-name="Grupo 883690" transform="translate(36.077)">
              <g id="Grupo_883688" data-name="Grupo 883688">
                <g id="Grupo_883613" data-name="Grupo 883613" transform="translate(0.539)">
                  <g id="Grupo_883612" data-name="Grupo 883612">
                    <path id="Trazado_618281" data-name="Trazado 618281" d="M509.31,194.263a1.555,1.555,0,0,1-.2-3.088,1.618,1.618,0,0,1,1.8-2.484,1.936,1.936,0,0,1,3.124-1.129,2.176,2.176,0,0,1,2.658.35,1.548,1.548,0,0,1,.955,2.8" transform="translate(-507.814 -187.13)" fill="#263238"/>
                  </g>
                </g>
                <g id="Grupo_883687" data-name="Grupo 883687" transform="translate(0 0.944)">
                  <g id="Grupo_883681" data-name="Grupo 883681" transform="translate(0 0.748)">
                    <g id="Grupo_883616" data-name="Grupo 883616" transform="translate(0 0.532)">
                      <g id="Grupo_883615" data-name="Grupo 883615">
                        <g id="Grupo_883614" data-name="Grupo 883614">
                          <path id="Trazado_618282" data-name="Trazado 618282" d="M517.215,215.573l.257-1.727,2.36-12.049c.863-3.588-.506-7.08-4.116-7.843l-.338-.051a6.6,6.6,0,0,0-7.409,5.016c-.73,3.113-1.5,6.561-1.732,8.255a4.25,4.25,0,0,0,2.933,4.581l-.393,2.536,2.833,2.79Z" transform="translate(-506.191 -193.828)" fill="#ae7461"/>
                        </g>
                      </g>
                    </g>
                    <g id="Grupo_883621" data-name="Grupo 883621" transform="translate(2.837 17.8)">
                      <g id="Grupo_883620" data-name="Grupo 883620">
                        <g id="Grupo_883619" data-name="Grupo 883619">
                          <g id="Grupo_883618" data-name="Grupo 883618">
                            <g id="Grupo_883617" data-name="Grupo 883617">
                              <path id="Trazado_618283" data-name="Trazado 618283" d="M514.851,246.486a8.586,8.586,0,0,0,4.79-.649s-1.46,2.356-4.9,1.513Z" transform="translate(-514.736 -245.837)" fill="#6f4439"/>
                            </g>
                          </g>
                        </g>
                      </g>
                    </g>
                    <g id="Grupo_883674" data-name="Grupo 883674" transform="translate(2.358)">
                      <g id="Grupo_883673" data-name="Grupo 883673">
                        <g id="Grupo_883672" data-name="Grupo 883672">
                          <path id="Trazado_618291" data-name="Trazado 618291" d="M513.294,196.295s1.255-2.053,2.389-2.4c1.374-.426,1.712,1.062,2.983.905s2.583-.566,3.687.565c1.208,1.238.46,1.865.309,3.431-.61,6.349.271,8.3,1.047,5.387.085-.319,1.026-.442,1.367-1.795a15.65,15.65,0,0,0,.631-5.229,5.04,5.04,0,0,0-1.637-2.919,8.392,8.392,0,0,0-5.509-2.006C516.933,192.15,513.563,193.527,513.294,196.295Z" transform="translate(-513.294 -192.227)" fill="#263238"/>
                        </g>
                      </g>
                    </g>
                    <g id="Grupo_883677" data-name="Grupo 883677" transform="translate(12.065 11.034)">
                      <g id="Grupo_883676" data-name="Grupo 883676">
                        <g id="Grupo_883675" data-name="Grupo 883675">
                          <path id="Trazado_618292" data-name="Trazado 618292" d="M543.028,226.249a.96.96,0,0,1,1.164-.761c.643.161,1.314.641,1.067,1.984a1.821,1.821,0,0,1-2.731,1.382C542.534,228.806,542.836,227.244,543.028,226.249Z" transform="translate(-542.529 -225.46)" fill="#ae7461"/>
                        </g>
                      </g>
                    </g>
                    <g id="Grupo_883680" data-name="Grupo 883680" transform="translate(12.744 11.818)">
                      <g id="Grupo_883679" data-name="Grupo 883679">
                        <g id="Grupo_883678" data-name="Grupo 883678">
                          <path id="Trazado_618293" data-name="Trazado 618293" d="M544.578,229.631c.012-.006.036.037.1.082a.423.423,0,0,0,.309.063,1.044,1.044,0,0,0,.644-.834,1.4,1.4,0,0,0-.007-.615.487.487,0,0,0-.253-.376.215.215,0,0,0-.266.069c-.044.06-.038.111-.051.113s-.044-.049-.006-.144a.267.267,0,0,1,.121-.132.316.316,0,0,1,.24-.019.594.594,0,0,1,.366.449,1.431,1.431,0,0,1,.022.69,1.1,1.1,0,0,1-.794.917.451.451,0,0,1-.368-.133C544.572,229.689,544.569,229.633,544.578,229.631Z" transform="translate(-544.575 -227.823)" fill="#6f4439"/>
                        </g>
                      </g>
                    </g>
                  </g>
                  <g id="Grupo_883683" data-name="Grupo 883683" transform="translate(4.456)">
                    <g id="Grupo_883682" data-name="Grupo 883682">
                      <path id="Trazado_618294" data-name="Trazado 618294" d="M528.373,197.9a2.3,2.3,0,0,1-1.084.315.79.79,0,0,1-.783-.68c0-.171.067-.358-.023-.5-.108-.173-.356-.162-.56-.171a1.546,1.546,0,0,1-1.42-1.335.648.648,0,0,1-.872-.049,3.476,3.476,0,0,1-.546-.8,1,1,0,0,0-.759-.535,2.382,2.382,0,0,1-.538.036c-.31-.075-.408-.467-.408-.786s.018-.689-.223-.9a1.265,1.265,0,0,0-.852-.153c-.3,0-.659-.126-.691-.42a.577.577,0,0,1,.173-.418,1.568,1.568,0,0,1,1.918-.31,19.607,19.607,0,0,0,5.9-.036,2.194,2.194,0,0,1,1.308,1.5,1.563,1.563,0,0,1,1.4,2.511,1.484,1.484,0,0,1,.631,1.291.85.85,0,0,1-1.081.715.866.866,0,0,1-1.609.63" transform="translate(-519.61 -189.974)" fill="#263238"/>
                    </g>
                  </g>
                  <g id="Grupo_883686" data-name="Grupo 883686" transform="translate(6.254 1.901)">
                    <g id="Grupo_883685" data-name="Grupo 883685">
                      <g id="Grupo_883684" data-name="Grupo 883684">
                        <path id="Trazado_618295" data-name="Trazado 618295" d="M525.037,195.7a.126.126,0,0,0-.006.044,1.292,1.292,0,0,0,0,.13,1.523,1.523,0,0,0,.1.487,1.728,1.728,0,0,0,.445.646,1.613,1.613,0,0,0,.938.428l-.033-.059a.878.878,0,0,0-.052.668,2.521,2.521,0,0,0,.321.65,1.8,1.8,0,0,0,.227.315.848.848,0,0,0,.358.2.883.883,0,0,0,.812-.16l-.086-.039a1.816,1.816,0,0,0,.574,1.357,1.327,1.327,0,0,0,.747.376,2.4,2.4,0,0,0,.8-.053l-.06-.038a1.905,1.905,0,0,0,.455.824,1.016,1.016,0,0,0,.8.353,1.334,1.334,0,0,0,1.171-.879l-.058.017a1.25,1.25,0,0,0,.8.245,1.349,1.349,0,0,0,.612-.169,1.17,1.17,0,0,0,.312-.252.584.584,0,0,0,.079-.115,1.454,1.454,0,0,1-.41.331,1.339,1.339,0,0,1-.594.146,1.193,1.193,0,0,1-.757-.245l-.041-.032-.017.049a1.257,1.257,0,0,1-1.1.811.922.922,0,0,1-.724-.329,1.812,1.812,0,0,1-.426-.781l-.012-.047-.047.009a2.3,2.3,0,0,1-.765.05,1.222,1.222,0,0,1-.69-.349,1.718,1.718,0,0,1-.543-1.279l0-.116-.088.076a.785.785,0,0,1-.717.141.749.749,0,0,1-.318-.173,1.76,1.76,0,0,1-.214-.3,2.44,2.44,0,0,1-.315-.624.794.794,0,0,1,.038-.606l.028-.054-.061,0a1.557,1.557,0,0,1-.9-.4,1.726,1.726,0,0,1-.446-.615A1.881,1.881,0,0,1,525.037,195.7Z" transform="translate(-525.026 -195.7)" fill="#455a64"/>
                      </g>
                    </g>
                  </g>
                </g>
              </g>
            </g>
          </g>
        </g>
        <g id="Character_1" data-name="Character 1" transform="translate(59.19 20.092)">
          <g id="Grupo_884036" data-name="Grupo 884036" transform="translate(0 0)">
            <g id="Grupo_883755" data-name="Grupo 883755" transform="translate(3.815 107.095)">
              <g id="Grupo_883746" data-name="Grupo 883746">
                <g id="Grupo_883698" data-name="Grupo 883698">
                  <g id="Grupo_883697" data-name="Grupo 883697">
                    <g id="Grupo_883696" data-name="Grupo 883696">
                      <g id="Grupo_883695" data-name="Grupo 883695">
                        <g id="Grupo_883694" data-name="Grupo 883694">
                          <g id="Grupo_883693" data-name="Grupo 883693">
                            <g id="Grupo_883692" data-name="Grupo 883692">
                              <path id="Trazado_618298" data-name="Trazado 618298" d="M228.24,410.945l-.52,6.809s7.279,2.458,7.313,3.821l-14.246.028.9-4.916.338-5.967Z" transform="translate(-220.787 -410.72)" fill="#f1b62b"/>
                            </g>
                          </g>
                        </g>
                      </g>
                    </g>
                  </g>
                </g>
                <g id="Grupo_883713" data-name="Grupo 883713" transform="translate(0 9.736)" opacity="0.6">
                  <g id="Grupo_883712" data-name="Grupo 883712">
                    <g id="Grupo_883711" data-name="Grupo 883711">
                      <g id="Grupo_883710" data-name="Grupo 883710">
                        <g id="Grupo_883709" data-name="Grupo 883709">
                          <g id="Grupo_883708" data-name="Grupo 883708">
                            <g id="Grupo_883707" data-name="Grupo 883707">
                              <path id="Trazado_618300" data-name="Trazado 618300" d="M220.787,441.19l.235-1.147,13.558.446a.984.984,0,0,1,.526.777Z" transform="translate(-220.787 -440.043)" fill="#fff"/>
                            </g>
                          </g>
                        </g>
                      </g>
                    </g>
                  </g>
                </g>
                <g id="Grupo_883745" data-name="Grupo 883745" transform="translate(5.618 5.013)">
                  <g id="Grupo_883744" data-name="Grupo 883744">
                    <g id="Grupo_883743" data-name="Grupo 883743">
                      <g id="Grupo_883742" data-name="Grupo 883742">
                        <g id="Grupo_883741" data-name="Grupo 883741">
                          <g id="Grupo_883740" data-name="Grupo 883740">
                            <g id="Grupo_883739" data-name="Grupo 883739">
                              <g id="Grupo_883738" data-name="Grupo 883738">
                                <path id="Trazado_618304" data-name="Trazado 618304" d="M239.19,426.093c-.032.062-.347-.045-.741-.032s-.7.126-.739.065.269-.3.733-.307S239.226,426.04,239.19,426.093Z" transform="translate(-237.707 -425.819)" fill="#263238"/>
                              </g>
                            </g>
                          </g>
                        </g>
                      </g>
                    </g>
                  </g>
                </g>
              </g>
              <g id="Grupo_883754" data-name="Grupo 883754" transform="translate(5.044 2.597)">
                <g id="Grupo_883753" data-name="Grupo 883753">
                  <g id="Grupo_883752" data-name="Grupo 883752">
                    <g id="Grupo_883751" data-name="Grupo 883751">
                      <g id="Grupo_883750" data-name="Grupo 883750">
                        <g id="Grupo_883749" data-name="Grupo 883749">
                          <g id="Grupo_883748" data-name="Grupo 883748">
                            <g id="Grupo_883747" data-name="Grupo 883747">
                              <path id="Trazado_618305" data-name="Trazado 618305" d="M238.113,419.754a1.342,1.342,0,0,1-.713-.029,3.22,3.22,0,0,1-.738-.256,3.309,3.309,0,0,1-.4-.232.87.87,0,0,1-.21-.175.3.3,0,0,1-.019-.371.382.382,0,0,1,.31-.148.93.93,0,0,1,.266.047,2.564,2.564,0,0,1,.438.168,2.52,2.52,0,0,1,.642.455c.319.318.423.581.4.594s-.185-.2-.513-.466a2.836,2.836,0,0,0-.623-.381,2.6,2.6,0,0,0-.4-.141c-.149-.045-.278-.051-.319.015-.015.025-.017.035.013.08a.708.708,0,0,0,.154.128,3.761,3.761,0,0,0,.369.229,3.959,3.959,0,0,0,.68.289A4.913,4.913,0,0,1,238.113,419.754Z" transform="translate(-235.978 -418.543)" fill="#263238"/>
                            </g>
                          </g>
                        </g>
                      </g>
                    </g>
                  </g>
                </g>
              </g>
            </g>
            <g id="Grupo_883819" data-name="Grupo 883819" transform="translate(18.68 107.036)">
              <g id="Grupo_883810" data-name="Grupo 883810">
                <g id="Grupo_883762" data-name="Grupo 883762">
                  <g id="Grupo_883761" data-name="Grupo 883761">
                    <g id="Grupo_883760" data-name="Grupo 883760">
                      <g id="Grupo_883759" data-name="Grupo 883759">
                        <g id="Grupo_883758" data-name="Grupo 883758">
                          <g id="Grupo_883757" data-name="Grupo 883757">
                            <g id="Grupo_883756" data-name="Grupo 883756">
                              <path id="Trazado_618306" data-name="Trazado 618306" d="M273.048,410.786l-.543,6.807s7.27,2.483,7.3,3.845l-14.247-.02.918-4.913.358-5.966Z" transform="translate(-265.559 -410.54)" fill="#f1b62b"/>
                            </g>
                          </g>
                        </g>
                      </g>
                    </g>
                  </g>
                </g>
                <g id="Grupo_883777" data-name="Grupo 883777" transform="translate(0 9.733)" opacity="0.6">
                  <g id="Grupo_883776" data-name="Grupo 883776">
                    <g id="Grupo_883775" data-name="Grupo 883775">
                      <g id="Grupo_883774" data-name="Grupo 883774">
                        <g id="Grupo_883773" data-name="Grupo 883773">
                          <g id="Grupo_883772" data-name="Grupo 883772">
                            <g id="Grupo_883771" data-name="Grupo 883771">
                              <path id="Trazado_618308" data-name="Trazado 618308" d="M265.559,441l.239-1.146,13.556.491a.985.985,0,0,1,.523.779Z" transform="translate(-265.559 -439.853)" fill="#fff"/>
                            </g>
                          </g>
                        </g>
                      </g>
                    </g>
                  </g>
                </g>
                <g id="Grupo_883809" data-name="Grupo 883809" transform="translate(5.637 5.03)">
                  <g id="Grupo_883808" data-name="Grupo 883808">
                    <g id="Grupo_883807" data-name="Grupo 883807">
                      <g id="Grupo_883806" data-name="Grupo 883806">
                        <g id="Grupo_883805" data-name="Grupo 883805">
                          <g id="Grupo_883804" data-name="Grupo 883804">
                            <g id="Grupo_883803" data-name="Grupo 883803">
                              <g id="Grupo_883802" data-name="Grupo 883802">
                                <path id="Trazado_618312" data-name="Trazado 618312" d="M284.019,425.967c-.032.062-.347-.046-.741-.034s-.7.124-.739.062.27-.3.734-.3S284.055,425.914,284.019,425.967Z" transform="translate(-282.536 -425.69)" fill="#263238"/>
                              </g>
                            </g>
                          </g>
                        </g>
                      </g>
                    </g>
                  </g>
                </g>
              </g>
              <g id="Grupo_883818" data-name="Grupo 883818" transform="translate(5.07 2.611)">
                <g id="Grupo_883817" data-name="Grupo 883817">
                  <g id="Grupo_883816" data-name="Grupo 883816">
                    <g id="Grupo_883815" data-name="Grupo 883815">
                      <g id="Grupo_883814" data-name="Grupo 883814">
                        <g id="Grupo_883813" data-name="Grupo 883813">
                          <g id="Grupo_883812" data-name="Grupo 883812">
                            <g id="Grupo_883811" data-name="Grupo 883811">
                              <path id="Trazado_618313" data-name="Trazado 618313" d="M282.963,419.622a1.333,1.333,0,0,1-.713-.032,3.2,3.2,0,0,1-.737-.258,3.375,3.375,0,0,1-.4-.233.874.874,0,0,1-.209-.176.3.3,0,0,1-.018-.371.382.382,0,0,1,.311-.147.926.926,0,0,1,.266.047,2.548,2.548,0,0,1,.437.169,2.506,2.506,0,0,1,.64.457c.318.319.421.583.4.6s-.185-.2-.511-.468a2.837,2.837,0,0,0-.622-.383,2.634,2.634,0,0,0-.4-.142c-.149-.046-.278-.051-.319.014-.015.025-.017.035.013.08a.694.694,0,0,0,.153.128,3.705,3.705,0,0,0,.368.23,3.956,3.956,0,0,0,.679.291A4.951,4.951,0,0,1,282.963,419.622Z" transform="translate(-280.83 -418.405)" fill="#263238"/>
                            </g>
                          </g>
                        </g>
                      </g>
                    </g>
                  </g>
                </g>
              </g>
            </g>
            <g id="Grupo_883821" data-name="Grupo 883821" transform="translate(4.294 57.535)">
              <path id="Trazado_618314" data-name="Trazado 618314" d="M222.737,266.135a53.672,53.672,0,0,0,.986,6.576c.658,2.712.411,16.421.411,16.421l-1.111,5.261a36.737,36.737,0,0,0-.775,8.745l.43,13.676h6.1l5.3-25.065,6.406-23.255-8.872-7.044Z" transform="translate(-222.23 -261.45)" fill="#263238"/>
              <path id="Trazado_618315" data-name="Trazado 618315" d="M264.383,275.856l3.3,1.019,1.55,15.693.95,7.817-2.314,25.483h-6.728l-.981-16.062a13.557,13.557,0,0,1-.007-1.533l.456-8.695L258.2,289.426l-.184-13.937Z" transform="translate(-246.132 -270.828)" fill="#263238"/>
              <g id="Grupo_883820" data-name="Grupo 883820" transform="translate(13.063 7.521)">
                <path id="Trazado_618316" data-name="Trazado 618316" d="M265.323,284.1a.756.756,0,0,1-.01.187l-.061.532c-.056.461-.148,1.128-.271,1.95-.244,1.644-.62,3.911-1.125,6.4s-1.053,4.72-1.5,6.322c-.221.8-.41,1.447-.551,1.891-.066.206-.121.375-.165.509a.754.754,0,0,1-.068.174.736.736,0,0,1,.035-.184l.133-.518.5-1.9c.413-1.609.94-3.842,1.445-6.325s.9-4.744,1.173-6.382l.325-1.941.094-.527A.771.771,0,0,1,265.323,284.1Z" transform="translate(-261.576 -284.103)" fill="#455a64"/>
              </g>
            </g>
            <g id="Grupo_884002" data-name="Grupo 884002">
              <g id="Grupo_883984" data-name="Grupo 883984" transform="translate(7.544)">
                <g id="Grupo_883983" data-name="Grupo 883983">
                  <g id="Grupo_883982" data-name="Grupo 883982">
                    <g id="Grupo_883824" data-name="Grupo 883824">
                      <g id="Grupo_883823" data-name="Grupo 883823">
                        <g id="Grupo_883822" data-name="Grupo 883822">
                          <path id="Trazado_618317" data-name="Trazado 618317" d="M254.325,109.568c.057-.265.324-.421.546-.581a2.7,2.7,0,0,0,1.067-2.56,2.737,2.737,0,0,0-1.819-2.113,2.075,2.075,0,0,1-.669-.275c-.471-.374-.32-1.106-.5-1.676-.38-1.207-2.126-1.444-2.752-2.547a4.167,4.167,0,0,1-.22-2.267,2.156,2.156,0,0,0-.791-2.052c-.365-.207-.82-.22-1.176-.441-.735-.456-.7-1.493-.975-2.306a2.973,2.973,0,0,0-3.23-1.9,1.292,1.292,0,0,0-.882-1.753c-1.711-.716-1.82.5-2.609-.259a2.612,2.612,0,0,0-3.214-.226,7.483,7.483,0,0,1-.864.653,5.085,5.085,0,0,1-1.286.32A3.813,3.813,0,0,0,232.02,93.2l10.81,18.592c.375,1.768-.72,2.561.812,3.553a21.229,21.229,0,0,0,3,.888,5.178,5.178,0,0,0,2.049-.069c.953-.416,2.389-1.046,2.769-2a2.7,2.7,0,0,0,3.054-.693,2.6,2.6,0,0,0,.15-3.085C254.493,110.131,254.263,109.864,254.325,109.568Z" transform="translate(-232.02 -88.163)" fill="#263238"/>
                        </g>
                      </g>
                    </g>
                    <g id="Grupo_883981" data-name="Grupo 883981" transform="translate(0.05 4.296)">
                      <g id="Grupo_883835" data-name="Grupo 883835">
                        <g id="Grupo_883834" data-name="Grupo 883834">
                          <g id="Grupo_883833" data-name="Grupo 883833">
                            <g id="Grupo_883832" data-name="Grupo 883832">
                              <g id="Grupo_883831" data-name="Grupo 883831">
                                <g id="Grupo_883830" data-name="Grupo 883830">
                                  <g id="Grupo_883829" data-name="Grupo 883829">
                                    <g id="Grupo_883828" data-name="Grupo 883828">
                                      <g id="Grupo_883827" data-name="Grupo 883827">
                                        <g id="Grupo_883826" data-name="Grupo 883826">
                                          <g id="Grupo_883825" data-name="Grupo 883825">
                                            <path id="Trazado_618318" data-name="Trazado 618318" d="M232.32,104.622l-.15-1.274,7.634-2.181c2.373-.473,5.2,1.654,5.579,4.011a41.842,41.842,0,0,1,.713,7.828c-.252,4.012-3.277,4.8-3.277,4.8l.7,6.823-.12,1.755-7.555-6.675Z" transform="translate(-232.17 -101.101)" fill="#ffbf9d"/>
                                          </g>
                                        </g>
                                      </g>
                                    </g>
                                  </g>
                                </g>
                              </g>
                            </g>
                          </g>
                        </g>
                      </g>
                      <g id="Grupo_883950" data-name="Grupo 883950" transform="translate(5.001 15.81)">
                        <g id="Grupo_883949" data-name="Grupo 883949">
                          <g id="Grupo_883948" data-name="Grupo 883948">
                            <g id="Grupo_883947" data-name="Grupo 883947">
                              <g id="Grupo_883946" data-name="Grupo 883946">
                                <g id="Grupo_883945" data-name="Grupo 883945">
                                  <g id="Grupo_883944" data-name="Grupo 883944">
                                    <g id="Grupo_883943" data-name="Grupo 883943">
                                      <g id="Grupo_883942" data-name="Grupo 883942">
                                        <g id="Grupo_883941" data-name="Grupo 883941">
                                          <g id="Grupo_883940" data-name="Grupo 883940">
                                            <g id="Grupo_883939" data-name="Grupo 883939">
                                              <g id="Grupo_883938" data-name="Grupo 883938">
                                                <g id="Grupo_883937" data-name="Grupo 883937">
                                                  <g id="Grupo_883936" data-name="Grupo 883936">
                                                    <g id="Grupo_883935" data-name="Grupo 883935">
                                                      <g id="Grupo_883934" data-name="Grupo 883934">
                                                        <g id="Grupo_883933" data-name="Grupo 883933">
                                                          <path id="Trazado_618324" data-name="Trazado 618324" d="M252.88,149.625a10.818,10.818,0,0,1-5.647-.908s1.647,2.777,5.764,2.029Z" transform="translate(-247.233 -148.717)" fill="#ff9a6c"/>
                                                        </g>
                                                      </g>
                                                    </g>
                                                  </g>
                                                </g>
                                              </g>
                                            </g>
                                          </g>
                                        </g>
                                      </g>
                                    </g>
                                  </g>
                                </g>
                              </g>
                            </g>
                          </g>
                        </g>
                      </g>
                    </g>
                  </g>
                </g>
              </g>
              <g id="Grupo_883997" data-name="Grupo 883997" transform="translate(0 3.17)">
                <g id="Grupo_883987" data-name="Grupo 883987" transform="translate(0 0.158)">
                  <g id="Grupo_883986" data-name="Grupo 883986">
                    <g id="Grupo_883985" data-name="Grupo 883985">
                      <path id="Trazado_618327" data-name="Trazado 618327" d="M230.254,100.3a6.9,6.9,0,0,0-3.787-2.109L220,99.22l-1.724,1.072c-.142-.378-.234-.613-.234-.613a2.837,2.837,0,0,0-3.759.259,4.757,4.757,0,0,0-.85,2.662c.01.273.055.6-.181.762a.869.869,0,0,1-.284.1,3.1,3.1,0,0,0-2.273,3.7.775.775,0,0,1,.052.308.829.829,0,0,1-.269.414,2.538,2.538,0,0,0-.3,3,3.127,3.127,0,0,1,.49.877c.131.58-.3,1.12-.626,1.625a3.978,3.978,0,0,0,.219,4.95c.32.313.726.587.861,1a2.329,2.329,0,0,1,.069.628,2.467,2.467,0,0,0,1.846,2.419c.628.1,1.373-.1,1.838.312a2.507,2.507,0,0,1,.432.66,2.413,2.413,0,0,0,2.732.964,2.14,2.14,0,0,0,1.44-2.36,2.927,2.927,0,0,0,1.876-2.915s-.71-3.735-.4-4.767-.533-3.167-1-4.2-.107-3.5-.047-4.48a3.324,3.324,0,0,0-.13-.829h0v0c-.058-.235-.131-.5-.216-.782a7.07,7.07,0,0,1-.065-.783,1.457,1.457,0,0,1,1.872-1.366,2.573,2.573,0,0,0,.707.089,2.538,2.538,0,0,0,1.961-.972,3.794,3.794,0,0,0,3.592.758,9.522,9.522,0,0,0,1.778,1.757,3.478,3.478,0,0,0,2.423.666A6.1,6.1,0,0,0,230.254,100.3Z" transform="translate(-209.298 -98.186)" fill="#263238"/>
                    </g>
                  </g>
                </g>
                <g id="Grupo_883991" data-name="Grupo 883991" transform="translate(10.243)">
                  <g id="Grupo_883990" data-name="Grupo 883990">
                    <g id="Grupo_883989" data-name="Grupo 883989">
                      <g id="Grupo_883988" data-name="Grupo 883988">
                        <path id="Trazado_618328" data-name="Trazado 618328" d="M250.236,101.265c-.012,0,0-.145-.034-.4a2.539,2.539,0,0,0-.383-1.03,2.387,2.387,0,0,0-1.3-1,2.545,2.545,0,0,0-2.017.216l-.046.027-.036-.039a3.728,3.728,0,0,0-.923-.724,3.819,3.819,0,0,0-2.443-.43,3.709,3.709,0,0,0-1.834.884,3.885,3.885,0,0,0-.857,1.084c-.151.292-.206.467-.218.462a.483.483,0,0,1,.033-.129,2.76,2.76,0,0,1,.139-.356,3.706,3.706,0,0,1,.84-1.13,3.744,3.744,0,0,1,1.877-.934,3.9,3.9,0,0,1,2.529.435,3.8,3.8,0,0,1,.956.752l-.082-.013a2.645,2.645,0,0,1,2.119-.213,2.491,2.491,0,0,1,1.69,2.128,1.7,1.7,0,0,1,0,.3A.334.334,0,0,1,250.236,101.265Z" transform="translate(-240.147 -97.71)" fill="#455a64"/>
                      </g>
                    </g>
                  </g>
                </g>
                <g id="Grupo_883995" data-name="Grupo 883995" transform="translate(1.791 3.874)">
                  <g id="Grupo_883994" data-name="Grupo 883994">
                    <g id="Grupo_883993" data-name="Grupo 883993">
                      <g id="Grupo_883992" data-name="Grupo 883992">
                        <path id="Trazado_618329" data-name="Trazado 618329" d="M214.693,115.23a8.716,8.716,0,0,0,1.552-.268,6.162,6.162,0,0,0,3.089-2.055l.137-.177.019-.025.03,0a3.484,3.484,0,0,0,1.825-.709,3.725,3.725,0,0,0,1.04-1.211,4.052,4.052,0,0,0,.423-1.405.321.321,0,0,1,0,.1,2.1,2.1,0,0,1-.019.3,3.176,3.176,0,0,1-.328,1.047,3.7,3.7,0,0,1-1.048,1.263,3.546,3.546,0,0,1-1.889.745l.049-.027-.14.181a5.876,5.876,0,0,1-1.581,1.387,6.029,6.029,0,0,1-1.587.676,5.62,5.62,0,0,1-1.15.185c-.137.01-.244,0-.317,0A.349.349,0,0,1,214.693,115.23Z" transform="translate(-214.693 -109.38)" fill="#455a64"/>
                      </g>
                    </g>
                  </g>
                </g>
                <g id="Grupo_883996" data-name="Grupo 883996" transform="translate(2.709 4.369)">
                  <path id="Trazado_618330" data-name="Trazado 618330" d="M217.457,127.492a2.009,2.009,0,0,0,.238.172,1.333,1.333,0,0,0,.328.13,1.448,1.448,0,0,0,.477.03,1.3,1.3,0,0,0,.561-.19,1.095,1.095,0,0,0,.445-.53,1.361,1.361,0,0,0,.06-.793,1.252,1.252,0,0,0-.473-.74l-.071-.051h.087a2.675,2.675,0,0,0,1.347-.392,3.612,3.612,0,0,0,1.114-1.1c.08-.112.143-.237.214-.358s.127-.252.176-.386a3.956,3.956,0,0,0,.237-.835,6.376,6.376,0,0,0,.038-1.811,17.878,17.878,0,0,0-.563-2.652l-.006-.024.02-.014a6.64,6.64,0,0,0,2.089-2.39,7.072,7.072,0,0,0,.516-1.265c.051-.207.117-.4.147-.6l.055-.283c.018-.092.024-.184.035-.273a6.678,6.678,0,0,0,0-1.674c-.021-.2-.06-.342-.075-.444l-.02-.115a.208.208,0,0,1,0-.04s.058.206.123.595a6.453,6.453,0,0,1,.026,1.682c-.012.089-.017.182-.034.275l-.052.285c-.029.2-.094.393-.144.6a7.116,7.116,0,0,1-.513,1.277,6.675,6.675,0,0,1-2.1,2.419l.014-.038a17.755,17.755,0,0,1,.567,2.662,6.422,6.422,0,0,1-.039,1.831,4,4,0,0,1-.242.849c-.049.137-.119.263-.179.392s-.136.249-.217.363a3.672,3.672,0,0,1-1.138,1.119,2.723,2.723,0,0,1-1.38.395l.016-.051a1.3,1.3,0,0,1,.49.775,1.4,1.4,0,0,1-.068.821,1.126,1.126,0,0,1-.467.546,1.322,1.322,0,0,1-.578.189,1.459,1.459,0,0,1-.486-.038,1.313,1.313,0,0,1-.33-.139.986.986,0,0,1-.176-.133C217.474,127.511,217.457,127.492,217.457,127.492Z" transform="translate(-217.457 -110.868)" fill="#455a64"/>
                </g>
              </g>
              <g id="Grupo_883999" data-name="Grupo 883999" transform="translate(20.748 7.19)">
                <g id="Grupo_883998" data-name="Grupo 883998">
                  <path id="Trazado_618331" data-name="Trazado 618331" d="M275.913,129.079a.252.252,0,0,1,.039-.028l.117-.075a1.964,1.964,0,0,0,.187-.128,2.983,2.983,0,0,0,.245-.191,4.466,4.466,0,0,0,1.565-2.914,4.063,4.063,0,0,0-.147-1.6,4.431,4.431,0,0,0-.846-1.576,4.271,4.271,0,0,0-1.541-1.178l-.046-.021.035-.036A3.987,3.987,0,0,0,276.6,119.3a3.831,3.831,0,0,0,.078-.761,3.59,3.59,0,0,0-.068-.748,3.539,3.539,0,0,0-.21-.7,3.806,3.806,0,0,0-.332-.638,4.015,4.015,0,0,0-2.058-1.631l-.034-.011.015-.032a3.613,3.613,0,0,0,.232-2.45,3.5,3.5,0,0,0-.979-1.651,3.639,3.639,0,0,0-1.038-.7c-.133-.059-.237-.1-.309-.122l-.081-.028-.027-.011a2.625,2.625,0,0,1,.424.143,3.563,3.563,0,0,1,1.056.689,3.519,3.519,0,0,1,1,1.664,3.658,3.658,0,0,1-.225,2.49l-.018-.044a4.067,4.067,0,0,1,2.1,1.653,3.864,3.864,0,0,1,.339.649,3.586,3.586,0,0,1,.215.718,3.661,3.661,0,0,1,.069.762,3.9,3.9,0,0,1-.08.774,4.05,4.05,0,0,1-1.095,2.068l-.01-.057a4.335,4.335,0,0,1,1.564,1.2,4.486,4.486,0,0,1,.854,1.6,4.1,4.1,0,0,1,.142,1.618,4.478,4.478,0,0,1-.382,1.35,4.411,4.411,0,0,1-1.222,1.577,2.924,2.924,0,0,1-.25.187,1.845,1.845,0,0,1-.192.123l-.12.07A.263.263,0,0,1,275.913,129.079Z" transform="translate(-271.788 -109.819)" fill="#455a64"/>
                </g>
              </g>
            </g>
            <g id="Grupo_884006" data-name="Grupo 884006" transform="translate(4.076 21.438)">
              <path id="Trazado_618334" data-name="Trazado 618334" d="M224.28,157.676a32.36,32.36,0,0,1,2.956-3.064,4.3,4.3,0,0,0,1.382-1.882L236.3,155.9l1.239,2.454,2.013,2.726,1.627,2.289a10.676,10.676,0,0,1,1.945,5.4l.757,10.327.447,20.266s-7.366-.265-9.273-1.374a18.379,18.379,0,0,0-3.4-1.295,13.187,13.187,0,0,0-8.122.171l-1.964.68s1.02-9.669,1.685-12.508c.164-.7.3-1.327.407-1.878a23.4,23.4,0,0,1,1.937-5.719h0l-2.555-12.416a13.575,13.575,0,0,1,.1-4.272A16.545,16.545,0,0,1,224.28,157.676Z" transform="translate(-221.574 -152.73)" fill="#ee4e5d"/>
              <g id="Grupo_884004" data-name="Grupo 884004" transform="translate(7.91 2.979)">
                <path id="Trazado_618335" data-name="Trazado 618335" d="M245.4,161.708l5.741,2.368.865-2.085.551,1.206" transform="translate(-245.399 -161.706)" fill="#ee4e5d"/>
                <g id="Grupo_884003" data-name="Grupo 884003">
                  <path id="Trazado_618336" data-name="Trazado 618336" d="M252.556,163.194a1.466,1.466,0,0,1-.176-.307l-.429-.874.108,0-.842,2.094-.031.077-.078-.032-1.216-.5c-1.25-.516-2.378-.991-3.191-1.344l-.96-.426a1.664,1.664,0,0,1-.343-.178,1.66,1.66,0,0,1,.369.116l.98.375c.825.323,1.961.782,3.211,1.3l1.213.5-.109.045.887-2.076.055-.128.053.126.38.9A1.432,1.432,0,0,1,252.556,163.194Z" transform="translate(-245.399 -161.703)" fill="#ee4e5d"/>
                </g>
              </g>
              <g id="Grupo_884005" data-name="Grupo 884005" transform="translate(5.947 25.595)">
                <path id="Trazado_618337" data-name="Trazado 618337" d="M248.07,233.8a1.556,1.556,0,0,1-.369-.067c-.235-.053-.572-.144-.985-.268a24.315,24.315,0,0,1-6.1-2.827c-.362-.235-.649-.434-.841-.579a1.564,1.564,0,0,1-.29-.238,1.572,1.572,0,0,1,.328.182l.868.531a30.935,30.935,0,0,0,6.073,2.815l.966.319A1.584,1.584,0,0,1,248.07,233.8Z" transform="translate(-239.484 -229.817)" fill="#ee4e5d"/>
              </g>
            </g>
            <g id="Grupo_884012" data-name="Grupo 884012" transform="translate(20.043 23.152)">
              <g id="Grupo_884011" data-name="Grupo 884011" transform="translate(8.57)">
                <path id="Trazado_618338" data-name="Trazado 618338" d="M296.641,165.323s.535-1.426,1-2.353a19.719,19.719,0,0,0,.927-2.46s-.5-1.319-.178-1.747.528-.357.528-.357.181-.606.736-.5.376,1.416.376,1.416l.178,3.04-.554,4.881-3.189,2.809-.392-1.409a1.945,1.945,0,0,1-.582-1.49,4.333,4.333,0,0,1,.047-1.154s-.032-.492-.027-1.455a2.487,2.487,0,0,1,.318-1.4.457.457,0,0,1,.85.284C296.677,164.075,296.641,165.323,296.641,165.323Z" transform="translate(-295.477 -157.895)" fill="#ffbf9d"/>
                <g id="Grupo_884007" data-name="Grupo 884007" transform="translate(3.726 2.569)">
                  <path id="Trazado_618339" data-name="Trazado 618339" d="M307.655,168.318a272.613,272.613,0,0,0-.951-2.686,5.83,5.83,0,0,1,.951,2.686Z" transform="translate(-306.699 -165.631)" fill="#ff9a6c"/>
                </g>
                <g id="Grupo_884008" data-name="Grupo 884008" transform="translate(2.106 2.558)">
                  <path id="Trazado_618340" data-name="Trazado 618340" d="M301.852,171.319c-.007,0-.052-.089-.022-.259a1.194,1.194,0,0,1,.367-.6,1.911,1.911,0,0,0,.581-.789,6.023,6.023,0,0,0,.3-1.191,2.708,2.708,0,0,0-.223-1.187,1.987,1.987,0,0,1-.125-1.04.888.888,0,0,1,.405-.582c.152-.083.252-.072.252-.064s-.089.028-.215.121a.868.868,0,0,0-.322.549,1.967,1.967,0,0,0,.156.965,2.737,2.737,0,0,1,.245,1.253,5.561,5.561,0,0,1-.326,1.231,1.493,1.493,0,0,1-.293.49c-.121.132-.246.233-.352.331a1.24,1.24,0,0,0-.387.531C301.849,171.225,301.868,171.317,301.852,171.319Z" transform="translate(-301.82 -165.599)" fill="#ff9a6c"/>
                </g>
                <g id="Grupo_884009" data-name="Grupo 884009" transform="translate(3.318 0.515)">
                  <path id="Trazado_618341" data-name="Trazado 618341" d="M305.617,161.5a3.482,3.482,0,0,1,.016-2.058,30.37,30.37,0,0,1-.016,2.058Z" transform="translate(-305.469 -159.447)" fill="#ff9a6c"/>
                </g>
                <g id="Grupo_884010" data-name="Grupo 884010" transform="translate(2.463 5.054)">
                  <path id="Trazado_618342" data-name="Trazado 618342" d="M303.864,173.423c-.034.036-.217-.093-.475-.127s-.469.029-.492-.016.2-.2.517-.155S303.9,173.395,303.864,173.423Z" transform="translate(-302.895 -173.116)" fill="#ff9a6c"/>
                </g>
              </g>
              <path id="Trazado_618343" data-name="Trazado 618343" d="M269.665,169.678l8.037,8.64,1.065-1.432,3.428-.018s-.461,7.731-1.9,10.5a5.833,5.833,0,0,1-4.284,3.053Z" transform="translate(-269.665 -165.766)" fill="#de4554"/>
            </g>
            <g id="Grupo_884013" data-name="Grupo 884013" transform="translate(20.043 27.064)">
              <path id="Trazado_618344" data-name="Trazado 618344" d="M276.079,191.867a1.279,1.279,0,0,1-.023-.241c-.008-.175-.018-.406-.03-.693-.015-.622-.036-1.487-.063-2.549s-.051-2.357-.137-3.776a27.562,27.562,0,0,0-.6-4.572,18.76,18.76,0,0,0-1.539-4.334,24,24,0,0,0-1.972-3.209c-.627-.873-1.161-1.562-1.517-2.048-.18-.241-.313-.434-.4-.563a1.267,1.267,0,0,1-.131-.2,1.284,1.284,0,0,1,.159.183l.43.543c.372.473.921,1.15,1.563,2.017a22.934,22.934,0,0,1,2.015,3.208A18.464,18.464,0,0,1,275.4,180a26.733,26.733,0,0,1,.587,4.6c.078,1.423.093,2.707.1,3.783s.006,1.928.008,2.55c0,.288,0,.518,0,.694A1.272,1.272,0,0,1,276.079,191.867Z" transform="translate(-269.665 -169.678)" fill="#263238"/>
            </g>
            <g id="Grupo_884035" data-name="Grupo 884035" transform="translate(5.566 23.428)">
              <g id="Grupo_884015" data-name="Grupo 884015" transform="translate(24.952)">
                <path id="Trazado_618345" data-name="Trazado 618345" d="M309.142,160.425l-7.47,17.191s6.091-2.42,9.428-2.837l8.131-15.836A42.328,42.328,0,0,0,309.142,160.425Z" transform="translate(-301.519 -158.87)" fill="#fff"/>
                <g id="Grupo_884014" data-name="Grupo 884014">
                  <path id="Trazado_618346" data-name="Trazado 618346" d="M308.834,160.279s.054-.023.168-.061.286-.1.51-.162c.448-.136,1.117-.308,1.986-.482a55.286,55.286,0,0,1,7.421-.842l.116-.007-.053.1-8.113,15.845-.02.039-.046.007-.285.044a32.788,32.788,0,0,0-4.769,1.23c-1.521.493-2.979,1.017-4.355,1.553l-.183.071.079-.179,5.408-12.362,1.565-3.542.421-.938.111-.239a.439.439,0,0,1,.041-.078.571.571,0,0,1-.031.088l-.1.249-.4.956-1.526,3.569L301.439,177.5l-.1-.108c1.379-.541,2.837-1.067,4.363-1.564a32.713,32.713,0,0,1,4.8-1.239l.289-.044-.066.046,8.149-15.827.063.1a58.305,58.305,0,0,0-7.415.783c-.869.163-1.539.323-1.989.447-.228.057-.393.111-.51.141S308.834,160.279,308.834,160.279Z" transform="translate(-301.211 -158.724)" fill="#263238"/>
                </g>
              </g>
              <g id="Grupo_884017" data-name="Grupo 884017" transform="translate(17.696 8.431)">
                <path id="Trazado_618347" data-name="Trazado 618347" d="M295.523,184.119l-2.252.4-3.395.37a5.815,5.815,0,0,0-1.109,0,20.363,20.363,0,0,0-2.286,1.378l-.975,1.109-5.774,3.128,3.072,4.469,4.013-3.665s4.269-.975,4.5-1.075a14.763,14.763,0,0,0,1.445-1.378l.571-.437,1.155-1.127a.988.988,0,0,0,.257-.991l.331-.262a.879.879,0,0,0,.24-1.082C295.892,184.556,295.523,184.119,295.523,184.119Z" transform="translate(-279.608 -184.118)" fill="#ffbf9d"/>
                <g id="Grupo_884016" data-name="Grupo 884016">
                  <path id="Trazado_618348" data-name="Trazado 618348" d="M295.272,184.117a.438.438,0,0,1,.118.222.5.5,0,0,1-.024.312.793.793,0,0,1-.281.328l.008-.033a.91.91,0,0,1-.2,1.088c-.118.1-.241.2-.37.3l.014-.045a1.032,1.032,0,0,1,0,.6,1.191,1.191,0,0,1-.374.545l-1.039,1.023,0,0,0,0-.569.44.007-.007c-.32.338-.659.691-1.032,1.046-.094.088-.19.177-.295.262a.526.526,0,0,1-.189.109c-.07.024-.13.037-.2.056l-.795.2-3.469.817.036-.019-4.01,3.668-.073.067-.056-.081-1.381-2.008-1.691-2.462-.054-.078.084-.045,5.778-3.12-.021.017.978-1.107.007-.007.008,0c.583-.386,1.142-.748,1.688-1.07q.2-.121.413-.227a1.059,1.059,0,0,1,.23-.087,1.917,1.917,0,0,1,.233-.023,7.411,7.411,0,0,1,.876.029h-.012l2.373-.246.97-.1c.3-.043.569-.095.813-.133l1.116-.183.287-.043a.428.428,0,0,1,.1-.009.6.6,0,0,1-.1.026l-.29.06-1.108.215c-.241.045-.506.1-.8.148l-.969.113-2.372.271h-.012a7.414,7.414,0,0,0-.86-.022,1.691,1.691,0,0,0-.216.023.933.933,0,0,0-.2.077q-.2.1-.4.226c-.54.323-1.1.688-1.675,1.076l.014-.012-.972,1.112-.009.01-.012.007-5.77,3.136.03-.124,1.692,2.461,1.38,2.008-.129-.015,4.018-3.66.016-.014.021,0,3.471-.8.793-.194c.062-.018.131-.034.187-.052a.392.392,0,0,0,.15-.086c.1-.079.194-.166.287-.252.371-.349.713-.7,1.035-1.033l0,0,0,0,.573-.434-.005,0,1.049-1.012a.985.985,0,0,0,.363-1.052l-.009-.027.023-.018.371-.292a.833.833,0,0,0,.232-.335.855.855,0,0,0-.03-.673l-.01-.021.018-.013a.761.761,0,0,0,.274-.3.476.476,0,0,0,.035-.29A.79.79,0,0,0,295.272,184.117Z" transform="translate(-279.357 -184.116)" fill="#ff9a6c"/>
                </g>
              </g>
              <g id="Grupo_884018" data-name="Grupo 884018" transform="translate(26.211 9.216)">
                <path id="Trazado_618349" data-name="Trazado 618349" d="M306.767,186.5c.007.04-.4.2-.869.474a3.635,3.635,0,0,1-.892.444,2.48,2.48,0,0,1,.808-.6A1.72,1.72,0,0,1,306.767,186.5Z" transform="translate(-305.004 -186.481)" fill="#ff9a6c"/>
              </g>
              <g id="Grupo_884020" data-name="Grupo 884020" transform="translate(29.585 9.072)">
                <path id="Trazado_618350" data-name="Trazado 618350" d="M315.166,187.638a32.806,32.806,0,0,0,3.983-1.581" transform="translate(-315.166 -186.053)" fill="#ffbf9d"/>
                <g id="Grupo_884019" data-name="Grupo 884019">
                  <path id="Trazado_618351" data-name="Trazado 618351" d="M319.148,186.05a14.737,14.737,0,0,1-3.983,1.581c-.015-.047.888-.369,1.985-.805S319.127,186.005,319.148,186.05Z" transform="translate(-315.165 -186.046)" fill="#ff9a6c"/>
                </g>
              </g>
              <g id="Grupo_884022" data-name="Grupo 884022" transform="translate(29.988 10.596)">
                <path id="Trazado_618352" data-name="Trazado 618352" d="M316.38,192.092a14.331,14.331,0,0,0,2.961-1.445" transform="translate(-316.38 -190.644)" fill="#ffbf9d"/>
                <g id="Grupo_884021" data-name="Grupo 884021">
                  <path id="Trazado_618353" data-name="Trazado 618353" d="M319.341,190.641a7.566,7.566,0,0,1-2.961,1.445c-.016-.047.671-.316,1.484-.715S319.313,190.6,319.341,190.641Z" transform="translate(-316.379 -190.637)" fill="#ff9a6c"/>
                </g>
              </g>
              <g id="Grupo_884024" data-name="Grupo 884024" transform="translate(30.188 12.337)">
                <path id="Trazado_618354" data-name="Trazado 618354" d="M316.985,196.759a5.168,5.168,0,0,0,1.538-.864" transform="translate(-316.984 -195.891)" fill="#ffbf9d"/>
                <g id="Grupo_884023" data-name="Grupo 884023">
                  <path id="Trazado_618355" data-name="Trazado 618355" d="M318.522,195.887c.031.034-.253.329-.69.573a1.656,1.656,0,0,1-.849.29,37.068,37.068,0,0,1,1.538-.864Z" transform="translate(-316.984 -195.882)" fill="#ff9a6c"/>
                </g>
              </g>
              <g id="Grupo_884026" data-name="Grupo 884026" transform="translate(28.643 9.851)">
                <path id="Trazado_618356" data-name="Trazado 618356" d="M312.332,188.443a.994.994,0,0,1,.729,1.215" transform="translate(-312.331 -188.427)" fill="#ffbf9d"/>
                <g id="Grupo_884025" data-name="Grupo 884025">
                  <path id="Trazado_618357" data-name="Trazado 618357" d="M313.06,189.625a2.183,2.183,0,0,0-.184-.715c-.208-.35-.56-.453-.545-.5,0-.022.1-.029.243.026a.931.931,0,0,1,.577.961C313.132,189.55,313.081,189.632,313.06,189.625Z" transform="translate(-312.33 -188.395)" fill="#ff9a6c"/>
                </g>
              </g>
              <g id="Grupo_884028" data-name="Grupo 884028" transform="translate(29.321 11.46)">
                <path id="Trazado_618358" data-name="Trazado 618358" d="M314.4,193.255a1,1,0,0,1,.18.838" transform="translate(-314.388 -193.25)" fill="#ffbf9d"/>
                <g id="Grupo_884027" data-name="Grupo 884027">
                  <path id="Trazado_618359" data-name="Trazado 618359" d="M314.559,194.083c-.048-.014-.031-.2-.08-.421s-.138-.385-.1-.417.213.113.269.381S314.6,194.1,314.559,194.083Z" transform="translate(-314.37 -193.241)" fill="#ff9a6c"/>
                </g>
              </g>
              <g id="Grupo_884030" data-name="Grupo 884030" transform="translate(29.57 12.751)">
                <path id="Trazado_618360" data-name="Trazado 618360" d="M315.177,197.144a.7.7,0,0,1,.093.535" transform="translate(-315.159 -197.139)" fill="#ffbf9d"/>
                <g id="Grupo_884029" data-name="Grupo 884029">
                  <path id="Trazado_618361" data-name="Trazado 618361" d="M315.233,197.669c-.047-.014-.053-.131-.078-.262s-.055-.244-.015-.273.155.068.186.243S315.277,197.684,315.233,197.669Z" transform="translate(-315.122 -197.128)" fill="#ff9a6c"/>
                </g>
              </g>
              <path id="Trazado_618362" data-name="Trazado 618362" d="M228.584,190.272s3.944,10.939,5.242,12.92,1.94,2.544,3.92,2.2,10.892-3.3,10.892-3.3l-.149-1.919-8.245,1.919-4.644-.964-4.24-6.6Z" transform="translate(-227.746 -179.797)" opacity="0.3"/>
              <g id="Grupo_884032" data-name="Grupo 884032" transform="translate(0 1.34)">
                <path id="Trazado_618363" data-name="Trazado 618363" d="M243.983,176.313l-.438-.722-2.126.511-3.214.726s-1.866-10.99-4.562-12.752-4.665-1.452-6.324,1.659-.766,4.923-.766,4.923,4.29,12.112,7.09,14.584,12.026-2.193,12.026-2.193l1.871-1.569Z" transform="translate(-226.23 -162.922)" fill="#de4554"/>
                <g id="Grupo_884031" data-name="Grupo 884031">
                  <path id="Trazado_618364" data-name="Trazado 618364" d="M243.813,176.151a.634.634,0,0,1,.066.083l.183.254.7,1,2.646,3.8.025.037-.034.029-1.865,1.574-.005,0-.006,0a38.439,38.439,0,0,1-4.944,2.031,21.122,21.122,0,0,1-2.973.755,10.815,10.815,0,0,1-1.619.153,4.951,4.951,0,0,1-1.671-.234,2.6,2.6,0,0,1-.4-.173l-.194-.105c-.061-.041-.119-.088-.179-.131a1.933,1.933,0,0,1-.321-.3l-.3-.32c-.188-.225-.355-.469-.535-.706s-.323-.5-.487-.75a34.458,34.458,0,0,1-1.732-3.239c-1.083-2.255-2.072-4.663-3.032-7.155-.289-.755-.57-1.506-.832-2.238l0,.009a4.3,4.3,0,0,1-.209-2.079,7.722,7.722,0,0,1,.533-1.971,9.948,9.948,0,0,1,.935-1.766,5.149,5.149,0,0,1,1.342-1.427,2.957,2.957,0,0,1,1.836-.525,4.819,4.819,0,0,1,1.79.517c.27.143.539.284.791.448a3.011,3.011,0,0,1,.7.568,7.135,7.135,0,0,1,.957,1.46,21.532,21.532,0,0,1,1.216,3.049c.322,1,.592,1.965.825,2.889.466,1.847.805,3.517,1.057,4.961l-.059-.04,3.282-.727,2.064-.479.013,0,.007.011.321.547c.07.122.1.185.1.185s-.042-.056-.117-.175l-.337-.538.02.008-2.057.511-3.276.756-.05.011-.009-.051c-.261-1.438-.61-3.105-1.083-4.946-.237-.921-.509-1.884-.834-2.877a21.511,21.511,0,0,0-1.217-3.023,7,7,0,0,0-.938-1.425,2.845,2.845,0,0,0-.673-.539c-.249-.161-.512-.3-.778-.439a4.661,4.661,0,0,0-1.728-.5,2.791,2.791,0,0,0-1.735.5,4.987,4.987,0,0,0-1.295,1.384,9.764,9.764,0,0,0-.918,1.737,7.541,7.541,0,0,0-.519,1.927,4.159,4.159,0,0,0,.193,1.983l0,.009c.261.729.542,1.48.831,2.234.958,2.488,1.945,4.894,3.022,7.144a34.522,34.522,0,0,0,1.719,3.226c.162.248.307.508.481.743s.341.474.524.695l.294.311a1.842,1.842,0,0,0,.306.289c.056.041.109.085.166.124l.182.1a2.476,2.476,0,0,0,.379.165,4.809,4.809,0,0,0,1.619.23,10.7,10.7,0,0,0,1.6-.147,21.1,21.1,0,0,0,2.955-.74,38.832,38.832,0,0,0,4.935-2l-.011.007,1.875-1.563-.009.065-2.609-3.829-.682-1.012-.172-.262A.594.594,0,0,1,243.813,176.151Z" transform="translate(-226.06 -162.759)" fill="#de4554"/>
                </g>
              </g>
              <g id="Grupo_884033" data-name="Grupo 884033" transform="translate(10.403 15.254)">
                <path id="Trazado_618365" data-name="Trazado 618365" d="M257.443,210.2a3.047,3.047,0,0,1-.049-.851,9.119,9.119,0,0,1,1.036-3.958,3.052,3.052,0,0,1,.46-.718,6.526,6.526,0,0,1-.35.772,11.485,11.485,0,0,0-1.024,3.911A6.511,6.511,0,0,1,257.443,210.2Z" transform="translate(-257.391 -204.668)" fill="#263238"/>
              </g>
              <g id="Grupo_884034" data-name="Grupo 884034" transform="translate(15.358 14.567)">
                <path id="Trazado_618366" data-name="Trazado 618366" d="M276.4,209.5c-.009.008-.092-.069-.236-.216s-.346-.365-.587-.642a19.107,19.107,0,0,1-1.725-2.3,12.049,12.049,0,0,1-1.253-2.587,7.021,7.021,0,0,1-.232-.841,1.148,1.148,0,0,1-.046-.317c.03-.007.135.435.393,1.117A14.3,14.3,0,0,0,274,206.249a25.881,25.881,0,0,0,1.672,2.311A10.24,10.24,0,0,1,276.4,209.5Z" transform="translate(-272.315 -202.597)" fill="#263238"/>
              </g>
            </g>
          </g>
        </g>
      </g>
    </g>
  </g>
</svg>
