<svg xmlns="http://www.w3.org/2000/svg" width="326.454" height="326.454" viewBox="0 0 326.454 326.454">
  <g id="Grupo_898329" data-name="Grupo 898329" transform="translate(-285 -432.546)">
    <g id="Grupo_896291" data-name="Grupo 896291" transform="translate(-50 97.449)">
      <g id="Illustration" transform="translate(335 335.097)">
        <g id="Youth_rights" data-name="Youth rights" transform="translate(0 0)">
          <path id="Trazado_664365" data-name="Trazado 664365" d="M163.227,0A163.227,163.227,0,1,1,0,163.227,163.227,163.227,0,0,1,163.227,0Z" fill="#f2e6dc"/>
          <g id="Grupo_896244" data-name="Grupo 896244" transform="translate(181.052 3.168)">
            <path id="Trazado_662927" data-name="Trazado 662927" d="M1577.825,588.047a.393.393,0,0,1-.122-.767c8.1-2.649,13.709-7.393,16.66-14.1,8.766-19.926-11.824-48.127-28.5-60.913-17.532-13.442-32.681-19.7-50.031-24.962a.393.393,0,1,1,.228-.753c17.433,5.286,32.655,11.576,50.281,25.091,16.874,12.937,37.676,41.543,28.741,61.854-3.045,6.921-8.81,11.811-17.136,14.532A.386.386,0,0,1,1577.825,588.047Z" transform="translate(-1485.955 -462.848)" fill="#d3bba3"/>
            <g id="Grupo_896237" data-name="Grupo 896237" transform="translate(39.977)">
              <path id="Trazado_662928" data-name="Trazado 662928" d="M1587.665,366.411c3.675,7.121,1.12,13.7-2.656,14.941s-9.834-2.509-11.018-10.435c-1.179-7.89,1.935-17.127,1.935-17.127S1583.734,358.8,1587.665,366.411Z" transform="translate(-1573.725 -353.79)" fill="#abd59c"/>
              <path id="Trazado_662929" data-name="Trazado 662929" d="M1604.3,414.474a.394.394,0,0,1-.374-.271l-8.587-26.059a.394.394,0,0,1,.748-.246l8.587,26.059a.393.393,0,0,1-.374.516Z" transform="translate(-1591.469 -381.591)" fill="#d3bba3"/>
            </g>
            <g id="Grupo_896238" data-name="Grupo 896238" transform="translate(19.943 38.231)">
              <path id="Trazado_662930" data-name="Trazado 662930" d="M1477.433,569.925c8.884-4.166,16.811-.732,18.157,3.946s-3.529,11.916-13.281,12.995c-9.708,1.075-20.865-3.166-20.865-3.166S1467.933,574.379,1477.433,569.925Z" transform="translate(-1461.443 -568.052)" fill="#abd59c"/>
              <path id="Trazado_662931" data-name="Trazado 662931" d="M1504.268,589.824a.393.393,0,0,1-.109-.771l39.353-11.327a.393.393,0,1,1,.217.756l-39.353,11.327A.4.4,0,0,1,1504.268,589.824Z" transform="translate(-1496.303 -575.987)" fill="#d3bba3"/>
            </g>
            <g id="Grupo_896239" data-name="Grupo 896239" transform="translate(0 18.342)">
              <path id="Trazado_662932" data-name="Trazado 662932" d="M1363.322,457.009c7.059-1.686,12.285,1.988,12.56,5.577s-4.34,8.1-11.566,7.423c-7.192-.676-14.638-5.418-14.638-5.418S1355.774,458.812,1363.322,457.009Z" transform="translate(-1349.678 -456.587)" fill="#abd59c"/>
              <path id="Trazado_662933" data-name="Trazado 662933" d="M1382.044,489.183a.393.393,0,0,1-.03-.786l23.893-1.864a.393.393,0,1,1,.061.784l-23.892,1.864Z" transform="translate(-1375.946 -481.189)" fill="#d3bba3"/>
            </g>
            <g id="Grupo_896240" data-name="Grupo 896240" transform="translate(75.552 10.065)">
              <path id="Trazado_662934" data-name="Trazado 662934" d="M1791.513,430.439c.142,9.811-6.249,15.624-11.067,14.926s-9.409-8.118-6.38-17.451c3.015-9.291,11.47-17.715,11.47-17.715S1791.361,419.948,1791.513,430.439Z" transform="translate(-1773.094 -410.199)" fill="#abd59c"/>
              <path id="Trazado_662935" data-name="Trazado 662935" d="M1807.639,486.922a.352.352,0,0,1-.057,0,.393.393,0,0,1-.333-.446l4.687-32.38a.388.388,0,0,1,.446-.333.393.393,0,0,1,.333.446l-4.686,32.38A.393.393,0,0,1,1807.639,486.922Z" transform="translate(-1801.151 -445.982)" fill="#d3bba3"/>
            </g>
            <g id="Grupo_896241" data-name="Grupo 896241" transform="translate(59.88 57.835)">
              <path id="Trazado_662936" data-name="Trazado 662936" d="M1696.386,680.611c6.627-4.5,13.463-2.758,15.152.841s-1.309,10.064-9.035,12.192c-7.691,2.119-17.235.137-17.235.137S1689.3,685.428,1696.386,680.611Z" transform="translate(-1685.268 -677.917)" fill="#abd59c"/>
              <path id="Trazado_662937" data-name="Trazado 662937" d="M1717.861,696.017a.393.393,0,0,1-.167-.75l24.838-11.657a.393.393,0,0,1,.334.712l-24.838,11.657A.391.391,0,0,1,1717.861,696.017Z" transform="translate(-1711.721 -682.563)" fill="#d3bba3"/>
            </g>
            <g id="Grupo_896242" data-name="Grupo 896242" transform="translate(81.177 90.133)">
              <path id="Trazado_662938" data-name="Trazado 662938" d="M1821.547,862.2c7.174,3.571,9,10.386,6.689,13.621s-9.415,3.789-15.055-1.9c-5.614-5.667-8.562-14.958-8.562-14.958S1813.876,858.379,1821.547,862.2Z" transform="translate(-1804.619 -858.925)" fill="#abd59c"/>
              <path id="Trazado_662939" data-name="Trazado 662939" d="M1855.691,895.921a.391.391,0,0,1-.228-.073l-22.33-15.943a.393.393,0,1,1,.457-.64l22.33,15.943a.394.394,0,0,1-.229.714Z" transform="translate(-1827.91 -875.575)" fill="#d3bba3"/>
            </g>
            <g id="Grupo_896243" data-name="Grupo 896243" transform="translate(100.631 52.853)">
              <path id="Trazado_662940" data-name="Trazado 662940" d="M1928.186,665.385c1.546,7.863-2.74,13.466-6.713,13.61s-8.745-5.149-7.675-13.091c1.066-7.906,6.63-15.91,6.63-15.91S1926.532,656.977,1928.186,665.385Z" transform="translate(-1913.646 -649.994)" fill="#abd59c"/>
              <path id="Trazado_662941" data-name="Trazado 662941" d="M1951.806,713.8a.393.393,0,0,1-.393-.379L1950.425,686a.393.393,0,0,1,.379-.407.383.383,0,0,1,.407.379l.988,27.419a.393.393,0,0,1-.379.407Z" transform="translate(-1943.862 -679.242)" fill="#d3bba3"/>
            </g>
          </g>
          <g id="Grupo_896252" data-name="Grupo 896252" transform="translate(23.393 13.923)">
            <path id="Trazado_662942" data-name="Trazado 662942" d="M555.021,637.772H555c-8.751-.365-15.625-3.51-20.431-9.348-14.1-17.133-1.823-50.3,10.916-67.326,13.309-17.784,26.259-27.961,41.608-37.77a.394.394,0,0,1,.424.663c-15.277,9.763-28.164,19.89-41.4,37.579-12.59,16.823-24.773,49.547-10.938,66.354,4.657,5.658,11.338,8.706,19.856,9.062a.393.393,0,0,1-.016.786Z" transform="translate(-517.193 -503.78)" fill="#d3bba3"/>
            <g id="Grupo_896245" data-name="Grupo 896245" transform="translate(43.63)">
              <path id="Trazado_662943" data-name="Trazado 662943" d="M710.97,429.391c-1.61,7.85,2.631,13.488,6.6,13.663s8.787-5.079,7.781-13.029c-1-7.914-6.5-15.963-6.5-15.963S712.691,421,710.97,429.391Z" transform="translate(-710.619 -414.063)" fill="#abd59c"/>
              <path id="Trazado_662944" data-name="Trazado 662944" d="M746.889,477.859h-.018a.393.393,0,0,1-.376-.41l1.21-27.41a.4.4,0,0,1,.41-.376.394.394,0,0,1,.376.41l-1.21,27.41A.393.393,0,0,1,746.889,477.859Z" transform="translate(-740.093 -443.31)" fill="#d3bba3"/>
            </g>
            <g id="Grupo_896246" data-name="Grupo 896246" transform="translate(38.252 36.628)">
              <path id="Trazado_662945" data-name="Trazado 662945" d="M775.768,619.626c-9.68-1.6-16.381,3.848-16.41,8.716s6.624,10.515,16.3,8.913c9.636-1.595,19.228-8.7,19.228-8.7S786.119,621.341,775.768,619.626Z" transform="translate(-745.283 -619.34)" fill="#abd59c"/>
              <path id="Trazado_662946" data-name="Trazado 662946" d="M721.823,668.634h0l-40.95-.246a.394.394,0,0,1-.391-.4.4.4,0,0,1,.4-.391l40.95.246a.393.393,0,0,1,0,.787Z" transform="translate(-680.48 -658.99)" fill="#d3bba3"/>
            </g>
            <g id="Grupo_896247" data-name="Grupo 896247" transform="translate(69.722 10.318)">
              <path id="Trazado_662947" data-name="Trazado 662947" d="M890.1,471.907c-7.251.288-11.288,5.24-10.58,8.77s6.372,6.623,13.143,4.013c6.74-2.6,12.624-9.18,12.624-9.18S897.855,471.6,890.1,471.907Z" transform="translate(-875.411 -471.89)" fill="#abd59c"/>
              <path id="Trazado_662948" data-name="Trazado 662948" d="M857.244,502.522a.393.393,0,0,1-.077-.779l23.5-4.676a.393.393,0,1,1,.154.771l-23.5,4.676A.373.373,0,0,1,857.244,502.522Z" transform="translate(-856.85 -492.568)" fill="#d3bba3"/>
            </g>
            <g id="Grupo_896248" data-name="Grupo 896248" transform="translate(9.083 22.096)">
              <path id="Trazado_662949" data-name="Trazado 662949" d="M518.137,559c2.521,9.483,10.246,13.347,14.7,11.371s6.859-10.363,1.416-18.527c-5.418-8.127-15.839-13.947-15.839-13.947S515.442,548.859,518.137,559Z" transform="translate(-517.006 -537.896)" fill="#abd59c"/>
              <path id="Trazado_662950" data-name="Trazado 662950" d="M555.575,608.507a.394.394,0,0,1-.36-.234l-13.28-29.9a.393.393,0,0,1,.719-.32l13.28,29.9a.394.394,0,0,1-.36.553Z" transform="translate(-537.459 -570.696)" fill="#d3bba3"/>
            </g>
            <g id="Grupo_896249" data-name="Grupo 896249" transform="translate(20.652 65.213)">
              <path id="Trazado_662951" data-name="Trazado 662951" d="M626.757,780.4c-7.6-2.542-13.707.991-14.358,4.912s3.985,9.334,12,9.29c7.977-.043,16.628-4.536,16.628-4.536S634.883,783.113,626.757,780.4Z" transform="translate(-606.897 -779.536)" fill="#abd59c"/>
              <path id="Trazado_662952" data-name="Trazado 662952" d="M609.306,810.6a.382.382,0,0,1-.065-.005l-27.066-4.5a.393.393,0,0,1,.129-.776l27.066,4.5a.393.393,0,0,1-.064.782Z" transform="translate(-581.846 -800.716)" fill="#d3bba3"/>
            </g>
            <g id="Grupo_896250" data-name="Grupo 896250" transform="translate(16.998 97.356)">
              <path id="Trazado_662953" data-name="Trazado 662953" d="M574.523,967.382c-5.939,5.38-5.85,12.435-2.75,14.924s10.089,1.1,13.977-5.91c3.87-6.975,4.191-16.718,4.191-16.718S580.873,961.628,574.523,967.382Z" transform="translate(-568.199 -959.677)" fill="#abd59c"/>
              <path id="Trazado_662954" data-name="Trazado 662954" d="M561.757,1009.392a.393.393,0,0,1-.307-.64l17.177-21.395a.393.393,0,0,1,.614.493l-17.178,21.394A.392.392,0,0,1,561.757,1009.392Z" transform="translate(-561.363 -982.298)" fill="#d3bba3"/>
            </g>
            <g id="Grupo_896251" data-name="Grupo 896251" transform="translate(0 68.544)">
              <path id="Trazado_662955" data-name="Trazado 662955" d="M466.182,815.122c.641,7.988,6.284,12.221,10.147,11.283s7.024-7.325,3.843-14.68c-3.167-7.322-10.691-13.52-10.691-13.52S465.5,806.581,466.182,815.122Z" transform="translate(-466.102 -798.205)" fill="#abd59c"/>
              <path id="Trazado_662956" data-name="Trazado 662956" d="M499.007,860.108a.393.393,0,0,1-.382-.3l-6.474-26.662a.393.393,0,1,1,.765-.186l6.474,26.662a.394.394,0,0,1-.383.486Z" transform="translate(-487.494 -826.51)" fill="#d3bba3"/>
            </g>
          </g>
          <g id="Grupo_896254" data-name="Grupo 896254" transform="translate(51.515 55.178)">
            <path id="Trazado_662957" data-name="Trazado 662957" d="M834.26,753.871s6.358,43.014-3.384,59.443A111.365,111.365,0,0,1,632.21,713.857c5.59-13.432,33.178-21.778,33.178-21.778s9.207-29.79,20.223-35.258a111.52,111.52,0,0,1,105.035,3.309c5.7,3.29,12.261,16.427,12.261,16.427s11.336,1.64,14.732,5.4a111.552,111.552,0,0,1,17.848,26.572C842.557,723.266,834.26,753.871,834.26,753.871Z" transform="translate(-623.706 -645.273)" fill="#94e1e1"/>
            <g id="Grupo_896253" data-name="Grupo 896253" transform="translate(8.511 11.554)">
              <path id="Trazado_662958" data-name="Trazado 662958" d="M756.054,735.21c-3.188,1.92-1.451,6.912-4.628,8.7-5.447,3.069-20.021-6.279-19.169-13.278.922-7.576,20.063-13.636,27-7.78,4.466,3.77,2.083,10.966,6.407,12.814,3.666,1.566,10.069-1.6,11.441-6.407,1.812-6.345-6.189-11.9-6.865-12.356-8.093-5.463-19.238-2.473-23.339-1.373-8.86,2.376-10.874,5.861-15.1,4.576-4.466-1.357-5.388-6.205-7-10.082a111.739,111.739,0,0,0-53.4,57.033c3.975,5.635,13.661,6.3,16.919,16.2,1.713,5.205.518,9.53,4.119,12.356,3.667,2.878,7.586.5,10.526,3.661,1.744,1.878,1.054,3.458,2.288,10.068,1.191,6.379,1.787,9.568,3.661,11.441,5.4,5.4,18.693,1.276,18.763-.915.047-1.45-5.734-1.019-7.78-5.034-2.134-4.187,2.433-8.027.458-11.9-2.167-4.248-8.956-2.17-10.984-5.949-2.092-3.9,1.9-12.163,8.237-15.56,9.3-4.983,15.926,4.637,25.17.915,11.5-4.632,8.166-22.315,21.967-28.831,6.959-3.286,12.308-.914,13.271-3.661C779.844,744.658,762.38,731.4,756.054,735.21Z" transform="translate(-671.405 -710.026)" fill="#709b5b"/>
              <path id="Trazado_662959" data-name="Trazado 662959" d="M1005.509,1278.463c7.428-2.9,14.292-1.234,16.956-.585a29.151,29.151,0,0,1,11.918,5.747c7.5,6.178,5.3,11.3,11.614,15.486,6.827,4.526,14.322,1.8,15.486,5.323.63,1.905-1.543,2.778-3.387,7.259-3.274,7.952.075,13.691-3.388,15.97-1.891,1.245-5.807,1.452-5.807,1.452a23.06,23.06,0,0,1-.968,8.226c-.921,2.5-1.907,2.416-4.355,5.807-3.43,4.75-2.483,6.273-4.979,9.394-3.731,4.668-7.3,3.077-9.539,6.253-4.725,6.7,7.456,19.013,3.872,23.229-2.715,3.193-13.842,1-18.712-5.807-3.434-4.8-.9-7.89-2.9-19.68a100.534,100.534,0,0,0-6.452-21.292c-3.679-8.8-6.454-12.063-5.428-17.678.883-4.832,3.512-5.551,3.169-9.1-.653-6.756-10.492-7.327-11.614-13.55S998.3,1281.283,1005.509,1278.463Z" transform="translate(-933.883 -1175.676)" fill="#709b5b"/>
              <path id="Trazado_662960" data-name="Trazado 662960" d="M1536.356,981.948c-15.5-3.727-19.527-4.841-26.264-3-5.826,1.6-10.507,4.582-19.867,10.554-8.925,5.694-10.5,8.121-11.176,9.313-3.857,6.774-2,14.273,0,22.351,1.746,7.053,3.655,14.759,8.692,16.142,2.414.663,3.689-.637,11.175-3.725,9.56-3.944,14.341-5.916,16.142-4.346,3.588,3.128-7.8,15.248-3.1,24.213,3.141,6,10.514,4.916,13.038,11.8,1.72,4.689-1.047,6.982,0,11.8.8,3.7,3.48,7.12,6.75,9.685a111.478,111.478,0,0,0,4.613-104.784Z" transform="translate(-1333.091 -930.249)" fill="#709b5b"/>
              <path id="Trazado_662961" data-name="Trazado 662961" d="M1465.014,750.38a111.814,111.814,0,0,0-26.992-21.821,13.377,13.377,0,0,0,.57,8.766c1.713,3.472,5.273,4.831,4.967,8.071-.3,3.2-4.145,5.868-7.45,6.829-5.639,1.64-9.222-1.843-11.176,0-2.933,2.767,3.641,12.032.621,14.9-1.978,1.878-5.554-1.374-9.313.621-3.559,1.889-5.879,7.736-3.725,11.8,1.674,3.156,5.627,4.433,8.692,4.346,2.572-.073,6.023-1.149,15.522-11.8,8.776-9.838,10.031-13.629,13.659-13.659,6.1-.05,10.63,10.589,11.8,9.934,1.083-.609-5.035-8.544-3.1-13.659C1459.9,752.547,1462.04,751.2,1465.014,750.38Z" transform="translate(-1279.595 -725.252)" fill="#709b5b"/>
            </g>
          </g>
          <g id="Grupo_896257" data-name="Grupo 896257" transform="translate(80.365 82.349)">
            <rect id="Rectángulo_297068" data-name="Rectángulo 297068" width="2.37" height="185.328" transform="translate(85.433 1.475)" fill="#fff"/>
            <path id="Trazado_662962" data-name="Trazado 662962" d="M1052.141,851.967h-.014l-11.355-.395a.39.39,0,0,1-.153-.037L995.04,830.206h0l-46.211,21.624a.391.391,0,0,1-.167.037H935.33a.393.393,0,0,1-.067-.781l11.894-2.064,47.149-22.687a.4.4,0,0,1,.34,0l46.961,22.494,10.62,2.36a.393.393,0,0,1-.085.778ZM939.9,851.082h8.675l45.646-21.36a.393.393,0,0,1,.523-.523l46.138,21.59,7.011.244-6.5-1.444a.409.409,0,0,1-.084-.029l-46.83-22.432-47.028,22.629a.391.391,0,0,1-.1.033Z" transform="translate(-908.253 -821.167)" fill="#fff"/>
            <g id="Grupo_896255" data-name="Grupo 896255" transform="translate(102.493 29.618)">
              <path id="Trazado_662963" data-name="Trazado 662963" d="M1359.8,1271.2c2.2,9.479,17.1,16.545,35.163,16.545s32.966-7.066,35.163-16.545Z" transform="translate(-1359.797 -1216.305)" fill="#fff"/>
              <path id="Trazado_662964" data-name="Trazado 662964" d="M1367.517,1019.33a.394.394,0,0,1-.341-.59l31.6-55.008a.4.4,0,0,1,.331-.2.387.387,0,0,1,.341.179l35.547,54.833a.393.393,0,1,1-.66.428l-35.2-54.292-31.276,54.449A.393.393,0,0,1,1367.517,1019.33Z" transform="translate(-1365.816 -963.535)" fill="#fff"/>
              <path id="Trazado_662965" data-name="Trazado 662965" d="M1546.969,1023.888a.393.393,0,0,1-.392-.376l-2.37-53.7a.393.393,0,0,1,.376-.41.387.387,0,0,1,.41.376l2.37,53.7a.394.394,0,0,1-.376.41Z" transform="translate(-1511.301 -968.355)" fill="#fff"/>
            </g>
            <g id="Grupo_896256" data-name="Grupo 896256" transform="translate(0 29.88)">
              <path id="Trazado_662966" data-name="Trazado 662966" d="M785.391,1272.864c2.2,9.479,17.1,16.545,35.163,16.545s32.966-7.066,35.163-16.545Z" transform="translate(-785.391 -1217.932)" fill="#fff"/>
              <path id="Trazado_662967" data-name="Trazado 662967" d="M788.684,1021.235a.393.393,0,0,1-.339-.591L820.732,965.2a.393.393,0,0,1,.671-.014l35.349,55.095a.393.393,0,1,1-.662.425l-35-54.554-32.063,54.889A.393.393,0,0,1,788.684,1021.235Z" transform="translate(-787.774 -965.004)" fill="#fff"/>
              <path id="Trazado_662968" data-name="Trazado 662968" d="M972.563,1020.536a.394.394,0,0,1-.393-.376l-2.37-54.746a.393.393,0,0,1,.376-.41.384.384,0,0,1,.41.376l2.37,54.746a.393.393,0,0,1-.376.41Z" transform="translate(-936.895 -965.004)" fill="#fff"/>
            </g>
            <rect id="Rectángulo_297069" data-name="Rectángulo 297069" width="58.06" height="3.555" transform="translate(56.799 198.65)" fill="#f7f1eb"/>
            <path id="Trazado_662969" data-name="Trazado 662969" d="M1119.2,1850.135l26.068-13.231,1.975-.2,24.093,13.627Z" transform="translate(-1059.64 -1651.286)" fill="#f7f1eb"/>
            <circle id="Elipse_6139" data-name="Elipse 6139" cx="1.975" cy="1.975" r="1.975" transform="translate(84.353 3.899) rotate(-80.783)" fill="#f7f1eb"/>
          </g>
          <g id="Grupo_896271" data-name="Grupo 896271" transform="translate(0.992 82.824)">
            <g id="Grupo_896262" data-name="Grupo 896262" transform="translate(15.556 96.68)">
              <g id="Grupo_896258" data-name="Grupo 896258" transform="translate(36.224 112.776)">
                <path id="Trazado_662970" data-name="Trazado 662970" d="M655.94,1993.458l-15.166.221,2.293-19.61,15.244,2.089Z" transform="translate(-638.985 -1974.069)" fill="#84524d"/>
                <path id="Trazado_662971" data-name="Trazado 662971" d="M669.3,2061.606l-38.55-1.008,2.569-14.475,16.191.424,10.976,3.575a11.926,11.926,0,0,1,8.811,11.591Z" transform="translate(-630.745 -2033.266)" fill="#776e42"/>
              </g>
              <g id="Grupo_896259" data-name="Grupo 896259" transform="translate(4.037 114.51)">
                <path id="Trazado_662972" data-name="Trazado 662972" d="M478.083,2001.726l-15.06,1.8.237-19.742,15.379.489Z" transform="translate(-460.764 -1983.784)" fill="#84524d"/>
                <path id="Trazado_662973" data-name="Trazado 662973" d="M487.911,2073.483l-37.549-.221,2.36-14.524,15.179.09,11.005,3.352a11.889,11.889,0,0,1,9,11.41Z" transform="translate(-450.362 -2045.364)" fill="#8b865c"/>
              </g>
              <g id="Grupo_896261" data-name="Grupo 896261">
                <g id="Grupo_896260" data-name="Grupo 896260" transform="translate(0.261)">
                  <path id="Trazado_662974" data-name="Trazado 662974" d="M438.686,1344.065s-4.19,14.583-5.115,19.476c-5.27,27.865-4.3,99.54-4.3,99.54l27.449-1.611s3.551-52.574,5.318-75.673c2.034,4.156,4.394,10.029,6.237,14.519a12.633,12.633,0,0,1,.851,6.489l-5.52,54.261,26.809-1.573s10.756-59.324,6.257-70.715c-3.979-10.075-21.824-37.979-21.824-37.979l-1.539-8.767Z" transform="translate(-429.199 -1342.034)" fill="#13375b"/>
                </g>
                <path id="Trazado_662975" data-name="Trazado 662975" d="M648.826,1954.921l1.82-9.861-27.766,1.786-.863,9.647Z" transform="translate(-587.351 -1837.46)" fill="#205182"/>
                <path id="Trazado_662976" data-name="Trazado 662976" d="M455.815,1966.247l.55-9.786-28.524,1.83-.1,9.6Z" transform="translate(-427.735 -1846.827)" fill="#205182"/>
                <path id="Trazado_662977" data-name="Trazado 662977" d="M611.443,1521.767l-.038,0a.393.393,0,0,1-.354-.43l1.358-14.02a.393.393,0,0,1,.783.076l-1.358,14.021A.393.393,0,0,1,611.443,1521.767Z" transform="translate(-578.34 -1477.532)" fill="#13375b"/>
              </g>
            </g>
            <g id="Grupo_896266" data-name="Grupo 896266">
              <g id="Grupo_896263" data-name="Grupo 896263" transform="translate(69.676)">
                <path id="Trazado_662978" data-name="Trazado 662978" d="M731.043,1031.447l18.84-21.707,6.79-6.839,4.652,5.792c4.49,5.97,6.886,5.859,2.279,16.2L736.982,1055.2Z" transform="translate(-731.043 -966.734)" fill="#84524d"/>
                <path id="Trazado_662979" data-name="Trazado 662979" d="M829.468,847.959c.49-6.579.863-7.542-.543-20.906-.6-5.69-1.387-10.4-1.4-13.423-.231-1.029.975-7.85-1-8.069-1.473-.164-2.187,5.137-2.6,6.46-.127-1.166,1.756-9.381-.5-9.628-2.347-.257-3.053,7.725-3.244,8.791-.032-.086.917-10.552-1.27-10.961-2.125-.4-2.6,8.425-2.937,10.438-.012-1.786-.02-9.793-1.675-9.972-2.558-.277-2.771,8.771-2.7,15.022-2.434-1.784-4.052-2.3-4.487-1.6-.22.354.967,3.425,4.587,6.907.031,2.332.359,15.405.307,23.176,3.514,4.352,6.155,12.082,9.669,16.434C827.012,858.637,829.278,850.511,829.468,847.959Z" transform="translate(-793.519 -800.209)" fill="#84524d"/>
                <path id="Trazado_662980" data-name="Trazado 662980" d="M861.524,897.037a.393.393,0,0,1-.392-.367,4.6,4.6,0,0,0-4.013-4.518.393.393,0,0,1,.077-.783,5.442,5.442,0,0,1,4.721,5.249.393.393,0,0,1-.366.419Z" transform="translate(-834.332 -875.101)" fill="#363e44"/>
              </g>
              <g id="Grupo_896264" data-name="Grupo 896264" transform="translate(10.246 52.835)">
                <path id="Trazado_662981" data-name="Trazado 662981" d="M466.83,1096.316l12.492,20.478-14.728,14.618s-3.806,4.6-9.027,23.062l-57.587,8.681,24.921-55.308S439.9,1106.723,466.83,1096.316Z" transform="translate(-397.98 -1096.316)" fill="#ee4e5d"/>
                <path id="Trazado_662982" data-name="Trazado 662982" d="M446.462,1190.188l-4.865-26.379a36.224,36.224,0,0,1,17.139-3.219Z" transform="translate(-433.814 -1149.059)" fill="#ee4e5d"/>
              </g>
              <g id="Grupo_896265" data-name="Grupo 896265" transform="translate(0 80.38)">
                <path id="Trazado_662983" data-name="Trazado 662983" d="M368.737,1259.773l-9.814,22.842-8.324,8.469-6.789-5.485c-4.76-5.516-4.505-8.5,2.56-27.236l3.072-7.679Z" transform="translate(-340.587 -1250.683)" fill="#84524d"/>
                <path id="Trazado_662984" data-name="Trazado 662984" d="M340.718,1373.167c1.178,6.325,1.065,7.326,5.722,19.576,1.983,5.216,3.9,9.46,4.663,12.307.474.913,1.037,7.644,2.953,7.359,1.43-.213.782-5.388.844-6.739.41,1.068.682,9.282,2.874,8.953,2.276-.342.953-8.044.868-9.1.052.073,1.765,10.178,3.929,10.018,2.1-.155.351-8.591.168-10.573.456,1.681,2.459,9.228,4.064,8.984,2.48-.376.427-8.96-1.2-14.834,2.739,1.075,4.393,1.16,4.629.395.12-.388-1.765-2.988-6.046-5.369-.61-2.191-4.177-14.436-6.064-21.775-4.4-3.227-8.67-6.4-13.068-9.632A10.4,10.4,0,0,0,340.718,1373.167Z" transform="translate(-340.557 -1342.744)" fill="#84524d"/>
              </g>
              <path id="Trazado_662985" data-name="Trazado 662985" d="M397.976,1200.069l-11.817-21.086c-4.158,2.4-8.145,8.191-12.04,15.762l19.761,11.775Z" transform="translate(-368.13 -1111.396)" fill="#ee4e5d"/>
            </g>
            <g id="Grupo_896270" data-name="Grupo 896270" transform="translate(38.065 33.069)">
              <ellipse id="Elipse_6140" data-name="Elipse 6140" cx="3.152" cy="2.683" rx="3.152" ry="2.683" transform="matrix(0.608, -0.794, 0.794, 0.608, 16.904, 19.696)" fill="#84524d"/>
              <path id="Trazado_662986" data-name="Trazado 662986" d="M564.073,1069.241a2.718,2.718,0,1,1-3.895-1.4A2.946,2.946,0,0,1,564.073,1069.241Z" transform="translate(-558.037 -1052.901)" fill="#84524d"/>
              <rect id="Rectángulo_297070" data-name="Rectángulo 297070" width="16.102" height="13.271" transform="translate(20.288 19.215) rotate(-176.131)" fill="#363e44"/>
              <path id="Rectángulo_297071" data-name="Rectángulo 297071" d="M5.634,0h0a5.634,5.634,0,0,1,5.634,5.634V18.226a0,0,0,0,1,0,0H0a0,0,0,0,1,0,0V5.634A5.634,5.634,0,0,1,5.634,0Z" transform="matrix(-1, 0.03, -0.03, -1, 17.82, 37.229)" fill="#84524d"/>
              <path id="Trazado_662987" data-name="Trazado 662987" d="M579.279,1052.2c-.334,5.013,2.854,9.308,7.12,9.592s8-3.55,8.329-8.563-2.876-7.93-7.142-8.214S579.612,1047.188,579.279,1052.2Z" transform="translate(-574.728 -1034.385)" fill="#84524d"/>
              <path id="Trazado_662988" data-name="Trazado 662988" d="M580.539,993.485c-.264-.729-1.929-.852-3.947-.368.615-.871.839-1.629.514-2.027-.363-.443-1.323-.335-2.492.192.858-.613,1.315-1.244,1.143-1.718-.3-.827-2.4-.875-4.777-.14.4-1.707.283-3.069-.382-3.326-.709-.274-1.82.792-2.725,2.5-.16-1.26-.571-2.125-1.145-2.2a.992.992,0,0,0-.818.413c-.426-.838-.926-1.332-1.4-1.275-.689.083-1.121,1.319-1.151,3.013-.953-.689-1.717-.978-2.073-.7-.386.3-.21,1.21.376,2.408-1.749-1.457-3.249-2.206-3.742-1.758-.371.337-.094,1.281.64,2.5-1.041-.421-1.843-.5-2.142-.127-.38.474.151,1.556,1.255,2.777-1.08.17-1.815.564-1.879,1.1-.057.484.436.984,1.263,1.393-1.827.143-3.145.677-3.175,1.384-.039.916,2.093,1.772,4.762,1.912s4.865-.488,4.9-1.4a.656.656,0,0,0-.09-.348c.8.269,1.406.3,1.692.029.917.542,1.627.736,1.938.455.23-.208.207-.653-.013-1.248,1.04.825,1.9,1.232,2.348,1.048a10.469,10.469,0,0,0,1.5.846c2.163,1,4.233,1.134,4.623.3.208-.44-.1-1.065-.763-1.7,1.788.42,3.215.315,3.468-.346a1.1,1.1,0,0,0-.339-1.034C579.68,995.226,580.793,994.185,580.539,993.485Z" transform="translate(-553.885 -985.538)" fill="#363e44"/>
              <path id="Trazado_662989" data-name="Trazado 662989" d="M593.6,1123.825q-.237,0-.475-.016a7.547,7.547,0,0,1-5.575-3.181.393.393,0,0,1,.632-.469,6.563,6.563,0,0,0,10.326.687.393.393,0,0,1,.564.549A7.609,7.609,0,0,1,593.6,1123.825Z" transform="translate(-581.476 -1096.008)" fill="#363e44"/>
              <path id="Trazado_662990" data-name="Trazado 662990" d="M576.726,1076.487a.393.393,0,0,1-.388-.329,11.125,11.125,0,0,1,.258-4.76.393.393,0,0,1,.758.211,10.343,10.343,0,0,0-.24,4.42.392.392,0,0,1-.324.452A.332.332,0,0,1,576.726,1076.487Z" transform="translate(-572.212 -1055.841)" fill="#363e44"/>
              <path id="Trazado_662991" data-name="Trazado 662991" d="M662.626,1081.878a.393.393,0,0,1-.377-.507,10.326,10.326,0,0,0,.331-4.414.393.393,0,1,1,.779-.112A11.126,11.126,0,0,1,663,1081.6.393.393,0,0,1,662.626,1081.878Z" transform="translate(-642.899 -1060.275)" fill="#363e44"/>
              <g id="Grupo_896269" data-name="Grupo 896269" transform="translate(5.86 16.461)">
                <g id="Grupo_896267" data-name="Grupo 896267" transform="translate(7.649 0.661)">
                  <path id="Trazado_662992" data-name="Trazado 662992" d="M629.595,1083.484a4.985,4.985,0,0,0,1.546.5c.4.059,1.024-.8,1.024-.8s.928.582,1.205.44a1.01,1.01,0,1,0,.184-1.7c-.455-.088-1.535.908-1.535.908s-1.176-.465-1.589-.149A4.877,4.877,0,0,0,629.595,1083.484Z" transform="translate(-629.595 -1081.84)" fill="#fff"/>
                  <path id="Trazado_662993" data-name="Trazado 662993" d="M634.274,1082.333a4.03,4.03,0,0,1,1.6-.77,3.887,3.887,0,0,1,1.52.01,1.644,1.644,0,0,1-.181,1.7,3.591,3.591,0,0,1-.914.331,3.774,3.774,0,0,1-1.319.025,1.634,1.634,0,0,1-.711-1.3Z" transform="translate(-633.439 -1081.493)" fill="#363e44"/>
                </g>
                <g id="Grupo_896268" data-name="Grupo 896268">
                  <path id="Trazado_662994" data-name="Trazado 662994" d="M591.772,1080.045a5.068,5.068,0,0,1-1.821.218c-.35-.025-.92-.845-.92-.845s-.981.174-1.293-.106a5.267,5.267,0,0,1-1.01-1.245,5.016,5.016,0,0,1,1.194-.219c.509-.033,1.393.843,1.393.843s1.26-.082,1.594.244A5.021,5.021,0,0,1,591.772,1080.045Z" transform="translate(-586.728 -1077.837)" fill="#fff"/>
                  <path id="Trazado_662995" data-name="Trazado 662995" d="M593.807,1078.038a3.9,3.9,0,0,1,1.28.852,1.641,1.641,0,0,1-.957,1.329,3.678,3.678,0,0,1-1.086-.236,3.8,3.8,0,0,1-1.144-.725,1.646,1.646,0,0,1,.192-1.456A4,4,0,0,1,593.807,1078.038Z" transform="translate(-590.904 -1077.791)" fill="#363e44"/>
                </g>
              </g>
              <path id="Trazado_662996" data-name="Trazado 662996" d="M615.905,1093.118a.393.393,0,0,1-.245-.086,1.162,1.162,0,0,1-.518-.889,1.041,1.041,0,0,1,.263-.651.863.863,0,0,0,.182-.338.765.765,0,0,0-.032-.409.393.393,0,1,1,.747-.247,1.54,1.54,0,0,1,.053.829,1.613,1.613,0,0,1-.318.635.52.52,0,0,0-.108.179c0,.046.058.146.221.276a.393.393,0,0,1-.245.7Z" transform="translate(-604.212 -1071.548)" fill="#363e44"/>
              <path id="Trazado_662997" data-name="Trazado 662997" d="M623.472,1108.18c-.091,0-.172,0-.238-.011a.393.393,0,0,1-.354-.429.388.388,0,0,1,.429-.354,1.744,1.744,0,0,0,1.076-.247,1.694,1.694,0,0,0,.547-.556.393.393,0,1,1,.672.408,2.462,2.462,0,0,1-2.132,1.189Z" transform="translate(-610.567 -1084.829)" fill="#363e44"/>
            </g>
          </g>
          <g id="Grupo_896283" data-name="Grupo 896283" transform="translate(220.713 89.16)">
            <g id="Grupo_896272" data-name="Grupo 896272" transform="translate(38.596 26.393)">
              <path id="Trazado_662998" data-name="Trazado 662998" d="M1821.608,989.6c5,3.279,5.6,9.577,5,15.724-.91,9.466,12.268,7.2,14.231,12.569s-8.306,9.491,4.749,19.489l-25.118,15.147c-6.122-3.942-4.585-13.832-4.585-13.832-4.906,9.008-2.4,13.835.511,16.289l-3.443,2.076s-8.324-2.532-4.731-11.962c3.249-8.526.644-11.564-7.519-9.076s-23.595-18.367.406-39.471l11.59-6.578A7.653,7.653,0,0,1,1821.608,989.6Z" transform="translate(-1788.252 -987.511)" fill="#d87355"/>
              <path id="Trazado_662999" data-name="Trazado 662999" d="M1975.588,1112.958a.375.375,0,0,1-.084-.009,4.143,4.143,0,0,1-2.4-1.9c-1.164-1.859-1.315-4.61-.452-8.177,2.02-8.345,2.464-11.923-6.95-16.723-9.712-4.951-6.025-12.729-5.986-12.807a.393.393,0,0,1,.706.347c-.142.291-3.369,7.168,5.637,11.759,9.9,5.049,9.375,9.278,7.358,17.609-.8,3.306-.678,5.926.354,7.574a3.376,3.376,0,0,0,1.9,1.547.393.393,0,0,1-.083.778Z" transform="translate(-1928.532 -1057.156)" fill="#efbc73"/>
              <path id="Trazado_663000" data-name="Trazado 663000" d="M1940.785,1012.315a8.042,8.042,0,0,1-7.649-6.005,15.314,15.314,0,0,1,.042-5.549c.063-.482.125-.965.175-1.444a17.278,17.278,0,0,0-1.123-8.869,10.086,10.086,0,0,0-6.367-5.787,7.09,7.09,0,0,0-7.711,2.729.393.393,0,1,1-.665-.421,7.891,7.891,0,0,1,8.577-3.069,10.876,10.876,0,0,1,6.885,6.227,18.051,18.051,0,0,1,1.187,9.271c-.051.486-.114.975-.178,1.464a14.734,14.734,0,0,0-.057,5.265,7.315,7.315,0,0,0,7.232,5.392.384.384,0,0,1,.414.371.392.392,0,0,1-.371.414Q1940.981,1012.315,1940.785,1012.315Z" transform="translate(-1894.378 -983.631)" fill="#efbc73"/>
            </g>
            <g id="Grupo_896273" data-name="Grupo 896273" transform="translate(0 93.531)">
              <path id="Trazado_663001" data-name="Trazado 663001" d="M1600.413,2017.156a26.514,26.514,0,0,1,2.805,6.86,26.877,26.877,0,0,1,.485,10.7l-31.754.673a20.72,20.72,0,0,1,.943-3.775c3.969-10.724,17.325-14.2,20.358-14.927C1595.638,2016.838,1598.025,2017.007,1600.413,2017.156Z" transform="translate(-1571.949 -1899.496)" fill="#d3bba3"/>
              <path id="Trazado_663002" data-name="Trazado 663002" d="M1700.843,1954.553l-2.179,11.259a4.434,4.434,0,0,1-4.933,3.5c-.131-.02-.265-.044-.4-.074a4.461,4.461,0,0,1-3.484-4.6l.813-10.988Z" transform="translate(-1668.804 -1847.708)" fill="#e2a18d"/>
              <path id="Trazado_663003" data-name="Trazado 663003" d="M2010.262,1992.914s5.513,10.161,4.794,20.9l-21.306.452a51.52,51.52,0,0,1,2.559-7.969,43.879,43.879,0,0,1,7.154-11.392Z" transform="translate(-1918.487 -1879.963)" fill="#d3bba3"/>
              <path id="Trazado_663004" data-name="Trazado 663004" d="M2026.452,1932.578c.072-3.736-.093-10.621-1.909-16.127l-12.309,3.92a40.922,40.922,0,0,1,5.627,12.969,4.162,4.162,0,0,0,4.433,3.347,8.423,8.423,0,0,0,.865-.129A4.135,4.135,0,0,0,2026.452,1932.578Z" transform="translate(-1933.672 -1817.143)" fill="#e2a18d"/>
              <path id="Trazado_663005" data-name="Trazado 663005" d="M1835.94,1372.578s24.045,35.95,25.821,106.007l-17,.36s-21.665-60.2-35.407-75.023l4.248-33.917Z" transform="translate(-1766.996 -1368.201)" fill="#ff725e"/>
              <path id="Trazado_663006" data-name="Trazado 663006" d="M1713.98,1402.813s-20.768,35.679-25.053,68.756l-15.856.336s-3.549-79.33,24.69-112.008l14.63,2.8Z" transform="translate(-1654.91 -1359.897)" fill="#ff725e"/>
              <path id="Trazado_663007" data-name="Trazado 663007" d="M1818.769,1545.4a.393.393,0,0,1-.354-.221l-9.425-19.375a.393.393,0,0,1,.708-.344l9.425,19.376a.393.393,0,0,1-.353.565Z" transform="translate(-1766.661 -1495.734)" fill="#fff"/>
            </g>
            <g id="Grupo_896277" data-name="Grupo 896277" transform="translate(10.067 0)">
              <g id="Grupo_896274" data-name="Grupo 896274" transform="translate(58.242 71.503)">
                <path id="Trazado_663008" data-name="Trazado 663008" d="M1968.887,1236.442c5.546,7.608,24.437,25.16,16.012,31.831-6.968,5.518-24.155-12.487-30.127-19.712C1959.611,1244.418,1964.05,1240.585,1968.887,1236.442Z" transform="translate(-1954.773 -1236.442)" fill="#e2a18d"/>
              </g>
              <g id="Grupo_896275" data-name="Grupo 896275">
                <path id="Trazado_663009" data-name="Trazado 663009" d="M1659.981,1051.744l-29.847-15.713-1.332,7.5c-1.1,7.58-.8,12.823,9.235,18.828l23.179,13.112Z" transform="translate(-1628.366 -1000.288)" fill="#e2a18d"/>
                <path id="Trazado_663010" data-name="Trazado 663010" d="M1628.854,882.114c.65-6.733.44-7.771,4.188-21.029,1.6-5.645,3.211-10.266,3.749-13.319.412-1,.381-8.1,2.414-7.979,1.517.091,1.316,5.571,1.505,6.98.331-1.156-.141-9.784,2.185-9.641,2.416.149,1.74,8.337,1.747,9.448.047-.081.911-10.822,3.191-10.855,2.216-.031,1.159,8.965,1.151,11.058.323-1.8,1.725-9.891,3.428-9.784,2.632.165,1.274,9.345.108,15.647,2.77-1.378,4.495-1.62,4.813-.84.161.4-1.573,3.292-5.837,6.18-.437,2.351-3.044,15.5-4.344,23.364-4.309,3.786-8.49,7.507-12.8,11.292A10.927,10.927,0,0,1,1628.854,882.114Z" transform="translate(-1628.731 -835.718)" fill="#e2a18d"/>
                <path id="Trazado_663011" data-name="Trazado 663011" d="M1702.395,935.224a.385.385,0,0,1-.093-.011.394.394,0,0,1-.29-.475,5.572,5.572,0,0,1,5.674-4.474.393.393,0,0,1-.058.785,4.722,4.722,0,0,0-4.851,3.875A.393.393,0,0,1,1702.395,935.224Z" transform="translate(-1688.862 -913.391)" fill="#363e44"/>
              </g>
              <path id="Trazado_663012" data-name="Trazado 663012" d="M1796.374,1160.632l-48.784-6.113,2.2-61.657s36.016,12.38,53.322,29.029l-9.744,18.039Z" transform="translate(-1726.317 -1046.979)" fill="#363e44"/>
              <g id="Grupo_896276" data-name="Grupo 896276" transform="translate(36.163 88.053)">
                <path id="Trazado_663013" data-name="Trazado 663013" d="M1877.977,1332.292c-7.41.683-24.939,1.428-26.647,1.569-3.193.263-20.294,2.122-20.293,4.618,0,1.193,3.311.984,4.428.881-.861.528-4.388,2.2-4.041,3.49.408,1.518,4.915.171,5,.194-.929.448-4.7,2.081-4.479,3.06.29,1.273,4.255.806,5.435.611-.1.182-3.833,1.971-3.623,2.743.232.855,3.94.508,5.422.507,2.837-.231,13.912-.54,19.3-.434a99.98,99.98,0,0,0,22.822-1.663C1883.7,1347.492,1881.3,1334.534,1877.977,1332.292Z" transform="translate(-1831.036 -1331.739)" fill="#e2a18d"/>
                <path id="Trazado_663014" data-name="Trazado 663014" d="M1989.8,1331.14a.393.393,0,0,1-.022-.786c3.969-.23,15.952-.968,18.3-1.158a.4.4,0,0,1,.424.36.394.394,0,0,1-.361.424c-2.472.2-14.912.962-18.318,1.159Z" transform="translate(-1961.147 -1329.194)" fill="#363e44"/>
                <path id="Trazado_663015" data-name="Trazado 663015" d="M1853.765,1363.728a.393.393,0,0,1-.165-.751,15.038,15.038,0,0,1,5.588-1.361.393.393,0,0,1,.038.786,14.247,14.247,0,0,0-5.3,1.29A.392.392,0,0,1,1853.765,1363.728Z" transform="translate(-1849.385 -1355.829)" fill="#363e44"/>
                <path id="Trazado_663016" data-name="Trazado 663016" d="M1859.014,1387.283a.393.393,0,0,1-.125-.766c.137-.047.277-.091.421-.135a15.146,15.146,0,0,1,3.655-.627.393.393,0,1,1,.038.786,14.348,14.348,0,0,0-3.464.594q-.2.062-.4.127A.38.38,0,0,1,1859.014,1387.283Z" transform="translate(-1853.699 -1375.662)" fill="#363e44"/>
                <path id="Trazado_663017" data-name="Trazado 663017" d="M1865.186,1410.077a.394.394,0,0,1-.081-.779,15.274,15.274,0,0,1,2.412-.309.393.393,0,1,1,.038.786,14.468,14.468,0,0,0-2.287.293A.391.391,0,0,1,1865.186,1410.077Z" transform="translate(-1858.77 -1394.75)" fill="#363e44"/>
              </g>
            </g>
            <g id="Grupo_896282" data-name="Grupo 896282" transform="translate(47.708 23.899)">
              <path id="Rectángulo_297072" data-name="Rectángulo 297072" d="M4.493,0h0A4.492,4.492,0,0,1,8.985,4.492V17.5A4.493,4.493,0,0,1,4.493,21.99h0A4.493,4.493,0,0,1,0,17.5v-13A4.493,4.493,0,0,1,4.493,0Z" transform="matrix(-0.999, -0.052, 0.052, -0.999, 17.817, 42.607)" fill="#e2a18d"/>
              <g id="Grupo_896281" data-name="Grupo 896281">
                <circle id="Elipse_6141" data-name="Elipse 6141" cx="10.478" cy="10.478" r="10.478" transform="translate(0.524 20.895) rotate(-67.5)" fill="#d87355"/>
                <path id="Trazado_663018" data-name="Trazado 663018" d="M1870.5,1029.8c0,5.581,3.866,11.469,8.634,11.469s8.634-5.887,8.634-11.469-3.865-10.106-8.634-10.106S1870.5,1024.215,1870.5,1029.8Z" transform="translate(-1864.933 -1010.762)" fill="#e2a18d"/>
                <path id="Trazado_663019" data-name="Trazado 663019" d="M1893.229,1127.612a7.522,7.522,0,0,1-5.465-2.637.393.393,0,0,1,.573-.539,6.762,6.762,0,0,0,4.892,2.389,6.6,6.6,0,0,0,4.554-2.047.394.394,0,0,1,.547.566A7.366,7.366,0,0,1,1893.229,1127.612Z" transform="translate(-1879.033 -1096.717)" fill="#363e44"/>
                <path id="Trazado_663020" data-name="Trazado 663020" d="M1956.546,1064.683c-.78,1.709-.479,3.52.671,4.045s2.715-.435,3.495-2.144.479-3.52-.671-4.045S1957.326,1062.974,1956.546,1064.683Z" transform="translate(-1935.273 -1045.847)" fill="#e2a18d"/>
                <path id="Trazado_663021" data-name="Trazado 663021" d="M1969.347,1072.158a.393.393,0,0,1-.255-.693,2.1,2.1,0,0,0,.533-.727c.355-.777.2-1.5-.169-1.671a.606.606,0,0,0-.46.009.394.394,0,1,1-.277-.737,1.366,1.366,0,0,1,1.063.012c.834.381,1.079,1.573.559,2.714a2.889,2.889,0,0,1-.739,1A.389.389,0,0,1,1969.347,1072.158Z" transform="translate(-1945.421 -1050.647)" fill="#363e44"/>
                <path id="Trazado_663022" data-name="Trazado 663022" d="M1962.2,1069.991a.406.406,0,0,1-.124-.02.394.394,0,0,1-.25-.5,11.2,11.2,0,0,0,.562-3.53,11.579,11.579,0,0,0-.141-1.8.393.393,0,0,1,.777-.123,12.319,12.319,0,0,1,.151,1.923,11.976,11.976,0,0,1-.6,3.777A.4.4,0,0,1,1962.2,1069.991Z" transform="translate(-1939.95 -1046.91)" fill="#363e44"/>
                <path id="Trazado_663023" data-name="Trazado 663023" d="M1858.564,1064.683c.78,1.709.479,3.52-.671,4.045s-2.715-.435-3.494-2.144-.48-3.52.671-4.045S1857.785,1062.974,1858.564,1064.683Z" transform="translate(-1851.352 -1045.847)" fill="#e2a18d"/>
                <path id="Trazado_663024" data-name="Trazado 663024" d="M1859.038,1072.158a.39.39,0,0,1-.255-.094,2.89,2.89,0,0,1-.739-1c-.521-1.141-.276-2.334.558-2.714a1.365,1.365,0,0,1,1.063-.012.393.393,0,1,1-.277.737.609.609,0,0,0-.46-.009c-.365.166-.524.894-.169,1.671a2.1,2.1,0,0,0,.533.727.393.393,0,0,1-.255.693Z" transform="translate(-1854.479 -1050.647)" fill="#363e44"/>
                <path id="Trazado_663025" data-name="Trazado 663025" d="M1869.784,1069.991a.394.394,0,0,1-.373-.27,11.979,11.979,0,0,1-.6-3.777,12.284,12.284,0,0,1,.151-1.923.393.393,0,0,1,.777.124,11.543,11.543,0,0,0-.141,1.8,11.2,11.2,0,0,0,.562,3.53.393.393,0,0,1-.25.5A.4.4,0,0,1,1869.784,1069.991Z" transform="translate(-1863.547 -1046.911)" fill="#363e44"/>
                <path id="Trazado_663026" data-name="Trazado 663026" d="M1913.4,1085.737a.394.394,0,0,1-.211-.061,1.385,1.385,0,0,1-.558-1.982,3.011,3.011,0,0,0,.23-.671,2.494,2.494,0,0,0-.04-1.074.393.393,0,1,1,.764-.187,3.269,3.269,0,0,1,.048,1.411,3.8,3.8,0,0,1-.282.838c-.117.263-.171.4-.136.544a.812.812,0,0,0,.4.456.393.393,0,0,1-.211.726Z" transform="translate(-1899.372 -1061.511)" fill="#363e44"/>
                <path id="Trazado_663027" data-name="Trazado 663027" d="M1920.229,1106a1.453,1.453,0,0,1-.714-.188.393.393,0,1,1,.386-.685.594.594,0,0,0,.768-.12.567.567,0,0,0-.007-.594.393.393,0,1,1,.681-.394,1.345,1.345,0,0,1-.029,1.438A1.312,1.312,0,0,1,1920.229,1106Z" transform="translate(-1905.041 -1079.883)" fill="#363e44"/>
                <g id="Grupo_896280" data-name="Grupo 896280" transform="translate(6.368 17.55)">
                  <g id="Grupo_896278" data-name="Grupo 896278">
                    <path id="Trazado_663028" data-name="Trazado 663028" d="M1876.63,1068.175h0l.022,0c.012.047.043.106.092.1a1.411,1.411,0,0,1,.125.257c.071.134.274.015.2-.119-.048-.09.272.082.412.136.447.172.9.323,1.358.461.214.064.428.13.644.187a5.61,5.61,0,0,0,.79.2,5.844,5.844,0,0,1,.9,1.038,6.006,6.006,0,0,1-1.916.428c0-.014-.006-.029-.009-.043a9.144,9.144,0,0,0-2.583-.622,1.19,1.19,0,1,1-.043-2.024Z" transform="translate(-1875.012 -1068.144)" fill="#fff"/>
                    <path id="Trazado_663029" data-name="Trazado 663029" d="M1884.774,1068.184a4.8,4.8,0,0,1,1.821,1.079,1.947,1.947,0,0,1-.977,1.466,4.49,4.49,0,0,1-1.559-.166,4.279,4.279,0,0,1-1.049-.488,1.954,1.954,0,0,1-.037-2.037A4.624,4.624,0,0,1,1884.774,1068.184Z" transform="translate(-1881.332 -1068.009)" fill="#363e44"/>
                  </g>
                  <g id="Grupo_896279" data-name="Grupo 896279" transform="translate(9.277 0.169)">
                    <path id="Trazado_663030" data-name="Trazado 663030" d="M1931.556,1069.121h0l-.022,0c-.012.047-.043.106-.092.1a1.4,1.4,0,0,0-.125.257c-.071.134-.275.015-.2-.119.048-.09-.272.082-.412.136-.447.172-.9.323-1.358.461-.214.064-.428.13-.644.187a5.613,5.613,0,0,1-.79.2,5.837,5.837,0,0,0-.9,1.038,6.016,6.016,0,0,0,1.916.428c0-.015.006-.029.009-.043a9.156,9.156,0,0,1,2.583-.622,1.19,1.19,0,1,0,.043-2.024Z" transform="translate(-1927.005 -1069.09)" fill="#fff"/>
                    <path id="Trazado_663031" data-name="Trazado 663031" d="M1933.9,1069.13a4.8,4.8,0,0,0-1.822,1.079,1.943,1.943,0,0,0,.978,1.466,4.492,4.492,0,0,0,1.56-.166,4.273,4.273,0,0,0,1.049-.488,1.954,1.954,0,0,0,.038-2.036A4.621,4.621,0,0,0,1933.9,1069.13Z" transform="translate(-1931.174 -1068.955)" fill="#363e44"/>
                  </g>
                </g>
                <path id="Trazado_663032" data-name="Trazado 663032" d="M1863.05,982.962s-1.074-3.553-5.253-1.053-15.721,3.948-17.188-4.869,5.795-8.506,8.5-5.407,3.867,7.19,8.689,6.95A4.843,4.843,0,0,1,1863.05,982.962Z" transform="translate(-1840.22 -969.655)" fill="#d87355"/>
                <path id="Trazado_663033" data-name="Trazado 663033" d="M1848.047,1018.248a11.124,11.124,0,0,1-2.68-.316c-2.836-.7-5.823-3.113-6.045-6.365a.394.394,0,1,1,.785-.054c.2,2.875,2.89,5.022,5.449,5.655a14,14,0,0,0,8.6-1.047.394.394,0,0,1,.3.729A17.136,17.136,0,0,1,1848.047,1018.248Z" transform="translate(-1839.321 -1003.744)" fill="#efbc73"/>
              </g>
            </g>
          </g>
          <g id="Grupo_896286" data-name="Grupo 896286" transform="translate(94.716 227.426)">
            <g id="Grupo_896284" data-name="Grupo 896284" transform="translate(0 62.683)">
              <rect id="Rectángulo_297073" data-name="Rectángulo 297073" width="83.338" height="18.52" transform="translate(1.929 3.903)" fill="#d87355"/>
              <rect id="Rectángulo_297074" data-name="Rectángulo 297074" width="87.042" height="11.353" transform="translate(0.309 13.624)" fill="#84524d"/>
              <rect id="Rectángulo_297075" data-name="Rectángulo 297075" width="87.042" height="11.353" fill="#84524d"/>
            </g>
            <g id="Grupo_896285" data-name="Grupo 896285" transform="translate(28.922 0)">
              <rect id="Rectángulo_297076" data-name="Rectángulo 297076" width="116.1" height="10.54" transform="translate(36.962 32.572) rotate(23.095)" fill="#84524d"/>
              <rect id="Rectángulo_297077" data-name="Rectángulo 297077" width="4.35" height="12.518" transform="translate(41.152 33.098) rotate(23.094)" fill="#d87355"/>
              <rect id="Rectángulo_297078" data-name="Rectángulo 297078" width="30.743" height="52.495" transform="matrix(0.92, 0.392, -0.392, 0.92, 22, 3.333)" fill="#84524d"/>
              <rect id="Rectángulo_297079" data-name="Rectángulo 297079" width="32.773" height="5.801" transform="translate(22.317 0) rotate(23.095)" fill="#d87355"/>
              <rect id="Rectángulo_297080" data-name="Rectángulo 297080" width="32.773" height="5.801" transform="translate(2.275 46.631) rotate(23.095)" fill="#d87355"/>
              <path id="Trazado_663034" data-name="Trazado 663034" d="M1174.28,1637.439a.4.4,0,0,1-.153-.031l-29.8-12.551a.394.394,0,0,1,.305-.725l29.8,12.552a.393.393,0,0,1-.152.756Z" transform="translate(-1123.353 -1621.693)" fill="#fff"/>
              <path id="Trazado_663035" data-name="Trazado 663035" d="M1061.943,1897.47a.4.4,0,0,1-.157-.033l-29.9-13.065a.393.393,0,1,1,.315-.721l29.9,13.065a.393.393,0,0,1-.158.754Z" transform="translate(-1030.982 -1834.903)" fill="#fff"/>
            </g>
          </g>
        </g>
      </g>
    </g>
  </g>
</svg>
