<svg xmlns="http://www.w3.org/2000/svg" xmlns:xlink="http://www.w3.org/1999/xlink" width="100" height="100" viewBox="0 0 100 100">
  <defs>
    <clipPath id="clip-path">
      <circle id="Elipse_6213" data-name="Elipse 6213" cx="50" cy="50" r="50" transform="translate(513 1589)" fill="#fff" stroke="#707070" stroke-width="1"/>
    </clipPath>
  </defs>
  <g id="Grupo_898331" data-name="Grupo 898331" transform="translate(-513 -1724.999)">
    <g id="Enmascarar_grupo_230" data-name="Enmascarar grupo 230" transform="translate(0 135.999)" clip-path="url(#clip-path)">
      <rect id="Rectángulo_297307" data-name="Rectángulo 297307" width="129" height="121" transform="translate(493 1579)" fill="#d5ebf3"/>
      <g id="Grupo_896589" data-name="Grupo 896589" transform="translate(429.438 1536.07)">
        <g id="Screen" transform="translate(67.894 49.774)">
          <g id="Grupo_896516" data-name="Grupo 896516" transform="translate(0)">
            <rect id="Rectángulo_297308" data-name="Rectángulo 297308" width="121.443" height="129.064" fill="#8ab7cc"/>
            <g id="Grupo_896513" data-name="Grupo 896513" transform="translate(5.718 4.148)">
              <g id="Grupo_896511" data-name="Grupo 896511">
                <path id="Trazado_663918" data-name="Trazado 663918" d="M133.755,110.562a3,3,0,0,1-3.16,0,3,3,0,1,1,3.16,0Z" transform="translate(-129.17 -105.001)" fill="#fff"/>
                <g id="Grupo_896510" data-name="Grupo 896510" transform="translate(1.425 1.748)">
                  <path id="Trazado_663919" data-name="Trazado 663919" d="M136.49,110.506a.914.914,0,1,1-.915-.915A.914.914,0,0,1,136.49,110.506Z" transform="translate(-133.995 -109.591)" fill="#37474f"/>
                  <path id="Trazado_663920" data-name="Trazado 663920" d="M136.073,116.047v.377a3,3,0,0,1-3.16,0v-.376a1.58,1.58,0,1,1,3.16,0Z" transform="translate(-132.913 -112.611)" fill="#37474f"/>
                </g>
              </g>
              <g id="Grupo_896512" data-name="Grupo 896512" transform="translate(89.707 2.666)">
                <path id="Trazado_663921" data-name="Trazado 663921" d="M365.065,112a.285.285,0,0,1,.283.283.282.282,0,0,1-.283.279.279.279,0,0,1-.279-.279A.282.282,0,0,1,365.065,112Z" transform="translate(-364.786 -112.004)" fill="#c7c7c7"/>
                <path id="Trazado_663922" data-name="Trazado 663922" d="M367.347,112a.285.285,0,0,1,.283.283.282.282,0,0,1-.283.279.279.279,0,0,1-.279-.279A.282.282,0,0,1,367.347,112Z" transform="translate(-366.199 -112.004)" fill="#c7c7c7"/>
                <path id="Trazado_663923" data-name="Trazado 663923" d="M369.631,112a.285.285,0,0,1,.283.283.282.282,0,0,1-.283.279.279.279,0,0,1-.279-.279A.282.282,0,0,1,369.631,112Z" transform="translate(-367.614 -112.004)" fill="#c7c7c7"/>
              </g>
              <rect id="Rectángulo_297309" data-name="Rectángulo 297309" width="28.932" height="1.468" transform="translate(9.5 2.271)" fill="#37474f"/>
            </g>
            <path id="Trazado_663924" data-name="Trazado 663924" d="M251.027,372.616h-73.4V394.7Z" transform="translate(-153.462 -266.578)" fill="#37474f"/>
            <g id="Grupo_896515" data-name="Grupo 896515" transform="translate(5.841 109.337)">
              <path id="Trazado_663925" data-name="Trazado 663925" d="M135.574,384.857a7.364,7.364,0,0,1-1.6,1.877,11.543,11.543,0,0,1-1.066.839h-.281a9.508,9.508,0,0,1-2.666-2.72,2.982,2.982,0,0,1-.186-2.844,1.42,1.42,0,0,1,1.257-.719,1.966,1.966,0,0,1,1.736,1.224,1.96,1.96,0,0,1,1.732-1.224,1.422,1.422,0,0,1,1.261.719A2.99,2.99,0,0,1,135.574,384.857Z" transform="translate(-129.494 -381.287)" fill="#ffc727"/>
              <g id="Grupo_896514" data-name="Grupo 896514" transform="translate(21.35 0.368)">
                <path id="Trazado_663926" data-name="Trazado 663926" d="M189.029,388.658l-.445-.086-.911-3.394-2.1-2.3.186-.422h7.417l.2.4Zm-2.7-5.693,1.757,1.918.057.1.793,2.954,3.732-4.977Z" transform="translate(-185.57 -382.38)" fill="#c7c7c7"/>
                <rect id="Rectángulo_297310" data-name="Rectángulo 297310" width="6.273" height="0.504" transform="matrix(0.914, -0.406, 0.406, 0.914, 1.997, 2.545)" fill="#c7c7c7"/>
              </g>
              <path id="Trazado_663927" data-name="Trazado 663927" d="M160.1,387.609a3.162,3.162,0,1,1,3.034-2.26l.477,1.948-.3.305-1.667-.391A3.182,3.182,0,0,1,160.1,387.609Zm0-5.822a2.659,2.659,0,1,0,1.373,4.94l.187-.029,1.364.319-.4-1.617,0-.137a2.658,2.658,0,0,0-2.533-3.476Z" transform="translate(-146.487 -381.283)" fill="#c7c7c7"/>
              <path id="Trazado_663928" data-name="Trazado 663928" d="M358.434,388.292l-.4-.2v-5.375l.252-.252h4.367l.252.252v5.375l-.4.2-2.035-1.848Zm.1-5.327v4.628l1.784-1.664h.3l1.783,1.664v-4.628Z" transform="translate(-271.021 -382.012)" fill="#c7c7c7"/>
            </g>
          </g>
        </g>
        <g id="Background_Complete" data-name="Background Complete" transform="translate(45.97 22.518)">
          <g id="Grupo_896517" data-name="Grupo 896517" transform="translate(0 92.367)">
            <path id="Trazado_663929" data-name="Trazado 663929" d="M57.8,281.736a11.447,11.447,0,1,1,15.381,5.05A11.447,11.447,0,0,1,57.8,281.736Z" transform="translate(-56.57 -265.12)" fill="#dbdbdb"/>
            <path id="Trazado_663930" data-name="Trazado 663930" d="M81.552,285.328c-.894,3.789-4.432,6.738-4.432,6.738s-4.477-1.084-6.948-4.089c-2.062-2.507-1.886-5.777.172-6.961,2.951-1.7,5.052,3.639,5.052,3.639s-.472-5.717,2.929-5.5C80.693,279.312,82.3,282.168,81.552,285.328Z" transform="translate(-64.087 -273.809)" fill="#fff"/>
          </g>
          <g id="Grupo_896519" data-name="Grupo 896519" transform="translate(123.513 119.81)">
            <path id="Trazado_663931" data-name="Trazado 663931" d="M397.59,358.867a11.444,11.444,0,0,1-11.994-1.036,11.446,11.446,0,1,1,11.994,1.036Z" transform="translate(-380.979 -337.202)" fill="#dbdbdb"/>
            <g id="Grupo_896518" data-name="Grupo 896518" transform="translate(4.617 6.661)">
              <path id="Trazado_663932" data-name="Trazado 663932" d="M409.144,358.479a3.483,3.483,0,1,1-3.172-3.768A3.483,3.483,0,0,1,409.144,358.479Z" transform="translate(-398.731 -354.698)" fill="#fff"/>
              <path id="Trazado_663933" data-name="Trazado 663933" d="M405.222,379.716l-.123,1.432a11.444,11.444,0,0,1-11.994-1.036l.123-1.427a6.019,6.019,0,1,1,11.995,1.03Z" transform="translate(-393.105 -366.144)" fill="#fff"/>
            </g>
          </g>
          <g id="Grupo_896520" data-name="Grupo 896520" transform="translate(130.475 32.38)">
            <path id="Trazado_663934" data-name="Trazado 663934" d="M402.153,123.609H400.8a1.522,1.522,0,0,1-1.534-1.534,1.54,1.54,0,0,1,1.534-1.534h1.888l.886-5.13h-1.714a1.535,1.535,0,0,1,0-3.069h2.248l.583-3.508a1.505,1.505,0,0,1,1.535-1.268,1.575,1.575,0,0,1,1.534,1.8l-.526,2.975h4.625l.591-3.508a1.514,1.514,0,0,1,1.563-1.268,1.559,1.559,0,0,1,1.506,1.8l-.5,2.975h1.362a1.539,1.539,0,0,1,1.527,1.534,1.559,1.559,0,0,1-1.527,1.535h-1.887l-.886,5.13h1.679a1.522,1.522,0,0,1,1.534,1.534,1.54,1.54,0,0,1-1.534,1.534h-2.212l-.619,3.624a1.52,1.52,0,0,1-1.535,1.268,1.557,1.557,0,0,1-1.534-1.794l.562-3.1h-4.632l-.62,3.624a1.536,1.536,0,0,1-1.556,1.268,1.507,1.507,0,0,1-1.506-1.794Zm8.292-3.069.886-5.13h-4.6l-.886,5.13Z" transform="translate(-399.264 -107.565)" fill="#ebebeb"/>
          </g>
          <g id="Grupo_896522" data-name="Grupo 896522" transform="translate(105.346)">
            <circle id="Elipse_6209" data-name="Elipse 6209" cx="12.575" cy="12.575" r="12.575" transform="translate(0 14.518) rotate(-35.257)" fill="#dbdbdb"/>
            <g id="xsrjP0" transform="translate(9.497 9.074)">
              <g id="Grupo_896521" data-name="Grupo 896521">
                <path id="Trazado_663935" data-name="Trazado 663935" d="M372.834,59.807c-.332-.209-.622-.512-1.068-.47-.171.017-.133-.124-.134-.217q0-2.514,0-5.025c0-.122.008-.222.141-.289,1.279-.645,1.834-1.915,2.618-3a5.009,5.009,0,0,0,.928-3.8c-.054-.377.122-.546.462-.623a.84.84,0,0,1,.956.3,6.761,6.761,0,0,1,.731,2.2,7.9,7.9,0,0,1-.233,1.882c-.058.46-.166.915-.253,1.38.112.082.243.039.363.041q2.122,0,4.245,0c.6,0,.888.171.971.567a1.134,1.134,0,0,1-.616,1.227c-.106.053-.3.005-.31.171s.184.152.282.22c.512.351.417,1.076-.176,1.495-.143.1-.419.054-.426.263,0,.167.255.165.372.282a.958.958,0,0,1-.41,1.48,1.9,1.9,0,0,0-.249.1c-.07.048-.139.1,0,.2A.834.834,0,0,1,381,59.673l-.185.132a1.194,1.194,0,0,1-.745.163q-3.328.006-6.656,0A.789.789,0,0,1,372.834,59.807Z" transform="translate(-366.519 -46.352)" fill="#fff" fill-rule="evenodd"/>
                <path id="Trazado_663936" data-name="Trazado 663936" d="M358.214,68.221c0-1.064,0-2.129,0-3.192,0-.217.021-.323.286-.32q1.948.024,3.893,0c.255,0,.294.085.293.311q-.011,3.213,0,6.425c0,.272-.072.35-.346.345-1.259-.014-2.518-.017-3.776,0-.313,0-.357-.1-.353-.379C358.223,70.35,358.214,69.286,358.214,68.221Z" transform="translate(-358.208 -57.72)" fill="#fff" fill-rule="evenodd"/>
              </g>
            </g>
          </g>
        </g>
        <g id="Shadow" transform="translate(41.332 176.334)">
          <path id="Trazado_663937" data-name="Trazado 663937" d="M69.562,429.022c0,1.383-5.635,2.5-12.587,2.5s-12.587-1.122-12.587-2.5,5.636-2.5,12.587-2.5S69.562,427.638,69.562,429.022Z" transform="translate(-44.388 -426.517)" fill="#ebebeb"/>
        </g>
        <g id="Floor" transform="translate(39.453 169.304)">
          <path id="Trazado_663938" data-name="Trazado 663938" d="M39.453,408.243l20.041-.093,20.041-.034,40.081-.064,40.081.063,20.041.033,20.041.093-20.041.093-20.041.033-40.081.063-40.081-.064-20.041-.034Z" transform="translate(-39.453 -408.053)" fill="#263238"/>
        </g>
        <g id="Character" transform="translate(83.238 68.764)">
          <g id="Grupo_896568" data-name="Grupo 896568">
            <g id="Grupo_896567" data-name="Grupo 896567">
              <g id="Grupo_896523" data-name="Grupo 896523" transform="translate(10.02 5.339)">
                <path id="Trazado_663939" data-name="Trazado 663939" d="M218.971,193.741a.334.334,0,0,1-.311.312c-.385-.022-.846-.055-1.363-.089-.8-3.311-1.771-5.988-1.558-4.965a16.346,16.346,0,0,1,.219,4.871c-.6-.045-1.99-.161-2.686-.219-.319-5.689-1.125-9.982-1.209-8.7-.336,5.167-.856,6.774-1.443,8.486-6.479-.547-14.965-1.356-21.087-2.073-.3-3.161-.482-6.563-.62-6.345a15.992,15.992,0,0,0-1.892,6.045c-1.947-.243-3.5-.471-4.439-.659,0,0-.115-2.64-.069-3.5a17.894,17.894,0,0,1,1.533-6.374,32.164,32.164,0,0,1,3.615-5.626.2.2,0,0,1,.032-.039c0-.006.005-.007.01-.015a18.4,18.4,0,0,0,2.152-3.789.091.091,0,0,0,.014-.029,17.736,17.736,0,0,0,.908-3.008c.782-3.752,3.348-6.75,7.041-7.283,7.56-5.452,13.948-1.905,15.344,3.22.134.5.252,1.067.359,1.684l0,.019c.4,2.28.644,5.2.925,7.474a.01.01,0,0,0,0,.013c-.005.008,0,.014,0,.026v.006a20.97,20.97,0,0,0,.465,2.642C216.1,180,219.689,182.758,218.971,193.741Z" transform="translate(-181.844 -158.007)" fill="#263238"/>
                <path id="Trazado_663940" data-name="Trazado 663940" d="M195.058,167.384a7.225,7.225,0,0,0-4.891,5.223,18.627,18.627,0,0,1-1.556,4.584,16.845,16.845,0,0,1-3.235,3.793,12.366,12.366,0,0,0-3.955,6.394,20.992,20.992,0,0,0-.327,8.686.012.012,0,1,0,.024,0,22.289,22.289,0,0,1,.868-8.99c.905-2.934,2.853-4.6,4.891-6.653a12.629,12.629,0,0,0,3.361-5.79,15.062,15.062,0,0,1,1.24-3.986,8.2,8.2,0,0,1,3.71-2.956A.164.164,0,0,0,195.058,167.384Z" transform="translate(-180.772 -163.807)" fill="#263238"/>
                <path id="Trazado_663941" data-name="Trazado 663941" d="M268.627,192.96c-1.366-2.364-2.843-4.42-3.459-7.212-.56-2.544-.726-5.177-1.3-7.72a.032.032,0,1,0-.062.011c.814,4.488.509,8.871,2.815,12.857a28.215,28.215,0,0,1,3.211,6.679,21.233,21.233,0,0,1,.541,8c-.01.1.112.106.133.016A17.562,17.562,0,0,0,268.627,192.96Z" transform="translate(-232.191 -170.389)" fill="#263238"/>
              </g>
              <g id="Grupo_896533" data-name="Grupo 896533" transform="translate(0 37.136)">
                <g id="Grupo_896527" data-name="Grupo 896527" transform="translate(29.396 1.697)">
                  <path id="Trazado_663942" data-name="Trazado 663942" d="M240.279,250.06c12.159,12.745,27.278,39.38,24.288,44.678-3.331,5.9-20.865-12.241-20.314-13.11.467-.738-5.591-16.775-9.992-28.5S237.272,246.908,240.279,250.06Z" transform="translate(-232.43 -245.98)" fill="#c95f50"/>
                  <g id="Grupo_896526" data-name="Grupo 896526">
                    <path id="Trazado_663943" data-name="Trazado 663943" d="M254.413,265.34l-17.46,3.143s-4.359-12.371-5.223-19.24c-.485-3.849,1.778-4.008,4.624-1.962C246.316,254.442,254.413,265.34,254.413,265.34Z" transform="translate(-231.664 -245.98)" fill="#ffc727"/>
                    <path id="Trazado_663944" data-name="Trazado 663944" d="M235.677,252.434a1.341,1.341,0,0,1-.29.34,2.112,2.112,0,0,1-.193.152h-.051a1.72,1.72,0,0,1-.483-.493.54.54,0,0,1-.034-.515.257.257,0,0,1,.228-.13.333.333,0,0,0,.628,0,.258.258,0,0,1,.228.13A.542.542,0,0,1,235.677,252.434Zm5.4-.436a.583.583,0,0,0,.063.434,1.758,1.758,0,0,0,.482.493h.051a1.707,1.707,0,0,0,.193-.15.212.212,0,0,0,.043-.043C241.635,252.487,241.355,252.239,241.075,252Zm-8.6-4.249a.254.254,0,0,0-.225-.13.3.3,0,0,0-.146.035v0a2.44,2.44,0,0,0-.332,1,1.072,1.072,0,0,0,.138.1h.051s.091-.063.189-.15a1.347,1.347,0,0,0,.292-.34A.543.543,0,0,0,232.471,247.749Zm3.24,12.475a.257.257,0,0,0-.228-.13.333.333,0,0,1-.628,0,.257.257,0,0,0-.228.13.54.54,0,0,0,.034.515,1.716,1.716,0,0,0,.483.492h.051a2.027,2.027,0,0,0,.193-.152,1.339,1.339,0,0,0,.29-.34A.542.542,0,0,0,235.711,260.225Zm6.478,0a.257.257,0,0,0-.228-.13.333.333,0,0,1-.628,0,.257.257,0,0,0-.228.13.54.54,0,0,0,.034.515,1.716,1.716,0,0,0,.483.492h.051a2.025,2.025,0,0,0,.193-.152,1.339,1.339,0,0,0,.29-.34A.542.542,0,0,0,242.189,260.225Zm6.478,0a.256.256,0,0,0-.228-.13.333.333,0,0,1-.628,0,.257.257,0,0,0-.228.13.54.54,0,0,0,.034.515,1.717,1.717,0,0,0,.483.492h.051a2.033,2.033,0,0,0,.193-.152,1.339,1.339,0,0,0,.29-.34A.542.542,0,0,0,248.666,260.225Zm-9.717-4.169a.258.258,0,0,0-.228-.13.333.333,0,0,1-.628,0,.257.257,0,0,0-.228.13.54.54,0,0,0,.034.515,1.725,1.725,0,0,0,.483.493h.051a2.1,2.1,0,0,0,.193-.152,1.34,1.34,0,0,0,.29-.34A.541.541,0,0,0,238.95,256.056Zm6.478,0a.257.257,0,0,0-.228-.13.333.333,0,0,1-.628,0,.257.257,0,0,0-.228.13.54.54,0,0,0,.033.515,1.725,1.725,0,0,0,.483.493h.051a2.112,2.112,0,0,0,.193-.152,1.34,1.34,0,0,0,.29-.34A.541.541,0,0,0,245.428,256.056Zm-3.239,12.475a.26.26,0,0,0-.229-.131.333.333,0,0,1-.628,0,.254.254,0,0,0-.225.131.434.434,0,0,0-.051.241l1.145-.205A.062.062,0,0,0,242.188,268.531Zm-3.239-4.169a.258.258,0,0,0-.228-.13.333.333,0,0,1-.628,0,.257.257,0,0,0-.228.13.54.54,0,0,0,.034.515,1.714,1.714,0,0,0,.483.493h.051a2.1,2.1,0,0,0,.193-.152,1.341,1.341,0,0,0,.29-.34A.541.541,0,0,0,238.95,264.362Zm6.478,0a.257.257,0,0,0-.228-.13.333.333,0,0,1-.628,0,.257.257,0,0,0-.228.13.54.54,0,0,0,.033.515,1.714,1.714,0,0,0,.483.493h.051a2.108,2.108,0,0,0,.193-.152,1.342,1.342,0,0,0,.29-.34A.541.541,0,0,0,245.428,264.362Zm6.478,0a.257.257,0,0,0-.228-.13.333.333,0,0,1-.628,0,.257.257,0,0,0-.228.13.54.54,0,0,0,.033.515,1.714,1.714,0,0,0,.483.493h.051a2.188,2.188,0,0,0,.193-.152,1.343,1.343,0,0,0,.29-.34A.542.542,0,0,0,251.905,264.362Z" transform="translate(-231.729 -246.995)" fill="#fff"/>
                    <g id="Grupo_896525" data-name="Grupo 896525" transform="translate(5.379 16.736)">
                      <g id="Grupo_896524" data-name="Grupo 896524">
                        <path id="Trazado_663945" data-name="Trazado 663945" d="M245.817,292.847a117.447,117.447,0,0,1,14.724-2.909c.029,0,.053.107.025.114-3.968,1.02-12.016,2.484-14.713,2.958C245.8,293.018,245.768,292.86,245.817,292.847Z" transform="translate(-245.793 -289.938)" fill="#263238"/>
                      </g>
                    </g>
                    <path id="Trazado_663946" data-name="Trazado 663946" d="M252.076,265.764l-15.123,2.721s-4.355-12.371-5.22-19.238c-.312-2.464.506-3.416,1.88-3.246Z" transform="translate(-231.666 -245.981)" opacity="0.1"/>
                  </g>
                </g>
                <g id="Grupo_896528" data-name="Grupo 896528" transform="translate(0.088)">
                  <path id="Trazado_663947" data-name="Trazado 663947" d="M198.936,291.455H154.687s4.025-30.869,18.28-47.1c3.845-4.379,10.819-3.083,14.119-.119a30.737,30.737,0,0,1,3.21,3.645c3,3.852,7.893,13.1,8.35,15.6.756,4.134-2.9,8.6-2.9,8.6Z" transform="translate(-154.687 -241.523)" fill="#ffc727"/>
                  <path id="Trazado_663948" data-name="Trazado 663948" d="M175.208,252.435a1.341,1.341,0,0,1-.29.34,2.111,2.111,0,0,1-.193.152h-.051a1.72,1.72,0,0,1-.483-.493.54.54,0,0,1-.034-.515.257.257,0,0,1,.227-.13.333.333,0,0,0,.628,0,.258.258,0,0,1,.228.13A.542.542,0,0,1,175.208,252.435Zm6.511-.516a.258.258,0,0,0-.228-.13.333.333,0,0,1-.628,0,.257.257,0,0,0-.228.13.54.54,0,0,0,.034.515,1.72,1.72,0,0,0,.483.493h.051a2.113,2.113,0,0,0,.193-.152,1.341,1.341,0,0,0,.29-.34A.541.541,0,0,0,181.72,251.919Zm6.478,0a.258.258,0,0,0-.228-.13.333.333,0,0,1-.628,0,.257.257,0,0,0-.228.13.54.54,0,0,0,.034.515,1.72,1.72,0,0,0,.483.493h.051a2.112,2.112,0,0,0,.193-.152,1.341,1.341,0,0,0,.29-.34A.541.541,0,0,0,188.2,251.919Zm-9.717-4.168a.258.258,0,0,0-.228-.13.333.333,0,0,1-.628,0,.257.257,0,0,0-.228.13.54.54,0,0,0,.034.515,1.726,1.726,0,0,0,.483.493h.051a2.15,2.15,0,0,0,.193-.152,1.34,1.34,0,0,0,.29-.34A.542.542,0,0,0,178.481,247.751Zm6.478,0a.258.258,0,0,0-.228-.13.333.333,0,0,1-.628,0,.257.257,0,0,0-.228.13.54.54,0,0,0,.033.515,1.725,1.725,0,0,0,.483.493h.051a2.153,2.153,0,0,0,.193-.152,1.339,1.339,0,0,0,.29-.34A.542.542,0,0,0,184.959,247.751Zm-16.194,12.475a.257.257,0,0,0-.228-.13.333.333,0,0,1-.628,0,.256.256,0,0,0-.227.13.54.54,0,0,0,.034.515,1.721,1.721,0,0,0,.483.492h.051a2.034,2.034,0,0,0,.193-.152,1.339,1.339,0,0,0,.29-.34A.543.543,0,0,0,168.764,260.226Zm6.478,0a.257.257,0,0,0-.228-.13.333.333,0,0,1-.628,0,.256.256,0,0,0-.227.13.54.54,0,0,0,.034.515,1.716,1.716,0,0,0,.483.492h.051a2.034,2.034,0,0,0,.193-.152,1.339,1.339,0,0,0,.29-.34A.542.542,0,0,0,175.242,260.226Zm6.478,0a.257.257,0,0,0-.228-.13.333.333,0,0,1-.628,0,.257.257,0,0,0-.228.13.54.54,0,0,0,.034.515,1.715,1.715,0,0,0,.483.492h.051a2.037,2.037,0,0,0,.193-.152,1.339,1.339,0,0,0,.29-.34A.542.542,0,0,0,181.72,260.226Zm6.478,0a.257.257,0,0,0-.228-.13.333.333,0,0,1-.628,0,.257.257,0,0,0-.228.13.54.54,0,0,0,.034.515,1.715,1.715,0,0,0,.483.492h.051a2.036,2.036,0,0,0,.193-.152,1.34,1.34,0,0,0,.29-.34A.542.542,0,0,0,188.2,260.226Zm6.478,0a.257.257,0,0,0-.228-.13.333.333,0,0,1-.628,0,.257.257,0,0,0-.228.13.54.54,0,0,0,.033.515,1.715,1.715,0,0,0,.483.492h.051a2.038,2.038,0,0,0,.193-.152,1.339,1.339,0,0,0,.29-.34A.542.542,0,0,0,194.675,260.226ZM172,256.057a.258.258,0,0,0-.228-.13.333.333,0,0,1-.628,0,.257.257,0,0,0-.227.13.54.54,0,0,0,.033.515,1.73,1.73,0,0,0,.483.493h.051a2.107,2.107,0,0,0,.193-.152,1.342,1.342,0,0,0,.29-.34A.542.542,0,0,0,172,256.057Zm6.478,0a.258.258,0,0,0-.228-.13.333.333,0,0,1-.628,0,.257.257,0,0,0-.228.13.54.54,0,0,0,.034.515,1.725,1.725,0,0,0,.483.493h.051a2.1,2.1,0,0,0,.193-.152,1.343,1.343,0,0,0,.29-.34A.542.542,0,0,0,178.481,256.057Zm6.478,0a.258.258,0,0,0-.228-.13.333.333,0,0,1-.628,0,.257.257,0,0,0-.228.13.54.54,0,0,0,.033.515,1.725,1.725,0,0,0,.483.493h.051a2.106,2.106,0,0,0,.193-.152,1.342,1.342,0,0,0,.29-.34A.542.542,0,0,0,184.959,256.057Zm6.478,0a.258.258,0,0,0-.228-.13.333.333,0,0,1-.628,0,.257.257,0,0,0-.228.13.54.54,0,0,0,.034.515,1.725,1.725,0,0,0,.483.493h.051a2.1,2.1,0,0,0,.193-.152,1.342,1.342,0,0,0,.29-.34A.542.542,0,0,0,191.436,256.057Zm-29.152,12.475a.254.254,0,0,0-.225-.131.355.355,0,0,0-.316.221c-.008-.012-.012-.027-.019-.04-.095.245-.186.486-.273.731v0a2.064,2.064,0,0,0,.268.221h.051s.091-.063.193-.15a1.5,1.5,0,0,0,.288-.34A.541.541,0,0,0,162.285,268.532Zm6.48,0a.258.258,0,0,0-.228-.13.333.333,0,0,1-.628,0,.257.257,0,0,0-.227.13.54.54,0,0,0,.034.515,1.731,1.731,0,0,0,.483.493h.051a2.116,2.116,0,0,0,.193-.152,1.341,1.341,0,0,0,.29-.34A.543.543,0,0,0,168.764,268.532Zm6.478,0a.258.258,0,0,0-.228-.13.333.333,0,0,1-.628,0,.257.257,0,0,0-.227.13.54.54,0,0,0,.034.515,1.726,1.726,0,0,0,.483.493h.051a2.117,2.117,0,0,0,.193-.152,1.34,1.34,0,0,0,.29-.34A.542.542,0,0,0,175.242,268.532Zm6.478,0a.258.258,0,0,0-.228-.13.333.333,0,0,1-.628,0,.257.257,0,0,0-.228.13.54.54,0,0,0,.034.515,1.725,1.725,0,0,0,.483.493h.051a2.12,2.12,0,0,0,.193-.152,1.341,1.341,0,0,0,.29-.34A.541.541,0,0,0,181.72,268.532Zm6.478,0a.258.258,0,0,0-.228-.13.333.333,0,0,1-.628,0,.257.257,0,0,0-.228.13.54.54,0,0,0,.034.515,1.725,1.725,0,0,0,.483.493h.051a2.119,2.119,0,0,0,.193-.152,1.341,1.341,0,0,0,.29-.34A.541.541,0,0,0,188.2,268.532Zm6.478,0a.258.258,0,0,0-.228-.13.333.333,0,0,1-.628,0,.257.257,0,0,0-.228.13.54.54,0,0,0,.033.515,1.725,1.725,0,0,0,.483.493h.051a2.121,2.121,0,0,0,.193-.152,1.341,1.341,0,0,0,.29-.34A.541.541,0,0,0,194.675,268.532Zm-29.15-4.169a.258.258,0,0,0-.228-.13.333.333,0,0,1-.628,0,.257.257,0,0,0-.227.13.54.54,0,0,0,.034.515,1.72,1.72,0,0,0,.483.493h.051a2.076,2.076,0,0,0,.193-.152,1.325,1.325,0,0,0,.29-.34A.542.542,0,0,0,165.525,264.363Zm6.478,0a.258.258,0,0,0-.228-.13.333.333,0,0,1-.628,0,.257.257,0,0,0-.227.13.54.54,0,0,0,.033.515,1.72,1.72,0,0,0,.483.493h.051a2.107,2.107,0,0,0,.193-.152,1.341,1.341,0,0,0,.29-.34A.541.541,0,0,0,172,264.363Zm6.478,0a.258.258,0,0,0-.228-.13.333.333,0,0,1-.628,0,.257.257,0,0,0-.228.13.54.54,0,0,0,.034.515,1.715,1.715,0,0,0,.483.493h.051a2.1,2.1,0,0,0,.193-.152,1.341,1.341,0,0,0,.29-.34A.542.542,0,0,0,178.481,264.363Zm6.478,0a.258.258,0,0,0-.228-.13.333.333,0,0,1-.628,0,.257.257,0,0,0-.228.13.54.54,0,0,0,.033.515,1.715,1.715,0,0,0,.483.493h.051a2.106,2.106,0,0,0,.193-.152,1.34,1.34,0,0,0,.29-.34A.542.542,0,0,0,184.959,264.363Zm6.478,0a.258.258,0,0,0-.228-.13.333.333,0,0,1-.628,0,.257.257,0,0,0-.228.13.54.54,0,0,0,.034.515,1.714,1.714,0,0,0,.483.493h.051a2.1,2.1,0,0,0,.193-.152,1.341,1.341,0,0,0,.29-.34A.541.541,0,0,0,191.436,264.363Zm6.326-.12a.226.226,0,0,0-.075-.012.336.336,0,0,1-.632,0,.259.259,0,0,0-.225.131.543.543,0,0,0,.032.517,1.76,1.76,0,0,0,.486.494h.051c0-.008.091-.063.19-.154a1.29,1.29,0,0,0,.292-.34.7.7,0,0,0,.071-.2v0Zm-35.476,12.594a.258.258,0,0,0-.228-.13.333.333,0,0,1-.628,0,.257.257,0,0,0-.227.13.54.54,0,0,0,.033.515,1.719,1.719,0,0,0,.483.493h.051a2.065,2.065,0,0,0,.193-.152,1.325,1.325,0,0,0,.29-.34A.542.542,0,0,0,162.286,276.838Zm6.478,0a.258.258,0,0,0-.228-.13.333.333,0,0,1-.628,0,.257.257,0,0,0-.227.13.54.54,0,0,0,.034.515,1.719,1.719,0,0,0,.483.493h.051a2.094,2.094,0,0,0,.193-.152,1.34,1.34,0,0,0,.29-.34A.542.542,0,0,0,168.764,276.838Zm6.478,0a.258.258,0,0,0-.228-.13.333.333,0,0,1-.628,0,.257.257,0,0,0-.227.13.54.54,0,0,0,.034.515,1.713,1.713,0,0,0,.483.493h.051a2.1,2.1,0,0,0,.193-.152,1.34,1.34,0,0,0,.29-.34A.541.541,0,0,0,175.242,276.838Zm6.478,0a.258.258,0,0,0-.228-.13.333.333,0,0,1-.628,0,.257.257,0,0,0-.228.13.54.54,0,0,0,.034.515,1.713,1.713,0,0,0,.483.493h.051a2.1,2.1,0,0,0,.193-.152,1.34,1.34,0,0,0,.29-.34A.541.541,0,0,0,181.72,276.838Zm6.478,0a.258.258,0,0,0-.228-.13.333.333,0,0,1-.628,0,.257.257,0,0,0-.228.13.54.54,0,0,0,.034.515,1.713,1.713,0,0,0,.483.493h.051a2.1,2.1,0,0,0,.193-.152,1.341,1.341,0,0,0,.29-.34A.541.541,0,0,0,188.2,276.838Zm6.478,0a.258.258,0,0,0-.228-.13.333.333,0,0,1-.628,0,.257.257,0,0,0-.228.13.54.54,0,0,0,.033.515,1.713,1.713,0,0,0,.483.493h.051a2.1,2.1,0,0,0,.193-.152,1.34,1.34,0,0,0,.29-.34A.541.541,0,0,0,194.675,276.838Zm-29.15-4.168a.258.258,0,0,0-.228-.13.333.333,0,0,1-.628,0,.257.257,0,0,0-.227.13.54.54,0,0,0,.034.515,1.731,1.731,0,0,0,.483.493h.051a2.118,2.118,0,0,0,.193-.152,1.325,1.325,0,0,0,.29-.34A.542.542,0,0,0,165.525,272.67Zm6.478,0a.258.258,0,0,0-.228-.13.333.333,0,0,1-.628,0,.257.257,0,0,0-.227.13.54.54,0,0,0,.033.515,1.731,1.731,0,0,0,.483.493h.051a2.151,2.151,0,0,0,.193-.152,1.34,1.34,0,0,0,.29-.34A.542.542,0,0,0,172,272.67Zm6.478,0a.258.258,0,0,0-.228-.13.333.333,0,0,1-.628,0,.257.257,0,0,0-.228.13.54.54,0,0,0,.034.515,1.725,1.725,0,0,0,.483.493h.051a2.147,2.147,0,0,0,.193-.152,1.341,1.341,0,0,0,.29-.34A.542.542,0,0,0,178.481,272.67Zm6.478,0a.258.258,0,0,0-.228-.13.333.333,0,0,1-.628,0,.257.257,0,0,0-.228.13.54.54,0,0,0,.033.515,1.725,1.725,0,0,0,.483.493h.051a2.15,2.15,0,0,0,.193-.152,1.34,1.34,0,0,0,.29-.34A.542.542,0,0,0,184.959,272.67Zm6.478,0a.258.258,0,0,0-.228-.13.333.333,0,0,1-.628,0,.257.257,0,0,0-.228.13.54.54,0,0,0,.034.515,1.725,1.725,0,0,0,.483.493h.051a2.147,2.147,0,0,0,.193-.152,1.34,1.34,0,0,0,.29-.34A.542.542,0,0,0,191.436,272.67Zm6.251-.13a.336.336,0,0,1-.632,0,.26.26,0,0,0-.225.13.536.536,0,0,0,.032.514,1.706,1.706,0,0,0,.486.493h.051c.17-.312.343-.651.509-1.011A.253.253,0,0,0,197.688,272.54Zm-35.4,12.6a.258.258,0,0,0-.228-.13.333.333,0,0,1-.628,0,.257.257,0,0,0-.227.13.54.54,0,0,0,.033.515,1.731,1.731,0,0,0,.483.493h.051a2.127,2.127,0,0,0,.193-.152,1.324,1.324,0,0,0,.29-.34A.542.542,0,0,0,162.286,285.144Zm6.478,0a.258.258,0,0,0-.228-.13.333.333,0,0,1-.628,0,.257.257,0,0,0-.227.13.54.54,0,0,0,.034.515,1.731,1.731,0,0,0,.483.493h.051a2.157,2.157,0,0,0,.193-.152,1.339,1.339,0,0,0,.29-.34A.543.543,0,0,0,168.764,285.144Zm6.478,0a.258.258,0,0,0-.228-.13.333.333,0,0,1-.628,0,.257.257,0,0,0-.227.13.54.54,0,0,0,.034.515,1.726,1.726,0,0,0,.483.493h.051a2.158,2.158,0,0,0,.193-.152,1.339,1.339,0,0,0,.29-.34A.542.542,0,0,0,175.242,285.144Zm6.478,0a.258.258,0,0,0-.228-.13.333.333,0,0,1-.628,0,.257.257,0,0,0-.228.13.54.54,0,0,0,.034.515,1.725,1.725,0,0,0,.483.493h.051A2.161,2.161,0,0,0,181.4,286a1.339,1.339,0,0,0,.29-.34A.542.542,0,0,0,181.72,285.144Zm6.478,0a.258.258,0,0,0-.228-.13.333.333,0,0,1-.628,0,.257.257,0,0,0-.228.13.54.54,0,0,0,.034.515,1.725,1.725,0,0,0,.483.493h.051a2.16,2.16,0,0,0,.193-.152,1.34,1.34,0,0,0,.29-.34A.541.541,0,0,0,188.2,285.144Zm6.478,0a.258.258,0,0,0-.228-.13.333.333,0,0,1-.628,0,.257.257,0,0,0-.228.13.54.54,0,0,0,.033.515,1.725,1.725,0,0,0,.483.493h.051a2.162,2.162,0,0,0,.193-.152,1.339,1.339,0,0,0,.29-.34A.542.542,0,0,0,194.675,285.144Zm-35.628-4.169a.258.258,0,0,0-.228-.13.333.333,0,0,1-.628,0,.257.257,0,0,0-.227.13.539.539,0,0,0,.034.515,1.731,1.731,0,0,0,.483.493h.051a2.079,2.079,0,0,0,.193-.152,1.326,1.326,0,0,0,.29-.34A.542.542,0,0,0,159.048,280.976Zm6.478,0a.258.258,0,0,0-.228-.13.333.333,0,0,1-.628,0,.257.257,0,0,0-.227.13.54.54,0,0,0,.034.515,1.732,1.732,0,0,0,.483.493h.051a2.082,2.082,0,0,0,.193-.152,1.326,1.326,0,0,0,.29-.34A.542.542,0,0,0,165.525,280.976Zm6.478,0a.258.258,0,0,0-.228-.13.333.333,0,0,1-.628,0,.257.257,0,0,0-.227.13.54.54,0,0,0,.033.515,1.731,1.731,0,0,0,.483.493h.051a2.113,2.113,0,0,0,.193-.152,1.341,1.341,0,0,0,.29-.34A.541.541,0,0,0,172,280.976Zm6.478,0a.258.258,0,0,0-.228-.13.333.333,0,0,1-.628,0,.257.257,0,0,0-.228.13.54.54,0,0,0,.034.515,1.726,1.726,0,0,0,.483.493h.051a2.11,2.11,0,0,0,.193-.152,1.341,1.341,0,0,0,.29-.34A.541.541,0,0,0,178.481,280.976Zm6.478,0a.258.258,0,0,0-.228-.13.333.333,0,0,1-.628,0,.257.257,0,0,0-.228.13.54.54,0,0,0,.033.515,1.726,1.726,0,0,0,.483.493h.051a2.112,2.112,0,0,0,.193-.152,1.34,1.34,0,0,0,.29-.34A.541.541,0,0,0,184.959,280.976Zm6.478,0a.258.258,0,0,0-.228-.13.333.333,0,0,1-.628,0,.257.257,0,0,0-.228.13.54.54,0,0,0,.034.515,1.726,1.726,0,0,0,.483.493h.051a2.11,2.11,0,0,0,.193-.152,1.341,1.341,0,0,0,.29-.34A.541.541,0,0,0,191.436,280.976Zm5.375.049a.553.553,0,0,0,.051.466.363.363,0,0,0,.04.063Zm-41,12.426a.26.26,0,0,0-.229-.13.348.348,0,0,0-.312.221.461.461,0,0,0-.083-.118c-.059.34-.1.635-.142.88a1.808,1.808,0,0,0,.2.154h.051a2.333,2.333,0,0,0,.193-.15,1.279,1.279,0,0,0,.288-.344A.536.536,0,0,0,155.809,293.451Zm6.477,0a.258.258,0,0,0-.228-.13.333.333,0,0,1-.628,0,.257.257,0,0,0-.227.13.54.54,0,0,0,.033.515,1.732,1.732,0,0,0,.483.493h.051a2.094,2.094,0,0,0,.193-.152,1.325,1.325,0,0,0,.29-.34A.542.542,0,0,0,162.286,293.451Zm6.478,0a.258.258,0,0,0-.228-.13.333.333,0,0,1-.628,0,.257.257,0,0,0-.227.13.54.54,0,0,0,.034.515,1.732,1.732,0,0,0,.483.493h.051a2.124,2.124,0,0,0,.193-.152,1.34,1.34,0,0,0,.29-.34A.542.542,0,0,0,168.764,293.451Zm6.478,0a.258.258,0,0,0-.228-.13.333.333,0,0,1-.628,0,.257.257,0,0,0-.227.13.54.54,0,0,0,.034.515,1.727,1.727,0,0,0,.483.493h.051a2.125,2.125,0,0,0,.193-.152,1.34,1.34,0,0,0,.29-.34A.541.541,0,0,0,175.242,293.451Zm6.478,0a.258.258,0,0,0-.228-.13.333.333,0,0,1-.628,0,.257.257,0,0,0-.228.13.54.54,0,0,0,.034.515,1.726,1.726,0,0,0,.483.493h.051a2.127,2.127,0,0,0,.193-.152,1.34,1.34,0,0,0,.29-.34A.541.541,0,0,0,181.72,293.451Zm6.478,0a.258.258,0,0,0-.228-.13.333.333,0,0,1-.628,0,.257.257,0,0,0-.228.13.54.54,0,0,0,.034.515,1.726,1.726,0,0,0,.483.493h.051a2.126,2.126,0,0,0,.193-.152,1.341,1.341,0,0,0,.29-.34A.541.541,0,0,0,188.2,293.451Zm6.478,0a.258.258,0,0,0-.228-.13.333.333,0,0,1-.628,0,.257.257,0,0,0-.228.13.54.54,0,0,0,.033.515,1.726,1.726,0,0,0,.483.493h.051a2.128,2.128,0,0,0,.193-.152,1.34,1.34,0,0,0,.29-.34A.541.541,0,0,0,194.675,293.451Zm-35.628-4.168a.257.257,0,0,0-.228-.131.333.333,0,0,1-.628,0,.256.256,0,0,0-.227.131.538.538,0,0,0,.034.515,1.72,1.72,0,0,0,.483.493h.051a2,2,0,0,0,.193-.152,1.32,1.32,0,0,0,.29-.34A.541.541,0,0,0,159.048,289.282Zm6.478,0a.257.257,0,0,0-.228-.131.333.333,0,0,1-.628,0,.256.256,0,0,0-.227.131.539.539,0,0,0,.034.515,1.72,1.72,0,0,0,.483.493h.051a2,2,0,0,0,.193-.152,1.32,1.32,0,0,0,.29-.34A.541.541,0,0,0,165.525,289.282Zm6.478,0a.257.257,0,0,0-.228-.131.333.333,0,0,1-.628,0,.256.256,0,0,0-.227.131.539.539,0,0,0,.033.515,1.72,1.72,0,0,0,.483.493h.051a2.034,2.034,0,0,0,.193-.152,1.335,1.335,0,0,0,.29-.34A.541.541,0,0,0,172,289.282Zm6.478,0a.257.257,0,0,0-.228-.131.333.333,0,0,1-.628,0,.257.257,0,0,0-.228.131.539.539,0,0,0,.034.515,1.715,1.715,0,0,0,.483.493h.051a2.031,2.031,0,0,0,.193-.152,1.335,1.335,0,0,0,.29-.34A.541.541,0,0,0,178.481,289.282Zm6.478,0a.257.257,0,0,0-.228-.131.333.333,0,0,1-.628,0,.257.257,0,0,0-.228.131.539.539,0,0,0,.033.515,1.715,1.715,0,0,0,.483.493h.051a2.033,2.033,0,0,0,.193-.152,1.334,1.334,0,0,0,.29-.34A.541.541,0,0,0,184.959,289.282Zm6.478,0a.257.257,0,0,0-.228-.131.333.333,0,0,1-.628,0,.257.257,0,0,0-.228.131.539.539,0,0,0,.034.515,1.714,1.714,0,0,0,.483.493h.051a2.031,2.031,0,0,0,.193-.152,1.335,1.335,0,0,0,.29-.34A.541.541,0,0,0,191.436,289.282Zm6.478,0a.257.257,0,0,0-.228-.131.333.333,0,0,1-.628,0,.257.257,0,0,0-.228.131.539.539,0,0,0,.033.515,1.715,1.715,0,0,0,.483.493h.051a2.037,2.037,0,0,0,.193-.152,1.334,1.334,0,0,0,.29-.34A.541.541,0,0,0,197.914,289.282Z" transform="translate(-154.907 -245.299)" fill="#fff"/>
                  <path id="Trazado_663949" data-name="Trazado 663949" d="M257.8,274.522a20.162,20.162,0,0,0-2.19-4.788c-.88-1.61-1.8-3.194-2.752-4.764l-.1-.167c-.158-.5-.384-.994-.575-1.479-.246-.623-.508-1.24-.75-1.864-.008-.022-.043-.013-.035.011.2.651.395,1.3.632,1.938.061.164.121.331.184.5-.32-.524-.643-1.046-.974-1.563-.563-.88-1.157-1.74-1.721-2.619a.02.02,0,0,0-.034.021c.9,1.544,1.772,3.108,2.673,4.653s1.784,3.1,2.626,4.677q.627,1.173,1.215,2.365a20.08,20.08,0,0,1,1.016,2.306,7.446,7.446,0,0,1,.032,4.737,23.742,23.742,0,0,1-2.438,4.89c-.038.064.06.139.106.078C256.648,280.906,258.6,277.865,257.8,274.522Z" transform="translate(-213.388 -252.789)" fill="#263238"/>
                </g>
                <g id="Grupo_896532" data-name="Grupo 896532" transform="translate(0 37.232)">
                  <g id="Grupo_896531" data-name="Grupo 896531" transform="translate(0 0.108)">
                    <path id="Trazado_663950" data-name="Trazado 663950" d="M254.094,352.711c-2.851,3.935-10.442,4.568-29.407,7.954-2.624.469-10.914-17.162-8.137-17.807,3.5-.812,17.246-3.2,18.274-3.252C243.49,339.2,256.028,350.042,254.094,352.711Z" transform="translate(-192.561 -339.596)" fill="#c95f50"/>
                    <g id="Grupo_896530" data-name="Grupo 896530" transform="translate(0 2.464)">
                      <path id="Trazado_663951" data-name="Trazado 663951" d="M182.24,346.068s-8.029,1.076-12.072,2.947a28.636,28.636,0,0,0-10.472,8.83c-2.954,4.035-7.309,15.832-4.129,17.679,2.878,1.672,6.719-10.612,6.719-10.612s-5.983,11.878-2.148,13.254,7.483-13.137,7.483-13.137-5.874,12.342-1.695,13.135c3.159.6,7.2-12.359,7.2-12.359s-4.975,10.643-1.754,11.4c3.56.836,8.044-10.892,8.044-10.892,8.512.544,12.788-2.678,15.557-5.333C195.646,360.337,182.24,346.068,182.24,346.068Z" transform="translate(-154.455 -346.068)" fill="#c95f50"/>
                      <g id="Grupo_896529" data-name="Grupo 896529" transform="translate(4.411 14.587)">
                        <path id="Trazado_663952" data-name="Trazado 663952" d="M171.266,384.4c-.753,1.37-1.525,2.752-2.154,4.183s-1.208,2.888-1.7,4.372a26.715,26.715,0,0,0-1.368,5.958,57.594,57.594,0,0,1,3.468-10.171c.628-1.429,1.184-2.89,1.811-4.32C171.338,384.383,171.284,384.364,171.266,384.4Z" transform="translate(-166.04 -384.38)" fill="#263238"/>
                        <path id="Trazado_663953" data-name="Trazado 663953" d="M185.753,390.121c-.886,1.791-1.831,3.536-2.639,5.366s-1.406,3.62-2.082,5.492c-.052.144.043.125.1-.018.75-1.844,1.586-3.49,2.357-5.325s1.473-3.7,2.308-5.5C185.811,390.11,185.767,390.094,185.753,390.121Z" transform="translate(-175.315 -387.927)" fill="#263238"/>
                        <path id="Trazado_663954" data-name="Trazado 663954" d="M200.531,392.9a44.677,44.677,0,0,0-3.408,8.515c-.045.145.074.106.129-.039,1.079-2.852,1.906-5.1,3.371-8.424C200.647,392.9,200.563,392.843,200.531,392.9Z" transform="translate(-185.283 -389.642)" fill="#263238"/>
                      </g>
                    </g>
                  </g>
                  <path id="Trazado_663955" data-name="Trazado 663955" d="M273.823,341.556c-1.262-.8-4.831-2.674-8.343-2.154a.031.031,0,0,0,0,.062,22.9,22.9,0,0,1,8.313,2.144A.029.029,0,0,0,273.823,341.556Z" transform="translate(-223.191 -339.313)" fill="#263238"/>
                </g>
              </g>
              <g id="Grupo_896552" data-name="Grupo 896552" transform="translate(17.014)">
                <g id="Grupo_896550" data-name="Grupo 896550" transform="translate(3.269 6.324)">
                  <g id="Grupo_896549" data-name="Grupo 896549">
                    <g id="Grupo_896534" data-name="Grupo 896534" transform="translate(4.018 18.935)">
                      <path id="Trazado_663956" data-name="Trazado 663956" d="M218.335,222.953c.192.729,3.827,5.4,7.178,5.149,1.091-.083.9-6.06.9-6.06l.087-.444,1.213-6.222-7.392-4.461-1.067-.588s-.22,1.724-.471,3.874c-.012.1-.024.2-.036.306s-.035.235-.046.349c-.042.321-.083.648-.118.975-.027.249-.055.491-.073.753s-.045.518-.071.781A40.886,40.886,0,0,0,218.335,222.953Z" transform="translate(-218.282 -210.327)" fill="#c95f50"/>
                      <path id="Trazado_663957" data-name="Trazado 663957" d="M219.607,214.2a12.714,12.714,0,0,0,7.717,7.4l1.213-6.222-7.392-4.461-1.067-.588S219.859,212.051,219.607,214.2Z" transform="translate(-219.103 -210.327)" fill="#263238"/>
                    </g>
                    <g id="Grupo_896548" data-name="Grupo 896548">
                      <path id="Trazado_663958" data-name="Trazado 663958" d="M234.208,175.984c1.794,10.979-4.58,13.293-6.948,13.677-2.15.349-9.513,1.263-12.431-9.472s1.619-15.04,6.493-16.1S232.414,165,234.208,175.984Z" transform="translate(-211.556 -162.604)" fill="#c95f50"/>
                      <g id="Grupo_896541" data-name="Grupo 896541" transform="translate(12.036 10.039)">
                        <path id="Trazado_663959" data-name="Trazado 663959" d="M257.707,188.081a7.241,7.241,0,0,1-.765-.074,1.241,1.241,0,0,1-.765-.225.4.4,0,0,1-.053-.48.981.981,0,0,1,.936-.335,1.442,1.442,0,0,1,.956.407A.422.422,0,0,1,257.707,188.081Z" transform="translate(-249.699 -186.961)" fill="#263238"/>
                        <path id="Trazado_663960" data-name="Trazado 663960" d="M240.842,190a7.263,7.263,0,0,0,.729-.241,1.243,1.243,0,0,0,.7-.388.4.4,0,0,0-.054-.48.982.982,0,0,0-.987-.121,1.443,1.443,0,0,0-.843.607A.422.422,0,0,0,240.842,190Z" transform="translate(-239.947 -188.035)" fill="#263238"/>
                        <g id="Grupo_896536" data-name="Grupo 896536" transform="translate(0 3.895)">
                          <g id="Grupo_896535" data-name="Grupo 896535" transform="translate(1.087)">
                            <path id="Trazado_663961" data-name="Trazado 663961" d="M245.461,199.006c-.01-.028-.054.043-.049.074.125.747.143,1.624-.5,1.965-.02.011-.013.048.012.041C245.735,200.858,245.7,199.694,245.461,199.006Z" transform="translate(-243.87 -198.311)" fill="#263238"/>
                            <path id="Trazado_663962" data-name="Trazado 663962" d="M243.013,197.193c-1.22.071-.987,2.506.143,2.439C244.267,199.568,244.035,197.133,243.013,197.193Z" transform="translate(-242.197 -197.192)" fill="#263238"/>
                          </g>
                          <path id="Trazado_663963" data-name="Trazado 663963" d="M240.778,197.624c-.2.158-.384.421-.638.471-.294.058-.542-.176-.759-.4-.023-.024-.042,0-.039.032.038.467.263.929.769.95.462.02.75-.425.822-.9C240.946,197.681,240.858,197.56,240.778,197.624Z" transform="translate(-239.341 -197.448)" fill="#263238"/>
                        </g>
                        <g id="Grupo_896538" data-name="Grupo 896538" transform="translate(6.98 2.808)">
                          <g id="Grupo_896537" data-name="Grupo 896537" transform="translate(0 0.184)">
                            <path id="Trazado_663964" data-name="Trazado 663964" d="M257.69,197.063c0-.029.062.03.064.062.042.757.218,1.616.922,1.807.022.006.023.044,0,.043C257.83,198.93,257.609,197.787,257.69,197.063Z" transform="translate(-257.674 -196.205)" fill="#263238"/>
                            <path id="Trazado_663965" data-name="Trazado 663965" d="M258.3,194.832c1.206-.2,1.514,2.227.4,2.411C257.6,197.424,257.293,195,258.3,194.832Z" transform="translate(-257.684 -194.821)" fill="#263238"/>
                          </g>
                          <path id="Trazado_663966" data-name="Trazado 663966" d="M260.5,194.627c.208.1.427.314.658.3.268-.016.431-.3.568-.577.014-.028.036-.01.041.022.072.462-.02.964-.454,1.11-.4.133-.745-.227-.914-.675C260.372,194.724,260.421,194.585,260.5,194.627Z" transform="translate(-259.358 -194.336)" fill="#263238"/>
                        </g>
                        <path id="Trazado_663967" data-name="Trazado 663967" d="M246.84,214.674c.19.168.383.4.659.412a2,2,0,0,0,.8-.231.027.027,0,0,1,.035.037,1.021,1.021,0,0,1-.94.459.806.806,0,0,1-.628-.639C246.755,214.669,246.813,214.65,246.84,214.674Z" transform="translate(-243.94 -204.116)" fill="#263238"/>
                        <g id="Grupo_896539" data-name="Grupo 896539" transform="translate(3.521)">
                          <path id="Trazado_663968" data-name="Trazado 663968" d="M251.155,194.3s.278,1.114.335,1.647a2.886,2.886,0,0,1-2.885-.562c-.048-.043.019-.11.072-.082a3.84,3.84,0,0,0,2.385.414c.022-.152-.539-1.891-.455-1.906a4.659,4.659,0,0,1,1.24.144c-.511-2.336-1.393-4.571-1.867-6.9a.073.073,0,0,1,.136-.049,38.735,38.735,0,0,1,2.327,7.351C252.519,194.649,251.378,194.366,251.155,194.3Z" transform="translate(-248.589 -186.961)" fill="#263238"/>
                        </g>
                        <g id="Grupo_896540" data-name="Grupo 896540" transform="translate(3.336 8.366)">
                          <path id="Trazado_663969" data-name="Trazado 663969" d="M250.457,209.574a2.771,2.771,0,0,1-1.028.954,1.249,1.249,0,0,1-.75.114c-.558-.095-.616-.594-.555-1.031a2.985,2.985,0,0,1,.186-.677A3.588,3.588,0,0,0,250.457,209.574Z" transform="translate(-248.105 -208.934)" fill="#263238"/>
                          <path id="Trazado_663970" data-name="Trazado 663970" d="M249.429,211.629a1.249,1.249,0,0,1-.75.114c-.558-.095-.616-.594-.555-1.031A1.288,1.288,0,0,1,249.429,211.629Z" transform="translate(-248.105 -210.035)" fill="#ff9abb"/>
                        </g>
                      </g>
                      <g id="Grupo_896543" data-name="Grupo 896543" transform="translate(0.813)">
                        <g id="Grupo_896542" data-name="Grupo 896542">
                          <path id="Trazado_663971" data-name="Trazado 663971" d="M212.649,177.627c2.1.185,2.456-4.627,2.456-4.627s8.855-1.85,9.336-9.135a12.288,12.288,0,0,0,6.451,6.484s-.614-7.944-6.98-9.25c0,0-7.936-2.552-12.1,3.827S211.238,177.5,212.649,177.627Z" transform="translate(-209.863 -160.594)" fill="#263238"/>
                        </g>
                        <path id="Trazado_663972" data-name="Trazado 663972" d="M235.837,167.771a7.9,7.9,0,0,1-.272,3.328,8.226,8.226,0,0,1-1.571,2.994,7.01,7.01,0,0,1-.579.625l-.3.3c-.107.093-.219.18-.33.268-.225.172-.443.354-.673.517-.241.148-.485.29-.729.43-.123.069-.243.143-.367.207l-.387.167-.772.331c-.533.17-1.073.313-1.61.447.5-.243,1.021-.431,1.513-.675l.724-.387.361-.192c.116-.072.225-.154.337-.23.223-.156.446-.31.673-.457.214-.166.413-.349.62-.521l.309-.261.278-.293a6.8,6.8,0,0,0,.54-.6,9.436,9.436,0,0,0,1.594-2.795,9.838,9.838,0,0,0,.44-1.571A9.534,9.534,0,0,0,235.837,167.771Z" transform="translate(-221.249 -165.038)" fill="#263238"/>
                      </g>
                      <g id="Grupo_896546" data-name="Grupo 896546" transform="translate(0 15.29)">
                        <g id="Grupo_896544" data-name="Grupo 896544" transform="translate(0.467)">
                          <path id="Trazado_663973" data-name="Trazado 663973" d="M213.643,203.233s-2.682-3.28-4.188-2.3.694,5.864,2.59,6.411a1.881,1.881,0,0,0,2.437-1.2Z" transform="translate(-208.954 -200.752)" fill="#c95f50"/>
                          <path id="Trazado_663974" data-name="Trazado 663974" d="M211.975,204.868a.025.025,0,0,0-.006.05,4.756,4.756,0,0,1,2.675,2.782,1.039,1.039,0,0,0-1.571-.166c-.032.027,0,.077.04.067a1.157,1.157,0,0,1,1.3.306,5.589,5.589,0,0,1,.686.982c.069.111.273.033.219-.1l-.013-.029C215.214,207.111,213.758,204.9,211.975,204.868Z" transform="translate(-210.81 -203.301)" fill="#263238"/>
                        </g>
                        <g id="Grupo_896545" data-name="Grupo 896545" transform="translate(2.837 4.956)">
                          <path id="Trazado_663975" data-name="Trazado 663975" d="M218.338,215.829a.452.452,0,1,1-.452-.452A.451.451,0,0,1,218.338,215.829Z" transform="translate(-216.576 -214.764)" fill="#fff"/>
                          <circle id="Elipse_6210" data-name="Elipse 6210" cx="0.326" cy="0.326" r="0.326" fill="#fff"/>
                        </g>
                        <path id="Rectángulo_297311" data-name="Rectángulo 297311" d="M.238,0H.91a.238.238,0,0,1,.238.238v0A.238.238,0,0,1,.909.476H.238A.238.238,0,0,1,0,.238v0A.238.238,0,0,1,.238,0Z" transform="matrix(0.996, 0.086, -0.086, 0.996, 0.072, 0.895)" fill="#ffc727"/>
                        <rect id="Rectángulo_297312" data-name="Rectángulo 297312" width="1.148" height="0.476" rx="0.238" transform="translate(0 1.785) rotate(-7.322)" fill="#ffc727"/>
                      </g>
                      <g id="Grupo_896547" data-name="Grupo 896547" transform="translate(0.043 8.373)">
                        <path id="Trazado_663976" data-name="Trazado 663976" d="M208.471,187.473l-.631,1.007,3.232,2.922,1.372-2.274Zm2.472,2.808-2.26-1.815.141-.238,2.616,1.259Z" transform="translate(-207.84 -185.612)" fill="#ffc727"/>
                        <path id="Trazado_663977" data-name="Trazado 663977" d="M210.057,182.585l-.205,1.171,4.1,1.488.414-2.623Zm3.348,1.669-2.777-.83.041-.274,2.9.181Z" transform="translate(-209.086 -182.585)" fill="#ffc727"/>
                      </g>
                    </g>
                  </g>
                </g>
                <g id="Grupo_896551" data-name="Grupo 896551">
                  <path id="Trazado_663978" data-name="Trazado 663978" d="M209.018,152.121c.848-.316,1.653-5.053-1.461-7.309-3.067-2.222-7.1.321-5.43,4.2C203.184,151.467,207.224,152.789,209.018,152.121Z" transform="translate(-200.748 -143.984)" fill="#263238"/>
                  <path id="Trazado_663979" data-name="Trazado 663979" d="M201.6,145.422a5.3,5.3,0,0,0-1.8,3,3.2,3.2,0,0,0,.945,3.052,6.461,6.461,0,0,0,3.094,1.513,9.893,9.893,0,0,0,1.777.218,4.9,4.9,0,0,0,1.794-.2,4.3,4.3,0,0,1-1.781.528,7.994,7.994,0,0,1-1.881-.029,6.229,6.229,0,0,1-3.47-1.545,3.719,3.719,0,0,1-1.026-1.7,3.759,3.759,0,0,1,.036-1.962A4.678,4.678,0,0,1,201.6,145.422Z" transform="translate(-199.142 -144.875)" fill="#263238"/>
                </g>
              </g>
              <g id="Grupo_896566" data-name="Grupo 896566" transform="translate(1.643 1.398)">
                <g id="Grupo_896559" data-name="Grupo 896559" transform="translate(39.994 0)">
                  <g id="Grupo_896554" data-name="Grupo 896554" transform="translate(7.108 29.848)">
                    <g id="Grupo_896553" data-name="Grupo 896553" transform="translate(1.173 4.209)">
                      <path id="Trazado_663980" data-name="Trazado 663980" d="M289.044,253.17l5.3-.715-2.071-15.346-6.706.9Z" transform="translate(-285.566 -237.109)" fill="#ffc727"/>
                      <path id="Trazado_663981" data-name="Trazado 663981" d="M285.57,238.013l1.325,5.782,2.153,9.376,5.3-.715-2.071-15.348Z" transform="translate(-285.568 -237.108)" fill="#ffc727"/>
                      <path id="Trazado_663982" data-name="Trazado 663982" d="M285.57,238.013l1.325,5.782,6.172-.833-.79-5.854Z" transform="translate(-285.568 -237.108)" opacity="0.1"/>
                    </g>
                    <rect id="Rectángulo_297313" data-name="Rectángulo 297313" width="8.419" height="6.395" transform="translate(9.199 6.338) rotate(172.315)" fill="#ffc727"/>
                  </g>
                  <g id="Grupo_896557" data-name="Grupo 896557">
                    <g id="Grupo_896555" data-name="Grupo 896555" transform="translate(0 18.929)">
                      <path id="Trazado_663983" data-name="Trazado 663983" d="M265.025,207.858l6.568-.227-1.384-10.256-6.394,1.522Z" transform="translate(-263.815 -197.375)" fill="#ffc727"/>
                    </g>
                    <path id="Trazado_663984" data-name="Trazado 663984" d="M288.644,165.669l2.042,15.135,11.051-.165,26.54,5.89-4.905-36.348L299.343,162.9Z" transform="translate(-279.191 -149.22)" fill="#ffc727"/>
                    <ellipse id="Elipse_6211" data-name="Elipse 6211" cx="5.924" cy="18.43" rx="5.924" ry="18.43" transform="matrix(0.991, -0.134, 0.134, 0.991, 38.887, 1.584)" fill="#ffc727"/>
                    <ellipse id="Elipse_6212" data-name="Elipse 6212" cx="4.85" cy="16.361" rx="4.85" ry="16.361" transform="matrix(0.991, -0.134, 0.134, 0.991, 40.489, 3.136)" opacity="0.2"/>
                    <path id="Trazado_663985" data-name="Trazado 663985" d="M377.34,190c.161,1.193.357,2.349.582,3.457a3.658,3.658,0,0,0,5.532-3.615l-.231-1.714a3.656,3.656,0,0,0-6.268-2.042C377.029,187.344,377.159,188.657,377.34,190Z" transform="translate(-333.879 -170.754)" fill="#ffc727"/>
                    <g id="Grupo_896556" data-name="Grupo 896556" transform="translate(3.404 12.941)">
                      <path id="Trazado_663986" data-name="Trazado 663986" d="M275.095,201.92l12.7-.439-2.676-19.834-12.364,2.944Z" transform="translate(-272.756 -181.647)" fill="#ffc727"/>
                      <path id="Trazado_663987" data-name="Trazado 663987" d="M275.095,201.92l12.7-.439-2.676-19.834-12.364,2.944Z" transform="translate(-272.756 -181.647)" opacity="0.2"/>
                    </g>
                    <path id="Trazado_663988" data-name="Trazado 663988" d="M373.07,157.323a11.445,11.445,0,0,0-1.436,3.866,26.077,26.077,0,0,0-.492,4.117c-.048.691-.031,1.383-.04,2.074.029.691.038,1.383.084,2.072s.09,1.38.168,2.066.146,1.374.24,2.059a45.4,45.4,0,0,0,1.825,8.08,23.568,23.568,0,0,0,1.647,3.807,9.818,9.818,0,0,0,2.621,3.177,10.14,10.14,0,0,1-2.45-3.269,23.6,23.6,0,0,1-1.529-3.81,48.1,48.1,0,0,1-1.722-8.04,49.367,49.367,0,0,1-.541-8.206,26.262,26.262,0,0,1,.378-4.091A11.918,11.918,0,0,1,373.07,157.323Z" transform="translate(-330.254 -153.643)" opacity="0.2"/>
                  </g>
                  <g id="Grupo_896558" data-name="Grupo 896558" transform="translate(47.517 1.078)">
                    <path id="Trazado_663989" data-name="Trazado 663989" d="M397.21,150.488c-.775.563-1.518,1.161-2.257,1.765s-1.462,1.226-2.181,1.852-1.425,1.267-2.115,1.927l-1.034.99c-.334.342-.678.673-1,1.025.391-.278.762-.578,1.144-.865l1.114-.9c.742-.6,1.462-1.226,2.181-1.852s1.424-1.268,2.114-1.928S396.553,151.185,397.21,150.488Z" transform="translate(-388.619 -150.488)" fill="#263238"/>
                    <path id="Trazado_663990" data-name="Trazado 663990" d="M394.26,223.176c1.033.313,2.075.581,3.119.841s2.093.5,3.143.729,2.105.442,3.164.631l1.59.281c.533.078,1.063.171,1.6.236-.515-.161-1.036-.3-1.555-.444l-1.564-.4c-1.043-.265-2.093-.5-3.143-.728s-2.1-.442-3.164-.63S395.33,223.315,394.26,223.176Z" transform="translate(-392.112 -195.501)" fill="#263238"/>
                    <path id="Trazado_663991" data-name="Trazado 663991" d="M415.853,213.5c-1.572-.188-3.148-.329-4.723-.462s-3.153-.243-4.731-.347-3.156-.187-4.737-.247l-2.37-.088c-.791-.014-1.581-.042-2.373-.043.786.1,1.574.169,2.36.254l2.363.209c1.575.138,3.153.243,4.73.346s3.156.187,4.737.246S414.27,213.493,415.853,213.5Z" transform="translate(-393.759 -188.776)" fill="#263238"/>
                    <path id="Trazado_663992" data-name="Trazado 663992" d="M408.248,152.249c-1.385.812-2.744,1.665-4.1,2.522s-2.7,1.736-4.035,2.618-2.666,1.782-3.98,2.7l-1.97,1.38c-.648.474-1.3.934-1.945,1.419.7-.4,1.374-.828,2.062-1.242l2.037-1.28c1.357-.854,2.7-1.736,4.035-2.619s2.665-1.783,3.979-2.7S406.962,153.21,408.248,152.249Z" transform="translate(-390.848 -151.579)" fill="#263238"/>
                    <path id="Trazado_663993" data-name="Trazado 663993" d="M395.9,191.044c1.845-.178,3.683-.4,5.52-.636s3.669-.5,5.5-.75c1.83-.283,3.662-.548,5.489-.849l2.74-.46c.911-.169,1.824-.323,2.733-.5-.923.085-1.842.2-2.763.295l-2.757.34c-1.837.233-3.669.5-5.5.751-1.829.284-3.662.548-5.489.85S397.721,190.689,395.9,191.044Z" transform="translate(-393.129 -173.622)" fill="#263238"/>
                  </g>
                </g>
                <g id="Grupo_896562" data-name="Grupo 896562" transform="translate(0 37.774)">
                  <path id="Trazado_663994" data-name="Trazado 663994" d="M171.4,253.13c-5.766,9.437-15.521,29.812-11.81,37.217,3.574,7.132,39.651-12.427,44.218-15.979,1.99-1.548-7.318-19.859-9.589-18.407-3.038,1.941-17.768,13.949-18.089,14.01-.688.132,1.361-6.651,2.747-15.06C180.893,242.674,175.545,246.346,171.4,253.13Z" transform="translate(-158.77 -246.87)" fill="#c95f50"/>
                  <g id="Grupo_896561" data-name="Grupo 896561" transform="translate(34.377 0.207)">
                    <path id="Trazado_663995" data-name="Trazado 663995" d="M274.251,248.818a3,3,0,0,1,.2,3.423,4.456,4.456,0,0,1,2.4,1.85c.911,1.593-1.186,3.721-1.186,3.721a5.494,5.494,0,0,1,2.22,2.355c.719,1.612-1.092,4.061-1.092,4.061a4.818,4.818,0,0,1,.648,3.3c-.623,3.03-5.041,4.706-7.857,5.752-4.183,1.553-11.768,1.5-13.467,1.751l-7.055-17.942s11.206-8.4,14.683-9.195C266.674,247.223,272.732,247.031,274.251,248.818Z" transform="translate(-249.061 -247.413)" fill="#c95f50"/>
                    <g id="Grupo_896560" data-name="Grupo 896560" transform="translate(15.546 4.588)">
                      <path id="Trazado_663996" data-name="Trazado 663996" d="M299.5,259.463c-3.286-.035-6.4.9-9.567,1.665a.056.056,0,0,0,.027.109c3.138-.793,6.393-.952,9.556-1.618A.079.079,0,0,0,299.5,259.463Z" transform="translate(-289.892 -259.463)" fill="#263238"/>
                      <path id="Trazado_663997" data-name="Trazado 663997" d="M303.923,274.168a8.563,8.563,0,0,0-2.187.482q-1.143.335-2.273.71-2.264.746-4.488,1.606c-.066.026-.043.132.027.109,1.505-.493,3.017-.964,4.542-1.394q1.144-.323,2.294-.627a10.2,10.2,0,0,0,2.138-.675A.114.114,0,0,0,303.923,274.168Z" transform="translate(-293.015 -268.569)" fill="#263238"/>
                      <path id="Trazado_663998" data-name="Trazado 663998" d="M308.445,291.627a5.962,5.962,0,0,0-1.946.539q-1.025.361-2.053.712c-1.371.467-2.742.934-4.128,1.352-.069.021-.043.13.027.109,1.411-.418,2.827-.818,4.234-1.249q1.037-.318,2.069-.646a5.584,5.584,0,0,0,1.823-.75A.04.04,0,0,0,308.445,291.627Z" transform="translate(-296.324 -279.381)" fill="#263238"/>
                    </g>
                  </g>
                  <path id="Trazado_663999" data-name="Trazado 663999" d="M198.273,345.649c-2.334,1.141-4.691,2.233-7.1,3.21-2.389.969-4.822,1.85-7.279,2.63-1.378.437-2.768.857-4.166,1.226-.039.01-.021.067.018.059a58.948,58.948,0,0,0,7.533-1.967q1.842-.626,3.642-1.374c1.183-.492,2.373-1,3.513-1.584,1.31-.675,2.62-1.365,3.879-2.132C198.356,345.688,198.316,345.627,198.273,345.649Z" transform="translate(-171.735 -308.038)" fill="#263238"/>
                  <path id="Trazado_664000" data-name="Trazado 664000" d="M275.655,317.1a32,32,0,0,1-7.277.582,57.561,57.561,0,0,1-5.192,3.487c-.035.02,0,.069.032.053a23.405,23.405,0,0,0,5.3-3.13,19.411,19.411,0,0,0,7.149-.9C275.751,317.167,275.737,317.082,275.655,317.1Z" transform="translate(-223.422 -290.362)" fill="#263238"/>
                </g>
                <g id="Grupo_896565" data-name="Grupo 896565" transform="translate(0.634 37.189)">
                  <path id="Trazado_664001" data-name="Trazado 664001" d="M160.435,267.54l17.73.61s2.541-12.868,2.413-19.79c-.072-3.879-2.334-3.711-4.857-1.279C166.887,255.594,160.435,267.54,160.435,267.54Z" transform="translate(-160.435 -245.335)" fill="#ffc727"/>
                  <path id="Trazado_664002" data-name="Trazado 664002" d="M178.73,259.043a.586.586,0,0,1-.067.174,1.336,1.336,0,0,1-.288.34,2.252,2.252,0,0,1-.194.15h-.032C178.344,259.486,178.533,259.265,178.73,259.043Zm6.446-.344a.258.258,0,0,0-.228-.13.333.333,0,0,1-.628,0,.257.257,0,0,0-.227.13.54.54,0,0,0,.034.515,1.72,1.72,0,0,0,.483.493h.051a2.106,2.106,0,0,0,.193-.152,1.341,1.341,0,0,0,.29-.34A.542.542,0,0,0,185.177,258.7ZM171.99,267.77a1,1,0,0,0,.2-.249.458.458,0,0,0,.04-.091C172.148,267.545,172.069,267.659,171.99,267.77Zm6.709-.764a.257.257,0,0,0-.228-.13.333.333,0,0,1-.628,0,.256.256,0,0,0-.227.13.54.54,0,0,0,.034.515,1.721,1.721,0,0,0,.483.492h.051a2.03,2.03,0,0,0,.193-.152,1.339,1.339,0,0,0,.29-.34A.543.543,0,0,0,178.7,267.006Zm6.478,0a.257.257,0,0,0-.228-.13.333.333,0,0,1-.628,0,.256.256,0,0,0-.227.13.54.54,0,0,0,.034.515,1.716,1.716,0,0,0,.483.492h.051a2.027,2.027,0,0,0,.193-.152,1.339,1.339,0,0,0,.29-.34A.541.541,0,0,0,185.177,267.006Zm-10.332-3.192a.288.288,0,0,0,.047.032h.051a1.881,1.881,0,0,0,.193-.154,1.284,1.284,0,0,0,.289-.34.639.639,0,0,0,.079-.395C175.275,263.241,175.058,263.529,174.845,263.813Zm7.093-.976a.258.258,0,0,0-.228-.13.333.333,0,0,1-.628,0,.257.257,0,0,0-.227.13.54.54,0,0,0,.033.515,1.73,1.73,0,0,0,.483.493h.051a2.1,2.1,0,0,0,.193-.152,1.341,1.341,0,0,0,.29-.34A.542.542,0,0,0,181.938,262.837Zm-9.719,12.475a.254.254,0,0,0-.225-.131.355.355,0,0,0-.316.221.349.349,0,0,0-.312-.221.26.26,0,0,0-.229.131.533.533,0,0,0,.032.513.357.357,0,0,0,.031.051l.936.035a.891.891,0,0,0,.051-.083A.541.541,0,0,0,172.219,275.312Zm6.48,0a.26.26,0,0,0-.229-.131.35.35,0,0,0-.312.221.359.359,0,0,0-.316-.221.265.265,0,0,0-.229.131.548.548,0,0,0,.035.513,1.151,1.151,0,0,0,.229.284l.541.019a1.277,1.277,0,0,0,.245-.3A.543.543,0,0,0,178.7,275.312Zm6.25-.131a.355.355,0,0,0-.316.221.35.35,0,0,0-.312-.221.26.26,0,0,0-.229.131.527.527,0,0,0,.035.513,1.653,1.653,0,0,0,.482.493h.051s.051-.035.123-.091c.032-.174.1-.533.193-1.042A.064.064,0,0,0,184.949,275.181Zm-9.489-4.038a.258.258,0,0,0-.228-.13.333.333,0,0,1-.628,0,.257.257,0,0,0-.227.13.54.54,0,0,0,.034.515,1.72,1.72,0,0,0,.483.493h.051a2.058,2.058,0,0,0,.193-.152,1.325,1.325,0,0,0,.29-.34A.542.542,0,0,0,175.46,271.143Zm6.478,0a.258.258,0,0,0-.228-.13.333.333,0,0,1-.628,0,.257.257,0,0,0-.227.13.54.54,0,0,0,.033.515,1.72,1.72,0,0,0,.483.493h.051a2.094,2.094,0,0,0,.193-.152,1.34,1.34,0,0,0,.29-.34A.542.542,0,0,0,181.938,271.143Z" transform="translate(-167.03 -253.531)" fill="#fff"/>
                  <g id="Grupo_896564" data-name="Grupo 896564" transform="translate(2.191 19.194)">
                    <g id="Grupo_896563" data-name="Grupo 896563">
                      <path id="Trazado_664003" data-name="Trazado 664003" d="M181.206,296.556a117.51,117.51,0,0,0-14.989-.769c-.029,0-.037.113-.008.116,4.074.441,12.248.737,14.985.82C181.245,296.724,181.257,296.562,181.206,296.556Z" transform="translate(-166.191 -295.748)" fill="#263238"/>
                    </g>
                  </g>
                  <path id="Trazado_664004" data-name="Trazado 664004" d="M207.6,268.63c-.2.767-.393,1.537-.578,2.307.01-.094.022-.187.032-.281.11-1.078.215-2.155.294-3.235,0-.026-.042-.031-.045-.005-.527,3.768-2.017,13.289-2.1,14.331-.084-.011-.892.02-1.081.011-.04,0-.037.057,0,.062.1.01,1.311.158,1.318.131.528-1.837,1.331-8.776,1.5-10.312.275-.99.5-1.99.68-3A.011.011,0,0,0,207.6,268.63Z" transform="translate(-187.466 -258.998)" fill="#263238"/>
                </g>
              </g>
            </g>
          </g>
        </g>
        <g id="Hearts" transform="translate(128.342 52.061)">
          <g id="Grupo_896569" data-name="Grupo 896569" transform="translate(0)">
            <path id="Trazado_664005" data-name="Trazado 664005" d="M283.811,147.55a11.128,11.128,0,0,1-2.667,5.506,11.117,11.117,0,0,1-5.631-2.389c-1.8-1.682-1.99-4.158-.559-5.253,2.051-1.57,4.159,2.238,4.159,2.238s-.92-4.254,1.66-4.424C282.571,143.11,284.058,145.1,283.811,147.55Z" transform="translate(-273.593 -126.81)" fill="#ffc727"/>
            <path id="Trazado_664006" data-name="Trazado 664006" d="M276.855,101.849a4.466,4.466,0,0,1-1.071,2.209,4.462,4.462,0,0,1-2.259-.959,1.408,1.408,0,0,1-.224-2.108c.823-.63,1.669.9,1.669.9s-.369-1.707.666-1.775C276.358,100.067,276.954,100.866,276.855,101.849Z" transform="translate(-272.921 -100.113)" fill="#ffc727"/>
            <path id="Trazado_664007" data-name="Trazado 664007" d="M300.384,120.93a8.194,8.194,0,0,1-3.776,2.452,8.183,8.183,0,0,1-2.637-3.649c-.493-1.744.33-3.377,1.648-3.521,1.89-.208,1.767,2.993,1.767,2.993s1.04-3.029,2.73-2.154C301.294,117.662,301.472,119.481,300.384,120.93Z" transform="translate(-285.867 -110.077)" fill="#ffc727"/>
          </g>
        </g>
        <g id="Hearts-2" data-name="Hearts" transform="translate(151.342 110.206)">
          <g id="Grupo_896569-2" data-name="Grupo 896569" transform="translate(0)">
            <path id="Trazado_664005-2" data-name="Trazado 664005" d="M283.811,147.55a11.128,11.128,0,0,1-2.667,5.506,11.117,11.117,0,0,1-5.631-2.389c-1.8-1.682-1.99-4.158-.559-5.253,2.051-1.57,4.159,2.238,4.159,2.238s-.92-4.254,1.66-4.424C282.571,143.11,284.058,145.1,283.811,147.55Z" transform="translate(-273.593 -126.81)" fill="#ffc727"/>
            <path id="Trazado_664006-2" data-name="Trazado 664006" d="M276.855,101.849a4.466,4.466,0,0,1-1.071,2.209,4.462,4.462,0,0,1-2.259-.959,1.408,1.408,0,0,1-.224-2.108c.823-.63,1.669.9,1.669.9s-.369-1.707.666-1.775C276.358,100.067,276.954,100.866,276.855,101.849Z" transform="translate(-272.921 -100.113)" fill="#ffc727"/>
            <path id="Trazado_664007-2" data-name="Trazado 664007" d="M300.384,120.93a8.194,8.194,0,0,1-3.776,2.452,8.183,8.183,0,0,1-2.637-3.649c-.493-1.744.33-3.377,1.648-3.521,1.89-.208,1.767,2.993,1.767,2.993s1.04-3.029,2.73-2.154C301.294,117.662,301.472,119.481,300.384,120.93Z" transform="translate(-285.867 -110.077)" fill="#ffc727"/>
          </g>
        </g>
        <g id="Speech_Bubbles" data-name="Speech Bubbles" transform="translate(45.859 40.993)">
          <g id="Grupo_896574" data-name="Grupo 896574" transform="translate(20 35.111)">
            <g id="Grupo_896571" data-name="Grupo 896571" transform="translate(0.228)">
              <rect id="Rectángulo_297314" data-name="Rectángulo 297314" width="36.573" height="21.019" fill="#ffc727"/>
              <path id="Trazado_664008" data-name="Trazado 664008" d="M56.28,186.951l6.186,6.46v-6.46Z" transform="translate(-25.893 -165.932)" fill="#ffc727"/>
              <g id="Grupo_896570" data-name="Grupo 896570" transform="translate(5.286 4.22)">
                <rect id="Rectángulo_297315" data-name="Rectángulo 297315" width="21.715" height="0.65" transform="translate(4.285)" fill="#fff"/>
                <rect id="Rectángulo_297316" data-name="Rectángulo 297316" width="14.88" height="0.65" transform="translate(11.12 1.988)" fill="#fff"/>
                <rect id="Rectángulo_297317" data-name="Rectángulo 297317" width="26" height="0.65" transform="translate(0 3.976)" fill="#fff"/>
                <rect id="Rectángulo_297318" data-name="Rectángulo 297318" width="8.944" height="0.65" transform="translate(17.055 5.964)" fill="#fff"/>
                <rect id="Rectángulo_297319" data-name="Rectángulo 297319" width="20.4" height="0.65" transform="translate(5.599 7.953)" fill="#fff"/>
                <rect id="Rectángulo_297320" data-name="Rectángulo 297320" width="21.715" height="0.65" transform="translate(4.285 9.941)" fill="#fff"/>
                <rect id="Rectángulo_297321" data-name="Rectángulo 297321" width="16.269" height="0.65" transform="translate(9.731 11.929)" fill="#fff"/>
              </g>
            </g>
            <g id="Grupo_896573" data-name="Grupo 896573" transform="translate(51.345 -23.356)">
              <rect id="Rectángulo_297322" data-name="Rectángulo 297322" width="37.228" height="15.382" transform="translate(37.228 15.382) rotate(180)" fill="#dbdbdb"/>
              <path id="Trazado_664009" data-name="Trazado 664009" d="M156.812,244.751l6.3,6.46v-6.46Z" transform="translate(-125.881 -229.369)" fill="#dbdbdb"/>
              <g id="Grupo_896572" data-name="Grupo 896572" transform="translate(5.739 3.263)">
                <rect id="Rectángulo_297323" data-name="Rectángulo 297323" width="20.043" height="0.669" fill="#fff"/>
                <rect id="Rectángulo_297324" data-name="Rectángulo 297324" width="25.514" height="0.669" transform="translate(0 2.047)" fill="#fff"/>
                <rect id="Rectángulo_297325" data-name="Rectángulo 297325" width="18.543" height="0.669" transform="translate(0 4.093)" fill="#fff"/>
                <rect id="Rectángulo_297326" data-name="Rectángulo 297326" width="23.321" height="0.669" transform="translate(0 6.14)" fill="#fff"/>
                <rect id="Rectángulo_297327" data-name="Rectángulo 297327" width="15.292" height="0.669" transform="translate(0 8.187)" fill="#fff"/>
              </g>
            </g>
          </g>
          <g id="Grupo_896576" data-name="Grupo 896576" transform="translate(94.341 0)">
            <rect id="Rectángulo_297328" data-name="Rectángulo 297328" width="28.935" height="12.236" fill="#ffc727"/>
            <path id="Trazado_664010" data-name="Trazado 664010" d="M333.244,103.181h6.718L336.6,107.8Z" transform="translate(-322.136 -90.945)" fill="#ffc727"/>
            <path id="Trazado_664011" data-name="Trazado 664011" d="M323.033,82.417a7.378,7.378,0,0,1-1.6,1.877,11.654,11.654,0,0,1-1.066.839h-.281a9.507,9.507,0,0,1-2.666-2.72,2.982,2.982,0,0,1-.186-2.844,1.42,1.42,0,0,1,1.256-.719,1.966,1.966,0,0,1,1.736,1.224,1.961,1.961,0,0,1,1.732-1.224,1.421,1.421,0,0,1,1.261.719A2.99,2.99,0,0,1,323.033,82.417Z" transform="translate(-312.046 -75.878)" fill="#fff"/>
            <g id="Grupo_896575" data-name="Grupo 896575" transform="translate(16.491 3.06)">
              <path id="Trazado_664012" data-name="Trazado 664012" d="M354.2,79.954l-3.451,4.608-.739-2.748-.426.19-.205-.458.4-.178-1.634-1.785h5.654l1.129-.5h-7.356l-.186.423,2.1,2.294.912,3.392.446.087,4.3-5.741Z" transform="translate(-347.381 -79.081)" fill="#fff"/>
              <path id="Trazado_664013" data-name="Trazado 664013" d="M358.468,81.373l-3.451,4.608-.738-2.748Z" transform="translate(-351.652 -80.5)" fill="#fff"/>
              <path id="Trazado_664014" data-name="Trazado 664014" d="M355.027,80.4l-4.02,1.785L349.373,80.4Z" transform="translate(-348.614 -79.897)" fill="#fff"/>
            </g>
          </g>
        </g>
        <g id="Plant" transform="translate(42.431 134.983)">
          <g id="Grupo_896588" data-name="Grupo 896588" transform="translate(0)">
            <g id="Grupo_896585" data-name="Grupo 896585">
              <g id="Grupo_896578" data-name="Grupo 896578" transform="translate(12.3 11.414)">
                <path id="Trazado_664015" data-name="Trazado 664015" d="M89.74,347.963c-4.423,5.991-9.036,12.944-10.159,20.457-.013.113.169.151.195.038a44.681,44.681,0,0,1,1.956-6.015c2.908-.8,5.763-1.458,7.29-4.344,1.558-2.967,1.36-6.836,1.064-10.068C90.065,347.857,89.83,347.848,89.74,347.963Z" transform="translate(-79.58 -347.887)" fill="#ffc727"/>
                <g id="Grupo_896577" data-name="Grupo 896577" transform="translate(2.187 1.887)">
                  <path id="Trazado_664016" data-name="Trazado 664016" d="M85.334,365.456a49.558,49.558,0,0,1,7.781-12.6c.022-.025.056.011.036.036a53.335,53.335,0,0,0-5.312,8.349c1.465-1.487,3.07-2.819,4.457-4.4.027-.031.07.014.045.045a24.457,24.457,0,0,1-4.677,4.673q-.723,1.332-1.459,2.669c.12-.067.245-.127.369-.188.022-.011.041.022.019.033-.137.069-.272.142-.413.2-.233.421-.464.843-.7,1.264C85.422,365.632,85.292,365.55,85.334,365.456Z" transform="translate(-85.326 -352.844)" fill="#263238"/>
                  <path id="Trazado_664017" data-name="Trazado 664017" d="M89.191,378.185a26.139,26.139,0,0,0,3.4-2.267c.029-.023.071.017.042.042a17.955,17.955,0,0,1-3.388,2.309C89.185,378.3,89.137,378.217,89.191,378.185Z" transform="translate(-87.705 -367.129)" fill="#263238"/>
                </g>
              </g>
              <g id="Grupo_896580" data-name="Grupo 896580" transform="translate(11.47)">
                <path id="Trazado_664018" data-name="Trazado 664018" d="M77.72,348.739c.009.091.164.089.162-.008.023-2.474,0-4.959.039-7.445.634-1.279,1.994-1.987,2.94-3.012a13.145,13.145,0,0,0,1.764-2.457,17.644,17.644,0,0,0,2.047-6.825c.261-2.646-.743-11.379-1.859-11.076-.578.157-2.45,4.483-2.947,5.912a41.209,41.209,0,0,0-1.761,7.25A77.462,77.462,0,0,0,77.72,348.739Z" transform="translate(-77.401 -317.909)" fill="#ffc727"/>
                <g id="Grupo_896579" data-name="Grupo 896579" transform="translate(0.279 1.527)">
                  <path id="Trazado_664019" data-name="Trazado 664019" d="M78.155,340.55l.011-.01a55.97,55.97,0,0,1,1.5-9.328,31.232,31.232,0,0,1,3.226-9.268c.031-.054.112-.006.083.049a34.414,34.414,0,0,0-2.591,7.114c.113-.176.25-.343.367-.51.046-.065.154,0,.109.064a4.593,4.593,0,0,1-.526.743.045.045,0,0,1-.022.01c-.579,2.338-1,4.729-1.352,7.115.027-.03.053-.063.08-.092s.049.005.036.028c-.044.079-.093.158-.142.236-.179,1.211-.346,2.42-.513,3.617a17.03,17.03,0,0,0,5.036-6.691c0-.012.025-.007.02.006a13.9,13.9,0,0,1-5.09,6.928q-.067.484-.136.967c-.01.067-.116.049-.116-.016,0-.285.015-.571.026-.857A.066.066,0,0,1,78.155,340.55Z" transform="translate(-78.133 -321.92)" fill="#263238"/>
                  <path id="Trazado_664020" data-name="Trazado 664020" d="M80.846,346.61a49.9,49.9,0,0,0,4.392-7.565c.013-.03.065-.008.054.023a24.54,24.54,0,0,1-4.363,7.606C80.889,346.719,80.812,346.66,80.846,346.61Z" transform="translate(-79.808 -332.516)" fill="#263238"/>
                  <path id="Trazado_664021" data-name="Trazado 664021" d="M86.6,331.571c.682-1.208,1.4-2.383,2.045-3.614.018-.034.065,0,.051.03a18.808,18.808,0,0,1-1.99,3.646C86.655,331.695,86.556,331.641,86.6,331.571Z" transform="translate(-83.368 -325.649)" fill="#263238"/>
                  <path id="Trazado_664022" data-name="Trazado 664022" d="M85.893,338.854a.01.01,0,0,1,0,.021A.01.01,0,0,1,85.893,338.854Z" transform="translate(-82.932 -332.407)" fill="#263238"/>
                </g>
              </g>
              <g id="Grupo_896582" data-name="Grupo 896582" transform="translate(3.205 3.74)">
                <path id="Trazado_664023" data-name="Trazado 664023" d="M62.6,347.668a25.213,25.213,0,0,1-.578,4.875c.025.176.051.352.077.533a23.253,23.253,0,0,0,.872-5.433.167.167,0,0,0,.008-.168v-.005a36.014,36.014,0,0,0-.546-7.362,23.451,23.451,0,0,0-5.611-12.319.226.226,0,0,0-.35.072c-1.28,3.254-.833,7.136.257,10.382a19,19,0,0,0,2.515,4.931A42.347,42.347,0,0,1,62.6,347.668Z" transform="translate(-55.693 -327.733)" fill="#ffc727"/>
                <g id="Grupo_896581" data-name="Grupo 896581" transform="translate(1.379 1.547)">
                  <path id="Trazado_664024" data-name="Trazado 664024" d="M59.44,331.827a34.976,34.976,0,0,1,5.352,16.422c0,.1-.167.129-.182.025-.071-.518-.15-1.031-.233-1.542l0,0a19.661,19.661,0,0,1-3.41-3.936c-.016-.026.022-.057.043-.033a41.358,41.358,0,0,0,3.312,3.6q-.323-1.911-.772-3.763c-.081-.092-.159-.187-.238-.279-.052-.061.035-.15.089-.089l.072.08a43.388,43.388,0,0,0-1.571-4.989,15.124,15.124,0,0,1-2.178-2.8.023.023,0,0,1,.04-.024c.448.629.882,1.261,1.39,1.845.2.232.425.45.635.677a38.453,38.453,0,0,0-2.46-5.129A.067.067,0,0,1,59.44,331.827Z" transform="translate(-59.315 -331.795)" fill="#263238"/>
                  <path id="Trazado_664025" data-name="Trazado 664025" d="M61.124,347.655c.972,1.307,2.079,2.555,2.982,3.906.026.038-.03.078-.063.048a19.959,19.959,0,0,1-2.984-3.916C61.032,347.651,61.1,347.617,61.124,347.655Z" transform="translate(-60.391 -341.606)" fill="#263238"/>
                  <path id="Trazado_664026" data-name="Trazado 664026" d="M69.341,358.721l.041.041a.032.032,0,0,1-.045.045l-.042-.041A.032.032,0,0,1,69.341,358.721Z" transform="translate(-65.49 -348.463)" fill="#263238"/>
                </g>
              </g>
              <g id="Grupo_896584" data-name="Grupo 896584" transform="translate(0 14.401)">
                <path id="Trazado_664027" data-name="Trazado 664027" d="M47.276,356.027a14.965,14.965,0,0,0,3.171,7.44,7.892,7.892,0,0,0,2.572,2.007c1.114.551,2.28,1.186,3.432,1.638a22.551,22.551,0,0,1,1.215,4.316c.037-.126.074-.257.112-.382-.74-6.353-4.851-11.784-10.11-15.27A.255.255,0,0,0,47.276,356.027Z" transform="translate(-47.274 -355.733)" fill="#ffc727"/>
                <g id="Grupo_896583" data-name="Grupo 896583" transform="translate(1.805 2.094)">
                  <path id="Trazado_664028" data-name="Trazado 664028" d="M52.029,361.311c-.037-.032.013-.1.053-.069a21.516,21.516,0,0,1,6.7,8.258c.038.087-.081.163-.131.077-.244-.428-.494-.845-.747-1.254h0a7.231,7.231,0,0,1-3.228-1.872c-.024-.022.011-.057.036-.036a7.38,7.38,0,0,0,1.519,1.067c.489.249,1.016.405,1.525.6-.445-.706-.908-1.383-1.392-2.04a14.013,14.013,0,0,1-3.607-2.028c-.034-.025,0-.081.034-.058a36,36,0,0,0,3.353,1.792,30,30,0,0,0-2.367-2.76c-.408-.215-.822-.432-1.217-.662-.032-.019-.011-.074.026-.061a4.339,4.339,0,0,1,.934.459C53.041,362.247,52.552,361.773,52.029,361.311Z" transform="translate(-52.016 -361.234)" fill="#263238"/>
                  <path id="Trazado_664029" data-name="Trazado 664029" d="M52.263,367.189a1.553,1.553,0,0,1,.2.144c.019.017-.005.042-.026.033a1.478,1.478,0,0,1-.211-.12C52.193,367.224,52.226,367.166,52.263,367.189Z" transform="translate(-52.138 -364.919)" fill="#263238"/>
                </g>
              </g>
            </g>
            <g id="Grupo_896587" data-name="Grupo 896587" transform="translate(4.3 25.816)">
              <g id="Grupo_896586" data-name="Grupo 896586" transform="translate(0 2.023)">
                <path id="Trazado_664030" data-name="Trazado 664030" d="M72.978,407.044H58.568l1.163-13.123.255-2.894H71.559l.255,2.894Z" transform="translate(-58.568 -391.028)" fill="#455a64"/>
                <path id="Trazado_664031" data-name="Trazado 664031" d="M73.707,393.922H61.623l.255-2.894H73.451Z" transform="translate(-60.46 -391.028)" fill="#263238"/>
              </g>
              <rect id="Rectángulo_297329" data-name="Rectángulo 297329" width="12.951" height="2.864" transform="translate(0.729)" fill="#455a64"/>
            </g>
          </g>
        </g>
      </g>
    </g>
  </g>
</svg>
