<svg xmlns="http://www.w3.org/2000/svg" width="715" height="402" viewBox="0 0 715 402">
  <g id="Grupo_898339" data-name="Grupo 898339" transform="translate(-650 -6038.823)">
    <path id="Trazado_664723" data-name="Trazado 664723" d="M17,0H698a17,17,0,0,1,17,17V385a17,17,0,0,1-17,17H17A17,17,0,0,1,0,385V17A17,17,0,0,1,17,0Z" transform="translate(650 6038.823)" fill="#fff"/>
    <g id="Grupo_888102" data-name="Grupo 888102" transform="translate(860.022 6113.279)">
      <g id="Grupo_888041" data-name="Grupo 888041" transform="translate(14.789 16.788)">
        <g id="Grupo_888030" data-name="Grupo 888030" transform="translate(0 169.039)">
          <g id="Grupo_888029" data-name="Grupo 888029">
            <path id="Trazado_621864" data-name="Trazado 621864" d="M904.264,416.586H488.588c-1.05,0-1.895-.627-1.895-1.405s.845-1.406,1.895-1.406H904.264c1.05,0,1.9.63,1.9,1.406S905.313,416.586,904.264,416.586Z" transform="translate(-486.693 -413.775)" fill="#c4c4c4"/>
          </g>
        </g>
        <g id="Grupo_888032" data-name="Grupo 888032" transform="translate(0 144.891)">
          <g id="Grupo_888031" data-name="Grupo 888031">
            <path id="Trazado_621865" data-name="Trazado 621865" d="M904.264,400.288H488.588c-1.05,0-1.895-.63-1.895-1.406s.845-1.406,1.895-1.406H904.264c1.05,0,1.9.627,1.9,1.406S905.313,400.288,904.264,400.288Z" transform="translate(-486.693 -397.477)" fill="#c4c4c4"/>
          </g>
        </g>
        <g id="Grupo_888034" data-name="Grupo 888034" transform="translate(0 120.743)">
          <g id="Grupo_888033" data-name="Grupo 888033">
            <path id="Trazado_621866" data-name="Trazado 621866" d="M904.264,383.989H488.588c-1.05,0-1.895-.63-1.895-1.406s.845-1.405,1.895-1.405H904.264c1.05,0,1.9.627,1.9,1.405S905.313,383.989,904.264,383.989Z" transform="translate(-486.693 -381.178)" fill="#c4c4c4"/>
          </g>
        </g>
        <g id="Grupo_888036" data-name="Grupo 888036" transform="translate(0 96.594)">
          <g id="Grupo_888035" data-name="Grupo 888035">
            <path id="Trazado_621867" data-name="Trazado 621867" d="M904.264,367.69H488.588c-1.05,0-1.895-.63-1.895-1.405s.845-1.406,1.895-1.406H904.264c1.05,0,1.9.627,1.9,1.406S905.313,367.69,904.264,367.69Z" transform="translate(-486.693 -364.879)" fill="#c4c4c4"/>
          </g>
        </g>
        <g id="Grupo_888038" data-name="Grupo 888038" transform="translate(0 72.445)">
          <g id="Grupo_888037" data-name="Grupo 888037">
            <path id="Trazado_621868" data-name="Trazado 621868" d="M904.264,351.391H488.588c-1.05,0-1.895-.63-1.895-1.406s.845-1.406,1.895-1.406H904.264c1.05,0,1.9.63,1.9,1.406S905.313,351.391,904.264,351.391Z" transform="translate(-486.693 -348.58)" fill="#c4c4c4"/>
          </g>
        </g>
        <g id="Grupo_888040" data-name="Grupo 888040" transform="translate(0 48.297)">
          <g id="Grupo_888039" data-name="Grupo 888039">
            <path id="Trazado_621869" data-name="Trazado 621869" d="M904.264,335.092H488.588c-1.05,0-1.895-.627-1.895-1.405s.845-1.406,1.895-1.406H904.264c1.05,0,1.9.63,1.9,1.406S905.313,335.092,904.264,335.092Z" transform="translate(-486.693 -332.281)" fill="#c4c4c4"/>
          </g>
        </g>
        <g id="Grupo_896337" data-name="Grupo 896337" transform="translate(0 24.148)">
          <g id="Grupo_888039-2" data-name="Grupo 888039">
            <path id="Trazado_621869-2" data-name="Trazado 621869" d="M904.264,335.092H488.588c-1.05,0-1.895-.627-1.895-1.405s.845-1.406,1.895-1.406H904.264c1.05,0,1.9.63,1.9,1.406S905.313,335.092,904.264,335.092Z" transform="translate(-486.693 -332.281)" fill="#c4c4c4"/>
          </g>
        </g>
        <g id="Grupo_896338" data-name="Grupo 896338">
          <g id="Grupo_888039-3" data-name="Grupo 888039">
            <path id="Trazado_621869-3" data-name="Trazado 621869" d="M904.264,335.092H488.588c-1.05,0-1.895-.627-1.895-1.405s.845-1.406,1.895-1.406H904.264c1.05,0,1.9.63,1.9,1.406S905.313,335.092,904.264,335.092Z" transform="translate(-486.693 -332.281)" fill="#c4c4c4"/>
          </g>
        </g>
      </g>
      <g id="Grupo_888042" data-name="Grupo 888042" transform="translate(0 0)">
        <path id="Trazado_621870" data-name="Trazado 621870" d="M916.191,548.866H485.209c-2.089,0-3.776-.972-3.776-2.175V333.956c0-1.2,1.688-2.175,3.776-2.175s3.776.972,3.776,2.175V544.515H916.191c2.085,0,3.777.972,3.777,2.175S918.276,548.866,916.191,548.866Z" transform="translate(-481.432 -331.781)" fill="#c4c4c4"/>
      </g>
    </g>
    <path id="Trazado_664724" data-name="Trazado 664724" d="M-30.216,0V-13.508H-26.4a6.138,6.138,0,0,1,3.117.779,5.271,5.271,0,0,1,2.092,2.217,7.217,7.217,0,0,1,.747,3.3v.863A7.242,7.242,0,0,1-21.185-3,5.188,5.188,0,0,1-23.291-.789,6.529,6.529,0,0,1-26.478,0Zm1.781-12.051V-1.457h1.874a4.077,4.077,0,0,0,3.205-1.281A5.294,5.294,0,0,0-22.21-6.387v-.789a5.378,5.378,0,0,0-1.081-3.579,3.846,3.846,0,0,0-3.066-1.3ZM-11.829,0a3.605,3.605,0,0,1-.241-1.058A3.829,3.829,0,0,1-14.927.186a3.543,3.543,0,0,1-2.435-.84,2.716,2.716,0,0,1-.951-2.129,2.838,2.838,0,0,1,1.192-2.435,5.621,5.621,0,0,1,3.354-.867h1.67v-.789a1.928,1.928,0,0,0-.538-1.433,2.163,2.163,0,0,0-1.586-.533,2.5,2.5,0,0,0-1.54.464,1.367,1.367,0,0,0-.622,1.123h-1.726a2.369,2.369,0,0,1,.533-1.452,3.641,3.641,0,0,1,1.447-1.109,4.869,4.869,0,0,1,2.009-.408,3.968,3.968,0,0,1,2.718.867,3.129,3.129,0,0,1,1.021,2.389v4.62a5.649,5.649,0,0,0,.353,2.2V0Zm-2.848-1.308a3.016,3.016,0,0,0,1.531-.417A2.525,2.525,0,0,0-12.1-2.811v-2.06h-1.345q-3.154,0-3.154,1.846a1.562,1.562,0,0,0,.538,1.262A2.068,2.068,0,0,0-14.677-1.308Zm9.314-11.161v2.431h1.874v1.327H-5.362v6.233a1.393,1.393,0,0,0,.25.906,1.054,1.054,0,0,0,.854.3,4.155,4.155,0,0,0,.816-.111V0A5,5,0,0,1-4.759.186a2.137,2.137,0,0,1-1.735-.7,2.989,2.989,0,0,1-.584-1.976V-8.711H-8.906v-1.327h1.828v-2.431Zm3.238,7.357a5.929,5.929,0,0,1,.58-2.653A4.326,4.326,0,0,1,.07-9.583a4.394,4.394,0,0,1,2.361-.64A4.233,4.233,0,0,1,5.747-8.8,5.461,5.461,0,0,1,7.014-5.028v.121a5.981,5.981,0,0,1-.561,2.63,4.262,4.262,0,0,1-1.6,1.814,4.445,4.445,0,0,1-2.4.649A4.223,4.223,0,0,1-.858-1.234,5.433,5.433,0,0,1-2.125-4.991Zm1.726.2A4.294,4.294,0,0,0,.376-2.227,2.479,2.479,0,0,0,2.449-1.215,2.464,2.464,0,0,0,4.527-2.24,4.7,4.7,0,0,0,5.3-5.112a4.287,4.287,0,0,0-.784-2.677A2.492,2.492,0,0,0,2.431-8.813,2.465,2.465,0,0,0,.38-7.8,4.661,4.661,0,0,0-.4-4.908Zm15.41,2.245a1.264,1.264,0,0,0-.524-1.081,5.045,5.045,0,0,0-1.828-.663,8.641,8.641,0,0,1-2.069-.668A2.943,2.943,0,0,1,9.458-6a2.219,2.219,0,0,1-.366-1.28A2.6,2.6,0,0,1,10.135-9.37a4.076,4.076,0,0,1,2.667-.854,4.194,4.194,0,0,1,2.769.881,2.8,2.8,0,0,1,1.062,2.254H14.909a1.549,1.549,0,0,0-.6-1.215,2.242,2.242,0,0,0-1.508-.51,2.346,2.346,0,0,0-1.466.408,1.285,1.285,0,0,0-.529,1.067A1.041,1.041,0,0,0,11.3-6.4a6.05,6.05,0,0,0,1.777.6,9.257,9.257,0,0,1,2.083.687,3.038,3.038,0,0,1,1.183.96,2.361,2.361,0,0,1,.385,1.368A2.569,2.569,0,0,1,15.651-.626a4.514,4.514,0,0,1-2.792.812,5.055,5.055,0,0,1-2.134-.427A3.47,3.47,0,0,1,9.273-1.433a2.873,2.873,0,0,1-.524-1.656h1.716a1.777,1.777,0,0,0,.691,1.368,2.681,2.681,0,0,0,1.7.506,2.768,2.768,0,0,0,1.563-.394A1.212,1.212,0,0,0,15.011-2.663ZM27.034-6.374l2.227-3.665h2L27.98-5.075,31.367,0H29.381L27.062-3.757,24.743,0H22.748l3.386-5.075L22.85-10.038h1.985Z" transform="translate(1094.962 6401.823)" fill="#12263f"/>
    <path id="Trazado_664725" data-name="Trazado 664725" d="M-30,0V-13.508h3.813a6.138,6.138,0,0,1,3.117.779,5.271,5.271,0,0,1,2.092,2.217,7.217,7.217,0,0,1,.747,3.3v.863A7.242,7.242,0,0,1-20.971-3,5.188,5.188,0,0,1-23.077-.789,6.529,6.529,0,0,1-26.264,0Zm1.781-12.051V-1.457h1.874a4.077,4.077,0,0,0,3.205-1.281A5.294,5.294,0,0,0-22-6.387v-.789a5.378,5.378,0,0,0-1.081-3.579,3.846,3.846,0,0,0-3.066-1.3ZM-11.615,0a3.605,3.605,0,0,1-.241-1.058A3.829,3.829,0,0,1-14.714.186a3.543,3.543,0,0,1-2.435-.84A2.716,2.716,0,0,1-18.1-2.783a2.838,2.838,0,0,1,1.192-2.435,5.621,5.621,0,0,1,3.354-.867h1.67v-.789a1.928,1.928,0,0,0-.538-1.433,2.163,2.163,0,0,0-1.586-.533,2.5,2.5,0,0,0-1.54.464,1.367,1.367,0,0,0-.622,1.123H-17.9a2.369,2.369,0,0,1,.533-1.452,3.641,3.641,0,0,1,1.447-1.109,4.869,4.869,0,0,1,2.009-.408,3.968,3.968,0,0,1,2.718.867,3.129,3.129,0,0,1,1.021,2.389v4.62a5.649,5.649,0,0,0,.353,2.2V0Zm-2.848-1.308a3.016,3.016,0,0,0,1.531-.417,2.525,2.525,0,0,0,1.048-1.085v-2.06h-1.345q-3.154,0-3.154,1.846a1.562,1.562,0,0,0,.538,1.262A2.068,2.068,0,0,0-14.463-1.308Zm9.314-11.161v2.431h1.874v1.327H-5.149v6.233a1.393,1.393,0,0,0,.25.906,1.054,1.054,0,0,0,.854.3,4.155,4.155,0,0,0,.816-.111V0A5,5,0,0,1-4.546.186a2.137,2.137,0,0,1-1.735-.7,2.989,2.989,0,0,1-.584-1.976V-8.711H-8.693v-1.327h1.828v-2.431Zm3.238,7.357a5.929,5.929,0,0,1,.58-2.653A4.326,4.326,0,0,1,.283-9.583a4.394,4.394,0,0,1,2.361-.64A4.233,4.233,0,0,1,5.961-8.8,5.461,5.461,0,0,1,7.227-5.028v.121a5.981,5.981,0,0,1-.561,2.63,4.262,4.262,0,0,1-1.6,1.814,4.445,4.445,0,0,1-2.4.649A4.223,4.223,0,0,1-.645-1.234,5.433,5.433,0,0,1-1.911-4.991Zm1.726.2A4.294,4.294,0,0,0,.589-2.227,2.479,2.479,0,0,0,2.663-1.215,2.464,2.464,0,0,0,4.741-2.24a4.7,4.7,0,0,0,.77-2.871,4.287,4.287,0,0,0-.784-2.677A2.492,2.492,0,0,0,2.644-8.813,2.465,2.465,0,0,0,.594-7.8,4.661,4.661,0,0,0-.186-4.908Zm15.41,2.245A1.264,1.264,0,0,0,14.7-3.743a5.045,5.045,0,0,0-1.828-.663A8.641,8.641,0,0,1,10.8-5.075,2.943,2.943,0,0,1,9.672-6a2.219,2.219,0,0,1-.366-1.28A2.6,2.6,0,0,1,10.349-9.37a4.076,4.076,0,0,1,2.667-.854,4.194,4.194,0,0,1,2.769.881,2.8,2.8,0,0,1,1.062,2.254H15.122a1.549,1.549,0,0,0-.6-1.215,2.242,2.242,0,0,0-1.508-.51,2.346,2.346,0,0,0-1.466.408,1.285,1.285,0,0,0-.529,1.067,1.041,1.041,0,0,0,.492.937,6.05,6.05,0,0,0,1.777.6,9.257,9.257,0,0,1,2.083.687,3.038,3.038,0,0,1,1.183.96,2.361,2.361,0,0,1,.385,1.368A2.569,2.569,0,0,1,15.864-.626a4.514,4.514,0,0,1-2.792.812,5.055,5.055,0,0,1-2.134-.427A3.47,3.47,0,0,1,9.486-1.433a2.873,2.873,0,0,1-.524-1.656h1.716a1.777,1.777,0,0,0,.691,1.368,2.681,2.681,0,0,0,1.7.506,2.768,2.768,0,0,0,1.563-.394A1.212,1.212,0,0,0,15.224-2.663Zm11.94.148L29.5-10.038h1.837L27.3,1.549q-.937,2.5-2.978,2.5L24,4.026l-.64-.121V2.514l.464.037A2.284,2.284,0,0,0,25.183,2.2a2.551,2.551,0,0,0,.8-1.29l.38-1.021-3.581-9.927h1.874Z" transform="translate(752.962 6250.823)" fill="#12263f"/>
    <path id="Trazado_664726" data-name="Trazado 664726" d="M4.931-6.671A9.089,9.089,0,0,1,3.738-1.482,4.241,4.241,0,0,1,.011.215,4.272,4.272,0,0,1-3.7-1.445,8.627,8.627,0,0,1-4.941-6.4V-9.056A8.887,8.887,0,0,1-3.749-14.18,4.273,4.273,0,0,1-.011-15.855a4.312,4.312,0,0,1,3.717,1.617,8.576,8.576,0,0,1,1.225,4.99ZM2.943-9.389a7.282,7.282,0,0,0-.709-3.679A2.44,2.44,0,0,0-.011-14.223a2.408,2.408,0,0,0-2.224,1.149,7.11,7.11,0,0,0-.72,3.534v3.18a7.4,7.4,0,0,0,.736,3.744A2.436,2.436,0,0,0,.011-1.407,2.4,2.4,0,0,0,2.2-2.546a7.131,7.131,0,0,0,.747-3.588Z" transform="translate(875.962 6357.823)" fill="#636363"/>
    <path id="Trazado_664727" data-name="Trazado 664727" d="M3.586-4.852a6.61,6.61,0,0,1-.867,3.773A3.084,3.084,0,0,1,.008.156a3.107,3.107,0,0,1-2.7-1.207,6.274,6.274,0,0,1-.906-3.605v-1.93a6.463,6.463,0,0,1,.867-3.727A3.108,3.108,0,0,1-.008-11.531a3.136,3.136,0,0,1,2.7,1.176,6.237,6.237,0,0,1,.891,3.629ZM2.141-6.828A5.3,5.3,0,0,0,1.625-9.5a1.775,1.775,0,0,0-1.633-.84,1.751,1.751,0,0,0-1.617.836,5.171,5.171,0,0,0-.523,2.57v2.313A5.381,5.381,0,0,0-1.613-1.9a1.771,1.771,0,0,0,1.621.879A1.747,1.747,0,0,0,1.6-1.852a5.186,5.186,0,0,0,.543-2.609Z" transform="translate(837.962 6326.823)" fill="#636363"/>
    <path id="Trazado_664728" data-name="Trazado 664728" d="M-.586,0H-8.039V-1.039L-4.1-5.414A9.354,9.354,0,0,0-2.895-7.027a2.693,2.693,0,0,0,.332-1.285A2.041,2.041,0,0,0-3.1-9.773a1.885,1.885,0,0,0-1.437-.57,2.232,2.232,0,0,0-1.676.613,2.343,2.343,0,0,0-.6,1.707H-8.258a3.355,3.355,0,0,1,1.012-2.539,3.751,3.751,0,0,1,2.707-.969,3.6,3.6,0,0,1,2.508.832,2.838,2.838,0,0,1,.922,2.215q0,1.68-2.141,4L-6.3-1.18H-.586ZM8.078-4.852a6.61,6.61,0,0,1-.867,3.773A3.084,3.084,0,0,1,4.5.156,3.107,3.107,0,0,1,1.8-1.051,6.274,6.274,0,0,1,.9-4.656v-1.93a6.463,6.463,0,0,1,.867-3.727,3.108,3.108,0,0,1,2.719-1.219,3.136,3.136,0,0,1,2.7,1.176,6.237,6.237,0,0,1,.891,3.629ZM6.633-6.828A5.3,5.3,0,0,0,6.117-9.5a1.775,1.775,0,0,0-1.633-.84,1.751,1.751,0,0,0-1.617.836,5.171,5.171,0,0,0-.523,2.57v2.313A5.381,5.381,0,0,0,2.879-1.9,1.771,1.771,0,0,0,4.5-1.023a1.747,1.747,0,0,0,1.59-.828,5.186,5.186,0,0,0,.543-2.609Z" transform="translate(838.962 6299.823)" fill="#636363"/>
    <path id="Trazado_664729" data-name="Trazado 664729" d="M-1.937-3.82H-.359v1.18H-1.937V0H-3.391V-2.641H-8.57v-.852l5.094-7.883h1.539Zm-4.992,0h3.539V-9.4l-.172.313ZM8.078-4.852a6.61,6.61,0,0,1-.867,3.773A3.084,3.084,0,0,1,4.5.156,3.107,3.107,0,0,1,1.8-1.051,6.274,6.274,0,0,1,.9-4.656v-1.93a6.463,6.463,0,0,1,.867-3.727,3.108,3.108,0,0,1,2.719-1.219,3.136,3.136,0,0,1,2.7,1.176,6.237,6.237,0,0,1,.891,3.629ZM6.633-6.828A5.3,5.3,0,0,0,6.117-9.5a1.775,1.775,0,0,0-1.633-.84,1.751,1.751,0,0,0-1.617.836,5.171,5.171,0,0,0-.523,2.57v2.313A5.381,5.381,0,0,0,2.879-1.9,1.771,1.771,0,0,0,4.5-1.023a1.747,1.747,0,0,0,1.59-.828,5.186,5.186,0,0,0,.543-2.609Z" transform="translate(838.962 6274.823)" fill="#636363"/>
    <path id="Trazado_664730" data-name="Trazado 664730" d="M-2.367-11.383v1.227h-.266a3.805,3.805,0,0,0-2.687,1A4.161,4.161,0,0,0-6.477-6.43,3.085,3.085,0,0,1-4.023-7.461,2.95,2.95,0,0,1-1.652-6.414a4.038,4.038,0,0,1,.887,2.7A4.025,4.025,0,0,1-1.723-.9,3.3,3.3,0,0,1-4.289.156,3.247,3.247,0,0,1-6.937-1.1a4.97,4.97,0,0,1-1.016-3.23v-.555a7.488,7.488,0,0,1,1.34-4.8,4.921,4.921,0,0,1,3.988-1.7Zm-1.9,5.125a2.306,2.306,0,0,0-1.367.445A2.32,2.32,0,0,0-6.5-4.7v.531A3.731,3.731,0,0,0-5.867-1.9a1.9,1.9,0,0,0,1.578.859,1.838,1.838,0,0,0,1.535-.719A2.982,2.982,0,0,0-2.2-3.641a2.983,2.983,0,0,0-.566-1.895A1.816,1.816,0,0,0-4.266-6.258ZM8.078-4.852a6.61,6.61,0,0,1-.867,3.773A3.084,3.084,0,0,1,4.5.156,3.107,3.107,0,0,1,1.8-1.051,6.274,6.274,0,0,1,.9-4.656v-1.93a6.463,6.463,0,0,1,.867-3.727,3.108,3.108,0,0,1,2.719-1.219,3.136,3.136,0,0,1,2.7,1.176,6.237,6.237,0,0,1,.891,3.629ZM6.633-6.828A5.3,5.3,0,0,0,6.117-9.5a1.775,1.775,0,0,0-1.633-.84,1.751,1.751,0,0,0-1.617.836,5.171,5.171,0,0,0-.523,2.57v2.313A5.381,5.381,0,0,0,2.879-1.9,1.771,1.771,0,0,0,4.5-1.023a1.747,1.747,0,0,0,1.59-.828,5.186,5.186,0,0,0,.543-2.609Z" transform="translate(838.962 6247.823)" fill="#636363"/>
    <path id="Trazado_664731" data-name="Trazado 664731" d="M-1.141-8.406A2.641,2.641,0,0,1-1.59-6.891,3.057,3.057,0,0,1-2.8-5.852a3.26,3.26,0,0,1,1.41,1.117A2.811,2.811,0,0,1-.875-3.07a2.972,2.972,0,0,1-1,2.352A3.827,3.827,0,0,1-4.492.156,3.81,3.81,0,0,1-7.121-.723,2.986,2.986,0,0,1-8.109-3.07a2.9,2.9,0,0,1,.5-1.664A3.136,3.136,0,0,1-6.211-5.859,2.981,2.981,0,0,1-7.406-6.9a2.679,2.679,0,0,1-.437-1.508,2.94,2.94,0,0,1,.922-2.281,3.458,3.458,0,0,1,2.43-.844,3.461,3.461,0,0,1,2.426.844A2.934,2.934,0,0,1-1.141-8.406ZM-2.32-3.1a2.1,2.1,0,0,0-.605-1.555,2.147,2.147,0,0,0-1.582-.6,2.11,2.11,0,0,0-1.566.594A2.12,2.12,0,0,0-6.664-3.1,2.019,2.019,0,0,0-6.09-1.578a2.2,2.2,0,0,0,1.6.555A2.2,2.2,0,0,0-2.9-1.582,2.014,2.014,0,0,0-2.32-3.1Zm-2.172-7.242a1.865,1.865,0,0,0-1.379.527A1.937,1.937,0,0,0-6.4-8.383a1.928,1.928,0,0,0,.52,1.4,1.844,1.844,0,0,0,1.387.535A1.844,1.844,0,0,0-3.105-6.98a1.928,1.928,0,0,0,.52-1.4A1.929,1.929,0,0,0-3.125-9.8,1.839,1.839,0,0,0-4.492-10.344ZM8.078-4.852a6.61,6.61,0,0,1-.867,3.773A3.084,3.084,0,0,1,4.5.156,3.107,3.107,0,0,1,1.8-1.051,6.274,6.274,0,0,1,.9-4.656v-1.93a6.463,6.463,0,0,1,.867-3.727,3.108,3.108,0,0,1,2.719-1.219,3.136,3.136,0,0,1,2.7,1.176,6.237,6.237,0,0,1,.891,3.629ZM6.633-6.828A5.3,5.3,0,0,0,6.117-9.5a1.775,1.775,0,0,0-1.633-.84,1.751,1.751,0,0,0-1.617.836,5.171,5.171,0,0,0-.523,2.57v2.313A5.381,5.381,0,0,0,2.879-1.9,1.771,1.771,0,0,0,4.5-1.023a1.747,1.747,0,0,0,1.59-.828,5.186,5.186,0,0,0,.543-2.609Z" transform="translate(838.962 6221.823)" fill="#636363"/>
    <path id="Trazado_664732" data-name="Trazado 664732" d="M-8.754,0h-1.635V-10.837l-3.278,1.2v-1.477l4.658-1.749h.255ZM4.034-5.458a7.436,7.436,0,0,1-.976,4.245A3.47,3.47,0,0,1,.009.176,3.5,3.5,0,0,1-3.023-1.182a7.058,7.058,0,0,1-1.02-4.056V-7.409A7.271,7.271,0,0,1-3.067-11.6,3.5,3.5,0,0,1-.009-12.973,3.528,3.528,0,0,1,3.032-11.65a7.017,7.017,0,0,1,1,4.083ZM2.408-7.682a5.958,5.958,0,0,0-.58-3.01,2,2,0,0,0-1.837-.945,1.97,1.97,0,0,0-1.819.94A5.817,5.817,0,0,0-2.417-7.8v2.6a6.053,6.053,0,0,0,.6,3.063,1.993,1.993,0,0,0,1.824.989A1.966,1.966,0,0,0,1.8-2.083a5.834,5.834,0,0,0,.611-2.936ZM14.142-5.458a7.436,7.436,0,0,1-.976,4.245A3.47,3.47,0,0,1,10.116.176,3.5,3.5,0,0,1,7.084-1.182a7.058,7.058,0,0,1-1.02-4.056V-7.409A7.271,7.271,0,0,1,7.04-11.6,3.5,3.5,0,0,1,10.1-12.973,3.528,3.528,0,0,1,13.14-11.65a7.017,7.017,0,0,1,1,4.083ZM12.516-7.682a5.958,5.958,0,0,0-.58-3.01,2,2,0,0,0-1.837-.945,1.97,1.97,0,0,0-1.819.94A5.817,5.817,0,0,0,7.69-7.8v2.6a6.053,6.053,0,0,0,.6,3.063,1.993,1.993,0,0,0,1.824.989A1.966,1.966,0,0,0,11.9-2.083a5.834,5.834,0,0,0,.611-2.936Z" transform="translate(836.962 6196.823)" fill="#636363"/>
    <path id="Trazado_664733" data-name="Trazado 664733" d="M-8.754,0h-1.635V-10.837l-3.278,1.2v-1.477l4.658-1.749h.255ZM4.395,0H-3.99V-1.169L.439-6.091A10.524,10.524,0,0,0,1.8-7.906a3.029,3.029,0,0,0,.374-1.446A2.3,2.3,0,0,0,1.564-11a2.12,2.12,0,0,0-1.617-.642,2.511,2.511,0,0,0-1.885.69,2.635,2.635,0,0,0-.672,1.92H-4.236A3.774,3.774,0,0,1-3.1-11.883a4.219,4.219,0,0,1,3.045-1.09,4.054,4.054,0,0,1,2.821.936A3.193,3.193,0,0,1,3.806-9.545q0,1.89-2.408,4.5L-2.03-1.327H4.395Zm9.747-5.458a7.436,7.436,0,0,1-.976,4.245A3.47,3.47,0,0,1,10.116.176,3.5,3.5,0,0,1,7.084-1.182a7.058,7.058,0,0,1-1.02-4.056V-7.409A7.271,7.271,0,0,1,7.04-11.6,3.5,3.5,0,0,1,10.1-12.973,3.528,3.528,0,0,1,13.14-11.65a7.017,7.017,0,0,1,1,4.083ZM12.516-7.682a5.958,5.958,0,0,0-.58-3.01,2,2,0,0,0-1.837-.945,1.97,1.97,0,0,0-1.819.94A5.817,5.817,0,0,0,7.69-7.8v2.6a6.053,6.053,0,0,0,.6,3.063,1.993,1.993,0,0,0,1.824.989A1.966,1.966,0,0,0,11.9-2.083a5.834,5.834,0,0,0,.611-2.936Z" transform="translate(836.962 6169.823)" fill="#636363"/>
    <path id="Trazado_664734" data-name="Trazado 664734" d="M-8.754,0h-1.635V-10.837l-3.278,1.2v-1.477l4.658-1.749h.255ZM2.874-4.3H4.649v1.327H2.874V0H1.239V-2.971H-4.588v-.958L1.143-12.8H2.874Zm-5.616,0H1.239v-6.275l-.193.352Zm16.884-1.16a7.436,7.436,0,0,1-.976,4.245A3.47,3.47,0,0,1,10.116.176,3.5,3.5,0,0,1,7.084-1.182a7.058,7.058,0,0,1-1.02-4.056V-7.409A7.271,7.271,0,0,1,7.04-11.6,3.5,3.5,0,0,1,10.1-12.973,3.528,3.528,0,0,1,13.14-11.65a7.017,7.017,0,0,1,1,4.083ZM12.516-7.682a5.958,5.958,0,0,0-.58-3.01,2,2,0,0,0-1.837-.945,1.97,1.97,0,0,0-1.819.94A5.817,5.817,0,0,0,7.69-7.8v2.6a6.053,6.053,0,0,0,.6,3.063,1.993,1.993,0,0,0,1.824.989A1.966,1.966,0,0,0,11.9-2.083a5.834,5.834,0,0,0,.611-2.936Z" transform="translate(836.962 6138.823)" fill="#636363"/>
    <path id="Trazado_664735" data-name="Trazado 664735" d="M-8.754,0h-1.635V-10.837l-3.278,1.2v-1.477l4.658-1.749h.255ZM2.391-12.806v1.38h-.3A4.281,4.281,0,0,0-.932-10.3a4.681,4.681,0,0,0-1.3,3.067,3.471,3.471,0,0,1,2.76-1.16A3.319,3.319,0,0,1,3.195-7.216a4.543,4.543,0,0,1,1,3.041A4.528,4.528,0,0,1,3.116-1.011,3.707,3.707,0,0,1,.229.176,3.653,3.653,0,0,1-2.751-1.235,5.591,5.591,0,0,1-3.894-4.869v-.624a8.424,8.424,0,0,1,1.507-5.4A5.536,5.536,0,0,1,2.1-12.806ZM.255-7.04a2.594,2.594,0,0,0-1.538.5,2.61,2.61,0,0,0-.976,1.257v.6a4.2,4.2,0,0,0,.712,2.549,2.133,2.133,0,0,0,1.775.967,2.067,2.067,0,0,0,1.727-.809A3.355,3.355,0,0,0,2.584-4.1a3.356,3.356,0,0,0-.637-2.131A2.042,2.042,0,0,0,.255-7.04ZM14.142-5.458a7.436,7.436,0,0,1-.976,4.245A3.47,3.47,0,0,1,10.116.176,3.5,3.5,0,0,1,7.084-1.182a7.058,7.058,0,0,1-1.02-4.056V-7.409A7.271,7.271,0,0,1,7.04-11.6,3.5,3.5,0,0,1,10.1-12.973,3.528,3.528,0,0,1,13.14-11.65a7.017,7.017,0,0,1,1,4.083ZM12.516-7.682a5.958,5.958,0,0,0-.58-3.01,2,2,0,0,0-1.837-.945,1.97,1.97,0,0,0-1.819.94A5.817,5.817,0,0,0,7.69-7.8v2.6a6.053,6.053,0,0,0,.6,3.063,1.993,1.993,0,0,0,1.824.989A1.966,1.966,0,0,0,11.9-2.083a5.834,5.834,0,0,0,.611-2.936Z" transform="translate(836.962 6112.823)" fill="#636363"/>
    <path id="Trazado_664736" data-name="Trazado 664736" d="M-4.111,0H-5.928V-12.041L-9.57-10.7v-1.641l5.176-1.943h.283ZM10.1-6.064A8.263,8.263,0,0,1,9.014-1.348,3.855,3.855,0,0,1,5.625.2,3.883,3.883,0,0,1,2.256-1.313,7.843,7.843,0,0,1,1.123-5.82V-8.232a8.079,8.079,0,0,1,1.084-4.658,3.885,3.885,0,0,1,3.4-1.523,3.92,3.92,0,0,1,3.379,1.47A7.8,7.8,0,0,1,10.1-8.408ZM8.291-8.535a6.62,6.62,0,0,0-.645-3.345,2.218,2.218,0,0,0-2.041-1.05,2.189,2.189,0,0,0-2.021,1.045A6.464,6.464,0,0,0,2.93-8.672v2.891a6.726,6.726,0,0,0,.669,3.4,2.214,2.214,0,0,0,2.026,1.1A2.184,2.184,0,0,0,7.612-2.314a6.483,6.483,0,0,0,.679-3.262Z" transform="translate(940.962 6355.823)" fill="#636363"/>
    <path id="Trazado_664737" data-name="Trazado 664737" d="M-.732,0h-9.316V-1.3l4.922-5.469A11.693,11.693,0,0,0-3.618-8.784,3.366,3.366,0,0,0-3.2-10.391a2.551,2.551,0,0,0-.674-1.826,2.356,2.356,0,0,0-1.8-.713,2.79,2.79,0,0,0-2.095.767,2.928,2.928,0,0,0-.747,2.134h-1.807A4.194,4.194,0,0,1-9.058-13.2a4.688,4.688,0,0,1,3.384-1.211,4.5,4.5,0,0,1,3.135,1.04,3.548,3.548,0,0,1,1.152,2.769q0,2.1-2.676,5L-7.871-1.475H-.732ZM10.1-6.064A8.263,8.263,0,0,1,9.014-1.348,3.855,3.855,0,0,1,5.625.2,3.883,3.883,0,0,1,2.256-1.313,7.843,7.843,0,0,1,1.123-5.82V-8.232a8.079,8.079,0,0,1,1.084-4.658,3.885,3.885,0,0,1,3.4-1.523,3.92,3.92,0,0,1,3.379,1.47A7.8,7.8,0,0,1,10.1-8.408ZM8.291-8.535a6.62,6.62,0,0,0-.645-3.345,2.218,2.218,0,0,0-2.041-1.05,2.189,2.189,0,0,0-2.021,1.045A6.464,6.464,0,0,0,2.93-8.672v2.891a6.726,6.726,0,0,0,.669,3.4,2.214,2.214,0,0,0,2.026,1.1A2.184,2.184,0,0,0,7.612-2.314a6.483,6.483,0,0,0,.679-3.262Z" transform="translate(1010.962 6355.823)" fill="#636363"/>
    <path id="Trazado_664738" data-name="Trazado 664738" d="M-7.422-7.988h1.357a2.984,2.984,0,0,0,2.012-.674A2.251,2.251,0,0,0-3.32-10.43a2.205,2.205,0,0,0-2.49-2.5,2.59,2.59,0,0,0-1.87.669,2.341,2.341,0,0,0-.7,1.772h-1.807A3.627,3.627,0,0,1-8.95-13.3a4.5,4.5,0,0,1,3.14-1.118A4.447,4.447,0,0,1-2.656-13.35a3.845,3.845,0,0,1,1.143,2.959,3.121,3.121,0,0,1-.6,1.8,3.626,3.626,0,0,1-1.636,1.3,3.494,3.494,0,0,1,1.812,1.23,3.417,3.417,0,0,1,.64,2.1A3.879,3.879,0,0,1-2.549-.928,4.681,4.681,0,0,1-5.8.2,4.8,4.8,0,0,1-9.058-.889,3.6,3.6,0,0,1-10.312-3.75H-8.5a2.324,2.324,0,0,0,.732,1.8A2.786,2.786,0,0,0-5.8-1.279a2.734,2.734,0,0,0,2-.684,2.634,2.634,0,0,0,.693-1.963,2.391,2.391,0,0,0-.762-1.9,3.319,3.319,0,0,0-2.2-.684H-7.422ZM10.1-6.064A8.263,8.263,0,0,1,9.014-1.348,3.855,3.855,0,0,1,5.625.2,3.883,3.883,0,0,1,2.256-1.313,7.843,7.843,0,0,1,1.123-5.82V-8.232a8.079,8.079,0,0,1,1.084-4.658,3.885,3.885,0,0,1,3.4-1.523,3.92,3.92,0,0,1,3.379,1.47A7.8,7.8,0,0,1,10.1-8.408ZM8.291-8.535a6.62,6.62,0,0,0-.645-3.345,2.218,2.218,0,0,0-2.041-1.05,2.189,2.189,0,0,0-2.021,1.045A6.464,6.464,0,0,0,2.93-8.672v2.891a6.726,6.726,0,0,0,.669,3.4,2.214,2.214,0,0,0,2.026,1.1A2.184,2.184,0,0,0,7.612-2.314a6.483,6.483,0,0,0,.679-3.262Z" transform="translate(1079.962 6355.823)" fill="#636363"/>
    <path id="Trazado_664739" data-name="Trazado 664739" d="M-2.422-4.775H-.449V-3.3H-2.422V0H-4.238V-3.3h-6.475V-4.365l6.367-9.854h1.924Zm-6.24,0h4.424v-6.973l-.215.391ZM10.1-6.064A8.263,8.263,0,0,1,9.014-1.348,3.855,3.855,0,0,1,5.625.2,3.883,3.883,0,0,1,2.256-1.313,7.843,7.843,0,0,1,1.123-5.82V-8.232a8.079,8.079,0,0,1,1.084-4.658,3.885,3.885,0,0,1,3.4-1.523,3.92,3.92,0,0,1,3.379,1.47A7.8,7.8,0,0,1,10.1-8.408ZM8.291-8.535a6.62,6.62,0,0,0-.645-3.345,2.218,2.218,0,0,0-2.041-1.05,2.189,2.189,0,0,0-2.021,1.045A6.464,6.464,0,0,0,2.93-8.672v2.891a6.726,6.726,0,0,0,.669,3.4,2.214,2.214,0,0,0,2.026,1.1A2.184,2.184,0,0,0,7.612-2.314a6.483,6.483,0,0,0,.679-3.262Z" transform="translate(1150.962 6355.823)" fill="#636363"/>
    <path id="Trazado_664740" data-name="Trazado 664740" d="M-9.219-7.129l.723-7.09h7.285v1.67H-6.963l-.43,3.877A4.588,4.588,0,0,1-5.02-9.287,3.923,3.923,0,0,1-1.934-8,5.033,5.033,0,0,1-.791-4.531,4.858,4.858,0,0,1-1.978-1.069,4.325,4.325,0,0,1-5.293.2,4.494,4.494,0,0,1-8.369-.85,4.171,4.171,0,0,1-9.727-3.74h1.709A2.869,2.869,0,0,0-7.148-1.9a2.7,2.7,0,0,0,1.855.62,2.438,2.438,0,0,0,1.978-.859A3.593,3.593,0,0,0-2.6-4.512,3.3,3.3,0,0,0-3.374-6.8a2.641,2.641,0,0,0-2.065-.864,2.978,2.978,0,0,0-1.855.518l-.479.391ZM10.1-6.064A8.263,8.263,0,0,1,9.014-1.348,3.855,3.855,0,0,1,5.625.2,3.883,3.883,0,0,1,2.256-1.313,7.843,7.843,0,0,1,1.123-5.82V-8.232a8.079,8.079,0,0,1,1.084-4.658,3.885,3.885,0,0,1,3.4-1.523,3.92,3.92,0,0,1,3.379,1.47A7.8,7.8,0,0,1,10.1-8.408ZM8.291-8.535a6.62,6.62,0,0,0-.645-3.345,2.218,2.218,0,0,0-2.041-1.05,2.189,2.189,0,0,0-2.021,1.045A6.464,6.464,0,0,0,2.93-8.672v2.891a6.726,6.726,0,0,0,.669,3.4,2.214,2.214,0,0,0,2.026,1.1A2.184,2.184,0,0,0,7.612-2.314a6.483,6.483,0,0,0,.679-3.262Z" transform="translate(1219.962 6355.823)" fill="#636363"/>
    <path id="Trazado_664741" data-name="Trazado 664741" d="M-2.959-14.229V-12.7h-.332a4.757,4.757,0,0,0-3.359,1.25A5.2,5.2,0,0,0-8.1-8.037,3.856,3.856,0,0,1-5.029-9.326,3.687,3.687,0,0,1-2.065-8.018,5.047,5.047,0,0,1-.957-4.639a5.031,5.031,0,0,1-1.2,3.516A4.119,4.119,0,0,1-5.361.2,4.059,4.059,0,0,1-8.672-1.372,6.212,6.212,0,0,1-9.941-5.41V-6.1a9.36,9.36,0,0,1,1.675-6,6.151,6.151,0,0,1,4.985-2.124ZM-5.332-7.822a2.882,2.882,0,0,0-1.709.557,2.9,2.9,0,0,0-1.084,1.4v.664a4.664,4.664,0,0,0,.791,2.832A2.37,2.37,0,0,0-5.361-1.3a2.3,2.3,0,0,0,1.919-.9,3.728,3.728,0,0,0,.7-2.354,3.729,3.729,0,0,0-.708-2.368A2.269,2.269,0,0,0-5.332-7.822ZM10.1-6.064A8.263,8.263,0,0,1,9.014-1.348,3.855,3.855,0,0,1,5.625.2,3.883,3.883,0,0,1,2.256-1.313,7.843,7.843,0,0,1,1.123-5.82V-8.232a8.079,8.079,0,0,1,1.084-4.658,3.885,3.885,0,0,1,3.4-1.523,3.92,3.92,0,0,1,3.379,1.47A7.8,7.8,0,0,1,10.1-8.408ZM8.291-8.535a6.62,6.62,0,0,0-.645-3.345,2.218,2.218,0,0,0-2.041-1.05,2.189,2.189,0,0,0-2.021,1.045A6.464,6.464,0,0,0,2.93-8.672v2.891a6.726,6.726,0,0,0,.669,3.4,2.214,2.214,0,0,0,2.026,1.1A2.184,2.184,0,0,0,7.612-2.314a6.483,6.483,0,0,0,.679-3.262Z" transform="translate(1284.962 6355.823)" fill="#636363"/>
    <path id="Trazado_663043" data-name="Trazado 663043" d="M-161.382-5238.014,113.573-5359.35" transform="translate(1109.039 11516.536)" fill="none" stroke="#00acc1" stroke-width="2"/>
    <path id="Trazado_664742" data-name="Trazado 664742" d="M0,0H12.037V12.037H0Z" transform="translate(950.415 6268.684) rotate(43)" fill="#f1b62b"/>
    <path id="Trazado_664743" data-name="Trazado 664743" d="M0,0H12.037V12.037H0Z" transform="translate(964.859 6251.832) rotate(43)" fill="#f1b62b"/>
    <path id="Trazado_664744" data-name="Trazado 664744" d="M0,0H12.037V12.037H0Z" transform="translate(1008.191 6254.239) rotate(43)" fill="#f1b62b"/>
    <path id="Trazado_664745" data-name="Trazado 664745" d="M0,0H12.037V12.037H0Z" transform="translate(1020.228 6242.203) rotate(43)" fill="#f1b62b"/>
    <path id="Trazado_664746" data-name="Trazado 664746" d="M0,0H12.037V12.037H0Z" transform="translate(1058.745 6215.722) rotate(43)" fill="#f1b62b"/>
    <path id="Trazado_664747" data-name="Trazado 664747" d="M0,0H12.037V12.037H0Z" transform="translate(1093.344 6203.686) rotate(43)" fill="#f1b62b"/>
    <path id="Trazado_664748" data-name="Trazado 664748" d="M0,0H12.037V12.037H0Z" transform="translate(1165.564 6191.649) rotate(43)" fill="#f1b62b"/>
    <path id="Trazado_664749" data-name="Trazado 664749" d="M0,0H12.037V12.037H0Z" transform="translate(1182.415 6167.576) rotate(43)" fill="#f1b62b"/>
    <path id="Trazado_664750" data-name="Trazado 664750" d="M0,0H12.037V12.037H0Z" transform="translate(1208.896 6155.539) rotate(43)" fill="#f1b62b"/>
    <path id="Trazado_664751" data-name="Trazado 664751" d="M0,0H12.037V12.037H0Z" transform="translate(1222.315 6131.466) rotate(43)" fill="#f1b62b"/>
  </g>
</svg>
