<svg xmlns="http://www.w3.org/2000/svg" width="134" height="134" viewBox="0 0 134 134">
  <g id="Grupo_898335" data-name="Grupo 898335" transform="translate(-389 -3942)">
    <circle id="Elipse_5154" data-name="Elipse 5154" cx="67" cy="67" r="67" transform="translate(389 3942)" fill="#f3f9ff"/>
    <g id="Grupo_896324" data-name="Grupo 896324" transform="translate(281.58 3890.333)">
      <g id="Document" transform="translate(143.33 68.795)">
        <g id="Grupo_886979" data-name="Grupo 886979">
          <g id="Grupo_886942" data-name="Grupo 886942">
            <g id="Grupo_886887" data-name="Grupo 886887" transform="translate(0.08 6.556)">
              <g id="Grupo_886886" data-name="Grupo 886886">
                <path id="Trazado_620775" data-name="Trazado 620775" d="M230.721,102.6l.42,80.206-59.492-.111-4.179-3.732,3.756-77.24,55.8-4.6Z" transform="translate(-167.47 -97.121)" fill="#e0e0e0"/>
              </g>
            </g>
            <g id="Grupo_886894" data-name="Grupo 886894" transform="translate(0 6.556)">
              <g id="Grupo_886893" data-name="Grupo 886893">
                <g id="Grupo_886892" data-name="Grupo 886892">
                  <g id="Grupo_886891" data-name="Grupo 886891">
                    <g id="Grupo_886888" data-name="Grupo 886888" transform="translate(0.08 0)">
                      <path id="Trazado_620776" data-name="Trazado 620776" d="M227.031,97.121l-.06,81.792-59.5.053.744-81.752Z" transform="translate(-167.47 -97.121)" fill="#fafafa"/>
                    </g>
                    <g id="Grupo_886890" data-name="Grupo 886890">
                      <g id="Grupo_886889" data-name="Grupo 886889">
                        <path id="Trazado_620777" data-name="Trazado 620777" d="M226.848,97.121l-58.817.157.064-.064c-.2,22.859-.456,51.16-.729,81.752l-.079-.08h.353l59.148-.045-.072.072c.078-48.371.131-81.157.132-81.791,0,.634,0,33.421.012,81.791v.072h-.072l-59.147.06h-.433v-.08c.284-30.592.547-58.893.759-81.752V97.15h.063Z" transform="translate(-167.207 -97.121)" fill="#263238"/>
                      </g>
                    </g>
                  </g>
                </g>
              </g>
            </g>
            <g id="Grupo_886896" data-name="Grupo 886896" transform="translate(8.383 23.879)">
              <g id="Grupo_886895" data-name="Grupo 886895">
                <path id="Trazado_620778" data-name="Trazado 620778" d="M196.042,156.746l20-.138a1.179,1.179,0,0,0,1.171-1.187h0a1.179,1.179,0,0,0-1.187-1.171l-20,.138a1.179,1.179,0,0,0-1.171,1.187h0A1.179,1.179,0,0,0,196.042,156.746Z" transform="translate(-194.855 -154.25)" fill="#e0e0e0"/>
              </g>
            </g>
            <g id="Grupo_886898" data-name="Grupo 886898" transform="translate(8.349 28.441)">
              <g id="Grupo_886897" data-name="Grupo 886897">
                <path id="Trazado_620779" data-name="Trazado 620779" d="M195.927,171.791l20-.138a1.179,1.179,0,0,0,1.171-1.187h0a1.178,1.178,0,0,0-1.187-1.171l-20,.138a1.179,1.179,0,0,0-1.171,1.187h0A1.179,1.179,0,0,0,195.927,171.791Z" transform="translate(-194.74 -169.295)" fill="#e0e0e0"/>
              </g>
            </g>
            <g id="Grupo_886900" data-name="Grupo 886900" transform="translate(8.313 33.003)">
              <g id="Grupo_886899" data-name="Grupo 886899">
                <path id="Trazado_620780" data-name="Trazado 620780" d="M195.811,186.835l20-.138a1.179,1.179,0,0,0,1.171-1.187h0a1.179,1.179,0,0,0-1.187-1.171l-20,.138a1.179,1.179,0,0,0-1.171,1.187h0A1.179,1.179,0,0,0,195.811,186.835Z" transform="translate(-194.624 -184.339)" fill="#e0e0e0"/>
              </g>
            </g>
            <g id="Grupo_886902" data-name="Grupo 886902" transform="translate(8.278 37.564)">
              <g id="Grupo_886901" data-name="Grupo 886901">
                <path id="Trazado_620781" data-name="Trazado 620781" d="M195.7,201.879l20-.139a1.178,1.178,0,0,0,1.171-1.187h0a1.179,1.179,0,0,0-1.187-1.171l-20,.139a1.179,1.179,0,0,0-1.171,1.187h0A1.179,1.179,0,0,0,195.7,201.879Z" transform="translate(-194.509 -199.383)" fill="#e0e0e0"/>
              </g>
            </g>
            <g id="Grupo_886904" data-name="Grupo 886904" transform="translate(8.244 42.126)">
              <g id="Grupo_886903" data-name="Grupo 886903">
                <path id="Trazado_620782" data-name="Trazado 620782" d="M195.581,216.924l20-.138a1.179,1.179,0,0,0,1.171-1.187h0a1.179,1.179,0,0,0-1.187-1.171l-20,.138a1.179,1.179,0,0,0-1.171,1.187h0A1.179,1.179,0,0,0,195.581,216.924Z" transform="translate(-194.394 -214.428)" fill="#e0e0e0"/>
              </g>
            </g>
            <g id="Grupo_886906" data-name="Grupo 886906" transform="translate(8.208 46.688)">
              <g id="Grupo_886905" data-name="Grupo 886905" transform="translate(0 0)">
                <path id="Trazado_620783" data-name="Trazado 620783" d="M195.465,231.968l20-.139a1.179,1.179,0,0,0,1.171-1.187h0a1.179,1.179,0,0,0-1.187-1.171l-20,.139a1.179,1.179,0,0,0-1.171,1.187h0A1.179,1.179,0,0,0,195.465,231.968Z" transform="translate(-194.278 -229.472)" fill="#e0e0e0"/>
              </g>
            </g>
            <g id="Grupo_886908" data-name="Grupo 886908" transform="translate(8.174 51.25)">
              <g id="Grupo_886907" data-name="Grupo 886907">
                <path id="Trazado_620784" data-name="Trazado 620784" d="M195.35,247.013l20-.138a1.179,1.179,0,0,0,1.171-1.187h0a1.179,1.179,0,0,0-1.187-1.171l-20,.138a1.179,1.179,0,0,0-1.171,1.187h0A1.179,1.179,0,0,0,195.35,247.013Z" transform="translate(-194.163 -244.517)" fill="#e0e0e0"/>
              </g>
            </g>
            <g id="Grupo_886910" data-name="Grupo 886910" transform="translate(33.033 46.488)">
              <g id="Grupo_886909" data-name="Grupo 886909" transform="translate(0 0)">
                <path id="Trazado_620785" data-name="Trazado 620785" d="M277.321,231.172l20,.123a1.179,1.179,0,0,0,1.186-1.172h0a1.178,1.178,0,0,0-1.171-1.186l-20-.123a1.179,1.179,0,0,0-1.186,1.172h0A1.179,1.179,0,0,0,277.321,231.172Z" transform="translate(-276.149 -228.814)" fill="#e0e0e0"/>
              </g>
            </g>
            <g id="Grupo_886912" data-name="Grupo 886912" transform="translate(32.938 51.049)">
              <g id="Grupo_886911" data-name="Grupo 886911" transform="translate(0 0)">
                <path id="Trazado_620786" data-name="Trazado 620786" d="M277.008,246.213l20,.123a1.179,1.179,0,0,0,1.186-1.172h0a1.179,1.179,0,0,0-1.172-1.186l-20-.123a1.179,1.179,0,0,0-1.186,1.172h0A1.179,1.179,0,0,0,277.008,246.213Z" transform="translate(-275.836 -243.855)" fill="#e0e0e0"/>
              </g>
            </g>
            <g id="Grupo_886914" data-name="Grupo 886914" transform="translate(32.808 55.859)">
              <g id="Grupo_886913" data-name="Grupo 886913">
                <path id="Trazado_620787" data-name="Trazado 620787" d="M276.578,262.077l20,.123a1.179,1.179,0,0,0,1.186-1.172h0a1.179,1.179,0,0,0-1.172-1.186l-20-.123a1.179,1.179,0,0,0-1.186,1.172h0A1.179,1.179,0,0,0,276.578,262.077Z" transform="translate(-275.406 -259.719)" fill="#e0e0e0"/>
              </g>
            </g>
            <g id="Grupo_886916" data-name="Grupo 886916" transform="translate(32.678 60.67)">
              <g id="Grupo_886915" data-name="Grupo 886915">
                <path id="Trazado_620788" data-name="Trazado 620788" d="M276.148,277.941l20,.123a1.179,1.179,0,0,0,1.186-1.172h0a1.179,1.179,0,0,0-1.172-1.186l-20-.123a1.179,1.179,0,0,0-1.186,1.172h0A1.179,1.179,0,0,0,276.148,277.941Z" transform="translate(-274.976 -275.583)" fill="#e0e0e0"/>
              </g>
            </g>
            <g id="Grupo_886918" data-name="Grupo 886918" transform="translate(32.547 65.48)">
              <g id="Grupo_886917" data-name="Grupo 886917">
                <path id="Trazado_620789" data-name="Trazado 620789" d="M275.718,293.8l20,.123a1.179,1.179,0,0,0,1.186-1.172h0a1.179,1.179,0,0,0-1.172-1.186l-20-.123a1.179,1.179,0,0,0-1.186,1.172h0A1.179,1.179,0,0,0,275.718,293.8Z" transform="translate(-274.546 -291.447)" fill="#e0e0e0"/>
              </g>
            </g>
            <g id="Grupo_886920" data-name="Grupo 886920" transform="translate(32.417 70.29)">
              <g id="Grupo_886919" data-name="Grupo 886919">
                <path id="Trazado_620790" data-name="Trazado 620790" d="M275.288,309.669l20,.123a1.179,1.179,0,0,0,1.186-1.172h0a1.179,1.179,0,0,0-1.172-1.186l-20-.123a1.179,1.179,0,0,0-1.186,1.172h0A1.179,1.179,0,0,0,275.288,309.669Z" transform="translate(-274.116 -307.311)" fill="#e0e0e0"/>
              </g>
            </g>
            <g id="Grupo_886922" data-name="Grupo 886922" transform="translate(32.287 75.1)">
              <g id="Grupo_886921" data-name="Grupo 886921">
                <path id="Trazado_620791" data-name="Trazado 620791" d="M274.858,325.532l20,.123a1.178,1.178,0,0,0,1.186-1.172h0a1.179,1.179,0,0,0-1.172-1.186l-20-.123a1.179,1.179,0,0,0-1.186,1.172h0A1.179,1.179,0,0,0,274.858,325.532Z" transform="translate(-273.686 -323.174)" fill="#e0e0e0"/>
              </g>
            </g>
            <g id="Grupo_886924" data-name="Grupo 886924" transform="translate(7.158 79.44)">
              <g id="Grupo_886923" data-name="Grupo 886923">
                <path id="Trazado_620792" data-name="Trazado 620792" d="M191.6,339.845l45.46.28a1.179,1.179,0,0,0,1.186-1.172h0a1.179,1.179,0,0,0-1.172-1.186l-45.46-.28a.789.789,0,0,0-.794.785l0,.778A.79.79,0,0,0,191.6,339.845Z" transform="translate(-190.815 -337.487)" fill="#e0e0e0"/>
              </g>
            </g>
            <g id="Grupo_886926" data-name="Grupo 886926" transform="translate(8.527 17.983)">
              <g id="Grupo_886925" data-name="Grupo 886925">
                <path id="Trazado_620793" data-name="Trazado 620793" d="M196.516,137.253l13.231-.092a1.179,1.179,0,0,0,1.171-1.187h0a1.179,1.179,0,0,0-1.187-1.171L196.5,134.9a1.179,1.179,0,0,0-1.171,1.187h0A1.179,1.179,0,0,0,196.516,137.253Z" transform="translate(-195.329 -134.804)" fill="#e0e0e0"/>
              </g>
            </g>
            <g id="Grupo_886941" data-name="Grupo 886941" transform="translate(24.033)">
              <g id="Grupo_886928" data-name="Grupo 886928" transform="translate(0.414 4.637)">
                <g id="Grupo_886927" data-name="Grupo 886927">
                  <path id="Trazado_620794" data-name="Trazado 620794" d="M247.833,91.651l.835-.808,10.064-.05.5.886Z" transform="translate(-247.833 -90.793)" fill="#263238"/>
                </g>
              </g>
              <g id="Grupo_886930" data-name="Grupo 886930" transform="translate(0.406 5.5)">
                <g id="Grupo_886929" data-name="Grupo 886929" transform="translate(0 0)">
                  <rect id="Rectángulo_296356" data-name="Rectángulo 296356" width="4.644" height="11.396" transform="translate(11.404 0.02) rotate(90.1)" fill="#263238"/>
                </g>
              </g>
              <g id="Grupo_886932" data-name="Grupo 886932" transform="translate(0 9.75)">
                <g id="Grupo_886931" data-name="Grupo 886931" transform="translate(0 0)">
                  <rect id="Rectángulo_296357" data-name="Rectángulo 296357" width="0.927" height="12.188" rx="0.464" transform="translate(12.189 0.02) rotate(90.092)" fill="#263238"/>
                </g>
              </g>
              <g id="Grupo_886934" data-name="Grupo 886934" transform="translate(3.158)">
                <g id="Grupo_886933" data-name="Grupo 886933">
                  <path id="Trazado_620795" data-name="Trazado 620795" d="M262.341,84.527h-.005l-5.013-.013a.448.448,0,0,1-.361-.183.417.417,0,0,1-.054-.391l1.433-3.859a2.516,2.516,0,0,1-1.078-1.985,2.577,2.577,0,0,1,2.519-2.6,2.648,2.648,0,0,1,1.916.711,2.483,2.483,0,0,1-.3,3.89l1.361,3.859a.419.419,0,0,1-.059.388A.449.449,0,0,1,262.341,84.527Zm-2.487-8.722-.061,0a2.293,2.293,0,0,0-2.215,2.283,2.218,2.218,0,0,0,1.039,1.806l.1.066-1.516,4.083a.118.118,0,0,0,.015.111.126.126,0,0,0,.1.052l5.012.013a.123.123,0,0,0,.1-.051.118.118,0,0,0,.017-.11l-1.441-4.084.1-.065a2.2,2.2,0,0,0,1.062-1.871,2.179,2.179,0,0,0-.7-1.608A2.327,2.327,0,0,0,259.854,75.805Z" transform="translate(-256.881 -75.499)" fill="#455a64"/>
                </g>
              </g>
              <g id="Grupo_886937" data-name="Grupo 886937" transform="translate(0.472 9.723)">
                <g id="Grupo_886936" data-name="Grupo 886936">
                  <g id="Grupo_886935" data-name="Grupo 886935">
                    <path id="Trazado_620796" data-name="Trazado 620796" d="M259.27,107.615a.581.581,0,0,0-.115-.005l-.327,0-1.205-.012-3.976-.024-3.977,0-1.205.008-.328.007a.518.518,0,0,0-.114.008.556.556,0,0,0,.114.01l.327.01,1.205.02c1.018.013,2.423.025,3.977.031s2.958.005,3.976,0c.509,0,.921-.009,1.205-.016.143,0,.252-.007.328-.012A.545.545,0,0,0,259.27,107.615Z" transform="translate(-248.024 -107.563)" fill="#455a64"/>
                  </g>
                </g>
              </g>
              <g id="Grupo_886940" data-name="Grupo 886940" transform="translate(0.586 5.377)">
                <g id="Grupo_886939" data-name="Grupo 886939">
                  <g id="Grupo_886938" data-name="Grupo 886938">
                    <path id="Trazado_620797" data-name="Trazado 620797" d="M259.646,93.283a.581.581,0,0,0-.115-.005l-.327,0L258,93.26l-3.975-.024-3.977,0-1.2.008-.328.007a.544.544,0,0,0-.114.008.555.555,0,0,0,.114.01l.327.01,1.205.021c1.018.013,2.423.025,3.976.031s2.959.005,3.976,0c.509,0,.921-.009,1.205-.016.143,0,.252-.007.328-.012A.543.543,0,0,0,259.646,93.283Z" transform="translate(-248.4 -93.231)" fill="#455a64"/>
                  </g>
                </g>
              </g>
            </g>
          </g>
          <g id="Grupo_886946" data-name="Grupo 886946" transform="translate(59.58 88.347)">
            <g id="Grupo_886943" data-name="Grupo 886943" transform="translate(0.001 0.001)">
              <line id="Línea_350" data-name="Línea 350" x2="4.17" y2="3.897" fill="#fafafa"/>
            </g>
            <g id="Grupo_886945" data-name="Grupo 886945">
              <g id="Grupo_886944" data-name="Grupo 886944">
                <path id="Trazado_620798" data-name="Trazado 620798" d="M367.868,370.759a51.677,51.677,0,0,1-4.171-3.9,51.7,51.7,0,0,1,4.171,3.9Z" transform="translate(-363.697 -366.861)" fill="#263238"/>
              </g>
            </g>
          </g>
          <g id="Grupo_886948" data-name="Grupo 886948" transform="translate(7.158 23.518)">
            <g id="Grupo_886947" data-name="Grupo 886947">
              <path id="Trazado_620799" data-name="Trazado 620799" d="M190.814,220.1s.094-.005.277-.008l.812-.008,3.133-.014,11.6-.024,38.893-.025-.079.078c0-1.965,0-4.05,0-6.161.009-16.812.017-32.03.023-43.049.011-5.506.019-9.962.025-13.045.006-1.538.011-2.732.015-3.547,0-.4.006-.711.008-.922s.008-.314.008-.314.005.106.008.314,0,.52.008.922c0,.814.008,2.009.014,3.547.006,3.084.015,7.54.025,13.045.006,11.019.014,26.237.023,43.049,0,2.11,0,4.2,0,6.161v.079h-.079l-38.893-.025-11.6-.024-3.133-.014-.812-.007C190.908,220.1,190.814,220.1,190.814,220.1Z" transform="translate(-190.814 -153.061)" fill="#263238"/>
            </g>
          </g>
          <g id="Grupo_886969" data-name="Grupo 886969" transform="translate(8.222 57.698)">
            <g id="Grupo_886958" data-name="Grupo 886958">
              <g id="Grupo_886951" data-name="Grupo 886951" transform="translate(0.594)">
                <g id="Grupo_886950" data-name="Grupo 886950">
                  <g id="Grupo_886949" data-name="Grupo 886949">
                    <path id="Trazado_620800" data-name="Trazado 620800" d="M214.807,274.941a9.265,9.265,0,1,1-9.412-9.157A9.3,9.3,0,0,1,214.807,274.941Zm-13.693.221a4.43,4.43,0,1,0,4.358-4.521A4.444,4.444,0,0,0,201.114,275.162Z" transform="translate(-196.279 -265.783)" fill="#e0e0e0"/>
                  </g>
                </g>
              </g>
              <g id="Grupo_886954" data-name="Grupo 886954" transform="translate(9.709 0)">
                <g id="Grupo_886953" data-name="Grupo 886953">
                  <g id="Grupo_886952" data-name="Grupo 886952">
                    <path id="Trazado_620801" data-name="Trazado 620801" d="M235.753,274.942a9.3,9.3,0,0,1-9.114,9.455l-.078-4.856a4.45,4.45,0,0,0-.142-8.9l-.078-4.856A9.3,9.3,0,0,1,235.753,274.942Z" transform="translate(-226.341 -265.784)" fill="#455a64"/>
                  </g>
                </g>
              </g>
              <g id="Grupo_886957" data-name="Grupo 886957" transform="translate(0 8.725)">
                <g id="Grupo_886956" data-name="Grupo 886956">
                  <g id="Grupo_886955" data-name="Grupo 886955">
                    <path id="Trazado_620802" data-name="Trazado 620802" d="M205.16,305.192a10.585,10.585,0,0,1-10.839-10.544l5.655-.091c.046,2.87,2.23,4.677,5.087,4.631Z" transform="translate(-194.321 -294.556)" fill="#ff725e"/>
                  </g>
                </g>
              </g>
            </g>
            <g id="Grupo_886960" data-name="Grupo 886960" transform="translate(0.729 8.913)">
              <g id="Grupo_886959" data-name="Grupo 886959">
                <path id="Trazado_620803" data-name="Trazado 620803" d="M199.245,295.179a31.231,31.231,0,0,1-2.518,3.655,31.17,31.17,0,0,1,2.518-3.655Z" transform="translate(-196.725 -295.178)" fill="#263238"/>
              </g>
            </g>
            <g id="Grupo_886962" data-name="Grupo 886962" transform="translate(2.044 9.386)">
              <g id="Grupo_886961" data-name="Grupo 886961">
                <path id="Trazado_620804" data-name="Trazado 620804" d="M204.726,296.739c.036.025-.755,1.235-1.766,2.7s-1.86,2.638-1.9,2.613.755-1.234,1.766-2.7S204.69,296.715,204.726,296.739Z" transform="translate(-201.062 -296.739)" fill="#263238"/>
              </g>
            </g>
            <g id="Grupo_886964" data-name="Grupo 886964" transform="translate(3.593 11.901)">
              <g id="Grupo_886963" data-name="Grupo 886963">
                <path id="Trazado_620805" data-name="Trazado 620805" d="M209.481,305.032a53.807,53.807,0,0,1-3.31,4.8,53.949,53.949,0,0,1,3.31-4.8Z" transform="translate(-206.17 -305.032)" fill="#263238"/>
              </g>
            </g>
            <g id="Grupo_886966" data-name="Grupo 886966" transform="translate(5.675 13.292)">
              <g id="Grupo_886965" data-name="Grupo 886965">
                <path id="Trazado_620806" data-name="Trazado 620806" d="M216.348,309.619a53.8,53.8,0,0,1-3.31,4.8,53.962,53.962,0,0,1,3.31-4.8Z" transform="translate(-213.037 -309.619)" fill="#263238"/>
              </g>
            </g>
            <g id="Grupo_886968" data-name="Grupo 886968" transform="translate(8.04 15.057)">
              <g id="Grupo_886967" data-name="Grupo 886967">
                <path id="Trazado_620807" data-name="Trazado 620807" d="M223.566,315.442a36.651,36.651,0,0,1-2.728,3.959,36.565,36.565,0,0,1,2.728-3.959Z" transform="translate(-220.837 -315.441)" fill="#263238"/>
              </g>
            </g>
          </g>
          <g id="Grupo_886970" data-name="Grupo 886970" transform="translate(34.877 27.654)">
            <path id="Trazado_620808" data-name="Trazado 620808" d="M300.027,181.229h0l-17.5-.209a.3.3,0,0,1-.3-.307L282.392,167a.3.3,0,0,1,.307-.3.3.3,0,0,1,.3.307l-.16,13.41,17.193.205a.3.3,0,0,1,0,.606Z" transform="translate(-282.228 -166.701)" fill="#263238"/>
          </g>
          <g id="Grupo_886971" data-name="Grupo 886971" transform="translate(37.553 36.397)">
            <rect id="Rectángulo_296358" data-name="Rectángulo 296358" width="2.349" height="4.315" transform="matrix(1, 0.012, -0.012, 1, 0.052, 0)" fill="#455a64"/>
          </g>
          <g id="Grupo_886972" data-name="Grupo 886972" transform="translate(45.71 36.397)">
            <rect id="Rectángulo_296359" data-name="Rectángulo 296359" width="2.349" height="4.315" transform="translate(0.052 0) rotate(0.684)" fill="#455a64"/>
          </g>
          <g id="Grupo_886973" data-name="Grupo 886973" transform="translate(41.645 32.942)">
            <rect id="Rectángulo_296360" data-name="Rectángulo 296360" width="2.349" height="7.843" transform="translate(0.094 0) rotate(0.684)" fill="#ff725e"/>
          </g>
          <g id="Grupo_886974" data-name="Grupo 886974" transform="translate(49.774 32.942)">
            <rect id="Rectángulo_296361" data-name="Rectángulo 296361" width="2.349" height="7.843" transform="matrix(1, 0.012, -0.012, 1, 0.094, 0)" fill="#ff725e"/>
          </g>
          <g id="Grupo_886975" data-name="Grupo 886975" transform="translate(37.026 26.448)">
            <path id="Trazado_620809" data-name="Trazado 620809" d="M289.62,170.789a.3.3,0,0,1-.205-.527l5.395-4.94a.3.3,0,0,1,.391-.015l3.4,2.654,7.27-5.181a.3.3,0,0,1,.352.494l-7.454,5.313a.3.3,0,0,1-.363-.008l-3.377-2.636-5.205,4.767A.3.3,0,0,1,289.62,170.789Z" transform="translate(-289.317 -162.724)" fill="#455a64"/>
          </g>
          <g id="Grupo_886976" data-name="Grupo 886976" transform="translate(46.714 23.57)">
            <path id="Trazado_620810" data-name="Trazado 620810" d="M322.558,159.177s-1.572-.51-1.247-2.788a4.605,4.605,0,0,1,1.636-3.158,5.749,5.749,0,0,1,1.489,3.513,2.4,2.4,0,0,1-1.3,2.44l-.266-3.816Z" transform="translate(-321.267 -153.231)" fill="#455a64"/>
          </g>
          <g id="Grupo_886977" data-name="Grupo 886977" transform="translate(50.309 25.737)">
            <path id="Trazado_620811" data-name="Trazado 620811" d="M333.221,164.171s-.653-1.615,1.407-2.895a4.852,4.852,0,0,1,3.657-.817,6.058,6.058,0,0,1-1.828,3.581,2.571,2.571,0,0,1-2.943.52l3.018-2.408Z" transform="translate(-333.123 -160.378)" fill="#455a64"/>
          </g>
          <g id="Grupo_886978" data-name="Grupo 886978" transform="translate(48.811 17.208)">
            <path id="Trazado_620812" data-name="Trazado 620812" d="M333.733,135.122h-4.115a1.435,1.435,0,0,1-1.435-1.435h0a1.435,1.435,0,0,1,1.435-1.435h4.115a1.436,1.436,0,0,1,1.435,1.435h0A1.435,1.435,0,0,1,333.733,135.122Z" transform="translate(-328.183 -132.251)" fill="#e0e0e0"/>
          </g>
        </g>
      </g>
    </g>
  </g>
</svg>
