<svg xmlns="http://www.w3.org/2000/svg" width="715" height="402" viewBox="0 0 715 402">
  <g id="Grupo_898338" data-name="Grupo 898338" transform="translate(-650 -5390.823)">
    <rect id="Rectángulo_295174" data-name="Rectángulo 295174" width="715" height="402" rx="17" transform="translate(650 5390.823)" fill="#fff"/>
    <g id="Grupo_896293" data-name="Grupo 896293" transform="translate(694 5444.394)">
      <g id="Grupo_888460" data-name="Grupo 888460" transform="translate(0 0)">
        <g id="Grupo_888410" data-name="Grupo 888410" transform="translate(15.358 9.574)">
          <g id="Grupo_888399" data-name="Grupo 888399" transform="translate(0 237.75)">
            <g id="Grupo_888398" data-name="Grupo 888398">
              <path id="Trazado_622114" data-name="Trazado 622114" d="M639.437,562.282H43.706c-1.51,0-2.716-.65-2.716-1.459s1.206-1.459,2.716-1.459H639.437c1.5,0,2.716.653,2.716,1.459S640.936,562.282,639.437,562.282Z" transform="translate(-40.99 -559.365)" fill="#c4c4c4"/>
            </g>
          </g>
          <g id="Grupo_888401" data-name="Grupo 888401" transform="translate(0 190.198)">
            <g id="Grupo_888400" data-name="Grupo 888400">
              <path id="Trazado_622115" data-name="Trazado 622115" d="M639.437,545.983H43.706c-1.51,0-2.716-.65-2.716-1.459s1.206-1.459,2.716-1.459H639.437c1.5,0,2.716.654,2.716,1.459S640.936,545.983,639.437,545.983Z" transform="translate(-40.99 -543.066)" fill="#c4c4c4"/>
            </g>
          </g>
          <g id="Grupo_888403" data-name="Grupo 888403" transform="translate(0 142.646)">
            <g id="Grupo_888402" data-name="Grupo 888402">
              <path id="Trazado_622116" data-name="Trazado 622116" d="M639.437,529.685H43.706c-1.51,0-2.716-.651-2.716-1.459s1.206-1.459,2.716-1.459H639.437c1.5,0,2.716.654,2.716,1.459S640.936,529.685,639.437,529.685Z" transform="translate(-40.99 -526.767)" fill="#c4c4c4"/>
            </g>
          </g>
          <g id="Grupo_888405" data-name="Grupo 888405" transform="translate(0 95.098)">
            <g id="Grupo_888404" data-name="Grupo 888404">
              <path id="Trazado_622117" data-name="Trazado 622117" d="M639.437,513.386H43.706c-1.51,0-2.716-.653-2.716-1.459s1.206-1.459,2.716-1.459H639.437c1.5,0,2.716.651,2.716,1.459S640.936,513.386,639.437,513.386Z" transform="translate(-40.99 -510.469)" fill="#c4c4c4"/>
            </g>
          </g>
          <g id="Grupo_888407" data-name="Grupo 888407" transform="translate(0 47.546)">
            <g id="Grupo_888406" data-name="Grupo 888406">
              <path id="Trazado_622118" data-name="Trazado 622118" d="M639.437,497.087H43.706c-1.51,0-2.716-.654-2.716-1.459s1.206-1.459,2.716-1.459H639.437c1.5,0,2.716.653,2.716,1.459S640.936,497.087,639.437,497.087Z" transform="translate(-40.99 -494.17)" fill="#c4c4c4"/>
            </g>
          </g>
          <g id="Grupo_888409" data-name="Grupo 888409">
            <g id="Grupo_888408" data-name="Grupo 888408">
              <path id="Trazado_622119" data-name="Trazado 622119" d="M639.437,480.79H43.706c-1.51,0-2.716-.654-2.716-1.459s1.206-1.459,2.716-1.459H639.437c1.5,0,2.716.654,2.716,1.459S640.936,480.79,639.437,480.79Z" transform="translate(-40.99 -477.873)" fill="#c4c4c4"/>
            </g>
          </g>
        </g>
        <g id="Grupo_888411" data-name="Grupo 888411" transform="translate(0 8.115)">
          <path id="Trazado_622120" data-name="Trazado 622120" d="M646.937,768.509H41.035c-2.941,0-5.309-1.3-5.309-2.918V480.29c0-1.613,2.368-2.917,5.309-2.917s5.309,1.3,5.309,2.917V762.674H646.937c2.936,0,5.309,1.3,5.309,2.917S649.873,768.509,646.937,768.509Z" transform="translate(-35.726 -477.373)" fill="#c4c4c4"/>
        </g>
        <g id="Grupo_888442" data-name="Grupo 888442" transform="translate(23.236 41.223)">
          <rect id="Rectángulo_296497" data-name="Rectángulo 296497" width="51.312" height="241.481" transform="translate(0 0)" fill="#f1b62b"/>
        </g>
        <g id="Grupo_888443" data-name="Grupo 888443" transform="translate(90.134 118.021)">
          <rect id="Rectángulo_296498" data-name="Rectángulo 296498" width="47.17" height="164.682" transform="translate(0 0)" fill="#616161"/>
        </g>
        <g id="Grupo_888444" data-name="Grupo 888444" transform="translate(147.817 207.899)">
          <rect id="Rectángulo_296499" data-name="Rectángulo 296499" width="51.461" height="74.805" transform="translate(0 0)" fill="#00acc1"/>
        </g>
        <g id="Grupo_888445" data-name="Grupo 888445" transform="translate(209.285 221.952)">
          <rect id="Rectángulo_296500" data-name="Rectángulo 296500" width="52.506" height="60.752" transform="translate(0 0)" fill="#f1b62b"/>
        </g>
        <g id="Grupo_888446" data-name="Grupo 888446" transform="translate(267.836 231.671)">
          <rect id="Rectángulo_296501" data-name="Rectángulo 296501" width="55.229" height="51.033" transform="translate(0 0)" fill="#616161"/>
        </g>
        <g id="Grupo_888447" data-name="Grupo 888447" transform="translate(327.22 239.148)">
          <rect id="Rectángulo_296502" data-name="Rectángulo 296502" width="52.991" height="43.556" transform="translate(0 0)" fill="#f1b62b"/>
        </g>
        <g id="Grupo_888448" data-name="Grupo 888448" transform="translate(390.163 245.501)">
          <rect id="Rectángulo_296503" data-name="Rectángulo 296503" width="48.999" height="37.203" transform="translate(0 0)" fill="#00acc1"/>
        </g>
        <g id="Grupo_888450" data-name="Grupo 888450" transform="translate(224.506 77.595)">
          <path id="Trazado_622134" data-name="Trazado 622134" d="M155.273,516.307a8.115,8.115,0,1,1-8.119-8.119A8.118,8.118,0,0,1,155.273,516.307Z" transform="translate(-139.043 -508.188)" fill="#00acc1"/>
        </g>
        <g id="Grupo_896330" data-name="Grupo 896330" transform="translate(285.772 60.09)">
          <path id="Trazado_622134-2" data-name="Trazado 622134" d="M155.273,516.307a8.115,8.115,0,1,1-8.119-8.119A8.118,8.118,0,0,1,155.273,516.307Z" transform="translate(-139.043 -508.188)" fill="#00acc1"/>
        </g>
        <g id="Grupo_896331" data-name="Grupo 896331" transform="translate(341.204 45.503)">
          <path id="Trazado_622134-3" data-name="Trazado 622134" d="M155.273,516.307a8.115,8.115,0,1,1-8.119-8.119A8.118,8.118,0,0,1,155.273,516.307Z" transform="translate(-139.043 -508.188)" fill="#00acc1"/>
        </g>
        <g id="Grupo_896332" data-name="Grupo 896332" transform="translate(405.388 30.915)">
          <path id="Trazado_622134-4" data-name="Trazado 622134" d="M155.273,516.307a8.115,8.115,0,1,1-8.119-8.119A8.118,8.118,0,0,1,155.273,516.307Z" transform="translate(-139.043 -508.188)" fill="#00acc1"/>
        </g>
        <g id="Grupo_896333" data-name="Grupo 896333" transform="translate(463.737 19.246)">
          <path id="Trazado_622134-5" data-name="Trazado 622134" d="M155.273,516.307a8.115,8.115,0,1,1-8.119-8.119A8.118,8.118,0,0,1,155.273,516.307Z" transform="translate(-139.043 -508.188)" fill="#00acc1"/>
        </g>
        <g id="Grupo_896334" data-name="Grupo 896334" transform="translate(522.087 11.129)">
          <path id="Trazado_622134-6" data-name="Trazado 622134" d="M155.273,516.307a8.115,8.115,0,1,1-8.119-8.119A8.118,8.118,0,0,1,155.273,516.307Z" transform="translate(-139.043 -508.188)" fill="#00acc1"/>
        </g>
        <g id="Grupo_896335" data-name="Grupo 896335" transform="translate(589.188)">
          <path id="Trazado_622134-7" data-name="Trazado 622134" d="M155.273,516.307a8.115,8.115,0,1,1-8.119-8.119A8.118,8.118,0,0,1,155.273,516.307Z" transform="translate(-139.043 -508.188)" fill="#00acc1"/>
        </g>
        <g id="Grupo_888451" data-name="Grupo 888451" transform="translate(165.428 101.789)">
          <path id="Trazado_622135" data-name="Trazado 622135" d="M96.245,516.307a8.119,8.119,0,1,1-8.119-8.119A8.118,8.118,0,0,1,96.245,516.307Z" transform="translate(-80.006 -508.188)" fill="#00acc1"/>
        </g>
        <g id="Grupo_888452" data-name="Grupo 888452" transform="translate(40.774 178.834)">
          <path id="Trazado_622136" data-name="Trazado 622136" d="M67.911,500.008a8.118,8.118,0,1,1-8.122-8.119A8.119,8.119,0,0,1,67.911,500.008Z" transform="translate(-51.675 -491.889)" fill="#00acc1"/>
        </g>
        <g id="Grupo_888453" data-name="Grupo 888453" transform="translate(445.493 250.243)">
          <rect id="Rectángulo_296504" data-name="Rectángulo 296504" width="51.058" height="32.462" transform="translate(0 0)" fill="#f1b62b"/>
        </g>
        <g id="Grupo_888454" data-name="Grupo 888454" transform="translate(504.819 257.217)">
          <rect id="Rectángulo_296505" data-name="Rectángulo 296505" width="53.555" height="25.487" transform="translate(0 0)" fill="#616161"/>
        </g>
        <g id="Grupo_888455" data-name="Grupo 888455" transform="translate(562.868 262.342)">
          <rect id="Rectángulo_296506" data-name="Rectángulo 296506" width="53.652" height="20.362" transform="translate(0 0)" fill="#00acc1"/>
        </g>
      </g>
    </g>
  </g>
</svg>
