<svg xmlns="http://www.w3.org/2000/svg" xmlns:xlink="http://www.w3.org/1999/xlink" width="134" height="134" viewBox="0 0 134 134">
  <defs>
    <clipPath id="clip-path">
      <circle id="Elipse_6019" data-name="Elipse 6019" cx="67" cy="67" r="67" transform="translate(101 3.636)" fill="#f3f9ff"/>
    </clipPath>
    <linearGradient id="linear-gradient" x1="-29.043" y1="16.82" x2="-29.043" y2="15.809" gradientUnits="objectBoundingBox">
      <stop offset="0.006" stop-color="#bd9e3c"/>
      <stop offset="0.008" stop-color="#c5a643"/>
      <stop offset="0.013" stop-color="#d6b552"/>
      <stop offset="0.02" stop-color="#e2c05d"/>
      <stop offset="0.03" stop-color="#e9c763"/>
      <stop offset="0.056" stop-color="#ebc965"/>
      <stop offset="0.063" stop-color="#efd770"/>
      <stop offset="0.074" stop-color="#f4e87d"/>
      <stop offset="0.088" stop-color="#f8f487"/>
      <stop offset="0.108" stop-color="#fafb8c"/>
      <stop offset="0.163" stop-color="#fbfd8e"/>
      <stop offset="0.227" stop-color="#fafb8c"/>
      <stop offset="0.251" stop-color="#f9f585"/>
      <stop offset="0.267" stop-color="#f8ec79"/>
      <stop offset="0.28" stop-color="#f6de68"/>
      <stop offset="0.292" stop-color="#f4cc53"/>
      <stop offset="0.292" stop-color="#f4cc52"/>
      <stop offset="0.293" stop-color="#e6c04d"/>
      <stop offset="0.295" stop-color="#bd9b3f"/>
      <stop offset="0.297" stop-color="#977933"/>
      <stop offset="0.3" stop-color="#775c28"/>
      <stop offset="0.302" stop-color="#5c441e"/>
      <stop offset="0.305" stop-color="#463017"/>
      <stop offset="0.309" stop-color="#352111"/>
      <stop offset="0.313" stop-color="#29160d"/>
      <stop offset="0.32" stop-color="#22100b"/>
      <stop offset="0.337" stop-color="#210f0b"/>
      <stop offset="0.351" stop-color="#3c2610"/>
      <stop offset="0.372" stop-color="#614517"/>
      <stop offset="0.396" stop-color="#81611d"/>
      <stop offset="0.422" stop-color="#9c7823"/>
      <stop offset="0.452" stop-color="#b28b27"/>
      <stop offset="0.487" stop-color="#c3992a"/>
      <stop offset="0.53" stop-color="#cfa32d"/>
      <stop offset="0.591" stop-color="#d6a92e"/>
      <stop offset="0.758" stop-color="#d8ab2f"/>
      <stop offset="0.764" stop-color="#d8ab2f"/>
      <stop offset="0.798" stop-color="#d8ab2f"/>
      <stop offset="0.852" stop-color="#d6a92e"/>
      <stop offset="0.872" stop-color="#d0a22a"/>
      <stop offset="0.886" stop-color="#c69624"/>
      <stop offset="0.897" stop-color="#b7851c"/>
      <stop offset="0.904" stop-color="#a97514"/>
      <stop offset="0.914" stop-color="#ae8021"/>
      <stop offset="0.927" stop-color="#b2892d"/>
      <stop offset="0.947" stop-color="#b58f34"/>
      <stop offset="1" stop-color="#b69136"/>
    </linearGradient>
  </defs>
  <g id="Grupo_898332" data-name="Grupo 898332" transform="translate(-389 -3496)">
    <path id="Trazado_663039" data-name="Trazado 663039" d="M67,0A67,67,0,1,1,0,67,67,67,0,0,1,67,0Z" transform="translate(389 3496)" fill="#e8e8e8"/>
    <g id="Enmascarar_grupo_217" data-name="Enmascarar grupo 217" transform="translate(288 3492.364)" clip-path="url(#clip-path)">
      <g id="Grupo_887832" data-name="Grupo 887832" transform="translate(-113.952 -155.711)">
        <path id="Trazado_620001" data-name="Trazado 620001" d="M262.913,273.774l3.5,2.074-.008.541,8.514,5.728-1.983,4.035,21.289,16.1h86.9V202.459l-26.241-22.4-8.624-1-4.2-3.541-5.8-.262-1.356-1.12-1.82-1.478Z" transform="translate(-21.998 0)" fill="#25517b" opacity="0.27"/>
        <path id="Trazado_620002" data-name="Trazado 620002" d="M372.045,199.48a3.548,3.548,0,0,0-3.3-3.726l-6.981-.472c-.069-.008-.138-.014-.208-.018l-.35-.02h0l-71.554-4.015a3.606,3.606,0,0,0-3.8,3.4l-5.186,92.432a3.606,3.606,0,0,0,3.4,3.8l71.9,4.035a3.606,3.606,0,0,0,3.8-3.4l3.288-58.6,3.643.228a3.548,3.548,0,0,0,3.766-3.356Z" transform="translate(-37.502 -16.228)" fill="#fea621"/>
        <g id="Grupo_885813" data-name="Grupo 885813" transform="translate(243.56 176.128)" opacity="0.46">
          <path id="Trazado_620003" data-name="Trazado 620003" d="M338.316,200.206a3.588,3.588,0,0,0-1.93.436l6.162-.2Z" transform="translate(-329.763 -200.2)" fill="#9d570c"/>
          <path id="Trazado_620004" data-name="Trazado 620004" d="M330.44,299.907l26.741,1.209,4.31-96.485-64.825-2.5-6.162.2a3.6,3.6,0,0,0-1.872,2.963l-2.927,52.172L283.882,297.8Z" transform="translate(-283.882 -201.885)" fill="#9d570c"/>
          <path id="Trazado_620005" data-name="Trazado 620005" d="M330.44,299.907l26.741,1.209,4.31-96.485-64.825-2.5-6.162.2a3.6,3.6,0,0,0-1.872,2.963l-2.927,52.172L283.882,297.8Z" transform="translate(-283.882 -201.885)" fill="#9d570c" opacity="0.56"/>
        </g>
        <g id="Grupo_885814" data-name="Grupo 885814" transform="translate(240.785 176.987)" opacity="0.46">
          <path id="Trazado_620006" data-name="Trazado 620006" d="M269.745,218.76l-7.861.382,3.627,74.631,4.186-74.6A3.633,3.633,0,0,1,269.745,218.76Z" transform="translate(-261.884 -217.279)" fill="#9d570c"/>
          <path id="Trazado_620007" data-name="Trazado 620007" d="M360.473,208.987l-35.119-1.971L294.867,208.5a3.647,3.647,0,0,0-.048.417l-4.186,74.6,1.034,21.286a3.593,3.593,0,0,0,1.363.351l22.627,1.27,49.433-2.4Z" transform="translate(-287.006 -207.016)" fill="#9d570c"/>
        </g>
        <rect id="Rectángulo_296206" data-name="Rectángulo 296206" width="73.375" height="98.814" transform="matrix(0.999, -0.049, 0.049, 0.999, 239.608, 177.692)" fill="#fff"/>
        <g id="Grupo_885815" data-name="Grupo 885815" transform="translate(239.608 175.119)" opacity="0.69">
          <path id="Trazado_620008" data-name="Trazado 620008" d="M252.551,210l3.986,82.038,3.725-82.413Z" transform="translate(-252.551 -207.43)" fill="gray"/>
          <path id="Trazado_620009" data-name="Trazado 620009" d="M353.548,193.127l-20.435-.924-45.234,2.2-3.725,82.413.589,12.118,48.538,2.194,23.728-1.153.6-13.283Z" transform="translate(-280.167 -192.203)" fill="gray" opacity="0.7"/>
        </g>
        <g id="Grupo_885816" data-name="Grupo 885816" transform="translate(242.292 174.132)">
          <path id="Trazado_620010" data-name="Trazado 620010" d="M674.118,192.811l-8.039-.363,3.12,97.023-26.284.845,26.741,1.209Z" transform="translate(-596.357 -191.43)" fill="#fff"/>
          <path id="Trazado_620011" data-name="Trazado 620011" d="M343.553,185.4l-22.52-1.018-42.89,1.379-4.312,95.4,46.559,2.1,26.284-.845Z" transform="translate(-273.83 -184.379)" fill="#fff"/>
          <path id="Trazado_620012" data-name="Trazado 620012" d="M343.553,185.4l-22.52-1.018-42.89,1.379-4.312,95.4,46.559,2.1,26.284-.845Z" transform="translate(-273.83 -184.379)" fill="gray" opacity="0.46"/>
        </g>
        <g id="Grupo_885822" data-name="Grupo 885822" transform="translate(237.739 172.653)">
          <rect id="Rectángulo_296207" data-name="Rectángulo 296207" width="73.375" height="98.814" transform="translate(0 2.358) rotate(-1.842)" fill="#fff"/>
          <path id="Trazado_620013" data-name="Trazado 620013" d="M346.553,275.126l-60.6,1.948a.906.906,0,0,1-.935-.877v-.018a.906.906,0,0,1,.877-.935l60.6-1.948a.906.906,0,0,1,.935.877v.018A.906.906,0,0,1,346.553,275.126Z" transform="translate(-279.054 -260.6)" fill="#ccc"/>
          <path id="Trazado_620014" data-name="Trazado 620014" d="M318.587,314.637l-31.6,1.016a.906.906,0,0,1-.935-.877v-.018a.906.906,0,0,1,.877-.935l31.6-1.016a.906.906,0,0,1,.935.877v.018A.906.906,0,0,1,318.587,314.637Z" transform="translate(-279.957 -295.127)" fill="#ccc"/>
          <path id="Trazado_620015" data-name="Trazado 620015" d="M338.146,340.991l-50.16,1.613a.906.906,0,0,1-.935-.877v-.018a.906.906,0,0,1,.877-.935l50.16-1.613a.906.906,0,0,1,.935.877v.018A.906.906,0,0,1,338.146,340.991Z" transform="translate(-280.83 -318.156)" fill="#ccc"/>
          <rect id="Rectángulo_296208" data-name="Rectángulo 296208" width="62.442" height="1.838" rx="0.919" transform="translate(6.317 26.548) rotate(-1.842)" fill="#ccc"/>
          <path id="Rectángulo_296209" data-name="Rectángulo 296209" d="M.919,0h60.6a.919.919,0,0,1,.919.919v0a.919.919,0,0,1-.919.919H.919A.919.919,0,0,1,0,.919v0A.919.919,0,0,1,.919,0Z" transform="matrix(0.999, -0.032, 0.032, 0.999, 6.448, 30.616)" fill="#ccc"/>
          <path id="Trazado_620016" data-name="Trazado 620016" d="M351.617,432.719l-60.591,1.948a.91.91,0,0,1-.939-.88v-.018a.91.91,0,0,1,.88-.939l60.591-1.948a.91.91,0,0,1,.939.88v.018A.91.91,0,0,1,351.617,432.719Z" transform="translate(-283.483 -398.307)" fill="#ccc"/>
          <path id="Rectángulo_296210" data-name="Rectángulo 296210" d="M.919,0H41.24a.919.919,0,0,1,.919.919v0a.919.919,0,0,1-.919.919H.919A.919.919,0,0,1,0,.919v0A.919.919,0,0,1,.919,0Z" transform="translate(6.704 38.581) rotate(-1.842)" fill="#ccc"/>
          <path id="Trazado_620017" data-name="Trazado 620017" d="M354.6,525.435l-60.591,1.948a.91.91,0,0,1-.939-.88v-.033a.91.91,0,0,1,.88-.939l60.591-1.948a.91.91,0,0,1,.939.88v.033A.91.91,0,0,1,354.6,525.435Z" transform="translate(-286.088 -479.314)" fill="#ccc"/>
          <path id="Trazado_620018" data-name="Trazado 620018" d="M355.643,557.947l-60.591,1.948a.91.91,0,0,1-.939-.88v-.033a.91.91,0,0,1,.88-.938l60.591-1.948a.91.91,0,0,1,.938.88v.034A.91.91,0,0,1,355.643,557.947Z" transform="translate(-287.001 -507.725)" fill="#ccc"/>
          <path id="Trazado_620019" data-name="Trazado 620019" d="M316.41,708.56l-17.647.567a.728.728,0,0,1-.751-.7v-.015a.728.728,0,0,1,.7-.751l17.647-.567a.728.728,0,0,1,.752.7v.015A.729.729,0,0,1,316.41,708.56Z" transform="translate(-290.408 -639.672)" fill="#ccc"/>
          <path id="Trazado_620020" data-name="Trazado 620020" d="M314.843,734.991l-15.249.49a.728.728,0,0,1-.752-.7v-.015a.729.729,0,0,1,.7-.752l15.249-.49a.728.728,0,0,1,.752.7v.015A.728.728,0,0,1,314.843,734.991Z" transform="translate(-291.133 -662.769)" fill="#ccc"/>
          <path id="Trazado_620021" data-name="Trazado 620021" d="M657.969,697.577l-17.647.568a.729.729,0,0,1-.752-.7v-.015a.728.728,0,0,1,.7-.751l17.647-.567a.728.728,0,0,1,.752.7v.015A.728.728,0,0,1,657.969,697.577Z" transform="translate(-588.881 -630.075)" fill="#ccc"/>
          <path id="Trazado_620022" data-name="Trazado 620022" d="M652.553,724.99l-11.4.367a.728.728,0,0,1-.751-.7v-.015a.728.728,0,0,1,.7-.752l11.4-.366a.728.728,0,0,1,.751.7v.015A.728.728,0,0,1,652.553,724.99Z" transform="translate(-589.606 -654.029)" fill="#ccc"/>
          <path id="Rectángulo_296211" data-name="Rectángulo 296211" d="M.927,0H40.476A.926.926,0,0,1,41.4.926v0a.927.927,0,0,1-.927.927H.927A.927.927,0,0,1,0,.927v0A.927.927,0,0,1,.927,0Z" transform="matrix(0.999, -0.032, 0.032, 0.999, 7.21, 54.316)" fill="#ccc"/>
          <path id="Trazado_620023" data-name="Trazado 620023" d="M353.681,496.9l-60.591,1.948a.91.91,0,0,1-.939-.88v-.018a.91.91,0,0,1,.88-.939l60.591-1.948a.91.91,0,0,1,.939.88v.018A.91.91,0,0,1,353.681,496.9Z" transform="translate(-285.286 -454.392)" fill="#ccc"/>
          <g id="Grupo_885819" data-name="Grupo 885819" transform="translate(48.867 74.921)">
            <g id="Grupo_885818" data-name="Grupo 885818">
              <path id="Trazado_620024" data-name="Trazado 620024" d="M747.282,797.452l-.041.013.056-.012Z" transform="translate(-731.836 -793.557)" fill="#5573b4"/>
              <g id="Grupo_885817" data-name="Grupo 885817">
                <path id="Trazado_620025" data-name="Trazado 620025" d="M642.943,770.485c-.469-.965-2.438-1-3.324-.959a27.13,27.13,0,0,0-5.423,1.01.427.427,0,0,0-.481.115l-.165.088a.231.231,0,0,0-.084-.081.439.439,0,0,0-.531-.212,2.656,2.656,0,0,0-.712.4,2.8,2.8,0,0,0-.237.246c.063-.21.237-.806.294-1.023.1-.387-.866-.45-.986-.133-.041.109-.235.616-.315.821l-.1.263a3.249,3.249,0,0,1-.194.345,2.559,2.559,0,0,0-.132-.8.488.488,0,0,0-.059-.109c-.08-.27-.225-.364-.423-.311a.354.354,0,0,0-.166.131,7.936,7.936,0,0,0,.04-2.63.446.446,0,0,0-.036-.107,5.341,5.341,0,0,0,.057-.558l.011-.021a.244.244,0,0,0-.083-.329.224.224,0,0,0-.356.12h0a31.628,31.628,0,0,1-2.5,3.224c-.337.394-.662.761-.943,1.058-.109.1-.219.208-.323.317a.518.518,0,0,0-.042.054,1.639,1.639,0,0,1-.438.342.244.244,0,0,0,.149.464h0a1.456,1.456,0,0,1,.64-.076.43.43,0,0,0,.373-.143c.612-.643,1.313-1.19,1.938-1.821a5.788,5.788,0,0,0,.711-.908c-.056.736-.217,1.471-.3,2.2-.018.167-.027.335-.034.5-.1.715-.189,1.405-.259,2a3.7,3.7,0,0,0-.109.694.373.373,0,0,0,.032.166.192.192,0,0,0,.077.119.465.465,0,0,0,.7.02,5.072,5.072,0,0,0,.674-1.821c.047-.162.095-.322.143-.482a.437.437,0,0,0,.42.074,1.939,1.939,0,0,0,.582-.385.482.482,0,0,0,.359.159,1.614,1.614,0,0,0,1.13-.638.249.249,0,0,0,.16.069h0a.346.346,0,0,0,.1,0c.3-.011,1.209-.073,1.39-.432a.54.54,0,0,0,.118-.016c1.329-.345,2.654-.642,4.026-.86a8.288,8.288,0,0,1,2.25-.145c.129-.04.273-.083.014,0-.215.063-.156.043-.056.012-1.285.258-4.182,1.094-5.464,1.54-.582.2-1.164.42-1.731.653a6.429,6.429,0,0,0-1.627.76.443.443,0,0,0-.2.513c.018.387.349.522.781.325,2.4-1.094,1.036-.486,3.234-1.388,1.2-.493,2.56-.832,3.8-1.211a9.993,9.993,0,0,1,1.727-.364c.741-.094,1.1-.031,1.638-.132C643.011,771.122,643.06,770.727,642.943,770.485Z" transform="translate(-625.122 -766.579)" fill="#5573b4"/>
              </g>
            </g>
          </g>
          <g id="Grupo_885821" data-name="Grupo 885821" transform="translate(12.106 75.886)">
            <g id="Grupo_885820" data-name="Grupo 885820">
              <path id="Trazado_620026" data-name="Trazado 620026" d="M345.077,776.594a3.838,3.838,0,0,1-1.208-1.155,3.838,3.838,0,0,1-1.466-.8,3.836,3.836,0,0,1-1.624-.4,3.834,3.834,0,0,1-1.671.038,3.839,3.839,0,0,1-1.6.469,3.839,3.839,0,0,1-1.429.868,3.836,3.836,0,0,1-1.155,1.208,3.836,3.836,0,0,1-.8,1.466,3.835,3.835,0,0,1-.4,1.624,3.832,3.832,0,0,1,.038,1.671,3.837,3.837,0,0,1,.469,1.6,3.834,3.834,0,0,1,.868,1.429,3.835,3.835,0,0,1,1.208,1.155,3.839,3.839,0,0,1,1.466.8,3.836,3.836,0,0,1,1.624.4,3.836,3.836,0,0,1,1.671-.038,3.837,3.837,0,0,1,1.6-.469,3.833,3.833,0,0,1,1.429-.868,3.837,3.837,0,0,1,1.155-1.208,3.836,3.836,0,0,1,.8-1.466,3.837,3.837,0,0,1,.4-1.624,3.833,3.833,0,0,1-.038-1.671,3.836,3.836,0,0,1-.469-1.6,3.837,3.837,0,0,1-.868-1.429Zm-1.438,8.434a5.673,5.673,0,1,1,.868-7.976A5.673,5.673,0,0,1,343.639,785.028Z" transform="translate(-333.706 -774.227)" fill="#cfd4dc"/>
              <path id="Trazado_620027" data-name="Trazado 620027" d="M344.316,784.028a5.29,5.29,0,1,0,7.437.809A5.29,5.29,0,0,0,344.316,784.028Zm5.736,7.137a3.867,3.867,0,1,1,.592-5.437A3.867,3.867,0,0,1,350.052,791.165Z" transform="translate(-341.251 -781.772)" fill="#cfd4dc"/>
              <path id="Trazado_620028" data-name="Trazado 620028" d="M360.017,800.136a2.091,2.091,0,0,1,2.2-.264l.977-.785a3.265,3.265,0,0,0-4.884,3.925l.977-.785A2.092,2.092,0,0,1,360.017,800.136Z" transform="translate(-354.99 -795.44)" fill="#cfd4dc"/>
              <path id="Trazado_620029" data-name="Trazado 620029" d="M372.992,818.21a2.092,2.092,0,0,1-2.2.264l-.977.785a3.265,3.265,0,0,0,4.884-3.925l-.977.785A2.092,2.092,0,0,1,372.992,818.21Z" transform="translate(-365.261 -810.148)" fill="#cfd4dc"/>
            </g>
          </g>
        </g>
        <path id="Trazado_620030" data-name="Trazado 620030" d="M820.072,185.791v-.961l-.568.028.03.933Z" transform="translate(-508.378 -10.641)" fill="gray" opacity="0.29"/>
        <g id="Grupo_885823" data-name="Grupo 885823" transform="translate(250.045 234.768)" opacity="0.61" style="mix-blend-mode: multiply;isolation: isolate">
          <path id="Trazado_620031" data-name="Trazado 620031" d="M550.572,811.343h0Z" transform="translate(-523.415 -792.891)" fill="#333"/>
          <path id="Trazado_620032" data-name="Trazado 620032" d="M570.32,738.1l-.03-.019h0l.092.059,1.483.956h0l.26.168.031.02h0Z" transform="translate(-540.646 -728.869)" fill="#333"/>
          <path id="Trazado_620033" data-name="Trazado 620033" d="M523.873,855.189h0C523.85,855.173,523.873,855.189,523.873,855.189Z" transform="translate(-500.075 -831.2)" fill="#333"/>
          <path id="Trazado_620034" data-name="Trazado 620034" d="M528.164,803.861l.067.043-.067-.043Z" transform="translate(-503.833 -786.353)" fill="#333"/>
          <path id="Trazado_620035" data-name="Trazado 620035" d="M340.785,988.708l-.648,1-.482.748,0,0,0,0-.007.011-.011-.007,0,.006h0c-.006.019-.069.125-.2.341-.114.188-.25.412-.353.587-.145.244-.335.571-.477.816-.064.109-.143.248-.212.369-.283.486-.62,1.067-1.017,1.757a25.047,25.047,0,0,0-1.918,3.968l-.024-.016,0,.008h0a.9.9,0,0,0-.06.114l-.011.025a.884.884,0,0,0-.04.117l0,.015a.885.885,0,0,0-.02.115c0,.005,0,.01,0,.016a.911.911,0,0,0,0,.126s0,.009,0,.014a.9.9,0,0,0,.055.254l0,.006a.891.891,0,0,0,.134.235,1.071,1.071,0,0,0-.033.12l0,.022a.979.979,0,0,0-.016.115c0,.006,0,.013,0,.019a.86.86,0,0,0,0,.106s0,.008,0,.012a.787.787,0,0,0,.016.106l.005.021a.68.68,0,0,0,.032.1l.005.011a.6.6,0,0,0,.044.082l.009.015a.545.545,0,0,0,.062.075l.015.014a.535.535,0,0,0,.079.063h0l.97.616h0l.97.616a.734.734,0,0,0,.886-.181.9.9,0,0,0,.962-.391l0-.008-.032-.02c.076-.069.164-.155.263-.259.076-.081.159-.172.247-.272.478-.523,1.215-1.4,2.292-2.849,1.021-1.376,1.671-2.3,2.063-2.879l.146-.211c.149-.215.278-.406.382-.566l.482-.748,2.975-4.613-1.551-.039Z" transform="translate(-335.288 -947.629)" fill="#333" opacity="0.54"/>
          <path id="Trazado_620036" data-name="Trazado 620036" d="M409.01,665.148a.359.359,0,0,0-.044-.029.365.365,0,0,0-.031-.021l-.026-.013a.112.112,0,0,0-.144.023h0a3.028,3.028,0,0,1-.434.338c-.2.13-.434.263-.734.42l-.173.09c-.24.124-.517.264-.84.427l-.251.127c-.059.031-.114.061-.168.092l-.037.021c-.052.03-.1.06-.149.09l0,0,0,0c-.047.031-.092.061-.135.092l-.028.02-.08.06-.044.034-.005,0-.074.061-.034.031-.021.019c-.033.03-.065.06-.095.09l0,0,0,0-.005.006c-.03.03-.058.061-.085.092h0l-.015.017-.049.058-.032.04,0,.006c-.022.029-.043.057-.062.086l-.006.009-.01.015c-.02.03-.04.06-.059.09l-.006.011,0,.006q-.029.048-.055.1l0,0-.006.011-.028.054-.026.051,0,0-.008.017-.041.089v0c-.035.08-.068.16-.1.241s-.057.149-.086.224l-.01.026c-.017.044-.034.088-.052.132l0,.008c-.019.047-.038.093-.058.14l0,.005c-.021.048-.043.1-.066.144-.681,1.429-1.85,3.4-2.132,3.873l-.06.1h0l-.466-.3-.208-.141a.141.141,0,0,0-.051-.022h-.015a.121.121,0,0,0-.026.006.07.07,0,0,0-.021.014.155.155,0,0,0-.017.021l0,0v0a.221.221,0,0,0-.019.041.476.476,0,0,0-.023.107,2.665,2.665,0,0,1-.26.63h0c-.021.031-.119.174-.311.448l-.26.371-.162.23-.089.126-.195.276-.218.307-.241.339-.265.371-.6.843-.34.473h0q-.176.245-.341.47a22.556,22.556,0,0,1-2.5,3.025h0l0,0h0l-.006.008h0c-.014.022-.03.045-.046.068-.1.141-.234.295-.336.436-.019.026-.036.051-.053.076h0l-.662.974s-1.687,2.527-2.553,3.776l-.725,1-8.751,13.57-.089.139-.061.094-.25.388-3.344,5.186,5.972-.29,1.551.039,1.02-1.582h0l.147-.228,9-13.957h0l.611-1.072s-.024-.016,0,0h0c.781-1.3,2.385-3.885,2.387-3.883h0l.614-1s0,0,0,0l.357-.649h0c0-.008.011-.033.026-.076l.029-.079.042-.108.026-.064.034-.084.065-.154q.039-.091.086-.2t.1-.228c.094-.2.207-.44.342-.712q.078-.156.166-.328l.1-.2.1-.193c.176-.333.377-.7.608-1.113q.13-.232.273-.48l.007-.012.3-.515.385-.667.01-.017c.744-1.286,1.216-2.083,1.456-2.487l.038-.064.141-.235.015-.024-.031-.02-.26-.168h0l-1.483-.956-.092-.059h0l.03.019,1.837,1.185h0a2.676,2.676,0,0,1,.467-.5l.025-.015.026-.018a.315.315,0,0,0,.025-.02.222.222,0,0,0,.023-.022.187.187,0,0,0,.018-.024.11.11,0,0,0,.012-.024.078.078,0,0,0,0-.025.064.064,0,0,0-.006-.026.092.092,0,0,0-.017-.026.158.158,0,0,0-.031-.025h0l-.729-.471h0s1.561-2.231,2.728-3.615c.551-.663,1.206-.992,1.344-2.352,0-.012,0-.024,0-.036.006-.062.011-.125.015-.191v0c.031-.679.05-1.191.078-1.6.008-.117.017-.225.026-.326s.021-.2.034-.284a3.1,3.1,0,0,1,.137-.585.123.123,0,0,0,.01-.038A.128.128,0,0,0,409.01,665.148Zm-13.264,15.291.01.006Zm1.95,2.137h0l.067.043Zm2.4.671.131.085Z" transform="translate(-373.365 -665.068)" fill="#333" opacity="0.52"/>
        </g>
        <g id="Grupo_885837" data-name="Grupo 885837" transform="translate(249.85 233.131)">
          <g id="Grupo_885836" data-name="Grupo 885836" transform="translate(0 0)">
            <g id="Grupo_885833" data-name="Grupo 885833" transform="translate(0 0.001)">
              <g id="Grupo_885826" data-name="Grupo 885826" transform="translate(21.93)">
                <path id="Trazado_620037" data-name="Trazado 620037" d="M564.842,660.587c-.066-.038-.7-.471-1.151-.76,0,0,1.416-2.344,2.2-3.978.1-.2.167-.392.241-.585a2.766,2.766,0,0,1,1.524-1.726,11.082,11.082,0,0,0,2.432-1.4c.077-.085.177-.007.2.011s.139.074.093.18a11.075,11.075,0,0,0-.275,2.794,2.768,2.768,0,0,1-.944,2.1c-.145.146-.293.292-.433.46-1.167,1.384-2.718,3.641-2.718,3.641C565.656,661.095,564.9,660.632,564.842,660.587Z" transform="translate(-556.614 -652.097)" fill="url(#linear-gradient)"/>
                <path id="Trazado_620038" data-name="Trazado 620038" d="M559.1,712.262l-.023.022c-.008.007-.017.014-.025.02l-.026.018-.025.015a2.683,2.683,0,0,0-.467.5h0l-1.837-1.185-1.774-1.144a2.661,2.661,0,0,0,.26-.63.484.484,0,0,1,.023-.107.217.217,0,0,1,.02-.041.187.187,0,0,1,.017-.021.075.075,0,0,1,.021-.014l.026-.005h.015a.145.145,0,0,1,.051.022l1.831,1.181,1.9,1.222h0a.15.15,0,0,1,.031.025.088.088,0,0,1,.017.026.064.064,0,0,1,.006.026.075.075,0,0,1,0,.025.117.117,0,0,1-.012.024A.228.228,0,0,1,559.1,712.262Z" transform="translate(-548.948 -702.422)" fill="#112845"/>
                <g id="Grupo_885825" data-name="Grupo 885825" transform="translate(0 15.366)">
                  <g id="Grupo_885824" data-name="Grupo 885824">
                    <path id="Trazado_620039" data-name="Trazado 620039" d="M507.588,774.5l2.394,1.544,2.477,1.6h0l.357-.649h0l-2.433-1.569-2.351-1.516C507.912,774.091,507.708,774.312,507.588,774.5Z" transform="translate(-507.588 -773.905)" fill="#e8e3d9"/>
                  </g>
                </g>
                <path id="Trazado_620040" data-name="Trazado 620040" d="M515.891,726.549h0l-.011-.007-.035-.022h0l-.246-.158h0l-1.311-.846c-.576-.367-2.013-1.284-2.1-1.357l-1.029-.664-.049-.031h0a22.554,22.554,0,0,0,2.5-3.025q.165-.225.341-.47h0l.34-.473.6-.843.265-.371.241-.339.218-.307.195-.276.089-.126.162-.23.26-.371c.2-.288.3-.433.314-.453h0l.959.618.022.015.854.551,1.483.956h0l.26.168.031.02-.014.024-.141.235-.038.064c-.241.4-.712,1.2-1.456,2.487l-.01.017-.385.667-.3.515-.007.012q-.143.249-.273.48c-.231.41-.432.781-.608,1.113l-.1.193-.1.2q-.088.172-.166.328c-.136.272-.249.508-.342.712q-.056.122-.1.228c-.031.071-.06.136-.086.2s-.045.107-.065.154l-.034.084-.026.064-.042.107-.029.079c-.016.043-.024.069-.026.076Z" transform="translate(-510.663 -708.098)" fill="#112845"/>
                <path id="Trazado_620041" data-name="Trazado 620041" d="M563.74,659.817s1.41-2.334,2.189-3.968c.4-.818.382-1.591,1.765-2.311a11.081,11.081,0,0,0,2.432-1.4c.077-.085.177-.007.2.011s.139.074.093.18a11.07,11.07,0,0,0-.275,2.794c-.085,1.556-.781,1.883-1.363,2.582-1.167,1.384-2.728,3.615-2.728,3.615-.353-.228-1.109-.685-1.171-.73S564.188,660.106,563.74,659.817Z" transform="translate(-556.657 -652.097)" fill="#e8e3d9"/>
                <path id="Trazado_620042" data-name="Trazado 620042" d="M592.418,684.5a.271.271,0,1,0-.081-.375A.271.271,0,0,0,592.418,684.5Z" transform="translate(-581.609 -679.976)" fill="#2d6597"/>
                <path id="Trazado_620043" data-name="Trazado 620043" d="M597.109,652.494l-2.722,4.219.026.021,2.71-4.233Z" transform="translate(-583.438 -652.444)" fill="#2d6597"/>
              </g>
              <path id="Trazado_620044" data-name="Trazado 620044" d="M357.559,787.707h0l.611-1.072s-.024-.015,0,0h0c.781-1.3,2.385-3.885,2.387-3.883h0l.614-1h0l-2.477-1.6L356.3,778.6l-.662.974s-1.687,2.527-2.553,3.776l-.725,1-13.144,20.38-.482.748.008.005-.008-.005-.01.016-.011-.007c-.006.019-.069.125-.2.341-.114.188-.25.412-.353.587-.145.244-.335.571-.477.816l-.212.369c-.283.485-.62,1.067-1.017,1.757-1.922,3.478-1.96,4.172-2,4.233l.023.015a1.214,1.214,0,0,0,.015.313,2.082,2.082,0,0,0,.094.32,2.243,2.243,0,0,0,.155.3,2.367,2.367,0,0,0,.2.273c.032.038.074.089.107.125.065.069.153.159.221.225a4.474,4.474,0,0,0,.6.471l.067.042.063.037c.024.014.057.031.08.046.059.033.129.069.207.108s.165.078.258.116.206.078.3.109a3.089,3.089,0,0,0,.321.084,2.271,2.271,0,0,0,.334.044,1.724,1.724,0,0,0,.335-.012,1.384,1.384,0,0,0,.323-.085,1.221,1.221,0,0,0,.131-.064l.03.019c.01-.014.065-.059.173-.161a4.088,4.088,0,0,0,.317-.307c.076-.081.159-.172.247-.271.478-.523,1.215-1.4,2.292-2.849,1.021-1.376,1.671-2.3,2.063-2.879l.146-.211c.149-.215.278-.406.382-.566l.482-.748Zm-18.3,17.056-.039-.025Z" transform="translate(-334.369 -762.647)" fill="#112845"/>
              <path id="Trazado_620045" data-name="Trazado 620045" d="M338.11,1062.013l-3.092-1.964,0,.008a.811.811,0,0,0,.1,1.122l1.94,1.232a.811.811,0,0,0,1.056-.39Z" transform="translate(-334.701 -1008.588)" fill="#e8e3d9"/>
              <path id="Trazado_620046" data-name="Trazado 620046" d="M337.938,993.63a.9.9,0,0,1-1.235.276l-2.546-1.617a.9.9,0,0,1-.276-1.235l0-.008,2.252,1.43,6.658-10.482.643.408-6.658,10.483,1.162.738Z" transform="translate(-333.742 -940.378)" fill="#e8e3d9"/>
              <g id="Grupo_885827" data-name="Grupo 885827" transform="translate(8.842 35.272)">
                <path id="Trazado_620047" data-name="Trazado 620047" d="M403.834,932.329l2.554,1.647,2.645,1.706h0l.4-.621h0l-2.644-1.705-2.554-1.647Z" transform="translate(-403.834 -931.708)" fill="#e8e3d9"/>
              </g>
              <g id="Grupo_885828" data-name="Grupo 885828" transform="translate(2.399 41.615)">
                <rect id="Rectángulo_296212" data-name="Rectángulo 296212" width="12.412" height="0.381" transform="translate(0 10.477) rotate(-57.579)" fill="#ccc"/>
              </g>
              <g id="Grupo_885829" data-name="Grupo 885829" transform="translate(0.172 7.259)" opacity="0.51">
                <path id="Trazado_620048" data-name="Trazado 620048" d="M570.352,726.073h0l-1.483-.956-.092-.06h0l.03.019Z" transform="translate(-539.301 -723.113)" fill="#3b489e"/>
                <path id="Trazado_620049" data-name="Trazado 620049" d="M511.183,723.453l-.049-.031h0a22.535,22.535,0,0,0,2.5-3.024q.165-.225.342-.47h0l.34-.473.6-.843.265-.371.241-.339.218-.307.195-.276.089-.126.162-.23.261-.371c.2-.288.3-.433.314-.453h0l.959.618.022.015.761.491-4.918,7.68c-.59-.378-1.216-.78-1.275-.828Z" transform="translate(-488.929 -715.32)" fill="#3b489e"/>
                <path id="Trazado_620050" data-name="Trazado 620050" d="M554.946,710.463a2.663,2.663,0,0,0,.26-.631.485.485,0,0,1,.023-.107.241.241,0,0,1,.02-.041.161.161,0,0,1,.017-.021.073.073,0,0,1,.021-.014l.026-.005h.015a.142.142,0,0,1,.051.022s.786.54,1.789,1.187l-.477.734Z" transform="translate(-527.214 -709.644)" fill="#3b489e"/>
                <path id="Trazado_620051" data-name="Trazado 620051" d="M335.107,951.415a25.065,25.065,0,0,1,1.918-3.968c.4-.69.734-1.271,1.017-1.757l.212-.369c.142-.245.333-.572.477-.816.1-.175.239-.4.353-.587.128-.216.19-.322.2-.341l.011.007.01-.016.482-.748,3.992-6.19,2.63,1.7c.025.016-.028-.007,0,0l-9.226,14.406Z" transform="translate(-335.107 -907.997)" fill="#3b489e"/>
                <path id="Trazado_620052" data-name="Trazado 620052" d="M409.563,799.529l-2.554-1.647,8.751-13.57.725-1c.865-1.249,2.553-3.776,2.553-3.776l.662-.974,2.393,1.543.008.005-12.467,19.463Z" transform="translate(-397.939 -769.869)" fill="#3b489e"/>
              </g>
              <g id="Grupo_885831" data-name="Grupo 885831" transform="translate(21.93 15.374)">
                <g id="Grupo_885830" data-name="Grupo 885830">
                  <path id="Trazado_620053" data-name="Trazado 620053" d="M509.976,776.106c-1.307-.843-2.388-1.552-2.388-1.552.12-.186.318-.4.438-.585l2.351,1.516h0l-.395.613C509.967,776.088,509.991,776.115,509.976,776.106Z" transform="translate(-507.588 -773.969)" fill="#ccc"/>
                </g>
              </g>
              <g id="Grupo_885832" data-name="Grupo 885832" transform="translate(8.842 35.272)">
                <path id="Trazado_620054" data-name="Trazado 620054" d="M406.393,933.979l-2.559-1.65.4-.621,2.559,1.65.066.043-.4.623Z" transform="translate(-403.834 -931.708)" fill="#ccc"/>
              </g>
            </g>
            <g id="Grupo_885834" data-name="Grupo 885834" transform="translate(0 50.669)">
              <path id="Trazado_620055" data-name="Trazado 620055" d="M336.389,1063.038l-.31.488-.97-.616a.733.733,0,0,1-.213-.879.89.89,0,0,0,.22.2Z" transform="translate(-334.702 -1060.987)" fill="#ccc"/>
              <path id="Trazado_620056" data-name="Trazado 620056" d="M334.061,1054.549l0,.008a1.158,1.158,0,0,0-.117.242.9.9,0,0,1-.055-1.036l0-.008,2.028,1.288-.31.488Z" transform="translate(-333.745 -1053.755)" fill="#ccc"/>
              <path id="Trazado_620057" data-name="Trazado 620057" d="M335.41,1060.049l1.546.982-.175.275-1.273-.808a.887.887,0,0,1-.22-.2,1.146,1.146,0,0,1,.117-.242Z" transform="translate(-335.093 -1059.255)" fill="#ccc"/>
            </g>
            <g id="Grupo_885835" data-name="Grupo 885835" transform="translate(29.01)" opacity="0.5">
              <path id="Trazado_620058" data-name="Trazado 620058" d="M567.365,656.236a.278.278,0,0,0,.069.37h0l-2.6,3.951.033.02c-.066-.038-.7-.476-1.148-.765,0,0,1.413-2.339,2.192-3.972.4-.818.382-1.591,1.765-2.311a11.073,11.073,0,0,0,2.432-1.4c.076-.084.161-.016.2.011l-1.2,1.852-1.386,2.158A.277.277,0,0,0,567.365,656.236Z" transform="translate(-563.717 -652.086)" fill="#b3b3b3"/>
            </g>
          </g>
        </g>
      </g>
    </g>
  </g>
</svg>
