<svg xmlns="http://www.w3.org/2000/svg" width="51" height="51" viewBox="0 0 51 51">
  <g id="Grupo_898347" data-name="Grupo 898347" transform="translate(-382.795 -2131)">
    <circle id="Elipse_5168" data-name="Elipse 5168" cx="25.5" cy="25.5" r="25.5" transform="translate(382.795 2131)" fill="#222b5a"/>
    <path id="Icon_awesome-eye" data-name="Icon awesome-eye" d="M32.264,14.5A18.075,18.075,0,0,0,16.23,4.5,18.078,18.078,0,0,0,.2,14.5a1.823,1.823,0,0,0,0,1.645,18.075,18.075,0,0,0,16.034,10,18.078,18.078,0,0,0,16.034-10A1.823,1.823,0,0,0,32.264,14.5ZM16.23,23.435a8.115,8.115,0,1,1,8.115-8.115A8.115,8.115,0,0,1,16.23,23.435Zm0-13.525a5.371,5.371,0,0,0-1.426.214,2.7,2.7,0,0,1-3.77,3.77,5.4,5.4,0,1,0,5.2-3.984Z" transform="translate(392.756 2141.181)" fill="#fff"/>
  </g>
</svg>
