<svg xmlns="http://www.w3.org/2000/svg" width="228.612" height="226.478" viewBox="0 0 228.612 226.478">
  <g id="Grupo_896295" data-name="Grupo 896295" transform="translate(505.124 -185.035)">
    <g id="OBJECTS" transform="translate(-525 162.502)">
      <g id="Grupo_888760" data-name="Grupo 888760" transform="translate(19.876 22.533)">
        <g id="Grupo_888623" data-name="Grupo 888623">
          <path id="Trazado_622350" data-name="Trazado 622350" d="M51.5,46.252C18.357,70.486,19.179,125.685,20.224,164.317c.392,14.489,1.863,29.412,8.695,42.2,11.9,22.262,37.768,33.613,62.76,37.148s50.48.894,75.6,3.348c9.589.937,19.2,2.617,28.8,1.77s19.473-4.656,25.053-12.51c4.135-5.82,5.452-13.1,7.656-19.891,5.9-18.172,18.823-34.756,18.166-53.85-.509-14.813-9.313-28.533-9.056-43.353.264-15.2,9.981-30.782,3.961-44.746-5.832-13.528-22.7-17.26-35.919-23.76-17.359-8.534-31.514-24.416-50.6-27.555-13.53-2.225-27.1,2.431-40.493,5.352-15.173,3.309-30.836,4.44-45.675,9.02A59.287,59.287,0,0,0,51.5,46.252Z" transform="translate(-19.876 -22.533)" fill="#d0dade"/>
        </g>
        <g id="Grupo_888759" data-name="Grupo 888759" transform="translate(2.988 3.798)">
          <g id="Grupo_888624" data-name="Grupo 888624" transform="translate(18.522 30.092)">
            <rect id="Rectángulo_296518" data-name="Rectángulo 296518" width="111.097" height="151.216" transform="matrix(0.988, -0.156, 0.156, 0.988, 0, 17.369)" fill="#b0c0d2"/>
          </g>
          <g id="Grupo_888625" data-name="Grupo 888625" transform="translate(55.102 40.997)">
            <rect id="Rectángulo_296519" data-name="Rectángulo 296519" width="111.097" height="151.216" transform="translate(34.375 0) rotate(13.14)" fill="#f1b62b"/>
          </g>
          <g id="Grupo_888706" data-name="Grupo 888706" transform="translate(39.545 13.308)">
            <g id="Grupo_888687" data-name="Grupo 888687" transform="translate(0 20.761)">
              <g id="Grupo_888629" data-name="Grupo 888629">
                <g id="Grupo_888626" data-name="Grupo 888626">
                  <rect id="Rectángulo_296520" data-name="Rectángulo 296520" width="124.527" height="162.942" rx="6.789" transform="matrix(0.999, 0.051, -0.051, 0.999, 8.235, 0)" fill="#315359"/>
                </g>
                <g id="Grupo_888627" data-name="Grupo 888627" transform="translate(9.07 8.772)">
                  <rect id="Rectángulo_296521" data-name="Rectángulo 296521" width="111.097" height="151.216" transform="matrix(0.999, 0.051, -0.051, 0.999, 7.642, 0)" fill="#1e3d44"/>
                </g>
                <g id="Grupo_888628" data-name="Grupo 888628" transform="translate(7.003 6.195)">
                  <rect id="Rectángulo_296522" data-name="Rectángulo 296522" width="111.097" height="151.216" transform="matrix(0.999, 0.051, -0.051, 0.999, 7.642, 0)" fill="#fff"/>
                </g>
              </g>
              <g id="Grupo_888654" data-name="Grupo 888654" transform="translate(22.109 19.949)">
                <g id="Grupo_888640" data-name="Grupo 888640">
                  <g id="Grupo_888630" data-name="Grupo 888630">
                    <rect id="Rectángulo_296523" data-name="Rectángulo 296523" width="32.095" height="33.603" transform="matrix(0.999, 0.051, -0.051, 0.999, 1.698, 0)" fill="#cbd3f9"/>
                  </g>
                  <g id="Grupo_888639" data-name="Grupo 888639" transform="translate(1.254 3.899)">
                    <g id="Grupo_888631" data-name="Grupo 888631" transform="translate(0 18.904)">
                      <path id="Rectángulo_296524" data-name="Rectángulo 296524" d="M10.835,0h7.792A10.835,10.835,0,0,1,29.463,10.835v0a0,0,0,0,1,0,0H0a0,0,0,0,1,0,0v0A10.835,10.835,0,0,1,10.835,0Z" transform="matrix(0.999, 0.051, -0.051, 0.999, 0.548, 0)" fill="#44457b"/>
                    </g>
                    <g id="Grupo_888634" data-name="Grupo 888634" transform="translate(8.709 1.681)">
                      <g id="Grupo_888632" data-name="Grupo 888632">
                        <path id="Trazado_622351" data-name="Trazado 622351" d="M184.918,157.95c-.224,4.426-3.575,9.3-7.4,9.1s-6.663-5.376-6.439-9.8,3.43-6.418,7.25-6.225S185.142,153.524,184.918,157.95Z" transform="translate(-171.071 -151.012)" fill="#e8a68b"/>
                      </g>
                      <g id="Grupo_888633" data-name="Grupo 888633" transform="translate(3.39 13.842)">
                        <path id="Rectángulo_296525" data-name="Rectángulo 296525" d="M0,0H5.658a0,0,0,0,1,0,0V3.909A2.829,2.829,0,0,1,2.829,6.738h0A2.829,2.829,0,0,1,0,3.909V0A0,0,0,0,1,0,0Z" transform="matrix(0.999, 0.051, -0.051, 0.999, 0.341, 0)" fill="#e8a68b"/>
                      </g>
                    </g>
                    <g id="Grupo_888637" data-name="Grupo 888637" transform="translate(7.035 8.797)">
                      <g id="Grupo_888635" data-name="Grupo 888635">
                        <path id="Trazado_622352" data-name="Trazado 622352" d="M170.458,166.67c.483.944.383,1.961-.224,2.272s-1.875-.291-2.358-1.235a1.621,1.621,0,0,1,.608-2.183C169.091,165.212,169.975,165.726,170.458,166.67Z" transform="translate(-167.679 -165.432)" fill="#e8a68b"/>
                      </g>
                      <g id="Grupo_888636" data-name="Grupo 888636" transform="translate(13.786 0.741)">
                        <path id="Trazado_622353" data-name="Trazado 622353" d="M196.052,168.009c-.576.89-.579,1.912-.006,2.283s1.894-.1,2.47-.991a1.621,1.621,0,0,0-.384-2.234C197.559,166.7,196.628,167.119,196.052,168.009Z" transform="translate(-195.618 -166.933)" fill="#e8a68b"/>
                      </g>
                    </g>
                    <g id="Grupo_888638" data-name="Grupo 888638" transform="translate(7.41)">
                      <path id="Trazado_622354" data-name="Trazado 622354" d="M169.09,151.429a3.146,3.146,0,0,0,.5-.718,3.832,3.832,0,0,0,.133-.764c.238-1.445,1.847-2.285,3.311-2.337a34.949,34.949,0,0,1,4.348.572,49.017,49.017,0,0,0,5.2-.228,6.174,6.174,0,0,1,4.778,1.641,4.323,4.323,0,0,1,.443,4.882,1.723,1.723,0,0,0-1.341-1.525,3.088,3.088,0,0,1,.39,1.851c-.136.627-.875,1.152-1.428.826-.269.116.01.5.055.79.061.392-.389.649-.762.785l-2.122.775a5.668,5.668,0,0,0-.1-4.047c-.238-.572-.68-1.17-1.3-1.177a6.1,6.1,0,0,0-.763.133c-1.008.119-1.755-.85-2.548-1.483a4.565,4.565,0,0,0-5.434-.076,2,2,0,0,0-.93,1.627,3.733,3.733,0,0,1,.089.8c-.093.643-.929.91-1.174,1.511a2.106,2.106,0,0,0,.064,1.26c.116.5.149,1.3-.5,1.453-.435.1-.611-.433-.719-.753a11.711,11.711,0,0,1-.838-3.735A3.45,3.45,0,0,1,169.09,151.429Z" transform="translate(-168.438 -147.605)" fill="#44457b"/>
                    </g>
                  </g>
                </g>
                <g id="Grupo_888653" data-name="Grupo 888653" transform="translate(40.466 6.002)">
                  <g id="Grupo_888642" data-name="Grupo 888642" transform="translate(0.176)">
                    <g id="Grupo_888641" data-name="Grupo 888641">
                      <path id="Trazado_622355" data-name="Trazado 622355" d="M234.19,155.69l2.559-2.86a.563.563,0,0,0-.8-.8,1.768,1.768,0,0,0,.43,2.7c1.222.806,2.672-.1,3.514-1.028l-.94-.548a2.074,2.074,0,0,0,1.475,2.513,1.808,1.808,0,0,0,1.484-.229c.391-.25,1.027-1.175,1.521-1.017l-.413-.542.005,1.409a.583.583,0,0,0,.413.543,2.986,2.986,0,0,0,3.567-1.223l-1.028-.135a1.891,1.891,0,0,0,2.37,1.109c1.226-.343,1.741-1.66,2.112-2.746.2-.584-.546-.869-.94-.548a1.868,1.868,0,0,0,.118,2.8c1.024.881,2.473.39,3.41-.346l-.961-.4a2.139,2.139,0,0,0,4.19.549l-1.028.135.907,1.738c.336.642,1.307.074.972-.568l-.908-1.739a.57.57,0,0,0-1.028.135,1.021,1.021,0,0,1-1.979-.25.572.572,0,0,0-.961-.4,1.676,1.676,0,0,1-1.8.344.751.751,0,0,1-.131-1.2l-.94-.548a3.47,3.47,0,0,1-1.024,1.815c-.355.241-1.108.327-1.288-.177a.571.571,0,0,0-1.028-.134,1.864,1.864,0,0,1-2.3.706l.413.543-.005-1.409a.578.578,0,0,0-.413-.543c-.883-.283-1.475.343-2.083.876-.337.3-.637.522-1.079.307a.9.9,0,0,1-.533-1.066.567.567,0,0,0-.94-.547c-.436.479-1.128,1.147-1.847.983-.412-.094-.891-.687-.505-1.06l-.8-.8-2.559,2.86c-.482.538.311,1.337.8.8Z" transform="translate(-233.245 -151.867)" fill="#315359"/>
                    </g>
                  </g>
                  <g id="Grupo_888644" data-name="Grupo 888644" transform="translate(27.512 1.847)">
                    <g id="Grupo_888643" data-name="Grupo 888643">
                      <path id="Trazado_622356" data-name="Trazado 622356" d="M289.719,158.042a1.116,1.116,0,0,1,.8-.455l-.712-.543a1.93,1.93,0,0,0,.551,1.532.567.567,0,0,0,.682.088l2.859-1.993-.827-.336.41,1.006a.587.587,0,0,0,.692.393,6.316,6.316,0,0,0,2.657-1.053l-.827-.336a2.751,2.751,0,0,0,5.359-.01.565.565,0,0,0-1.029-.434,1.986,1.986,0,1,0,3.607,1.574H302.86a1.991,1.991,0,0,0,2.311,1.4c1.237-.184,1.982-1.32,2.568-2.312l-1.049-.284a2.394,2.394,0,0,0,4.069,1.34c.466-.549-.326-1.349-.8-.8a1.275,1.275,0,0,1-2.148-.544.568.568,0,0,0-1.049-.284,4.037,4.037,0,0,1-1.367,1.634c-.508.271-1.315.191-1.456-.457-.126-.583-.912-.484-1.086,0a.856.856,0,1,1-1.549-.706l-1.028-.434a1.641,1.641,0,0,1-3.189.01.567.567,0,0,0-.827-.336,5.589,5.589,0,0,1-2.388.939l.692.393-.41-1.006a.57.57,0,0,0-.827-.336l-2.859,1.993.682.088a.857.857,0,0,1-.222-.737c.035-.4-.386-.6-.713-.542a2.216,2.216,0,0,0-1.476.972c-.421.591.554,1.154.972.568Z" transform="translate(-288.644 -155.611)" fill="#315359"/>
                    </g>
                  </g>
                  <g id="Grupo_888646" data-name="Grupo 888646" transform="translate(0.027 8.627)">
                    <g id="Grupo_888645" data-name="Grupo 888645">
                      <path id="Trazado_622357" data-name="Trazado 622357" d="M233.872,174.693a8.171,8.171,0,0,1,1.945-1.773l-.682-.088c.375.4.741,1.03,1.343,1.054a2.114,2.114,0,0,0,1.163-.364c.25-.151.8-.706,1.112-.67.23.028.371.456.5.622a1.7,1.7,0,0,0,.525.466,2.427,2.427,0,0,0,2.693-.6c.9-.827,1.09-2.225,2.112-2.925l-.682-.884a2.539,2.539,0,0,0,.163,3.823,2.195,2.195,0,0,0,3.252-1.159h-1.085a2.07,2.07,0,0,0,1.919,1.634,3.673,3.673,0,0,0,2.775-1.335l-.961-.4a2.166,2.166,0,0,0,4,1.309l-.884.114a3.1,3.1,0,0,0,5.024-.534l-1.049-.284c-.223,1.679,1.759,2.6,3.146,2.1,1.887-.678,2.428-2.782,3.971-3.865l-.847-.486-.144,2.577a.566.566,0,0,0,.414.543,3.727,3.727,0,0,0,3.2-.755l-.961-.4.052,1.536a.57.57,0,0,0,.563.563l2.684-.072a.563.563,0,0,0,0-1.126l-2.684.073.563.563-.052-1.536a.571.571,0,0,0-.961-.4,2.507,2.507,0,0,1-2.107.466l.413.542.144-2.577a.566.566,0,0,0-.847-.486,17.96,17.96,0,0,0-2.577,2.9,2.468,2.468,0,0,1-1.749.972,1.06,1.06,0,0,1-1.1-1.138c.074-.557-.812-.761-1.049-.284a1.971,1.971,0,0,1-3.256.306.568.568,0,0,0-.884.114,1.04,1.04,0,0,1-1.907-.741.568.568,0,0,0-.961-.4,3.059,3.059,0,0,1-1.55.995,1.029,1.029,0,0,1-1.263-.8c-.095-.573-.942-.5-1.085,0a1.057,1.057,0,0,1-1.61.476,1.439,1.439,0,0,1,.075-2.045c.431-.443-.138-1.256-.682-.884a6.9,6.9,0,0,0-1.845,2.457,2.319,2.319,0,0,1-1,.98c-.649.3-.9.054-1.254-.473a1.371,1.371,0,0,0-1.873-.484c-.368.183-.676.463-1.032.665a.648.648,0,0,1-.43.138c-.179-.043-.515-.553-.645-.693a.569.569,0,0,0-.682-.088,9.108,9.108,0,0,0-2.173,1.949c-.449.56.342,1.361.8.8Z" transform="translate(-232.943 -169.351)" fill="#315359"/>
                    </g>
                  </g>
                  <g id="Grupo_888648" data-name="Grupo 888648" transform="translate(41.852 11.867)">
                    <g id="Grupo_888647" data-name="Grupo 888647">
                      <path id="Trazado_622358" data-name="Trazado 622358" d="M318.745,178.053q-.8-.2-.585.116c.053.06.059.095.02.1a.583.583,0,0,0,.393.692c.785.316,1.462-.273,2.02-.748.178-.15.461-.452.715-.44.2.009.375.233.525.345a1.521,1.521,0,0,0,.75.321c1.09.128,1.547-.984,2.443-1.313a1.731,1.731,0,0,1,2.1.859c.32.65,1.291.08.972-.568a2.818,2.818,0,0,0-2.375-1.5,2.685,2.685,0,0,0-1.446.319c-.455.251-.78.676-1.212.956-.5.327-.778-.233-1.229-.427a1.434,1.434,0,0,0-1.227.064,5,5,0,0,0-.964.717c-.224.189-.471.45-.773.328l.393.692a1.367,1.367,0,0,0-.359-1.268.7.7,0,0,0-1.133.181c-.329.643.642,1.214.972.568Z" transform="translate(-317.706 -175.916)" fill="#315359"/>
                    </g>
                  </g>
                  <g id="Grupo_888650" data-name="Grupo 888650" transform="translate(0 17.767)">
                    <g id="Grupo_888649" data-name="Grupo 888649">
                      <path id="Trazado_622359" data-name="Trazado 622359" d="M233.837,191.913a4.367,4.367,0,0,1,2.085-1.3l-.692-.692a1.861,1.861,0,0,0,1.758,2.095c1.28.13,2.226-.915,2.941-1.829l-.884-.113.939,2.17a.575.575,0,0,0,.77.2,11.359,11.359,0,0,0,4.662-3.719.567.567,0,0,0-.636-.827c-1.486.608-1.24,2.583-.107,3.449a5.353,5.353,0,0,0,2.667.739,3.134,3.134,0,0,0,1.375.123,19.4,19.4,0,0,0,1.789-.813l-.827-.336.463,1.948a.568.568,0,0,0,.692.393,10.492,10.492,0,0,1,4.791-.3,12.453,12.453,0,0,1,2.323.689,2.4,2.4,0,0,0,1.779.11c.5-.189,1.054-.784,1.619-.673a5.266,5.266,0,0,1,.809.369,3.118,3.118,0,0,0,.875.2,3.415,3.415,0,0,0,3.033-1.405l-.77.2a18.934,18.934,0,0,0,4.723,1.46c1.126.185,2.608.361,3.252-.826l-.77.2a3.86,3.86,0,0,0,5.094-1.489l-.636.259,6.262,2.323c.68.252.974-.835.3-1.086l-6.262-2.322a.566.566,0,0,0-.636.259,2.716,2.716,0,0,1-3.554,1.085.572.572,0,0,0-.77.2c-.458.845-2.259.274-2.95.122a17.833,17.833,0,0,1-3.485-1.16.586.586,0,0,0-.77.2,2.248,2.248,0,0,1-1.592.856,3.361,3.361,0,0,1-1.6-.444,1.816,1.816,0,0,0-1.483.028c-.534.232-.989.719-1.607.621a19.273,19.273,0,0,1-1.927-.656,11.539,11.539,0,0,0-6.346.087l.692.393-.462-1.949a.572.572,0,0,0-.827-.336l-1.789.813.434-.057a17.581,17.581,0,0,1-2.958-.575c-.384-.176-1.272-1.324-.544-1.623l-.636-.827a10.316,10.316,0,0,1-4.258,3.315l.77.2-.939-2.171a.564.564,0,0,0-.884-.113,4.724,4.724,0,0,1-1.341,1.336c-.408.22-1.582.244-1.477-.508.056-.405-.238-.821-.692-.692a5.456,5.456,0,0,0-2.582,1.585c-.488.534.306,1.332.8.8Z" transform="translate(-232.888 -187.873)" fill="#315359"/>
                    </g>
                  </g>
                  <g id="Grupo_888652" data-name="Grupo 888652" transform="translate(0.898 27.171)">
                    <g id="Grupo_888651" data-name="Grupo 888651">
                      <path id="Trazado_622360" data-name="Trazado 622360" d="M234.84,207.921a2.9,2.9,0,0,0,2.133,1.071,3.12,3.12,0,0,0,1.223-.226c.276-.1.389-.132.6.06.158.142.27.318.442.453,1.416,1.117,3.325-.048,4.483-.987l-.94-.249a2.06,2.06,0,0,0,3.623.55c.4-.605-.572-1.169-.972-.568a.932.932,0,0,1-1.566-.281.57.57,0,0,0-.94-.248,4.878,4.878,0,0,1-1.969,1.063,1.373,1.373,0,0,1-.806-.028c-.312-.131-.459-.43-.7-.649-.633-.588-1.256-.238-1.965-.06a1.805,1.805,0,0,1-1.855-.7c-.45-.567-1.241.234-.8.8Z" transform="translate(-234.708 -206.931)" fill="#315359"/>
                    </g>
                  </g>
                </g>
              </g>
              <g id="Grupo_888662" data-name="Grupo 888662" transform="translate(18.137 63.313)">
                <g id="Grupo_888659" data-name="Grupo 888659" transform="translate(11.363)">
                  <g id="Grupo_888655" data-name="Grupo 888655" transform="translate(0)">
                    <path id="Trazado_622361" data-name="Trazado 622361" d="M203.12,239.7a24.034,24.034,0,0,1,22.763,25.19l12.071.611a36.093,36.093,0,0,0-72.094-3.648l12.071.611A24.034,24.034,0,0,1,203.12,239.7Z" transform="translate(-165.859 -227.584)" fill="#fcd936"/>
                  </g>
                  <g id="Grupo_888658" data-name="Grupo 888658" transform="translate(0 4.851)">
                    <g id="Grupo_888656" data-name="Grupo 888656">
                      <path id="Trazado_622362" data-name="Trazado 622362" d="M183.856,237.416a36.094,36.094,0,0,0-18,29.418l12.071.611c.382-7.545,4.987-14.912,11.3-19.16Z" transform="translate(-165.858 -237.416)" fill="#fe6083"/>
                    </g>
                    <g id="Grupo_888657" data-name="Grupo 888657" transform="translate(49.99 1.471)">
                      <path id="Trazado_622363" data-name="Trazado 622363" d="M273.613,240.4l-6.446,10.236c6.1,4.2,10.438,12.76,10.034,20.748l12.071.611A36.1,36.1,0,0,0,273.613,240.4Z" transform="translate(-267.167 -240.398)" fill="#adc436"/>
                    </g>
                  </g>
                </g>
                <g id="Grupo_888660" data-name="Grupo 888660" transform="translate(0 33.178)">
                  <path id="Trazado_622364" data-name="Trazado 622364" d="M237.107,300.655h-.028l-93.733-4.743a.545.545,0,0,1-.516-.571.557.557,0,0,1,.571-.516l93.733,4.743a.545.545,0,0,1-.027,1.089Z" transform="translate(-142.83 -294.823)" fill="#315359"/>
                </g>
                <g id="Grupo_888661" data-name="Grupo 888661" transform="translate(46.696 5.778)">
                  <path id="Trazado_622365" data-name="Trazado 622365" d="M238.007,270.146a.545.545,0,0,1-.447-.854l20.558-29.763a.545.545,0,0,1,.9.619l-20.559,29.763A.543.543,0,0,1,238.007,270.146Z" transform="translate(-237.463 -239.295)" fill="#315359"/>
                </g>
              </g>
              <g id="Grupo_888686" data-name="Grupo 888686" transform="translate(26.454 104.123)">
                <g id="Grupo_888682" data-name="Grupo 888682">
                  <g id="Grupo_888668" data-name="Grupo 888668" transform="translate(0.85 16.802)">
                    <g id="Grupo_888663" data-name="Grupo 888663">
                      <path id="Trazado_622366" data-name="Trazado 622366" d="M170.578,356.386c-.043,0-.087,0-.132,0l-6.626-.336a2.541,2.541,0,0,1-2.409-2.667l.336-6.626a2.541,2.541,0,0,1,2.667-2.409l6.625.336a2.545,2.545,0,0,1,2.41,2.667l-.336,6.625a2.542,2.542,0,0,1-2.535,2.413Zm-6.295-10.526a1.022,1.022,0,0,0-1.02.971l-.336,6.626a1.022,1.022,0,0,0,.97,1.073l6.626.336a1,1,0,0,0,.738-.263,1.015,1.015,0,0,0,.336-.708l.336-6.625a1.025,1.025,0,0,0-.97-1.074l-6.626-.335Z" transform="translate(-161.407 -344.342)" fill="#b0c0d2"/>
                    </g>
                    <g id="Grupo_888667" data-name="Grupo 888667" transform="translate(16.75 3.337)">
                      <g id="Grupo_888664" data-name="Grupo 888664" transform="translate(0.255)">
                        <path id="Trazado_622367" data-name="Trazado 622367" d="M218.514,353.73h-.039l-21.886-1.107a.759.759,0,1,1,.076-1.516l21.886,1.107a.759.759,0,0,1-.038,1.517Z" transform="translate(-195.868 -351.105)" fill="#b0c0d2"/>
                      </g>
                      <g id="Grupo_888665" data-name="Grupo 888665" transform="translate(0 5.027)">
                        <path id="Trazado_622368" data-name="Trazado 622368" d="M231.872,364.621h-.039l-35.76-1.81a.759.759,0,1,1,.077-1.516l35.76,1.81a.759.759,0,0,1-.038,1.517Z" transform="translate(-195.352 -361.293)" fill="#b0c0d2"/>
                      </g>
                      <g id="Grupo_888666" data-name="Grupo 888666" transform="translate(41.175 7.112)">
                        <path id="Trazado_622369" data-name="Trazado 622369" d="M293.36,367.733h-.039l-13.8-.7a.759.759,0,0,1,.077-1.516l13.8.7a.759.759,0,0,1-.038,1.517Z" transform="translate(-278.798 -365.517)" fill="#b0c0d2"/>
                      </g>
                    </g>
                  </g>
                  <g id="Grupo_888681" data-name="Grupo 888681">
                    <g id="Grupo_888674" data-name="Grupo 888674" transform="translate(1.7)">
                      <g id="Grupo_888669" data-name="Grupo 888669">
                        <path id="Trazado_622370" data-name="Trazado 622370" d="M172.3,322.335c-.043,0-.087,0-.132,0L165.544,322a2.542,2.542,0,0,1-2.41-2.667l.336-6.626a2.54,2.54,0,0,1,2.667-2.409l6.625.335a2.545,2.545,0,0,1,2.41,2.667l-.336,6.625a2.542,2.542,0,0,1-2.535,2.413Zm-6.295-10.526a1.022,1.022,0,0,0-1.02.971l-.336,6.626a1.024,1.024,0,0,0,.971,1.074l6.625.335a1,1,0,0,0,.738-.263,1.016,1.016,0,0,0,.336-.708l.335-6.625a1.024,1.024,0,0,0-.97-1.074l-6.625-.335Z" transform="translate(-163.13 -310.291)" fill="#b0c0d2"/>
                      </g>
                      <g id="Grupo_888673" data-name="Grupo 888673" transform="translate(16.75 3.337)">
                        <g id="Grupo_888670" data-name="Grupo 888670" transform="translate(0.254)">
                          <path id="Trazado_622371" data-name="Trazado 622371" d="M220.237,319.679H220.2l-21.886-1.107a.759.759,0,1,1,.076-1.516l21.886,1.107a.759.759,0,0,1-.038,1.517Z" transform="translate(-197.591 -317.054)" fill="#b0c0d2"/>
                        </g>
                        <g id="Grupo_888671" data-name="Grupo 888671" transform="translate(0 5.027)">
                          <path id="Trazado_622372" data-name="Trazado 622372" d="M233.6,330.57h-.039l-35.76-1.81a.759.759,0,0,1,.077-1.516l35.76,1.81a.759.759,0,0,1-.037,1.517Z" transform="translate(-197.076 -327.242)" fill="#b0c0d2"/>
                        </g>
                        <g id="Grupo_888672" data-name="Grupo 888672" transform="translate(41.175 7.111)">
                          <path id="Trazado_622373" data-name="Trazado 622373" d="M295.083,333.682h-.039l-13.8-.7a.759.759,0,0,1-.72-.8.77.77,0,0,1,.8-.72l13.8.7a.759.759,0,0,1-.038,1.517Z" transform="translate(-280.521 -331.465)" fill="#b0c0d2"/>
                        </g>
                      </g>
                    </g>
                    <g id="Grupo_888680" data-name="Grupo 888680" transform="translate(0 33.604)">
                      <g id="Grupo_888675" data-name="Grupo 888675">
                        <path id="Trazado_622374" data-name="Trazado 622374" d="M168.852,390.436c-.043,0-.086,0-.129,0h0L162.1,390.1a2.541,2.541,0,0,1-2.409-2.666l.336-6.626a2.541,2.541,0,0,1,2.667-2.409l6.625.335a2.545,2.545,0,0,1,2.41,2.667l-.336,6.625A2.545,2.545,0,0,1,168.852,390.436Zm-.052-1.519a1.042,1.042,0,0,0,1.073-.971l.336-6.625a1.025,1.025,0,0,0-.971-1.074l-6.625-.336a1.023,1.023,0,0,0-1.074.97l-.335,6.626a1.022,1.022,0,0,0,.97,1.073Z" transform="translate(-159.684 -378.392)" fill="#b0c0d2"/>
                      </g>
                      <g id="Grupo_888679" data-name="Grupo 888679" transform="translate(16.75 3.337)">
                        <g id="Grupo_888676" data-name="Grupo 888676" transform="translate(0.255)">
                          <path id="Trazado_622375" data-name="Trazado 622375" d="M216.791,387.781h-.039l-21.886-1.107a.759.759,0,0,1,.076-1.516l21.886,1.107a.759.759,0,0,1-.038,1.517Z" transform="translate(-194.145 -385.156)" fill="#b0c0d2"/>
                        </g>
                        <g id="Grupo_888677" data-name="Grupo 888677" transform="translate(0 5.028)">
                          <path id="Trazado_622376" data-name="Trazado 622376" d="M230.149,398.673h-.039l-35.76-1.81a.759.759,0,1,1,.077-1.516l35.76,1.81a.759.759,0,0,1-.038,1.517Z" transform="translate(-193.629 -395.345)" fill="#b0c0d2"/>
                        </g>
                        <g id="Grupo_888678" data-name="Grupo 888678" transform="translate(41.175 7.111)">
                          <path id="Trazado_622377" data-name="Trazado 622377" d="M291.637,401.784H291.6l-13.8-.7a.759.759,0,0,1,.077-1.516l13.8.7a.759.759,0,0,1-.038,1.517Z" transform="translate(-277.075 -399.568)" fill="#b0c0d2"/>
                        </g>
                      </g>
                    </g>
                  </g>
                </g>
                <g id="Grupo_888683" data-name="Grupo 888683" transform="translate(3.53 0.84)">
                  <path id="Trazado_622378" data-name="Trazado 622378" d="M171.524,321.23h-.047a1.893,1.893,0,0,1-1.371-.641l-3.005-3.416a1.052,1.052,0,1,1,1.579-1.389l2.848,3.237,6.111-6.685a1.051,1.051,0,1,1,1.552,1.419l-6.289,6.88A1.916,1.916,0,0,1,171.524,321.23Z" transform="translate(-166.838 -311.994)" fill="#adc436"/>
                </g>
                <g id="Grupo_888684" data-name="Grupo 888684" transform="translate(2.68 17.637)">
                  <path id="Trazado_622379" data-name="Trazado 622379" d="M169.8,355.27h-.048a1.9,1.9,0,0,1-1.371-.641l-3-3.416a1.052,1.052,0,0,1,1.579-1.389l2.848,3.237,6.112-6.685a1.051,1.051,0,1,1,1.552,1.419l-6.289,6.879A1.915,1.915,0,0,1,169.8,355.27Z" transform="translate(-165.116 -346.034)" fill="#adc436"/>
                </g>
                <g id="Grupo_888685" data-name="Grupo 888685" transform="translate(1.83 34.434)">
                  <path id="Trazado_622380" data-name="Trazado 622380" d="M168.079,389.311h-.046a1.9,1.9,0,0,1-1.373-.641l-3-3.415a1.052,1.052,0,0,1,1.579-1.39l2.849,3.237,6.111-6.685a1.051,1.051,0,1,1,1.552,1.419l-6.289,6.879A1.914,1.914,0,0,1,168.079,389.311Z" transform="translate(-163.393 -380.074)" fill="#adc436"/>
                </g>
              </g>
            </g>
            <g id="Grupo_888693" data-name="Grupo 888693" transform="translate(45.624)">
              <g id="Grupo_888690" data-name="Grupo 888690">
                <g id="Grupo_888688" data-name="Grupo 888688" transform="translate(0 13.715)">
                  <rect id="Rectángulo_296526" data-name="Rectángulo 296526" width="48.573" height="19.648" transform="matrix(0.999, 0.051, -0.051, 0.999, 0.993, 0)" fill="#f1b62b"/>
                </g>
                <g id="Grupo_888689" data-name="Grupo 888689" transform="translate(10.306)">
                  <circle id="Elipse_6031" data-name="Elipse 6031" cx="14.943" cy="14.943" r="14.943" fill="#f1b62b"/>
                </g>
              </g>
              <g id="Grupo_888691" data-name="Grupo 888691" transform="translate(17.766 7.091)">
                <path id="Trazado_622381" data-name="Trazado 622381" d="M242.418,71.581a7.509,7.509,0,0,0-7.879,7.12l15,.759A7.509,7.509,0,0,0,242.418,71.581Z" transform="translate(-234.539 -71.571)" fill="#f89520"/>
              </g>
              <g id="Grupo_888692" data-name="Grupo 888692" transform="translate(0 29.4)">
                <rect id="Rectángulo_296527" data-name="Rectángulo 296527" width="48.573" height="3.944" transform="matrix(0.999, 0.051, -0.051, 0.999, 0.199, 0)" fill="#f89520"/>
              </g>
            </g>
            <g id="Grupo_888695" data-name="Grupo 888695" transform="translate(51.162 19.64)">
              <g id="Grupo_888694" data-name="Grupo 888694">
                <path id="Trazado_622382" data-name="Trazado 622382" d="M209.829,97.576l4.227,5.983c.291.412.975.018.681-.4l-4.227-5.983c-.291-.412-.975-.018-.681.4Z" transform="translate(-209.758 -97.004)" fill="#f89520"/>
              </g>
            </g>
            <g id="Grupo_888697" data-name="Grupo 888697" transform="translate(54.106 19.333)">
              <g id="Grupo_888696" data-name="Grupo 888696">
                <path id="Trazado_622383" data-name="Trazado 622383" d="M215.78,96.974l2.364,3.367a.405.405,0,0,0,.54.142.4.4,0,0,0,.141-.539l-2.364-3.367a.4.4,0,0,0-.539-.142.4.4,0,0,0-.142.54Z" transform="translate(-215.724 -96.381)" fill="#f89520"/>
              </g>
            </g>
            <g id="Grupo_888699" data-name="Grupo 888699" transform="translate(84.996 20.458)">
              <g id="Grupo_888698" data-name="Grupo 888698">
                <path id="Trazado_622384" data-name="Trazado 622384" d="M278.391,99.241a67.119,67.119,0,0,0,4.182,5.743c.32.394.875-.167.558-.558a65.3,65.3,0,0,1-4.059-5.583c-.275-.424-.958-.029-.681.4Z" transform="translate(-278.326 -98.661)" fill="#f89520"/>
              </g>
            </g>
            <g id="Grupo_888701" data-name="Grupo 888701" transform="translate(14.689 154.953)">
              <g id="Grupo_888700" data-name="Grupo 888700">
                <path id="Trazado_622385" data-name="Trazado 622385" d="M135.889,371.827a43.461,43.461,0,0,0,4.68,7.28c.315.4.87-.164.558-.558a42.5,42.5,0,0,1-4.557-7.121c-.23-.453-.911-.054-.681.4Z" transform="translate(-135.842 -371.229)" fill="#315359"/>
              </g>
            </g>
            <g id="Grupo_888703" data-name="Grupo 888703" transform="translate(14.451 159.867)">
              <g id="Grupo_888702" data-name="Grupo 888702">
                <path id="Trazado_622386" data-name="Trazado 622386" d="M135.466,381.869a14.666,14.666,0,0,1,2.525,3.82.4.4,0,0,0,.539.142.4.4,0,0,0,.142-.54,15.313,15.313,0,0,0-2.648-3.98c-.344-.375-.9.184-.558.558Z" transform="translate(-135.358 -381.187)" fill="#315359"/>
              </g>
            </g>
            <g id="Grupo_888705" data-name="Grupo 888705" transform="translate(109.071 82.638)">
              <g id="Grupo_888704" data-name="Grupo 888704">
                <path id="Trazado_622387" data-name="Trazado 622387" d="M327.164,225.271l2.488,4.75c.236.45.917.051.681-.4l-2.488-4.75c-.235-.45-.916-.051-.681.4Z" transform="translate(-327.115 -224.675)" fill="#315359"/>
              </g>
            </g>
          </g>
          <g id="Grupo_888718" data-name="Grupo 888718" transform="translate(144.586 90.584)">
            <g id="Grupo_888707" data-name="Grupo 888707" transform="translate(2.141 2.142)" opacity="0.77">
              <circle id="Elipse_6032" data-name="Elipse 6032" cx="27.15" cy="27.15" r="27.15" fill="#e1f2f9"/>
            </g>
            <g id="Grupo_888711" data-name="Grupo 888711">
              <g id="Grupo_888708" data-name="Grupo 888708" transform="translate(44.555 48.104)">
                <rect id="Rectángulo_296528" data-name="Rectángulo 296528" width="5.545" height="26.558" transform="translate(0 3.576) rotate(-40.158)" fill="#fcd936"/>
              </g>
              <g id="Grupo_888709" data-name="Grupo 888709" transform="translate(56.427 62.951)">
                <path id="Rectángulo_296529" data-name="Rectángulo 296529" d="M0,0H11.5a0,0,0,0,1,0,0V18.775a5.752,5.752,0,0,1-5.752,5.752h0A5.752,5.752,0,0,1,0,18.775V0A0,0,0,0,1,0,0Z" transform="translate(0 7.419) rotate(-40.158)" fill="#ee4e5d"/>
              </g>
              <g id="Grupo_888710" data-name="Grupo 888710">
                <path id="Trazado_622388" data-name="Trazado 622388" d="M348.263,272.374a29.282,29.282,0,1,1,22.362-48.163h0a29.273,29.273,0,0,1-22.362,48.163Zm-.065-54.042a24.767,24.767,0,1,0,18.969,8.8h0a24.6,24.6,0,0,0-16.837-8.706Q349.261,218.331,348.2,218.332Z" transform="translate(-318.949 -213.807)" fill="#ee4e5d"/>
              </g>
            </g>
            <g id="Grupo_888713" data-name="Grupo 888713" transform="translate(44.866 16.967)">
              <g id="Grupo_888712" data-name="Grupo 888712">
                <path id="Trazado_622389" data-name="Trazado 622389" d="M409.885,249.77l1.16,8.651A1.622,1.622,0,0,0,412.622,260c.76-.034,1.694-.7,1.577-1.578l-1.16-8.651a1.621,1.621,0,0,0-1.578-1.577c-.76.034-1.694.7-1.577,1.577Z" transform="translate(-409.875 -248.192)" fill="#fff"/>
              </g>
            </g>
            <g id="Grupo_888715" data-name="Grupo 888715" transform="translate(43.886 33.855)">
              <g id="Grupo_888714" data-name="Grupo 888714">
                <path id="Trazado_622390" data-name="Trazado 622390" d="M408.545,283.2a5.94,5.94,0,0,0-.621,3.262,1.751,1.751,0,0,0,.462,1.115,1.578,1.578,0,0,0,2.231,0l.246-.319a1.566,1.566,0,0,0,.216-.8,4.552,4.552,0,0,1,0-1.132l-.056.419a4.568,4.568,0,0,1,.31-1.134l-.159.376c.029-.067.059-.133.09-.2a1.176,1.176,0,0,0,.187-.586,1.2,1.2,0,0,0-.028-.629,1.61,1.61,0,0,0-.725-.943,1.59,1.59,0,0,0-1.215-.159,1.554,1.554,0,0,0-.942.725Z" transform="translate(-407.889 -282.418)" fill="#fff"/>
              </g>
            </g>
            <g id="Grupo_888717" data-name="Grupo 888717" transform="translate(70.241 73.321)">
              <g id="Grupo_888716" data-name="Grupo 888716">
                <path id="Trazado_622391" data-name="Trazado 622391" d="M461.392,363.583a13.641,13.641,0,0,0,3.817,5.1.807.807,0,0,0,1.115,0,.8.8,0,0,0,0-1.116,12.3,12.3,0,0,1-3.57-4.779.791.791,0,0,0-1.079-.283.814.814,0,0,0-.283,1.079Z" transform="translate(-461.299 -362.399)" fill="#fff"/>
              </g>
            </g>
          </g>
          <g id="Grupo_888734" data-name="Grupo 888734" transform="translate(0 75.147)">
            <g id="Grupo_888719" data-name="Grupo 888719" transform="translate(18.195 0)">
              <path id="Trazado_622392" data-name="Trazado 622392" d="M70.423,231.947a.842.842,0,0,1-.5-.165l-5.329-3.929a4.379,4.379,0,0,1-1.559-4.926l12.4-39.81a.847.847,0,0,1,1.617.5l-12.4,39.826a2.7,2.7,0,0,0,.952,3.043l5.329,3.929a.846.846,0,0,1-.5,1.528Z" transform="translate(-62.806 -182.523)" fill="#6663de"/>
            </g>
            <g id="Grupo_888720" data-name="Grupo 888720" transform="translate(3.582 17.939)">
              <path id="Trazado_622393" data-name="Trazado 622393" d="M34.036,255.111a.846.846,0,0,1-.671-1.361l25.393-33.094a4.372,4.372,0,0,1,4.913-1.552l6.282,2.089a.847.847,0,0,1-.534,1.607l-6.282-2.089a2.687,2.687,0,0,0-3.025.962l-25.4,33.108A.844.844,0,0,1,34.036,255.111Z" transform="translate(-33.19 -218.877)" fill="#6663de"/>
            </g>
            <g id="Grupo_888721" data-name="Grupo 888721" transform="translate(0.837 30.197)">
              <circle id="Elipse_6033" data-name="Elipse 6033" cx="11.283" cy="11.283" r="11.283" fill="#e1f2f9"/>
            </g>
            <g id="Grupo_888722" data-name="Grupo 888722" transform="translate(15.437 2.03)">
              <circle id="Elipse_6034" data-name="Elipse 6034" cx="11.283" cy="11.283" r="11.283" fill="#e1f2f9"/>
            </g>
            <g id="Grupo_888723" data-name="Grupo 888723" transform="translate(0 29.418)">
              <path id="Trazado_622394" data-name="Trazado 622394" d="M37.918,266.141a12.028,12.028,0,1,1,3.64-.567A11.94,11.94,0,0,1,37.918,266.141Zm.025-22.307A10.32,10.32,0,1,0,42.672,245,10.317,10.317,0,0,0,37.943,243.834Z" transform="translate(-25.931 -242.141)" fill="#6663de"/>
            </g>
            <g id="Grupo_888724" data-name="Grupo 888724" transform="translate(14.506 1.432)">
              <path id="Trazado_622395" data-name="Trazado 622395" d="M67.316,209.425a12,12,0,1,1,5.533-22.649h0a11.995,11.995,0,0,1-1.893,22.082A12.039,12.039,0,0,1,67.316,209.425Zm.025-22.307a10.3,10.3,0,0,0-4.752,19.452,10.3,10.3,0,1,0,9.48-18.291h0A10.25,10.25,0,0,0,67.341,187.118Z" transform="translate(-55.329 -185.424)" fill="#6663de"/>
            </g>
            <g id="Grupo_888725" data-name="Grupo 888725" transform="translate(15.111 22.755)">
              <path id="Trazado_622396" data-name="Trazado 622396" d="M58.094,237.7c-.106-.173-2.586-4.248-1.025-6.929.883-1.517,2.829-2.23,5.772-2.123l-.041,1.128c-2.5-.1-4.1.434-4.754,1.562-1.222,2.1.987,5.733,1.01,5.769Z" transform="translate(-56.555 -228.638)" fill="#6663de"/>
            </g>
            <g id="Grupo_888727" data-name="Grupo 888727" transform="translate(8.322 46.709)">
              <g id="Grupo_888726" data-name="Grupo 888726">
                <path id="Trazado_622397" data-name="Trazado 622397" d="M43.412,278.852a7.932,7.932,0,0,0,4,.271A.85.85,0,0,0,48,278.082a.869.869,0,0,0-1.042-.591c-.075.013-.15.024-.226.038s-.043.007.063-.008l-.13.015c-.13.014-.261.024-.392.031a6.942,6.942,0,0,1-.883-.012c-.076-.005-.152-.013-.228-.021l-.065-.008q-.145-.018.03,0c-.033.036-.374-.066-.419-.075a7.054,7.054,0,0,1-.851-.237.852.852,0,0,0-1.042.591.868.868,0,0,0,.591,1.042Z" transform="translate(-42.796 -277.183)" fill="#fff"/>
              </g>
            </g>
            <g id="Grupo_888729" data-name="Grupo 888729" transform="translate(14.944 45.399)">
              <g id="Grupo_888728" data-name="Grupo 888728">
                <path id="Trazado_622398" data-name="Trazado 622398" d="M57.491,276.579l1-.474a.814.814,0,0,0,.4-.844.629.629,0,0,0-.1-.314.854.854,0,0,0-.506-.389l-.225-.03a.845.845,0,0,0-.427.115l-1,.474a.816.816,0,0,0-.4.843.625.625,0,0,0,.1.315.855.855,0,0,0,.506.389l.225.03a.844.844,0,0,0,.427-.115Z" transform="translate(-56.216 -274.528)" fill="#fff"/>
              </g>
            </g>
            <g id="Grupo_888731" data-name="Grupo 888731" transform="translate(22.669 6.277)">
              <g id="Grupo_888730" data-name="Grupo 888730">
                <path id="Trazado_622399" data-name="Trazado 622399" d="M73.146,197.322c.076-.04.153-.077.229-.116s.078-.036-.026.008l.12-.047a4.331,4.331,0,0,1,.429-.135,1.878,1.878,0,0,1,.441-.089c-.237,0,.044,0,.095-.005.075-.006.15-.009.225-.011a4.368,4.368,0,0,1,.482.015c.041,0,.258.008.031,0a1.588,1.588,0,0,1,.254.044,4.278,4.278,0,0,1,.435.114c.082.026.161.057.242.086s.079.032-.024-.011l.116.055a.866.866,0,0,0,1.158-.3.857.857,0,0,0-.3-1.158,5.251,5.251,0,0,0-4.759.094.854.854,0,0,0-.3,1.158.865.865,0,0,0,1.159.3Z" transform="translate(-71.872 -195.243)" fill="#fff"/>
              </g>
            </g>
            <g id="Grupo_888733" data-name="Grupo 888733" transform="translate(29.952 7.854)">
              <g id="Grupo_888732" data-name="Grupo 888732">
                <path id="Trazado_622400" data-name="Trazado 622400" d="M87.053,200.019l1.073.808a.631.631,0,0,0,.315.1.758.758,0,0,0,.625-.166.636.636,0,0,0,.218-.238.853.853,0,0,0,.085-.652l-.085-.2a.849.849,0,0,0-.3-.3l-1.073-.808a.636.636,0,0,0-.315-.1.869.869,0,0,0-.844.4.856.856,0,0,0-.085.652l.085.2a.854.854,0,0,0,.3.3Z" transform="translate(-86.632 -198.44)" fill="#fff"/>
              </g>
            </g>
          </g>
          <g id="Grupo_888742" data-name="Grupo 888742" transform="translate(13.239 171.158)">
            <g id="Grupo_888737" data-name="Grupo 888737" transform="translate(6.629)">
              <g id="Grupo_888735" data-name="Grupo 888735">
                <rect id="Rectángulo_296530" data-name="Rectángulo 296530" width="15.487" height="52.928" transform="translate(0 13.489) rotate(-60.571)" fill="#fe6083"/>
              </g>
              <g id="Grupo_888736" data-name="Grupo 888736" transform="translate(2.452 4.346)">
                <rect id="Rectángulo_296531" data-name="Rectángulo 296531" width="5.507" height="52.928" transform="translate(0 4.796) rotate(-60.571)" fill="#dd436b"/>
              </g>
            </g>
            <g id="Grupo_888738" data-name="Grupo 888738" transform="translate(52.728 26.006)">
              <rect id="Rectángulo_296532" data-name="Rectángulo 296532" width="15.487" height="3.009" transform="translate(0 13.489) rotate(-60.571)" fill="#fcd936"/>
            </g>
            <g id="Grupo_888739" data-name="Grupo 888739" transform="translate(55.348 27.484)">
              <path id="Rectángulo_296533" data-name="Rectángulo 296533" d="M0,0H15.487a0,0,0,0,1,0,0V0A6.376,6.376,0,0,1,9.111,6.376H6.376A6.376,6.376,0,0,1,0,0V0A0,0,0,0,1,0,0Z" transform="translate(0 13.489) rotate(-60.571)" fill="#dd436b"/>
            </g>
            <g id="Grupo_888740" data-name="Grupo 888740">
              <path id="Trazado_622401" data-name="Trazado 622401" d="M59.391,390.588l-6.629-12.63L67,377.1Z" transform="translate(-52.762 -377.099)" fill="#fcd936"/>
            </g>
            <g id="Grupo_888741" data-name="Grupo 888741" transform="translate(0 0.635)">
              <path id="Trazado_622402" data-name="Trazado 622402" d="M54.485,381.893l1.978-3.507-3.7.223Z" transform="translate(-52.762 -378.386)" fill="#315359"/>
            </g>
          </g>
        </g>
      </g>
    </g>
  </g>
</svg>
