<svg xmlns="http://www.w3.org/2000/svg" width="51" height="51" viewBox="0 0 51 51">
  <g id="Grupo_898344" data-name="Grupo 898344" transform="translate(-382.795 -1957)">
    <circle id="Elipse_5165" data-name="Elipse 5165" cx="25.5" cy="25.5" r="25.5" transform="translate(382.795 1957)" fill="#222b5a"/>
    <g id="Icon_ionic-md-analytics" data-name="Icon ionic-md-analytics" transform="translate(392.351 1965.768)">
      <path id="Trazado_617424" data-name="Trazado 617424" d="M24.555,12.485l-5.6,8.565A3.05,3.05,0,0,1,19.649,23a3.082,3.082,0,0,1-6.164,0,3.377,3.377,0,0,1,.051-.571l-3.7-2.151a3.063,3.063,0,0,1-2.138.86,3.1,3.1,0,0,1-1.515-.4L2.25,24.421v3.673a2.748,2.748,0,0,0,2.742,2.742H28.279a2.748,2.748,0,0,0,2.742-2.742V14.444l-3.762-2.5a3.08,3.08,0,0,1-2.7.539Z" transform="translate(0 -0.745)" fill="#fff"/>
      <path id="Trazado_617425" data-name="Trazado 617425" d="M7.707,14.226a3.083,3.083,0,0,1,3.082,3.082c0,.135-.013.27-.026.4l3.859,2.157a3.054,3.054,0,0,1,1.952-.693,3.225,3.225,0,0,1,.668.071l5.611-8.693a3.049,3.049,0,0,1-.571-1.785,3.082,3.082,0,1,1,6.164,0,3.349,3.349,0,0,1-.083.726l2.652,1.772V6.117a2.748,2.748,0,0,0-2.742-2.742H4.992A2.748,2.748,0,0,0,2.25,6.117V20.839L4.818,18.38a3.082,3.082,0,0,1,2.889-4.154Z" fill="#fff"/>
    </g>
  </g>
</svg>
