<svg xmlns="http://www.w3.org/2000/svg" width="51" height="51" viewBox="0 0 51 51">
  <g id="Grupo_898346" data-name="Grupo 898346" transform="translate(-382.795 -2074)">
    <circle id="Elipse_5167" data-name="Elipse 5167" cx="25.5" cy="25.5" r="25.5" transform="translate(382.795 2074)" fill="#222b5a"/>
    <path id="Icon_awesome-clipboard-list" data-name="Icon awesome-clipboard-list" d="M19.591,3.732H14.927a3.732,3.732,0,1,0-7.463,0H2.8A2.8,2.8,0,0,0,0,6.53V27.054a2.8,2.8,0,0,0,2.8,2.8H19.591a2.8,2.8,0,0,0,2.8-2.8V6.53A2.8,2.8,0,0,0,19.591,3.732ZM5.6,24.722a1.4,1.4,0,1,1,1.4-1.4A1.4,1.4,0,0,1,5.6,24.722Zm0-5.6a1.4,1.4,0,1,1,1.4-1.4A1.4,1.4,0,0,1,5.6,19.125Zm0-5.6a1.4,1.4,0,1,1,1.4-1.4A1.4,1.4,0,0,1,5.6,13.527Zm5.6-11.195a1.4,1.4,0,1,1-1.4,1.4A1.4,1.4,0,0,1,11.195,2.332Zm7.463,21.457a.468.468,0,0,1-.466.466H9.8a.468.468,0,0,1-.466-.466v-.933A.468.468,0,0,1,9.8,22.39h8.4a.468.468,0,0,1,.466.466Zm0-5.6a.468.468,0,0,1-.466.466H9.8a.468.468,0,0,1-.466-.466v-.933a.468.468,0,0,1,.466-.466h8.4a.468.468,0,0,1,.466.466Zm0-5.6a.468.468,0,0,1-.466.466H9.8a.468.468,0,0,1-.466-.466v-.933a.468.468,0,0,1,.466-.466h8.4a.468.468,0,0,1,.466.466Z" transform="translate(396.795 2083.807)" fill="#fff"/>
  </g>
</svg>
