<svg xmlns="http://www.w3.org/2000/svg" width="715" height="402" viewBox="0 0 715 402">
  <g id="Grupo_898342" data-name="Grupo 898342" transform="translate(-650 -7983.823)">
    <rect id="Rectángulo_297119" data-name="Rectángulo 297119" width="715" height="402" rx="17" transform="translate(650 7983.823)" fill="#fff"/>
    <g id="Grupo_896353" data-name="Grupo 896353" transform="translate(-130.699 -194.605)">
      <g id="Grupo_896342" data-name="Grupo 896342" transform="translate(930.699 8232.429)">
        <g id="Grupo_888237" data-name="Grupo 888237" transform="translate(0 0)">
          <g id="Grupo_888226" data-name="Grupo 888226" transform="translate(0 270.843)">
            <g id="Grupo_888225" data-name="Grupo 888225">
              <path id="Trazado_621953" data-name="Trazado 621953" d="M192.224,423.132H178.579a16.426,16.426,0,0,1,0-2.858h13.645a16.438,16.438,0,0,1,0,2.858Z" transform="translate(-178.517 -420.274)" fill="#c4c4c4"/>
            </g>
          </g>
          <g id="Grupo_888228" data-name="Grupo 888228" transform="translate(0 240.753)">
            <g id="Grupo_888227" data-name="Grupo 888227">
              <path id="Trazado_621954" data-name="Trazado 621954" d="M192.224,406.835H178.579a16.426,16.426,0,0,1,0-2.858h13.645a16.438,16.438,0,0,1,0,2.858Z" transform="translate(-178.517 -403.977)" fill="#c4c4c4"/>
            </g>
          </g>
          <g id="Grupo_888230" data-name="Grupo 888230" transform="translate(0 210.66)">
            <g id="Grupo_888229" data-name="Grupo 888229">
              <path id="Trazado_621955" data-name="Trazado 621955" d="M192.224,390.537H178.579a16.428,16.428,0,0,1,0-2.858h13.645a16.44,16.44,0,0,1,0,2.858Z" transform="translate(-178.517 -387.679)" fill="#c4c4c4"/>
            </g>
          </g>
          <g id="Grupo_888232" data-name="Grupo 888232" transform="translate(0 180.565)">
            <g id="Grupo_888231" data-name="Grupo 888231">
              <path id="Trazado_621956" data-name="Trazado 621956" d="M192.224,374.238H178.579a16.428,16.428,0,0,1,0-2.858h13.645a16.44,16.44,0,0,1,0,2.858Z" transform="translate(-178.517 -371.38)" fill="#c4c4c4"/>
            </g>
          </g>
          <g id="Grupo_888234" data-name="Grupo 888234" transform="translate(0 150.47)">
            <g id="Grupo_888233" data-name="Grupo 888233">
              <path id="Trazado_621957" data-name="Trazado 621957" d="M192.224,357.939H178.579a16.427,16.427,0,0,1,0-2.858h13.645a16.439,16.439,0,0,1,0,2.858Z" transform="translate(-178.517 -355.081)" fill="#c4c4c4"/>
            </g>
          </g>
          <g id="Grupo_888236" data-name="Grupo 888236" transform="translate(0 120.378)">
            <g id="Grupo_888235" data-name="Grupo 888235">
              <path id="Trazado_621958" data-name="Trazado 621958" d="M192.224,341.641H178.579a16.426,16.426,0,0,1,0-2.858h13.645a16.438,16.438,0,0,1,0,2.858Z" transform="translate(-178.517 -338.783)" fill="#c4c4c4"/>
            </g>
          </g>
          <g id="Grupo_896343" data-name="Grupo 896343" transform="translate(0 90.282)">
            <g id="Grupo_888235-2" data-name="Grupo 888235">
              <path id="Trazado_621958-2" data-name="Trazado 621958" d="M192.224,341.641H178.579a16.426,16.426,0,0,1,0-2.858h13.645a16.438,16.438,0,0,1,0,2.858Z" transform="translate(-178.517 -338.783)" fill="#c4c4c4"/>
            </g>
          </g>
          <g id="Grupo_896344" data-name="Grupo 896344" transform="translate(0 60.191)">
            <g id="Grupo_888235-3" data-name="Grupo 888235">
              <path id="Trazado_621958-3" data-name="Trazado 621958" d="M192.224,341.641H178.579a16.426,16.426,0,0,1,0-2.858h13.645a16.438,16.438,0,0,1,0,2.858Z" transform="translate(-178.517 -338.783)" fill="#c4c4c4"/>
            </g>
          </g>
          <g id="Grupo_896345" data-name="Grupo 896345" transform="translate(0 30.096)">
            <g id="Grupo_888235-4" data-name="Grupo 888235">
              <path id="Trazado_621958-4" data-name="Trazado 621958" d="M192.224,341.641H178.579a16.426,16.426,0,0,1,0-2.858h13.645a16.438,16.438,0,0,1,0,2.858Z" transform="translate(-178.517 -338.783)" fill="#c4c4c4"/>
            </g>
          </g>
          <g id="Grupo_896346" data-name="Grupo 896346" transform="translate(0 0)">
            <g id="Grupo_888235-5" data-name="Grupo 888235">
              <path id="Trazado_621958-5" data-name="Trazado 621958" d="M192.224,341.641H178.579a16.426,16.426,0,0,1,0-2.858h13.645a16.438,16.438,0,0,1,0,2.858Z" transform="translate(-178.517 -338.783)" fill="#c4c4c4"/>
            </g>
          </g>
        </g>
        <g id="Grupo_896347" data-name="Grupo 896347" transform="translate(455.528 299.232) rotate(90)">
          <g id="Grupo_888226-2" data-name="Grupo 888226" transform="translate(0 427.095)">
            <g id="Grupo_888225-2" data-name="Grupo 888225">
              <path id="Trazado_621953-2" data-name="Trazado 621953" d="M13.707,2.858H.062A8.218,8.218,0,0,1,0,1.429,8.246,8.246,0,0,1,.062,0H13.707a8.249,8.249,0,0,1,.062,1.429A8.221,8.221,0,0,1,13.707,2.858Z" fill="#c4c4c4"/>
            </g>
          </g>
          <g id="Grupo_888228-2" data-name="Grupo 888228" transform="translate(0 397.004)">
            <g id="Grupo_888227-2" data-name="Grupo 888227">
              <path id="Trazado_621954-2" data-name="Trazado 621954" d="M13.707,2.858H.062A8.218,8.218,0,0,1,0,1.429,8.246,8.246,0,0,1,.062,0H13.707a8.249,8.249,0,0,1,.062,1.429A8.221,8.221,0,0,1,13.707,2.858Z" fill="#c4c4c4"/>
            </g>
          </g>
          <g id="Grupo_888230-2" data-name="Grupo 888230" transform="translate(0 366.911)">
            <g id="Grupo_888229-2" data-name="Grupo 888229">
              <path id="Trazado_621955-2" data-name="Trazado 621955" d="M13.707,2.858H.062A8.246,8.246,0,0,1,0,1.429,8.221,8.221,0,0,1,.062,0H13.707a8.224,8.224,0,0,1,.062,1.429A8.248,8.248,0,0,1,13.707,2.858Z" fill="#c4c4c4"/>
            </g>
          </g>
          <g id="Grupo_888232-2" data-name="Grupo 888232" transform="translate(0 336.817)">
            <g id="Grupo_888231-2" data-name="Grupo 888231">
              <path id="Trazado_621956-2" data-name="Trazado 621956" d="M13.707,2.858H.062A8.246,8.246,0,0,1,0,1.429,8.22,8.22,0,0,1,.062,0H13.707a8.223,8.223,0,0,1,.062,1.429A8.249,8.249,0,0,1,13.707,2.858Z" fill="#c4c4c4"/>
            </g>
          </g>
          <g id="Grupo_888234-2" data-name="Grupo 888234" transform="translate(0 306.722)">
            <g id="Grupo_888233-2" data-name="Grupo 888233">
              <path id="Trazado_621957-2" data-name="Trazado 621957" d="M13.707,2.858H.062A8.246,8.246,0,0,1,0,1.429,8.246,8.246,0,0,1,.062,0H13.707a8.248,8.248,0,0,1,.062,1.429A8.249,8.249,0,0,1,13.707,2.858Z" fill="#c4c4c4"/>
            </g>
          </g>
          <g id="Grupo_888236-2" data-name="Grupo 888236" transform="translate(0 276.629)">
            <g id="Grupo_888235-6" data-name="Grupo 888235">
              <path id="Trazado_621958-6" data-name="Trazado 621958" d="M13.707,2.858H.062A8.246,8.246,0,0,1,0,1.429,8.219,8.219,0,0,1,.062,0H13.707a8.221,8.221,0,0,1,.062,1.429A8.248,8.248,0,0,1,13.707,2.858Z" fill="#c4c4c4"/>
            </g>
          </g>
          <g id="Grupo_896343-2" data-name="Grupo 896343" transform="translate(0 246.534)">
            <g id="Grupo_888235-7" data-name="Grupo 888235">
              <path id="Trazado_621958-7" data-name="Trazado 621958" d="M13.707,2.858H.062A8.246,8.246,0,0,1,0,1.429,8.219,8.219,0,0,1,.062,0H13.707a8.221,8.221,0,0,1,.062,1.429A8.248,8.248,0,0,1,13.707,2.858Z" fill="#c4c4c4"/>
            </g>
          </g>
          <g id="Grupo_896344-2" data-name="Grupo 896344" transform="translate(0 216.443)">
            <g id="Grupo_888235-8" data-name="Grupo 888235">
              <path id="Trazado_621958-8" data-name="Trazado 621958" d="M13.707,2.858H.062A8.246,8.246,0,0,1,0,1.429,8.219,8.219,0,0,1,.062,0H13.707a8.221,8.221,0,0,1,.062,1.429A8.248,8.248,0,0,1,13.707,2.858Z" fill="#c4c4c4"/>
            </g>
          </g>
          <g id="Grupo_896345-2" data-name="Grupo 896345" transform="translate(0 186.347)">
            <g id="Grupo_888235-9" data-name="Grupo 888235">
              <path id="Trazado_621958-9" data-name="Trazado 621958" d="M13.707,2.858H.062A8.246,8.246,0,0,1,0,1.429,8.219,8.219,0,0,1,.062,0H13.707a8.221,8.221,0,0,1,.062,1.429A8.248,8.248,0,0,1,13.707,2.858Z" fill="#c4c4c4"/>
            </g>
          </g>
          <g id="Grupo_896346-2" data-name="Grupo 896346" transform="translate(0 156.252)">
            <g id="Grupo_888235-10" data-name="Grupo 888235">
              <path id="Trazado_621958-10" data-name="Trazado 621958" d="M13.707,2.858H.062A8.246,8.246,0,0,1,0,1.429,8.219,8.219,0,0,1,.062,0H13.707a8.221,8.221,0,0,1,.062,1.429A8.248,8.248,0,0,1,13.707,2.858Z" fill="#c4c4c4"/>
            </g>
          </g>
          <g id="Grupo_896348" data-name="Grupo 896348" transform="translate(0 126.161)">
            <g id="Grupo_888235-11" data-name="Grupo 888235">
              <path id="Trazado_621958-11" data-name="Trazado 621958" d="M13.707,2.858H.062A8.246,8.246,0,0,1,0,1.429,8.219,8.219,0,0,1,.062,0H13.707a8.221,8.221,0,0,1,.062,1.429A8.248,8.248,0,0,1,13.707,2.858Z" fill="#c4c4c4"/>
            </g>
          </g>
          <g id="Grupo_896349" data-name="Grupo 896349" transform="translate(0 94.138)">
            <g id="Grupo_888235-12" data-name="Grupo 888235">
              <path id="Trazado_621958-12" data-name="Trazado 621958" d="M13.707,2.858H.062A8.246,8.246,0,0,1,0,1.429,8.219,8.219,0,0,1,.062,0H13.707a8.221,8.221,0,0,1,.062,1.429A8.248,8.248,0,0,1,13.707,2.858Z" fill="#c4c4c4"/>
            </g>
          </g>
          <g id="Grupo_896350" data-name="Grupo 896350" transform="translate(0 62.114)">
            <g id="Grupo_888235-13" data-name="Grupo 888235">
              <path id="Trazado_621958-13" data-name="Trazado 621958" d="M13.707,2.858H.062A8.246,8.246,0,0,1,0,1.429,8.219,8.219,0,0,1,.062,0H13.707a8.221,8.221,0,0,1,.062,1.429A8.248,8.248,0,0,1,13.707,2.858Z" fill="#c4c4c4"/>
            </g>
          </g>
          <g id="Grupo_896351" data-name="Grupo 896351" transform="translate(0 30.091)">
            <g id="Grupo_888235-14" data-name="Grupo 888235">
              <path id="Trazado_621958-14" data-name="Trazado 621958" d="M13.707,2.858H.062A8.246,8.246,0,0,1,0,1.429,8.219,8.219,0,0,1,.062,0H13.707a8.221,8.221,0,0,1,.062,1.429A8.248,8.248,0,0,1,13.707,2.858Z" fill="#c4c4c4"/>
            </g>
          </g>
          <g id="Grupo_896352" data-name="Grupo 896352">
            <g id="Grupo_888235-15" data-name="Grupo 888235">
              <path id="Trazado_621958-15" data-name="Trazado 621958" d="M13.707,2.858H.062A8.246,8.246,0,0,1,0,1.429,8.219,8.219,0,0,1,.062,0H13.707a8.221,8.221,0,0,1,.062,1.429A8.248,8.248,0,0,1,13.707,2.858Z" fill="#c4c4c4"/>
            </g>
          </g>
        </g>
        <g id="Grupo_888238" data-name="Grupo 888238" transform="translate(3.875 18.243)">
          <path id="Trazado_621959" data-name="Trazado 621959" d="M624.314,623.448H177.172c-2.163,0-3.918-1.277-3.918-2.858V341.141c0-1.58,1.755-2.858,3.918-2.858s3.918,1.277,3.918,2.858V617.733H624.314c2.155,0,3.918,1.28,3.918,2.857S626.469,623.448,624.314,623.448Z" transform="translate(-173.254 -338.283)" fill="#c4c4c4"/>
        </g>
        <rect id="Rectángulo_297105" data-name="Rectángulo 297105" width="27" height="28" transform="translate(60.1 266)" fill="#00acc1"/>
        <rect id="Rectángulo_297106" data-name="Rectángulo 297106" width="28" height="41" transform="translate(89.1 253)" fill="#00acc1"/>
        <rect id="Rectángulo_297107" data-name="Rectángulo 297107" width="27" height="93" transform="translate(120.1 201)" fill="#00acc1"/>
        <rect id="Rectángulo_297108" data-name="Rectángulo 297108" width="26" height="196" transform="translate(150.101 98)" fill="#00acc1"/>
        <rect id="Rectángulo_297109" data-name="Rectángulo 297109" width="28" height="261" transform="translate(179.1 33)" fill="#00acc1"/>
        <rect id="Rectángulo_297110" data-name="Rectángulo 297110" width="28" height="210" transform="translate(209.1 84)" fill="#00acc1"/>
        <rect id="Rectángulo_297111" data-name="Rectángulo 297111" width="28" height="160" transform="translate(238.1 134)" fill="#00acc1"/>
        <rect id="Rectángulo_297112" data-name="Rectángulo 297112" width="28" height="185" transform="translate(268.101 109)" fill="#00acc1"/>
        <rect id="Rectángulo_297113" data-name="Rectángulo 297113" width="28" height="135" transform="translate(327.1 159)" fill="#f1b62b"/>
        <rect id="Rectángulo_297114" data-name="Rectángulo 297114" width="27" height="93" transform="translate(358.101 201)" fill="#f1b62b"/>
        <rect id="Rectángulo_297115" data-name="Rectángulo 297115" width="27" height="41" transform="translate(387.101 253)" fill="#f1b62b"/>
        <rect id="Rectángulo_297116" data-name="Rectángulo 297116" width="28" height="28" transform="translate(417.101 266)" fill="#f1b62b"/>
        <rect id="Rectángulo_297117" data-name="Rectángulo 297117" width="13" height="235" transform="translate(298.101 59)" fill="#00acc1"/>
        <rect id="Rectángulo_297118" data-name="Rectángulo 297118" width="14" height="235" transform="translate(311.101 59)" fill="#f1b62b"/>
      </g>
    </g>
  </g>
</svg>
