<svg xmlns="http://www.w3.org/2000/svg" width="89" height="89" viewBox="0 0 89 89">
  <g id="Grupo_898357" data-name="Grupo 898357" transform="translate(-261 -5286)">
    <circle id="Elipse_6259" data-name="Elipse 6259" cx="44.5" cy="44.5" r="44.5" transform="translate(261 5286)" fill="#179587"/>
    <path id="Icon_awesome-check-square" data-name="Icon awesome-check-square" d="M41.614,48.858H4.994A4.994,4.994,0,0,1,0,43.864V7.244A4.994,4.994,0,0,1,4.994,2.25h36.62a4.994,4.994,0,0,1,4.994,4.994V43.864A4.994,4.994,0,0,1,41.614,48.858ZM20.32,38.656,39.462,19.514a1.665,1.665,0,0,0,0-2.354l-2.354-2.354a1.665,1.665,0,0,0-2.354,0L19.143,30.417l-7.289-7.289a1.665,1.665,0,0,0-2.354,0L7.146,25.482a1.665,1.665,0,0,0,0,2.354l10.82,10.82a1.664,1.664,0,0,0,2.354,0Z" transform="translate(282 5303.75)" fill="#fff"/>
  </g>
</svg>
