<svg xmlns="http://www.w3.org/2000/svg" width="51" height="51" viewBox="0 0 51 51">
  <g id="Grupo_898350" data-name="Grupo 898350" transform="translate(-825.295 -2012)">
    <circle id="Elipse_5180" data-name="Elipse 5180" cx="25.5" cy="25.5" r="25.5" transform="translate(825.295 2012)" fill="#222b5a"/>
    <path id="Icon_awesome-book-reader" data-name="Icon awesome-book-reader" d="M22.043,6.012a6.012,6.012,0,1,0-6.012,6.012A6.012,6.012,0,0,0,22.043,6.012ZM14.628,15.1c-3.715-2.274-9.733-2.9-12.762-3.072A1.733,1.733,0,0,0,0,13.723V27.675a1.722,1.722,0,0,0,1.659,1.694c2.734.143,8.265.669,12.088,2.594a.872.872,0,0,0,1.282-.743v-15.4a.833.833,0,0,0-.4-.718ZM30.2,12.026c-3.028.172-9.046.8-12.761,3.072a.849.849,0,0,0-.4.728V31.218a.874.874,0,0,0,1.286.745c3.822-1.924,9.351-2.449,12.084-2.593a1.723,1.723,0,0,0,1.659-1.695V13.723A1.733,1.733,0,0,0,30.2,12.026Z" transform="translate(834.764 2019.566)" fill="#fff"/>
  </g>
</svg>
