<svg xmlns="http://www.w3.org/2000/svg" width="51" height="51" viewBox="0 0 51 51">
  <g id="Grupo_898351" data-name="Grupo 898351" transform="translate(-825.295 -2067)">
    <circle id="Elipse_5181" data-name="Elipse 5181" cx="25.5" cy="25.5" r="25.5" transform="translate(825.295 2067)" fill="#222b5a"/>
    <path id="Icon_awesome-list-alt" data-name="Icon awesome-list-alt" d="M28.253,29.529H2.923A2.923,2.923,0,0,1,0,26.606V5.173A2.923,2.923,0,0,1,2.923,2.25H28.253a2.923,2.923,0,0,1,2.923,2.923V26.606A2.923,2.923,0,0,1,28.253,29.529ZM7.794,7.608a2.436,2.436,0,1,0,2.436,2.436A2.436,2.436,0,0,0,7.794,7.608Zm0,5.846A2.436,2.436,0,1,0,10.23,15.89,2.436,2.436,0,0,0,7.794,13.454Zm0,5.846a2.436,2.436,0,1,0,2.436,2.436A2.436,2.436,0,0,0,7.794,19.3Zm17.537-8.281V9.07a.731.731,0,0,0-.731-.731H12.422a.731.731,0,0,0-.731.731v1.949a.731.731,0,0,0,.731.731H24.6A.731.731,0,0,0,25.331,11.018Zm0,5.846V14.915a.731.731,0,0,0-.731-.731H12.422a.731.731,0,0,0-.731.731v1.949a.731.731,0,0,0,.731.731H24.6A.731.731,0,0,0,25.331,16.864Zm0,5.846V20.761a.731.731,0,0,0-.731-.731H12.422a.731.731,0,0,0-.731.731v1.949a.731.731,0,0,0,.731.731H24.6A.731.731,0,0,0,25.331,22.709Z" transform="translate(836.391 2077.121)" fill="#fff"/>
  </g>
</svg>
