<svg xmlns="http://www.w3.org/2000/svg" width="89" height="89" viewBox="0 0 89 89">
  <g id="Grupo_898355" data-name="Grupo 898355" transform="translate(-261 -5087)">
    <circle id="Elipse_6259" data-name="Elipse 6259" cx="44.5" cy="44.5" r="44.5" transform="translate(261 5087)" fill="#179587"/>
    <path id="Icon_material-perm-device-information" data-name="Icon material-perm-device-information" d="M29.868,18.276H24.276v5.592h5.592Zm0,11.184H24.276V46.235h5.592ZM41.052,1.528,13.092,1.5A5.608,5.608,0,0,0,7.5,7.092V57.419a5.608,5.608,0,0,0,5.592,5.592h27.96a5.608,5.608,0,0,0,5.592-5.592V7.092a5.584,5.584,0,0,0-5.592-5.564Zm0,50.3H13.092V12.684h27.96Z" transform="translate(278.5 5098.5)" fill="#fff"/>
  </g>
</svg>
