<svg xmlns="http://www.w3.org/2000/svg" width="89" height="89" viewBox="0 0 89 89">
  <g id="Grupo_898356" data-name="Grupo 898356" transform="translate(-781 -5087)">
    <circle id="Elipse_6259" data-name="Elipse 6259" cx="44.5" cy="44.5" r="44.5" transform="translate(781 5087)" fill="#179587"/>
    <path id="Icon_awesome-search-plus" data-name="Icon awesome-search-plus" d="M28.048,17.715v2.952a1.11,1.11,0,0,1-1.107,1.107H21.774v5.167a1.11,1.11,0,0,1-1.107,1.107H17.715a1.11,1.11,0,0,1-1.107-1.107V21.774H11.441a1.11,1.11,0,0,1-1.107-1.107V17.715a1.11,1.11,0,0,1,1.107-1.107h5.167V11.441a1.11,1.11,0,0,1,1.107-1.107h2.952a1.11,1.11,0,0,1,1.107,1.107v5.167h5.167A1.11,1.11,0,0,1,28.048,17.715ZM46.593,43.982l-2.611,2.611a2.205,2.205,0,0,1-3.128,0l-9.208-9.2A2.213,2.213,0,0,1,31,35.826v-1.5A19.182,19.182,0,1,1,34.322,31h1.5a2.213,2.213,0,0,1,1.568.646l9.2,9.2A2.233,2.233,0,0,1,46.593,43.982ZM31.739,19.191A12.548,12.548,0,1,0,19.191,31.739,12.537,12.537,0,0,0,31.739,19.191Z" transform="translate(804 5108)" fill="#fff"/>
  </g>
</svg>
