<svg xmlns="http://www.w3.org/2000/svg" width="335.758" height="313.649" viewBox="0 0 335.758 313.649">
  <g id="Grupo_887843" data-name="Grupo 887843" transform="translate(-30.539 -43.533)">
    <g id="Background_Complete" data-name="Background Complete" transform="translate(31.201 43.533)">
      <g id="Grupo_884361" data-name="Grupo 884361" transform="translate(0 169.889)">
        <g id="Grupo_884360" data-name="Grupo 884360">
          <path id="Trazado_618998" data-name="Trazado 618998" d="M35.338,423.895v19.288h4.455a27.018,27.018,0,0,1,0-6.116c.426-2.276,5.263-8.139,5.12-13.172Z" transform="translate(-32.308 -301.13)" fill="#ebebeb"/>
          <path id="Trazado_618999" data-name="Trazado 618999" d="M81.655,423.895v19.288H86.11a27.066,27.066,0,0,1,0-6.116c.427-2.276,5.263-8.139,5.12-13.172Z" transform="translate(-42.988 -301.13)" fill="#e0e0e0"/>
          <path id="Trazado_619000" data-name="Trazado 619000" d="M124.116,423.895v19.288h-4.455a27.018,27.018,0,0,0,0-6.116c-.426-2.276-5.263-8.139-5.12-13.172Z" transform="translate(-50.571 -301.13)" fill="#ebebeb"/>
          <path id="Trazado_619001" data-name="Trazado 619001" d="M164.209,423.895v19.288h-4.455a27.017,27.017,0,0,0,0-6.116c-.426-2.276-5.262-8.139-5.12-13.172Z" transform="translate(-59.816 -301.13)" fill="#e0e0e0"/>
          <rect id="Rectángulo_296043" data-name="Rectángulo 296043" width="106.729" height="95.846" transform="translate(0 27.542)" fill="#f5f5f5"/>
          <path id="Trazado_619002" data-name="Trazado 619002" d="M132.745,300.133l.794,95.846H161.5V300.13Z" transform="translate(-54.769 -272.591)" fill="#e0e0e0"/>
          <rect id="Rectángulo_296044" data-name="Rectángulo 296044" width="68.523" height="24.388" transform="translate(4.803 34.593)" fill="#ebebeb"/>
          <rect id="Rectángulo_296045" data-name="Rectángulo 296045" width="68.523" height="24.388" transform="translate(4.803 63.843)" fill="#ebebeb"/>
          <rect id="Rectángulo_296046" data-name="Rectángulo 296046" width="68.523" height="24.388" transform="translate(4.803 93.093)" fill="#ebebeb"/>
          <g id="Grupo_884359" data-name="Grupo 884359" transform="translate(28.115)">
            <g id="Grupo_884354" data-name="Grupo 884354">
              <g id="Grupo_884353" data-name="Grupo 884353">
                <path id="Trazado_619003" data-name="Trazado 619003" d="M70.9,264.338,67.94,291.766h37.869l3.141-27.428Z" transform="translate(-67.94 -264.338)" fill="#e0e0e0"/>
              </g>
            </g>
            <g id="Grupo_884356" data-name="Grupo 884356" transform="translate(1.637 1.97)">
              <g id="Grupo_884355" data-name="Grupo 884355">
                <path id="Trazado_619004" data-name="Trazado 619004" d="M72.944,266.9l-2.875,24h34.176l2.765-24Z" transform="translate(-70.068 -266.899)" fill="#fff"/>
              </g>
            </g>
            <g id="Grupo_884358" data-name="Grupo 884358" transform="translate(8.495 6.007)">
              <g id="Grupo_884357" data-name="Grupo 884357">
                <path id="Trazado_619005" data-name="Trazado 619005" d="M80.75,272.146l-1.769,15.927h21.568l1.107-15.927Z" transform="translate(-78.981 -272.146)" fill="#ebebeb"/>
              </g>
            </g>
          </g>
          <path id="Trazado_619006" data-name="Trazado 619006" d="M118.947,279.691l7.822,15.726-9.61-.11,1.788-15.616" transform="translate(-51.175 -267.878)" fill="#ebebeb"/>
        </g>
        <path id="Trazado_619007" data-name="Trazado 619007" d="M83.927,326.053a2.507,2.507,0,1,1-2.507-2.507A2.506,2.506,0,0,1,83.927,326.053Z" transform="translate(-42.356 -277.991)" fill="#e0e0e0"/>
        <path id="Trazado_619008" data-name="Trazado 619008" d="M83.927,364.446a2.507,2.507,0,1,1-2.507-2.507A2.506,2.506,0,0,1,83.927,364.446Z" transform="translate(-42.356 -286.844)" fill="#e0e0e0"/>
        <path id="Trazado_619009" data-name="Trazado 619009" d="M83.927,402.839a2.507,2.507,0,1,1-2.507-2.506A2.507,2.507,0,0,1,83.927,402.839Z" transform="translate(-42.356 -295.697)" fill="#e0e0e0"/>
      </g>
      <g id="Grupo_884370" data-name="Grupo 884370" transform="translate(12.702 41.035)">
        <g id="Grupo_884363" data-name="Grupo 884363">
          <g id="Grupo_884362" data-name="Grupo 884362">
            <path id="Trazado_619010" data-name="Trazado 619010" d="M108.426,97.455l-60.518-.588,1.69,78.867,60.51.222Z" transform="translate(-47.908 -96.867)" fill="#e0e0e0"/>
          </g>
        </g>
        <g id="Grupo_884365" data-name="Grupo 884365" transform="translate(3.638 2.73)">
          <g id="Grupo_884364" data-name="Grupo 884364">
            <path id="Trazado_619011" data-name="Trazado 619011" d="M105.612,101.791l-52.975-1.377,1.533,71.528,52.96.652Z" transform="translate(-52.637 -100.415)" fill="#fafafa"/>
          </g>
        </g>
        <g id="Grupo_884367" data-name="Grupo 884367" transform="translate(12.423 14.207)">
          <g id="Grupo_884366" data-name="Grupo 884366">
            <path id="Trazado_619012" data-name="Trazado 619012" d="M99.2,115.916l-35.148-.585,1.071,49.995,35.119-.752Z" transform="translate(-64.054 -115.331)" fill="#ebebeb"/>
          </g>
        </g>
        <g id="Grupo_884369" data-name="Grupo 884369" transform="translate(12.423 14.207)">
          <g id="Grupo_884368" data-name="Grupo 884368">
            <path id="Trazado_619013" data-name="Trazado 619013" d="M65.125,165.326l34.569-26.437-35.64-23.558Z" transform="translate(-64.054 -115.331)" fill="#f5f5f5"/>
          </g>
        </g>
      </g>
      <g id="Grupo_884379" data-name="Grupo 884379" transform="translate(280.53)">
        <g id="Grupo_884372" data-name="Grupo 884372">
          <g id="Grupo_884371" data-name="Grupo 884371">
            <path id="Trazado_619014" data-name="Trazado 619014" d="M449.095,44.05,396,43.533l1.482,69.187,53.083.195Z" transform="translate(-396.004 -43.533)" fill="#e0e0e0"/>
          </g>
        </g>
        <g id="Grupo_884374" data-name="Grupo 884374" transform="translate(3.192 2.395)">
          <g id="Grupo_884373" data-name="Grupo 884373">
            <path id="Trazado_619015" data-name="Trazado 619015" d="M446.626,47.853l-46.474-1.208L401.5,109.4l46.46.572Z" transform="translate(-400.153 -46.646)" fill="#fafafa"/>
          </g>
        </g>
        <g id="Grupo_884376" data-name="Grupo 884376" transform="translate(10.898 12.463)">
          <g id="Grupo_884375" data-name="Grupo 884375">
            <path id="Trazado_619016" data-name="Trazado 619016" d="M441,60.245l-30.834-.513.94,43.859,30.809-.66Z" transform="translate(-410.169 -59.732)" fill="#ebebeb"/>
          </g>
        </g>
        <g id="Grupo_884378" data-name="Grupo 884378" transform="translate(10.898 12.463)">
          <g id="Grupo_884377" data-name="Grupo 884377">
            <path id="Trazado_619017" data-name="Trazado 619017" d="M411.109,103.591,441.435,80.4,410.169,59.732Z" transform="translate(-410.169 -59.732)" fill="#f5f5f5"/>
          </g>
        </g>
      </g>
      <g id="Grupo_884386" data-name="Grupo 884386" transform="translate(274.144 243.652)">
        <g id="Grupo_884380" data-name="Grupo 884380" transform="translate(0 16.999)">
          <path id="Trazado_619018" data-name="Trazado 619018" d="M387.71,382.3c-.226.679,7.694,30.778,7.694,30.778l5.431-1.132L393.367,382.3Z" transform="translate(-387.705 -382.3)" fill="#ebebeb"/>
        </g>
        <g id="Grupo_884381" data-name="Grupo 884381" transform="translate(31.235 12.699)">
          <path id="Trazado_619019" data-name="Trazado 619019" d="M439.163,376.712,428.3,411.789h6.337l10.41-32.588Z" transform="translate(-428.301 -376.712)" fill="#f5f5f5"/>
        </g>
        <g id="Grupo_884382" data-name="Grupo 884382" transform="translate(39.608 7.268)">
          <path id="Trazado_619020" data-name="Trazado 619020" d="M451.63,369.653l-12.447,40.509h6.337l11.994-38.019Z" transform="translate(-439.183 -369.653)" fill="#ebebeb"/>
        </g>
        <g id="Grupo_884383" data-name="Grupo 884383" transform="translate(3.852 45.287)">
          <path id="Trazado_619021" data-name="Trazado 619021" d="M392.711,419.066l6.337,21.952h31.909l5.884-21.952Z" transform="translate(-392.711 -419.066)" fill="#e0e0e0"/>
        </g>
        <g id="Grupo_884385" data-name="Grupo 884385" transform="translate(4.463)">
          <g id="Grupo_884384" data-name="Grupo 884384">
            <path id="Trazado_619022" data-name="Trazado 619022" d="M409.354,405.494a1.142,1.142,0,0,1-.07-.226l-.169-.671c-.145-.617-.351-1.486-.612-2.593-.522-2.283-1.27-5.548-2.193-9.586-1.824-8.145-4.346-19.4-7.162-31.968l.2.157h-5.587l.195-.245c2.833,12.578,5.37,23.845,7.206,32,.893,4.049,1.616,7.324,2.12,9.614.237,1.114.423,1.987.556,2.608.055.282.1.505.135.679a1.162,1.162,0,0,1,.033.235,1.066,1.066,0,0,1-.072-.226c-.045-.171-.1-.392-.172-.671-.149-.617-.359-1.485-.626-2.592-.534-2.283-1.3-5.547-2.242-9.586-1.867-8.144-4.446-19.4-7.327-31.967l-.055-.245h6l.035.157c2.768,12.577,5.246,23.843,7.04,31.994.872,4.049,1.577,7.324,2.07,9.614.232,1.114.413,1.987.542,2.608l.132.679A1.071,1.071,0,0,1,409.354,405.494Z" transform="translate(-393.505 -360.207)" fill="#e0e0e0"/>
          </g>
        </g>
      </g>
    </g>
    <g id="Floor" transform="translate(30.539 355.141)">
      <g id="Grupo_884388" data-name="Grupo 884388">
        <g id="Grupo_884387" data-name="Grupo 884387">
          <path id="Trazado_619024" data-name="Trazado 619024" d="M356.838,448.73c0,.11-73.051.2-163.142.2-90.122,0-163.157-.09-163.157-.2s73.035-.2,163.157-.2C283.787,448.529,356.838,448.619,356.838,448.73Z" transform="translate(-30.539 -448.529)" fill="#263238"/>
        </g>
      </g>
    </g>
    <g id="Plants" transform="translate(282.365 145.038)">
      <g id="Grupo_884405" data-name="Grupo 884405" transform="translate(2.142)">
        <g id="Grupo_884390" data-name="Grupo 884390">
          <g id="Grupo_884389" data-name="Grupo 884389">
            <path id="Trazado_619025" data-name="Trazado 619025" d="M411.948,175.757a3.017,3.017,0,0,0-.546-.167,3.8,3.8,0,0,0-1.669.025,6.027,6.027,0,0,0-2.426,1.245,12.908,12.908,0,0,0-2.462,2.869c-1.573,2.414-2.817,5.754-4.263,9.648a141.527,141.527,0,0,0-4.339,13.565l0,.018-.005.011a3.986,3.986,0,0,1-.9,1.11,1.77,1.77,0,0,1-1.4.446,2.584,2.584,0,0,1-1.288-.743c-.359-.333-.7-.688-1.036-1.045a23.812,23.812,0,0,0-2.133-2.08,3.933,3.933,0,0,0-2.7-1.1,3.648,3.648,0,0,0-2.472,1.647,6.2,6.2,0,0,0-.851,3.056c-.132,2.2.5,4.421.89,6.726l1.317,7.068.681,3.657q.172.924.345,1.858a2.411,2.411,0,0,1-.22,1.97.971.971,0,0,1-1.027.349,2.6,2.6,0,0,1-.909-.474l-1.562-1.169a34.718,34.718,0,0,0-3.26-2.2,12.408,12.408,0,0,0-3.646-1.518,4.283,4.283,0,0,0-1.941.012,2.873,2.873,0,0,0-1.581,1.062,6.528,6.528,0,0,0-1.036,3.845,21.565,21.565,0,0,0,.4,4.17,53.176,53.176,0,0,0,2.346,8.293,11,11,0,0,1,.672,2.14,1.557,1.557,0,0,1-.285,1.187,1.391,1.391,0,0,1-.222.224.756.756,0,0,1-.3.176.923.923,0,0,1-.67-.148,11.462,11.462,0,0,1-1.78-1.416l-1.649-1.529a24.443,24.443,0,0,0-3.5-2.818,7.359,7.359,0,0,0-2.019-.919,2.5,2.5,0,0,0-2.057.255,2.98,2.98,0,0,0-1.164,1.782,9.062,9.062,0,0,0-.275,2.251,19,19,0,0,0,.58,4.6,39.921,39.921,0,0,0,3.341,8.843,66.906,66.906,0,0,0,4.98,8.274,47.251,47.251,0,0,0,3,3.869l3.123,3.828.036.044-.184-.072,4.891-.711a45.106,45.106,0,0,0,4.826-.832,66.993,66.993,0,0,0,9.254-2.776,40.011,40.011,0,0,0,8.423-4.3,19.056,19.056,0,0,0,3.521-3.012A9.106,9.106,0,0,0,408.115,255a2.993,2.993,0,0,0,.339-2.1,2.5,2.5,0,0,0-1.35-1.573,7.335,7.335,0,0,0-2.112-.678,24.482,24.482,0,0,0-4.486-.268l-2.249.023a11.54,11.54,0,0,1-2.27-.149.921.921,0,0,1-.6-.342.741.741,0,0,1-.1-.332,1.39,1.39,0,0,1-.015-.315,1.563,1.563,0,0,1,.589-1.07,10.988,10.988,0,0,1,1.937-1.131,53.305,53.305,0,0,0,7.313-4.563,21.542,21.542,0,0,0,3.1-2.818,6.516,6.516,0,0,0,1.816-3.544,2.875,2.875,0,0,0-.46-1.848,4.293,4.293,0,0,0-1.43-1.313,12.445,12.445,0,0,0-3.721-1.326,34.941,34.941,0,0,0-3.889-.566l-1.942-.185a2.589,2.589,0,0,1-.993-.264.971.971,0,0,1-.518-.954,2.43,2.43,0,0,1,1.166-1.6l1.506-1.143,2.962-2.249,5.727-4.346c1.837-1.447,3.8-2.661,5.18-4.38a6.19,6.19,0,0,0,1.423-2.835,3.642,3.642,0,0,0-.726-2.88,2.651,2.651,0,0,0-1.26-.752,6.062,6.062,0,0,0-1.478-.243,23.747,23.747,0,0,0-2.976.106c-.491.036-.979.072-1.469.077a2.582,2.582,0,0,1-1.453-.317,1.768,1.768,0,0,1-.734-1.271,3.95,3.95,0,0,1,.082-1.424l0-.012.008-.016a141.3,141.3,0,0,0,5.9-12.935,53.093,53.093,0,0,0,3.344-9.985,13.049,13.049,0,0,0,.152-3.772,6.114,6.114,0,0,0-.9-2.571,3.679,3.679,0,0,0-1.191-1.163,2.788,2.788,0,0,0-.512-.249,2.023,2.023,0,0,1,.529.219,3.617,3.617,0,0,1,1.23,1.154,6.122,6.122,0,0,1,.938,2.6,13.016,13.016,0,0,1-.122,3.806,52.506,52.506,0,0,1-3.3,10.034,139.437,139.437,0,0,1-5.862,12.983l.011-.028a3.723,3.723,0,0,0-.072,1.326,1.519,1.519,0,0,0,.629,1.1,2.35,2.35,0,0,0,1.313.271c.476-.007.961-.043,1.45-.081a23.943,23.943,0,0,1,3.011-.115,6.35,6.35,0,0,1,1.545.252,2.926,2.926,0,0,1,1.383.825,3.912,3.912,0,0,1,.8,3.112,6.471,6.471,0,0,1-1.477,2.974c-1.42,1.77-3.4,3-5.226,4.444l-5.714,4.353-2.956,2.253-1.5,1.144a3.509,3.509,0,0,0-.683.6,1.538,1.538,0,0,0-.354.769.626.626,0,0,0,.35.631,2.268,2.268,0,0,0,.866.222l1.937.181a35.218,35.218,0,0,1,3.929.567,12.741,12.741,0,0,1,3.83,1.363,4.641,4.641,0,0,1,1.547,1.422,3.232,3.232,0,0,1,.519,2.067,6.846,6.846,0,0,1-1.9,3.757,21.953,21.953,0,0,1-3.152,2.87,53.544,53.544,0,0,1-7.361,4.6,10.9,10.9,0,0,0-1.862,1.082,1.182,1.182,0,0,0-.461.811,1.033,1.033,0,0,0,.011.238c.01.061.032.206.055.194a.654.654,0,0,0,.358.165,11.293,11.293,0,0,0,2.179.136L400.5,250a24.817,24.817,0,0,1,4.559.271,7.668,7.668,0,0,1,2.227.717,2.89,2.89,0,0,1,1.543,1.821,3.375,3.375,0,0,1-.368,2.371,9.43,9.43,0,0,1-1.369,1.937,19.383,19.383,0,0,1-3.59,3.076A40.357,40.357,0,0,1,395,264.536a67.223,67.223,0,0,1-9.312,2.8,45.112,45.112,0,0,1-4.844.836l-4.9.713-.112.016-.072-.088-.036-.045L372.6,264.93a47.548,47.548,0,0,1-3.009-3.884,67.248,67.248,0,0,1-5.01-8.327,40.336,40.336,0,0,1-3.37-8.933,19.353,19.353,0,0,1-.587-4.69,9.411,9.411,0,0,1,.29-2.353,3.369,3.369,0,0,1,1.323-2,2.9,2.9,0,0,1,2.367-.309,7.694,7.694,0,0,1,2.13.968,24.8,24.8,0,0,1,3.555,2.864l1.645,1.528a11.372,11.372,0,0,0,1.7,1.364.66.66,0,0,0,.376.119c.008.025.122-.068.17-.106a.992.992,0,0,0,.168-.169,1.18,1.18,0,0,0,.205-.909,10.858,10.858,0,0,0-.65-2.052,53.565,53.565,0,0,1-2.354-8.355,21.916,21.916,0,0,1-.4-4.243,6.85,6.85,0,0,1,1.117-4.058,3.228,3.228,0,0,1,1.771-1.185,4.649,4.649,0,0,1,2.1-.015,12.754,12.754,0,0,1,3.752,1.564,35.234,35.234,0,0,1,3.289,2.221l1.555,1.168a2.267,2.267,0,0,0,.789.421.624.624,0,0,0,.685-.226,1.518,1.518,0,0,0,.259-.8,3.473,3.473,0,0,0-.1-.9q-.173-.934-.343-1.857-.34-1.847-.673-3.655-.666-3.615-1.3-7.065c-.379-2.294-1.019-4.538-.882-6.8a6.487,6.487,0,0,1,.9-3.2,3.915,3.915,0,0,1,2.685-1.767,2.915,2.915,0,0,1,1.579.317,6.359,6.359,0,0,1,1.313.852,24,24,0,0,1,2.152,2.111c.337.357.671.71,1.019,1.036a2.353,2.353,0,0,0,1.153.682,1.519,1.519,0,0,0,1.2-.389,3.741,3.741,0,0,0,.839-1.031l-.011.028a139.7,139.7,0,0,1,4.4-13.575c1.463-3.886,2.729-7.233,4.332-9.653a12.885,12.885,0,0,1,2.508-2.875,6.047,6.047,0,0,1,2.474-1.233,3.729,3.729,0,0,1,1.69.008A2.122,2.122,0,0,1,411.948,175.757Z" transform="translate(-360.621 -175.458)" fill="#263238"/>
          </g>
        </g>
        <g id="Grupo_884392" data-name="Grupo 884392" transform="translate(10.728 10.767)">
          <g id="Grupo_884391" data-name="Grupo 884391">
            <path id="Trazado_619026" data-name="Trazado 619026" d="M411.126,189.452a1.227,1.227,0,0,1-.078.251l-.265.723c-.251.656-.6,1.583-1.056,2.767l-3.916,10.161c-3.278,8.613-7.793,20.473-12.778,33.574-4.974,13.123-9.521,24.986-12.892,33.541-1.683,4.279-3.061,7.735-4.033,10.115-.482,1.17-.859,2.089-1.126,2.738l-.3.708a1.319,1.319,0,0,1-.115.237,1.233,1.233,0,0,1,.078-.252c.067-.183.154-.422.265-.723.251-.656.6-1.583,1.056-2.766.933-2.423,2.269-5.888,3.915-10.16l12.781-33.58c4.971-13.118,9.519-24.98,12.889-33.535,1.683-4.279,3.062-7.735,4.034-10.115l1.126-2.738.3-.709A1.254,1.254,0,0,1,411.126,189.452Z" transform="translate(-374.565 -189.452)" fill="#263238"/>
          </g>
        </g>
        <g id="Grupo_884394" data-name="Grupo 884394" transform="translate(34.254 37.313)">
          <g id="Grupo_884393" data-name="Grupo 884393">
            <path id="Trazado_619027" data-name="Trazado 619027" d="M418.592,223.959a13.578,13.578,0,0,1-1.925,1.143l-4.713,2.621c-1.842,1.024-3.52,1.937-4.757,2.556a10.287,10.287,0,0,1-2.055.9,15.738,15.738,0,0,1,1.921-1.146l4.7-2.657c1.843-1.024,3.533-1.915,4.776-2.523A11.438,11.438,0,0,1,418.592,223.959Z" transform="translate(-405.141 -223.954)" fill="#263238"/>
          </g>
        </g>
        <g id="Grupo_884396" data-name="Grupo 884396" transform="translate(25.812 28.295)">
          <g id="Grupo_884395" data-name="Grupo 884395">
            <path id="Trazado_619028" data-name="Trazado 619028" d="M401.987,228.008c-.1.049-1.929-3.442-4.086-7.8s-3.826-7.927-3.727-7.976,1.928,3.442,4.086,7.8S402.086,227.959,401.987,228.008Z" transform="translate(-394.17 -212.233)" fill="#263238"/>
          </g>
        </g>
        <g id="Grupo_884398" data-name="Grupo 884398" transform="translate(16.843 52.676)">
          <g id="Grupo_884397" data-name="Grupo 884397">
            <path id="Trazado_619029" data-name="Trazado 619029" d="M392.571,255.808a11.813,11.813,0,0,1-1.691-1.541c-1-1-2.339-2.421-3.73-4.069s-2.577-3.2-3.4-4.353a11.653,11.653,0,0,1-1.24-1.924,14.508,14.508,0,0,1,1.466,1.753c.874,1.1,2.086,2.626,3.475,4.264s2.687,3.085,3.629,4.133A14.269,14.269,0,0,1,392.571,255.808Z" transform="translate(-382.512 -243.921)" fill="#263238"/>
          </g>
        </g>
        <g id="Grupo_884400" data-name="Grupo 884400" transform="translate(26.917 61.245)">
          <g id="Grupo_884399" data-name="Grupo 884399">
            <path id="Trazado_619030" data-name="Trazado 619030" d="M409.665,255.071a11.068,11.068,0,0,1-2.028.594c-1.265.317-3.018.728-4.958,1.158s-3.7.8-4.984,1.043a11.1,11.1,0,0,1-2.09.318,11.062,11.062,0,0,1,2.028-.594c1.264-.318,3.017-.729,4.959-1.159s3.7-.8,4.983-1.043A10.974,10.974,0,0,1,409.665,255.071Z" transform="translate(-395.605 -255.059)" fill="#263238"/>
          </g>
        </g>
        <g id="Grupo_884402" data-name="Grupo 884402" transform="translate(19.277 80.094)">
          <g id="Grupo_884401" data-name="Grupo 884401">
            <path id="Trazado_619031" data-name="Trazado 619031" d="M403.735,279.566a18.09,18.09,0,0,1-2.615.7c-1.626.381-3.879.88-6.372,1.407s-4.756.983-6.4,1.293a18.187,18.187,0,0,1-2.674.42,18.087,18.087,0,0,1,2.615-.7c1.627-.381,3.879-.88,6.374-1.407s4.754-.983,6.4-1.293A18.182,18.182,0,0,1,403.735,279.566Z" transform="translate(-385.676 -279.556)" fill="#263238"/>
          </g>
        </g>
        <g id="Grupo_884404" data-name="Grupo 884404" transform="translate(7.333 68.282)">
          <g id="Grupo_884403" data-name="Grupo 884403">
            <path id="Trazado_619032" data-name="Trazado 619032" d="M382.5,279.631a2.944,2.944,0,0,1-.578-.525c-.354-.355-.851-.883-1.456-1.543-1.206-1.323-2.834-3.188-4.54-5.324s-3.177-4.128-4.2-5.6c-.514-.734-.917-1.336-1.186-1.758a2.894,2.894,0,0,1-.385-.679,2.953,2.953,0,0,1,.512.589l1.288,1.682c1.081,1.423,2.581,3.385,4.286,5.514s3.29,4.019,4.44,5.388A23.147,23.147,0,0,1,382.5,279.631Z" transform="translate(-370.153 -264.204)" fill="#263238"/>
          </g>
        </g>
      </g>
      <g id="Grupo_884425" data-name="Grupo 884425" transform="translate(0 41.843)">
        <g id="Grupo_884407" data-name="Grupo 884407">
          <g id="Grupo_884406" data-name="Grupo 884406">
            <path id="Trazado_619033" data-name="Trazado 619033" d="M371.966,323.248c-13.36-10.767-15.3-29.183-13.618-45.5.279-2.724.177-5.624,1.64-7.93s4.606-3.736,6.972-2.417c1.962,1.093,2.684,3.513,3.685,5.541a16.012,16.012,0,0,0,5.984,6.556c1.677,1.021,3.79,1.72,5.571.892,2.444-1.138,2.945-4.373,3.115-7.09q.473-7.6.947-15.191a25.388,25.388,0,0,1,1.373-8.01c1.022-2.519,3.052-4.786,5.685-5.332s5.726,1.162,6.089,3.858a25.167,25.167,0,0,1-.155,3.387,2.864,2.864,0,0,0,1.487,2.8c1.063.392,2.2-.3,3.068-1.042,2.991-2.55,5.135-5.952,7.154-9.343s3.991-6.869,6.739-9.685,6.429-4.945,10.334-4.9,7.883,2.732,8.6,6.618-1.777,7.627-4.42,10.559a60.771,60.771,0,0,1-13.447,11.166,5,5,0,0,0-2.267,2.125c-.715,1.77.878,3.686,2.624,4.4,1.978.813,4.189.753,6.289,1.148s4.33,1.486,4.994,3.542c.922,2.852-1.6,5.6-4.014,7.351a52.072,52.072,0,0,1-15.978,7.818c-2.048.593-4.194,1.091-5.9,2.384s-2.847,3.667-2.005,5.647,3.3,2.765,5.418,2.521,4.069-1.252,6.115-1.867c3.829-1.153,8.63-.565,10.8,2.824a8.616,8.616,0,0,1,.393,7.663,19.857,19.857,0,0,1-4.577,6.429,52.34,52.34,0,0,1-23.372,14.14c-8.863,2.407-16.941,2.67-25.329-1.066" transform="translate(-357.837 -229.842)" fill="#e8505b"/>
          </g>
        </g>
        <g id="Grupo_884409" data-name="Grupo 884409" opacity="0.1">
          <g id="Grupo_884408" data-name="Grupo 884408">
            <path id="Trazado_619034" data-name="Trazado 619034" d="M371.966,323.248c-13.36-10.767-15.3-29.183-13.618-45.5.279-2.724.177-5.624,1.64-7.93s4.606-3.736,6.972-2.417c1.962,1.093,2.684,3.513,3.685,5.541a16.012,16.012,0,0,0,5.984,6.556c1.677,1.021,3.79,1.72,5.571.892,2.444-1.138,2.945-4.373,3.115-7.09q.473-7.6.947-15.191a25.388,25.388,0,0,1,1.373-8.01c1.022-2.519,3.052-4.786,5.685-5.332s5.726,1.162,6.089,3.858a25.167,25.167,0,0,1-.155,3.387,2.864,2.864,0,0,0,1.487,2.8c1.063.392,2.2-.3,3.068-1.042,2.991-2.55,5.135-5.952,7.154-9.343s3.991-6.869,6.739-9.685,6.429-4.945,10.334-4.9,7.883,2.732,8.6,6.618-1.777,7.627-4.42,10.559a60.771,60.771,0,0,1-13.447,11.166,5,5,0,0,0-2.267,2.125c-.715,1.77.878,3.686,2.624,4.4,1.978.813,4.189.753,6.289,1.148s4.33,1.486,4.994,3.542c.922,2.852-1.6,5.6-4.014,7.351a52.072,52.072,0,0,1-15.978,7.818c-2.048.593-4.194,1.091-5.9,2.384s-2.847,3.667-2.005,5.647,3.3,2.765,5.418,2.521,4.069-1.252,6.115-1.867c3.829-1.153,8.63-.565,10.8,2.824a8.616,8.616,0,0,1,.393,7.663,19.857,19.857,0,0,1-4.577,6.429,52.34,52.34,0,0,1-23.372,14.14c-8.863,2.407-16.941,2.67-25.329-1.066" transform="translate(-357.837 -229.842)"/>
          </g>
        </g>
        <g id="Grupo_884412" data-name="Grupo 884412" transform="translate(13.083 2.624)">
          <g id="Grupo_884411" data-name="Grupo 884411">
            <g id="Grupo_884410" data-name="Grupo 884410">
              <path id="Trazado_619035" data-name="Trazado 619035" d="M374.841,336.147a119.471,119.471,0,0,1,5.973-22.078,243.865,243.865,0,0,1,11.457-25.537l3.347-6.539c1.1-2.144,2.2-4.27,3.4-6.284a121.791,121.791,0,0,1,7.551-11.174c2.574-3.438,5.141-6.607,7.564-9.552s4.746-5.641,6.962-8.01a96.637,96.637,0,0,1,11.28-10.394c1.423-1.119,2.554-1.95,3.329-2.5l.885-.624a2.021,2.021,0,0,1,.312-.2,1.956,1.956,0,0,1-.282.24l-.856.663c-.754.58-1.867,1.436-3.269,2.576a102.337,102.337,0,0,0-11.141,10.485c-2.194,2.378-4.489,5.084-6.9,8.033s-4.959,6.128-7.516,9.565a123.237,123.237,0,0,0-7.5,11.147c-1.189,2-2.272,4.112-3.376,6.262s-2.214,4.33-3.344,6.537a250.01,250.01,0,0,0-11.47,25.47,121.551,121.551,0,0,0-6.055,21.974" transform="translate(-374.841 -233.252)" fill="#263238"/>
            </g>
          </g>
        </g>
        <g id="Grupo_884415" data-name="Grupo 884415" transform="translate(35.47 14.921)">
          <g id="Grupo_884414" data-name="Grupo 884414">
            <g id="Grupo_884413" data-name="Grupo 884413">
              <path id="Trazado_619036" data-name="Trazado 619036" d="M405.868,279.385a5.461,5.461,0,0,1-.186-1.177c-.091-.76-.186-1.863-.285-3.229-.2-2.731-.344-6.511-.489-10.678s-.343-7.937-.582-10.657c-.116-1.36-.221-2.461-.3-3.219a5.5,5.5,0,0,1-.071-1.19,5.373,5.373,0,0,1,.263,1.161c.142.752.3,1.85.462,3.21.332,2.721.587,6.5.732,10.674.132,4.114.251,7.835.342,10.678.049,1.284.092,2.367.125,3.235A5.476,5.476,0,0,1,405.868,279.385Z" transform="translate(-403.937 -249.235)" fill="#263238"/>
            </g>
          </g>
        </g>
        <g id="Grupo_884418" data-name="Grupo 884418" transform="translate(37.4 40.756)">
          <g id="Grupo_884417" data-name="Grupo 884417">
            <g id="Grupo_884416" data-name="Grupo 884416">
              <path id="Trazado_619037" data-name="Trazado 619037" d="M441.81,283a7.531,7.531,0,0,1-1.4.071c-.9.018-2.206.038-3.816.114-3.221.125-7.666.455-12.553,1.033s-9.288,1.307-12.457,1.92c-1.587.295-2.864.568-3.749.752a7.5,7.5,0,0,1-1.385.241,7.427,7.427,0,0,1,1.34-.433c.872-.242,2.142-.569,3.724-.911,3.159-.7,7.566-1.482,12.468-2.072a123.847,123.847,0,0,1,12.6-.888c1.617-.029,2.925.005,3.829.048A7.439,7.439,0,0,1,441.81,283Z" transform="translate(-406.446 -282.813)" fill="#263238"/>
            </g>
          </g>
        </g>
        <g id="Grupo_884421" data-name="Grupo 884421" transform="translate(5.005 37.027)">
          <g id="Grupo_884420" data-name="Grupo 884420">
            <g id="Grupo_884419" data-name="Grupo 884419">
              <path id="Trazado_619038" data-name="Trazado 619038" d="M378.866,323.767a1.835,1.835,0,0,1-.21-.442c-.139-.352-.307-.783-.511-1.3-.438-1.135-1.029-2.793-1.733-4.851-1.41-4.115-3.179-9.862-5.046-16.228s-3.581-12.124-4.9-16.263l-1.58-4.9c-.169-.534-.309-.974-.422-1.336a1.768,1.768,0,0,1-.115-.478,1.872,1.872,0,0,1,.21.443c.138.352.306.783.511,1.3.438,1.134,1.029,2.792,1.733,4.85,1.41,4.116,3.179,9.862,5.047,16.231s3.58,12.122,4.9,16.261c.65,2.012,1.183,3.668,1.58,4.9.169.534.309.975.422,1.336A1.824,1.824,0,0,1,378.866,323.767Z" transform="translate(-364.342 -277.966)" fill="#263238"/>
            </g>
          </g>
        </g>
        <g id="Grupo_884424" data-name="Grupo 884424" transform="translate(19.529 71.051)">
          <g id="Grupo_884423" data-name="Grupo 884423">
            <g id="Grupo_884422" data-name="Grupo 884422">
              <path id="Trazado_619039" data-name="Trazado 619039" d="M430.642,322.192a1.839,1.839,0,0,1-.473.158l-1.379.359-5.079,1.269c-4.289,1.073-10.194,2.623-16.718,4.343s-12.452,3.219-16.764,4.2c-2.155.492-3.9.874-5.117,1.112l-1.4.267a1.863,1.863,0,0,1-.495.059,1.854,1.854,0,0,1,.473-.159l1.379-.359,5.078-1.269c4.289-1.073,10.195-2.623,16.721-4.345s12.448-3.218,16.76-4.2c2.156-.493,3.9-.874,5.118-1.113l1.4-.266A1.82,1.82,0,0,1,430.642,322.192Z" transform="translate(-383.219 -322.186)" fill="#263238"/>
            </g>
          </g>
        </g>
      </g>
    </g>
    <g id="Checklist" transform="translate(113.015 47.6)">
      <g id="Grupo_884484" data-name="Grupo 884484">
        <g id="Grupo_884426" data-name="Grupo 884426" transform="translate(0 20.291)">
          <rect id="Rectángulo_296047" data-name="Rectángulo 296047" width="186.587" height="255.677" fill="#455a64"/>
        </g>
        <g id="Grupo_884427" data-name="Grupo 884427" transform="translate(15.537 30.625)">
          <path id="Trazado_619040" data-name="Trazado 619040" d="M321.6,318.759H157.926V88.621H321.6V318.759Z" transform="translate(-157.926 -88.621)" fill="#e0e0e0"/>
        </g>
        <g id="Grupo_884428" data-name="Grupo 884428" transform="translate(14.426 27.582)">
          <path id="Trazado_619041" data-name="Trazado 619041" d="M318.683,313.577h-162.2V84.666h162.2V313.577Z" transform="translate(-156.482 -84.666)" fill="#ebebeb"/>
        </g>
        <g id="Grupo_884432" data-name="Grupo 884432" transform="translate(11.197 27.962)">
          <g id="Grupo_884429" data-name="Grupo 884429" transform="translate(0.2 0.201)">
            <path id="Trazado_619042" data-name="Trazado 619042" d="M300.346,295.937l-18.682,15.212H152.546V85.421H316.222V283.067Z" transform="translate(-152.546 -85.421)" fill="#fafafa"/>
          </g>
          <g id="Grupo_884431" data-name="Grupo 884431">
            <g id="Grupo_884430" data-name="Grupo 884430">
              <path id="Trazado_619043" data-name="Trazado 619043" d="M300.286,295.877s.331-.282,1-.83l2.993-2.447,11.845-9.642-.023.049c-.019-32.466-.062-104.607-.118-197.646l.182.181-162.247.019h-1.429l.2-.2c-.015,84.862-.028,163.149-.039,225.728l-.161-.16,129.118.092-.043.015,14.029-11.381,3.515-2.84c.783-.63,1.18-.938,1.18-.938s-.382.326-1.158.966l-3.493,2.868-13.988,11.432-.018.015H281.6l-129.118.092h-.16v-.161c-.011-62.578-.025-140.866-.039-225.728v-.2h1.629l162.247.019h.181v.182c-.055,93.039-.1,165.18-.117,197.646v.031l-.024.019-11.884,9.594-3.013,2.422C300.63,295.611,300.286,295.877,300.286,295.877Z" transform="translate(-152.286 -85.16)" fill="#263238"/>
            </g>
          </g>
        </g>
        <g id="Grupo_884433" data-name="Grupo 884433" transform="translate(59.8 12.387)">
          <path id="Rectángulo_296048" data-name="Rectángulo 296048" d="M14.757,0H52.833A14.154,14.154,0,0,1,66.988,14.154v8.81a0,0,0,0,1,0,0H0a0,0,0,0,1,0,0V14.757A14.757,14.757,0,0,1,14.757,0Z" fill="#e8505b"/>
        </g>
        <g id="Grupo_884434" data-name="Grupo 884434" transform="translate(73.758)">
          <path id="Trazado_619044" data-name="Trazado 619044" d="M236.045,61.205,233.6,48.818h38.57l-2.143,12.387Z" transform="translate(-233.596 -48.818)" fill="#e8505b"/>
        </g>
        <g id="Grupo_884444" data-name="Grupo 884444" transform="translate(28.517 64.125)">
          <g id="Grupo_884435" data-name="Grupo 884435">
            <path id="Trazado_619045" data-name="Trazado 619045" d="M202.371,159.736H174.8V132.161h27.575Zm-26.805-.769H201.6V132.93H175.565Z" transform="translate(-174.796 -132.161)" fill="#e8505b"/>
          </g>
          <g id="Grupo_884437" data-name="Grupo 884437" transform="translate(39.279 6.458)">
            <g id="Grupo_884436" data-name="Grupo 884436">
              <path id="Trazado_619046" data-name="Trazado 619046" d="M311.582,140.756c0,.11-19.194.2-42.865.2s-42.87-.09-42.87-.2,19.19-.2,42.87-.2S311.582,140.645,311.582,140.756Z" transform="translate(-225.847 -140.555)" fill="#263238"/>
            </g>
          </g>
          <g id="Grupo_884439" data-name="Grupo 884439" transform="translate(39.279 12.189)">
            <g id="Grupo_884438" data-name="Grupo 884438">
              <path id="Trazado_619047" data-name="Trazado 619047" d="M311.582,148.2c0,.111-19.194.2-42.865.2s-42.87-.089-42.87-.2,19.19-.2,42.87-.2S311.582,148.092,311.582,148.2Z" transform="translate(-225.847 -148.003)" fill="#263238"/>
            </g>
          </g>
          <g id="Grupo_884441" data-name="Grupo 884441" transform="translate(39.279 17.919)">
            <g id="Grupo_884440" data-name="Grupo 884440">
              <path id="Trazado_619048" data-name="Trazado 619048" d="M311.582,155.65c0,.111-19.194.2-42.865.2s-42.87-.09-42.87-.2,19.19-.2,42.87-.2S311.582,155.539,311.582,155.65Z" transform="translate(-225.847 -155.45)" fill="#263238"/>
            </g>
          </g>
          <g id="Grupo_884443" data-name="Grupo 884443" transform="translate(39.279 23.649)">
            <g id="Grupo_884442" data-name="Grupo 884442">
              <path id="Trazado_619049" data-name="Trazado 619049" d="M311.582,163.1c0,.111-19.194.2-42.865.2s-42.87-.09-42.87-.2,19.19-.2,42.87-.2S311.582,162.987,311.582,163.1Z" transform="translate(-225.847 -162.897)" fill="#263238"/>
            </g>
          </g>
        </g>
        <g id="Grupo_884455" data-name="Grupo 884455" transform="translate(28.517 106.622)">
          <g id="Grupo_884445" data-name="Grupo 884445">
            <path id="Trazado_619050" data-name="Trazado 619050" d="M202.371,214.969H174.8V187.394h27.575Zm-26.805-.769H201.6V188.163H175.565Z" transform="translate(-174.796 -187.394)" fill="#e8505b"/>
          </g>
          <g id="Grupo_884446" data-name="Grupo 884446" transform="translate(5.483 1.746)">
            <path id="Trazado_619051" data-name="Trazado 619051" d="M181.923,202.272l3.661-3.932,6.1,4.881,13.965-13.558,3.346,3.943-17.581,17.343Z" transform="translate(-181.923 -189.664)" fill="#e8505b"/>
          </g>
          <g id="Grupo_884448" data-name="Grupo 884448" transform="translate(39.279 6.459)">
            <g id="Grupo_884447" data-name="Grupo 884447">
              <path id="Trazado_619052" data-name="Trazado 619052" d="M311.582,195.989c0,.111-19.194.2-42.865.2s-42.87-.089-42.87-.2,19.19-.2,42.87-.2S311.582,195.878,311.582,195.989Z" transform="translate(-225.847 -195.789)" fill="#263238"/>
            </g>
          </g>
          <g id="Grupo_884450" data-name="Grupo 884450" transform="translate(39.279 12.189)">
            <g id="Grupo_884449" data-name="Grupo 884449">
              <path id="Trazado_619053" data-name="Trazado 619053" d="M311.582,203.436c0,.111-19.194.2-42.865.2s-42.87-.09-42.87-.2,19.19-.2,42.87-.2S311.582,203.325,311.582,203.436Z" transform="translate(-225.847 -203.236)" fill="#263238"/>
            </g>
          </g>
          <g id="Grupo_884452" data-name="Grupo 884452" transform="translate(39.279 17.919)">
            <g id="Grupo_884451" data-name="Grupo 884451">
              <path id="Trazado_619054" data-name="Trazado 619054" d="M311.582,210.884c0,.11-19.194.2-42.865.2s-42.87-.09-42.87-.2,19.19-.2,42.87-.2S311.582,210.773,311.582,210.884Z" transform="translate(-225.847 -210.683)" fill="#263238"/>
            </g>
          </g>
          <g id="Grupo_884454" data-name="Grupo 884454" transform="translate(39.279 23.649)">
            <g id="Grupo_884453" data-name="Grupo 884453">
              <path id="Trazado_619055" data-name="Trazado 619055" d="M311.582,218.331c0,.111-19.194.2-42.865.2s-42.87-.089-42.87-.2,19.19-.2,42.87-.2S311.582,218.22,311.582,218.331Z" transform="translate(-225.847 -218.13)" fill="#263238"/>
            </g>
          </g>
        </g>
        <g id="Grupo_884466" data-name="Grupo 884466" transform="translate(28.517 147.745)">
          <g id="Grupo_884456" data-name="Grupo 884456">
            <path id="Trazado_619056" data-name="Trazado 619056" d="M202.371,268.417H174.8V240.842h27.575Zm-26.805-.769H201.6V241.611H175.565Z" transform="translate(-174.796 -240.842)" fill="#e8505b"/>
          </g>
          <g id="Grupo_884457" data-name="Grupo 884457" transform="translate(5.483 1.746)">
            <path id="Trazado_619057" data-name="Trazado 619057" d="M181.923,255.721l3.661-3.932,6.1,4.881,13.965-13.558,3.346,3.943L191.413,264.4Z" transform="translate(-181.923 -243.112)" fill="#e8505b"/>
          </g>
          <g id="Grupo_884459" data-name="Grupo 884459" transform="translate(39.279 6.459)">
            <g id="Grupo_884458" data-name="Grupo 884458">
              <path id="Trazado_619058" data-name="Trazado 619058" d="M311.582,249.437c0,.111-19.194.2-42.865.2s-42.87-.089-42.87-.2,19.19-.2,42.87-.2S311.582,249.326,311.582,249.437Z" transform="translate(-225.847 -249.237)" fill="#263238"/>
            </g>
          </g>
          <g id="Grupo_884461" data-name="Grupo 884461" transform="translate(39.279 12.189)">
            <g id="Grupo_884460" data-name="Grupo 884460">
              <path id="Trazado_619059" data-name="Trazado 619059" d="M311.582,256.884c0,.111-19.194.2-42.865.2s-42.87-.09-42.87-.2,19.19-.2,42.87-.2S311.582,256.774,311.582,256.884Z" transform="translate(-225.847 -256.684)" fill="#263238"/>
            </g>
          </g>
          <g id="Grupo_884463" data-name="Grupo 884463" transform="translate(39.279 17.919)">
            <g id="Grupo_884462" data-name="Grupo 884462">
              <path id="Trazado_619060" data-name="Trazado 619060" d="M311.582,264.331c0,.111-19.194.2-42.865.2s-42.87-.09-42.87-.2,19.19-.2,42.87-.2S311.582,264.221,311.582,264.331Z" transform="translate(-225.847 -264.131)" fill="#263238"/>
            </g>
          </g>
          <g id="Grupo_884465" data-name="Grupo 884465" transform="translate(39.279 23.649)">
            <g id="Grupo_884464" data-name="Grupo 884464">
              <path id="Trazado_619061" data-name="Trazado 619061" d="M311.582,271.779c0,.111-19.194.2-42.865.2s-42.87-.089-42.87-.2,19.19-.2,42.87-.2S311.582,271.668,311.582,271.779Z" transform="translate(-225.847 -271.578)" fill="#263238"/>
            </g>
          </g>
        </g>
        <g id="Grupo_884477" data-name="Grupo 884477" transform="translate(28.517 187.451)">
          <g id="Grupo_884467" data-name="Grupo 884467">
            <path id="Trazado_619062" data-name="Trazado 619062" d="M202.371,320.022H174.8V292.448h27.575Zm-26.805-.769H201.6V293.217H175.565Z" transform="translate(-174.796 -292.448)" fill="#e8505b"/>
          </g>
          <g id="Grupo_884468" data-name="Grupo 884468" transform="translate(5.483 1.746)">
            <path id="Trazado_619063" data-name="Trazado 619063" d="M181.923,307.326l3.661-3.932,6.1,4.881,13.965-13.558,3.346,3.943L191.413,316Z" transform="translate(-181.923 -294.717)" fill="#e8505b"/>
          </g>
          <g id="Grupo_884470" data-name="Grupo 884470" transform="translate(39.279 6.458)">
            <g id="Grupo_884469" data-name="Grupo 884469">
              <path id="Trazado_619064" data-name="Trazado 619064" d="M311.582,301.043c0,.11-19.194.2-42.865.2s-42.87-.09-42.87-.2,19.19-.2,42.87-.2S311.582,300.932,311.582,301.043Z" transform="translate(-225.847 -300.842)" fill="#263238"/>
            </g>
          </g>
          <g id="Grupo_884472" data-name="Grupo 884472" transform="translate(39.279 12.188)">
            <g id="Grupo_884471" data-name="Grupo 884471">
              <path id="Trazado_619065" data-name="Trazado 619065" d="M311.582,308.49c0,.111-19.194.2-42.865.2s-42.87-.089-42.87-.2,19.19-.2,42.87-.2S311.582,308.379,311.582,308.49Z" transform="translate(-225.847 -308.289)" fill="#263238"/>
            </g>
          </g>
          <g id="Grupo_884474" data-name="Grupo 884474" transform="translate(39.279 17.919)">
            <g id="Grupo_884473" data-name="Grupo 884473">
              <path id="Trazado_619066" data-name="Trazado 619066" d="M311.582,315.937c0,.111-19.194.2-42.865.2s-42.87-.089-42.87-.2,19.19-.2,42.87-.2S311.582,315.826,311.582,315.937Z" transform="translate(-225.847 -315.737)" fill="#263238"/>
            </g>
          </g>
          <g id="Grupo_884476" data-name="Grupo 884476" transform="translate(39.279 23.649)">
            <g id="Grupo_884475" data-name="Grupo 884475">
              <path id="Trazado_619067" data-name="Trazado 619067" d="M311.582,323.384c0,.111-19.194.2-42.865.2s-42.87-.09-42.87-.2,19.19-.2,42.87-.2S311.582,323.274,311.582,323.384Z" transform="translate(-225.847 -323.184)" fill="#263238"/>
            </g>
          </g>
        </g>
        <g id="Grupo_884478" data-name="Grupo 884478" transform="translate(127.703 216.518)">
          <path id="Trazado_619068" data-name="Trazado 619068" d="M321.653,330.226l-17.944,37.163H316.52Z" transform="translate(-303.708 -330.226)" fill="#e0e0e0"/>
        </g>
        <g id="Grupo_884482" data-name="Grupo 884482" transform="translate(140.514 216.482)">
          <g id="Grupo_884479" data-name="Grupo 884479" transform="translate(0.001 0.246)">
            <path id="Trazado_619069" data-name="Trazado 619069" d="M320.36,367.661l5.132-37.163,29.426,9.081Z" transform="translate(-320.36 -330.498)" fill="#fafafa"/>
          </g>
          <g id="Grupo_884481" data-name="Grupo 884481">
            <g id="Grupo_884480" data-name="Grupo 884480">
              <path id="Trazado_619070" data-name="Trazado 619070" d="M320.36,367.588l9.895-8.144,24.54-20.089.066.339-11.361-3.5-18.063-5.587.242-.155c-1.537,10.795-2.855,20.042-3.792,26.615-.928,6.391-1.406,9.689-1.527,10.522a1.448,1.448,0,0,1,.016-.165l.065-.515c.062-.481.151-1.157.265-2.024.238-1.805.58-4.4,1.01-7.66l3.589-26.825.029-.22.213.065,18.07,5.564,11.358,3.51.352.108-.286.231L330.2,359.691l-7.252,5.828-1.934,1.551-.5.394C320.411,367.552,320.357,367.593,320.36,367.588Z" transform="translate(-320.359 -330.179)" fill="#263238"/>
            </g>
          </g>
        </g>
        <g id="Grupo_884483" data-name="Grupo 884483" transform="translate(107.536)" opacity="0.3">
          <path id="Trazado_619071" data-name="Trazado 619071" d="M279.624,48.818,277.5,61.205h2.649l2.143-12.387h-3.374" transform="translate(-277.498 -48.818)"/>
        </g>
      </g>
    </g>
    <g id="Character" transform="translate(73.123 120.658)">
      <g id="Grupo_884692" data-name="Grupo 884692">
        <g id="Grupo_884499" data-name="Grupo 884499" transform="translate(18.836 6.183)">
          <g id="Grupo_884490" data-name="Grupo 884490" transform="translate(11.911 10.21)">
            <g id="Grupo_884489" data-name="Grupo 884489">
              <g id="Grupo_884488" data-name="Grupo 884488">
                <g id="Grupo_884487" data-name="Grupo 884487">
                  <g id="Grupo_884486" data-name="Grupo 884486">
                    <g id="Grupo_884485" data-name="Grupo 884485">
                      <path id="Trazado_619072" data-name="Trazado 619072" d="M131.68,206.276h0a6.921,6.921,0,0,0,7.445-6.636c.145-3.768.272-7.576.272-7.576s5.709-.535,6.123-6.185.225-18.694.225-18.694h0a19.689,19.689,0,0,0-19.9,1.28l.352,19.885v10.7C126.236,202.636,128.1,206,131.68,206.276Z" transform="translate(-125.847 -165.078)" fill="#ffbe9d"/>
                    </g>
                  </g>
                </g>
              </g>
            </g>
          </g>
          <g id="Grupo_884491" data-name="Grupo 884491" transform="translate(8.976 5.472)">
            <path id="Trazado_619073" data-name="Trazado 619073" d="M139.008,177.56a2.9,2.9,0,0,0-3.861-.843,3.285,3.285,0,0,0-1.094,4.106,4.326,4.326,0,0,0,2.772,2.1,2.171,2.171,0,0,1,1.7,2.337,7.233,7.233,0,0,1-1.984,3.935,10.431,10.431,0,0,1-6.541,3.1c-2.406.285-5.163-.217-6.563-2.2-1.019-1.439-1.093-3.32-1.129-5.083l-.259-12.5a17.91,17.91,0,0,1,.285-4.484,6.02,6.02,0,0,1,2.365-3.709c1.374-.9,3.115-.981,4.681-1.487,1.957-.633,3.619-1.931,5.45-2.868s4.075-1.5,5.913-.574c1.32.662,2.2,1.979,3.487,2.708,1.827,1.039,4.314.8,5.2,3.489a4.554,4.554,0,0,1-.031,2.873c-1.239,3.655-5.766,5.13-9.027,3.549-.064.619.546,2-.106,3.953-.208.625-.282,1.578-1.26,1.6" transform="translate(-122.032 -158.92)" fill="#263238"/>
          </g>
          <g id="Grupo_884492" data-name="Grupo 884492" transform="translate(0.764)">
            <path id="Trazado_619074" data-name="Trazado 619074" d="M120.955,164.289a19.242,19.242,0,0,0,1.816-5.676,6.5,6.5,0,0,0-1.781-5.485,5.351,5.351,0,0,0-3.725-1.318,6.3,6.3,0,0,0-5.677,4.5,6.783,6.783,0,0,0,2.284,6.951,7.355,7.355,0,0,0,7.32.955" transform="translate(-111.359 -151.808)" fill="#263238"/>
          </g>
          <g id="Grupo_884494" data-name="Grupo 884494" transform="translate(8.792 10.42)">
            <g id="Grupo_884493" data-name="Grupo 884493">
              <path id="Trazado_619075" data-name="Trazado 619075" d="M124.471,165.352a2.782,2.782,0,0,1-2.678,2.615c-.028-.115.827-.341,1.564-1.076C124.111,166.171,124.357,165.322,124.471,165.352Z" transform="translate(-121.793 -165.351)" fill="#e8505b"/>
            </g>
          </g>
          <g id="Grupo_884496" data-name="Grupo 884496" transform="translate(3.178 6.663)">
            <g id="Grupo_884495" data-name="Grupo 884495">
              <path id="Trazado_619076" data-name="Trazado 619076" d="M120.93,165.606a5.31,5.31,0,0,1-1.534,1.123,4.434,4.434,0,0,1-2.022.572,2.814,2.814,0,0,1-2.358-1.058,3.14,3.14,0,0,1-.418-2.555,4.968,4.968,0,0,1,.95-1.87,5.856,5.856,0,0,1,1.337-1.348,18.019,18.019,0,0,1-1.109,1.515,5.082,5.082,0,0,0-.819,1.783,2.853,2.853,0,0,0,.381,2.238,2.5,2.5,0,0,0,2.034.926,4.436,4.436,0,0,0,1.9-.457C120.3,165.977,120.892,165.547,120.93,165.606Z" transform="translate(-114.498 -160.468)" fill="#263238"/>
            </g>
          </g>
          <g id="Grupo_884498" data-name="Grupo 884498" transform="translate(0 12.465)">
            <g id="Grupo_884497" data-name="Grupo 884497">
              <path id="Trazado_619077" data-name="Trazado 619077" d="M110.374,173.727a2.488,2.488,0,0,1,.275.626,6.46,6.46,0,0,0,.833,1.61,2.336,2.336,0,0,0,2.213,1.018,3.035,3.035,0,0,0,2.129-2.144,22.1,22.1,0,0,0,.579-3.282,5.068,5.068,0,0,1,1.079-2.588,2.778,2.778,0,0,1,1.645-.938,1.086,1.086,0,0,1,.692.058c0,.038-.25-.011-.662.095a2.8,2.8,0,0,0-1.46.969,5,5,0,0,0-.929,2.464,19.611,19.611,0,0,1-.563,3.353,3.362,3.362,0,0,1-2.444,2.377,2.253,2.253,0,0,1-1.532-.3,3.188,3.188,0,0,1-.973-.916,5.549,5.549,0,0,1-.752-1.73A2.114,2.114,0,0,1,110.374,173.727Z" transform="translate(-110.366 -168.008)" fill="#263238"/>
            </g>
          </g>
        </g>
        <g id="Grupo_884500" data-name="Grupo 884500" transform="translate(14.787 71.834)">
          <path id="Trazado_619078" data-name="Trazado 619078" d="M106.383,237.134s-2.88,21.1,0,23.772,5.653,1.787,5.653,1.787l5.484-4.586,1.079-20.973Z" transform="translate(-105.103 -237.134)" fill="#ffbe9d"/>
        </g>
        <g id="Grupo_884503" data-name="Grupo 884503" transform="translate(61.659)">
          <g id="Grupo_884501" data-name="Grupo 884501" transform="translate(14.003)">
            <path id="Trazado_619079" data-name="Trazado 619079" d="M184.223,156.38l3.661-3.932,6.1,4.881,13.965-13.558,3.345,3.943-17.581,17.343Z" transform="translate(-184.223 -143.771)" fill="#e8505b"/>
          </g>
          <g id="Grupo_884502" data-name="Grupo 884502" transform="translate(0 13.679)">
            <path id="Trazado_619080" data-name="Trazado 619080" d="M197.228,161.551l-5.309,3.407c-.24-2.1-1.842-4.179-1.76-3.125s.01,6.523.01,6.523L180.7,188.278a9.437,9.437,0,0,1-5.841,5.608l-8.837,2.628,3.455,11.683,12.283-4.072a10.592,10.592,0,0,0,6.732-6.752l8.467-25.793a40.012,40.012,0,0,0,1.369-5.082C198.689,164.348,197.228,161.551,197.228,161.551Z" transform="translate(-166.023 -161.55)" fill="#ffbe9d"/>
          </g>
        </g>
        <g id="Grupo_884575" data-name="Grupo 884575" transform="translate(38.109 225.649)">
          <g id="Grupo_884574" data-name="Grupo 884574">
            <g id="Grupo_884510" data-name="Grupo 884510" transform="translate(0.058)">
              <g id="Grupo_884506" data-name="Grupo 884506">
                <g id="Grupo_884505" data-name="Grupo 884505">
                  <g id="Grupo_884504" data-name="Grupo 884504">
                    <path id="Trazado_619081" data-name="Trazado 619081" d="M146.69,442.955l-.132-5.908-11.066.177.1,8.644.687.033c3.056.121,15.549.4,17.581-.253C156.127,444.921,146.69,442.955,146.69,442.955Z" transform="translate(-135.491 -437.047)" fill="#e8505b"/>
                  </g>
                </g>
              </g>
              <g id="Grupo_884509" data-name="Grupo 884509" transform="translate(0.063 5.554)" opacity="0.5">
                <g id="Grupo_884508" data-name="Grupo 884508">
                  <g id="Grupo_884507" data-name="Grupo 884507">
                    <path id="Trazado_619082" data-name="Trazado 619082" d="M139.622,447.382a3.839,3.839,0,0,0-1.45-2.337,3.732,3.732,0,0,0-2.6-.763l.047,3.093Z" transform="translate(-135.573 -444.265)" fill="#fff"/>
                  </g>
                </g>
              </g>
            </g>
            <g id="Grupo_884513" data-name="Grupo 884513" transform="translate(0.16 7.032)" opacity="0.4">
              <g id="Grupo_884512" data-name="Grupo 884512">
                <g id="Grupo_884511" data-name="Grupo 884511">
                  <path id="Trazado_619083" data-name="Trazado 619083" d="M151.334,446.187s3.311.9,2.908,1.447-13.038.743-18.619.342l.014-.248,14.74-.1S150.69,446.224,151.334,446.187Z" transform="translate(-135.623 -446.187)" fill="#fff"/>
                </g>
              </g>
            </g>
            <g id="Grupo_884517" data-name="Grupo 884517" transform="translate(0 8.29)">
              <g id="Grupo_884516" data-name="Grupo 884516">
                <g id="Grupo_884515" data-name="Grupo 884515">
                  <g id="Grupo_884514" data-name="Grupo 884514">
                    <path id="Trazado_619084" data-name="Trazado 619084" d="M135.415,448.1a1.006,1.006,0,0,0,.191.018l.546.025,2.013.055c1.7.035,4.049.052,6.643.015s4.943-.124,6.641-.209l2.01-.115.546-.041a1.045,1.045,0,0,0,.19-.023,1,1,0,0,0-.192,0l-.547.015-2.011.072c-1.7.061-4.046.132-6.638.17s-4.94.035-6.64.025l-2.013-.013h-.548A1.016,1.016,0,0,0,135.415,448.1Z" transform="translate(-135.415 -447.822)" fill="#263238"/>
                  </g>
                </g>
              </g>
            </g>
            <g id="Grupo_884521" data-name="Grupo 884521" transform="translate(14.892 6.895)">
              <g id="Grupo_884520" data-name="Grupo 884520">
                <g id="Grupo_884519" data-name="Grupo 884519">
                  <g id="Grupo_884518" data-name="Grupo 884518">
                    <path id="Trazado_619085" data-name="Trazado 619085" d="M154.792,447.758a2.93,2.93,0,0,1,1.035-1.746,1.79,1.79,0,0,0-1.035,1.746Z" transform="translate(-154.77 -446.009)" fill="#263238"/>
                  </g>
                </g>
              </g>
            </g>
            <g id="Grupo_884525" data-name="Grupo 884525" transform="translate(11.617 6.107)">
              <g id="Grupo_884524" data-name="Grupo 884524">
                <g id="Grupo_884523" data-name="Grupo 884523">
                  <g id="Grupo_884522" data-name="Grupo 884522">
                    <path id="Trazado_619086" data-name="Trazado 619086" d="M150.519,445.915c.032.02.185-.172.342-.429s.26-.481.229-.5-.185.173-.342.43S150.488,445.9,150.519,445.915Z" transform="translate(-150.514 -444.984)" fill="#263238"/>
                  </g>
                </g>
              </g>
            </g>
            <g id="Grupo_884529" data-name="Grupo 884529" transform="translate(10.716 5.943)">
              <g id="Grupo_884528" data-name="Grupo 884528">
                <g id="Grupo_884527" data-name="Grupo 884527">
                  <g id="Grupo_884526" data-name="Grupo 884526">
                    <path id="Trazado_619087" data-name="Trazado 619087" d="M149.346,445.407c.025.027.2-.092.386-.266s.32-.338.295-.365-.2.092-.385.267S149.322,445.379,149.346,445.407Z" transform="translate(-149.343 -444.771)" fill="#263238"/>
                  </g>
                </g>
              </g>
            </g>
            <g id="Grupo_884533" data-name="Grupo 884533" transform="translate(10.137 5.473)">
              <g id="Grupo_884532" data-name="Grupo 884532">
                <g id="Grupo_884531" data-name="Grupo 884531">
                  <g id="Grupo_884530" data-name="Grupo 884530">
                    <path id="Trazado_619088" data-name="Trazado 619088" d="M148.59,444.229a2.531,2.531,0,1,0,.578-.069A1.312,1.312,0,0,0,148.59,444.229Z" transform="translate(-148.59 -444.16)" fill="#263238"/>
                  </g>
                </g>
              </g>
            </g>
            <g id="Grupo_884537" data-name="Grupo 884537" transform="translate(9.931 4.797)">
              <g id="Grupo_884536" data-name="Grupo 884536">
                <g id="Grupo_884535" data-name="Grupo 884535">
                  <g id="Grupo_884534" data-name="Grupo 884534">
                    <path id="Trazado_619089" data-name="Trazado 619089" d="M148.323,443.293a1.623,1.623,0,0,0,1.311.078,46.114,46.114,0,0,1-1.311-.078Z" transform="translate(-148.322 -443.282)" fill="#263238"/>
                  </g>
                </g>
              </g>
            </g>
            <g id="Grupo_884541" data-name="Grupo 884541" transform="translate(11.984 5.05)">
              <g id="Grupo_884540" data-name="Grupo 884540">
                <g id="Grupo_884539" data-name="Grupo 884539">
                  <g id="Grupo_884538" data-name="Grupo 884538">
                    <path id="Trazado_619090" data-name="Trazado 619090" d="M150.99,444.627a2.026,2.026,0,0,0,.711-.015,4.119,4.119,0,0,0,.755-.178,2.076,2.076,0,0,0,.431-.185.384.384,0,0,0,.172-.223.28.28,0,0,0-.112-.282,1.3,1.3,0,0,0-1.607.405,1.275,1.275,0,0,0-.225.479c-.027.122-.024.192-.015.192a1.974,1.974,0,0,1,.314-.612,1.287,1.287,0,0,1,.6-.4,1.1,1.1,0,0,1,.849.045c.114.082.072.215-.052.292a2.165,2.165,0,0,1-.4.177,4.948,4.948,0,0,1-.729.2C151.261,444.6,150.989,444.606,150.99,444.627Z" transform="translate(-150.99 -443.611)" fill="#263238"/>
                  </g>
                </g>
              </g>
            </g>
            <g id="Grupo_884545" data-name="Grupo 884545" transform="translate(11.223 4.733)">
              <g id="Grupo_884544" data-name="Grupo 884544">
                <g id="Grupo_884543" data-name="Grupo 884543">
                  <g id="Grupo_884542" data-name="Grupo 884542">
                    <path id="Trazado_619091" data-name="Trazado 619091" d="M150.947,444.565a.7.7,0,0,0,.075-.495,1.164,1.164,0,0,0-.2-.516.715.715,0,0,0-.6-.354.284.284,0,0,0-.214.332.776.776,0,0,0,.125.316,2.165,2.165,0,0,0,.343.426,1.036,1.036,0,0,0,.411.282c.012-.018-.143-.125-.343-.348a2.468,2.468,0,0,1-.3-.422c-.1-.148-.171-.418.007-.452s.362.154.473.295a1.165,1.165,0,0,1,.208.459A2.561,2.561,0,0,1,150.947,444.565Z" transform="translate(-150.002 -443.199)" fill="#263238"/>
                  </g>
                </g>
              </g>
            </g>
            <g id="Grupo_884549" data-name="Grupo 884549" transform="translate(0.179 5.455)">
              <g id="Grupo_884548" data-name="Grupo 884548">
                <g id="Grupo_884547" data-name="Grupo 884547">
                  <g id="Grupo_884546" data-name="Grupo 884546">
                    <path id="Trazado_619092" data-name="Trazado 619092" d="M135.648,444.22c0,.025.316-.035.818.016A3.467,3.467,0,0,1,139.4,446.5c.176.472.2.79.222.787a.64.64,0,0,0,0-.224,2.9,2.9,0,0,0-.13-.595,3.364,3.364,0,0,0-3.015-2.329,2.975,2.975,0,0,0-.609.025A.634.634,0,0,0,135.648,444.22Z" transform="translate(-135.648 -444.136)" fill="#263238"/>
                  </g>
                </g>
              </g>
            </g>
            <g id="Grupo_884553" data-name="Grupo 884553" transform="translate(1.195 0.915)">
              <g id="Grupo_884552" data-name="Grupo 884552">
                <g id="Grupo_884551" data-name="Grupo 884551">
                  <g id="Grupo_884550" data-name="Grupo 884550">
                    <path id="Trazado_619093" data-name="Trazado 619093" d="M137.029,438.236a38.689,38.689,0,0,0,.012,4.55,38.679,38.679,0,0,0-.012-4.55Z" transform="translate(-136.968 -438.236)" fill="#263238"/>
                  </g>
                </g>
              </g>
            </g>
            <g id="Grupo_884557" data-name="Grupo 884557" transform="translate(5.547 7.537)">
              <g id="Grupo_884556" data-name="Grupo 884556">
                <g id="Grupo_884555" data-name="Grupo 884555">
                  <g id="Grupo_884554" data-name="Grupo 884554">
                    <path id="Trazado_619094" data-name="Trazado 619094" d="M142.625,446.876a9.089,9.089,0,0,0,3.235-.019c0-.039-.726.016-1.617.02S142.629,446.837,142.625,446.876Z" transform="translate(-142.625 -446.843)" fill="#263238"/>
                  </g>
                </g>
              </g>
            </g>
            <g id="Grupo_884561" data-name="Grupo 884561" transform="translate(3.374 7.596)">
              <g id="Grupo_884560" data-name="Grupo 884560">
                <g id="Grupo_884559" data-name="Grupo 884559">
                  <g id="Grupo_884558" data-name="Grupo 884558">
                    <path id="Trazado_619095" data-name="Trazado 619095" d="M139.8,446.924c-.027.027.062.152.138.317s.118.311.157.308.054-.176-.035-.365S139.828,446.9,139.8,446.924Z" transform="translate(-139.8 -446.919)" fill="#263238"/>
                  </g>
                </g>
              </g>
            </g>
            <g id="Grupo_884565" data-name="Grupo 884565" transform="translate(2.54 6.59)">
              <g id="Grupo_884564" data-name="Grupo 884564">
                <g id="Grupo_884563" data-name="Grupo 884563">
                  <g id="Grupo_884562" data-name="Grupo 884562">
                    <path id="Trazado_619096" data-name="Trazado 619096" d="M138.721,445.617c-.026.026.047.14.163.255s.232.185.258.159-.047-.141-.163-.255S138.748,445.591,138.721,445.617Z" transform="translate(-138.716 -445.612)" fill="#263238"/>
                  </g>
                </g>
              </g>
            </g>
            <g id="Grupo_884569" data-name="Grupo 884569" transform="translate(1.367 6.082)">
              <g id="Grupo_884568" data-name="Grupo 884568">
                <g id="Grupo_884567" data-name="Grupo 884567">
                  <g id="Grupo_884566" data-name="Grupo 884566">
                    <path id="Trazado_619097" data-name="Trazado 619097" d="M137.193,445.018c.008.038.155.034.319.089s.282.14.31.114-.066-.177-.269-.242S137.181,444.984,137.193,445.018Z" transform="translate(-137.192 -444.952)" fill="#263238"/>
                  </g>
                </g>
              </g>
            </g>
            <g id="Grupo_884573" data-name="Grupo 884573" transform="translate(0.531 5.916)">
              <g id="Grupo_884572" data-name="Grupo 884572">
                <g id="Grupo_884571" data-name="Grupo 884571">
                  <g id="Grupo_884570" data-name="Grupo 884570">
                    <path id="Trazado_619098" data-name="Trazado 619098" d="M136.106,444.762c-.013.035.052.091.144.125s.178.034.191,0-.052-.091-.145-.125S136.12,444.727,136.106,444.762Z" transform="translate(-136.105 -444.736)" fill="#263238"/>
                  </g>
                </g>
              </g>
            </g>
          </g>
        </g>
        <g id="Grupo_884647" data-name="Grupo 884647" transform="translate(0 218.019)">
          <g id="Grupo_884646" data-name="Grupo 884646">
            <g id="Grupo_884582" data-name="Grupo 884582">
              <g id="Grupo_884578" data-name="Grupo 884578">
                <g id="Grupo_884577" data-name="Grupo 884577">
                  <g id="Grupo_884576" data-name="Grupo 884576">
                    <path id="Trazado_619099" data-name="Trazado 619099" d="M96.2,438.778l3.752-4.564-8.505-7.084-5.561,6.62.5.472c2.238,2.085,11.527,10.443,13.492,11.275C102.069,446.424,96.2,438.778,96.2,438.778Z" transform="translate(-85.885 -427.13)" fill="#e8505b"/>
                  </g>
                </g>
              </g>
              <g id="Grupo_884581" data-name="Grupo 884581" transform="translate(0.11 4.13)" opacity="0.5">
                <g id="Grupo_884580" data-name="Grupo 884580">
                  <g id="Grupo_884579" data-name="Grupo 884579">
                    <path id="Trazado_619100" data-name="Trazado 619100" d="M89.057,437.489a3.841,3.841,0,0,0,.425-2.718,3.732,3.732,0,0,0-1.473-2.274l-1.981,2.375Z" transform="translate(-86.028 -432.498)" fill="#fff"/>
                  </g>
                </g>
              </g>
            </g>
            <g id="Grupo_884585" data-name="Grupo 884585" transform="translate(0 6.441)" opacity="0.4">
              <g id="Grupo_884584" data-name="Grupo 884584">
                <g id="Grupo_884583" data-name="Grupo 884583">
                  <path id="Trazado_619101" data-name="Trazado 619101" d="M98.962,444.57s1.924,2.84,1.26,2.994-10.369-7.94-14.337-11.884l.172-.179,11.24,9.537S98.449,444.178,98.962,444.57Z" transform="translate(-85.885 -435.501)" fill="#fff"/>
                </g>
              </g>
            </g>
            <g id="Grupo_884589" data-name="Grupo 884589" transform="translate(0.043 6.324)">
              <g id="Grupo_884588" data-name="Grupo 884588">
                <g id="Grupo_884587" data-name="Grupo 884587">
                  <g id="Grupo_884586" data-name="Grupo 884586">
                    <path id="Trazado_619102" data-name="Trazado 619102" d="M85.941,435.35a1.076,1.076,0,0,0,.133.138l.4.375,1.49,1.355c1.266,1.135,3.035,2.68,5.026,4.343s3.828,3.129,5.17,4.173l1.6,1.224.441.325a1.144,1.144,0,0,0,.159.106.971.971,0,0,0-.142-.128l-.425-.345-1.572-1.257c-1.326-1.062-3.152-2.539-5.143-4.2s-3.768-3.2-5.05-4.312l-1.517-1.323-.415-.356A.984.984,0,0,0,85.941,435.35Z" transform="translate(-85.941 -435.35)" fill="#263238"/>
                  </g>
                </g>
              </g>
            </g>
            <g id="Grupo_884593" data-name="Grupo 884593" transform="translate(11.297 15.38)">
              <g id="Grupo_884592" data-name="Grupo 884592">
                <g id="Grupo_884591" data-name="Grupo 884591">
                  <g id="Grupo_884590" data-name="Grupo 884590">
                    <path id="Trazado_619103" data-name="Trazado 619103" d="M100.57,447.847a4.571,4.571,0,0,1,.9-.5,4.511,4.511,0,0,1,1.019-.152,1.791,1.791,0,0,0-1.924.649Z" transform="translate(-100.568 -447.12)" fill="#263238"/>
                  </g>
                </g>
              </g>
            </g>
            <g id="Grupo_884597" data-name="Grupo 884597" transform="translate(9.853 12.399)">
              <g id="Grupo_884596" data-name="Grupo 884596">
                <g id="Grupo_884595" data-name="Grupo 884595">
                  <g id="Grupo_884594" data-name="Grupo 884594">
                    <path id="Trazado_619104" data-name="Trazado 619104" d="M98.691,443.59a1.167,1.167,0,0,0,.539-.1c.287-.092.511-.2.5-.231a1.176,1.176,0,0,0-.54.1C98.9,443.451,98.679,443.554,98.691,443.59Z" transform="translate(-98.69 -443.245)" fill="#263238"/>
                  </g>
                </g>
              </g>
            </g>
            <g id="Grupo_884601" data-name="Grupo 884601" transform="translate(9.468 11.72)">
              <g id="Grupo_884600" data-name="Grupo 884600">
                <g id="Grupo_884599" data-name="Grupo 884599">
                  <g id="Grupo_884598" data-name="Grupo 884598">
                    <path id="Trazado_619105" data-name="Trazado 619105" d="M98.19,442.448c0,.037.211.059.467.05s.462-.047.461-.084-.21-.059-.466-.05S98.189,442.411,98.19,442.448Z" transform="translate(-98.19 -442.362)" fill="#263238"/>
                  </g>
                </g>
              </g>
            </g>
            <g id="Grupo_884605" data-name="Grupo 884605" transform="translate(9.7 10.637)">
              <g id="Grupo_884604" data-name="Grupo 884604">
                <g id="Grupo_884603" data-name="Grupo 884603">
                  <g id="Grupo_884602" data-name="Grupo 884602">
                    <path id="Trazado_619106" data-name="Trazado 619106" d="M98.494,440.959c-.025.028.153.219.4.426s.459.352.483.324-.153-.219-.4-.426S98.518,440.93,98.494,440.959Z" transform="translate(-98.492 -440.955)" fill="#263238"/>
                  </g>
                </g>
              </g>
            </g>
            <g id="Grupo_884609" data-name="Grupo 884609" transform="translate(10.02 9.949)">
              <g id="Grupo_884608" data-name="Grupo 884608">
                <g id="Grupo_884607" data-name="Grupo 884607">
                  <g id="Grupo_884606" data-name="Grupo 884606">
                    <path id="Trazado_619107" data-name="Trazado 619107" d="M98.913,440.063a1.625,1.625,0,0,0,.943.914c.019-.033-.219-.2-.475-.454S98.945,440.042,98.913,440.063Z" transform="translate(-98.908 -440.061)" fill="#263238"/>
                  </g>
                </g>
              </g>
            </g>
            <g id="Grupo_884613" data-name="Grupo 884613" transform="translate(10.717 12.075)">
              <g id="Grupo_884612" data-name="Grupo 884612">
                <g id="Grupo_884611" data-name="Grupo 884611">
                  <g id="Grupo_884610" data-name="Grupo 884610">
                    <path id="Trazado_619108" data-name="Trazado 619108" d="M99.856,442.992a2.055,2.055,0,0,0,.549.452,4.169,4.169,0,0,0,.688.356,2.1,2.1,0,0,0,.448.141.385.385,0,0,0,.276-.057.28.28,0,0,0,.1-.288,1.3,1.3,0,0,0-1.483-.74,1.278,1.278,0,0,0-.482.216c-.1.075-.142.13-.137.135a2.026,2.026,0,0,1,.637-.258,1.281,1.281,0,0,1,.719.085,1.1,1.1,0,0,1,.614.587c.034.137-.085.211-.23.188a2.135,2.135,0,0,1-.416-.125,4.877,4.877,0,0,1-.685-.323C100.079,443.148,99.87,442.975,99.856,442.992Z" transform="translate(-99.814 -442.824)" fill="#263238"/>
                  </g>
                </g>
              </g>
            </g>
            <g id="Grupo_884617" data-name="Grupo 884617" transform="translate(10.702 10.844)">
              <g id="Grupo_884616" data-name="Grupo 884616">
                <g id="Grupo_884615" data-name="Grupo 884615">
                  <g id="Grupo_884614" data-name="Grupo 884614">
                    <path id="Trazado_619109" data-name="Trazado 619109" d="M99.971,442.768c0,.013.2-.059.379-.326a1.172,1.172,0,0,0,.183-.523.714.714,0,0,0-.222-.658.283.283,0,0,0-.379.112.777.777,0,0,0-.111.322,2.154,2.154,0,0,0-.018.546,1.018,1.018,0,0,0,.128.482c.02-.005-.028-.188-.034-.487a2.493,2.493,0,0,1,.045-.519c.022-.178.143-.428.3-.339a.634.634,0,0,1,.166.532,1.157,1.157,0,0,1-.142.484A2.623,2.623,0,0,1,99.971,442.768Z" transform="translate(-99.794 -441.224)" fill="#263238"/>
                  </g>
                </g>
              </g>
            </g>
            <g id="Grupo_884621" data-name="Grupo 884621" transform="translate(2.155 4.142)">
              <g id="Grupo_884620" data-name="Grupo 884620">
                <g id="Grupo_884619" data-name="Grupo 884619">
                  <g id="Grupo_884618" data-name="Grupo 884618">
                    <path id="Trazado_619110" data-name="Trazado 619110" d="M88.687,432.515c-.014.021.263.18.609.546a3.466,3.466,0,0,1,.746,3.632c-.174.472-.365.728-.345.741s.061-.053.144-.171a2.973,2.973,0,0,0,.289-.536,3.365,3.365,0,0,0-.767-3.732,2.915,2.915,0,0,0-.478-.379A.637.637,0,0,0,88.687,432.515Z" transform="translate(-88.686 -432.514)" fill="#263238"/>
                  </g>
                </g>
              </g>
            </g>
            <g id="Grupo_884625" data-name="Grupo 884625" transform="translate(3.028 1.34)">
              <g id="Grupo_884624" data-name="Grupo 884624">
                <g id="Grupo_884623" data-name="Grupo 884623">
                  <g id="Grupo_884622" data-name="Grupo 884622">
                    <path id="Trazado_619111" data-name="Trazado 619111" d="M92.779,428.872a38.743,38.743,0,0,0-2.958,3.457,19.327,19.327,0,0,0,1.53-1.685A19.12,19.12,0,0,0,92.779,428.872Z" transform="translate(-89.821 -428.871)" fill="#263238"/>
                  </g>
                </g>
              </g>
            </g>
            <g id="Grupo_884629" data-name="Grupo 884629" transform="translate(4.899 9.183)">
              <g id="Grupo_884628" data-name="Grupo 884628">
                <g id="Grupo_884627" data-name="Grupo 884627">
                  <g id="Grupo_884626" data-name="Grupo 884626">
                    <path id="Trazado_619112" data-name="Trazado 619112" d="M92.254,439.067a9.083,9.083,0,0,0,2.464,2.1c.022-.032-.562-.461-1.24-1.039S92.281,439.04,92.254,439.067Z" transform="translate(-92.253 -439.066)" fill="#263238"/>
                  </g>
                </g>
              </g>
            </g>
            <g id="Grupo_884633" data-name="Grupo 884633" transform="translate(3.044 7.792)">
              <g id="Grupo_884632" data-name="Grupo 884632">
                <g id="Grupo_884631" data-name="Grupo 884631">
                  <g id="Grupo_884630" data-name="Grupo 884630">
                    <path id="Trazado_619113" data-name="Trazado 619113" d="M90.034,437.258c-.038,0-.052.155-.1.33s-.112.313-.082.336.156-.1.211-.3S90.069,437.253,90.034,437.258Z" transform="translate(-89.842 -437.258)" fill="#263238"/>
                  </g>
                </g>
              </g>
            </g>
            <g id="Grupo_884637" data-name="Grupo 884637" transform="translate(3.213 6.488)">
              <g id="Grupo_884636" data-name="Grupo 884636">
                <g id="Grupo_884635" data-name="Grupo 884635">
                  <g id="Grupo_884634" data-name="Grupo 884634">
                    <path id="Trazado_619114" data-name="Trazado 619114" d="M90.108,435.562c-.037,0-.056.138-.042.3s.055.292.092.289.056-.138.042-.3S90.145,435.559,90.108,435.562Z" transform="translate(-90.061 -435.562)" fill="#263238"/>
                  </g>
                </g>
              </g>
            </g>
            <g id="Grupo_884641" data-name="Grupo 884641" transform="translate(2.657 5.372)">
              <g id="Grupo_884640" data-name="Grupo 884640">
                <g id="Grupo_884639" data-name="Grupo 884639">
                  <g id="Grupo_884638" data-name="Grupo 884638">
                    <path id="Trazado_619115" data-name="Trazado 619115" d="M89.34,434.121c-.018.034.1.127.184.275s.123.289.162.289.065-.177-.047-.359S89.354,434.088,89.34,434.121Z" transform="translate(-89.339 -434.112)" fill="#263238"/>
                  </g>
                </g>
              </g>
            </g>
            <g id="Grupo_884645" data-name="Grupo 884645" transform="translate(2.142 4.676)">
              <g id="Grupo_884644" data-name="Grupo 884644">
                <g id="Grupo_884643" data-name="Grupo 884643">
                  <g id="Grupo_884642" data-name="Grupo 884642">
                    <path id="Trazado_619116" data-name="Trazado 619116" d="M88.688,433.211c-.032.018-.02.1.028.189s.112.142.145.124.02-.1-.028-.189S88.72,433.193,88.688,433.211Z" transform="translate(-88.67 -433.208)" fill="#263238"/>
                  </g>
                </g>
              </g>
            </g>
          </g>
        </g>
        <g id="Grupo_884660" data-name="Grupo 884660" transform="translate(0.932 99.68)">
          <g id="Grupo_884648" data-name="Grupo 884648" transform="translate(0 5.666)">
            <path id="Trazado_619117" data-name="Trazado 619117" d="M119.508,281.38s-3.684,15.591-2.642,18.675,7.793,4.867,7.793,4.867l-.229,42.691L87.1,393.763l13.787,11.28s40.417-46.235,43.98-54.607-2.271-69.746-2.271-69.746Z" transform="translate(-87.096 -280.689)" fill="#263238"/>
          </g>
          <g id="Grupo_884649" data-name="Grupo 884649" transform="translate(20.288)">
            <path id="Trazado_619118" data-name="Trazado 619118" d="M144.658,273.325l1.827,129.666-18.994.1L117.96,297.481h0c-2.015-1.923-4.849-5.217-4.459-12.562l.463-8.534Z" transform="translate(-113.465 -273.325)" fill="#263238"/>
          </g>
          <g id="Grupo_884651" data-name="Grupo 884651" transform="translate(31.454 26.243)">
            <g id="Grupo_884650" data-name="Grupo 884650">
              <path id="Trazado_619119" data-name="Trazado 619119" d="M127.978,361a.728.728,0,0,1,.109-.192l.361-.532,1.412-2,5.153-7.133-.032.1c-.413-4.5-.915-9.958-1.456-15.843-.689-7.713-1.247-14.7-1.576-19.763-.168-2.531-.279-4.582-.339-6-.023-.678-.042-1.22-.055-1.633a3.034,3.034,0,0,1,.008-.571,3.034,3.034,0,0,1,.072.566c.033.412.077.953.132,1.628.113,1.459.272,3.493.465,5.988.4,5.056,1,12.037,1.693,19.748.518,5.905,1.046,11.354,1.386,15.878l0,.05-.036.048-5.266,7.05-1.484,1.944-.4.5C128.035,360.949,127.985,361,127.978,361Z" transform="translate(-127.977 -307.433)" fill="#455a64"/>
            </g>
          </g>
          <g id="Grupo_884653" data-name="Grupo 884653" transform="translate(27.351 24.141)">
            <g id="Grupo_884652" data-name="Grupo 884652">
              <path id="Trazado_619120" data-name="Trazado 619120" d="M132.578,306.8a25.9,25.9,0,0,1-5.029-.749,25.887,25.887,0,0,1-4.9-1.338,43.079,43.079,0,0,1,4.987.946A43.023,43.023,0,0,1,132.578,306.8Z" transform="translate(-122.644 -304.701)" fill="#455a64"/>
            </g>
          </g>
          <g id="Grupo_884655" data-name="Grupo 884655" transform="translate(39.888 68.742)">
            <g id="Grupo_884654" data-name="Grupo 884654">
              <path id="Trazado_619121" data-name="Trazado 619121" d="M149.344,364.44a19.326,19.326,0,0,0-5.129-1.336,19.351,19.351,0,0,0-5.277.512,4.34,4.34,0,0,1,1.48-.58,11.666,11.666,0,0,1,7.555.6A4.338,4.338,0,0,1,149.344,364.44Z" transform="translate(-138.938 -362.669)" fill="#455a64"/>
            </g>
          </g>
          <g id="Grupo_884657" data-name="Grupo 884657" transform="translate(32.809 76.522)">
            <g id="Grupo_884656" data-name="Grupo 884656">
              <path id="Trazado_619122" data-name="Trazado 619122" d="M153.922,372.781c.088.067-5.255,7.238-11.932,16.014s-12.164,15.841-12.251,15.774,5.254-7.236,11.933-16.016S153.833,372.714,153.922,372.781Z" transform="translate(-129.738 -372.78)" fill="#455a64"/>
            </g>
          </g>
          <g id="Grupo_884659" data-name="Grupo 884659" transform="translate(44.853 8.623)">
            <g id="Grupo_884658" data-name="Grupo 884658">
              <path id="Trazado_619123" data-name="Trazado 619123" d="M154.959,285.542a3.186,3.186,0,0,1-1.069,1.41,5.291,5.291,0,0,1-7.742-.816,3.185,3.185,0,0,1-.751-1.6,16.691,16.691,0,0,0,.971,1.423,5.275,5.275,0,0,0,7.343.775A16.7,16.7,0,0,0,154.959,285.542Z" transform="translate(-145.391 -284.533)" fill="#455a64"/>
            </g>
          </g>
        </g>
        <g id="Grupo_884661" data-name="Grupo 884661" transform="translate(24.243 19.496)">
          <path id="Trazado_619124" data-name="Trazado 619124" d="M122.551,192.211a16.563,16.563,0,0,1-.9-23.1" transform="translate(-117.393 -169.111)" fill="#263238"/>
        </g>
        <g id="Grupo_884691" data-name="Grupo 884691" transform="translate(13.752 45.93)">
          <g id="Grupo_884672" data-name="Grupo 884672">
            <g id="Grupo_884662" data-name="Grupo 884662" transform="translate(0 8.763)">
              <path id="Trazado_619125" data-name="Trazado 619125" d="M108.74,214.855s-4.126,4.66-4.981,22.49c0,0,11.751,2.229,11.966,1.588S108.74,214.855,108.74,214.855Z" transform="translate(-103.759 -214.855)" fill="#e8505b"/>
            </g>
            <g id="Grupo_884663" data-name="Grupo 884663" transform="translate(0 8.763)" opacity="0.3">
              <path id="Trazado_619126" data-name="Trazado 619126" d="M108.74,214.855s-4.126,4.66-4.981,22.49c0,0,11.751,2.229,11.966,1.588S108.74,214.855,108.74,214.855Z" transform="translate(-103.759 -214.855)"/>
            </g>
            <g id="Grupo_884669" data-name="Grupo 884669" transform="translate(3.69)">
              <g id="Grupo_884668" data-name="Grupo 884668">
                <g id="Grupo_884667" data-name="Grupo 884667">
                  <g id="Grupo_884664" data-name="Grupo 884664" transform="translate(4.613 31.253)">
                    <path id="Trazado_619127" data-name="Trazado 619127" d="M114.551,244.085" transform="translate(-114.551 -244.085)" fill="#455a64"/>
                  </g>
                  <g id="Grupo_884665" data-name="Grupo 884665">
                    <path id="Trazado_619128" data-name="Trazado 619128" d="M111.75,264.152h36.076l-.582-5.635s-4.122-21.441-4.092-21.724l.649-1.365a13.6,13.6,0,0,0,.158-11.346h0l17.665-6.041L157.3,203.466c-8.016,1.353-20.132,2.863-20.132,2.863l-1.8.152s-12.508.652-12.775.684c-5.233.632-11.32,1.034-13.545,6.634-1.19,2.995-.059,7.489,1.883,12.123l4.625,14.232c1.847,7.823-1.1,7.451-2.718,15.324C112.588,256.668,111.726,263.059,111.75,264.152Z" transform="translate(-108.555 -203.466)" fill="#e8505b"/>
                  </g>
                  <g id="Grupo_884666" data-name="Grupo 884666" opacity="0.3">
                    <path id="Trazado_619129" data-name="Trazado 619129" d="M111.75,264.152h36.076l-.582-5.635s-4.122-21.441-4.092-21.724l.649-1.365a13.6,13.6,0,0,0,.158-11.346h0l17.665-6.041L157.3,203.466c-8.016,1.353-20.132,2.863-20.132,2.863l-1.8.152s-12.508.652-12.775.684c-5.233.632-11.32,1.034-13.545,6.634-1.19,2.995-.059,7.489,1.883,12.123l4.625,14.232c1.847,7.823-1.1,7.451-2.718,15.324C112.588,256.668,111.726,263.059,111.75,264.152Z" transform="translate(-108.555 -203.466)"/>
                  </g>
                </g>
              </g>
            </g>
            <g id="Grupo_884671" data-name="Grupo 884671" transform="translate(36.312 14.806)">
              <g id="Grupo_884670" data-name="Grupo 884670">
                <path id="Trazado_619130" data-name="Trazado 619130" d="M171.235,222.715a3.471,3.471,0,0,1-.784.329c-.512.188-1.258.446-2.182.757-1.847.624-4.412,1.451-7.243,2.356s-5.364,1.806-7.161,2.548c-.9.364-1.619.689-2.12.9a3.486,3.486,0,0,1-.791.311,3.519,3.519,0,0,1,.722-.451c.482-.258,1.184-.623,2.077-1.023a68.178,68.178,0,0,1,7.149-2.669c2.835-.907,5.411-1.69,7.281-2.245.935-.277,1.693-.494,2.221-.636A3.483,3.483,0,0,1,171.235,222.715Z" transform="translate(-150.953 -222.71)" fill="#263238"/>
              </g>
            </g>
          </g>
          <g id="Grupo_884674" data-name="Grupo 884674" transform="translate(6.852 6.852)">
            <g id="Grupo_884673" data-name="Grupo 884673">
              <path id="Trazado_619131" data-name="Trazado 619131" d="M160.309,212.571c0,.111-10.666.2-23.821.2s-23.823-.089-23.823-.2,10.664-.2,23.823-.2S160.309,212.46,160.309,212.571Z" transform="translate(-112.665 -212.371)" fill="#fafafa"/>
            </g>
          </g>
          <g id="Grupo_884676" data-name="Grupo 884676" transform="translate(2.577 13.937)">
            <g id="Grupo_884675" data-name="Grupo 884675">
              <path id="Trazado_619132" data-name="Trazado 619132" d="M160.127,221.78c0,.111-11.87.2-26.508.2s-26.511-.089-26.511-.2,11.867-.2,26.511-.2S160.127,221.669,160.127,221.78Z" transform="translate(-107.108 -221.58)" fill="#fafafa"/>
            </g>
          </g>
          <g id="Grupo_884678" data-name="Grupo 884678" transform="translate(1.111 22)">
            <g id="Grupo_884677" data-name="Grupo 884677">
              <path id="Trazado_619133" data-name="Trazado 619133" d="M109.621,232.259a6.251,6.251,0,0,1-2.209.2,6.251,6.251,0,0,1-2.209-.2,6.262,6.262,0,0,1,2.209-.2A6.262,6.262,0,0,1,109.621,232.259Z" transform="translate(-105.203 -232.059)" fill="#fafafa"/>
            </g>
          </g>
          <g id="Grupo_884680" data-name="Grupo 884680" transform="translate(5.529 22.244)">
            <g id="Grupo_884679" data-name="Grupo 884679">
              <path id="Trazado_619134" data-name="Trazado 619134" d="M145.619,232.577c0,.11-7.763.2-17.336.2s-17.338-.09-17.338-.2,7.761-.2,17.338-.2S145.619,232.466,145.619,232.577Z" transform="translate(-110.945 -232.376)" fill="#fafafa"/>
            </g>
          </g>
          <g id="Grupo_884682" data-name="Grupo 884682" transform="translate(8.319 30.551)">
            <g id="Grupo_884681" data-name="Grupo 884681">
              <path id="Trazado_619135" data-name="Trazado 619135" d="M145.691,243.373c0,.111-6.967.2-15.56.2s-15.561-.09-15.561-.2,6.965-.2,15.561-.2S145.691,243.263,145.691,243.373Z" transform="translate(-114.571 -243.173)" fill="#fafafa"/>
            </g>
          </g>
          <g id="Grupo_884684" data-name="Grupo 884684" transform="translate(11.006 38.247)">
            <g id="Grupo_884683" data-name="Grupo 884683">
              <path id="Trazado_619136" data-name="Trazado 619136" d="M146.271,253.376c0,.111-6.315.2-14.1.2s-14.1-.09-14.1-.2,6.313-.2,14.1-.2S146.271,253.265,146.271,253.376Z" transform="translate(-118.064 -253.176)" fill="#fafafa"/>
            </g>
          </g>
          <g id="Grupo_884686" data-name="Grupo 884686" transform="translate(10.273 44.477)">
            <g id="Grupo_884685" data-name="Grupo 884685">
              <path id="Trazado_619137" data-name="Trazado 619137" d="M147.286,261.474c0,.111-6.755.2-15.087.2s-15.088-.089-15.088-.2,6.754-.2,15.088-.2S147.286,261.363,147.286,261.474Z" transform="translate(-117.111 -261.273)" fill="#fafafa"/>
            </g>
          </g>
          <g id="Grupo_884688" data-name="Grupo 884688" transform="translate(8.074 52.418)">
            <g id="Grupo_884687" data-name="Grupo 884687">
              <path id="Trazado_619138" data-name="Trazado 619138" d="M148.581,271.794c0,.111-7.685.2-17.163.2s-17.165-.09-17.165-.2,7.683-.2,17.165-.2S148.581,271.683,148.581,271.794Z" transform="translate(-114.253 -271.594)" fill="#fafafa"/>
            </g>
          </g>
          <g id="Grupo_884690" data-name="Grupo 884690" transform="translate(4.089 17.39)">
            <g id="Grupo_884689" data-name="Grupo 884689">
              <path id="Trazado_619139" data-name="Trazado 619139" d="M115.453,244.7a2.928,2.928,0,0,1-.319-.709q-.317-.823-.759-1.968c-.635-1.664-1.529-3.958-2.458-6.515s-1.7-4.9-2.185-6.622c-.241-.86-.422-1.56-.526-2.049a2.892,2.892,0,0,1-.126-.768A28.252,28.252,0,0,1,110,228.8c.552,1.692,1.359,4.014,2.291,6.568s1.78,4.864,2.347,6.556c.285.845.5,1.534.64,2.015A2.942,2.942,0,0,1,115.453,244.7Z" transform="translate(-109.073 -226.068)" fill="#263238"/>
            </g>
          </g>
        </g>
      </g>
    </g>
  </g>
</svg>
