<svg xmlns="http://www.w3.org/2000/svg" width="99" height="99" viewBox="0 0 99 99">
  <g id="Grupo_898348" data-name="Grupo 898348" transform="translate(-500.259 -6443)">
    <circle id="Elipse_5176" data-name="Elipse 5176" cx="49.5" cy="49.5" r="49.5" transform="translate(500.259 6443)" fill="#222b5a"/>
    <path id="Icon_awesome-address-card" data-name="Icon awesome-address-card" d="M63.388,2.25H5.763A5.764,5.764,0,0,0,0,8.013V50.271a5.764,5.764,0,0,0,5.763,5.763H63.388a5.764,5.764,0,0,0,5.763-5.763V8.013A5.764,5.764,0,0,0,63.388,2.25ZM21.129,13.775a7.683,7.683,0,1,1-7.683,7.683A7.69,7.69,0,0,1,21.129,13.775ZM34.575,42.2a2.518,2.518,0,0,1-2.689,2.305H10.373A2.518,2.518,0,0,1,7.683,42.2V39.9c0-3.818,3.614-6.915,8.068-6.915h.6a12.366,12.366,0,0,0,9.556,0h.6c4.454,0,8.068,3.1,8.068,6.915Zm26.892-6.339a.963.963,0,0,1-.96.96H43.219a.963.963,0,0,1-.96-.96V33.944a.963.963,0,0,1,.96-.96H60.506a.963.963,0,0,1,.96.96Zm0-7.683a.963.963,0,0,1-.96.96H43.219a.963.963,0,0,1-.96-.96V26.26a.963.963,0,0,1,.96-.96H60.506a.963.963,0,0,1,.96.96Zm0-7.683a.963.963,0,0,1-.96.96H43.219a.963.963,0,0,1-.96-.96V18.577a.963.963,0,0,1,.96-.96H60.506a.963.963,0,0,1,.96.96Z" transform="translate(515.184 6463.358)" fill="#fff"/>
  </g>
</svg>
