<svg xmlns="http://www.w3.org/2000/svg" width="99" height="99" viewBox="0 0 99 99">
  <g id="Grupo_898347" data-name="Grupo 898347" transform="translate(-993.259 -6315)">
    <circle id="Elipse_5173" data-name="Elipse 5173" cx="49.5" cy="49.5" r="49.5" transform="translate(993.259 6315)" fill="#222b5a"/>
    <path id="Icon_material-contact-mail" data-name="Icon material-contact-mail" d="M50.265,16.468V14.074l-7.181,4.787L35.9,14.074v2.394l7.181,4.787ZM52.659,4.5H4.787A4.8,4.8,0,0,0,0,9.287V42.8a4.8,4.8,0,0,0,4.787,4.787H52.659A4.781,4.781,0,0,0,57.422,42.8l.024-33.51A4.8,4.8,0,0,0,52.659,4.5Zm-33.51,7.181a7.181,7.181,0,1,1-7.181,7.181A7.171,7.171,0,0,1,19.149,11.681ZM33.51,40.4H4.787V38.01c0-4.787,9.574-7.42,14.361-7.42S33.51,33.223,33.51,38.01ZM52.659,26.042H33.51V11.681H52.659Z" transform="translate(1014.036 6339.5)" fill="#fff"/>
  </g>
</svg>
