<svg xmlns="http://www.w3.org/2000/svg" width="99" height="99" viewBox="0 0 99 99">
  <g id="Grupo_898344" data-name="Grupo 898344" transform="translate(-500.259 -5928)">
    <circle id="Elipse_5174" data-name="Elipse 5174" cx="49.5" cy="49.5" r="49.5" transform="translate(500.259 5928)" fill="#222b5a"/>
    <g id="Icon_ionic-ios-people" data-name="Icon ionic-ios-people" transform="translate(506.786 5938.813)">
      <path id="Trazado_617420" data-name="Trazado 617420" d="M50.42,48.506c-2.033-.726-5.356-.763-6.826-1.325-1.017-.4-2.632-.835-3.159-1.471s-.526-5.174-.526-5.174a8.358,8.358,0,0,0,1.8-2.542A28.248,28.248,0,0,0,42.577,33s1.2.508,1.67-1.888c.4-2.07,1.162-3.159.962-4.684-.218-1.525-1.053-1.162-1.053-1.162s1.053-1.543,1.053-6.79c0-5.41-4.085-10.73-11.728-10.73-7.625,0-11.746,5.338-11.746,10.73,0,5.247,1.035,6.79,1.035,6.79s-.853-.363-1.053,1.162c-.218,1.525.545,2.614.962,4.684.472,2.415,1.67,1.888,1.67,1.888a28.521,28.521,0,0,0,.871,4.993,8.358,8.358,0,0,0,1.8,2.542s0,4.539-.526,5.174-2.142,1.071-3.159,1.452c-1.452.563-4.775.635-6.826,1.362a12.813,12.813,0,0,0-8.315,12.2H58.717A12.787,12.787,0,0,0,50.42,48.506Z" transform="translate(9.455)" fill="#fff"/>
      <path id="Trazado_617421" data-name="Trazado 617421" d="M21.913,34.192s4.339-.145,6.064-1.688c-2.814-4.266-1.289-9.241-1.87-13.889-.581-4.63-3.213-7.407-8.478-7.407h-.073c-5.083,0-7.825,2.76-8.406,7.407C8.569,23.245,10.185,28.782,7.3,32.5c1.725,1.561,6.082,1.507,6.082,1.507h0s.182,2.614-.182,3.05a4.584,4.584,0,0,1-2.179,1,42.123,42.123,0,0,0-4.7,1.307,7.644,7.644,0,0,0-4.1,6.754H16.793c.4-1.452,3.141-4.049,5.81-5.41a12.191,12.191,0,0,1,4.484-.944s.69-1.089-1.579-1.507c0,0-3.123-.781-3.486-1.216C21.677,36.643,21.913,34.192,21.913,34.192Z" transform="translate(0 5.473)" fill="#fff"/>
      <path id="Trazado_617422" data-name="Trazado 617422" d="M29.872,34.192s-4.339-.145-6.064-1.688c2.814-4.266,1.289-9.241,1.87-13.889.581-4.63,3.213-7.407,8.478-7.407h.073c5.083,0,7.825,2.76,8.406,7.407.581,4.63-1.035,10.167,1.852,13.889C42.762,34.065,38.4,34.01,38.4,34.01h0s-.182,2.614.182,3.05a4.584,4.584,0,0,0,2.179,1,42.124,42.124,0,0,1,4.7,1.307,7.644,7.644,0,0,1,4.1,6.754H34.991c-.4-1.452-3.141-4.049-5.81-5.41a12.191,12.191,0,0,0-4.484-.944s-.69-1.089,1.579-1.507c0,0,3.123-.781,3.486-1.216C30.108,36.643,29.872,34.192,29.872,34.192Z" transform="translate(34.161 5.473)" fill="#fff"/>
    </g>
  </g>
</svg>
