<svg xmlns="http://www.w3.org/2000/svg" width="99" height="99" viewBox="0 0 99 99">
  <g id="Grupo_898345" data-name="Grupo 898345" transform="translate(-993.259 -6054)">
    <circle id="Elipse_5172" data-name="Elipse 5172" cx="49.5" cy="49.5" r="49.5" transform="translate(993.259 6054)" fill="#222b5a"/>
    <path id="Icon_awesome-building" data-name="Icon awesome-building" d="M51.526,56.726H49.163V2.836A2.836,2.836,0,0,0,46.326,0H6.618A2.836,2.836,0,0,0,3.782,2.836v53.89H1.418A1.418,1.418,0,0,0,0,58.144v2.364H52.944V58.144A1.418,1.418,0,0,0,51.526,56.726ZM15.127,8.982a1.418,1.418,0,0,1,1.418-1.418h4.727A1.418,1.418,0,0,1,22.69,8.982v4.727a1.418,1.418,0,0,1-1.418,1.418H16.545a1.418,1.418,0,0,1-1.418-1.418Zm0,11.345a1.418,1.418,0,0,1,1.418-1.418h4.727a1.418,1.418,0,0,1,1.418,1.418v4.727a1.418,1.418,0,0,1-1.418,1.418H16.545a1.418,1.418,0,0,1-1.418-1.418Zm6.145,17.491H16.545A1.418,1.418,0,0,1,15.127,36.4V31.672a1.418,1.418,0,0,1,1.418-1.418h4.727a1.418,1.418,0,0,1,1.418,1.418V36.4A1.418,1.418,0,0,1,21.272,37.817Zm8.982,18.909H22.69V46.8a1.418,1.418,0,0,1,1.418-1.418h4.727A1.418,1.418,0,0,1,30.254,46.8ZM37.817,36.4A1.418,1.418,0,0,1,36.4,37.817H31.672A1.418,1.418,0,0,1,30.254,36.4V31.672a1.418,1.418,0,0,1,1.418-1.418H36.4a1.418,1.418,0,0,1,1.418,1.418Zm0-11.345A1.418,1.418,0,0,1,36.4,26.472H31.672a1.418,1.418,0,0,1-1.418-1.418V20.327a1.418,1.418,0,0,1,1.418-1.418H36.4a1.418,1.418,0,0,1,1.418,1.418Zm0-11.345A1.418,1.418,0,0,1,36.4,15.127H31.672a1.418,1.418,0,0,1-1.418-1.418V8.982a1.418,1.418,0,0,1,1.418-1.418H36.4a1.418,1.418,0,0,1,1.418,1.418Z" transform="translate(1017.287 6073.246)" fill="#fff"/>
  </g>
</svg>
